<svg xmlns="http://www.w3.org/2000/svg" width="20" height="20" viewBox="0 0 20 20">
  <g id="그룹_165550" data-name="그룹 165550" transform="translate(-413 -260)">
    <rect id="사각형_150692" data-name="사각형 150692" width="20" height="20" transform="translate(413 260)" fill="none"/>
    <path id="star_1_" data-name="star (1)" d="M19.542,7.555a1.038,1.038,0,0,0-.9-.713l-5.655-.511L10.755,1.12a1.043,1.043,0,0,0-1.915,0L6.6,6.331.947,6.843A1.037,1.037,0,0,0,.356,8.657l4.275,3.732L3.37,17.917a1.04,1.04,0,0,0,1.549,1.12l4.878-2.9,4.876,2.9a1.04,1.04,0,0,0,1.55-1.12l-1.26-5.528,4.275-3.732a1.034,1.034,0,0,0,.305-1.1Zm0,0" transform="translate(413.203 260.162)" fill="#ddd"/>
  </g>
</svg>
