<svg xmlns="http://www.w3.org/2000/svg" width="22" height="20" viewBox="0 0 22 20">
  <g id="그룹_164589" data-name="그룹 164589" transform="translate(-1540 -88)">
    <g id="그룹_164588" data-name="그룹 164588">
      <g id="패스_84529" data-name="패스 84529" transform="translate(7420.75 10327.328)" fill="none" stroke-linecap="round" stroke-linejoin="round">
        <path d="M-5876.812-10231.578h-2.937l9.92-6.75,10.08,6.75h-2.969v11.25h-14.094Z" stroke="none"/>
        <path d="M -5869.830078125 -10238.328125 L -5879.75 -10231.578125 L -5876.8125 -10231.578125 L -5876.8125 -10220.328125 L -5862.71875 -10220.328125 L -5862.71875 -10231.578125 L -5859.75 -10231.578125 L -5869.830078125 -10238.328125 M -5869.830078125 -10239.328125 C -5869.63623046875 -10239.328125 -5869.44189453125 -10239.271484375 -5869.2734375 -10239.1591796875 L -5859.193359375 -10232.4091796875 C -5858.82763671875 -10232.1640625 -5858.6650390625 -10231.708984375 -5858.79296875 -10231.287109375 C -5858.92138671875 -10230.8662109375 -5859.3095703125 -10230.578125 -5859.75 -10230.578125 L -5861.71875 -10230.578125 L -5861.71875 -10220.328125 C -5861.71875 -10219.775390625 -5862.16650390625 -10219.328125 -5862.71875 -10219.328125 L -5876.8125 -10219.328125 C -5877.36474609375 -10219.328125 -5877.8125 -10219.775390625 -5877.8125 -10220.328125 L -5877.8125 -10230.578125 L -5879.75 -10230.578125 C -5880.18896484375 -10230.578125 -5880.57666015625 -10230.8642578125 -5880.70556640625 -10231.2841796875 C -5880.8349609375 -10231.703125 -5880.67529296875 -10232.158203125 -5880.3125 -10232.4052734375 L -5870.392578125 -10239.1552734375 C -5870.22314453125 -10239.2705078125 -5870.0263671875 -10239.328125 -5869.830078125 -10239.328125 Z" stroke="none" fill="#101012"/>
      </g>
      <path id="패스_84530" data-name="패스 84530" d="M-5895.812-10218.875v-8h6v8" transform="translate(7443.813 10325.875)" fill="none" stroke="#101012" stroke-linecap="round" stroke-linejoin="round" stroke-width="1"/>
    </g>
  </g>
</svg>
