<svg xmlns="http://www.w3.org/2000/svg" width="31.002" height="30.5" viewBox="0 0 31.002 30.5">
  <g id="그룹_165338" data-name="그룹 165338" transform="translate(-14.5 -334)">
    <g id="그룹_165327" data-name="그룹 165327" transform="translate(3 -206)" opacity="0.7">
      <g id="그룹_165319" data-name="그룹 165319" transform="translate(0.018 -0.531)">
        <g id="그룹_165318" data-name="그룹 165318" transform="translate(11.982 552.803)">
          <g id="그룹_165313" data-name="그룹 165313" transform="translate(8.183 2.728)">
            <path id="패스_85916" data-name="패스 85916" d="M21.557,12.688a3.874,3.874,0,1,1-3.874-3.926A3.9,3.9,0,0,1,21.557,12.688Z" transform="translate(-10.865 -8.762)" fill="none" stroke="#fff" stroke-linecap="round" stroke-miterlimit="10" stroke-width="1"/>
            <path id="패스_85915" data-name="패스 85915" d="M11.464,24.8a6.819,6.819,0,1,1,13.637,0" transform="translate(-11.464 -9.799)" fill="none" stroke="#fff" stroke-linecap="round" stroke-miterlimit="10" stroke-width="1"/>
          </g>
          <g id="그룹_165314" data-name="그룹 165314" transform="translate(20.456 0)">
            <g id="그룹_165315" data-name="그룹 165315" transform="translate(0 0)">
              <path id="패스_85916-2" data-name="패스 85916" d="M20.853,12.332a3.522,3.522,0,1,1-3.522-3.57A3.546,3.546,0,0,1,20.853,12.332Z" transform="translate(-13.534 -8.762)" fill="none" stroke="#fff" stroke-linecap="round" stroke-miterlimit="10" stroke-width="1"/>
              <path id="패스_85915-2" data-name="패스 85915" d="M13.4,19.236a5.468,5.468,0,0,1,3.626-1.308,6.09,6.09,0,0,1,5.92,6.247" transform="translate(-13.402 -10.538)" fill="none" stroke="#fff" stroke-linecap="round" stroke-miterlimit="10" stroke-width="1"/>
            </g>
          </g>
          <g id="그룹_165316" data-name="그룹 165316" transform="translate(0 0)">
            <g id="그룹_165315-2" data-name="그룹 165315" transform="translate(0)">
              <path id="패스_85916-3" data-name="패스 85916" d="M13.81,12.332a3.522,3.522,0,1,0,3.522-3.57A3.546,3.546,0,0,0,13.81,12.332Z" transform="translate(-11.584 -8.762)" fill="none" stroke="#fff" stroke-linecap="round" stroke-miterlimit="10" stroke-width="1"/>
              <path id="패스_85915-3" data-name="패스 85915" d="M22.948,19.236a5.468,5.468,0,0,0-3.626-1.308,6.09,6.09,0,0,0-5.92,6.247" transform="translate(-13.402 -10.538)" fill="none" stroke="#fff" stroke-linecap="round" stroke-miterlimit="10" stroke-width="1"/>
            </g>
          </g>
        </g>
        <g id="그룹_165320" data-name="그룹 165320" transform="translate(21.208 540.532)">
          <g id="패스_85914" data-name="패스 85914" transform="translate(-0.5 -1.223)" fill="none">
            <path d="M5.791,13.119a.909.909,0,0,1-.908-.908v-.583a4.745,4.745,0,0,1-.478-.2l-.412.412a.908.908,0,0,1-1.282,0l-.932-.932a.91.91,0,0,1,0-1.282l.4-.4a4.8,4.8,0,0,1-.2-.487H1.41a.913.913,0,0,1-.91-.91V6.512A.91.91,0,0,1,1.41,5.6h.548a4.789,4.789,0,0,1,.207-.5l-.387-.387a.91.91,0,0,1,0-1.282L2.709,2.5a.908.908,0,0,1,1.284,0l.378.377a4.674,4.674,0,0,1,.512-.213V2.131a.909.909,0,0,1,.908-.908H7.105a.911.911,0,0,1,.91.908v.533a4.457,4.457,0,0,1,.512.213L8.9,2.5a.908.908,0,0,1,1.281,0l.933.933a.91.91,0,0,1,0,1.284l-.385.385a4.791,4.791,0,0,1,.2.5h.551a.91.91,0,0,1,.908.908V7.828a.912.912,0,0,1-.905.91H10.92a4.24,4.24,0,0,1-.2.487l.4.4a.912.912,0,0,1,0,1.285l-.932.93a.89.89,0,0,1-.641.266.9.9,0,0,1-.641-.266l-.412-.412a5.092,5.092,0,0,1-.478.2v.583a.911.911,0,0,1-.91.908Z" stroke="none"/>
            <path d="M 7.014665603637695 12.11878108978271 L 7.014665603637695 10.92067050933838 L 7.681375503540039 10.68498039245605 C 7.80957555770874 10.63967037200928 7.938775539398193 10.58631038665771 8.065375328063965 10.52640056610107 L 8.702115058898926 10.22510051727295 L 9.546024322509766 11.06900978088379 L 10.34718799591064 10.26903247833252 L 9.498285293579102 9.423070907592773 L 9.821235656738281 8.77721118927002 C 9.877185821533203 8.66533088684082 9.928165435791016 8.543540954589844 9.977105140686035 8.404870986938477 L 10.21256542205811 7.737660884857178 L 11.39717578887939 7.737660884857178 L 11.39717578887939 6.60412073135376 L 10.21562576293945 6.60412073135376 L 9.988765716552734 5.918080806732178 C 9.950865745544434 5.803480625152588 9.900665283203125 5.680340766906738 9.826005935668945 5.518810749053955 L 9.533275604248047 4.885480880737305 L 10.34665870666504 4.072124004364014 L 9.546543121337891 3.272008180618286 L 8.728115081787109 4.087430953979492 L 8.08835506439209 3.77561092376709 C 7.952455520629883 3.709380865097046 7.818995475769043 3.65376091003418 7.69165563583374 3.610300779342651 L 7.014665603637695 3.379240751266479 L 7.014665603637695 2.223000764846802 L 5.882505416870117 2.223000764846802 L 5.882505416870117 3.37739086151123 L 5.207825660705566 3.609500885009766 C 5.080435276031494 3.65333080291748 4.94519567489624 3.7097008228302 4.805865287780762 3.777050733566284 L 4.167305469512939 4.085690975189209 L 3.350577354431152 3.271961688995361 L 2.549869060516357 4.071464538574219 L 3.374295473098755 4.895890712738037 L 3.065265417098999 5.535610675811768 C 3.005885601043701 5.658540725708008 2.952345609664917 5.788890838623047 2.901585578918457 5.93410062789917 L 2.667365550994873 6.60412073135376 L 1.499995470046997 6.60412073135376 L 1.499995470046997 7.737660884857178 L 2.683215618133545 7.737660884857178 L 2.918675422668457 8.404870986938477 C 2.96146559715271 8.526121139526367 3.016005516052246 8.655660629272461 3.08076548576355 8.789891242980957 L 3.389345407485962 9.429440498352051 L 2.549822092056274 10.26895713806152 L 3.350510597229004 11.06964588165283 L 4.197075366973877 10.22309112548828 L 4.835225582122803 10.52803039550781 C 4.959715366363525 10.58752059936523 5.083365440368652 10.63857078552246 5.213255405426025 10.68409061431885 L 5.882505416870117 10.91865062713623 L 5.882505416870117 12.11878108978271 L 7.014665603637695 12.11878108978271 M 7.105055332183838 13.11878108978271 L 5.790725708007812 13.11878108978271 C 5.29002571105957 13.11878108978271 4.882505416870117 12.71127033233643 4.882505416870117 12.21057033538818 L 4.882505416870117 11.62781047821045 C 4.719785690307617 11.57078075408936 4.561225414276123 11.50541114807129 4.404065608978271 11.43031120300293 L 3.992375612258911 11.84200096130371 C 3.821305513381958 12.01307106018066 3.593205451965332 12.10764122009277 3.351205587387085 12.10764122009277 C 3.109195470809937 12.10764122009277 2.881105422973633 12.01446056365967 2.710035562515259 11.84339046478271 L 1.778175473213196 10.91153049468994 C 1.42490553855896 10.55826091766357 1.423515558242798 9.983850479125977 1.775395512580872 9.629180908203125 L 2.18012547492981 9.224451065063477 C 2.103625535964966 9.065900802612305 2.034085512161255 8.903170585632324 1.975675463676453 8.73766040802002 L 1.409605503082275 8.73766040802002 C 0.9061254858970642 8.734880447387695 0.4999954998493195 8.327370643615723 0.4999954998493195 7.828060626983643 L 0.4999954998493195 6.512331008911133 C 0.4999954998493195 6.011631011962891 0.9075155258178711 5.60412073135376 1.409605503082275 5.60412073135376 L 1.957595467567444 5.60412073135376 C 2.017395496368408 5.433050632476807 2.085545539855957 5.264760971069336 2.164825439453125 5.100640773773193 L 1.778175473213196 4.713990688323975 C 1.42490553855896 4.362100601196289 1.423515558242798 3.786300897598267 1.775395512580872 3.431640863418579 L 2.708645582199097 2.499780893325806 C 2.879715442657471 2.328710794448853 3.107805490493774 2.234130859375 3.351205587387085 2.234130859375 C 3.593205451965332 2.234130859375 3.821305513381958 2.328710794448853 3.992375612258911 2.499780893325806 L 4.370685577392578 2.876700878143311 C 4.537585735321045 2.796030759811401 4.70865535736084 2.723710775375366 4.882505416870117 2.663900852203369 L 4.882505416870117 2.131210803985596 C 4.882505416870117 1.630510807037354 5.29002571105957 1.223000764846802 5.790725708007812 1.223000764846802 L 7.105055332183838 1.223000764846802 C 7.60575532913208 1.223000764846802 8.014665603637695 1.630510807037354 8.014665603637695 2.131210803985596 L 8.014665603637695 2.663900852203369 C 8.189905166625977 2.723710775375366 8.36097526550293 2.796030759811401 8.526485443115234 2.876700878143311 L 8.90479564666748 2.499780893325806 C 9.075865745544434 2.328710794448853 9.30396556854248 2.234130859375 9.545965194702148 2.234130859375 C 9.789365768432617 2.234130859375 10.01606559753418 2.32732081413269 10.18575572967529 2.497000694274902 L 11.11900520324707 3.430250883102417 C 11.47226524353027 3.786300897598267 11.47226524353027 4.362100601196289 11.11900520324707 4.713990688323975 L 10.73373508453369 5.099250793457031 C 10.81023597717285 5.264760971069336 10.88116550445557 5.431660652160645 10.93819522857666 5.60412073135376 L 11.4889554977417 5.60412073135376 C 11.98826503753662 5.60412073135376 12.39717578887939 6.011631011962891 12.39717578887939 6.512331008911133 L 12.39717578887939 7.828060626983643 C 12.39717578887939 8.327370643615723 11.99105548858643 8.734880447387695 11.4917459487915 8.73766040802002 L 10.92010593414307 8.73766040802002 C 10.86169528961182 8.903170585632324 10.79493522644043 9.065900802612305 10.71565532684326 9.224451065063477 L 11.11900520324707 9.626400947570801 C 11.47226524353027 9.983850479125977 11.47226524353027 10.55826091766357 11.11900520324707 10.91153049468994 L 10.1871452331543 11.84200096130371 C 10.02024555206299 12.01307106018066 9.790755271911621 12.10764122009277 9.545965194702148 12.10764122009277 C 9.30396556854248 12.10764122009277 9.075865745544434 12.01307106018066 8.90479564666748 11.84200096130371 L 8.493105888366699 11.43031120300293 C 8.337335586547852 11.50402069091797 8.175995826721191 11.57078075408936 8.014665603637695 11.62781047821045 L 8.014665603637695 12.21057033538818 C 8.014665603637695 12.71127033233643 7.60575532913208 13.11878108978271 7.105055332183838 13.11878108978271 Z" stroke="none" fill="#fff"/>
          </g>
          <g id="타원_9465" data-name="타원 9465" transform="translate(3.845 3.871)" fill="none" stroke="#fff" stroke-width="1">
            <circle cx="2.103" cy="2.103" r="2.103" stroke="none"/>
            <circle cx="2.103" cy="2.103" r="1.603" fill="none"/>
          </g>
        </g>
      </g>
    </g>
  </g>
</svg>
