<svg xmlns="http://www.w3.org/2000/svg" width="31" height="31.001" viewBox="0 0 31 31.001">
  <g id="그룹_164821" data-name="그룹 164821" transform="translate(0.5 0.5)">
    <g id="그룹_164798" data-name="그룹 164798" transform="translate(16 14.999)">
      <path id="패스_85816" data-name="패스 85816" d="M21.81,12.762a4,4,0,1,1-4-4A4,4,0,0,1,21.81,12.762Z" transform="translate(-10.81 -8.762)" fill="none" stroke="#fff" stroke-linecap="round" stroke-miterlimit="10" stroke-width="1"/>
      <path id="패스_85817" data-name="패스 85817" d="M11.464,24.928a7,7,0,1,1,14,0" transform="translate(-11.464 -9.926)" fill="none" stroke="#fff" stroke-linecap="round" stroke-miterlimit="10" stroke-width="1"/>
    </g>
    <path id="패스_85857" data-name="패스 85857" d="M2.5.5H.5v2" transform="translate(-0.5 -0.5)" fill="none" stroke="#fff" stroke-linecap="round" stroke-linejoin="round" stroke-miterlimit="10" stroke-width="1"/>
    <path id="패스_85859" data-name="패스 85859" d="M2,0H0V2" transform="translate(27 0) rotate(90)" fill="none" stroke="#fff" stroke-linecap="round" stroke-linejoin="round" stroke-miterlimit="10" stroke-width="1"/>
    <path id="패스_85858" data-name="패스 85858" d="M2,0H0V2" transform="translate(0 17.001) rotate(-90)" fill="none" stroke="#fff" stroke-linecap="round" stroke-linejoin="round" stroke-miterlimit="10" stroke-width="1"/>
    <rect id="사각형_149576" data-name="사각형 149576" width="1" height="13" transform="translate(2 2)" fill="#fff"/>
    <rect id="사각형_149580" data-name="사각형 149580" width="1" height="13" transform="translate(11.5 2)" fill="#fff"/>
    <rect id="사각형_149581" data-name="사각형 149581" width="1" height="13" transform="translate(13.5 2)" fill="#fff"/>
    <rect id="사각형_149583" data-name="사각형 149583" width="1" height="13" transform="translate(17 2)" fill="#fff"/>
    <rect id="사각형_149585" data-name="사각형 149585" width="1" height="11" transform="translate(22 2)" fill="#fff"/>
    <rect id="사각형_149586" data-name="사각형 149586" width="1" height="11" transform="translate(24 2)" fill="#fff"/>
    <rect id="사각형_149577" data-name="사각형 149577" width="2" height="13" transform="translate(4 2)" fill="#fff"/>
    <rect id="사각형_149579" data-name="사각형 149579" width="2" height="13" transform="translate(8.5 2)" fill="#fff"/>
    <rect id="사각형_149584" data-name="사각형 149584" width="2" height="11" transform="translate(19 2)" fill="#fff"/>
    <rect id="사각형_149578" data-name="사각형 149578" width="0.5" height="13" transform="translate(7 2)" fill="#fff"/>
    <rect id="사각형_149582" data-name="사각형 149582" width="0.5" height="13" transform="translate(15.5 2)" fill="#fff"/>
  </g>
</svg>
