<svg xmlns="http://www.w3.org/2000/svg" width="30.497" height="31" viewBox="0 0 30.497 31">
  <g id="그룹_164912" data-name="그룹 164912" transform="translate(-13.5 -333.5)">
    <line id="선_3503" data-name="선 3503" x2="6" transform="translate(27.5 341.738)" fill="none" stroke="#fff" stroke-linecap="round" stroke-width="1"/>
    <line id="선_3504" data-name="선 3504" x2="6" transform="translate(27.5 349.738)" fill="none" stroke="#fff" stroke-linecap="round" stroke-width="1"/>
    <g id="check" transform="translate(18.5 339.238)">
      <path id="check-2" data-name="check" d="M9.286,6,5.652,9.524,4,7.922" transform="translate(-4 -6)" fill="none" stroke="#fff" stroke-linecap="round" stroke-linejoin="round" stroke-width="1"/>
    </g>
    <g id="check-3" data-name="check" transform="translate(18.5 347.238)">
      <path id="check-4" data-name="check" d="M9.286,6,5.652,9.524,4,7.922" transform="translate(-4 -6)" fill="none" stroke="#fff" stroke-linecap="round" stroke-linejoin="round" stroke-width="1"/>
    </g>
    <path id="패스_85863" data-name="패스 85863" d="M24.5,15.875V.5H.5v30H18.625" transform="translate(13.5 333.5)" fill="none" stroke="#fff" stroke-linecap="round" stroke-linejoin="round" stroke-miterlimit="10" stroke-width="1"/>
    <g id="그룹_164834" data-name="그룹 164834" transform="translate(32.308 352.312)">
      <g id="패스_85862" data-name="패스 85862" transform="translate(-0.5 -1.223)" fill="none">
        <path d="M5.7,12.912a.894.894,0,0,1-.892-.892v-.573a4.662,4.662,0,0,1-.47-.194l-.4.4a.892.892,0,0,1-1.26,0l-.916-.916a.894.894,0,0,1,0-1.26l.4-.4a4.719,4.719,0,0,1-.2-.478H1.394A.9.9,0,0,1,.5,7.713V6.42a.894.894,0,0,1,.894-.892h.538a4.7,4.7,0,0,1,.2-.495l-.38-.38a.894.894,0,0,1,0-1.26l.917-.916a.892.892,0,0,1,1.261,0l.372.37a4.592,4.592,0,0,1,.5-.209V2.115A.894.894,0,0,1,5.7,1.223H6.99a.9.9,0,0,1,.894.892v.523a4.379,4.379,0,0,1,.5.209l.372-.37a.892.892,0,0,1,1.259,0l.917.917a.894.894,0,0,1,0,1.261l-.379.379a4.707,4.707,0,0,1,.2.5H11.3a.894.894,0,0,1,.892.892V7.713a.9.9,0,0,1-.89.894h-.562a4.167,4.167,0,0,1-.2.478l.4.395a.9.9,0,0,1,0,1.263l-.916.914a.874.874,0,0,1-.63.261.886.886,0,0,1-.63-.261l-.4-.4a5,5,0,0,1-.47.194v.573a.9.9,0,0,1-.894.892Z" stroke="none"/>
        <path d="M 6.883756637573242 11.91154479980469 L 6.883756637573242 10.73938465118408 L 7.550507068634033 10.50371551513672 C 7.675867080688477 10.45940494537354 7.802247047424316 10.4072151184082 7.926126956939697 10.34859466552734 L 8.562867164611816 10.04728507995605 L 9.388439178466797 10.87284755706787 L 10.15097236633301 10.1114559173584 L 9.320337295532227 9.283675193786621 L 9.643277168273926 8.637825012207031 C 9.697896957397461 8.528605461120605 9.747726440429688 8.409564971923828 9.79560661315918 8.27391529083252 L 10.03108692169189 7.606755256652832 L 11.18991661071777 7.606755256652832 L 11.18991661071777 6.52779483795166 L 10.03374671936035 6.52779483795166 L 9.806897163391113 5.841714859008789 C 9.770377159118652 5.731265068054199 9.719806671142578 5.60721492767334 9.647736549377441 5.451314926147461 L 9.354987144470215 4.817985057830811 L 10.15048122406006 4.022489070892334 L 9.388923645019531 3.260931253433228 L 8.5882568359375 4.058645248413086 L 7.948486804962158 3.746785163879395 C 7.815646648406982 3.682034969329834 7.685196876525879 3.627665042877197 7.560746669769287 3.585185050964355 L 6.883756637573242 3.354125022888184 L 6.883756637573242 2.223005056381226 L 5.806166648864746 2.223005056381226 L 5.806166648864746 3.352295160293579 L 5.131476879119873 3.584404945373535 C 5.006947040557861 3.62724494934082 4.874716758728027 3.682364940643311 4.738466739654541 3.748224973678589 L 4.099896907806396 4.05689525604248 L 3.300935745239258 3.260880947113037 L 2.538805484771729 4.021851539611816 L 3.345306873321533 4.828335285186768 L 3.036266803741455 5.46806526184082 C 2.978226900100708 5.588214874267578 2.925856828689575 5.715714931488037 2.876166820526123 5.857834815979004 L 2.641926765441895 6.52779483795166 L 1.499996900558472 6.52779483795166 L 1.499996900558472 7.606755256652832 L 2.657466888427734 7.606755256652832 L 2.89294695854187 8.27391529083252 C 2.934796810150146 8.392475128173828 2.988146781921387 8.519194602966309 3.051516771316528 8.650545120239258 L 3.36005687713623 9.290075302124023 L 2.538748741149902 10.11137676239014 L 3.300847768783569 10.87347602844238 L 4.129096984863281 10.04525470733643 L 4.767256736755371 10.35024547576904 C 4.888987064361572 10.40841484069824 5.009876728057861 10.45832538604736 5.136857032775879 10.50281524658203 L 5.806166648864746 10.73734474182129 L 5.806166648864746 11.91154479980469 L 6.883756637573242 11.91154479980469 M 6.989996910095215 12.91154479980469 L 5.698556900024414 12.91154479980469 C 5.206576824188232 12.91154479980469 4.806166648864746 12.51113510131836 4.806166648864746 12.01915550231934 L 4.806166648864746 11.44655513763428 C 4.646266937255859 11.39052486419678 4.490477085113525 11.32629489898682 4.336056709289551 11.25249481201172 L 3.931536912918091 11.65700531005859 C 3.763446807861328 11.82510471343994 3.539326906204224 11.91802501678467 3.301536798477173 11.91802501678467 C 3.063746929168701 11.91802501678467 2.839626789093018 11.82646465301514 2.671526908874512 11.65837478637695 L 1.755906820297241 10.74275493621826 C 1.40878689289093 10.39563465118408 1.407426834106445 9.831225395202637 1.753176927566528 9.482745170593262 L 2.150856971740723 9.085064888000488 C 2.07569694519043 8.929275512695312 2.007366895675659 8.769374847412109 1.949966907501221 8.606755256652832 L 1.393756866455078 8.606755256652832 C 0.8990468978881836 8.604015350341797 0.4999968707561493 8.203604698181152 0.4999968707561493 7.712995052337646 L 0.4999968707561493 6.420185089111328 C 0.4999968707561493 5.928215026855469 0.9004168510437012 5.52779483795166 1.393756866455078 5.52779483795166 L 1.932196855545044 5.52779483795166 C 1.99096691608429 5.359704971313477 2.057926893234253 5.194344997406006 2.135826826095581 5.033084869384766 L 1.755906820297241 4.653174877166748 C 1.40878689289093 4.307425022125244 1.407426834106445 3.741645097732544 1.753176927566528 3.393165111541748 L 2.670166969299316 2.477545022964478 C 2.8382568359375 2.309445142745972 3.062376976013184 2.216525077819824 3.301536798477173 2.216525077819824 C 3.539326906204224 2.216525077819824 3.763446807861328 2.309445142745972 3.931536912918091 2.477545022964478 L 4.303256988525391 2.84789514541626 C 4.467247009277344 2.768625020980835 4.635336875915527 2.697565078735352 4.806166648864746 2.638795137405396 L 4.806166648864746 2.115395069122314 C 4.806166648864746 1.623414993286133 5.206576824188232 1.223005056381226 5.698556900024414 1.223005056381226 L 6.989996910095215 1.223005056381226 C 7.481966972351074 1.223005056381226 7.883756637573242 1.623414993286133 7.883756637573242 2.115395069122314 L 7.883756637573242 2.638795137405396 C 8.055947303771973 2.697565078735352 8.224037170410156 2.768625020980835 8.386656761169434 2.84789514541626 L 8.758377075195312 2.477545022964478 C 8.926466941833496 2.309445142745972 9.150596618652344 2.216525077819824 9.38837718963623 2.216525077819824 C 9.627536773681641 2.216525077819824 9.850296974182129 2.308084964752197 10.01701641082764 2.474805116653442 L 10.934006690979 3.39179515838623 C 11.28112697601318 3.741645097732544 11.28112697601318 4.307425022125244 10.934006690979 4.653174877166748 L 10.55545711517334 5.03172492980957 C 10.6306266784668 5.194344997406006 10.70031642913818 5.358335018157959 10.75634670257568 5.52779483795166 L 11.29752731323242 5.52779483795166 C 11.78813648223877 5.52779483795166 12.18991661071777 5.928215026855469 12.18991661071777 6.420185089111328 L 12.18991661071777 7.712995052337646 C 12.18991661071777 8.203604698181152 11.79086685180664 8.604015350341797 11.30025672912598 8.606755256652832 L 10.73858642578125 8.606755256652832 C 10.68118667602539 8.769374847412109 10.61559677124023 8.929275512695312 10.53769683837891 9.085064888000488 L 10.934006690979 9.480014801025391 C 11.28112697601318 9.831225395202637 11.28112697601318 10.39563465118408 10.934006690979 10.74275493621826 L 10.01838684082031 11.65700531005859 C 9.854387283325195 11.82510471343994 9.628907203674316 11.91802501678467 9.38837718963623 11.91802501678467 C 9.150596618652344 11.91802501678467 8.926466941833496 11.82510471343994 8.758377075195312 11.65700531005859 L 8.353866577148438 11.25249481201172 C 8.200806617736816 11.32492542266846 8.042277336120605 11.39052486419678 7.883756637573242 11.44655513763428 L 7.883756637573242 12.01915550231934 C 7.883756637573242 12.51113510131836 7.481966972351074 12.91154479980469 6.989996910095215 12.91154479980469 Z" stroke="none" fill="#fff"/>
      </g>
      <g id="타원_43" data-name="타원 43" transform="translate(3.811 3.838)" fill="none" stroke="#fff" stroke-width="1">
        <circle cx="2.033" cy="2.033" r="2.033" stroke="none"/>
        <circle cx="2.033" cy="2.033" r="1.533" fill="none"/>
      </g>
    </g>
  </g>
</svg>
