<svg xmlns="http://www.w3.org/2000/svg" width="30" height="30.708" viewBox="0 0 30 30.708">
  <g id="그룹_164910" data-name="그룹 164910" transform="translate(-14 -394)">
    <g id="그룹_164838" data-name="그룹 164838" transform="translate(32.5 394)">
      <g id="패스_85862" data-name="패스 85862" transform="translate(-0.5 -1.223)" fill="none">
        <path d="M5.614,12.722a.879.879,0,0,1-.878-.878V11.28a4.586,4.586,0,0,1-.462-.191l-.4.4a.878.878,0,0,1-1.24,0l-.9-.9a.879.879,0,0,1,0-1.24l.391-.391a4.642,4.642,0,0,1-.2-.471H1.379A.882.882,0,0,1,.5,7.608V6.336a.879.879,0,0,1,.879-.878h.53a4.629,4.629,0,0,1,.2-.487L1.736,4.6a.879.879,0,0,1,0-1.24l.9-.9a.878.878,0,0,1,1.241,0l.366.364a4.518,4.518,0,0,1,.495-.206V2.1a.879.879,0,0,1,.878-.878h1.27a.88.88,0,0,1,.879.878v.515a4.308,4.308,0,0,1,.495.206l.366-.364a.878.878,0,0,1,1.238,0l.9.9a.88.88,0,0,1,0,1.241l-.372.372a4.631,4.631,0,0,1,.2.488h.532A.88.88,0,0,1,12,6.336V7.608a.881.881,0,0,1-.875.879h-.553a4.1,4.1,0,0,1-.2.471l.39.389a.881.881,0,0,1,0,1.242l-.9.9a.86.86,0,0,1-.62.257.872.872,0,0,1-.62-.257l-.4-.4a4.922,4.922,0,0,1-.462.191v.563a.88.88,0,0,1-.879.878Z" stroke="none"/>
        <path d="M 6.763773441314697 11.72162246704102 L 6.763773441314697 10.57325267791748 L 7.430533409118652 10.33759307861328 C 7.553353309631348 10.29418277740479 7.677143096923828 10.24305248260498 7.798463344573975 10.18564319610596 L 8.435213088989258 9.884283065795898 L 9.244023323059082 10.69308280944824 L 9.971157073974609 9.967040061950684 L 9.157243728637695 9.155942916870117 L 9.48016357421875 8.510103225708008 C 9.533623695373535 8.403182983398438 9.582383155822754 8.28669261932373 9.629213333129883 8.153992652893066 L 9.864673614501953 7.486773014068604 L 10.99996376037598 7.486773014068604 L 10.99996376037598 6.457852840423584 L 9.867083549499512 6.457852840423584 L 9.640243530273438 5.771772861480713 C 9.604033470153809 5.662252902984619 9.555953025817871 5.544322967529297 9.484333038330078 5.389372825622559 L 9.191633224487305 4.756062984466553 L 9.970697402954102 3.976988792419434 L 9.244466781616211 3.250774145126343 L 8.460163116455078 4.032182693481445 L 7.820423126220703 3.720412969589233 C 7.69023323059082 3.656962871551514 7.562503337860107 3.603732824325562 7.440803527832031 3.562202930450439 L 6.763773441314697 3.33115291595459 L 6.763773441314697 2.223002910614014 L 5.736193180084229 2.223002910614014 L 5.736193180084229 3.329303026199341 L 5.061493396759033 3.561403036117554 C 4.939643383026123 3.603322982788086 4.81014347076416 3.657302856445312 4.67659330368042 3.721843004226685 L 4.038053512573242 4.030452728271484 L 3.255433797836304 3.250704288482666 L 2.528671264648438 3.976383209228516 L 3.318713426589966 4.766452789306641 L 3.00968337059021 5.406162738800049 C 2.952843427658081 5.52383279800415 2.901553392410278 5.648683071136475 2.852903366088867 5.787862777709961 L 2.618673324584961 6.457852840423584 L 1.500003337860107 6.457852840423584 L 1.500003337860107 7.486773014068604 L 2.63390326499939 7.486773014068604 L 2.869383335113525 8.153932571411133 C 2.910353422164917 8.269983291625977 2.962603330612183 8.394083023071289 3.024693250656128 8.522792816162109 L 3.33323335647583 9.162322998046875 L 2.528604507446289 9.966954231262207 L 3.255342245101929 10.69369220733643 L 4.06674337387085 9.882272720336914 L 4.704923152923584 10.18726253509521 C 4.824133396148682 10.24423313140869 4.942533493041992 10.29311275482178 5.06691312789917 10.33670330047607 L 5.736193180084229 10.57124328613281 L 5.736193180084229 11.72162246704102 L 6.763773441314697 11.72162246704102 M 6.884543418884277 12.72162246704102 L 5.614083290100098 12.72162246704102 C 5.13010311126709 12.72162246704102 4.736193180084229 12.32771301269531 4.736193180084229 11.8437328338623 L 4.736193180084229 11.28043270111084 C 4.578903198242188 11.22531318664551 4.425633430480957 11.16212272644043 4.273723125457764 11.08952331542969 L 3.875783205032349 11.48747253417969 C 3.710423231124878 11.65283298492432 3.489933252334595 11.74424266815186 3.2560133934021 11.74424266815186 C 3.022083282470703 11.74424266815186 2.801603317260742 11.65417289733887 2.636243343353271 11.48881340026855 L 1.735503315925598 10.58807277679443 C 1.394023299217224 10.24659252166748 1.392683267593384 9.691352844238281 1.732813358306885 9.348532676696777 L 2.124033212661743 8.95731258392334 C 2.050093412399292 8.80405330657959 1.982873320579529 8.646762847900391 1.926403284072876 8.486772537231445 L 1.379233360290527 8.486772537231445 C 0.8925632834434509 8.48408317565918 0.5000033378601074 8.090183258056641 0.5000033378601074 7.607542991638184 L 0.5000033378601074 6.335742950439453 C 0.5000033378601074 5.851752758026123 0.8939133286476135 5.457852840423584 1.379233360290527 5.457852840423584 L 1.908923268318176 5.457852840423584 C 1.966733336448669 5.292492866516113 2.032613277435303 5.129812717437744 2.109243392944336 4.971182823181152 L 1.735503315925598 4.597433090209961 C 1.394023299217224 4.257302761077881 1.392683267593384 3.700722932815552 1.732813358306885 3.357903003692627 L 2.634903192520142 2.457152843475342 C 2.800263404846191 2.291792869567871 3.020743370056152 2.200372934341431 3.2560133934021 2.200372934341431 C 3.489933252334595 2.200372934341431 3.710423231124878 2.291792869567871 3.875783205032349 2.457152843475342 L 4.241453170776367 2.82148289680481 C 4.402783393859863 2.743512868881226 4.568143367767334 2.673602819442749 4.736193180084229 2.615792989730835 L 4.736193180084229 2.100893020629883 C 4.736193180084229 1.616912961006165 5.13010311126709 1.223002910614014 5.614083290100098 1.223002910614014 L 6.884543418884277 1.223002910614014 C 7.368523120880127 1.223002910614014 7.763773441314697 1.616912961006165 7.763773441314697 2.100893020629883 L 7.763773441314697 2.615792989730835 C 7.933173179626465 2.673602819442749 8.098523139953613 2.743512868881226 8.258513450622559 2.82148289680481 L 8.62419319152832 2.457152843475342 C 8.789553642272949 2.291792869567871 9.01003360748291 2.200372934341431 9.243953704833984 2.200372934341431 C 9.479223251342773 2.200372934341431 9.698363304138184 2.29045295715332 9.862373352050781 2.454463005065918 L 10.76447296142578 3.356552839279175 C 11.10594367980957 3.700722932815552 11.10594367980957 4.257302761077881 10.76447296142578 4.597433090209961 L 10.39207363128662 4.969832897186279 C 10.46601295471191 5.129812717437744 10.53457355499268 5.29114294052124 10.58969306945801 5.457852840423584 L 11.12207317352295 5.457852840423584 C 11.60471343994141 5.457852840423584 11.99996376037598 5.851752758026123 11.99996376037598 6.335742950439453 L 11.99996376037598 7.607542991638184 C 11.99996376037598 8.090183258056641 11.60740375518799 8.48408317565918 11.12476348876953 8.486772537231445 L 10.5722131729126 8.486772537231445 C 10.51575374603271 8.646762847900391 10.45122337341309 8.80405330657959 10.37459373474121 8.95731258392334 L 10.76447296142578 9.345843315124512 C 11.10594367980957 9.691352844238281 11.10594367980957 10.24659252166748 10.76447296142578 10.58807277679443 L 9.863723754882812 11.48747253417969 C 9.702393531799316 11.65283298492432 9.480573654174805 11.74424266815186 9.243953704833984 11.74424266815186 C 9.01003360748291 11.74424266815186 8.789553642272949 11.65283298492432 8.62419319152832 11.48747253417969 L 8.226243019104004 11.08952331542969 C 8.07567310333252 11.16078281402588 7.919723510742188 11.22531318664551 7.763773441314697 11.28043270111084 L 7.763773441314697 11.8437328338623 C 7.763773441314697 12.32771301269531 7.368523120880127 12.72162246704102 6.884543418884277 12.72162246704102 Z" stroke="none" fill="#fff"/>
      </g>
      <g id="타원_43" data-name="타원 43" transform="translate(3.716 3.742)" fill="none" stroke="#fff" stroke-width="1">
        <circle cx="2.033" cy="2.033" r="2.033" stroke="none"/>
        <circle cx="2.033" cy="2.033" r="1.533" fill="none"/>
      </g>
    </g>
    <g id="그룹_164837" data-name="그룹 164837" transform="translate(14 401.92)">
      <g id="타원_9396" data-name="타원 9396" fill="none" stroke="#fff" stroke-linecap="round" stroke-linejoin="round" stroke-width="1">
        <circle cx="10.5" cy="10.5" r="10.5" stroke="none"/>
        <circle cx="10.5" cy="10.5" r="10" fill="none"/>
      </g>
      <line id="선_317" data-name="선 317" x1="4.789" y1="4.788" transform="translate(17.774 17.293)" fill="none" stroke="#fff" stroke-linecap="round" stroke-linejoin="round" stroke-width="1"/>
    </g>
  </g>
</svg>
