<svg xmlns="http://www.w3.org/2000/svg" width="31.001" height="31" viewBox="0 0 31.001 31">
  <g id="그룹_165339" data-name="그룹 165339" transform="translate(-14.5 -273.5)">
    <g id="그룹_165332" data-name="그룹 165332">
      <g id="그룹_165330" data-name="그룹 165330">
        <line id="선_3500" data-name="선 3500" y2="4.547" transform="translate(31.293 274)" fill="none" stroke="#fff" stroke-linecap="round" stroke-linejoin="round" stroke-width="1" opacity="0.7"/>
        <line id="선_3501" data-name="선 3501" y2="4.547" transform="translate(21.441 274)" fill="none" stroke="#fff" stroke-linecap="round" stroke-linejoin="round" stroke-width="1" opacity="0.7"/>
        <line id="선_3502" data-name="선 3502" x2="21.977" transform="translate(15.379 283.824)" fill="none" stroke="#fff" stroke-linecap="round" stroke-linejoin="round" stroke-width="1" opacity="0.7"/>
        <path id="패스_85860" data-name="패스 85860" d="M23.735,13.969V5.258a.767.767,0,0,0-.775-.758H1.275A.767.767,0,0,0,.5,5.258V25.719a.767.767,0,0,0,.775.758H13.786" transform="translate(14.5 272.531)" fill="none" stroke="#fff" stroke-linecap="round" stroke-miterlimit="10" stroke-width="1" opacity="0.7"/>
        <g id="그룹_165329" data-name="그룹 165329" transform="translate(31.47 289.5)" opacity="0.7">
          <path id="패스_85816" data-name="패스 85816" d="M21.542,12.628a3.866,3.866,0,1,1-3.867-3.866A3.866,3.866,0,0,1,21.542,12.628Z" transform="translate(-10.91 -8.762)" fill="none" stroke="#fff" stroke-linecap="round" stroke-miterlimit="10" stroke-width="1"/>
          <path id="패스_85817" data-name="패스 85817" d="M11.464,24.694a6.766,6.766,0,1,1,13.531,0" transform="translate(-11.464 -10.194)" fill="none" stroke="#fff" stroke-linecap="round" stroke-miterlimit="10" stroke-width="1"/>
        </g>
      </g>
    </g>
  </g>
</svg>
