<svg xmlns="http://www.w3.org/2000/svg" width="30.5" height="31" viewBox="0 0 30.5 31">
  <g id="그룹_164820" data-name="그룹 164820" transform="translate(0.5 0.5)">
    <g id="패스_85856" data-name="패스 85856" transform="translate(18.115 17.393)" fill="none" stroke-linejoin="round">
      <path d="M5.563,12.606a.87.87,0,0,1-.869-.869V11.18a4.541,4.541,0,0,1-.458-.189l-.394.394a.869.869,0,0,1-1.227,0l-.892-.892a.87.87,0,0,1,0-1.227l.387-.387a4.6,4.6,0,0,1-.2-.466H1.37a.873.873,0,0,1-.87-.87V6.284a.87.87,0,0,1,.87-.869h.524a4.582,4.582,0,0,1,.2-.482l-.37-.37a.87.87,0,0,1,0-1.227l.893-.892a.869.869,0,0,1,1.228,0l.362.361a4.472,4.472,0,0,1,.49-.2v-.51a.87.87,0,0,1,.869-.869H6.821a.871.871,0,0,1,.87.869V2.6a4.265,4.265,0,0,1,.49.2l.362-.361a.869.869,0,0,1,1.226,0l.893.893a.871.871,0,0,1,0,1.228l-.369.369a4.585,4.585,0,0,1,.2.483h.527a.871.871,0,0,1,.869.869V7.544a.872.872,0,0,1-.866.87h-.547a4.058,4.058,0,0,1-.2.466l.386.385a.872.872,0,0,1,0,1.23l-.892.89a.852.852,0,0,1-.614.254.863.863,0,0,1-.614-.254l-.394-.394a4.873,4.873,0,0,1-.458.189v.558a.871.871,0,0,1-.87.869Z" stroke="none"/>
      <path d="M 6.690959930419922 11.60635566711426 L 6.690959930419922 11.17960548400879 C 6.690959930419922 10.7557954788208 6.958109855651855 10.37801551818848 7.35768985748291 10.23677539825439 C 7.479000091552734 10.19389533996582 7.601249694824219 10.14340591430664 7.721039772033691 10.08671569824219 C 8.102912902832031 9.906005859375 8.557162284851074 9.98477840423584 8.855899810791016 10.2835054397583 L 9.156369209289551 10.58397483825684 L 9.862004280090332 9.879393577575684 L 9.569709777832031 9.588106155395508 C 9.264379501342773 9.283815383911133 9.188389778137207 8.818116188049316 9.381170272827148 8.432565689086914 C 9.433919906616211 8.327065467834473 9.482019424438477 8.212135314941406 9.528229713439941 8.081185340881348 C 9.669329643249512 7.68134593963623 10.04724025726318 7.413955688476562 10.47124004364014 7.413955688476562 L 10.88467979431152 7.413955688476562 L 10.88467979431152 6.415395736694336 L 10.48855018615723 6.415395736694336 C 10.0572395324707 6.415395736694336 9.674519538879395 6.138855934143066 9.53911018371582 5.729345798492432 C 9.503870010375977 5.622755527496338 9.454950332641602 5.502805709838867 9.385169982910156 5.35183572769165 C 9.209309577941895 4.971345901489258 9.289400100708008 4.521565914154053 9.585789680480957 4.225165843963623 L 9.861577987670898 3.949385404586792 L 9.156787872314453 3.244611024856567 L 8.886529922485352 3.513875722885132 C 8.58473014831543 3.814574956893921 8.125540733337402 3.891036033630371 7.742569923400879 3.704365730285645 C 7.614180088043213 3.641775608062744 7.488140106201172 3.589255809783936 7.367969989776611 3.548235654830933 C 6.963089942932129 3.410055637359619 6.690959930419922 3.029635667800903 6.690959930419922 2.60183572769165 L 6.690959930419922 2.223005771636963 L 5.693729877471924 2.223005771636963 L 5.693729877471924 2.60183572769165 C 5.693729877471924 3.028745651245117 5.422709941864014 3.408585786819458 5.019010066986084 3.547455787658691 C 4.898709774017334 3.588835716247559 4.770909786224365 3.6421058177948 4.63914966583252 3.705795764923096 C 4.256660938262939 3.890686511993408 3.799099922180176 3.81372594833374 3.498149871826172 3.513875722885132 L 3.227820873260498 3.244543790817261 L 2.522509098052979 3.948777437210083 L 2.800229787826538 4.226505756378174 C 3.101029872894287 4.527325630187988 3.178599834442139 4.985515594482422 2.993549823760986 5.368575572967529 C 2.937449932098389 5.484725475311279 2.886819839477539 5.607985496520996 2.838779926300049 5.745415687561035 C 2.698489904403687 6.146675586700439 2.319869995117188 6.415395736694336 1.894799947738647 6.415395736694336 L 1.49999988079071 6.415395736694336 L 1.49999988079071 7.413955688476562 L 1.912109851837158 7.413955688476562 C 2.33610987663269 7.413955688476562 2.714020013809204 7.68134593963623 2.855119943618774 8.081185340881348 C 2.895519971847534 8.195675849914551 2.947089910507202 8.318155288696289 3.008399963378906 8.445235252380371 C 3.193189859390259 8.828235626220703 3.115549802780151 9.286195755004883 2.814859867095947 9.586885452270508 L 2.52244234085083 9.879287719726562 L 3.227719783782959 10.58456611633301 L 3.528779983520508 10.2835054397583 C 3.82850980758667 9.983786582946777 4.284629821777344 9.905585289001465 4.667069911956787 10.08835601806641 C 4.784739971160889 10.14458560943604 4.901639938354492 10.19283580780029 5.024449825286865 10.23587608337402 C 5.425339698791504 10.37636566162109 5.693729877471924 10.75480556488037 5.693729877471924 11.17960548400879 L 5.693729877471924 11.60635566711426 L 6.690959930419922 11.60635566711426 M 6.820539951324463 12.60635566711426 L 5.562819957733154 12.60635566711426 C 5.08368968963623 12.60635566711426 4.693729877471924 12.21639537811279 4.693729877471924 11.73726558685303 L 4.693729877471924 11.17960548400879 C 4.538010120391846 11.12503528594971 4.386280059814453 11.06248569488525 4.235889911651611 10.99061584472656 L 3.841939926147461 11.38456535339355 C 3.678229808807373 11.54826545715332 3.459959983825684 11.63877582550049 3.228379964828491 11.63877582550049 C 2.996799945831299 11.63877582550049 2.77852988243103 11.54960536956787 2.614829778671265 11.38589572906494 L 1.723119854927063 10.49418544769287 C 1.385059952735901 10.15612602233887 1.383729934692383 9.60645580291748 1.720449924468994 9.267075538635254 L 2.107749938964844 8.879776000976562 C 2.034549951553345 8.728055953979492 1.967999935150146 8.572335243225098 1.912109851837158 8.413955688476562 L 1.370419859886169 8.413955688476562 C 0.8886299133300781 8.411295890808105 0.4999999105930328 8.021335601806641 0.4999999105930328 7.543535709381104 L 0.4999999105930328 6.284485816955566 C 0.4999999105930328 5.805355548858643 0.8899598717689514 5.415395736694336 1.370419859886169 5.415395736694336 L 1.894799947738647 5.415395736694336 C 1.952029943466187 5.25169563293457 2.017249822616577 5.090645790100098 2.093109846115112 4.933605670928955 L 1.723119854927063 4.563605785369873 C 1.385059952735901 4.226885795593262 1.383729934692383 3.675885677337646 1.720449924468994 3.336495637893677 L 2.613499879837036 2.444785594940186 C 2.777199983596802 2.281075716018677 2.995469808578491 2.19057559967041 3.228379964828491 2.19057559967041 C 3.459959983825684 2.19057559967041 3.678229808807373 2.281075716018677 3.841939926147461 2.444785594940186 L 4.203949928283691 2.805465698242188 C 4.363659858703613 2.728265762329102 4.527359962463379 2.659065723419189 4.693729877471924 2.60183572769165 L 4.693729877471924 2.092085599899292 C 4.693729877471924 1.612955689430237 5.08368968963623 1.223005771636963 5.562819957733154 1.223005771636963 L 6.820539951324463 1.223005771636963 C 7.299669742584229 1.223005771636963 7.690959930419922 1.612955689430237 7.690959930419922 2.092085599899292 L 7.690959930419922 2.60183572769165 C 7.858649730682373 2.659065723419189 8.022350311279297 2.728265762329102 8.180729866027832 2.805465698242188 L 8.542739868164062 2.444785594940186 C 8.706449508666992 2.281075716018677 8.92471981048584 2.19057559967041 9.156299591064453 2.19057559967041 C 9.389209747314453 2.19057559967041 9.606149673461914 2.279745817184448 9.768520355224609 2.442125797271729 L 10.66156959533691 3.335165739059448 C 10.99961948394775 3.675885677337646 10.99961948394775 4.226885795593262 10.66156959533691 4.563605785369873 L 10.29290008544922 4.932275772094727 C 10.3661003112793 5.090645790100098 10.43397998809814 5.250365734100342 10.48855018615723 5.415395736694336 L 11.01558971405029 5.415395736694336 C 11.49339008331299 5.415395736694336 11.88467979431152 5.805355548858643 11.88467979431152 6.284485816955566 L 11.88467979431152 7.543535709381104 C 11.88467979431152 8.021335601806641 11.49606037139893 8.411295890808105 11.01824951171875 8.413955688476562 L 10.47124004364014 8.413955688476562 C 10.41534996032715 8.572335243225098 10.35145950317383 8.728055953979492 10.27559947967529 8.879776000976562 L 10.66156959533691 9.264415740966797 C 10.99961948394775 9.60645580291748 10.99961948394775 10.15612602233887 10.66156959533691 10.49418544769287 L 9.76984977722168 11.38456535339355 C 9.610139846801758 11.54826545715332 9.39054012298584 11.63877582550049 9.156299591064453 11.63877582550049 C 8.92471981048584 11.63877582550049 8.706449508666992 11.54826545715332 8.542739868164062 11.38456535339355 L 8.14879035949707 10.99061584472656 C 7.999730110168457 11.06115531921387 7.845339775085449 11.12503528594971 7.690959930419922 11.17960548400879 L 7.690959930419922 11.73726558685303 C 7.690959930419922 12.21639537811279 7.299669742584229 12.60635566711426 6.820539951324463 12.60635566711426 Z" stroke="none" fill="#fff"/>
    </g>
    <g id="타원_40" data-name="타원 40" transform="translate(22.274 22.301)" fill="none" stroke="#fff" stroke-linejoin="round" stroke-width="1">
      <circle cx="2.033" cy="2.033" r="2.033" stroke="none"/>
      <circle cx="2.033" cy="2.033" r="1.533" fill="none"/>
    </g>
    <g id="그룹_164788" data-name="그룹 164788" transform="translate(4 4)">
      <line id="선_3498" data-name="선 3498" x2="8" transform="translate(8 2.5)" fill="none" stroke="#fff" stroke-linecap="round" stroke-width="1"/>
      <g id="사각형_149575" data-name="사각형 149575" fill="none" stroke="#fff" stroke-width="1">
        <rect width="5" height="5" rx="1" stroke="none"/>
        <rect x="0.5" y="0.5" width="4" height="4" rx="0.5" fill="none"/>
      </g>
    </g>
    <g id="그룹_164789" data-name="그룹 164789" transform="translate(4 12)">
      <line id="선_3498-2" data-name="선 3498" x2="8" transform="translate(8 2.5)" fill="none" stroke="#fff" stroke-linecap="round" stroke-width="1"/>
      <g id="사각형_149575-2" data-name="사각형 149575" fill="none" stroke="#fff" stroke-width="1">
        <rect width="5" height="5" rx="1" stroke="none"/>
        <rect x="0.5" y="0.5" width="4" height="4" rx="0.5" fill="none"/>
      </g>
    </g>
    <g id="그룹_164790" data-name="그룹 164790" transform="translate(4 20)">
      <line id="선_3498-3" data-name="선 3498" x2="4.5" transform="translate(8 2.5)" fill="none" stroke="#fff" stroke-linecap="round" stroke-width="1"/>
      <g id="사각형_149575-3" data-name="사각형 149575" fill="none" stroke="#fff" stroke-width="1">
        <rect width="5" height="5" rx="1" stroke="none"/>
        <rect x="0.5" y="0.5" width="4" height="4" rx="0.5" fill="none"/>
      </g>
    </g>
    <path id="패스_85855" data-name="패스 85855" d="M24.5,15.5V.5H.5v30h17" transform="translate(-0.5 -0.5)" fill="none" stroke="#fff" stroke-linecap="round" stroke-linejoin="round" stroke-miterlimit="10" stroke-width="1"/>
  </g>
</svg>
