<svg xmlns="http://www.w3.org/2000/svg" width="31" height="30.998" viewBox="0 0 31 30.998">
  <g id="그룹_164910" data-name="그룹 164910" transform="translate(0.5 0.5)">
    <line id="선_3433" data-name="선 3433" x2="5.989" transform="translate(15.391 3.363)" fill="none" stroke="#fff" stroke-miterlimit="10" stroke-width="1"/>
    <path id="패스_85823" data-name="패스 85823" d="M24.5,4.719h3.6a2.394,2.394,0,0,1,2.4,2.392V24.982a.8.8,0,0,1-.231.56l-5.538,5.594a.8.8,0,0,1-.549.218H2.9A2.394,2.394,0,0,1,.5,28.964V7.111A2.394,2.394,0,0,1,2.9,4.719H5.72" transform="translate(-0.5 -1.357)" fill="none" stroke="#fff" stroke-linecap="round" stroke-miterlimit="10" stroke-width="1"/>
    <path id="패스_85824" data-name="패스 85824" d="M30.429,36.551V31.139a.8.8,0,0,1,.8-.8H36.3" transform="translate(-6.57 -6.551)" fill="none" stroke="#fff" stroke-miterlimit="10" stroke-width="1"/>
    <path id="패스_85825" data-name="패스 85825" d="M30.109,6.714h-.744a1.743,1.743,0,0,1-1.676-1.8V2.3a1.68,1.68,0,1,1,3.352,0v1.56" transform="translate(-6.014 -0.5)" fill="none" stroke="#fff" stroke-linecap="round" stroke-miterlimit="10" stroke-width="1"/>
    <path id="패스_85826" data-name="패스 85826" d="M19.6,6.714h-.744a1.743,1.743,0,0,1-1.676-1.8V2.3a1.68,1.68,0,1,1,3.352,0v1.56" transform="translate(-3.883 -0.5)" fill="none" stroke="#fff" stroke-linecap="round" stroke-miterlimit="10" stroke-width="1"/>
    <line id="선_3434" data-name="선 3434" x2="5.989" transform="translate(7.307 3.363)" fill="none" stroke="#fff" stroke-miterlimit="10" stroke-width="1"/>
    <path id="패스_85827" data-name="패스 85827" d="M9.456,6.714H8.712a1.743,1.743,0,0,1-1.676-1.8V2.3A1.743,1.743,0,0,1,8.712.5a1.743,1.743,0,0,1,1.676,1.8v1.56" transform="translate(-1.826 -0.5)" fill="none" stroke="#fff" stroke-linecap="round" stroke-miterlimit="10" stroke-width="1"/>
    <line id="선_3435" data-name="선 3435" x2="29.943" transform="translate(0 9.34)" fill="none" stroke="#fff" stroke-linecap="round" stroke-miterlimit="10" stroke-width="1"/>
    <g id="타원_36" data-name="타원 36" transform="translate(6.707 11.1)" fill="none" stroke="#fff" stroke-width="1">
      <ellipse cx="8" cy="8.5" rx="8" ry="8.5" stroke="none"/>
      <ellipse cx="8" cy="8.5" rx="7.5" ry="8" fill="none"/>
    </g>
    <path id="패스_85783" data-name="패스 85783" d="M1501.176,1872H1493" transform="translate(-1482.498 -1852.381)" fill="none" stroke="#fff" stroke-linecap="round" stroke-width="1"/>
    <path id="패스_85784" data-name="패스 85784" d="M1502,1863v8.176" transform="translate(-1487.41 -1847.469)" fill="none" stroke="#fff" stroke-linecap="round" stroke-width="1"/>
  </g>
</svg>
