<svg xmlns="http://www.w3.org/2000/svg" xmlns:xlink="http://www.w3.org/1999/xlink" width="144" height="120" viewBox="0 0 144 120">
  <defs>
    <clipPath id="clip-path">
      <rect id="사각형_153144" data-name="사각형 153144" width="30.705" height="32.514" fill="none"/>
    </clipPath>
    <clipPath id="clip-path-2">
      <rect id="사각형_153147" data-name="사각형 153147" width="144" height="120" transform="translate(-0.419 0.333)" fill="none"/>
    </clipPath>
    <clipPath id="clip-path-3">
      <rect id="사각형_153146" data-name="사각형 153146" width="30.671" height="12.519" fill="#202020"/>
    </clipPath>
    <clipPath id="clip-path-4">
      <path id="패스_86377" data-name="패스 86377" d="M240.085,559.753a5.649,5.649,0,0,0-5.65,5.649v.036h48.329V565.4a5.649,5.649,0,0,0-5.65-5.649Z" transform="translate(-234.435 -559.753)" fill="none"/>
    </clipPath>
    <clipPath id="clip-path-5">
      <rect id="사각형_153152" data-name="사각형 153152" width="136.067" height="71.738" rx="13.061" fill="#e4e8ef"/>
    </clipPath>
    <clipPath id="clip-path-7">
      <rect id="사각형_153153" data-name="사각형 153153" width="135.918" height="71.7" fill="#1c1c1c"/>
    </clipPath>
    <clipPath id="clip-path-8">
      <rect id="사각형_153154" data-name="사각형 153154" width="92.471" height="71.858" fill="none"/>
    </clipPath>
    <clipPath id="clip-path-9">
      <rect id="사각형_153156" data-name="사각형 153156" width="44.769" height="40.123" fill="none"/>
    </clipPath>
  </defs>
  <g id="그룹_167748" data-name="그룹 167748" transform="translate(-1269.981 -373.335)">
    <g id="그룹_167727" data-name="그룹 167727" transform="translate(1326.564 457.044)">
      <g id="그룹_167726" data-name="그룹 167726" transform="translate(0 0)" clip-path="url(#clip-path)">
        <rect id="사각형_153143" data-name="사각형 153143" width="30.705" height="32.514" fill="#545454"/>
      </g>
    </g>
    <g id="그룹_167732" data-name="그룹 167732" transform="translate(1270.4 373.001)">
      <g id="그룹_167731" data-name="그룹 167731" transform="translate(0 0)" clip-path="url(#clip-path-2)">
        <g id="그룹_167730" data-name="그룹 167730" transform="translate(56.181 83.982)" opacity="0.77" style="mix-blend-mode: multiply;isolation: isolate">
          <g id="그룹_167729" data-name="그룹 167729">
            <g id="그룹_167728" data-name="그룹 167728" clip-path="url(#clip-path-3)">
              <rect id="사각형_153145" data-name="사각형 153145" width="30.671" height="12.519" fill="#202020"/>
            </g>
          </g>
        </g>
      </g>
    </g>
    <g id="그룹_167733" data-name="그룹 167733" transform="translate(1317.752 487.64)" clip-path="url(#clip-path-4)">
      <rect id="사각형_153148" data-name="사각형 153148" width="48.329" height="5.685" transform="translate(0 0)" fill="#545454"/>
    </g>
    <rect id="사각형_153149" data-name="사각형 153149" width="55.115" height="57.058" transform="translate(1309.318 393.71)" fill="none"/>
    <rect id="사각형_153150" data-name="사각형 153150" width="55.115" height="57.058" transform="translate(1309.318 393.71)" fill="none"/>
    <rect id="사각형_153151" data-name="사각형 153151" width="144" height="90" rx="3" transform="translate(1269.981 376.334)" fill="#545454"/>
    <g id="그룹_167735" data-name="그룹 167735" transform="translate(1273.947 380.042)">
      <g id="그룹_167734" data-name="그룹 167734" transform="translate(0 0)" clip-path="url(#clip-path-5)">
        <path id="패스_86378" data-name="패스 86378" d="M.087.087,147.055,0l-.087,146.967L0,147.055Z" transform="translate(-35.95 35.869) rotate(-45)" fill="#e4e8ef"/>
      </g>
    </g>
    <g id="그룹_167743" data-name="그룹 167743" transform="translate(1270.4 373.001)">
      <g id="그룹_167742" data-name="그룹 167742" transform="translate(0 0)" clip-path="url(#clip-path-2)">
        <g id="그룹_167738" data-name="그룹 167738" transform="translate(3.636 6.933)" opacity="0.77" style="mix-blend-mode: multiply;isolation: isolate">
          <g id="그룹_167737" data-name="그룹 167737">
            <g id="그룹_167736" data-name="그룹 167736" clip-path="url(#clip-path-7)">
              <path id="패스_86379" data-name="패스 86379" d="M153.981,36.144a1.458,1.458,0,0,0-1.456-1.458H19.846A2.681,2.681,0,0,1,22.371,32.9H153.082a2.685,2.685,0,0,1,2.683,2.687V102.07a2.685,2.685,0,0,1-1.784,2.529Z" transform="translate(-19.846 -32.899)" fill="#1c1c1c"/>
            </g>
          </g>
        </g>
        <path id="패스_86380" data-name="패스 86380" d="M338.01,410.739a3.024,3.024,0,1,0,3.024-3.029,3.026,3.026,0,0,0-3.024,3.029" transform="translate(-269.517 -324.16)" fill="#fff"/>
        <g id="그룹_167741" data-name="그룹 167741" transform="translate(3.479 6.933)" opacity="0.45" style="mix-blend-mode: screen;isolation: isolate">
          <g id="그룹_167740" data-name="그룹 167740">
            <g id="그룹_167739" data-name="그룹 167739" clip-path="url(#clip-path-8)">
              <path id="패스_86381" data-name="패스 86381" d="M21.755,32.9h89.789L39.8,104.756H21.755a2.685,2.685,0,0,1-2.683-2.687V35.585A2.685,2.685,0,0,1,21.755,32.9" transform="translate(-19.072 -32.898)" fill="#fff"/>
            </g>
          </g>
        </g>
      </g>
    </g>
    <g id="그룹_167746" data-name="그룹 167746" transform="translate(1318.005 395.369)" style="mix-blend-mode: overlay;isolation: isolate">
      <g id="그룹_167745" data-name="그룹 167745">
        <g id="그룹_167744" data-name="그룹 167744" clip-path="url(#clip-path-9)">
          <path id="패스_86382" data-name="패스 86382" d="M161.049,63.311H126.5a5.1,5.1,0,0,1-4.417-7.65l17.276-29.923a5.049,5.049,0,0,1,4.417-2.55h0a5.049,5.049,0,0,1,4.417,2.55l17.276,29.923a5.1,5.1,0,0,1-4.417,7.65m-19.4-36.251L124.371,56.983a2.456,2.456,0,0,0,2.127,3.684h34.552a2.456,2.456,0,0,0,2.127-3.684l-1.947-3.372L145.9,27.06a2.456,2.456,0,0,0-4.254,0" transform="translate(-121.389 -23.188)" fill="#1c1c1c"/>
          <path id="패스_86383" data-name="패스 86383" d="M392.892,174.544h0a3.193,3.193,0,0,1,3.171,3.572l-1.4,11.731a1.79,1.79,0,0,1-3.554,0l-1.384-11.734a3.193,3.193,0,0,1,3.171-3.567" transform="translate(-370.498 -163.713)" fill="#1c1c1c"/>
          <path id="패스_86384" data-name="패스 86384" d="M399.466,433.568a2.586,2.586,0,1,1,1.809.738,2.46,2.46,0,0,1-1.809-.738" transform="translate(-378.882 -400.156)" fill="#1c1c1c"/>
        </g>
      </g>
    </g>
    <g id="그룹_167747" data-name="그룹 167747" transform="translate(1319.62 395.866)">
      <path id="패스_86385" data-name="패스 86385" d="M184.238,40.123H149.686a5.1,5.1,0,0,1-4.417-7.65L162.545,2.55A5.049,5.049,0,0,1,166.962,0h0a5.049,5.049,0,0,1,4.417,2.55l17.276,29.923a5.1,5.1,0,0,1-4.417,7.65m-19.4-36.251L147.559,33.8a2.456,2.456,0,0,0,2.127,3.684h34.552a2.456,2.456,0,0,0,2.127-3.684L169.088,3.872a2.456,2.456,0,0,0-4.254,0" transform="translate(-144.577 0)" fill="#f65858"/>
      <path id="패스_86386" data-name="패스 86386" d="M416.079,151.355h0a3.193,3.193,0,0,1,3.171,3.572l-1.4,11.731a1.79,1.79,0,0,1-3.554,0l-1.384-11.733a3.193,3.193,0,0,1,3.171-3.567" transform="translate(-393.686 -140.524)" fill="#f65858"/>
      <path id="패스_86387" data-name="패스 86387" d="M422.653,410.379a2.586,2.586,0,1,1,1.809.738,2.46,2.46,0,0,1-1.809-.738" transform="translate(-402.069 -376.967)" fill="#f65858"/>
    </g>
  </g>
</svg>
