<svg xmlns="http://www.w3.org/2000/svg" xmlns:xlink="http://www.w3.org/1999/xlink" width="320" height="624" viewBox="0 0 320 624">
  <defs>
    <clipPath id="clip-path">
      <rect id="사각형_153210" data-name="사각형 153210" width="320" height="624" transform="translate(0 90)" fill="#fff"/>
    </clipPath>
    <clipPath id="clip-path-2">
      <rect id="사각형_153208" data-name="사각형 153208" width="43.516" height="43.516" fill="#c3d4e8"/>
    </clipPath>
    <clipPath id="clip-path-3">
      <rect id="사각형_153209" data-name="사각형 153209" width="121.793" height="101.347" fill="#c3d4e8"/>
    </clipPath>
  </defs>
  <g id="마스크_그룹_18" data-name="마스크 그룹 18" transform="translate(0 -90)" clip-path="url(#clip-path)">
    <path id="패스_86428" data-name="패스 86428" d="M687.045,0V624H273.575c23.811-47.8,61.554-88.678,108.767-113.777,26.885-14.292,56.084-23.731,83.415-37.151s53.615-31.779,68.334-58.434,15.023-62.95-5.673-85.283c-20.091-21.682-52.96-24.884-82.5-23.815s-60.629,4.7-87.385-7.868c-49.064-23.041-60.7-87.625-98.118-126.842-25.947-27.191-62.927-40.617-99.1-50.8s-73.7-18.322-105.719-38C26.35,64.052,2.046,33.692,0,0Z" transform="translate(0 90)" fill="#ecf5ff"/>
    <g id="그룹_167827" data-name="그룹 167827" transform="translate(136 72)" clip-path="url(#clip-path-2)">
      <path id="패스_86429" data-name="패스 86429" d="M43.516,22.928V20.587l-3.623-.56L39.54,17.8l3.273-1.652-.723-2.226-3.619.587L37.446,12.5l2.6-2.583L38.672,8.022,35.412,9.7,33.817,8.1l1.677-3.26L33.6,3.467l-2.583,2.6-2.01-1.024.587-3.619L27.368.7,25.716,3.976l-2.228-.353L22.928,0H20.587l-.56,3.623L17.8,3.976,16.147.7l-2.226.723.587,3.619L12.5,6.069l-2.583-2.6L8.022,4.843,9.7,8.1,8.1,9.7,4.843,8.022,3.467,9.916l2.6,2.583-1.024,2.01-3.619-.587L.7,16.147,3.976,17.8l-.353,2.228L0,20.587v2.341l3.623.56.353,2.228L.7,27.368l.723,2.226,3.619-.587,1.024,2.01L3.467,33.6l1.376,1.894L8.1,33.817,9.7,35.412l-1.677,3.26,1.894,1.376,2.583-2.6,2.01,1.024-.587,3.619,2.226.723L17.8,39.54l2.228.353.56,3.623h2.341l.56-3.623,2.228-.353,1.652,3.273,2.226-.723-.587-3.619,2.01-1.024,2.583,2.6,1.894-1.376-1.677-3.26,1.595-1.595,3.26,1.677L40.048,33.6l-2.6-2.583,1.024-2.01,3.619.587.723-2.226L39.54,25.716l.353-2.228ZM9.165,24.556a1.276,1.276,0,0,1-1.914-1.1V20.064a1.276,1.276,0,0,1,1.914-1.1L12.1,20.653a1.276,1.276,0,0,1,0,2.21Zm6.544,4.813-.877,3.272a1.276,1.276,0,0,1-2.135.572l-2.4-2.4a1.276,1.276,0,0,1,.572-2.135l3.272-.877a1.276,1.276,0,0,1,1.562,1.563M14.146,15.709l-3.272-.877A1.276,1.276,0,0,1,10.3,12.7l2.4-2.4a1.276,1.276,0,0,1,2.135.572l.877,3.272a1.276,1.276,0,0,1-1.562,1.562m5.918-8.458h3.387a1.276,1.276,0,0,1,1.1,1.914L22.863,12.1a1.276,1.276,0,0,1-2.21,0L18.959,9.165a1.276,1.276,0,0,1,1.1-1.914m3.387,29.014H20.064a1.276,1.276,0,0,1-1.1-1.914l1.694-2.933a1.276,1.276,0,0,1,2.21,0l1.694,2.933a1.276,1.276,0,0,1-1.1,1.914M21.758,25.8A4.039,4.039,0,1,1,25.8,21.758,4.039,4.039,0,0,1,21.758,25.8m6.049-11.651.877-3.272a1.276,1.276,0,0,1,2.134-.572l2.4,2.4a1.276,1.276,0,0,1-.572,2.135l-3.272.877a1.276,1.276,0,0,1-1.563-1.562m5.406,16.672-2.4,2.4a1.276,1.276,0,0,1-2.134-.572l-.877-3.272a1.276,1.276,0,0,1,1.563-1.563l3.272.877a1.276,1.276,0,0,1,.572,2.135m3.051-7.367a1.276,1.276,0,0,1-1.914,1.1l-2.933-1.694a1.276,1.276,0,0,1,0-2.21l2.933-1.694a1.276,1.276,0,0,1,1.914,1.1Z" transform="translate(0 0)" fill="#c3d4e8"/>
    </g>
    <g id="그룹_167828" data-name="그룹 167828" transform="translate(-225.925 145.998)">
      <path id="패스_86430" data-name="패스 86430" d="M37.795,65.434l-.516-5.658L33.7,59.189a15.564,15.564,0,0,0-2.19-4.169l1.546-3.279-4.366-3.636-2.945,2.114a15.57,15.57,0,0,0-4.5-1.4l-1.224-3.411-5.658.516L13.781,49.5a15.569,15.569,0,0,0-4.169,2.191L6.333,50.145,2.7,54.51l2.114,2.944a15.572,15.572,0,0,0-1.4,4.5L0,63.176l.516,5.658,3.577.587a15.575,15.575,0,0,0,2.191,4.17L4.737,76.87,9.1,80.505l2.944-2.114a15.571,15.571,0,0,0,4.5,1.4L17.768,83.2l5.658-.516.587-3.577a15.565,15.565,0,0,0,4.17-2.19l3.278,1.546L35.1,74.1l-2.114-2.945a15.569,15.569,0,0,0,1.4-4.5ZM19.555,71.52a7.245,7.245,0,1,1,6.557-7.873,7.245,7.245,0,0,1-6.557,7.873" transform="translate(251.925 -45.408)" fill="#c3d4e8"/>
    </g>
    <g id="그룹_167829" data-name="그룹 167829" transform="translate(160 145.998)" clip-path="url(#clip-path-3)">
      <path id="패스_86431" data-name="패스 86431" d="M51.815,186.12a23.346,23.346,0,0,0-1.229-6.956l3.7-3.979L49.712,168l-5.171,1.678a23.351,23.351,0,0,0-5.787-4.051l-.194-5.433L30.24,158.35l-2.47,4.842a23.355,23.355,0,0,0-6.956,1.229l-3.979-3.7L9.649,165.3l1.678,5.171a23.354,23.354,0,0,0-4.051,5.787l-5.433.194L0,184.768l4.842,2.47a23.356,23.356,0,0,0,1.229,6.956l-3.7,3.979,4.58,7.186,5.171-1.678a23.346,23.346,0,0,0,5.787,4.051l.194,5.433,8.319,1.843,2.47-4.843a23.345,23.345,0,0,0,6.956-1.229l3.979,3.7,7.186-4.58-1.678-5.171a23.351,23.351,0,0,0,4.051-5.787l5.433-.194,1.843-8.319Z" transform="translate(0 -135.041)" fill="#c3d4e8"/>
      <path id="패스_86432" data-name="패스 86432" d="M284.55,11.2a13.508,13.508,0,0,0-2.12-3.493l1.164-2.922-3.975-2.915-2.437,1.988a13.508,13.508,0,0,0-3.969-.972L271.971,0,267.1.749l-.317,3.129A13.506,13.506,0,0,0,263.288,6l-2.922-1.164-2.915,3.975,1.988,2.437a13.508,13.508,0,0,0-.972,3.969l-2.889,1.243.749,4.872,3.129.317a13.507,13.507,0,0,0,2.12,3.493l-1.164,2.922,3.975,2.915,2.437-1.988a13.5,13.5,0,0,0,3.969.972l1.243,2.888,4.872-.749.317-3.128a13.509,13.509,0,0,0,3.493-2.12l2.922,1.164,2.915-3.975L284.567,21.6a13.514,13.514,0,0,0,.972-3.969l2.888-1.243-.749-4.872Z" transform="translate(-217.959)" fill="#c3d4e8"/>
      <path id="패스_86433" data-name="패스 86433" d="M502.988,399.4a16.076,16.076,0,1,0-21.66-6.907,16.075,16.075,0,0,0,21.66,6.907M492.1,384l-2.365-7.97,1.875-.968,5.129,6.543,7.97-2.365.968,1.875-6.543,5.129,2.365,7.97-1.875.968-5.129-6.543L486.521,391l-.968-1.875Z" transform="translate(-408.948 -314.717)" fill="#c3d4e8"/>
      <path id="패스_86434" data-name="패스 86434" d="M420.256,328.535l7.079-3.656-2-6.238a25.117,25.117,0,0,0,6.18-7.322l6.488.933,2.421-7.59-5.831-3a25.113,25.113,0,0,0-.8-9.547l5.244-3.926-3.656-7.079-6.238,2a25.116,25.116,0,0,0-7.322-6.18l.933-6.488-7.591-2.421-3,5.831a25.116,25.116,0,0,0-9.548.8l-3.926-5.244-7.079,3.656,2,6.238a25.115,25.115,0,0,0-6.179,7.322l-6.488-.933-2.421,7.591,5.831,3a25.113,25.113,0,0,0,.8,9.548l-5.244,3.926,3.656,7.079,6.238-2a25.112,25.112,0,0,0,7.322,6.18L396.2,327.5l7.591,2.421,3-5.831a25.114,25.114,0,0,0,9.547-.8ZM401.18,282.918a18.073,18.073,0,1,1-7.766,24.35,18.073,18.073,0,0,1,7.766-24.35" transform="translate(-322.807 -228.576)" fill="#c3d4e8"/>
      <path id="패스_86435" data-name="패스 86435" d="M741.593,213.616a7.407,7.407,0,1,1-7.406-7.407,7.407,7.407,0,0,1,7.406,7.407" transform="translate(-619.8 -175.856)" fill="#c3d4e8"/>
    </g>
    <rect id="사각형_153158" data-name="사각형 153158" width="16" height="17.067" transform="translate(33 320)" fill="none"/>
  </g>
</svg>
