<svg xmlns="http://www.w3.org/2000/svg" xmlns:xlink="http://www.w3.org/1999/xlink" width="844.493" height="767" viewBox="0 0 844.493 767">
  <defs>
    <clipPath id="clip-path">
      <rect id="사각형_153169" data-name="사각형 153169" width="844.493" height="767" fill="#ecf5ff"/>
    </clipPath>
    <clipPath id="clip-path-2">
      <rect id="사각형_153170" data-name="사각형 153170" width="373.341" height="310.668" fill="#c3d4e8"/>
    </clipPath>
  </defs>
  <g id="그룹_167833" data-name="그룹 167833" transform="translate(-1075.507 -81)">
    <g id="그룹_167832" data-name="그룹 167832">
      <g id="그룹_167760" data-name="그룹 167760" transform="translate(1075.507 81)">
        <g id="그룹_167759" data-name="그룹 167759" clip-path="url(#clip-path)">
          <path id="패스_86412" data-name="패스 86412" d="M844.493,0V767H336.27c29.268-58.759,75.66-109,133.693-139.851,33.046-17.567,68.937-29.17,102.531-45.665s65.9-39.062,83.994-71.825,18.466-77.376-6.972-104.827c-24.7-26.651-65.1-30.587-101.407-29.273s-74.524,5.774-107.411-9.671c-60.308-28.322-74.608-107.706-120.6-155.91-31.893-33.422-77.347-49.924-121.816-62.443s-90.59-22.521-129.947-46.713C32.389,78.73,2.514,41.413,0,0Z" fill="#ecf5ff"/>
        </g>
      </g>
      <g id="그룹_167793" data-name="그룹 167793" transform="translate(1412.984 156.079)">
        <g id="그룹_167761" data-name="그룹 167761" transform="translate(-38.947 -32.409)" clip-path="url(#clip-path-2)">
          <path id="패스_86413" data-name="패스 86413" d="M158.833,243.475a71.564,71.564,0,0,0-3.766-21.324l11.357-12.2-14.039-22.027-15.852,5.143a71.579,71.579,0,0,0-17.739-12.418L118.2,164,92.7,158.35l-7.571,14.844A71.6,71.6,0,0,0,63.8,176.96L51.6,165.6,29.577,179.642l5.143,15.852A71.587,71.587,0,0,0,22.3,213.233l-16.653.595L0,239.33,14.844,246.9a71.593,71.593,0,0,0,3.766,21.324l-11.356,12.2L21.292,302.45l15.852-5.143a71.566,71.566,0,0,0,17.739,12.418l.595,16.653,25.5,5.649,7.571-14.844a71.563,71.563,0,0,0,21.324-3.766l12.2,11.357L144.1,310.735l-5.143-15.852a71.579,71.579,0,0,0,12.418-17.739l16.653-.595,5.649-25.5Z" transform="translate(0 -86.9)" fill="#c3d4e8"/>
          <path id="패스_86414" data-name="패스 86414" d="M344.385,34.34a41.407,41.407,0,0,0-6.5-10.709l3.568-8.956L329.271,5.74l-7.47,6.094a41.406,41.406,0,0,0-12.166-2.979L305.826,0,290.892,2.3l-.972,9.59a41.4,41.4,0,0,0-10.709,6.5l-8.956-3.568L261.319,27l6.095,7.47a41.407,41.407,0,0,0-2.98,12.166l-8.855,3.81,2.3,14.934,9.59.973a41.4,41.4,0,0,0,6.5,10.709L270.4,86.017l12.184,8.936,7.47-6.095a41.39,41.39,0,0,0,12.166,2.98l3.809,8.854,14.934-2.3.972-9.59a41.409,41.409,0,0,0,10.709-6.5l8.956,3.568,8.935-12.184-6.094-7.47a41.423,41.423,0,0,0,2.98-12.167l8.854-3.809-2.3-14.934Z" transform="translate(-140.258)" fill="#c3d4e8"/>
          <path id="패스_86415" data-name="패스 86415" d="M551.432,462.11a49.278,49.278,0,1,0-66.395-21.174,49.277,49.277,0,0,0,66.395,21.174M518.04,414.888l-7.251-24.431,5.748-2.968,15.723,20.056,24.431-7.25,2.968,5.748L539.6,421.765l7.25,24.431-5.747,2.968-15.723-20.056-24.431,7.251-2.968-5.748Z" transform="translate(-263.162 -202.523)" fill="#c3d4e8"/>
          <path id="패스_86416" data-name="패스 86416" d="M506.445,453.5l21.7-11.206L522,423.177a76.989,76.989,0,0,0,18.942-22.445l19.888,2.859,7.42-23.268-17.874-9.184a76.977,76.977,0,0,0-2.456-29.267L564,329.839l-11.206-21.7-19.121,6.141a76.984,76.984,0,0,0-22.445-18.943l2.859-19.888-23.268-7.421L481.635,285.9a76.988,76.988,0,0,0-29.267,2.456l-12.034-16.075-21.7,11.206,6.141,19.121a76.983,76.983,0,0,0-18.942,22.445l-19.888-2.86-7.42,23.268,17.874,9.184a76.979,76.979,0,0,0,2.456,29.267L382.78,395.949l11.206,21.7,19.121-6.141a76.977,76.977,0,0,0,22.445,18.943l-2.859,19.887,23.268,7.421,9.184-17.874a76.984,76.984,0,0,0,29.267-2.455ZM447.97,313.67a55.4,55.4,0,1,1-23.8,74.643,55.4,55.4,0,0,1,23.8-74.643" transform="translate(-207.729 -147.091)" fill="#c3d4e8"/>
          <path id="패스_86417" data-name="패스 86417" d="M772.188,228.913a22.7,22.7,0,1,1-22.7-22.7,22.7,22.7,0,0,1,22.7,22.7" transform="translate(-398.847 -113.165)" fill="#c3d4e8"/>
        </g>
      </g>
    </g>
  </g>
</svg>
