<svg xmlns="http://www.w3.org/2000/svg" width="80" height="80" viewBox="0 0 80 80">
  <g id="그룹_166810" data-name="그룹 166810" transform="translate(-680 -354)">
    <circle id="타원_9494" data-name="타원 9494" cx="40" cy="40" r="40" transform="translate(680 354)" fill="#fff"/>
    <g id="그룹_166732" data-name="그룹 166732" transform="translate(0 -20)">
      <path id="패스_84551" data-name="패스 84551" d="M1,23.317A2.7,2.7,0,0,0,3.724,26H48.277A2.7,2.7,0,0,0,51,23.317V20H1Z" transform="translate(694 401.002)" fill="#fff" stroke="#194da1" stroke-linejoin="round" stroke-width="1.5"/>
      <rect id="사각형_151174" data-name="사각형 151174" width="50.001" height="22" transform="translate(695 399)" fill="#fff" stroke="#194da1" stroke-linejoin="round" stroke-width="1.5"/>
      <path id="패스_84553" data-name="패스 84553" d="M51,3.516A2.626,2.626,0,0,0,48.277,1H3.724A2.626,2.626,0,0,0,1,3.516V6H51Z" transform="translate(694 393)" fill="#fff" stroke="#194da1" stroke-linejoin="round" stroke-width="1.5"/>
      <line id="선_3538" data-name="선 3538" y2="7" transform="translate(720 427)" fill="#fff" stroke="#194da1" stroke-width="1.5"/>
      <line id="선_3541" data-name="선 3541" x2="30" transform="translate(706 434)" fill="none" stroke="#194da1" stroke-linecap="round" stroke-linejoin="round" stroke-width="1.5"/>
      <g id="그룹_166187" data-name="그룹 166187" transform="translate(0 -10)">
        <line id="선_574" data-name="선 574" x2="14" transform="translate(718.43 416.066)" fill="none" stroke="#194da1" stroke-linecap="round" stroke-linejoin="round" stroke-width="1.5"/>
        <line id="선_575" data-name="선 575" x2="14" transform="translate(718.43 424.127)" fill="none" stroke="#194da1" stroke-linecap="round" stroke-linejoin="round" stroke-width="1.5"/>
        <g id="check" transform="translate(707.572 413.582)">
          <path id="check-2" data-name="check" d="M10.429,6l-4.42,4.286L4,8.338" transform="translate(-4 -6)" fill="none" stroke="#194da1" stroke-linecap="round" stroke-linejoin="round" stroke-width="1.5"/>
        </g>
        <g id="check-3" data-name="check" transform="translate(707.572 421.934)">
          <path id="check-4" data-name="check" d="M10.429,6l-4.42,4.286L4,8.338" transform="translate(-4 -6)" fill="none" stroke="#194da1" stroke-linecap="round" stroke-linejoin="round" stroke-width="1.5"/>
        </g>
      </g>
    </g>
  </g>
</svg>
