<svg xmlns="http://www.w3.org/2000/svg" width="80" height="80" viewBox="0 0 80 80">
  <g id="그룹_166812" data-name="그룹 166812" transform="translate(-1160 -354)">
    <circle id="타원_9496" data-name="타원 9496" cx="40" cy="40" r="40" transform="translate(1160 354)" fill="#fff"/>
    <g id="그룹_166194" data-name="그룹 166194" transform="translate(50 122)">
      <g id="그룹_166191" data-name="그룹 166191" transform="translate(-43 23)">
        <path id="패스_85940" data-name="패스 85940" d="M24.631,1A20.187,20.187,0,0,0,4.263,21a19.623,19.623,0,0,0,2.368,9.351L1,39.534l11.85-2.227-.014-.021A20.51,20.51,0,0,0,24.631,41,20.187,20.187,0,0,0,45,21,20.187,20.187,0,0,0,24.631,1Z" transform="translate(1167 227)" fill="#fff" stroke="#194da1" stroke-linecap="round" stroke-linejoin="round" stroke-width="1.5"/>
        <path id="패스_85937" data-name="패스 85937" d="M24.545,29.48a1.559,1.559,0,1,1-1.56-1.56,1.56,1.56,0,0,1,1.56,1.56" transform="translate(1161.072 218.811)" fill="#194da1"/>
        <path id="패스_85938" data-name="패스 85938" d="M35.525,29.48a1.559,1.559,0,1,1-1.559-1.56,1.56,1.56,0,0,1,1.559,1.56" transform="translate(1157.886 218.811)" fill="#194da1"/>
        <path id="패스_85939" data-name="패스 85939" d="M46.506,29.48a1.559,1.559,0,1,1-1.56-1.56,1.56,1.56,0,0,1,1.56,1.56" transform="translate(1154.699 218.811)" fill="#194da1"/>
      </g>
      <g id="그룹_166193" data-name="그룹 166193" transform="translate(344 1)">
        <g id="타원_9511" data-name="타원 9511" transform="translate(811 272)" fill="#fff" stroke="#194da1" stroke-width="1.5">
          <circle cx="10" cy="10" r="10" stroke="none"/>
          <circle cx="10" cy="10" r="9.25" fill="none"/>
        </g>
        <g id="check" transform="translate(816.957 279.3)">
          <path id="check-2" data-name="check" d="M12.724,6l-6,5.816L4,9.173" transform="translate(-4 -6)" fill="none" stroke="#194da1" stroke-linecap="round" stroke-linejoin="round" stroke-width="1.5"/>
        </g>
      </g>
    </g>
  </g>
</svg>
