<svg xmlns="http://www.w3.org/2000/svg" xmlns:xlink="http://www.w3.org/1999/xlink" width="800" height="1280" viewBox="0 0 800 1280">
  <defs>
    <clipPath id="clip-path">
      <rect id="사각형_153204" data-name="사각형 153204" width="800" height="1280" fill="#fff"/>
    </clipPath>
    <clipPath id="clip-path-2">
      <rect id="사각형_153095" data-name="사각형 153095" width="279.045" height="232.201" fill="#c3d4e8"/>
    </clipPath>
    <clipPath id="clip-path-3">
      <rect id="사각형_153109" data-name="사각형 153109" width="99.701" height="99.701" fill="#c3d4e8"/>
    </clipPath>
  </defs>
  <g id="마스크_그룹_12" data-name="마스크 그룹 12" clip-path="url(#clip-path)">
    <path id="패스_86280" data-name="패스 86280" d="M1409.324,0V1280H561.18c48.844-98.06,126.264-181.9,223.112-233.388C839.44,1017.3,899.336,997.932,955.4,970.4s109.98-65.188,140.172-119.864,30.816-129.128-11.636-174.94C1042.724,631.124,975.3,624.556,914.7,626.748s-124.368,9.636-179.252-16.14C634.808,563.344,610.944,430.864,534.184,350.42,480.96,294.644,405.1,267.1,330.892,246.212s-151.18-37.584-216.86-77.956C54.052,131.388,4.2,69.112,0,0Z" transform="translate(-2.28)" fill="#ecf5ff"/>
    <g id="그룹_167642" data-name="그룹 167642" transform="translate(414 124)" clip-path="url(#clip-path-2)">
      <path id="패스_86350" data-name="패스 86350" d="M118.716,221.975a53.489,53.489,0,0,0-2.815-15.938l8.488-9.117L113.9,180.456,102.048,184.3a53.5,53.5,0,0,0-13.259-9.282l-.444-12.447L69.284,158.35l-5.659,11.095a53.511,53.511,0,0,0-15.938,2.815l-9.117-8.488L22.106,174.264l3.844,11.848a53.506,53.506,0,0,0-9.282,13.259l-12.447.444L0,218.877l11.095,5.659a53.511,53.511,0,0,0,2.815,15.938l-8.488,9.117,10.492,16.463,11.849-3.844a53.491,53.491,0,0,0,13.259,9.282l.444,12.447,19.061,4.222,5.659-11.1a53.489,53.489,0,0,0,15.938-2.815l9.117,8.488L107.7,272.246,103.86,260.4a53.5,53.5,0,0,0,9.281-13.259l12.447-.444,4.222-19.061Z" transform="translate(0 -104.947)" fill="#c3d4e8"/>
      <path id="패스_86351" data-name="패스 86351" d="M321.955,25.667a30.949,30.949,0,0,0-4.856-8l2.667-6.694L310.658,4.29l-5.583,4.555a30.948,30.948,0,0,0-9.093-2.227L293.135,0,281.973,1.717l-.727,7.168a30.943,30.943,0,0,0-8,4.857l-6.694-2.667-6.679,9.107,4.555,5.583a30.948,30.948,0,0,0-2.227,9.093L255.579,37.7,257.3,48.867l7.168.727a30.944,30.944,0,0,0,4.856,8l-2.667,6.694,9.106,6.679,5.583-4.555a30.936,30.936,0,0,0,9.093,2.227l2.847,6.618,11.162-1.717.727-7.168a30.95,30.95,0,0,0,8-4.857l6.694,2.667,6.679-9.106L321.994,49.5a30.961,30.961,0,0,0,2.227-9.094l6.618-2.847-1.717-11.162Z" transform="translate(-169.385)" fill="#c3d4e8"/>
      <path id="패스_86352" data-name="패스 86352" d="M533.272,438.6a36.831,36.831,0,1,0-49.625-15.826A36.831,36.831,0,0,0,533.272,438.6m-24.958-35.3-5.419-18.26,4.3-2.218,11.751,14.99L537.2,392.4l2.218,4.3-14.99,11.751,5.419,18.26-4.3,2.218L513.8,413.936l-18.261,5.419-2.218-4.3Z" transform="translate(-317.812 -244.581)" fill="#c3d4e8"/>
      <path id="패스_86353" data-name="패스 86353" d="M474.136,406.658l16.219-8.376-4.59-14.291a57.544,57.544,0,0,0,14.158-16.776l14.865,2.137,5.546-17.391L506.974,345.1a57.535,57.535,0,0,0-1.836-21.875l12.015-8.994-8.376-16.219-14.292,4.59a57.54,57.54,0,0,0-16.776-14.158l2.137-14.865-17.391-5.546-6.864,13.359a57.544,57.544,0,0,0-21.875,1.836l-8.994-12.015L408.5,279.585l4.59,14.292a57.54,57.54,0,0,0-14.158,16.776l-14.865-2.137-5.546,17.391,13.359,6.864a57.536,57.536,0,0,0,1.836,21.875l-12.015,8.994,8.376,16.219,14.292-4.59a57.535,57.535,0,0,0,16.776,14.159l-2.137,14.864,17.391,5.546,6.864-13.36a57.539,57.539,0,0,0,21.875-1.835ZM430.43,302.142a41.407,41.407,0,1,1-17.792,55.79,41.407,41.407,0,0,1,17.792-55.79" transform="translate(-250.868 -177.637)" fill="#c3d4e8"/>
      <path id="패스_86354" data-name="패스 86354" d="M760.719,223.179a16.97,16.97,0,1,1-16.969-16.97,16.97,16.97,0,0,1,16.969,16.97" transform="translate(-481.674 -136.665)" fill="#c3d4e8"/>
    </g>
    <g id="그룹_167667" data-name="그룹 167667" transform="translate(72 108.592)">
      <path id="패스_86361" data-name="패스 86361" d="M86.593,91.291,85.411,78.328l-8.2-1.346A35.659,35.659,0,0,0,72.2,67.43l3.543-7.512-10-8.33-6.747,4.843a35.672,35.672,0,0,0-10.3-3.208l-2.805-7.816L32.92,46.59l-1.346,8.194A35.671,35.671,0,0,0,22.022,59.8L14.51,56.261l-8.33,10,4.844,6.746a35.677,35.677,0,0,0-3.208,10.3L0,86.118,1.182,99.081l8.194,1.346a35.686,35.686,0,0,0,5.019,9.553l-3.543,7.512,10,8.33,6.746-4.843a35.676,35.676,0,0,0,10.3,3.207L40.71,132l12.963-1.182,1.346-8.2a35.662,35.662,0,0,0,9.553-5.018l7.511,3.543,8.33-10L75.57,104.4a35.671,35.671,0,0,0,3.207-10.3ZM44.8,105.235A16.6,16.6,0,1,1,59.827,87.2,16.6,16.6,0,0,1,44.8,105.235" fill="#c3d4e8"/>
    </g>
    <g id="그룹_167665" data-name="그룹 167665" transform="translate(320 -56)" clip-path="url(#clip-path-3)">
      <path id="패스_86360" data-name="패스 86360" d="M99.7,52.532V47.169l-8.3-1.283c-.413-2.606-.4-2.5-.808-5.1L98.089,37l-1.657-5.1L88.14,33.24l-2.346-4.6,5.962-5.917L88.6,18.379l-7.47,3.841L77.48,18.567l3.841-7.47L76.982,7.944l-5.917,5.962-4.6-2.346,1.345-8.292L62.7,1.611l-3.785,7.5-5.1-.809L52.532,0H47.169L45.886,8.3l-5.1.809L37,1.611,31.9,3.268,33.24,11.56l-4.6,2.346L22.719,7.944,18.379,11.1l3.841,7.47-3.654,3.654L11.1,18.379,7.944,22.718l5.962,5.917-2.346,4.6L3.268,31.9,1.611,37l7.5,3.785c-.413,2.607-.4,2.5-.808,5.1L0,47.169v5.364l8.3,1.283c.413,2.607.4,2.5.808,5.1L1.611,62.7l1.657,5.1L11.56,66.46l2.346,4.6L7.944,76.982,11.1,81.321l7.47-3.841,3.654,3.654L18.379,88.6l4.339,3.153,5.917-5.962,4.6,2.346L31.9,96.432,37,98.089l3.785-7.5,5.1.808,1.283,8.3h5.364l1.283-8.3,5.1-.808,3.785,7.5,5.1-1.657L66.46,88.14l4.6-2.346,5.917,5.962L81.321,88.6l-3.841-7.47,3.654-3.654,7.47,3.841,3.153-4.339-5.962-5.917,2.346-4.6,8.292,1.345,1.657-5.1-7.5-3.785c.413-2.607.4-2.5.808-5.1ZM21,56.262a2.923,2.923,0,0,1-4.385-2.531V45.97A2.923,2.923,0,0,1,21,43.438l6.721,3.88a2.923,2.923,0,0,1,0,5.063ZM35.991,67.29l-2.008,7.5a2.923,2.923,0,0,1-4.891,1.31L23.6,70.609a2.923,2.923,0,0,1,1.31-4.891l7.5-2.008a2.923,2.923,0,0,1,3.58,3.58m-3.58-31.3-7.5-2.008a2.923,2.923,0,0,1-1.31-4.891L29.092,23.6a2.923,2.923,0,0,1,4.891,1.31l2.008,7.5a2.923,2.923,0,0,1-3.58,3.58M45.97,16.613h7.761A2.923,2.923,0,0,1,56.262,21l-3.881,6.721a2.923,2.923,0,0,1-5.063,0L43.438,21a2.923,2.923,0,0,1,2.531-4.384m7.761,66.474H45.97A2.923,2.923,0,0,1,43.438,78.7l3.88-6.721a2.923,2.923,0,0,1,5.063,0L56.262,78.7a2.923,2.923,0,0,1-2.532,4.384M49.85,59.1A9.254,9.254,0,1,1,59.1,49.85,9.254,9.254,0,0,1,49.85,59.1M63.71,32.411l2.009-7.5a2.923,2.923,0,0,1,4.89-1.31L76.1,29.092a2.923,2.923,0,0,1-1.31,4.891l-7.5,2.008a2.923,2.923,0,0,1-3.58-3.58M76.1,70.609,70.609,76.1a2.923,2.923,0,0,1-4.89-1.31l-2.009-7.5a2.923,2.923,0,0,1,3.58-3.58l7.5,2.008a2.923,2.923,0,0,1,1.31,4.891m6.991-16.878A2.923,2.923,0,0,1,78.7,56.262l-6.721-3.88a2.923,2.923,0,0,1,0-5.063l6.721-3.88a2.923,2.923,0,0,1,4.384,2.531Z" transform="translate(0 0)" fill="#c3d4e8"/>
    </g>
  </g>
</svg>
