<svg xmlns="http://www.w3.org/2000/svg" width="136" height="112.806" viewBox="0 0 136 112.806">
  <g id="그룹_164608" data-name="그룹 164608" transform="translate(-882 -819.194)">
    <rect id="사각형_149568" data-name="사각형 149568" width="86" height="86" transform="translate(907 846)" fill="#e4e8ef"/>
    <path id="패스_84518" data-name="패스 84518" d="M26,114.266H1V54.956l25-26.69Z" transform="translate(881 817.734)" fill="#d9dee5"/>
    <path id="패스_84519" data-name="패스 84519" d="M112,114.266h25V54.956l-25-26.69Z" transform="translate(881 817.734)" fill="#d9dee5"/>
    <path id="패스_84520" data-name="패스 84520" d="M90.5,54.766,82.5,70.5h-28l-8-15.738H.5v60h136v-60Z" transform="translate(881.5 817.234)" fill="#f5f6fa"/>
    <line id="선_3672" data-name="선 3672" x1="6.541" y2="12.524" transform="translate(961.093 823.654) rotate(19)" fill="none" stroke="#a5b4d1" stroke-linecap="round" stroke-miterlimit="10" stroke-width="2"/>
    <path id="패스_84521" data-name="패스 84521" d="M116.375,8.485a4.09,4.09,0,1,1-1.732-5.519A4.09,4.09,0,0,1,116.375,8.485Z" transform="translate(855.311 782.742) rotate(19)" fill="none" stroke="#a5b4d1" stroke-miterlimit="10" stroke-width="2"/>
    <path id="패스_84522" data-name="패스 84522" d="M131.444,16.355a4.09,4.09,0,1,1-1.732-5.519A4.09,4.09,0,0,1,131.444,16.355Z" transform="translate(850.727 777.972) rotate(19)" fill="none" stroke="#a5b4d1" stroke-miterlimit="10" stroke-width="2"/>
    <line id="선_3673" data-name="선 3673" y1="2" transform="translate(967.947 823.654) rotate(19)" fill="none" stroke="#a5b4d1" stroke-linecap="round" stroke-width="1"/>
    <line id="선_3674" data-name="선 3674" y1="0.54" x2="2" transform="translate(967.797 825.545) rotate(19)" fill="none" stroke="#a5b4d1" stroke-linecap="round" stroke-width="1"/>
    <path id="패스_84523" data-name="패스 84523" d="M-5424.429-5557.857s-26.714,13-4.286,42.714" transform="translate(6379 6395)" fill="none" stroke="#a5b4d1" stroke-linecap="round" stroke-width="1" stroke-dasharray="1 3"/>
  </g>
</svg>
