<svg xmlns="http://www.w3.org/2000/svg" width="380" height="32" viewBox="0 0 380 32">
  <g id="그룹_166000" data-name="그룹 166000" transform="translate(-755 -360)">
    <g id="그룹_165079" data-name="그룹 165079" transform="translate(-55 1)">
      <g id="그룹_164184" data-name="그룹 164184" transform="translate(-1571 10326)">
        <path id="패스_84507" data-name="패스 84507" d="M15.93.676,6.073,13.868H5.955V.676H0v30.4H5.955V22.534l3.9-5.1,7.686,13.639H24.1l-10.7-18.446L22.487.676Z" transform="translate(2381 -9966.872)" fill="#002764"/>
        <path id="패스_84508" data-name="패스 84508" d="M25.929,30.626a15.228,15.228,0,0,1-5.008-3.292l3.419-4.2a13.494,13.494,0,0,0,3.6,2.448,9.335,9.335,0,0,0,3.965.925,5.654,5.654,0,0,0,3.54-.948,3.082,3.082,0,0,0,1.206-2.552,2.928,2.928,0,0,0-.321-1.44,3.432,3.432,0,0,0-.9-1.029,6.948,6.948,0,0,0-1.408-.824l-1.83-.823L28.2,17.166a12.39,12.39,0,0,1-2.916-1.728,8.848,8.848,0,0,1-2.233-2.658,7.7,7.7,0,0,1-.884-3.809,8.083,8.083,0,0,1,.764-3.477,8.291,8.291,0,0,1,2.132-2.8A10.26,10.26,0,0,1,28.326.842,12.168,12.168,0,0,1,32.469.163a13.174,13.174,0,0,1,5.089,1.009,12.336,12.336,0,0,1,4.244,2.9L38.784,7.9a11.787,11.787,0,0,0-2.938-1.852,8.459,8.459,0,0,0-3.38-.659,5.249,5.249,0,0,0-3.139.844A2.751,2.751,0,0,0,28.162,8.6a2.391,2.391,0,0,0,.383,1.358,4,4,0,0,0,1.005,1.029,8.833,8.833,0,0,0,1.468.844q.847.391,1.811.761l3.9,1.687a11.341,11.341,0,0,1,4.385,3.045,7.831,7.831,0,0,1,1.61,5.228,8.668,8.668,0,0,1-.745,3.54A8.5,8.5,0,0,1,39.83,29.04a10.524,10.524,0,0,1-3.446,2,13.378,13.378,0,0,1-4.605.741,15.442,15.442,0,0,1-5.85-1.151" transform="translate(2384.942 -9966.97)" fill="#002764"/>
        <path id="패스_84509" data-name="패스 84509" d="M46.526,31.077H40.489L50.024.676h7l9.573,30.4H60.363l-2.09-7.805H48.616Zm8.264-20.788q-.624-2.544-1.307-5.011h-.16q-.563,2.507-1.211,5.035t-1.327,4.908L49.9,18.548h7.087L56.1,15.221q-.683-2.384-1.307-4.932" transform="translate(2388.626 -9966.872)" fill="#002764"/>
        <path id="패스_84510" data-name="패스 84510" d="M64.3,20V16.454H76.7V14.494H67.987V.944h22.45V4.382H72.627V6.033H89.7v3.3H72.627v1.72H90.691v3.438H81.376v1.961H93.8v3.542Zm23.175,2.717a4.075,4.075,0,0,1,0,7.774A21.232,21.232,0,0,1,79,31.79a21.1,21.1,0,0,1-8.446-1.3,4.075,4.075,0,0,1,0-7.774A21.122,21.122,0,0,1,79,21.409a21.249,21.249,0,0,1,8.485,1.3Zm-3.454,5.331q1.594-.446,1.593-1.444t-1.593-1.422A21.065,21.065,0,0,0,79,24.746a20.807,20.807,0,0,0-5.012.431q-1.576.429-1.576,1.422t1.576,1.444A20.108,20.108,0,0,0,79,28.49a20.327,20.327,0,0,0,5.032-.45Z" transform="translate(2393.111 -9966.821)" fill="#0f1213"/>
        <path id="패스_84511" data-name="패스 84511" d="M91.717,3.03h7.26V0h4.71V3.03h7.3l-.036,3.547H91.722Zm17.057,12.292a5.38,5.38,0,0,1-1.647,1.778,8.3,8.3,0,0,1-2.531,1.153,12.905,12.905,0,0,1-6.481,0A8.3,8.3,0,0,1,95.583,17.1a5.38,5.38,0,0,1-1.647-1.778,4.53,4.53,0,0,1-.584-2.272,4.6,4.6,0,0,1,.584-2.308,5.38,5.38,0,0,1,1.647-1.778,8.055,8.055,0,0,1,2.531-1.138,13.5,13.5,0,0,1,6.481,0,8.056,8.056,0,0,1,2.531,1.138,5.38,5.38,0,0,1,1.647,1.778,4.613,4.613,0,0,1,.585,2.308,4.53,4.53,0,0,1-.585,2.272m8.658,16.288H96.214v-11.6h4.635V22.42h11.934V20.01h4.635ZM98.787,14.776a5.919,5.919,0,0,0,5.135,0,2.013,2.013,0,0,0,0-3.438,5.919,5.919,0,0,0-5.135,0,2.013,2.013,0,0,0,0,3.438m2.073,13.29h11.934V25.858H100.855ZM117.433,18.8h-4.674V.244h4.674V7.853h4.32v3.72h-4.32Z" transform="translate(2398.274 -9967)" fill="#0f1213"/>
        <path id="패스_84512" data-name="패스 84512" d="M136.232,13.488a7.506,7.506,0,0,1-1.877,2.546A8.888,8.888,0,0,1,131.54,17.7a9.887,9.887,0,0,1-3.488.6,10.039,10.039,0,0,1-3.506-.6,8.587,8.587,0,0,1-2.815-1.669,7.83,7.83,0,0,1-1.878-2.546,7.44,7.44,0,0,1-.689-3.2,7.555,7.555,0,0,1,.689-3.234,7.872,7.872,0,0,1,1.878-2.546,8.584,8.584,0,0,1,2.815-1.668,10.436,10.436,0,0,1,6.994,0,8.884,8.884,0,0,1,2.815,1.668,7.561,7.561,0,0,1,1.877,2.546,7.717,7.717,0,0,1,.674,3.234,7.614,7.614,0,0,1-.674,3.2m-11.243-.172a4.568,4.568,0,0,0,3.064,1.067,4.48,4.48,0,0,0,3.063-1.067,3.8,3.8,0,0,0,1.222-3.027,3.859,3.859,0,0,0-1.216-3.04,4.449,4.449,0,0,0-3.063-1.083A4.523,4.523,0,0,0,125,7.249a3.8,3.8,0,0,0-1.257,3.045,3.75,3.75,0,0,0,1.251,3.023m-.9,18.028v-10.6h4.675v6.984h17.847v3.613ZM141.081.243h4.71v22.74h-4.71Z" transform="translate(2403.443 -9966.953)" fill="#0f1213"/>
        <path id="패스_84513" data-name="패스 84513" d="M146,14.646H175.46v3.569H146Zm5.348-5.414a15.032,15.032,0,0,0,3.01-1.1,7.492,7.492,0,0,0,1.982-1.407,4.413,4.413,0,0,0,1.027-1.6h-8.676v-3.6H172.8v3.6h-8.711a4.382,4.382,0,0,0,1.027,1.6A7.473,7.473,0,0,0,167.1,8.132a14.861,14.861,0,0,0,3.01,1.1,25.063,25.063,0,0,0,4.107.67l-1.628,3.538a20.027,20.027,0,0,1-7.7-1.958,9.982,9.982,0,0,1-4.16-3.812,10.25,10.25,0,0,1-4.2,3.812,20.048,20.048,0,0,1-7.7,1.958L147.271,9.9a25.047,25.047,0,0,0,4.073-.665Zm14.058,11.1a13.054,13.054,0,0,1,3.559,1.151,6.154,6.154,0,0,1,2.249,1.836,4.155,4.155,0,0,1,.78,2.489,4.226,4.226,0,0,1-.78,2.507,6.1,6.1,0,0,1-2.249,1.855,13.149,13.149,0,0,1-3.559,1.151,28.654,28.654,0,0,1-9.49,0,12.857,12.857,0,0,1-3.542-1.151,6.142,6.142,0,0,1-2.231-1.855,4.227,4.227,0,0,1-.78-2.507,4.155,4.155,0,0,1,.78-2.489,6.2,6.2,0,0,1,2.231-1.836,12.857,12.857,0,0,1,3.542-1.151,28.654,28.654,0,0,1,9.49,0Zm1.842,5.478q0-1.236-1.631-1.8a21.912,21.912,0,0,0-9.914,0q-1.631.567-1.631,1.8,0,2.406,6.587,2.4t6.59-2.4Z" transform="translate(2408.497 -9966.713)" fill="#0f1213"/>
        <path id="패스_84514" data-name="패스 84514" d="M173.218,13.383h29.464v3.575H173.218ZM175.805.973h24.256V4.34H195.92V8.4h3.892v3.369h-23.8V8.4h3.93V4.34H175.8ZM199.957,31.53H176.618V23.52H194.5V21.979H176.582V18.712H199.1V26.55H181.258v1.719h18.7ZM184.588,8.4h6.692V4.34h-6.692Z" transform="translate(2413.624 -9966.815)" fill="#0f1213"/>
        <path id="패스_84515" data-name="패스 84515" d="M212.615,18.307q-1.307.155-2.708.237t-2.94.119q-1.547.034-3.345.034h-2.268V8.817h7.826V5.958h-7.862V2.411h12.36v9.71h-7.826v3q2.583-.032,4.71-.207a41.434,41.434,0,0,0,4.321-.584l.424,3.544q-1.382.286-2.692.439m6.977,4.854a7.184,7.184,0,0,0,1.912,2.252,12.325,12.325,0,0,0,3.222,1.808,18.238,18.238,0,0,0,4.6,1.085l-1.842,3.511a19.206,19.206,0,0,1-6.675-2.047,11.848,11.848,0,0,1-4.2-3.7,12.2,12.2,0,0,1-4.232,3.7,19.206,19.206,0,0,1-6.675,2.047L203.9,28.306a18.179,18.179,0,0,0,4.567-1.085,12.628,12.628,0,0,0,3.24-1.808,7.157,7.157,0,0,0,1.93-2.252,5.221,5.221,0,0,0,.637-2.427v-.552h4.674v.552a5.2,5.2,0,0,0,.642,2.427ZM216.441.757H220.8V7.885h2.615V.213h4.427V21.527h-4.427V11.508H220.8v7.4h-4.356Z" transform="translate(2418.914 -9966.96)" fill="#0f1213"/>
        <path id="패스_84516" data-name="패스 84516" d="M227.66,19.016V15.442h12.36V12.968h-9.561V9.36h3.93V4.585h-4.142V.973H254.5V4.581h-4.144V9.357h3.86v3.608h-9.525V15.44h12.429v3.574Zm25.958,12.372H231.095V21.076h22.522Zm-4.6-6.735h-13.35v3.2h13.351ZM245.721,4.583h-6.689V9.359h6.692Z" transform="translate(2423.877 -9966.815)" fill="#0f1213"/>
      </g>
    </g>
    <g id="그룹_165997" data-name="그룹 165997" transform="translate(828 331)">
      <path id="패스_85804" data-name="패스 85804" d="M0,3V27a2.831,2.831,0,0,0,2.624,3H70L60,15,70,0H2.624A2.831,2.831,0,0,0,0,3" transform="translate(237 30)" fill="#1161f8"/>
      <text id="심사원" transform="translate(248 50)" fill="#fff" font-size="14" font-family="SpoqaHanSansNeo-Bold, Spoqa Han Sans Neo" font-weight="700"><tspan x="0" y="0">심사원</tspan></text>
    </g>
  </g>
</svg>
