<svg xmlns="http://www.w3.org/2000/svg" width="297" height="30" viewBox="0 0 297 30">
  <g id="그룹_166198" data-name="그룹 166198" transform="translate(-40 -30)">
    <g id="그룹_22431" data-name="그룹 22431" transform="translate(-2341 10002)">
      <path id="패스_84507" data-name="패스 84507" d="M9.929.676,3.785,8.921H3.712V.676H0v19H3.712V14.337l2.431-3.185,4.791,8.524H15.02L8.348,8.148,14.017.676Z" transform="translate(2381 -9967.175)" fill="#002764"/>
      <path id="패스_84508" data-name="패스 84508" d="M24.043,19.2a9.49,9.49,0,0,1-3.122-2.057l2.131-2.625a8.41,8.41,0,0,0,2.244,1.53,5.806,5.806,0,0,0,2.471.578,3.518,3.518,0,0,0,2.207-.593,1.928,1.928,0,0,0,.752-1.595,1.833,1.833,0,0,0-.2-.9,2.143,2.143,0,0,0-.564-.643,4.328,4.328,0,0,0-.878-.515l-1.141-.514-2.483-1.078a7.719,7.719,0,0,1-1.818-1.08,5.526,5.526,0,0,1-1.392-1.661,4.819,4.819,0,0,1-.551-2.38,5.062,5.062,0,0,1,.476-2.173A5.18,5.18,0,0,1,23.5,1.745,6.391,6.391,0,0,1,25.537.587,7.567,7.567,0,0,1,28.119.163a8.194,8.194,0,0,1,3.172.63,7.689,7.689,0,0,1,2.645,1.813L32.056,5a7.344,7.344,0,0,0-1.831-1.157,5.261,5.261,0,0,0-2.107-.412,3.266,3.266,0,0,0-1.956.527,1.721,1.721,0,0,0-.727,1.482,1.5,1.5,0,0,0,.239.849,2.5,2.5,0,0,0,.627.643,5.5,5.5,0,0,0,.915.527q.528.244,1.129.476l2.433,1.054a7.069,7.069,0,0,1,2.734,1.9,4.9,4.9,0,0,1,1,3.267,5.429,5.429,0,0,1-.464,2.212,5.309,5.309,0,0,1-1.342,1.839,6.556,6.556,0,0,1-2.148,1.247,8.32,8.32,0,0,1-2.871.463,9.6,9.6,0,0,1-3.646-.719" transform="translate(2375.577 -9967.042)" fill="#002764"/>
      <path id="패스_84509" data-name="패스 84509" d="M44.252,19.676H40.489l5.943-19H50.8l5.967,19H52.877l-1.3-4.878h-6.02ZM49.4,6.684q-.389-1.59-.815-3.132h-.1q-.351,1.567-.755,3.147t-.827,3.068l-.553,2.079h4.417l-.553-2.079q-.426-1.49-.815-3.082" transform="translate(2370.503 -9967.175)" fill="#002764"/>
      <path id="패스_84510" data-name="패스 84510" d="M64.3,12.851V10.637H72.03V9.412H66.6V.944H80.593V3.092h-11.1V4.124H80.131V6.187H69.492V7.262h11.26V9.411H74.945v1.225h7.743v2.213Zm14.445,1.7a2.548,2.548,0,0,1,0,4.858,13.2,13.2,0,0,1-5.287.815,13.122,13.122,0,0,1-5.265-.815,2.548,2.548,0,0,1,0-4.858,13.135,13.135,0,0,1,5.265-.815,13.214,13.214,0,0,1,5.289.815ZM76.6,17.88q.993-.279.993-.9t-.993-.889a13.1,13.1,0,0,0-3.134-.27,12.937,12.937,0,0,0-3.124.27q-.982.268-.982.889t.982.9a12.5,12.5,0,0,0,3.124.279,12.639,12.639,0,0,0,3.137-.282Z" transform="translate(2364.328 -9967.245)" fill="#0f1213"/>
      <path id="패스_84511" data-name="패스 84511" d="M91.717,1.893h4.525V0h2.936V1.893h4.55l-.022,2.216H91.72Zm10.632,7.681a3.359,3.359,0,0,1-1.027,1.111,5.166,5.166,0,0,1-1.578.721,8.024,8.024,0,0,1-4.04,0,5.166,5.166,0,0,1-1.578-.721A3.359,3.359,0,0,1,93.1,9.575a2.836,2.836,0,0,1-.364-1.42A2.88,2.88,0,0,1,93.1,6.712,3.359,3.359,0,0,1,94.127,5.6,5.015,5.015,0,0,1,95.7,4.89a8.392,8.392,0,0,1,4.04,0,5.015,5.015,0,0,1,1.578.711,3.359,3.359,0,0,1,1.027,1.111,2.888,2.888,0,0,1,.364,1.442,2.837,2.837,0,0,1-.364,1.42m5.4,10.178H94.52V12.5h2.889v1.509h7.439V12.5h2.889ZM96.124,9.234a3.681,3.681,0,0,0,3.2,0,1.259,1.259,0,0,0,0-2.148,3.681,3.681,0,0,0-3.2,0,1.259,1.259,0,0,0,0,2.148m1.292,8.305h7.439v-1.38H97.413Zm10.33-5.788h-2.914V.153h2.914V4.908h2.693V7.232h-2.693Z" transform="translate(2357.221 -9967)" fill="#0f1213"/>
      <path id="패스_84512" data-name="패스 84512" d="M129.8,8.521a4.69,4.69,0,0,1-1.17,1.591,5.537,5.537,0,0,1-1.755,1.043,6.149,6.149,0,0,1-2.174.376,6.243,6.243,0,0,1-2.185-.376,5.35,5.35,0,0,1-1.755-1.043,4.892,4.892,0,0,1-1.17-1.591,4.66,4.66,0,0,1-.43-2,4.732,4.732,0,0,1,.43-2.021,4.919,4.919,0,0,1,1.17-1.591,5.348,5.348,0,0,1,1.755-1.042,6.489,6.489,0,0,1,4.36,0,5.535,5.535,0,0,1,1.755,1.042A4.725,4.725,0,0,1,129.8,4.5a4.833,4.833,0,0,1,.42,2.021,4.769,4.769,0,0,1-.42,2M122.8,8.413a2.843,2.843,0,0,0,1.91.667,2.788,2.788,0,0,0,1.909-.667,2.381,2.381,0,0,0,.762-1.892,2.415,2.415,0,0,0-.758-1.9,2.769,2.769,0,0,0-1.909-.677,2.815,2.815,0,0,0-1.91.677,2.38,2.38,0,0,0-.784,1.9,2.347,2.347,0,0,0,.78,1.889m-.563,11.267V13.057h2.914v4.365h11.124V19.68ZM132.826.243h2.936V14.454h-2.936Z" transform="translate(2350.105 -9967.063)" fill="#0f1213"/>
      <path id="패스_84513" data-name="패스 84513" d="M146,9.725h18.365v2.231H146Zm3.334-3.384a9.354,9.354,0,0,0,1.876-.687,4.67,4.67,0,0,0,1.236-.879,2.759,2.759,0,0,0,.64-1h-5.408V1.524h15.032V3.776h-5.43a2.74,2.74,0,0,0,.64,1,4.658,4.658,0,0,0,1.236.879,9.248,9.248,0,0,0,1.876.687,15.584,15.584,0,0,0,2.56.419l-1.015,2.211a12.457,12.457,0,0,1-4.8-1.224,6.228,6.228,0,0,1-2.593-2.382,6.4,6.4,0,0,1-2.616,2.382,12.47,12.47,0,0,1-4.8,1.224l-.973-2.211a15.574,15.574,0,0,0,2.539-.416Zm8.763,6.935a8.122,8.122,0,0,1,2.219.719,3.838,3.838,0,0,1,1.4,1.147A2.6,2.6,0,0,1,162.2,16.7a2.646,2.646,0,0,1-.486,1.567,3.8,3.8,0,0,1-1.4,1.159,8.181,8.181,0,0,1-2.219.719,17.814,17.814,0,0,1-5.915,0,8,8,0,0,1-2.208-.719,3.831,3.831,0,0,1-1.39-1.159,2.647,2.647,0,0,1-.486-1.567,2.6,2.6,0,0,1,.486-1.556A3.866,3.866,0,0,1,149.971,14a8,8,0,0,1,2.208-.719,17.814,17.814,0,0,1,5.915,0Zm1.148,3.424q0-.772-1.016-1.127a13.623,13.623,0,0,0-6.18,0q-1.017.354-1.016,1.127,0,1.5,4.106,1.5t4.108-1.5Z" transform="translate(2343.148 -9967.396)" fill="#0f1213"/>
      <path id="패스_84514" data-name="패스 84514" d="M173.218,8.729h18.366v2.234H173.218ZM174.831.973h15.12v2.1h-2.582V5.613h2.426V7.718H174.96V5.613h2.45V3.078h-2.581Zm15.054,19.1H175.337V15.064h11.147V14.1h-11.17V12.06H189.35v4.9H178.229v1.074h11.654Zm-9.58-14.458h4.171V3.078h-4.171Z" transform="translate(2336.09 -9967.252)" fill="#0f1213"/>
      <path id="패스_84515" data-name="패스 84515" d="M208.36,11.52q-.814.1-1.688.148t-1.833.074q-.965.021-2.085.021H201.34V5.59h4.878V3.8h-4.9V1.586h7.7V7.654h-4.878V9.526q1.61-.02,2.936-.13a25.765,25.765,0,0,0,2.694-.365l.264,2.215q-.861.179-1.678.274m4.349,3.034a4.487,4.487,0,0,0,1.192,1.408,7.677,7.677,0,0,0,2.008,1.13,11.345,11.345,0,0,0,2.87.678l-1.148,2.194a11.95,11.95,0,0,1-4.161-1.279,7.391,7.391,0,0,1-2.616-2.313,7.612,7.612,0,0,1-2.638,2.313,11.95,11.95,0,0,1-4.161,1.279l-1.125-2.194a11.307,11.307,0,0,0,2.847-.678,7.865,7.865,0,0,0,2.019-1.13,4.47,4.47,0,0,0,1.2-1.408,3.269,3.269,0,0,0,.4-1.516v-.345h2.914v.345a3.252,3.252,0,0,0,.4,1.516Zm-1.965-14h2.715V5.007h1.63V.213h2.759V13.532h-2.759V7.271h-1.63V11.9h-2.715Z" transform="translate(2328.803 -9967.056)" fill="#0f1213"/>
      <path id="패스_84516" data-name="패스 84516" d="M227.66,12.249V10.016h7.7V8.47H229.4V6.215h2.45V3.23h-2.582V.973h15.12V3.228h-2.583V6.213h2.406V8.468h-5.937v1.547h7.747v2.233Zm16.18,7.732H229.8V13.537H243.84Zm-2.87-4.209h-8.321v2h8.322ZM238.918,3.229h-4.169V6.214h4.171Z" transform="translate(2321.975 -9967.252)" fill="#0f1213"/>
    </g>
    <g id="그룹_165991" data-name="그룹 165991">
      <path id="패스_85804" data-name="패스 85804" d="M-16.224,3V27a2.819,2.819,0,0,0,2.595,3H83.776L73.888,15,83.776,0H-13.63a2.819,2.819,0,0,0-2.595,3" transform="translate(253.224 30)" fill="#1161f8"/>
      <text id="KS시험기관" transform="translate(247 50)" fill="#fff" font-size="14" font-family="SpoqaHanSansNeo-Bold, Spoqa Han Sans Neo" font-weight="700"><tspan x="0" y="0">KS시험기관</tspan></text>
    </g>
  </g>
</svg>
