<svg xmlns="http://www.w3.org/2000/svg" width="230" height="21" viewBox="0 0 230 21">
  <g id="그룹_165994" data-name="그룹 165994" transform="translate(-60 -20)">
    <g id="그룹_164685" data-name="그룹 164685" transform="translate(60 23)">
      <g id="그룹_164683" data-name="그룹 164683" transform="translate(0)">
        <path id="패스_84507" data-name="패스 84507" d="M7.436.676l-4.6,6.185H2.78V.676H0V14.929H2.78V10.924L4.6,8.534l3.588,6.395h3.06l-5-8.648L10.5.676Z" transform="translate(0 -0.301)" fill="#002764"/>
        <path id="패스_84508" data-name="패스 84508" d="M23.259,14.443A7.106,7.106,0,0,1,20.921,12.9l1.6-1.969a6.3,6.3,0,0,0,1.68,1.147,4.343,4.343,0,0,0,1.851.433,2.631,2.631,0,0,0,1.653-.445,1.447,1.447,0,0,0,.563-1.2,1.377,1.377,0,0,0-.15-.675,1.606,1.606,0,0,0-.422-.482,3.24,3.24,0,0,0-.657-.386l-.854-.386-1.86-.809a5.779,5.779,0,0,1-1.361-.81,4.143,4.143,0,0,1-1.042-1.246A3.619,3.619,0,0,1,21.5,4.291a3.8,3.8,0,0,1,.357-1.63,3.885,3.885,0,0,1,1-1.312A4.784,4.784,0,0,1,24.378.481,5.659,5.659,0,0,1,26.312.163a6.127,6.127,0,0,1,2.376.473A5.758,5.758,0,0,1,30.668,2L29.26,3.79a5.5,5.5,0,0,0-1.371-.868,3.934,3.934,0,0,0-1.578-.309,2.443,2.443,0,0,0-1.465.4A1.292,1.292,0,0,0,24.3,4.12a1.124,1.124,0,0,0,.179.637,1.873,1.873,0,0,0,.469.482,4.119,4.119,0,0,0,.685.4q.4.183.845.357l1.822.791A5.294,5.294,0,0,1,30.349,8.21,3.681,3.681,0,0,1,31.1,10.66a4.078,4.078,0,0,1-.348,1.659,3.982,3.982,0,0,1-1,1.38,4.908,4.908,0,0,1-1.609.936,6.221,6.221,0,0,1-2.15.347,7.182,7.182,0,0,1-2.731-.54" transform="translate(-9.314 -0.073)" fill="#002764"/>
        <path id="패스_84509" data-name="패스 84509" d="M43.307,14.929H40.489L44.94.676h3.269l4.469,14.253H49.766l-.976-3.659H44.283Zm3.858-9.746q-.291-1.193-.61-2.35H46.48q-.263,1.175-.565,2.361T45.3,7.5l-.414,1.56h3.308L47.775,7.5q-.319-1.118-.61-2.312" transform="translate(-18.036 -0.301)" fill="#002764"/>
        <path id="패스_84510" data-name="패스 84510" d="M64.3,9.876V8.215H70.09V7.3H66.023V.944H76.5V2.556H68.189V3.33h7.968V4.877H68.189v.806h8.433V7.3H72.273v.919h5.8v1.66Zm10.818,1.274a1.913,1.913,0,0,1,0,3.644,9.873,9.873,0,0,1-3.959.611,9.812,9.812,0,0,1-3.943-.611,1.913,1.913,0,0,1,0-3.644,9.822,9.822,0,0,1,3.943-.611,9.881,9.881,0,0,1,3.961.611Zm-1.612,2.5q.744-.209.743-.677T73.51,12.3a9.793,9.793,0,0,0-2.347-.2,9.672,9.672,0,0,0-2.339.2q-.736.2-.736.667t.736.677a9.348,9.348,0,0,0,2.339.21,9.45,9.45,0,0,0,2.349-.211Z" transform="translate(-28.645 -0.421)" fill="#0f1213"/>
        <path id="패스_84511" data-name="패스 84511" d="M91.717,1.42h3.389V0h2.2V1.42h3.407L100.7,3.083H91.719Zm7.962,5.762a2.518,2.518,0,0,1-.769.834,3.866,3.866,0,0,1-1.182.541,6,6,0,0,1-3.025,0,3.866,3.866,0,0,1-1.182-.541,2.518,2.518,0,0,1-.769-.834,2.13,2.13,0,0,1-.272-1.065,2.163,2.163,0,0,1,.272-1.082,2.518,2.518,0,0,1,.769-.834A3.753,3.753,0,0,1,94.7,3.668a6.275,6.275,0,0,1,3.025,0A3.753,3.753,0,0,1,98.91,4.2a2.518,2.518,0,0,1,.769.834,2.169,2.169,0,0,1,.273,1.082,2.131,2.131,0,0,1-.273,1.065m4.042,7.635h-9.9V9.378H95.98V10.51h5.571V9.38h2.164Zm-8.7-7.891a2.753,2.753,0,0,0,2.4,0,.945.945,0,0,0,0-1.611,2.753,2.753,0,0,0-2.4,0,.945.945,0,0,0,0,1.611m.968,6.23h5.571V12.121H95.983Zm7.736-4.342h-2.182V.114h2.182V3.681h2.017V5.425h-2.017Z" transform="translate(-40.856)" fill="#0f1213"/>
        <path id="패스_84512" data-name="패스 84512" d="M127.132,6.452a3.518,3.518,0,0,1-.876,1.194,4.145,4.145,0,0,1-1.314.782,4.6,4.6,0,0,1-1.628.282,4.669,4.669,0,0,1-1.637-.282,4,4,0,0,1-1.314-.782,3.67,3.67,0,0,1-.877-1.194,3.5,3.5,0,0,1-.322-1.5,3.554,3.554,0,0,1,.322-1.516,3.69,3.69,0,0,1,.877-1.194,4,4,0,0,1,1.314-.782,4.852,4.852,0,0,1,3.265,0,4.144,4.144,0,0,1,1.314.782,3.544,3.544,0,0,1,.876,1.194,3.631,3.631,0,0,1,.315,1.516,3.582,3.582,0,0,1-.315,1.5m-5.248-.081a2.127,2.127,0,0,0,1.43.5,2.086,2.086,0,0,0,1.43-.5,1.787,1.787,0,0,0,.57-1.419,1.813,1.813,0,0,0-.568-1.425,2.071,2.071,0,0,0-1.43-.508,2.106,2.106,0,0,0-1.43.508,1.787,1.787,0,0,0-.587,1.428,1.762,1.762,0,0,0,.584,1.417m-.422,8.452V9.855h2.182V13.13h8.331v1.694ZM129.395.243h2.2V10.9h-2.2Z" transform="translate(-53.082 -0.108)" fill="#0f1213"/>
        <path id="패스_84513" data-name="패스 84513" d="M146,7.676H159.75V9.35H146Zm2.5-2.539a7,7,0,0,0,1.405-.516,3.5,3.5,0,0,0,.925-.66,2.07,2.07,0,0,0,.479-.749h-4.05V1.524h11.257V3.213h-4.066a2.056,2.056,0,0,0,.479.749,3.488,3.488,0,0,0,.925.66,6.918,6.918,0,0,0,1.405.516,11.652,11.652,0,0,0,1.917.314l-.76,1.659a9.316,9.316,0,0,1-3.6-.918,4.667,4.667,0,0,1-1.942-1.787,4.792,4.792,0,0,1-1.959,1.787,9.326,9.326,0,0,1-3.6.918l-.728-1.659a11.645,11.645,0,0,0,1.9-.312Zm6.562,5.2a6.075,6.075,0,0,1,1.662.54,2.876,2.876,0,0,1,1.05.861,1.954,1.954,0,0,1,.364,1.167,1.988,1.988,0,0,1-.364,1.175,2.85,2.85,0,0,1-1.05.87,6.119,6.119,0,0,1-1.662.54,13.318,13.318,0,0,1-4.43,0,5.983,5.983,0,0,1-1.653-.54,2.87,2.87,0,0,1-1.041-.87,1.988,1.988,0,0,1-.364-1.175,1.954,1.954,0,0,1,.364-1.167,2.9,2.9,0,0,1,1.041-.861,5.983,5.983,0,0,1,1.653-.54,13.318,13.318,0,0,1,4.43,0Zm.86,2.569q0-.579-.761-.845a10.185,10.185,0,0,0-4.628,0q-.761.266-.761.845,0,1.128,3.075,1.128t3.076-1.128Z" transform="translate(-65.036 -0.678)" fill="#0f1213"/>
        <path id="패스_84514" data-name="패스 84514" d="M173.218,6.791h13.754V8.467H173.218ZM174.426.973h11.323V2.552h-1.933v1.9h1.817V6.033h-11.11V4.453h1.835v-1.9h-1.933ZM185.7,15.3H174.805V11.544h8.348v-.722h-8.365V9.29H185.3v3.674h-8.328v.806H185.7ZM178.526,4.453h3.124v-1.9h-3.124Z" transform="translate(-77.162 -0.433)" fill="#0f1213"/>
        <path id="패스_84515" data-name="패스 84515" d="M206.592,8.695q-.61.073-1.264.111t-1.373.056q-.722.016-1.562.016h-1.058V4.246h3.653V2.906h-3.67V1.243h5.77V5.795h-3.653V7.2q1.206-.015,2.2-.1a19.265,19.265,0,0,0,2.017-.274l.2,1.661q-.645.134-1.257.206m3.257,2.276a3.364,3.364,0,0,0,.893,1.056,5.747,5.747,0,0,0,1.5.847,8.484,8.484,0,0,0,2.149.508l-.86,1.646a8.938,8.938,0,0,1-3.116-.96,5.538,5.538,0,0,1-1.959-1.735,5.7,5.7,0,0,1-1.976,1.735,8.938,8.938,0,0,1-3.116.96l-.843-1.646a8.457,8.457,0,0,0,2.132-.508,5.888,5.888,0,0,0,1.512-.847,3.351,3.351,0,0,0,.9-1.056,2.455,2.455,0,0,0,.3-1.137V9.574h2.182v.259a2.442,2.442,0,0,0,.3,1.137ZM208.377.468h2.033V3.809h1.221V.213H213.7V10.2h-2.067v-4.7h-1.221v3.47h-2.033Z" transform="translate(-89.685 -0.094)" fill="#0f1213"/>
        <path id="패스_84516" data-name="패스 84516" d="M227.66,9.432V7.757h5.77V6.6h-4.463V4.905H230.8V2.666h-1.933V.973h11.323V2.665h-1.935V4.9h1.8V6.6h-4.447v1.16h5.8V9.431Zm12.117,5.8H229.263V10.4h10.514Zm-2.149-3.158H231.4v1.5h6.232Zm-1.537-9.409h-3.122V4.9h3.124Z" transform="translate(-101.413 -0.433)" fill="#0f1213"/>
      </g>
    </g>
    <path id="패스_85804" data-name="패스 85804" d="M0,2.1.015,18.3A2.973,2.973,0,0,0,3,21H80L68.8,10.5,80,0H3A2.972,2.972,0,0,0,0,2.859" transform="translate(210 20)" fill="#1161f8"/>
    <text id="KS시험기관" transform="translate(215 35)" fill="#fff" font-size="12" font-family="SegoeUI-Bold, Segoe UI" font-weight="700"><tspan x="0" y="0">KS</tspan><tspan y="0" font-family="MalgunGothicBold, Malgun Gothic" font-weight="400">시험기관</tspan></text>
  </g>
</svg>
