<svg xmlns="http://www.w3.org/2000/svg" xmlns:xlink="http://www.w3.org/1999/xlink" width="40" height="70" viewBox="0 0 40 70">
  <defs>
    <clipPath id="clip-path">
      <rect id="사각형_150614" data-name="사각형 150614" width="26" height="34" transform="translate(0 -0.5)" fill="#bad1fe"/>
    </clipPath>
  </defs>
  <g id="그룹_166264" data-name="그룹 166264" transform="translate(-140 -442)">
    <rect id="사각형_150423" data-name="사각형 150423" width="40" height="70" transform="translate(140 442)" fill="#ecf5ff"/>
    <g id="그룹_165513" data-name="그룹 165513" transform="translate(-455.927 129.121)">
      <g id="그룹_165512" data-name="그룹 165512" transform="translate(602.927 331.38)">
        <g id="그룹_165511" data-name="그룹 165511" transform="translate(0 0)" clip-path="url(#clip-path)">
          <path id="패스_83242" data-name="패스 83242" d="M1.459,2.929A1.464,1.464,0,1,1,2.918,1.465,1.462,1.462,0,0,1,1.459,2.929" transform="translate(0 0.115)" fill="#bad1fe"/>
          <path id="패스_83243" data-name="패스 83243" d="M1.459,521.721a1.464,1.464,0,1,1,1.459-1.465,1.462,1.462,0,0,1-1.459,1.465" transform="translate(0 -488.221)" fill="#bad1fe"/>
          <path id="패스_83244" data-name="패스 83244" d="M66.28,2.929a1.464,1.464,0,1,1,1.459-1.464A1.462,1.462,0,0,1,66.28,2.929" transform="translate(-61.029 0.115)" fill="#bad1fe"/>
          <path id="패스_83245" data-name="패스 83245" d="M66.28,67.751a1.464,1.464,0,1,1,1.459-1.464,1.462,1.462,0,0,1-1.459,1.464" transform="translate(-61.029 -60.901)" fill="#bad1fe"/>
          <path id="패스_83246" data-name="패스 83246" d="M66.28,456.846a1.464,1.464,0,1,1,1.459-1.465,1.462,1.462,0,0,1-1.459,1.465" transform="translate(-61.029 -427.154)" fill="#bad1fe"/>
          <path id="패스_83247" data-name="패스 83247" d="M66.28,521.721a1.464,1.464,0,1,1,1.459-1.465,1.462,1.462,0,0,1-1.459,1.465" transform="translate(-61.029 -488.221)" fill="#bad1fe"/>
          <path id="패스_83248" data-name="패스 83248" d="M131.155,2.929a1.464,1.464,0,1,1,1.459-1.464,1.462,1.462,0,0,1-1.459,1.464" transform="translate(-122.109 0.115)" fill="#bad1fe"/>
          <path id="패스_83249" data-name="패스 83249" d="M131.155,67.751a1.464,1.464,0,1,1,1.459-1.464,1.462,1.462,0,0,1-1.459,1.464" transform="translate(-122.109 -60.901)" fill="#bad1fe"/>
          <path id="패스_83250" data-name="패스 83250" d="M131.155,132.628a1.464,1.464,0,1,1,1.459-1.465,1.462,1.462,0,0,1-1.459,1.465" transform="translate(-122.109 -121.97)" fill="#bad1fe"/>
          <path id="패스_83251" data-name="패스 83251" d="M131.155,392.022a1.464,1.464,0,1,1,1.459-1.464,1.462,1.462,0,0,1-1.459,1.464" transform="translate(-122.109 -366.136)" fill="#bad1fe"/>
          <path id="패스_83252" data-name="패스 83252" d="M131.155,456.846a1.464,1.464,0,1,1,1.459-1.465,1.462,1.462,0,0,1-1.459,1.465" transform="translate(-122.109 -427.154)" fill="#bad1fe"/>
          <path id="패스_83253" data-name="패스 83253" d="M131.155,521.721a1.464,1.464,0,1,1,1.459-1.465,1.462,1.462,0,0,1-1.459,1.465" transform="translate(-122.109 -488.221)" fill="#bad1fe"/>
          <path id="패스_83254" data-name="패스 83254" d="M195.977,67.751a1.464,1.464,0,1,1,1.459-1.464,1.462,1.462,0,0,1-1.459,1.464" transform="translate(-183.138 -60.901)" fill="#bad1fe"/>
          <path id="패스_83255" data-name="패스 83255" d="M195.977,132.628a1.464,1.464,0,1,1,1.459-1.465,1.462,1.462,0,0,1-1.459,1.465" transform="translate(-183.138 -121.97)" fill="#bad1fe"/>
          <path id="패스_83256" data-name="패스 83256" d="M195.977,197.451a1.464,1.464,0,1,1,1.459-1.464,1.462,1.462,0,0,1-1.459,1.464" transform="translate(-183.138 -182.987)" fill="#bad1fe"/>
          <path id="패스_83257" data-name="패스 83257" d="M195.977,327.147a1.464,1.464,0,1,1,1.459-1.464,1.462,1.462,0,0,1-1.459,1.464" transform="translate(-183.138 -305.069)" fill="#bad1fe"/>
          <path id="패스_83258" data-name="패스 83258" d="M195.977,392.022a1.464,1.464,0,1,1,1.459-1.464,1.462,1.462,0,0,1-1.459,1.464" transform="translate(-183.138 -366.136)" fill="#bad1fe"/>
          <path id="패스_83259" data-name="패스 83259" d="M195.977,456.846a1.464,1.464,0,1,1,1.459-1.465,1.462,1.462,0,0,1-1.459,1.465" transform="translate(-183.138 -427.154)" fill="#bad1fe"/>
          <path id="패스_83260" data-name="패스 83260" d="M260.849,132.628a1.464,1.464,0,1,1,1.459-1.465,1.462,1.462,0,0,1-1.459,1.465" transform="translate(-244.215 -121.97)" fill="#bad1fe"/>
          <path id="패스_83261" data-name="패스 83261" d="M260.849,197.451a1.464,1.464,0,1,1,1.459-1.464,1.462,1.462,0,0,1-1.459,1.464" transform="translate(-244.215 -182.987)" fill="#bad1fe"/>
          <path id="패스_83262" data-name="패스 83262" d="M260.849,262.328a1.464,1.464,0,1,1,1.459-1.464,1.462,1.462,0,0,1-1.459,1.464" transform="translate(-244.215 -244.057)" fill="#bad1fe"/>
          <path id="패스_83263" data-name="패스 83263" d="M260.849,327.147a1.464,1.464,0,1,1,1.459-1.464,1.462,1.462,0,0,1-1.459,1.464" transform="translate(-244.215 -305.069)" fill="#bad1fe"/>
          <path id="패스_83264" data-name="패스 83264" d="M260.849,392.022a1.464,1.464,0,1,1,1.459-1.464,1.462,1.462,0,0,1-1.459,1.464" transform="translate(-244.215 -366.136)" fill="#bad1fe"/>
          <path id="패스_83265" data-name="패스 83265" d="M325.676,197.451a1.464,1.464,0,1,1,1.459-1.464,1.462,1.462,0,0,1-1.459,1.464" transform="translate(-305.25 -182.987)" fill="#bad1fe"/>
          <path id="패스_83266" data-name="패스 83266" d="M325.676,262.328a1.464,1.464,0,1,1,1.459-1.464,1.462,1.462,0,0,1-1.459,1.464" transform="translate(-305.25 -244.057)" fill="#bad1fe"/>
          <path id="패스_83267" data-name="패스 83267" d="M325.676,327.147a1.464,1.464,0,1,1,1.459-1.464,1.462,1.462,0,0,1-1.459,1.464" transform="translate(-305.25 -305.069)" fill="#bad1fe"/>
          <path id="패스_83268" data-name="패스 83268" d="M390.553,262.328a1.464,1.464,0,1,1,1.459-1.464,1.461,1.461,0,0,1-1.459,1.464" transform="translate(-366.331 -244.057)" fill="#bad1fe"/>
        </g>
      </g>
    </g>
  </g>
</svg>
