<svg xmlns="http://www.w3.org/2000/svg" width="22" height="22" viewBox="0 0 22 22">
  <g id="그룹_22051" data-name="그룹 22051" transform="translate(-649 -1231)">
    <path id="free-icon-heart-2589197" d="M48.333,93.841a2.708,2.708,0,0,1-1.464-.428,36.3,36.3,0,0,1-5.64-4.428c-2.475-2.452-3.729-4.762-3.729-6.866a6.313,6.313,0,0,1,1.25-3.874,5.712,5.712,0,0,1,6.837-1.772A6.859,6.859,0,0,1,48.333,78.7a6.818,6.818,0,0,1,2.746-2.231,5.712,5.712,0,0,1,6.837,1.772,6.313,6.313,0,0,1,1.25,3.874c0,2.1-1.255,4.413-3.729,6.864a36.255,36.255,0,0,1-5.64,4.428,2.708,2.708,0,0,1-1.464.43ZM43.284,77.235a4.433,4.433,0,0,0-1.161.154A4.508,4.508,0,0,0,39.736,79a5.089,5.089,0,0,0-1,3.124c0,1.761,1.131,3.774,3.362,5.983a34.706,34.706,0,0,0,5.437,4.264,1.474,1.474,0,0,0,1.587,0A35.043,35.043,0,0,0,54.563,88.1c2.231-2.209,3.362-4.222,3.362-5.983a5.093,5.093,0,0,0-1-3.124,4.508,4.508,0,0,0-2.387-1.608c-1.694-.46-4.074.021-5.676,2.751a.619.619,0,0,1-1.069,0A5.228,5.228,0,0,0,43.284,77.235Z" transform="translate(611.667 1157.083)" fill="#212529"/>
    <rect id="사각형_150523" data-name="사각형 150523" width="22" height="22" transform="translate(649 1231)" fill="none"/>
  </g>
</svg>
