<svg xmlns="http://www.w3.org/2000/svg" width="80" height="80" viewBox="0 0 80 80">
  <g id="plus_7974197" transform="translate(-3 -3)">
    <path id="패스_86095" data-name="패스 86095" d="M81.621,3H4.379A1.3,1.3,0,0,0,3,4.379V81.621A1.3,1.3,0,0,0,4.379,83H81.621A1.3,1.3,0,0,0,83,81.621V4.379A1.3,1.3,0,0,0,81.621,3ZM80.241,80.241H5.759V5.759H80.241Z" fill="#94989b"/>
    <path id="패스_86096" data-name="패스 86096" d="M17.379,39.448H36.69v19.31a1.379,1.379,0,0,0,2.759,0V39.448h19.31a1.379,1.379,0,0,0,0-2.759H39.448V17.379a1.379,1.379,0,0,0-2.759,0V36.69H17.379a1.379,1.379,0,1,0,0,2.759Z" transform="translate(4.931 4.931)" fill="#94989b"/>
  </g>
</svg>
