<svg xmlns="http://www.w3.org/2000/svg" width="140" height="140" viewBox="0 0 140 140">
  <g id="그룹_167012" data-name="그룹 167012" transform="translate(24185 16143)">
    <rect id="사각형_151510" data-name="사각형 151510" width="140" height="140" transform="translate(-24185 -16143)" fill="none"/>
    <g id="circle" transform="translate(-24262 -16560)">
      <circle id="타원_84" data-name="타원 84" cx="57.5" cy="57.5" r="57.5" transform="translate(90 430)" fill="#e9faff"/>
    </g>
    <g id="icons" transform="translate(-24262 -16560)">
      <g id="그룹_166998" data-name="그룹 166998">
        <g id="그룹_166970" data-name="그룹 166970">
          <path id="패스_87842" data-name="패스 87842" d="M178,489c-.776,1.417-3.856,6.366-9.422,6.366a10.922,10.922,0,0,1-9.731-6.15l-4.55,1.793-.467,1.235C143.9,496.633,139,503.57,139,513.689V522h59v-8.311c0-10.45-3.515-16.7-15.225-21.6l-.338-1.358Z" fill="#acbaea"/>
          <path id="패스_87843" data-name="패스 87843" d="M176.154,491.988a9.465,9.465,0,0,1-7.426,3.378,11.745,11.745,0,0,1-9.644-5.582C145.654,493.909,139,501.763,139,513.689V522h55v-7.2C194,503.468,189.978,497.078,176.154,491.988Z" fill="#c0caf9"/>
          <path id="패스_87844" data-name="패스 87844" d="M158,490.147c-12.691,4.213-19,11.947-19,23.542V522h19Z" fill="#acbaea"/>
          <path id="패스_87845" data-name="패스 87845" d="M170.473,497.036l-14.089,8.5-.2-2.093,13.1-8.286Z" fill="#acbaea"/>
          <path id="패스_87846" data-name="패스 87846" d="M185.035,492.945l-2.161-.5-2.545,10.922-12.969-8.2-1.186,1.876,15.337,9.274Z" fill="#acbaea"/>
          <path id="패스_87847" data-name="패스 87847" d="M162.326,450.451c-4.077,1.108-8.326,6.8-8.326,7.972v12.726a9.65,9.65,0,0,0,2.776,6.773l4.863,4.936a9.5,9.5,0,0,0,2.306,1.778,9.786,9.786,0,0,0,11.715-1.842l4.67-4.893a9.647,9.647,0,0,0,2.67-6.663v-11.88c-.2-3.279-5.932-3.327-12.476-5.273A33.221,33.221,0,0,1,162.326,450.451Z" fill="#ffe5e1"/>
          <path id="패스_87848" data-name="패스 87848" d="M180,456.895v14.556a8.525,8.525,0,0,1-2.21,5.75l-3.777,4.124a8.608,8.608,0,0,1-2.651,2.033,9.561,9.561,0,0,1-9.957-1.721l1.245,1.317a14.046,14.046,0,0,0,3.4,2.013,7.945,7.945,0,0,0,9.37-1.834l4.493-4.246c1.419-1.549,2.762-5.151,3.088-7.292V457.9Z" fill="#ffd0ca"/>
          <path id="패스_87849" data-name="패스 87849" d="M162.634,450.395c-.932.118-7.111,2.272-7.742,8.58a20.53,20.53,0,0,1,7.255-6.15c7.517,5.835,17.021,4.1,19.975,6.781C181.67,454.708,172.4,455.919,162.634,450.395Z" fill="#ffd0ca"/>
          <path id="패스_87850" data-name="패스 87850" d="M148.768,458.489l.427-5.068c.226-4.087,4.689-14.968,19.089-14.921,8.54.163,18.837,5.722,19.563,15.442l.19,5.069-5.318-.285c.237,1.521.316-.906-.9-1.834-3.359-2.574-11.1-1.172-19.793-6.585,0,0-6.914,3.919-8,8.419Z" fill="#d3a59f"/>
          <path id="패스_87851" data-name="패스 87851" d="M168.624,439.414c-4.082-.772-12.558,2.12-15.024,4.96s-4.821,9.528-4.263,12.836c.758-.189,2.458-.165,3.316-.284,1.373-5.258,7.367-7.671,9.9-7.531.441.669,1.233,1,1.673,1.562,7.944,4.906,15.489,4.741,18.6,7.438.853-.427,2.174-1.279,2.174-1.279V454C184,443,176.237,440.1,168.624,439.414Z" fill="#e3bab1"/>
          <path id="패스_87852" data-name="패스 87852" d="M177.084,481.826c-2,1.6-5.791,4.235-8.49,4.235-2.84,0-6.554-2.3-8.594-4.061,0,0,0,7-1,7.995a10.411,10.411,0,0,0,18.866,0C177,488,177.084,481.826,177.084,481.826Z" fill="#ffe5e1"/>
          <path id="패스_87853" data-name="패스 87853" d="M176,485.744l.047-3.349c-2.144,1.678-5.016,3.458-7.91,3.458a13.2,13.2,0,0,1-8.242-3.221c0,.024.142,2.178.142,2.178C165.358,489.477,172.554,488.606,176,485.744Z" fill="#ffd0ca"/>
          <path id="패스_87854" data-name="패스 87854" d="M168.288,471.095l-2.307.991L167.1,465.3l.931.106Z" fill="#ffd0ca"/>
          <path id="패스_87855" data-name="패스 87855" d="M167.189,495.366,162.75,498.7l3.329,4.439L161.64,522l13.294.058-4.416-18.924,3.329-4.439-3.61-3.411Z" fill="#c5d9f9"/>
          <path id="패스_87856" data-name="패스 87856" d="M168,503l2-4h-6.921l3,4Z" fill="#d4e6ff"/>
          <path id="패스_87857" data-name="패스 87857" d="M165.534,505l-4,17H171l-3-17Z" fill="#d4e6ff"/>
          <path id="패스_87858" data-name="패스 87858" d="M151.5,474a2.5,2.5,0,0,1-2.5-2.5v-12a2.5,2.5,0,0,1,5,0v12A2.5,2.5,0,0,1,151.5,474Z" fill="#89d3ff"/>
          <path id="패스_87859" data-name="패스 87859" d="M185.5,474a2.5,2.5,0,0,1-2.5-2.5v-12a2.5,2.5,0,0,1,5,0v12A2.5,2.5,0,0,1,185.5,474Z" fill="#89d3ff"/>
          <path id="사각형_151492" data-name="사각형 151492" d="M0,0H1.053A4.947,4.947,0,0,1,6,4.947V8.053A4.947,4.947,0,0,1,1.053,13H0a0,0,0,0,1,0,0V0A0,0,0,0,1,0,0Z" transform="translate(188 459)" fill="#89d3ff"/>
          <rect id="사각형_151493" data-name="사각형 151493" width="3" height="13" transform="translate(188 459)" fill="#7bc3ff"/>
          <path id="사각형_151494" data-name="사각형 151494" d="M0,0H1.053A4.947,4.947,0,0,1,6,4.947V8.053A4.947,4.947,0,0,1,1.053,13H0a0,0,0,0,1,0,0V0A0,0,0,0,1,0,0Z" transform="translate(149 472) rotate(180)" fill="#89d3ff"/>
          <rect id="사각형_151495" data-name="사각형 151495" width="3" height="13" transform="translate(149 472) rotate(180)" fill="#7bc3ff"/>
          <path id="패스_87860" data-name="패스 87860" d="M181.626,444.711l1.987-2.09a.932.932,0,0,0,.048-1.22c-2.745-3.488-8.5-6.4-15.161-6.4-6.707,0-12.489,2.952-15.212,6.471a.931.931,0,0,0,.053,1.215l1.986,2.089a.91.91,0,0,0,1.391-.067c1.916-2.618,6.463-4.767,11.782-4.767,5.281,0,9.8,2.119,11.741,4.711A.911.911,0,0,0,181.626,444.711Z" fill="#ffdcb4"/>
          <path id="패스_87861" data-name="패스 87861" d="M175.5,486h-4a2.5,2.5,0,0,1,0-5h4a2.5,2.5,0,0,1,0,5Z" fill="#ff859e"/>
          <path id="패스_87862" data-name="패스 87862" d="M154,522h-8l-2.353,10.774L133,522H107V484h47Z" fill="#ffcba4"/>
          <path id="패스_87863" data-name="패스 87863" d="M151,519h-8l-2.353,10.774L131,519H107V484h44Z" fill="#ffdcb4"/>
          <path id="패스_87864" data-name="패스 87864" d="M113,499h28V484H107v21.071Z" fill="#ffcba4"/>
          <path id="패스_87865" data-name="패스 87865" d="M91,496h8l2.353,10.774L112,496h26V458H91Z" fill="#e8f0fc"/>
          <path id="패스_87866" data-name="패스 87866" d="M91,493h8l2.353,9.774L111,493h24V458H91Z" fill="#fff"/>
        </g>
        <g id="그룹_166997" data-name="그룹 166997">
          <g id="그룹_166971" data-name="그룹 166971">
            <path id="패스_87867" data-name="패스 87867" d="M168.222,496.557a10.813,10.813,0,0,1-10.083-6.429l1.853-.752a8.8,8.8,0,0,0,8.23,5.181,8.668,8.668,0,0,0,8.365-5.544l1.89.652A10.662,10.662,0,0,1,168.222,496.557Z" fill="#556193"/>
          </g>
          <g id="그룹_166972" data-name="그룹 166972">
            <path id="패스_87868" data-name="패스 87868" d="M168.608,486.807a10.988,10.988,0,0,1-5.141-1.294,10.326,10.326,0,0,1-2.531-1.946l-4.826-4.9a10.784,10.784,0,0,1-3.11-7.618V461.9c0-9.8,9.176-12.573,9.269-12.6l.443-.128.386.254a35.641,35.641,0,0,0,13.228,5.12c4.287.929,7.674,1.661,7.674,6.317v10.373a10.608,10.608,0,0,1-2.946,7.355l-3.126,3.421-1.477-1.35,3.141-3.436a8.628,8.628,0,0,0,2.408-5.99V460.863c0-2.9-1.566-3.382-6.1-4.362a38.188,38.188,0,0,1-13.495-5.138A11.075,11.075,0,0,0,155,461.9v9.152a8.919,8.919,0,0,0,2.534,6.214l4.827,4.9a8.411,8.411,0,0,0,2.038,1.579,8.915,8.915,0,0,0,5.717.933l.344,1.971A10.817,10.817,0,0,1,168.608,486.807Z" fill="#556193"/>
          </g>
          <g id="그룹_166973" data-name="그룹 166973">
            <path id="패스_87869" data-name="패스 87869" d="M159.806,490.323l-1.524-1.295a3.872,3.872,0,0,0,.718-2.714V481h2v5.314A5.89,5.89,0,0,1,159.806,490.323Z" fill="#556193"/>
          </g>
          <g id="그룹_166974" data-name="그룹 166974">
            <path id="패스_87870" data-name="패스 87870" d="M156.12,503.607l-2.787-11.152a2.362,2.362,0,0,1,1.535-2.8l4.816-1.6.632,1.9-4.814,1.605a.352.352,0,0,0-.229.418l2.122,8.49,9.356-5.813,1.055,1.7Z" fill="#556193"/>
          </g>
          <g id="그룹_166975" data-name="그룹 166975">
            <path id="패스_87871" data-name="패스 87871" d="M177.194,490.323A5.89,5.89,0,0,1,176,486.314V485h2v1.314a3.872,3.872,0,0,0,.718,2.714Z" fill="#556193"/>
          </g>
          <g id="그룹_166976" data-name="그룹 166976">
            <path id="패스_87872" data-name="패스 87872" d="M199,523H154v-2h43v-8.519a20.127,20.127,0,0,0-10.688-17.918,20.879,20.879,0,0,0-1.969-.882l-1.718-.631.689-1.877,1.735.637a23.462,23.462,0,0,1,2.17.969A22.147,22.147,0,0,1,199,512.481Z" fill="#556193"/>
          </g>
          <g id="그룹_166977" data-name="그룹 166977">
            <path id="패스_87873" data-name="패스 87873" d="M180.88,503.607l-11.686-7.259,1.055-1.7,9.355,5.813,2.123-8.49a.352.352,0,0,0-.23-.418l-4.813-1.605.632-1.9,4.815,1.6a2.363,2.363,0,0,1,1.537,2.8Z" fill="#556193"/>
          </g>
          <g id="그룹_166978" data-name="그룹 166978">
            <path id="패스_87874" data-name="패스 87874" d="M163.318,522.31l-1.963-.387,3.656-18.558-3.061-4.083,1.6-1.2,3.6,4.794Z" fill="#556193"/>
          </g>
          <g id="그룹_166979" data-name="그룹 166979">
            <path id="패스_87875" data-name="패스 87875" d="M172.976,522.31l-3.828-19.433,3.6-4.794,1.6,1.2-3.062,4.083,3.656,18.558Z" fill="#556193"/>
          </g>
          <g id="그룹_166980" data-name="그룹 166980">
            <rect id="사각형_151496" data-name="사각형 151496" width="5" height="2" transform="translate(166 502)" fill="#556193"/>
          </g>
          <g id="그룹_166981" data-name="그룹 166981">
            <path id="패스_87876" data-name="패스 87876" d="M181.06,446.058a1.93,1.93,0,0,1-1.353-.549,16.148,16.148,0,0,0-22.538-.131,1.924,1.924,0,0,1-2.724-.048l-2.022-2.062a1.99,1.99,0,0,1,.05-2.828,22.843,22.843,0,0,1,31.961.162,1.987,1.987,0,0,1,.6,1.409,1.962,1.962,0,0,1-.565,1.4l-2.023,2.061A1.94,1.94,0,0,1,181.06,446.058Zm-12.691-7.2a18.154,18.154,0,0,1,12.69,5.173l1.982-2.019a20.871,20.871,0,0,0-29.183-.133l2.015,2.048A17.818,17.818,0,0,1,168.369,438.861Z" fill="#556193"/>
          </g>
          <g id="그룹_166982" data-name="그룹 166982">
            <path id="패스_87877" data-name="패스 87877" d="M185.629,475h-.258A3.376,3.376,0,0,1,182,471.629V459.371A3.376,3.376,0,0,1,185.371,456h.258A3.376,3.376,0,0,1,189,459.371v12.258A3.376,3.376,0,0,1,185.629,475Zm-.258-17A1.373,1.373,0,0,0,184,459.371v12.258A1.373,1.373,0,0,0,185.371,473h.258A1.373,1.373,0,0,0,187,471.629V459.371A1.373,1.373,0,0,0,185.629,458Z" fill="#556193"/>
          </g>
          <g id="그룹_166983" data-name="그룹 166983">
            <path id="패스_87878" data-name="패스 87878" d="M189.328,473H188v-2h1.328A3.676,3.676,0,0,0,193,467.328v-3.656A3.676,3.676,0,0,0,189.328,460H188v-2h1.328A5.678,5.678,0,0,1,195,463.672v3.656A5.678,5.678,0,0,1,189.328,473Z" fill="#556193"/>
          </g>
          <g id="그룹_166984" data-name="그룹 166984">
            <path id="패스_87879" data-name="패스 87879" d="M151.629,475h-.258A3.376,3.376,0,0,1,148,471.629V459.371A3.376,3.376,0,0,1,151.371,456h.258A3.376,3.376,0,0,1,155,459.371v12.258A3.376,3.376,0,0,1,151.629,475Zm-.258-17A1.373,1.373,0,0,0,150,459.371v12.258A1.373,1.373,0,0,0,151.371,473h.258A1.373,1.373,0,0,0,153,471.629V459.371A1.373,1.373,0,0,0,151.629,458Z" fill="#556193"/>
          </g>
          <g id="그룹_166985" data-name="그룹 166985">
            <path id="패스_87880" data-name="패스 87880" d="M150,473h-2.328A5.678,5.678,0,0,1,142,467.328v-3.656A5.678,5.678,0,0,1,147.672,458H150v2h-2.328A3.676,3.676,0,0,0,144,463.672v3.656A3.676,3.676,0,0,0,147.672,471H150Z" fill="#556193"/>
          </g>
          <g id="그룹_166986" data-name="그룹 166986">
            <path id="패스_87881" data-name="패스 87881" d="M189,459h-2v-2.5a18.456,18.456,0,0,0-4.753-12.379l1.486-1.34A20.456,20.456,0,0,1,189,456.5Z" fill="#556193"/>
          </g>
          <g id="그룹_166987" data-name="그룹 166987">
            <path id="패스_87882" data-name="패스 87882" d="M150,459h-2v-2.5a20.488,20.488,0,0,1,5.081-13.51l1.5,1.319A18.482,18.482,0,0,0,150,456.5Z" fill="#556193"/>
          </g>
          <g id="그룹_166988" data-name="그룹 166988">
            <path id="패스_87883" data-name="패스 87883" d="M181.279,485H178v-2h3.279A3.725,3.725,0,0,0,185,479.279V474h2v5.279A5.727,5.727,0,0,1,181.279,485Z" fill="#556193"/>
          </g>
          <g id="그룹_166989" data-name="그룹 166989">
            <path id="패스_87884" data-name="패스 87884" d="M175.5,487h-4a3.5,3.5,0,0,1,0-7h4a3.5,3.5,0,0,1,0,7Zm-4-5a1.5,1.5,0,0,0,0,3h4a1.5,1.5,0,0,0,0-3Z" fill="#556193"/>
          </g>
          <g id="그룹_166990" data-name="그룹 166990">
            <path id="패스_87885" data-name="패스 87885" d="M144.111,534.548,132.645,523H106V501h2v20h25.477l9.472,9.538,2.1-9.538H153V485H138v-2h17v40h-8.339Z" fill="#556193"/>
          </g>
          <g id="그룹_166991" data-name="그룹 166991">
            <rect id="사각형_151497" data-name="사각형 151497" width="25" height="2" transform="translate(118 501)" fill="#556193"/>
          </g>
          <g id="그룹_166992" data-name="그룹 166992">
            <rect id="사각형_151498" data-name="사각형 151498" width="17" height="2" transform="translate(126 507)" fill="#556193"/>
          </g>
          <g id="그룹_166993" data-name="그룹 166993">
            <path id="패스_87886" data-name="패스 87886" d="M100.889,508.548,98.339,497H90V457h49v40H112.354ZM92,495h7.946l2.105,9.538L111.522,495H137V459H92Z" fill="#556193"/>
          </g>
          <g id="그룹_166994" data-name="그룹 166994">
            <rect id="사각형_151499" data-name="사각형 151499" width="25" height="2" transform="translate(102 469)" fill="#556193"/>
          </g>
          <g id="그룹_166995" data-name="그룹 166995">
            <rect id="사각형_151500" data-name="사각형 151500" width="9" height="2" transform="translate(102 475)" fill="#556193"/>
          </g>
          <g id="그룹_166996" data-name="그룹 166996">
            <rect id="사각형_151501" data-name="사각형 151501" width="17" height="2" transform="translate(102 481)" fill="#556193"/>
          </g>
        </g>
      </g>
    </g>
  </g>
</svg>
