<svg xmlns="http://www.w3.org/2000/svg" width="140" height="140" viewBox="0 0 140 140">
  <g id="그룹_167015" data-name="그룹 167015" transform="translate(24679 16143)">
    <rect id="사각형_151506" data-name="사각형 151506" width="140" height="140" transform="translate(-24679 -16143)" fill="none"/>
    <g id="circle" transform="translate(-24756 -16212)">
      <circle id="타원_81" data-name="타원 81" cx="57.5" cy="57.5" r="57.5" transform="translate(90 82)" fill="#e9faff"/>
    </g>
    <g id="icons" transform="translate(-24757 -16212)">
      <g id="그룹_166937" data-name="그룹 166937">
        <g id="그룹_166925" data-name="그룹 166925">
          <path id="사각형_151476" data-name="사각형 151476" d="M6.532,0H21a0,0,0,0,1,0,0V30a0,0,0,0,1,0,0H6.532A6.532,6.532,0,0,1,0,23.468V6.532A6.532,6.532,0,0,1,6.532,0Z" transform="translate(87 121)" fill="#ffcba4"/>
          <path id="사각형_151477" data-name="사각형 151477" d="M6.532,0H18a0,0,0,0,1,0,0V27a0,0,0,0,1,0,0H4.995A4.995,4.995,0,0,1,0,22.005V6.532A6.532,6.532,0,0,1,6.532,0Z" transform="translate(87 121)" fill="#ffdcb4"/>
          <path id="패스_87791" data-name="패스 87791" d="M137.1,109.762C129.122,116.36,117.633,121,108,121v30c9.671,0,21.212,4.676,29.2,11.315Z" fill="#c5d9f9"/>
          <path id="패스_87792" data-name="패스 87792" d="M137.1,109.762c-7.708,6.373-18.683,10.9-28.1,11.209V147.9c9.287,0,20.3,4.348,28.19,10.6Z" fill="#d4e6ff"/>
          <rect id="사각형_151478" data-name="사각형 151478" width="6" height="56" rx="2.19" transform="translate(137 108)" fill="#ffcba4"/>
          <rect id="사각형_151479" data-name="사각형 151479" width="3" height="53" rx="1.205" transform="translate(137 108)" fill="#ffdcb4"/>
          <path id="패스_87793" data-name="패스 87793" d="M93,151l3.439,22.349a4.306,4.306,0,0,0,8.561-.655V151Z" fill="#ffcba4"/>
          <path id="패스_87794" data-name="패스 87794" d="M96.439,173.349a4.293,4.293,0,0,0,4.01,3.628A4.271,4.271,0,0,0,102,173.694V152H93.154Z" fill="#ffdcb4"/>
          <path id="패스_87795" data-name="패스 87795" d="M111.733,159.4,108,151h-3v7l4.686,3.124a1.394,1.394,0,0,0,2.047-1.725Z" fill="#c5d9f9"/>
          <path id="패스_87796" data-name="패스 87796" d="M111.733,159.4,108,151v9l1.686,1.124a1.394,1.394,0,0,0,2.047-1.725Z" fill="#d4e6ff"/>
          <path id="패스_87797" data-name="패스 87797" d="M143,124v24a13,13,0,0,0,0-24Z" fill="#c5d9f9"/>
          <path id="패스_87798" data-name="패스 87798" d="M146,125.765v20.47a12.976,12.976,0,0,0,0-20.47Z" fill="#d4e6ff"/>
          <path id="패스_87799" data-name="패스 87799" d="M182.121,96H150.879A2.879,2.879,0,0,0,148,98.879v20.242A2.879,2.879,0,0,0,150.879,122H153l2,7,8-7h19.121A2.879,2.879,0,0,0,185,119.121V98.879A2.879,2.879,0,0,0,182.121,96Z" fill="#f97594"/>
          <path id="패스_87800" data-name="패스 87800" d="M182.121,154H163l-8-7-2,7h-2.121A2.879,2.879,0,0,0,148,156.879v20.242A2.879,2.879,0,0,0,150.879,180h31.242A2.879,2.879,0,0,0,185,177.121V156.879A2.879,2.879,0,0,0,182.121,154Z" fill="#7bc3ff"/>
          <path id="패스_87801" data-name="패스 87801" d="M165.579,160A4.579,4.579,0,0,1,161,155.421V153l-6-6-2,7h-2.121A2.879,2.879,0,0,0,148,156.879V177h33.3a.7.7,0,0,0,.7-.7V160Z" fill="#89d3ff"/>
          <path id="패스_87802" data-name="패스 87802" d="M165.579,116H182V96H150.879A2.879,2.879,0,0,0,148,98.879V119h4l.857,3H153l1.114,3.9,6.964-6.093A4.57,4.57,0,0,1,165.579,116Z" fill="#ff859e"/>
          <path id="패스_87803" data-name="패스 87803" d="M206.121,119H165.879A2.879,2.879,0,0,0,163,121.879v9.757L155,138l8,5.636v10.485A2.879,2.879,0,0,0,165.879,157h40.242A2.879,2.879,0,0,0,209,154.121V121.879A2.879,2.879,0,0,0,206.121,119Z" fill="#e8f0fc"/>
          <path id="패스_87804" data-name="패스 87804" d="M165.879,119A2.879,2.879,0,0,0,163,121.879v9.757l-7.409,5.894L160,140.636v.887l3,2.113V154h42.7a.3.3,0,0,0,.3-.3V119Z" fill="#fff"/>
        </g>
        <g id="그룹_166936" data-name="그룹 166936">
          <g id="그룹_166926" data-name="그룹 166926">
            <path id="패스_87805" data-name="패스 87805" d="M109,152H93.531A7.54,7.54,0,0,1,86,144.469V127.531A7.54,7.54,0,0,1,93.531,120H109ZM93.531,122A5.537,5.537,0,0,0,88,127.531v16.938A5.537,5.537,0,0,0,93.531,150H107V122Z" fill="#556193"/>
          </g>
          <g id="그룹_166927" data-name="그룹 166927">
            <path id="패스_87806" data-name="패스 87806" d="M108,122v-2c9.2,0,20.377-4.321,28.467-11.009l1.273,1.541C129.314,117.5,117.641,122,108,122Z" fill="#556193"/>
          </g>
          <g id="그룹_166928" data-name="그룹 166928">
            <path id="패스_87807" data-name="패스 87807" d="M136.558,163.084C128.584,156.454,117.107,152,108,152v-2c9.689,0,21.4,4.532,29.837,11.547Z" fill="#556193"/>
          </g>
          <g id="그룹_166929" data-name="그룹 166929">
            <path id="패스_87808" data-name="패스 87808" d="M140.81,165h-1.621A3.193,3.193,0,0,1,136,161.81V110.19a3.193,3.193,0,0,1,3.189-3.19h1.621a3.194,3.194,0,0,1,3.19,3.19v51.62A3.194,3.194,0,0,1,140.81,165Zm-1.621-56A1.19,1.19,0,0,0,138,110.19v51.62a1.19,1.19,0,0,0,1.189,1.19h1.621a1.19,1.19,0,0,0,1.19-1.19V110.19a1.19,1.19,0,0,0-1.19-1.19Z" fill="#556193"/>
          </g>
          <g id="그룹_166930" data-name="그룹 166930">
            <path id="패스_87809" data-name="패스 87809" d="M100.694,178a5.279,5.279,0,0,1-5.244-4.5l-3.438-22.349,1.976-.3L97.427,173.2a3.306,3.306,0,0,0,6.573-.5V151h2v21.694A5.312,5.312,0,0,1,100.694,178Z" fill="#556193"/>
          </g>
          <g id="그룹_166931" data-name="그룹 166931">
            <path id="패스_87810" data-name="패스 87810" d="M110.46,162.358a2.389,2.389,0,0,1-1.328-.4l-4.687-3.124,1.11-1.664,4.686,3.124a.4.4,0,0,0,.319.053.393.393,0,0,0,.259-.539l-3.733-8.4,1.828-.812,3.733,8.4a2.393,2.393,0,0,1-2.187,3.365Z" fill="#556193"/>
          </g>
          <g id="그룹_166932" data-name="그룹 166932">
            <path id="패스_87811" data-name="패스 87811" d="M143.385,148.923l-.77-1.846a12,12,0,0,0,0-22.154l.77-1.846a14,14,0,0,1,0,25.846Z" fill="#556193"/>
          </g>
          <g id="그룹_166933" data-name="그룹 166933">
            <path id="패스_87812" data-name="패스 87812" d="M154.472,130.791,152.246,123h-1.367A3.883,3.883,0,0,1,147,119.121V98.879A3.883,3.883,0,0,1,150.879,95h31.242A3.883,3.883,0,0,1,186,98.879V119h-2V98.879A1.881,1.881,0,0,0,182.121,97H150.879A1.881,1.881,0,0,0,149,98.879v20.242A1.881,1.881,0,0,0,150.879,121h2.875l1.774,6.209,6.814-5.962,1.316,1.506Z" fill="#556193"/>
          </g>
          <g id="그룹_166934" data-name="그룹 166934">
            <path id="패스_87813" data-name="패스 87813" d="M206.121,158H165.879A3.883,3.883,0,0,1,162,154.121v-9.966l-8.667-6.106L162,131.154v-9.275A3.883,3.883,0,0,1,165.879,118h40.242A3.883,3.883,0,0,1,210,121.879v32.242A3.883,3.883,0,0,1,206.121,158Zm-49.454-20.049L164,143.118v11A1.881,1.881,0,0,0,165.879,156h40.242A1.881,1.881,0,0,0,208,154.121V121.879A1.881,1.881,0,0,0,206.121,120H165.879A1.881,1.881,0,0,0,164,121.879v10.24Z" fill="#556193"/>
          </g>
          <g id="그룹_166935" data-name="그룹 166935">
            <path id="패스_87814" data-name="패스 87814" d="M182.121,181H150.879A3.883,3.883,0,0,1,147,177.121V156.879A3.883,3.883,0,0,1,150.879,153h1.367l2.226-7.791,9.186,8.038-1.316,1.506-6.814-5.962L153.754,155h-2.875A1.881,1.881,0,0,0,149,156.879v20.242A1.881,1.881,0,0,0,150.879,179h31.242A1.881,1.881,0,0,0,184,177.121V157h2v20.121A3.883,3.883,0,0,1,182.121,181Z" fill="#556193"/>
          </g>
        </g>
      </g>
    </g>
  </g>
</svg>
