<svg xmlns="http://www.w3.org/2000/svg" width="140" height="140" viewBox="0 0 140 140">
  <g id="그룹_167013" data-name="그룹 167013" transform="translate(24349 16143)">
    <rect id="사각형_151508" data-name="사각형 151508" width="140" height="140" transform="translate(-24349 -16143)" fill="none"/>
    <g id="circle" transform="translate(-24426 -16560)">
      <circle id="타원_82" data-name="타원 82" cx="57.5" cy="57.5" r="57.5" transform="translate(90 430)" fill="#e9faff"/>
    </g>
    <g id="icons" transform="translate(-24426 -16560)">
      <g id="그룹_166957" data-name="그룹 166957">
        <g id="그룹_166939" data-name="그룹 166939">
          <path id="패스_87815" data-name="패스 87815" d="M175,514H119.789A7.789,7.789,0,0,1,112,506.21V443h58v63.106a8.643,8.643,0,0,0,4.2,7.412Z" fill="#e8f0fc"/>
          <path id="패스_87816" data-name="패스 87816" d="M167.935,511a8.578,8.578,0,0,1-.935-3.894V444H112v62.21a7.751,7.751,0,0,0,1.655,4.79Z" fill="#fff"/>
          <path id="패스_87817" data-name="패스 87817" d="M180,457v-5h-5v-5h-5v59.5a7.5,7.5,0,0,0,15,0V457Z" fill="#d4e6ff"/>
          <path id="패스_87818" data-name="패스 87818" d="M177.5,509a2.5,2.5,0,0,1-2.5-2.5V452h5v54.5A2.5,2.5,0,0,1,177.5,509Z" fill="#c5d9f9"/>
          <path id="패스_87819" data-name="패스 87819" d="M186,524H113a5,5,0,0,1,0-10h73Z" fill="#c0caf9"/>
          <path id="패스_87820" data-name="패스 87820" d="M108,534h73a5,5,0,0,0,0-10H108Z" fill="#c5e3ff"/>
        </g>
        <g id="그룹_166956" data-name="그룹 166956">
          <g id="그룹_166940" data-name="그룹 166940">
            <path id="패스_87821" data-name="패스 87821" d="M177.5,515a8.51,8.51,0,0,1-8.5-8.5V444H113v62.5a6.507,6.507,0,0,0,6.5,6.5v2a8.51,8.51,0,0,1-8.5-8.5V442h60v64.5a6.5,6.5,0,0,0,13,0V458h-4v-2h6v50.5A8.511,8.511,0,0,1,177.5,515Z" fill="#556193"/>
          </g>
          <g id="그룹_166941" data-name="그룹 166941">
            <path id="패스_87822" data-name="패스 87822" d="M177.5,510a3.5,3.5,0,0,1-3.5-3.5V448h-4v-2h6v5h5v55.5A3.5,3.5,0,0,1,177.5,510ZM176,453v53.5a1.5,1.5,0,0,0,3,0V453Z" fill="#556193"/>
          </g>
          <g id="그룹_166942" data-name="그룹 166942">
            <path id="패스_87823" data-name="패스 87823" d="M187,525H113a6,6,0,0,1,0-12h74Zm-74-10a4,4,0,0,0,0,8h72v-8Z" fill="#556193"/>
          </g>
          <g id="그룹_166943" data-name="그룹 166943">
            <rect id="사각형_151480" data-name="사각형 151480" width="74" height="2" transform="translate(112 518)" fill="#556193"/>
          </g>
          <g id="그룹_166944" data-name="그룹 166944">
            <path id="패스_87824" data-name="패스 87824" d="M181,535H107V523h6v2h-4v8h72a4,4,0,0,0,0-8v-2a6,6,0,0,1,0,12Z" fill="#556193"/>
          </g>
          <g id="그룹_166945" data-name="그룹 166945">
            <rect id="사각형_151481" data-name="사각형 151481" width="74" height="2" transform="translate(108 528)" fill="#556193"/>
          </g>
          <g id="그룹_166946" data-name="그룹 166946">
            <path id="패스_87825" data-name="패스 87825" d="M139,472H119V451h20Zm-18-2h16V453H121Z" fill="#c7dbf9"/>
          </g>
          <g id="그룹_166947" data-name="그룹 166947">
            <rect id="사각형_151482" data-name="사각형 151482" width="18" height="2" transform="translate(145 451)" fill="#c7dbf9"/>
          </g>
          <g id="그룹_166948" data-name="그룹 166948">
            <rect id="사각형_151483" data-name="사각형 151483" width="18" height="2" transform="translate(145 458)" fill="#c7dbf9"/>
          </g>
          <g id="그룹_166949" data-name="그룹 166949">
            <path id="패스_87826" data-name="패스 87826" d="M161,467h-3.2v-2H161Zm-6.4,0h-3.2v-2h3.2Zm-6.4,0H145v-2h3.2Z" fill="#c5d9f9"/>
          </g>
          <g id="그룹_166950" data-name="그룹 166950">
            <rect id="사각형_151484" data-name="사각형 151484" width="44" height="2" transform="translate(119 477)" fill="#c7dbf9"/>
          </g>
          <g id="그룹_166951" data-name="그룹 166951">
            <rect id="사각형_151485" data-name="사각형 151485" width="28" height="2" transform="translate(119 484)" fill="#c7dbf9"/>
          </g>
          <g id="그룹_166952" data-name="그룹 166952">
            <rect id="사각형_151486" data-name="사각형 151486" width="8" height="2" transform="translate(155 484)" fill="#c7dbf9"/>
          </g>
          <g id="그룹_166953" data-name="그룹 166953">
            <rect id="사각형_151487" data-name="사각형 151487" width="44" height="2" transform="translate(119 491)" fill="#c7dbf9"/>
          </g>
          <g id="그룹_166954" data-name="그룹 166954">
            <path id="패스_87827" data-name="패스 87827" d="M163,500h-3.2v-2H163Zm-6.4,0h-3.2v-2h3.2Zm-6.4,0H147v-2h3.2Zm-6.4,0h-3.2v-2h3.2Zm-6.4,0h-3.2v-2h3.2Zm-6.4,0h-3.2v-2H131Zm-6.4,0h-3.2v-2h3.2Z" fill="#c5d9f9"/>
          </g>
          <g id="그룹_166955" data-name="그룹 166955">
            <rect id="사각형_151488" data-name="사각형 151488" width="14" height="2" transform="translate(119 505)" fill="#c7dbf9"/>
          </g>
        </g>
      </g>
    </g>
  </g>
</svg>
