<svg xmlns="http://www.w3.org/2000/svg" width="140" height="140" viewBox="0 0 140 140">
  <g id="그룹_167014" data-name="그룹 167014" transform="translate(24514 16143)">
    <rect id="사각형_151507" data-name="사각형 151507" width="140" height="140" transform="translate(-24514 -16143)" fill="none"/>
    <g id="circle" transform="translate(-24591 -16734)">
      <circle id="타원_85" data-name="타원 85" cx="57.5" cy="57.5" r="57.5" transform="translate(90 604)" fill="#e9faff"/>
    </g>
    <g id="icons" transform="translate(-24591 -16734)">
      <g id="그룹_167010" data-name="그룹 167010">
        <g id="그룹_167000" data-name="그룹 167000">
          <circle id="타원_86" data-name="타원 86" cx="36.5" cy="36.5" r="36.5" transform="translate(111 625)" fill="#89d3ff"/>
          <path id="패스_87887" data-name="패스 87887" d="M175.376,695.014,190.284,713.7A7.538,7.538,0,1,0,200.878,703.1L182.2,688.2Z" fill="#ffcba4"/>
          <path id="패스_87888" data-name="패스 87888" d="M175.376,695.014l13.733,17.211a7.529,7.529,0,0,0,10.3-10.3L182.2,688.2Z" fill="#ffdcb4"/>
          <rect id="사각형_151502" data-name="사각형 151502" width="7.195" height="7.878" transform="translate(171.062 689.088) rotate(-45.001)" fill="#fff"/>
          <circle id="타원_87" data-name="타원 87" cx="28.5" cy="28.5" r="28.5" transform="translate(119 633)" fill="#e8f0fc"/>
          <circle id="타원_88" data-name="타원 88" cx="26.5" cy="26.5" r="26.5" transform="translate(119 634)" fill="#fff"/>
          <path id="패스_87889" data-name="패스 87889" d="M160.9,653.045a6.844,6.844,0,0,0-9.679,0l-3.659,3.659-3.659-3.659a6.843,6.843,0,0,0-9.678,9.678l13.337,12.933L160.9,662.723A6.844,6.844,0,0,0,160.9,653.045Z" fill="#ff859e"/>
        </g>
        <g id="그룹_167009" data-name="그룹 167009">
          <g id="그룹_167001" data-name="그룹 167001">
            <path id="패스_87890" data-name="패스 87890" d="M147.5,698.982a37.482,37.482,0,1,1,26.517-10.965A37.387,37.387,0,0,1,147.5,698.982Zm0-72.965a35.483,35.483,0,1,0,25.1,10.38A35.393,35.393,0,0,0,147.5,626.017Z" fill="#556193"/>
          </g>
          <g id="그룹_167002" data-name="그룹 167002">
            <path id="패스_87891" data-name="패스 87891" d="M147.5,690.986a29.486,29.486,0,1,1,20.859-8.627A29.406,29.406,0,0,1,147.5,690.986Zm0-56.973a27.487,27.487,0,1,0,19.445,8.042A27.41,27.41,0,0,0,147.5,634.013Z" fill="#556193"/>
          </g>
          <g id="그룹_167003" data-name="그룹 167003">
            <path id="패스_87892" data-name="패스 87892" d="M196.128,717.533c-.158,0-.317-.005-.476-.013a8.548,8.548,0,0,1-6.2-3.2L173.99,694.94l8.083-8.084,19.382,15.465a8.539,8.539,0,0,1-5.327,15.212Zm-19.46-22.443,14.35,17.982a6.538,6.538,0,1,0,9.189-9.188l-17.983-14.35Z" fill="#556193"/>
          </g>
          <g id="그룹_167004" data-name="그룹 167004">
            <rect id="사각형_151503" data-name="사각형 151503" width="11.652" height="2" transform="translate(178 699.104) rotate(-45)" fill="#556193"/>
          </g>
          <g id="그룹_167005" data-name="그룹 167005">
            <rect id="사각형_151504" data-name="사각형 151504" width="2" height="7.733" transform="translate(170.405 689.897) rotate(-45)" fill="#556193"/>
          </g>
          <g id="그룹_167006" data-name="그룹 167006">
            <rect id="사각형_151505" data-name="사각형 151505" width="2" height="7.732" transform="translate(175.492 684.811) rotate(-45.005)" fill="#556193"/>
          </g>
          <g id="그룹_167007" data-name="그룹 167007">
            <path id="패스_87893" data-name="패스 87893" d="M147.561,677.049l-14.032-13.608a7.843,7.843,0,1,1,11.081-11.1l2.951,2.952,2.954-2.952a7.843,7.843,0,1,1,11.091,11.093Zm-8.5-25.009a5.845,5.845,0,0,0-4.131,9.977l12.628,12.247L160.2,662.006a5.844,5.844,0,0,0-8.274-8.254l-4.368,4.366-4.365-4.366A5.8,5.8,0,0,0,139.064,652.04Z" fill="#556193"/>
          </g>
          <g id="그룹_167008" data-name="그룹 167008">
            <path id="패스_87894" data-name="패스 87894" d="M148.008,708l-.02-2c1.043-.011,2.094-.057,3.125-.142l.16,1.995C150.2,707.936,149.1,707.986,148.008,708Zm-3.269-.081c-1.084-.064-2.179-.168-3.255-.309l.258-1.982c1.03.134,2.078.232,3.116.295Zm9.781-.443-.3-1.977c1.027-.156,2.062-.351,3.075-.579l.439,1.951C156.676,707.106,155.6,707.31,154.52,707.473Zm-16.26-.4c-1.07-.217-2.14-.471-3.18-.758l.533-1.928c.994.274,2.019.518,3.043.725Zm22.636-1.034-.574-1.916c.991-.3,1.988-.635,2.963-1.005l.709,1.871C162.975,705.375,161.933,705.728,160.9,706.039Zm-28.933-.705c-1.023-.36-2.046-.764-3.042-1.2l.8-1.834c.952.415,1.931.8,2.909,1.146Zm35.047-1.611-.84-1.815c.941-.435,1.881-.911,2.793-1.413l.965,1.752C168.975,702.772,167.993,703.269,167.01,703.723Zm-41.037-.995c-.966-.5-1.921-1.047-2.841-1.614l1.049-1.7c.879.542,1.794,1.062,2.717,1.544ZM120.41,699.3c-.883-.635-1.752-1.307-2.584-2l1.277-1.539c.8.662,1.629,1.3,2.475,1.912Zm-5.023-4.171q-.389-.372-.768-.751-.779-.78-1.515-1.586l1.479-1.348q.7.774,1.45,1.52.365.365.736.719Zm-4.4-4.831c-.675-.852-1.326-1.74-1.937-2.636l1.652-1.127c.585.859,1.208,1.707,1.854,2.522Zm-3.684-5.4c-.546-.936-1.067-1.907-1.546-2.882l1.795-.883c.459.934.956,1.862,1.479,2.758Zm81.454-1.92-1.774-.924c.482-.924.934-1.873,1.347-2.825l1.834.8C189.733,681.02,189.26,682.013,188.757,682.978Zm-84.339-3.948c-.407-1-.785-2.037-1.122-3.071l1.9-.621c.323.99.685,1.979,1.075,2.94Zm86.94-2.049-1.886-.662c.344-.98.658-1.985.934-2.988l1.928.53C192.047,674.908,191.718,675.958,191.358,676.981Zm-88.967-4.166c-.262-1.047-.492-2.124-.681-3.2l1.969-.347c.182,1.028.4,2.058.651,3.061Zm90.7-2.133-1.961-.393c.2-1.019.375-2.059.507-3.088l1.984.254C193.48,668.531,193.3,669.616,193.089,670.682Zm-91.833-4.3c-.113-1.08-.191-2.177-.228-3.262l2-.07c.036,1.039.11,2.09.218,3.123Zm92.666-2.181-2-.115c.049-.857.074-1.728.074-2.585l0-.546,2-.021,0,.562C194,662.4,193.974,663.3,193.922,664.2Zm-90.895-4.279-2-.072c.038-1.079.115-2.176.23-3.26l1.988.209C103.139,657.836,103.064,658.887,103.027,659.921Zm88.822-2.091c-.084-1.03-.207-2.075-.366-3.107l1.977-.3c.166,1.078.294,2.171.383,3.248Zm-88.164-4.13-1.969-.347c.187-1.064.417-2.139.681-3.2l1.94.485C104.085,651.653,103.865,652.683,103.685,653.7Zm87.216-2.053c-.228-1.014-.5-2.032-.8-3.026l1.914-.578c.314,1.04.594,2.1.833,3.164Zm-85.7-4.01-1.9-.621c.336-1.032.715-2.064,1.125-3.07l1.851.756C105.889,645.663,105.526,646.65,105.2,647.637Zm83.894-1.978c-.37-.97-.778-1.94-1.215-2.884l1.814-.841c.457.986.885,2,1.27,3.014Zm-81.537-3.812-1.794-.883c.481-.977,1-1.945,1.546-2.879l1.727,1.008C108.519,639.986,108.021,640.913,107.561,641.847Zm78.906-1.865c-.5-.906-1.043-1.809-1.611-2.682l1.678-1.09c.593.913,1.159,1.857,1.683,2.806Zm-75.756-3.532-1.652-1.129c.615-.9,1.266-1.785,1.935-2.631l1.568,1.241C111.922,634.74,111.3,635.588,110.711,636.45Zm72.349-1.715c-.628-.831-1.291-1.648-1.973-2.43l1.508-1.315c.712.818,1.4,1.672,2.06,2.54Zm-68.471-3.19L113.11,630.2q.733-.8,1.51-1.581.384-.384.774-.757l1.381,1.448q-.374.355-.742.724Q115.289,630.776,114.589,631.545Zm64.36-1.527c-.741-.742-1.511-1.459-2.289-2.135l1.313-1.51c.812.706,1.616,1.456,2.39,2.229Zm-59.835-2.793-1.277-1.54c.838-.7,1.709-1.369,2.589-2l1.166,1.625C120.75,625.914,119.917,626.558,119.114,627.225Zm55.115-1.31c-.827-.623-1.688-1.225-2.562-1.792l1.088-1.678c.913.591,1.813,1.221,2.678,1.872ZM124.2,623.576l-1.047-1.7c.919-.565,1.876-1.109,2.844-1.614l.926,1.771C125.993,622.515,125.077,623.035,124.2,623.576Zm44.79-1.059c-.911-.5-1.849-.978-2.79-1.414l.84-1.814c.983.455,1.964.951,2.915,1.476Zm-39.243-1.834-.8-1.834c1-.436,2.026-.838,3.045-1.2l.664,1.887C131.681,619.881,130.7,620.267,129.743,620.683Zm33.57-.789c-.974-.37-1.971-.709-2.962-1.006l.576-1.916c1.036.312,2.077.666,3.1,1.05Zm-27.67-1.294-.532-1.928c1.047-.289,2.117-.544,3.182-.758l.394,1.961C137.669,618.079,136.644,618.323,135.643,618.6Zm21.682-.507c-1-.227-2.037-.422-3.074-.581l.3-1.977c1.083.166,2.164.37,3.213.607Zm-15.552-.725-.255-1.984c1.081-.14,2.175-.241,3.255-.3l.116,2C143.856,617.136,142.808,617.234,141.773,617.368Zm9.373-.22c-1.042-.083-2.093-.132-3.127-.145l.023-2c1.08.013,2.178.063,3.265.151Z" fill="#556193"/>
          </g>
        </g>
      </g>
    </g>
  </g>
</svg>
