<svg xmlns="http://www.w3.org/2000/svg" width="140" height="140" viewBox="0 0 140 140">
  <g id="그룹_167011" data-name="그룹 167011" transform="translate(24020 16143)">
    <rect id="사각형_151509" data-name="사각형 151509" width="140" height="140" transform="translate(-24020 -16143)" fill="none"/>
    <g id="circle" transform="translate(-24266 -16386)">
      <circle id="타원_83" data-name="타원 83" cx="57.5" cy="57.5" r="57.5" transform="translate(259 256)" fill="#e9faff"/>
    </g>
    <g id="icons" transform="translate(-24266 -16386)">
      <g id="그룹_166968" data-name="그룹 166968">
        <g id="그룹_166959" data-name="그룹 166959">
          <rect id="사각형_151489" data-name="사각형 151489" width="5.029" height="23.01" transform="translate(277.402 326.134) rotate(-2.959)" fill="#e8f0fc"/>
          <path id="패스_87828" data-name="패스 87828" d="M273.062,351.152l5.654-.292-1.343-25.983-17.05.882A57.306,57.306,0,0,0,273.062,351.152Z" fill="#7bc3ff"/>
          <path id="패스_87829" data-name="패스 87829" d="M270.441,347.926l8.1-.419-1.17-22.63-17.05.882A57.243,57.243,0,0,0,270.441,347.926Z" fill="#89d3ff"/>
          <rect id="사각형_151490" data-name="사각형 151490" width="5.029" height="19.974" transform="matrix(0.999, -0.052, 0.052, 0.999, 277.402, 326.134)" fill="#fff"/>
          <path id="패스_87830" data-name="패스 87830" d="M282.808,327.528a16.442,16.442,0,0,0,3.38-.738c6.044-1.9,10.3-2.177,14.3-.914,6.092,1.921,9.263,6.784,12.133,9.252a46.264,46.264,0,0,0,7.835,4.927,3.743,3.743,0,0,1-3.986,6.337l-.39-.236c7.018,5.651,17.159-1.335,25.2,4.629,1.2.887,1.972,2.434.954,3.771-1,1.316-5.9,1.318-10.488,1.89-6.715.837-15.184,2.69-16.36,2.768-1.993.133-4.779-.645-12.023-4.859-6.83-3.973-9.737-5.8-12.772-6.881a23.843,23.843,0,0,0-6.964-1.245Z" fill="#ffe5e1"/>
          <path id="패스_87831" data-name="패스 87831" d="M320.325,346.062a3.384,3.384,0,0,1-4.143.137l-12.531-7.961a1.468,1.468,0,0,1-.571-2.085,1.524,1.524,0,0,1,2.019-.163l15.323,9.976Z" fill="#ffd9d2"/>
          <path id="패스_87832" data-name="패스 87832" d="M342.271,352.8c-1.479,1.014-6.256.871-10.76,1.233-7.062.568-15.969,2.082-17.2,2.113-2.1.054-4.9-1.416-12.514-5.916-7.174-4.242-8.94-5-11.916-5.914a27.723,27.723,0,0,0-6.433-.966l-.217,3a10.775,10.775,0,0,1,4.99.386c3.189,1.2,6.394,2.671,13.568,6.913,7.609,4.5,10.386,5.859,12.482,5.806,1.235-.031,10.094-2.268,17.156-2.836,4.829-.388,10.933-1.278,10.933-1.278S343.028,353.706,342.271,352.8Z" fill="#ffd9d2"/>
          <rect id="사각형_151491" data-name="사각형 151491" width="1.852" height="18.966" transform="translate(283.066 327.255) rotate(-2.212)" fill="#ffd9d2"/>
          <path id="패스_87833" data-name="패스 87833" d="M319.964,282.133c-24.888-21.418-45.446,10.675-26.666,27.06C299.413,314.528,320.017,332,320.017,332s20.586-17.472,26.7-22.807C365.5,292.808,344.853,260.715,319.964,282.133Z" fill="#f97594"/>
          <path id="패스_87834" data-name="패스 87834" d="M346.328,287.352c-1.782-4.715-6.2-9.753-13.238-9.753-4.594,0-9.61,2.253-14.507,6.517l-2.484,2.161-2.484-2.161c-4.9-4.264-9.91-6.517-14.5-6.517a13.286,13.286,0,0,0-4.755.854c-8.436,5.976-11.147,19.729-2.119,29.244,5.733,5.018,18.52,16.007,23.9,20.634,5.786-4.971,20.115-17.3,25.057-21.659A17.227,17.227,0,0,0,346.328,287.352Z" fill="#ff859e"/>
        </g>
        <g id="그룹_166967" data-name="그룹 166967">
          <g id="그룹_166960" data-name="그룹 166960">
            <path id="패스_87835" data-name="패스 87835" d="M314.605,360.313c-2.222,0-5.252-1-12.379-5.246-6.883-4.1-9.868-5.743-12.909-6.774a21.925,21.925,0,0,0-6-.831l.037-2a23.358,23.358,0,0,1,6.607.936c3.211,1.09,6.273,2.769,13.289,6.951,7.568,4.509,10.07,5.043,11.682,4.954.379-.023,1.938-.306,3.743-.634,3.415-.621,8.576-1.56,12.975-2.074,1.254-.147,2.531-.252,3.748-.353,2.464-.2,5.838-.482,6.334-1.123a1.226,1.226,0,0,0,.278-.948,2.487,2.487,0,0,0-1.026-1.527c-3.85-2.922-8.4-2.653-12.807-2.392-4.5.264-9.16.542-12.969-2.6l1.271-1.543c3.2,2.638,7.272,2.4,11.58,2.143,4.765-.284,9.694-.574,14.134,2.795a4.437,4.437,0,0,1,1.8,2.858,3.217,3.217,0,0,1-.678,2.434c-.987,1.276-3.461,1.539-7.752,1.893-1.2.1-2.448.2-3.679.346-4.337.508-9.46,1.439-12.851,2.056-2.351.427-3.5.633-3.982.662C314.9,360.308,314.756,360.313,314.605,360.313Z" fill="#556193"/>
          </g>
          <g id="그룹_166961" data-name="그룹 166961">
            <path id="패스_87836" data-name="패스 87836" d="M318.256,347.707a4.824,4.824,0,0,1-2.543-.727L302.019,338.5l1.053-1.7,13.694,8.475a2.848,2.848,0,0,0,3.116-4.767,47.052,47.052,0,0,1-8.116-5.241c-.735-.646-1.429-1.364-2.164-2.125-2.2-2.27-4.684-4.844-9.158-6.3a17.45,17.45,0,0,0-11.339.265c-.37.115-.7.216-.981.291a37.007,37.007,0,0,1-5.44,1.032l-.194-1.991a35.024,35.024,0,0,0,5.118-.972c.262-.071.565-.164.907-.27a19.5,19.5,0,0,1,12.548-.258c4.947,1.613,7.736,4.5,9.976,6.814.707.731,1.374,1.421,2.048,2.014a46.441,46.441,0,0,0,7.757,4.987l.1.058a4.848,4.848,0,0,1-1.548,8.758A4.9,4.9,0,0,1,318.256,347.707Z" fill="#556193"/>
          </g>
          <g id="그룹_166962" data-name="그룹 166962">
            <path id="패스_87837" data-name="패스 87837" d="M278.771,350.071l-.1-2,3.72-.183-1.013-20.6-3.72.184-.1-2,5.718-.281,1.208,24.6Z" fill="#556193"/>
          </g>
          <g id="그룹_166963" data-name="그룹 166963">
            <path id="패스_87838" data-name="패스 87838" d="M273.161,352.265l-.1-2,4.507-.222-1.2-24.43-15.939.783-.1-2,17.937-.881,1.4,28.426Z" fill="#556193"/>
          </g>
          <g id="그룹_166964" data-name="그룹 166964">
            <path id="패스_87839" data-name="패스 87839" d="M319.717,333.622l-.652-.558c-.205-.176-20.641-17.707-26.681-23.036-10.2-9-9.292-22.382-2.517-30.114,5.687-6.489,16.849-10.1,29.8.731,12.966-10.847,24.154-7.216,29.858-.707,6.776,7.732,7.7,21.1-2.491,30.09-6.039,5.329-26.458,22.859-26.663,23.036Zm-16.41-57.834a15.775,15.775,0,0,0-11.935,5.444c-6.131,6.995-6.933,19.119,2.336,27.3,5.417,4.781,22.456,19.411,26.009,22.458,3.549-3.047,20.574-17.676,25.99-22.458,9.253-8.164,8.441-20.277,2.312-27.272-5.2-5.929-15.566-9.1-27.7,1.458l-.656.572-.656-.572C313.253,277.706,307.9,275.788,303.307,275.788Z" fill="#556193"/>
          </g>
          <g id="그룹_166965" data-name="그룹 166965">
            <path id="패스_87840" data-name="패스 87840" d="M306.789,281.486a12.85,12.85,0,0,0-3.408-.486v-2a14.815,14.815,0,0,1,3.941.559Z" fill="#fff"/>
          </g>
          <g id="그룹_166966" data-name="그룹 166966">
            <path id="패스_87841" data-name="패스 87841" d="M292.96,288.782l-1.871-.707a13.892,13.892,0,0,1,8.671-8.551l.578,1.915A11.881,11.881,0,0,0,292.96,288.782Z" fill="#fff"/>
          </g>
        </g>
      </g>
    </g>
  </g>
</svg>
