<svg xmlns="http://www.w3.org/2000/svg" xmlns:xlink="http://www.w3.org/1999/xlink" width="760" height="140" viewBox="0 0 760 140">
  <defs>
    <clipPath id="clip-path">
      <rect id="사각형_151385" data-name="사각형 151385" width="760" height="140" transform="translate(636 1580)" fill="#192164"/>
    </clipPath>
  </defs>
  <g id="마스크_그룹_1" data-name="마스크 그룹 1" transform="translate(-636 -1580)" clip-path="url(#clip-path)">
    <g id="그룹_166875" data-name="그룹 166875" transform="translate(-5.129 20)">
      <path id="패스_86561" data-name="패스 86561" d="M2.34-13.02h5.1L5.76,0h5.82L13.2-13.02h6.66L18.24,0h5.88l1.56-13.02h6.24v-5.7H26.34l1.02-8.22H33.3V-32.7H28.08l1.38-11.52h-5.7L22.26-32.7H15.54l1.44-11.52H11.34L9.84-32.7H3.72v5.76h5.4L8.1-18.72H2.34Zm19.2-13.92-1.02,8.22H13.8l1.02-8.22ZM87.96-18.3v-6.24H66.9v-5.52H82.38v-6.3H52.14V-49.14H44.22v19.08H58.98v5.52h-21v6.24Zm-25.2,2.94a42.274,42.274,0,0,0-8.04.69,22,22,0,0,0-6,1.98,10.225,10.225,0,0,0-3.78,3.21A7.546,7.546,0,0,0,43.62-5.1,7.546,7.546,0,0,0,44.94-.72a10.476,10.476,0,0,0,3.78,3.24,21.316,21.316,0,0,0,6,2.01,42.274,42.274,0,0,0,8.04.69,42.275,42.275,0,0,0,8.04-.69,21.759,21.759,0,0,0,6.03-2.01A10.42,10.42,0,0,0,80.64-.72,7.546,7.546,0,0,0,81.96-5.1a7.546,7.546,0,0,0-1.32-4.38,10.174,10.174,0,0,0-3.81-3.21,22.459,22.459,0,0,0-6.03-1.98A42.274,42.274,0,0,0,62.76-15.36Zm0,14.46Q51.6-.9,51.6-5.1q0-2.22,2.76-3.21a26.553,26.553,0,0,1,8.4-.99,26.553,26.553,0,0,1,8.4.99q2.76.99,2.76,3.21Q73.92-.9,62.76-.9ZM95.22-29.64l2.52,6.06a39.057,39.057,0,0,0,12.84-2.91,18.812,18.812,0,0,0,7.5-5.73,18.291,18.291,0,0,0,7.47,5.73,39.378,39.378,0,0,0,12.87,2.91l2.46-6.06a41.04,41.04,0,0,1-7.71-1.17,25.289,25.289,0,0,1-5.49-2.07,11.392,11.392,0,0,1-3.45-2.7,7.568,7.568,0,0,1-1.59-3H138.3V-44.7H121.98v-5.22h-7.92v5.22H97.92v6.12h15.54a7.41,7.41,0,0,1-1.62,3,11.8,11.8,0,0,1-3.48,2.7,25.289,25.289,0,0,1-5.49,2.07A40.868,40.868,0,0,1,95.22-29.64ZM143.04-14.1v-6.24H121.98v-6h-7.92v6H93.12v6.24Zm-5.58,12H107.1v-8.88H99.18V4.2h38.28ZM194.1,5.34V-50.1h-7.92V5.34Zm-34.56-19.8v-24.3h18.78v-6.42h-26.7V-7.86h4.86q4.44,0,8.04-.06t6.72-.24q3.12-.18,5.91-.51t5.61-.87l-.72-6.54q-2.52.48-4.98.78t-5.16.48q-2.7.18-5.73.27T159.54-14.46ZM249.3,5.16V-50.1h-7.92V5.16ZM224.88-35.22v-3.06h11.4v-6.54H205.32v6.54h11.52v3.06a30.954,30.954,0,0,1-.84,7.11,26.959,26.959,0,0,1-2.55,6.72,24.808,24.808,0,0,1-4.29,5.73,20.117,20.117,0,0,1-6.06,4.14l4.5,6.3a21.711,21.711,0,0,0,8.19-6.48,32.828,32.828,0,0,0,5.19-9.72,28.552,28.552,0,0,0,5.13,8.91,22.076,22.076,0,0,0,8.13,5.91l4.32-6.24a19.674,19.674,0,0,1-6.03-3.84,23.069,23.069,0,0,1-4.26-5.4,24.964,24.964,0,0,1-2.55-6.39A27.978,27.978,0,0,1,224.88-35.22Zm63.36,3.06H297v11.28h7.92V-50.1H297v11.7h-8.76Zm.96,9.12-.6-6.18q-2.34.36-4.56.57t-4.56.33q-2.34.12-4.89.15t-5.49.03v-3.6h15.96V-37.5H269.1v-3.42h17.64v-6.12h-25.5v25.08h4.32q3.84,0,6.99-.03t5.94-.15q2.79-.12,5.4-.33T289.2-23.04ZM306.48,4.74V-1.2H276.36V-4.32h28.56V-18.84H268.44v5.94h28.62v3h-28.5V4.74Zm57.36-20.16V-21.6H342.78v-3.42h15.78v-6h-30.6v-3h28.92v-5.76H327.96v-2.88h30.18v-6H320.1v23.64h14.76v3.42h-21v6.18Zm-25.08,2.46q-9.48,0-14.31,2.28T319.62-3.9q0,4.5,4.83,6.78t14.31,2.28q9.54,0,14.37-2.28t4.83-6.78q0-4.5-4.83-6.78T338.76-12.96Zm0,12.36a33.168,33.168,0,0,1-8.49-.78q-2.67-.78-2.67-2.52t2.67-2.49a34.446,34.446,0,0,1,8.49-.75,34.837,34.837,0,0,1,8.52.75q2.7.75,2.7,2.49t-2.7,2.52A33.545,33.545,0,0,1,338.76-.6Zm30.3-38.46h32.58l.06-6.18H389.34v-5.28h-7.98v5.28h-12.3Zm43.56,8.7h7.32v-6.48h-7.32V-50.1H404.7v32.34h7.92Zm-13.68,2.58a8.2,8.2,0,0,0-.99-4.02,9.3,9.3,0,0,0-2.79-3.09,13.468,13.468,0,0,0-4.29-1.98,20.524,20.524,0,0,0-5.49-.69,20.524,20.524,0,0,0-5.49.69,13.469,13.469,0,0,0-4.29,1.98,9.3,9.3,0,0,0-2.79,3.09,8.2,8.2,0,0,0-.99,4.02,8.081,8.081,0,0,0,.99,3.96,9.3,9.3,0,0,0,2.79,3.09,13.952,13.952,0,0,0,4.29,2.01,19.718,19.718,0,0,0,5.49.72,19.718,19.718,0,0,0,5.49-.72,13.952,13.952,0,0,0,4.29-2.01,9.3,9.3,0,0,0,2.79-3.09A8.081,8.081,0,0,0,398.94-27.78Zm-19.56,0a3.31,3.31,0,0,1,1.65-3,8.19,8.19,0,0,1,4.35-1.02,8.19,8.19,0,0,1,4.35,1.02,3.31,3.31,0,0,1,1.65,3,3.31,3.31,0,0,1-1.65,3,8.19,8.19,0,0,1-4.35,1.02,8.19,8.19,0,0,1-4.35-1.02A3.31,3.31,0,0,1,379.38-27.78Zm33.24,12.12h-7.86v4.2H384.54v-4.2h-7.86V4.56h35.94ZM384.54-5.46h20.22v3.84H384.54ZM428.7-42.72h7.02v7.08h-6.66v5.88h40.32v-5.88h-6.6v-7.08h7.02V-48.6H428.7Zm14.88,0h11.34v7.08H443.58ZM474.24-20.7v-6.24H424.32v6.24ZM469.62-.96H437.94v-3h30.24V-17.64H430.02v5.7h30.36v2.7h-30.3V4.74h39.54ZM507.3-17.52h7.38v-12.9h4.44v17.46h7.5V-50.1h-7.5v13.38h-4.44V-49.14H507.3Zm-1.92-1.8-.72-6.18a68.418,68.418,0,0,1-7.32,1.02q-3.6.3-7.98.36v-5.22h13.26V-46.26H481.68v6.18H495v4.98H481.74v17.22h3.84q3.06,0,5.67-.06t4.98-.21q2.37-.15,4.59-.42T505.38-19.32Zm6.18,4.98v-.96h-7.92v.96a9.291,9.291,0,0,1-1.08,4.23,12.388,12.388,0,0,1-3.27,3.93,21.294,21.294,0,0,1-5.49,3.15,30.053,30.053,0,0,1-7.74,1.89l3.06,6.12a31.9,31.9,0,0,0,11.31-3.57,20.847,20.847,0,0,0,7.17-6.45,20.279,20.279,0,0,0,7.11,6.45,31.9,31.9,0,0,0,11.31,3.57l3.12-6.12a30.128,30.128,0,0,1-7.8-1.89,20.751,20.751,0,0,1-5.46-3.15,12.542,12.542,0,0,1-3.24-3.93A9.291,9.291,0,0,1,511.56-14.34Zm73.08-2.76v-6.24H563.58v-4.32h16.14v-6.3h-6.54V-42.3h7.02v-6.3H539.1v6.3h7.02v8.34h-6.66v6.3h16.2v4.32H534.72v6.24ZM565.32-33.96H553.98V-42.3h11.34ZM578.7-13.5H540.54v18H578.7ZM570.9-1.68H548.28V-7.26H570.9Z" transform="translate(597 1610.66)" fill="#999dbc"/>
      <path id="패스_86565" data-name="패스 86565" d="M2.34-13.02h5.1L5.76,0h5.82L13.2-13.02h6.66L18.24,0h5.88l1.56-13.02h6.24v-5.7H26.34l1.02-8.22H33.3V-32.7H28.08l1.38-11.52h-5.7L22.26-32.7H15.54l1.44-11.52H11.34L9.84-32.7H3.72v5.76h5.4L8.1-18.72H2.34Zm19.2-13.92-1.02,8.22H13.8l1.02-8.22Zm41.28,3.42a35.049,35.049,0,0,0,8.1-.87,21.478,21.478,0,0,0,6.3-2.49,12.646,12.646,0,0,0,4.11-3.9,9.212,9.212,0,0,0,1.47-5.1,9.212,9.212,0,0,0-1.47-5.1,12.646,12.646,0,0,0-4.11-3.9,21.477,21.477,0,0,0-6.3-2.49,35.049,35.049,0,0,0-8.1-.87,35.154,35.154,0,0,0-8.07.87,21.454,21.454,0,0,0-6.33,2.49,12.645,12.645,0,0,0-4.11,3.9,9.212,9.212,0,0,0-1.47,5.1,9.212,9.212,0,0,0,1.47,5.1,12.645,12.645,0,0,0,4.11,3.9,21.454,21.454,0,0,0,6.33,2.49A35.154,35.154,0,0,0,62.82-23.52Zm0-18.42a19.863,19.863,0,0,1,8.64,1.56q3.18,1.56,3.18,4.5a4.843,4.843,0,0,1-3.18,4.56,20.559,20.559,0,0,1-8.64,1.5,20.774,20.774,0,0,1-8.67-1.5q-3.21-1.5-3.21-4.56,0-2.94,3.21-4.5A20.07,20.07,0,0,1,62.82-41.94ZM76.38-12.96H87.96v-6.42H37.92v6.42H49.26V5.1h7.98V-12.96h11.1V5.1h8.04ZM95.52-38.4h44.94l.06-6.18H122.04v-5.58h-7.92v5.58H95.52Zm3.66,11.58q0,4.62,5.01,7.05t13.89,2.43q8.88,0,13.92-2.43t5.04-7.05q0-4.56-5.04-6.99t-13.92-2.43q-8.88,0-13.89,2.43T99.18-26.82Zm29.64,0q0,3.6-10.74,3.6-10.68,0-10.68-3.6,0-3.54,10.68-3.54Q128.82-30.36,128.82-26.82ZM131.7-8.4h11.46v-6.36H93.12V-8.4h11.52V5.28h7.98V-8.4h11.1V5.28h7.98ZM194.1,5.28V-50.16h-7.92V5.28ZM169.74-37.8v-8.04h-7.92v8.04a36.673,36.673,0,0,1-.87,7.95,30.292,30.292,0,0,1-2.61,7.32,23.667,23.667,0,0,1-4.44,6.06,20.406,20.406,0,0,1-6.3,4.23l4.74,6.54a22.212,22.212,0,0,0,8.4-6.57,32.365,32.365,0,0,0,5.16-9.87,31.242,31.242,0,0,0,5.04,9.03,21.272,21.272,0,0,0,8.04,6.09l4.5-6.42a19.89,19.89,0,0,1-6.09-4.05,22.566,22.566,0,0,1-4.29-5.79,28.855,28.855,0,0,1-2.52-6.96A34.217,34.217,0,0,1,169.74-37.8Zm61.98,2.1H241.8v13.68h7.92V-50.1H241.8V-42H231.72Zm.78,13.02,4.02-6.06a18.948,18.948,0,0,1-5.58-2.61,16.769,16.769,0,0,1-3.87-3.72,14.47,14.47,0,0,1-2.25-4.47,16.63,16.63,0,0,1-.72-4.8V-48.3h-7.98v3.96a17.994,17.994,0,0,1-.75,5.16,15.878,15.878,0,0,1-2.31,4.71,16.512,16.512,0,0,1-4.05,3.93,20.436,20.436,0,0,1-5.91,2.76l4.08,6.18a21.666,21.666,0,0,0,7.98-4.38,21,21,0,0,0,5.1-6.84,19.619,19.619,0,0,0,4.8,6.12A20.792,20.792,0,0,0,232.5-22.68ZM251.28,4.56V-1.62H221.16V-4.86h28.56V-19.68H213.3v6.06h28.62v3.06H213.36V4.56ZM297-50.1v13.32h-8.28v6.42H297v13.14h7.92V-50.1Zm-8.82,31.38,3.84-6.18a19.886,19.886,0,0,1-5.46-2.7,17.3,17.3,0,0,1-3.87-3.75,15.79,15.79,0,0,1-2.31-4.41,16.037,16.037,0,0,1-.84-4.68h10.74V-46.8h-29.7v6.36h10.86a19.944,19.944,0,0,1-.93,5.13,17.415,17.415,0,0,1-2.4,4.8,18.756,18.756,0,0,1-3.99,4.08,20.2,20.2,0,0,1-5.7,2.97l4.02,6.24a20.774,20.774,0,0,0,8.13-4.83,22.964,22.964,0,0,0,5.07-7.41,21.059,21.059,0,0,0,4.92,6.45A21.431,21.431,0,0,0,288.18-18.72Zm-1.92,2.7a39.878,39.878,0,0,0-7.92.72,20.847,20.847,0,0,0-5.97,2.07,10.543,10.543,0,0,0-3.75,3.33,7.927,7.927,0,0,0-1.32,4.5,7.927,7.927,0,0,0,1.32,4.5,10.543,10.543,0,0,0,3.75,3.33,20.847,20.847,0,0,0,5.97,2.07,39.878,39.878,0,0,0,7.92.72,39.424,39.424,0,0,0,7.89-.72,20.852,20.852,0,0,0,5.94-2.07A10.543,10.543,0,0,0,303.84-.9a7.927,7.927,0,0,0,1.32-4.5,7.927,7.927,0,0,0-1.32-4.5,10.543,10.543,0,0,0-3.75-3.33,20.852,20.852,0,0,0-5.94-2.07A39.424,39.424,0,0,0,286.26-16.02Zm0,15.24q-11.04,0-11.04-4.62t11.04-4.62q10.98,0,10.98,4.62T286.26-.78Zm77.7-.48V-7.68H342.84V-17.82H358.5V-46.68h-7.8v8.58H327.06v-8.58H319.2v28.86h15.72V-7.68h-21v6.42ZM350.7-24.12H327.06v-7.74H350.7Zm69.24-3.66v-6.48h-7.32V-50.1H404.7V-9.9h7.92V-27.78Zm-20.46-4.74a13.8,13.8,0,0,0-1.14-5.64,13.1,13.1,0,0,0-3.18-4.44,15.064,15.064,0,0,0-4.74-2.91,16.086,16.086,0,0,0-5.88-1.05,16.325,16.325,0,0,0-5.91,1.05,14.983,14.983,0,0,0-4.77,2.91,13.1,13.1,0,0,0-3.18,4.44,13.8,13.8,0,0,0-1.14,5.64,13.59,13.59,0,0,0,1.14,5.61,13.5,13.5,0,0,0,3.18,4.44,14.706,14.706,0,0,0,4.77,2.94,16.325,16.325,0,0,0,5.91,1.05,16.086,16.086,0,0,0,5.88-1.05,14.783,14.783,0,0,0,4.74-2.94,13.5,13.5,0,0,0,3.18-4.44A13.59,13.59,0,0,0,399.48-32.52Zm-22.2,0a6.827,6.827,0,0,1,2.07-5.31,7.4,7.4,0,0,1,5.19-1.89,7.433,7.433,0,0,1,5.16,1.89,6.776,6.776,0,0,1,2.1,5.31,6.776,6.776,0,0,1-2.1,5.31,7.433,7.433,0,0,1-5.16,1.89,7.4,7.4,0,0,1-5.19-1.89A6.827,6.827,0,0,1,377.28-32.52ZM414.6-2.1H384.9V-14.04h-7.92V4.2H414.6Zm57.06,7.2V-50.16H464.1v21.3h-4.98V-49.14h-7.38V2.52h7.38V-22.44h4.98V5.1ZM434.4-15.12V-43.98h-7.92v35.7h3.84q4.14,0,8.88-.3A85.03,85.03,0,0,0,449.4-9.9l-.66-6.66q-3.96.72-7.53,1.02T434.4-15.12Z" transform="translate(984 1694.66)" fill="#999dbc"/>
      <path id="패스_86560" data-name="패스 86560" d="M2.34-13.02h5.1L5.76,0h5.82L13.2-13.02h6.66L18.24,0h5.88l1.56-13.02h6.24v-5.7H26.34l1.02-8.22H33.3V-32.7H28.08l1.38-11.52h-5.7L22.26-32.7H15.54l1.44-11.52H11.34L9.84-32.7H3.72v5.76h5.4L8.1-18.72H2.34Zm19.2-13.92-1.02,8.22H13.8l1.02-8.22ZM87.96-18.3v-6.24H66.9v-5.52H82.38v-6.3H52.14V-49.14H44.22v19.08H58.98v5.52h-21v6.24Zm-25.2,2.94a42.274,42.274,0,0,0-8.04.69,22,22,0,0,0-6,1.98,10.225,10.225,0,0,0-3.78,3.21A7.546,7.546,0,0,0,43.62-5.1,7.546,7.546,0,0,0,44.94-.72a10.476,10.476,0,0,0,3.78,3.24,21.316,21.316,0,0,0,6,2.01,42.274,42.274,0,0,0,8.04.69,42.275,42.275,0,0,0,8.04-.69,21.759,21.759,0,0,0,6.03-2.01A10.42,10.42,0,0,0,80.64-.72,7.546,7.546,0,0,0,81.96-5.1a7.546,7.546,0,0,0-1.32-4.38,10.174,10.174,0,0,0-3.81-3.21,22.459,22.459,0,0,0-6.03-1.98A42.274,42.274,0,0,0,62.76-15.36Zm0,14.46Q51.6-.9,51.6-5.1q0-2.22,2.76-3.21a26.553,26.553,0,0,1,8.4-.99,26.553,26.553,0,0,1,8.4.99q2.76.99,2.76,3.21Q73.92-.9,62.76-.9ZM95.22-29.64l2.52,6.06a39.057,39.057,0,0,0,12.84-2.91,18.812,18.812,0,0,0,7.5-5.73,18.291,18.291,0,0,0,7.47,5.73,39.378,39.378,0,0,0,12.87,2.91l2.46-6.06a41.04,41.04,0,0,1-7.71-1.17,25.289,25.289,0,0,1-5.49-2.07,11.392,11.392,0,0,1-3.45-2.7,7.568,7.568,0,0,1-1.59-3H138.3V-44.7H121.98v-5.22h-7.92v5.22H97.92v6.12h15.54a7.41,7.41,0,0,1-1.62,3,11.8,11.8,0,0,1-3.48,2.7,25.289,25.289,0,0,1-5.49,2.07A40.868,40.868,0,0,1,95.22-29.64ZM143.04-14.1v-6.24H121.98v-6h-7.92v6H93.12v6.24Zm-5.58,12H107.1v-8.88H99.18V4.2h38.28Zm35.76-21.42a35.049,35.049,0,0,0,8.1-.87,21.477,21.477,0,0,0,6.3-2.49,12.646,12.646,0,0,0,4.11-3.9,9.212,9.212,0,0,0,1.47-5.1,9.212,9.212,0,0,0-1.47-5.1,12.646,12.646,0,0,0-4.11-3.9,21.478,21.478,0,0,0-6.3-2.49,35.049,35.049,0,0,0-8.1-.87,35.154,35.154,0,0,0-8.07.87,21.454,21.454,0,0,0-6.33,2.49,12.645,12.645,0,0,0-4.11,3.9,9.212,9.212,0,0,0-1.47,5.1,9.212,9.212,0,0,0,1.47,5.1,12.646,12.646,0,0,0,4.11,3.9,21.454,21.454,0,0,0,6.33,2.49A35.154,35.154,0,0,0,173.22-23.52Zm0-18.42a19.863,19.863,0,0,1,8.64,1.56q3.18,1.56,3.18,4.5a4.843,4.843,0,0,1-3.18,4.56,20.559,20.559,0,0,1-8.64,1.5,20.774,20.774,0,0,1-8.67-1.5q-3.21-1.5-3.21-4.56,0-2.94,3.21-4.5A20.07,20.07,0,0,1,173.22-41.94Zm13.56,28.98h11.58v-6.42H148.32v6.42h11.34V5.1h7.98V-12.96h11.1V5.1h8.04ZM205.92-38.4h44.94l.06-6.18H232.44v-5.58h-7.92v5.58h-18.6Zm3.66,11.58q0,4.62,5.01,7.05t13.89,2.43q8.88,0,13.92-2.43t5.04-7.05q0-4.56-5.04-6.99t-13.92-2.43q-8.88,0-13.89,2.43T209.58-26.82Zm29.64,0q0,3.6-10.74,3.6-10.68,0-10.68-3.6,0-3.54,10.68-3.54Q239.22-30.36,239.22-26.82ZM242.1-8.4h11.46v-6.36H203.52V-8.4h11.52V5.28h7.98V-8.4h11.1V5.28h7.98ZM304.5,5.28V-50.16h-7.92V5.28ZM280.14-37.8v-8.04h-7.92v8.04a36.674,36.674,0,0,1-.87,7.95,30.291,30.291,0,0,1-2.61,7.32,23.667,23.667,0,0,1-4.44,6.06,20.406,20.406,0,0,1-6.3,4.23l4.74,6.54a22.211,22.211,0,0,0,8.4-6.57,32.366,32.366,0,0,0,5.16-9.87,31.241,31.241,0,0,0,5.04,9.03,21.272,21.272,0,0,0,8.04,6.09l4.5-6.42a19.891,19.891,0,0,1-6.09-4.05,22.566,22.566,0,0,1-4.29-5.79,28.855,28.855,0,0,1-2.52-6.96A34.217,34.217,0,0,1,280.14-37.8Zm61.98,2.1H352.2v13.68h7.92V-50.1H352.2V-42H342.12Zm.78,13.02,4.02-6.06a18.947,18.947,0,0,1-5.58-2.61,16.769,16.769,0,0,1-3.87-3.72,14.47,14.47,0,0,1-2.25-4.47,16.63,16.63,0,0,1-.72-4.8V-48.3h-7.98v3.96a17.994,17.994,0,0,1-.75,5.16,15.878,15.878,0,0,1-2.31,4.71,16.512,16.512,0,0,1-4.05,3.93,20.436,20.436,0,0,1-5.91,2.76l4.08,6.18a21.666,21.666,0,0,0,7.98-4.38,21,21,0,0,0,5.1-6.84,19.619,19.619,0,0,0,4.8,6.12A20.792,20.792,0,0,0,342.9-22.68ZM361.68,4.56V-1.62H331.56V-4.86h28.56V-19.68H323.7v6.06h28.62v3.06H323.76V4.56Z" transform="translate(210 1610.66)" fill="#e7e8f2"/>
      <path id="패스_86563" data-name="패스 86563" d="M2.34-13.02h5.1L5.76,0h5.82L13.2-13.02h6.66L18.24,0h5.88l1.56-13.02h6.24v-5.7H26.34l1.02-8.22H33.3V-32.7H28.08l1.38-11.52h-5.7L22.26-32.7H15.54l1.44-11.52H11.34L9.84-32.7H3.72v5.76h5.4L8.1-18.72H2.34Zm19.2-13.92-1.02,8.22H13.8l1.02-8.22ZM83.7,5.34V-50.1H75.78V5.34ZM49.14-14.46v-24.3H67.92v-6.42H41.22V-7.86h4.86q4.44,0,8.04-.06t6.72-.24q3.12-.18,5.91-.51t5.61-.87l-.72-6.54q-2.52.48-4.98.78t-5.16.48q-2.7.18-5.73.27T49.14-14.46ZM138.9,5.16V-50.1h-7.92V5.16ZM114.48-35.22v-3.06h11.4v-6.54H94.92v6.54h11.52v3.06a30.954,30.954,0,0,1-.84,7.11,26.958,26.958,0,0,1-2.55,6.72,24.809,24.809,0,0,1-4.29,5.73,20.117,20.117,0,0,1-6.06,4.14l4.5,6.3a21.711,21.711,0,0,0,8.19-6.48,32.828,32.828,0,0,0,5.19-9.72,28.552,28.552,0,0,0,5.13,8.91,22.076,22.076,0,0,0,8.13,5.91l4.32-6.24a19.674,19.674,0,0,1-6.03-3.84,23.069,23.069,0,0,1-4.26-5.4,24.964,24.964,0,0,1-2.55-6.39A27.978,27.978,0,0,1,114.48-35.22Zm63.36,3.06h8.76v11.28h7.92V-50.1H186.6v11.7h-8.76Zm.96,9.12-.6-6.18q-2.34.36-4.56.57t-4.56.33q-2.34.12-4.89.15t-5.49.03v-3.6h15.96V-37.5H158.7v-3.42h17.64v-6.12h-25.5v25.08h4.32q3.84,0,6.99-.03t5.94-.15q2.79-.12,5.4-.33T178.8-23.04ZM196.08,4.74V-1.2H165.96V-4.32h28.56V-18.84H158.04v5.94h28.62v3h-28.5V4.74Zm13.32-20.1h38.82V-21.6H217.44v-6.18h29.1V-33.9h-29.1v-5.82H247.8v-6.36H209.4ZM253.56-1.2V-7.62H203.52V-1.2Zm43.26-7.08h7.92V-50.16h-7.92Zm-20.1-18.84a20.374,20.374,0,0,0,5.7-.75A13.877,13.877,0,0,0,286.86-30a10.049,10.049,0,0,0,2.91-3.33,8.9,8.9,0,0,0,1.05-4.29,8.731,8.731,0,0,0-1.05-4.26,10.458,10.458,0,0,0-2.91-3.33,13.514,13.514,0,0,0-4.44-2.16,20.375,20.375,0,0,0-5.7-.75,20.374,20.374,0,0,0-5.7.75,13.874,13.874,0,0,0-4.47,2.16,10.317,10.317,0,0,0-2.94,3.33,8.731,8.731,0,0,0-1.05,4.26,8.9,8.9,0,0,0,1.05,4.29A9.922,9.922,0,0,0,266.55-30a14.253,14.253,0,0,0,4.47,2.13A20.374,20.374,0,0,0,276.72-27.12Zm0-15.12a8.671,8.671,0,0,1,4.83,1.17,3.87,3.87,0,0,1,1.77,3.45,3.87,3.87,0,0,1-1.77,3.45A8.671,8.671,0,0,1,276.72-33a8.826,8.826,0,0,1-4.86-1.17,3.852,3.852,0,0,1-1.8-3.45,3.852,3.852,0,0,1,1.8-3.45A8.826,8.826,0,0,1,276.72-42.24ZM305.94,4.2V-2.1h-32.4V-9.9h7.86v-8.88q3.24-.24,6.42-.6t6.42-.96l-.42-5.58q-4.32.54-8.94.87t-9.15.48q-4.53.15-8.82.21t-8.07.06l.96,6.3q3.12,0,6.6-.06t7.14-.24v6.6h-7.92V4.2Z" transform="translate(1370 1610.66)" fill="#e7e8f2"/>
      <path id="패스_86567" data-name="패스 86567" d="M2.34-13.02h5.1L5.76,0h5.82L13.2-13.02h6.66L18.24,0h5.88l1.56-13.02h6.24v-5.7H26.34l1.02-8.22H33.3V-32.7H28.08l1.38-11.52h-5.7L22.26-32.7H15.54l1.44-11.52H11.34L9.84-32.7H3.72v5.76h5.4L8.1-18.72H2.34Zm19.2-13.92-1.02,8.22H13.8l1.02-8.22Zm22.5-.24h37.5V-47.76H44.04Zm7.8-14.4h21.9v8.16H51.84ZM87.9-16.56V-22.8H37.86v6.24H59.64v9.42h7.92v-9.42ZM82.38-2.1H51.6v-9.72H43.68V4.2h38.7Zm54.66-18.96h6.9V-27.6h-6.9V-50.1h-7.92V5.16h7.92ZM93.54-37.8h32.52v-6.24H113.82v-5.82H105.9v5.82H93.54Zm20.28,26.94v-4.38a12.821,12.821,0,0,0,6.93-3.51,8.891,8.891,0,0,0,2.61-6.45,9.156,9.156,0,0,0-.99-4.26,9.773,9.773,0,0,0-2.79-3.3,13.3,13.3,0,0,0-4.26-2.13,18.674,18.674,0,0,0-5.46-.75,18.757,18.757,0,0,0-5.43.75,13.26,13.26,0,0,0-4.29,2.13,9.773,9.773,0,0,0-2.79,3.3,9.156,9.156,0,0,0-.99,4.26,8.891,8.891,0,0,0,2.61,6.45,12.821,12.821,0,0,0,6.93,3.51v4.68q-3.66.12-6.96.12H92.52l.96,6.42q3.54,0,7.56-.03t8.31-.27q4.29-.24,8.73-.69T126.9-6.3l-.6-5.7q-3.06.48-6.15.72T113.82-10.86ZM103.86-25.2a3.763,3.763,0,0,1,1.65-3.3,7.511,7.511,0,0,1,4.35-1.14,7.511,7.511,0,0,1,4.35,1.14,3.763,3.763,0,0,1,1.65,3.3,3.763,3.763,0,0,1-1.65,3.3,7.511,7.511,0,0,1-4.35,1.14,7.511,7.511,0,0,1-4.35-1.14A3.763,3.763,0,0,1,103.86-25.2ZM195.72,5.1V-50.16h-7.5V5.1Zm-11.1-54.3h-7.38v11.28h-6.36a14.771,14.771,0,0,0-4.11-6.15,9.027,9.027,0,0,0-5.97-2.13,9.241,9.241,0,0,0-4.98,1.38,11.622,11.622,0,0,0-3.78,3.96,21.128,21.128,0,0,0-2.4,6.3,38.274,38.274,0,0,0-.84,8.4,38.688,38.688,0,0,0,.84,8.43,21.117,21.117,0,0,0,2.4,6.33,11.621,11.621,0,0,0,3.78,3.96,9.24,9.24,0,0,0,4.98,1.38,8.991,8.991,0,0,0,6-2.19,15.117,15.117,0,0,0,4.14-6.21h6.3V2.64h7.38ZM160.8-13.5q-2.34,0-3.63-3.15t-1.29-9.51q0-6.36,1.29-9.48t3.63-3.12q2.28,0,3.57,3.12t1.29,9.48q0,6.36-1.29,9.51T160.8-13.5Zm16.44-18.06v10.68h-4.8q.12-1.2.21-2.55t.09-2.73a38.233,38.233,0,0,0-.36-5.4Zm71.1.84,2.64-5.94a34.167,34.167,0,0,1-8.13-1.62,21.578,21.578,0,0,1-5.73-2.88,12.182,12.182,0,0,1-3.42-3.66,7.876,7.876,0,0,1-1.14-3.96V-49.8H224.4v1.02a7.876,7.876,0,0,1-1.14,3.96,12.182,12.182,0,0,1-3.42,3.66,21.578,21.578,0,0,1-5.73,2.88,34.167,34.167,0,0,1-8.13,1.62l2.58,5.94a35.009,35.009,0,0,0,12.24-3.33,20.893,20.893,0,0,0,7.68-6.33,20.947,20.947,0,0,0,7.65,6.33A34.712,34.712,0,0,0,248.34-30.72ZM232.38-18.66V-22.2h21.06v-6.24H203.52v6.24h20.94v3.54H209.22v5.88h30.36v3h-30.3V4.74h39.54V-1.2H217.14V-4.32h30.24V-18.66Z" transform="translate(184 1694.66)" fill="#e7e8f2"/>
      <path id="패스_86564" data-name="패스 86564" d="M2.34-13.02h5.1L5.76,0h5.82L13.2-13.02h6.66L18.24,0h5.88l1.56-13.02h6.24v-5.7H26.34l1.02-8.22H33.3V-32.7H28.08l1.38-11.52h-5.7L22.26-32.7H15.54l1.44-11.52H11.34L9.84-32.7H3.72v5.76h5.4L8.1-18.72H2.34Zm19.2-13.92-1.02,8.22H13.8l1.02-8.22ZM84.72,5.1V-50.1H76.8v37.14H65.7v6H76.8V5.1ZM55.62-25.14a17.846,17.846,0,0,0,5.61-.84,14.206,14.206,0,0,0,4.41-2.31,10.467,10.467,0,0,0,2.91-3.57,10.184,10.184,0,0,0,1.05-4.62,10,10,0,0,0-1.05-4.59,10.858,10.858,0,0,0-2.91-3.57,13.849,13.849,0,0,0-4.41-2.34,17.847,17.847,0,0,0-5.61-.84,18.129,18.129,0,0,0-5.64.84,13.8,13.8,0,0,0-4.44,2.34,10.858,10.858,0,0,0-2.91,3.57,10,10,0,0,0-1.05,4.59,10.184,10.184,0,0,0,1.05,4.62,10.467,10.467,0,0,0,2.91,3.57,14.149,14.149,0,0,0,4.44,2.31A18.129,18.129,0,0,0,55.62-25.14Zm0-16.68a7.47,7.47,0,0,1,4.74,1.41,4.71,4.71,0,0,1,1.8,3.93,4.691,4.691,0,0,1-1.8,3.96,7.583,7.583,0,0,1-4.74,1.38,7.848,7.848,0,0,1-4.8-1.38,4.633,4.633,0,0,1-1.86-3.96,4.651,4.651,0,0,1,1.86-3.93A7.729,7.729,0,0,1,55.62-41.82ZM73.74-17.94l-.48-5.76q-4.44.6-9.09.93t-9.24.51q-4.59.18-8.97.21t-8.22.03l.9,6.42q2.88,0,6.06-.03t6.6-.15V3.54h7.92V-16.2q3.6-.3,7.23-.69T73.74-17.94ZM140.64,5.1V-50.16h-7.5V5.1ZM129-48.9h-7.38v19.62h-5.7a50.354,50.354,0,0,0,1.2-7.05q.36-3.63.36-7.59H95.94v6.36h13.92q-.12,1.68-.36,3.24t-.6,3.06l-15.72.84.9,6.6,12.72-1.32a28.353,28.353,0,0,1-5.28,7.41,39.932,39.932,0,0,1-8.64,6.51L97.26-5.7a43.771,43.771,0,0,0,10.32-7.92,33.084,33.084,0,0,0,6.18-9.36h7.86V2.7H129ZM194.1,5.28V-50.16h-7.92V5.28ZM164.4-46.26a12.424,12.424,0,0,0-5.79,1.38,13.432,13.432,0,0,0-4.59,3.93,19.806,19.806,0,0,0-3.03,6.18,27.977,27.977,0,0,0-1.11,8.19,28.283,28.283,0,0,0,1.11,8.22,20.154,20.154,0,0,0,3.03,6.24,13.31,13.31,0,0,0,4.59,3.96,12.424,12.424,0,0,0,5.79,1.38,12.424,12.424,0,0,0,5.79-1.38,13.31,13.31,0,0,0,4.59-3.96,20.154,20.154,0,0,0,3.03-6.24,28.283,28.283,0,0,0,1.11-8.22,27.978,27.978,0,0,0-1.11-8.19,19.806,19.806,0,0,0-3.03-6.18,13.432,13.432,0,0,0-4.59-3.93A12.424,12.424,0,0,0,164.4-46.26Zm0,7.14q3.06,0,4.98,3.18t1.92,9.36q0,6.18-1.92,9.39t-4.98,3.21q-3.06,0-4.98-3.21t-1.92-9.39q0-6.18,1.92-9.36T164.4-39.12Zm68.22,13.2h9.18V-9.18h7.92V-50.1H241.8v7.2h-9.18v6.3h9.18v4.32h-9.18Zm-.48,9.9,4.38-6.12a19.7,19.7,0,0,1-5.64-3.21,18.007,18.007,0,0,1-3.84-4.38,18.251,18.251,0,0,1-2.19-5.19,23.166,23.166,0,0,1-.69-5.64v-6.42h-8.04v6.42a24.273,24.273,0,0,1-.72,5.85,18.383,18.383,0,0,1-2.31,5.43,19.087,19.087,0,0,1-4.02,4.53,18.891,18.891,0,0,1-5.85,3.21l4.14,6.18a21.277,21.277,0,0,0,7.92-4.95,22.542,22.542,0,0,0,4.92-7.53,23.951,23.951,0,0,0,4.68,7.02A20.559,20.559,0,0,0,232.14-16.02ZM250.92,4.2V-2.1H221.16V-12.9h-7.92V4.2Z" transform="translate(1481 1694.66)" fill="#e7e8f2"/>
      <path id="패스_86566" data-name="패스 86566" d="M2.34-13.02h5.1L5.76,0h5.82L13.2-13.02h6.66L18.24,0h5.88l1.56-13.02h6.24v-5.7H26.34l1.02-8.22H33.3V-32.7H28.08l1.38-11.52h-5.7L22.26-32.7H15.54l1.44-11.52H11.34L9.84-32.7H3.72v5.76h5.4L8.1-18.72H2.34Zm19.2-13.92-1.02,8.22H13.8l1.02-8.22Zm51-2.16,7.8.78a40.516,40.516,0,0,0,1.35-7.89q.21-3.57.21-6.87v-4.56H43.62v6.24H73.98q0,2.76-.24,5.64A41.544,41.544,0,0,1,72.54-29.1Zm15.24,9.96v-6.24H64.38v-9.66H56.46v9.66H38.04v6.24Zm-25.2,3.48a41.6,41.6,0,0,0-8.07.72,22.613,22.613,0,0,0-6.18,2.07A11.134,11.134,0,0,0,44.4-9.6a7.316,7.316,0,0,0-1.38,4.38A7.223,7.223,0,0,0,44.4-.9a11.134,11.134,0,0,0,3.93,3.27,22.613,22.613,0,0,0,6.18,2.07,41.6,41.6,0,0,0,8.07.72,41.485,41.485,0,0,0,8.1-.72,23.088,23.088,0,0,0,6.18-2.07A11.075,11.075,0,0,0,80.82-.9,7.223,7.223,0,0,0,82.2-5.22,7.316,7.316,0,0,0,80.82-9.6a11.075,11.075,0,0,0-3.96-3.27,23.088,23.088,0,0,0-6.18-2.07A41.485,41.485,0,0,0,62.58-15.66Zm0,14.88a26.331,26.331,0,0,1-8.67-1.11Q50.88-3,50.88-5.22q0-2.28,3.03-3.39a26.331,26.331,0,0,1,8.67-1.11,26.614,26.614,0,0,1,8.7,1.11q3.06,1.11,3.06,3.39,0,2.22-3.06,3.33A26.614,26.614,0,0,1,62.58-.78ZM143.94-28.2v-6.48h-7.38V-50.1h-7.92v39.54h7.92V-28.2ZM121.68-45.96H95.1v6.3h18a17.945,17.945,0,0,1-5.97,10.41q-5.01,4.59-14.43,7.11l3.3,6.3q12.36-3.6,19.02-11.22T121.68-45.96ZM138.48-2.1H108.84V-14.52h-7.92V4.2h37.56Zm24.18-39.3h31.38v-5.22h-11.7v-3.9h-7.92v3.9H162.66ZM212.7-30.6v-6.48h-6.96V-50.1h-7.92v32.52h7.92V-30.6ZM195.96-20.22l-.54-4.74q-6.36.72-13.08,1.08V-26.1a14.9,14.9,0,0,0,6.99-2.34,5.53,5.53,0,0,0,2.49-4.68q0-3.42-3.63-5.31t-9.81-1.89q-6.18,0-9.84,1.89t-3.66,5.31a5.512,5.512,0,0,0,2.52,4.68,15.113,15.113,0,0,0,7.02,2.34v2.52q-3.6.12-6.84.12h-6.3l.78,5.4q3.6,0,7.71-.03t8.49-.24q4.38-.21,8.88-.66T195.96-20.22Zm-23.58-12.9q0-1.2,1.56-1.77a13.5,13.5,0,0,1,4.44-.57,13.215,13.215,0,0,1,4.41.57q1.53.57,1.53,1.77t-1.53,1.83a12.048,12.048,0,0,1-4.41.63,12.3,12.3,0,0,1-4.44-.63Q172.38-31.92,172.38-33.12ZM207.66-.48H176.52V-3.12h29.22V-15.6H168.6v5.22h29.34v2.4H168.66V4.74h39Zm59.4-17.16v-6.24H255.72v-6.6a12.842,12.842,0,0,0,4.74-3.42,7.235,7.235,0,0,0,1.68-4.74,7.473,7.473,0,0,0-1.41-4.44,11.285,11.285,0,0,0-4.02-3.36,22.823,22.823,0,0,0-6.3-2.1,43.6,43.6,0,0,0-8.31-.72,43.244,43.244,0,0,0-8.25.72,22.823,22.823,0,0,0-6.3,2.1,11.284,11.284,0,0,0-4.02,3.36,7.473,7.473,0,0,0-1.41,4.44q0,5.28,6.24,8.1v6.66H217.14v6.24ZM242.1-43.26a26.387,26.387,0,0,1,8.85,1.14q3.03,1.14,3.03,3.48,0,2.28-3.03,3.42a26.387,26.387,0,0,1-8.85,1.14,26.239,26.239,0,0,1-8.73-1.14q-3.09-1.14-3.09-3.42,0-2.34,3.09-3.48A26.239,26.239,0,0,1,242.1-43.26Zm5.7,19.38H236.28V-28.5a44.128,44.128,0,0,0,5.82.36q1.56,0,2.97-.09t2.73-.21Zm-5.82,9a44.145,44.145,0,0,0-8.04.66,21.356,21.356,0,0,0-6,1.95,10.486,10.486,0,0,0-3.78,3.15,7.176,7.176,0,0,0-1.32,4.26,7.312,7.312,0,0,0,1.32,4.29,10.351,10.351,0,0,0,3.78,3.18,21.356,21.356,0,0,0,6,1.95,44.145,44.145,0,0,0,8.04.66,44.145,44.145,0,0,0,8.04-.66,21.8,21.8,0,0,0,6.03-1.95,10.3,10.3,0,0,0,3.81-3.18,7.312,7.312,0,0,0,1.32-4.29,7.176,7.176,0,0,0-1.32-4.26,10.432,10.432,0,0,0-3.81-3.15,21.8,21.8,0,0,0-6.03-1.95A44.145,44.145,0,0,0,241.98-14.88Zm0,14.1q-11.16,0-11.16-4.08,0-2.1,2.76-3.06a37.23,37.23,0,0,1,16.8,0q2.76.96,2.76,3.06Q253.14-.78,241.98-.78Zm87.24-21.96h8.04v-6.54h-8.04V-50.1H321.3V5.16h7.92ZM300.78-46.26a12.424,12.424,0,0,0-5.79,1.38,13.714,13.714,0,0,0-4.62,3.93,18.973,18.973,0,0,0-3.03,6.18,28.7,28.7,0,0,0-1.08,8.19,29.017,29.017,0,0,0,1.08,8.22,19.3,19.3,0,0,0,3.03,6.24,13.586,13.586,0,0,0,4.62,3.96,12.424,12.424,0,0,0,5.79,1.38,12.424,12.424,0,0,0,5.79-1.38,13.31,13.31,0,0,0,4.59-3.96,20.154,20.154,0,0,0,3.03-6.24,28.282,28.282,0,0,0,1.11-8.22,27.977,27.977,0,0,0-1.11-8.19,19.806,19.806,0,0,0-3.03-6.18,13.432,13.432,0,0,0-4.59-3.93A12.424,12.424,0,0,0,300.78-46.26Zm0,32.28q-3.12,0-5.01-3.21t-1.89-9.39q0-6.18,1.89-9.36a5.669,5.669,0,0,1,5.01-3.18q3.06,0,4.98,3.18t1.92,9.36q0,6.18-1.92,9.39T300.78-13.98ZM386.94,5.28V-50.16h-7.92V5.28Zm-29.7-51.54a12.424,12.424,0,0,0-5.79,1.38,13.432,13.432,0,0,0-4.59,3.93,19.806,19.806,0,0,0-3.03,6.18,27.978,27.978,0,0,0-1.11,8.19,28.283,28.283,0,0,0,1.11,8.22,20.154,20.154,0,0,0,3.03,6.24,13.31,13.31,0,0,0,4.59,3.96,12.424,12.424,0,0,0,5.79,1.38,12.424,12.424,0,0,0,5.79-1.38,13.31,13.31,0,0,0,4.59-3.96,20.154,20.154,0,0,0,3.03-6.24,28.283,28.283,0,0,0,1.11-8.22,27.978,27.978,0,0,0-1.11-8.19,19.806,19.806,0,0,0-3.03-6.18,13.432,13.432,0,0,0-4.59-3.93A12.424,12.424,0,0,0,357.24-46.26Zm0,7.14q3.06,0,4.98,3.18t1.92,9.36q0,6.18-1.92,9.39t-4.98,3.21q-3.06,0-4.98-3.21t-1.92-9.39q0-6.18,1.92-9.36T357.24-39.12Zm84.9,44.46V-50.1h-7.92V5.34Zm-34.56-19.8v-24.3h18.78v-6.42h-26.7V-7.86h4.86q4.44,0,8.04-.06t6.72-.24q3.12-.18,5.91-.51t5.61-.87l-.72-6.54q-2.52.48-4.98.78t-5.16.48q-2.7.18-5.73.27T407.58-14.46ZM497.94,5.28V-50.16h-7.92v19.92h-9.24a25.424,25.424,0,0,0-1.62-6.69,16.963,16.963,0,0,0-3.06-5.04,13.171,13.171,0,0,0-4.23-3.18,12.083,12.083,0,0,0-5.19-1.11,12.121,12.121,0,0,0-5.7,1.38,13.244,13.244,0,0,0-4.53,3.93,19.733,19.733,0,0,0-2.97,6.18,28.7,28.7,0,0,0-1.08,8.19,29.017,29.017,0,0,0,1.08,8.22,20.083,20.083,0,0,0,2.97,6.24,13.126,13.126,0,0,0,4.53,3.96,12.121,12.121,0,0,0,5.7,1.38,12.272,12.272,0,0,0,5.34-1.17,12.749,12.749,0,0,0,4.32-3.39,18.074,18.074,0,0,0,3.03-5.37,26.022,26.022,0,0,0,1.47-7.11h9.18V5.28ZM466.68-13.98q-3.06,0-4.89-3.21t-1.83-9.39q0-6.18,1.83-9.36t4.89-3.18q3.06,0,4.92,3.18t1.86,9.36q0,6.18-1.86,9.39T466.68-13.98Z" transform="translate(460 1694.66)" fill="#e7e8f2"/>
      <path id="패스_86562" data-name="패스 86562" d="M2.34-13.02h5.1L5.76,0h5.82L13.2-13.02h6.66L18.24,0h5.88l1.56-13.02h6.24v-5.7H26.34l1.02-8.22H33.3V-32.7H28.08l1.38-11.52h-5.7L22.26-32.7H15.54l1.44-11.52H11.34L9.84-32.7H3.72v5.76h5.4L8.1-18.72H2.34Zm19.2-13.92-1.02,8.22H13.8l1.02-8.22Zm45.84,8.4,3.6-6.12a21.2,21.2,0,0,1-5.7-2.28,16.223,16.223,0,0,1-3.96-3.24,12.373,12.373,0,0,1-2.31-3.84,13.005,13.005,0,0,1-.81-4.14H69.12v-6.18H58.2v-5.94H50.28v5.94H39.48v6.18h10.8a16.028,16.028,0,0,1-.81,4.62,13.837,13.837,0,0,1-2.31,4.26,16.468,16.468,0,0,1-3.93,3.54,19.573,19.573,0,0,1-5.73,2.46l3.78,6.18a20.782,20.782,0,0,0,8.1-4.2,20.18,20.18,0,0,0,5.04-6.6,20.223,20.223,0,0,0,5.1,5.7A21.346,21.346,0,0,0,67.38-18.54ZM88.74-30.66v-6.48H81.42V-50.1H73.5v33.3h7.92V-30.66ZM63.36-15.78a38.637,38.637,0,0,0-7.8.72,20.858,20.858,0,0,0-5.91,2.07,10.388,10.388,0,0,0-3.72,3.3,7.813,7.813,0,0,0-1.29,4.41A7.813,7.813,0,0,0,45.93-.87a10.388,10.388,0,0,0,3.72,3.3,20.266,20.266,0,0,0,5.91,2.04,40.266,40.266,0,0,0,7.8.69,39.8,39.8,0,0,0,7.77-.69,20.268,20.268,0,0,0,5.88-2.04,10.387,10.387,0,0,0,3.72-3.3,7.813,7.813,0,0,0,1.29-4.41,7.813,7.813,0,0,0-1.29-4.41,10.388,10.388,0,0,0-3.72-3.3,20.868,20.868,0,0,0-5.88-2.07A38.19,38.19,0,0,0,63.36-15.78Zm0,14.88Q52.5-.9,52.5-5.28T63.36-9.66a23.586,23.586,0,0,1,8.13,1.05q2.67,1.05,2.67,3.33T71.49-1.95A23.587,23.587,0,0,1,63.36-.9Zm75.96-19.5V-50.1H131.4v12.18h-8.82a12.386,12.386,0,0,0-1.92-4.05,13.329,13.329,0,0,0-3.15-3.12,14.664,14.664,0,0,0-4.17-2.01,16.845,16.845,0,0,0-4.98-.72,16.279,16.279,0,0,0-5.76.99,14.418,14.418,0,0,0-4.59,2.73,12.459,12.459,0,0,0-3.06,4.17,12.627,12.627,0,0,0-1.11,5.31,12.627,12.627,0,0,0,1.11,5.31,12.459,12.459,0,0,0,3.06,4.17,14.418,14.418,0,0,0,4.59,2.73,16.279,16.279,0,0,0,5.76.99,16.508,16.508,0,0,0,5.01-.75,15.61,15.61,0,0,0,4.26-2.07,12.645,12.645,0,0,0,3.18-3.18,12.126,12.126,0,0,0,1.83-4.08h8.76v11.1Zm-30.96-7.62a7.242,7.242,0,0,1-5.01-1.74,6.176,6.176,0,0,1-1.95-4.86,6.176,6.176,0,0,1,1.95-4.86,7.242,7.242,0,0,1,5.01-1.74,7.355,7.355,0,0,1,5.04,1.74,6.13,6.13,0,0,1,1.98,4.86,6.13,6.13,0,0,1-1.98,4.86A7.355,7.355,0,0,1,108.36-28.02ZM139.32-18h-7.86v5.28H110.58V-18h-7.86V4.5h36.6ZM110.58-6.72h20.88v4.98H110.58Z" transform="translate(1204 1610.66)" fill="#e7e8f2"/>
    </g>
  </g>
</svg>
