<svg xmlns="http://www.w3.org/2000/svg" width="372.836" height="244.304" viewBox="0 0 372.836 244.304">
  <g id="Interior_design-pana" data-name="Interior design-pana" transform="translate(-45.33 -28.08)">
    <g id="freepik--background-complete--inject-10" transform="translate(45.33 129.106)">
      <path id="패스_87645" data-name="패스 87645" d="M402.708,394.48v24.014H398.7v2.624h4.008v16.07h74.969V422.546h-5.551v-3.184h5.551v-4.776h2.471v-2.2h-2.932V394.48Z" transform="translate(-204.692 -294.344)" fill="#f5f5f5"/>
      <path id="패스_87646" data-name="패스 87646" d="M506.3,394.551V436.9h19.9v-14.62h-5.551v-2.921l5.551.1v-4.776l2.515.005-.044-2.471-2.932-.071V394.48Z" transform="translate(-253.217 -294.344)" fill="#e0e0e0"/>
      <path id="패스_87647" data-name="패스 87647" d="M459.119,442.119c0,.148-13.561.264-30.284.264s-30.3-.115-30.3-.264,13.561-.269,30.3-.269S459.119,441.971,459.119,442.119Z" transform="translate(-204.62 -315.707)" fill="#e0e0e0"/>
      <path id="패스_87648" data-name="패스 87648" d="M459.119,437.679c0,.143-13.561.264-30.284.264s-30.3-.121-30.3-.264,13.561-.269,30.3-.269S459.119,437.531,459.119,437.679Z" transform="translate(-204.62 -313.704)" fill="#e0e0e0"/>
      <path id="패스_87649" data-name="패스 87649" d="M466.239,425.719c0,.148-13.561.264-30.29.264s-30.29-.115-30.29-.264,13.561-.269,30.29-.269S466.239,425.571,466.239,425.719Z" transform="translate(-207.831 -308.311)" fill="#e0e0e0"/>
      <path id="패스_87650" data-name="패스 87650" d="M466.889,458.285c0,.148-13.561.269-30.29.269s-30.29-.121-30.29-.269S419.865,458,436.6,458,466.889,458.143,466.889,458.285Z" transform="translate(-208.124 -322.99)" fill="#e0e0e0"/>
      <rect id="사각형_151416" data-name="사각형 151416" width="29.362" height="35.703" transform="translate(42.504 24.362) rotate(7.26)" fill="#fff"/>
      <rect id="사각형_151417" data-name="사각형 151417" width="29.362" height="26.567" transform="translate(42.505 24.364) rotate(7.26)" fill="#ebebeb"/>
      <path id="패스_87651" data-name="패스 87651" d="M135.668,312.391c0,.049-3.783-.384-8.427-.977s-8.406-1.1-8.4-1.169,3.777.384,8.428.972S135.673,312.336,135.668,312.391Z" transform="translate(-78.481 -256.352)" fill="#e0e0e0"/>
      <path id="패스_87652" data-name="패스 87652" d="M125.733,314.5c0,.049-1.647-.115-3.667-.368a34.291,34.291,0,0,1-3.646-.549,33.9,33.9,0,0,1,3.667.368A34.306,34.306,0,0,1,125.733,314.5Z" transform="translate(-78.292 -257.86)" fill="#e0e0e0"/>
      <path id="패스_87653" data-name="패스 87653" d="M143.589,295.526a1.272,1.272,0,0,1,0-.17c0-.121.033-.285.055-.5.055-.439.132-1.1.236-1.922.209-1.68.516-4.134.9-7.247.78-6.22,1.894-15.065,3.212-25.59l.077.1-29.1-3.7h0l.115-.088c-1.647,13.1-3.234,25.255-4.529,35.417l-.071-.093,21.115,2.745,5.9.774,1.559.209.549.077-.549-.06-1.543-.187-5.885-.714-21.181-2.657h-.082v-.082c1.285-10.135,2.833-22.323,4.5-35.417v-.1h.1l29.1,3.722h.088v.088c-1.362,10.547-2.5,19.408-3.294,25.634-.4,3.1-.725,5.545-.939,7.225-.11.829-.2,1.466-.253,1.9l-.071.489A.642.642,0,0,1,143.589,295.526Z" transform="translate(-76.465 -232.037)" fill="#e0e0e0"/>
      <rect id="사각형_151418" data-name="사각형 151418" width="29.362" height="35.703" transform="translate(0.081 14.883) rotate(-7.29)" fill="#f5f5f5"/>
      <rect id="사각형_151419" data-name="사각형 151419" width="29.362" height="26.567" transform="translate(0.085 14.879) rotate(-7.29)" fill="#e0e0e0"/>
      <path id="패스_87654" data-name="패스 87654" d="M72.042,288.316c0,.049-3.755.576-8.4,1.175s-8.417,1.032-8.422.977,3.75-.582,8.4-1.175S72.037,288.261,72.042,288.316Z" transform="translate(-49.79 -246.464)" fill="#e0e0e0"/>
      <path id="패스_87655" data-name="패스 87655" d="M63,293.83a33.717,33.717,0,0,1-3.64.549,34.046,34.046,0,0,1-3.667.368,35.756,35.756,0,0,1,3.64-.549A34.03,34.03,0,0,1,63,293.83Z" transform="translate(-50.002 -248.953)" fill="#e0e0e0"/>
      <path id="패스_87656" data-name="패스 87656" d="M79.073,267.741a.785.785,0,0,0-.027-.17c-.027-.11-.038-.28-.071-.5-.055-.439-.143-1.1-.253-1.916-.22-1.68-.549-4.134-.95-7.242l-3.294-25.579.1.077-29.1,3.739h0l.088-.11c1.647,13.094,3.223,25.255,4.518,35.417l-.093-.071,21.071-2.663,5.929-.736,1.559-.187.549-.06-.549.077-1.543.2-5.88.774L49.964,271.54h-.082v-.082c-1.307-10.135-2.871-22.318-4.551-35.412v-.1h.1l29.1-3.717h.088v.088c1.334,10.552,2.454,19.413,3.239,25.645.384,3.1.692,5.551.9,7.231.1.829.181,1.466.236,1.905a3.606,3.606,0,0,0,.055.483Z" transform="translate(-45.33 -221.173)" fill="#e0e0e0"/>
      <rect id="사각형_151420" data-name="사각형 151420" width="29.362" height="35.703" transform="translate(27.68 0.105) rotate(13.26)" fill="#fff"/>
      <rect id="사각형_151421" data-name="사각형 151421" width="29.362" height="26.567" transform="translate(27.68 0.101) rotate(13.26)" fill="#ebebeb"/>
      <path id="패스_87657" data-name="패스 87657" d="M102.749,269.25c0,.049-3.717-.774-8.274-1.85s-8.235-1.987-8.235-2.042,3.722.774,8.279,1.85S102.766,269.2,102.749,269.25Z" transform="translate(-63.779 -236.111)" fill="#e0e0e0"/>
      <path id="패스_87658" data-name="패스 87658" d="M92.669,270.291a36.383,36.383,0,0,1-3.6-.752,34.74,34.74,0,0,1-3.563-.939,33.646,33.646,0,0,1,3.6.769A33.85,33.85,0,0,1,92.669,270.291Z" transform="translate(-63.45 -237.575)" fill="#e0e0e0"/>
      <path id="패스_87659" data-name="패스 87659" d="M109.341,253.678l.033-.17a3.075,3.075,0,0,1,.11-.489c.1-.434.247-1.065.434-1.889.384-1.647.944-4.057,1.647-7.11,1.427-6.105,3.453-14.785,5.869-25.118l.066.11-28.571-6.726h0l.115-.071c-3.031,12.847-5.853,24.8-8.2,34.748l-.06-.1,20.715,4.941,5.787,1.384,1.532.373.549.132-.516-.11-1.537-.368-5.781-1.34-20.786-4.853H80.66v-.082l8.169-34.753v-.1h.1l28.577,6.742h.082v.088c-2.454,10.344-4.518,19.035-5.968,25.151-.725,3.042-1.3,5.435-1.691,7.082-.2.813-.346,1.438-.45,1.867-.055.2-.093.362-.121.472Z" transform="translate(-61.263 -212.09)" fill="#e0e0e0"/>
      <rect id="사각형_151422" data-name="사각형 151422" width="32.365" height="39.359" transform="translate(306.852 37.79) rotate(-20.94)" fill="#fff"/>
      <rect id="사각형_151423" data-name="사각형 151423" width="32.365" height="29.29" transform="translate(306.849 37.791) rotate(-20.94)" fill="#ebebeb"/>
      <path id="패스_87660" data-name="패스 87660" d="M645.905,323c0,.06-3.843,1.6-8.691,3.448s-8.751,3.294-8.784,3.239,3.843-1.6,8.691-3.448S645.883,322.955,645.905,323Z" transform="translate(-308.295 -262.107)" fill="#e0e0e0"/>
      <path id="패스_87661" data-name="패스 87661" d="M637.348,333.33a76.018,76.018,0,0,1-7.588,2.9,37.952,37.952,0,0,1,3.755-1.554,38.663,38.663,0,0,1,3.832-1.351Z" transform="translate(-308.895 -266.766)" fill="#e0e0e0"/>
      <path id="패스_87662" data-name="패스 87662" d="M648.412,296.519a.388.388,0,0,0-.071-.176l-.2-.511c-.176-.456-.434-1.1-.774-1.993-.67-1.74-1.647-4.282-2.9-7.505-24.591-15.153-20.808-21.45-10.212-26.54l.126.055-30.2,11.579h0l.066-.137c5.194,13.594,10.031,26.238,14.049,36.784l-.115-.049,21.961-8.345c2.641-1,4.716-1.79,6.138-2.322l1.62-.609.549-.209-.549.22-1.636.6-6.1,2.361-21.961,8.455-.088.033-.033-.088-14.066-36.735-.038-.1.1-.038h0l30.229-11.529.088-.033.033.088c4.173,10.98,7.686,20.16,10.141,26.633,1.224,3.223,2.2,5.765,2.849,7.505l.741,1.982.192.505Z" transform="translate(-297.268 -233.552)" fill="#e0e0e0"/>
    </g>
    <g id="freepik--Table--inject-10" transform="translate(48.739 272.099)">
      <path id="패스_87663" data-name="패스 87663" d="M406.714,472.683c0,.077-79.515.143-177.576.143s-177.6-.066-177.6-.143,79.5-.143,177.6-.143S406.714,472.6,406.714,472.683Z" transform="translate(-51.54 -472.54)" fill="#263238"/>
    </g>
    <g id="freepik--color-palette--inject-10" transform="translate(321.591 28.08)">
      <rect id="사각형_151424" data-name="사각형 151424" width="77.632" height="25.568" rx="6.39" transform="translate(16.291 62.414) rotate(-7.42)" fill="#fafafa"/>
      <path id="패스_87664" data-name="패스 87664" d="M581.329,155.64a1.676,1.676,0,0,0,.115.5,3.451,3.451,0,0,0,.719,1.318,3.513,3.513,0,0,0,2.1,1.164,5.05,5.05,0,0,0,1.559-.066l1.779-.236,21.286-2.811,31.574-4.134,9.13-1.191,4.711-.615c.4-.06.8-.093,1.186-.17a3.349,3.349,0,0,0,1.1-.412,3.431,3.431,0,0,0,1.466-1.8,3.218,3.218,0,0,0,.192-1.164,10.37,10.37,0,0,0-.132-1.208c-.1-.818-.214-1.647-.318-2.46-.22-1.647-.434-3.294-.653-4.969q-.653-5.018-1.323-10.157a3.409,3.409,0,0,0-3.464-2.965c-1.675.181-3.371.428-5.035.637l-9.882,1.285-18.667,2.421-31.58,4.09-3.294.428-1.587.2a3.97,3.97,0,0,0-1.466.39,3.448,3.448,0,0,0-1.784,2.2,7.1,7.1,0,0,0,.1,2.745c.461,3.574.851,6.649,1.175,9.163s.549,4.464.736,5.792c.082.659.143,1.164.187,1.5s.055.516.055.516-.033-.176-.077-.511-.121-.846-.209-1.5c-.176-1.329-.439-3.294-.774-5.787s-.741-5.589-1.213-9.158c-.055-.445-.115-.9-.176-1.362a3.728,3.728,0,0,1,.071-1.433,3.6,3.6,0,0,1,1.845-2.289,4.255,4.255,0,0,1,1.515-.406l1.581-.209,3.294-.428,31.6-4.14,18.667-2.438,9.882-1.285c1.647-.209,3.338-.456,5.057-.642a3.623,3.623,0,0,1,3.684,3.157q.675,5.139,1.323,10.157.33,2.5.648,4.941c.11.824.214,1.647.318,2.46.049.406.121.807.137,1.235a3.515,3.515,0,0,1-.209,1.235,3.579,3.579,0,0,1-2.712,2.344c-.406.077-.8.11-1.2.17l-4.749.626-9.125,1.186-31.58,4.09-21.3,2.745-1.779.225a4.941,4.941,0,0,1-1.576.055,3.525,3.525,0,0,1-2.125-1.2,3.354,3.354,0,0,1-.7-1.34,2.2,2.2,0,0,1-.082-.379Z" transform="translate(-562.183 -71.359)" fill="#263238"/>
      <rect id="사각형_151425" data-name="사각형 151425" width="23.52" height="12.051" transform="translate(88.428 54.042) rotate(82.58)" fill="#698cf5"/>
      <rect id="사각형_151426" data-name="사각형 151426" width="23.52" height="12.051" transform="translate(71.503 56.242) rotate(82.58)" fill="#698cf5"/>
      <rect id="사각형_151427" data-name="사각형 151427" width="23.52" height="12.051" transform="translate(54.579 58.447) rotate(82.58)" fill="#698cf5"/>
      <rect id="사각형_151428" data-name="사각형 151428" width="23.52" height="12.051" transform="translate(37.654 60.652) rotate(82.58)" fill="#698cf5"/>
      <g id="그룹_166905" data-name="그룹 166905" transform="translate(76.478 54.042)" opacity="0.5">
        <rect id="사각형_151429" data-name="사각형 151429" width="23.52" height="12.051" transform="translate(11.95 0) rotate(82.58)"/>
      </g>
      <g id="그룹_166906" data-name="그룹 166906" transform="translate(59.553 56.242)" opacity="0.6">
        <rect id="사각형_151430" data-name="사각형 151430" width="23.52" height="12.051" transform="translate(11.95 0) rotate(82.58)"/>
      </g>
      <g id="그룹_166907" data-name="그룹 166907" transform="translate(42.629 58.447)" opacity="0.7">
        <rect id="사각형_151431" data-name="사각형 151431" width="23.52" height="12.051" transform="translate(11.95 0) rotate(82.58)"/>
      </g>
      <g id="그룹_166908" data-name="그룹 166908" transform="translate(25.704 60.652)" opacity="0.8">
        <rect id="사각형_151432" data-name="사각형 151432" width="23.52" height="12.051" transform="translate(11.95 0) rotate(82.58)"/>
      </g>
      <path id="패스_87665" data-name="패스 87665" d="M576.212,131.563,567.9,115.454a3.728,3.728,0,0,1,1.6-5.018l62.375-32.178a3.717,3.717,0,0,1,5.013,1.6l8.29,16.108a3.722,3.722,0,0,1-1.6,5.018L581.225,133.16a3.717,3.717,0,0,1-5.013-1.6Z" transform="translate(-557.071 -50.522)" fill="#fafafa"/>
      <path id="패스_87666" data-name="패스 87666" d="M576.158,131.462a.832.832,0,0,1,.071.11c.049.071.1.187.209.324a3.546,3.546,0,0,0,1.1,1.01,3.634,3.634,0,0,0,2.344.511,3.985,3.985,0,0,0,1.466-.489l1.592-.829,19.035-9.855,28.236-14.6,8.164-4.211,4.216-2.2a5.869,5.869,0,0,0,1.96-1.3,3.623,3.623,0,0,0,.785-3.294,5.514,5.514,0,0,0-.472-1.1l-1.136-2.2-2.295-4.447-4.689-9.086a3.607,3.607,0,0,0-4.238-1.812,6.584,6.584,0,0,0-1.142.516l-1.131.582-2.251,1.164-8.823,4.54-16.69,8.6-28.258,14.555-2.943,1.515-1.417.736a4.342,4.342,0,0,0-1.268.845,3.646,3.646,0,0,0-.807,3.98c.176.417.412.818.609,1.219l4.211,8.2c1.148,2.251,2.042,4,2.652,5.188.3.593.549,1.043.686,1.351s.225.467.225.467-.088-.154-.247-.456l-.7-1.34c-.615-1.186-1.526-2.926-2.69-5.172l-4.255-8.191c-.2-.406-.428-.8-.62-1.23a3.843,3.843,0,0,1,.829-4.129,4.668,4.668,0,0,1,1.3-.873l1.416-.73,2.937-1.521,28.242-14.6,16.679-8.614,8.823-4.551,2.251-1.164,1.131-.582a6.778,6.778,0,0,1,1.18-.549,3.843,3.843,0,0,1,4.491,1.922l4.7,9.114,2.295,4.447,1.131,2.2a5.192,5.192,0,0,1,.489,1.147,3.689,3.689,0,0,1,.121,1.246,3.843,3.843,0,0,1-.95,2.267,3.628,3.628,0,0,1-.955.774c-.357.2-.714.373-1.065.549l-4.222,2.2-8.164,4.195-28.258,14.555-19.062,9.8L581.39,133a4.135,4.135,0,0,1-1.5.489,3.75,3.75,0,0,1-2.377-.549,3.5,3.5,0,0,1-1.1-1.038,2.9,2.9,0,0,1-.2-.329q-.03-.054-.055-.11Z" transform="translate(-557.018 -50.421)" fill="#263238"/>
      <rect id="사각형_151433" data-name="사각형 151433" width="23.52" height="12.051" transform="matrix(0.458, 0.889, -0.889, 0.458, 74.12, 29.24)" fill="#698cf5"/>
      <rect id="사각형_151434" data-name="사각형 151434" width="23.52" height="12.051" transform="matrix(0.458, 0.889, -0.889, 0.458, 58.95, 37.065)" fill="#698cf5"/>
      <rect id="사각형_151435" data-name="사각형 151435" width="23.52" height="12.051" transform="matrix(0.458, 0.889, -0.889, 0.458, 43.788, 44.893)" fill="#698cf5"/>
      <rect id="사각형_151436" data-name="사각형 151436" width="23.52" height="12.051" transform="matrix(0.458, 0.889, -0.889, 0.458, 28.622, 52.716)" fill="#698cf5"/>
      <g id="그룹_166909" data-name="그룹 166909" transform="translate(63.411 29.24)" opacity="0.1">
        <rect id="사각형_151437" data-name="사각형 151437" width="23.52" height="12.051" transform="matrix(0.458, 0.889, -0.889, 0.458, 10.71, 0)"/>
      </g>
      <g id="그룹_166910" data-name="그룹 166910" transform="translate(48.24 37.065)" opacity="0.2">
        <rect id="사각형_151438" data-name="사각형 151438" width="23.52" height="12.051" transform="matrix(0.458, 0.889, -0.889, 0.458, 10.71, 0)"/>
      </g>
      <g id="그룹_166911" data-name="그룹 166911" transform="translate(33.078 44.893)" opacity="0.3">
        <rect id="사각형_151439" data-name="사각형 151439" width="23.52" height="12.051" transform="matrix(0.458, 0.889, -0.889, 0.458, 10.71, 0)"/>
      </g>
      <g id="그룹_166912" data-name="그룹 166912" transform="translate(17.913 52.716)" opacity="0.4">
        <rect id="사각형_151440" data-name="사각형 151440" width="23.52" height="12.051" transform="matrix(0.458, 0.889, -0.889, 0.458, 10.71, 0)"/>
      </g>
      <path id="패스_87667" data-name="패스 87667" d="M574.328,115.695,560.5,104.358a3.843,3.843,0,0,1-.549-5.408l44.345-54.112a3.843,3.843,0,0,1,5.408-.549l13.835,11.337a3.843,3.843,0,0,1,.549,5.408l-44.328,54.1a3.843,3.843,0,0,1-5.43.56Z" transform="translate(-553.282 -35)" fill="#fafafa"/>
      <path id="패스_87668" data-name="패스 87668" d="M574.29,115.612l.11.071c.071.044.17.132.318.214a3.711,3.711,0,0,0,1.405.511,3.843,3.843,0,0,0,2.372-.4,8.475,8.475,0,0,0,2.322-2.372l13.544-16.58,20.089-24.574,5.814-7.1,3-3.667a6.38,6.38,0,0,0,1.307-1.96,3.794,3.794,0,0,0,.044-2.317,3.877,3.877,0,0,0-1.356-1.922q-.955-.774-1.911-1.565L617.5,50.794,609.6,44.316a3.794,3.794,0,0,0-2.289-.846,3.723,3.723,0,0,0-2.322.763,5.126,5.126,0,0,0-.867.889l-.807.983c-.549.659-1.071,1.307-1.6,1.96l-6.308,7.67-11.892,14.5L563.392,94.782l-2.1,2.558-1.032,1.219a4.854,4.854,0,0,0-.84,1.268,3.8,3.8,0,0,0-.038,2.844,3.642,3.642,0,0,0,.736,1.169,10.589,10.589,0,0,0,1.021.9l7.137,5.847c1.949,1.609,3.459,2.86,4.491,3.706l1.164.972c.264.214.39.335.39.335l-.406-.318-1.186-.944-4.519-3.673-7.137-5.82a11.354,11.354,0,0,1-1.038-.906,3.847,3.847,0,0,1-.763-1.213,3.932,3.932,0,0,1,.033-2.943,4.861,4.861,0,0,1,.857-1.3l1.01-1.235,2.092-2.558,20.111-24.58L595.235,55.6l6.286-7.686,1.6-1.96c.269-.324.549-.653.8-.983a5.565,5.565,0,0,1,.906-.928,3.969,3.969,0,0,1,4.9.093l7.9,6.489,3.871,3.168,1.905,1.565a4.046,4.046,0,0,1,1.427,2.02,3.985,3.985,0,0,1-.049,2.454,3.843,3.843,0,0,1-.582,1.1c-.247.324-.505.62-.758.933q-1.515,1.856-3,3.667-2.981,3.624-5.82,7.093L594.483,97.17l-13.6,16.537-1.136,1.384a3.843,3.843,0,0,1-3.629,1.373,3.618,3.618,0,0,1-1.411-.549,4.132,4.132,0,0,1-.417-.3Z" transform="translate(-553.244 -34.917)" fill="#263238"/>
      <rect id="사각형_151441" data-name="사각형 151441" width="23.52" height="12.051" transform="translate(51.082 11.388) rotate(39.33)" fill="#698cf5"/>
      <rect id="사각형_151442" data-name="사각형 151442" width="23.52" height="12.051" transform="translate(40.262 24.587) rotate(39.33)" fill="#698cf5"/>
      <rect id="사각형_151443" data-name="사각형 151443" width="23.52" height="12.051" transform="translate(29.444 37.791) rotate(39.33)" fill="#698cf5"/>
      <rect id="사각형_151444" data-name="사각형 151444" width="23.52" height="12.051" transform="translate(18.628 50.994) rotate(39.33)" fill="#698cf5"/>
      <g id="그룹_166913" data-name="그룹 166913" transform="translate(43.445 11.388)" opacity="0.5">
        <rect id="사각형_151445" data-name="사각형 151445" width="23.52" height="12.051" transform="translate(7.638 0) rotate(39.33)" fill="#fff"/>
      </g>
      <g id="그룹_166914" data-name="그룹 166914" transform="translate(32.624 24.587)" opacity="0.6">
        <rect id="사각형_151446" data-name="사각형 151446" width="23.52" height="12.051" transform="translate(7.638 0) rotate(39.33)" fill="#fff"/>
      </g>
      <g id="그룹_166915" data-name="그룹 166915" transform="translate(21.806 37.791)" opacity="0.7">
        <rect id="사각형_151447" data-name="사각형 151447" width="23.52" height="12.051" transform="translate(7.638 0) rotate(39.33)" fill="#fff"/>
      </g>
      <g id="그룹_166916" data-name="그룹 166916" transform="translate(10.99 50.994)" opacity="0.8">
        <rect id="사각형_151448" data-name="사각형 151448" width="23.52" height="12.051" transform="translate(7.638 0) rotate(39.33)" fill="#fff"/>
      </g>
      <rect id="사각형_151449" data-name="사각형 151449" width="77.632" height="25.568" rx="6.51" transform="translate(0 74.18) rotate(-72.85)" fill="#fafafa"/>
      <path id="패스_87669" data-name="패스 87669" d="M570.228,109.4a4.808,4.808,0,0,0,.505.1,3.552,3.552,0,0,0,3.437-1.477,4.442,4.442,0,0,0,.615-1.427l.549-1.718,6.292-20.511,9.355-30.421q1.318-4.288,2.707-8.784l1.4-4.54c.115-.379.247-.769.346-1.147a3.759,3.759,0,0,0,.088-1.164,3.541,3.541,0,0,0-.988-2.092,3.293,3.293,0,0,0-.961-.686,8.558,8.558,0,0,0-1.147-.4l-2.366-.73-4.788-1.477-9.784-3.02a3.47,3.47,0,0,0-2.443.154,3.393,3.393,0,0,0-1.729,1.713c-.165.373-.275.8-.406,1.2l-.373,1.208c-.247.813-.5,1.647-.747,2.421q-1.488,4.826-2.937,9.5l-5.545,17.959-9.41,30.4-.983,3.168c-.159.516-.318,1.021-.472,1.526a4.063,4.063,0,0,0-.264,1.493,3.492,3.492,0,0,0,1.213,2.558,6.578,6.578,0,0,0,2.515,1.1l8.817,2.745,5.567,1.735,1.444.461.494.159-.5-.137-1.449-.439-5.584-1.7-8.839-2.679-1.312-.406a3.634,3.634,0,0,1-2.515-3.355,4.222,4.222,0,0,1,.264-1.543c.159-.5.313-1.01.472-1.526.313-1.027.642-2.086.972-3.168,2.668-8.669,5.853-19,9.377-30.449,1.762-5.726,3.618-11.733,5.54-17.964.961-3.113,1.938-6.286,2.926-9.5.253-.807.5-1.614.747-2.427l.379-1.213a11.845,11.845,0,0,1,.412-1.224,3.618,3.618,0,0,1,1.834-1.823,3.7,3.7,0,0,1,2.6-.165l9.784,3.02,4.788,1.466,2.361.73a8.782,8.782,0,0,1,1.175.412,3.745,3.745,0,0,1,1.027.725,3.789,3.789,0,0,1,1.043,2.229,3.709,3.709,0,0,1-.093,1.23c-.1.406-.231.774-.346,1.158-.472,1.532-.939,3.042-1.406,4.54q-1.383,4.5-2.712,8.784l-9.41,30.4-6.363,20.5c-.187.6-.362,1.175-.549,1.713-.082.269-.165.549-.258.774l-.17.351c-.071.1-.132.214-.2.318a3.563,3.563,0,0,1-2,1.395,3.42,3.42,0,0,1-1.51.077,2.651,2.651,0,0,1-.379-.088Z" transform="translate(-549.199 -28.736)" fill="#263238"/>
      <rect id="사각형_151450" data-name="사각형 151450" width="23.52" height="12.051" transform="translate(22.412 5.084) rotate(17.15)" fill="#698cf5"/>
      <rect id="사각형_151451" data-name="사각형 151451" width="23.52" height="12.051" transform="translate(17.378 21.393) rotate(17.15)" fill="#698cf5"/>
      <rect id="사각형_151452" data-name="사각형 151452" width="23.52" height="12.051" transform="translate(12.347 37.703) rotate(17.15)" fill="#698cf5"/>
      <rect id="사각형_151453" data-name="사각형 151453" width="23.515" height="12.051" transform="translate(7.318 54.007) rotate(17.15)" fill="#698cf5"/>
      <g id="그룹_166917" data-name="그룹 166917" transform="translate(13.824 21.393)" opacity="0.2">
        <rect id="사각형_151454" data-name="사각형 151454" width="23.52" height="12.051" transform="translate(3.553 0) rotate(17.15)" fill="#fff"/>
      </g>
      <g id="그룹_166918" data-name="그룹 166918" transform="translate(8.793 37.703)" opacity="0.3">
        <rect id="사각형_151455" data-name="사각형 151455" width="23.52" height="12.051" transform="translate(3.553 0) rotate(17.15)" fill="#fff"/>
      </g>
      <g id="그룹_166919" data-name="그룹 166919" transform="translate(3.764 54.007)" opacity="0.4">
        <rect id="사각형_151456" data-name="사각형 151456" width="23.515" height="12.051" transform="translate(3.553 0) rotate(17.15)" fill="#fff"/>
      </g>
      <g id="그룹_166920" data-name="그룹 166920" transform="translate(18.859 5.084)" opacity="0.1">
        <rect id="사각형_151457" data-name="사각형 151457" width="23.52" height="12.051" transform="translate(3.553 0) rotate(17.15)" fill="#fff"/>
      </g>
      <path id="패스_87670" data-name="패스 87670" d="M587.2,164.813a2.827,2.827,0,1,1-1.021-3.843,2.828,2.828,0,0,1,1.021,3.843Z" transform="translate(-563.581 -87.835)" fill="#455a64"/>
      <path id="패스_87671" data-name="패스 87671" d="M587.1,164.717a3.662,3.662,0,0,0,.231-.653,2.811,2.811,0,0,0-.132-1.823,2.751,2.751,0,0,0-5.276,1.323,2.7,2.7,0,0,0,.615,1.46,2.745,2.745,0,0,0,2.432.983,2.811,2.811,0,0,0,1.647-.785,3.908,3.908,0,0,0,.45-.549c.017,0,0,.06-.077.165a2.317,2.317,0,0,1-.313.417,2.811,2.811,0,0,1-1.7.878,3,3,0,0,1-1.334-.132,2.921,2.921,0,0,1-1.268-.878,2.871,2.871,0,0,1-.67-1.565,2.938,2.938,0,0,1,5.644-1.378,2.8,2.8,0,0,1,.071,1.905,1.981,1.981,0,0,1-.209.483C587.146,164.667,587.113,164.722,587.1,164.717Z" transform="translate(-563.481 -87.738)" fill="#263238"/>
    </g>
    <g id="freepik--Blueprint--inject-10" transform="translate(142.875 49.514)">
      <rect id="사각형_151458" data-name="사각형 151458" width="186.239" height="124.161" transform="translate(0.115 0.143)" fill="#fafafa"/>
      <path id="패스_87672" data-name="패스 87672" d="M409.36,191.424c0-.933-.044-48.484-.115-124.161l.115.11-186.228.033h0l.143-.143V191.424l-.132-.132,186.245.132-186.245.126H223V67.12H409.5v.115C409.4,142.94,409.36,190.491,409.36,191.424Z" transform="translate(-223 -67.12)" fill="#263238"/>
      <path id="패스_87673" data-name="패스 87673" d="M381.227,148.152v-1.543c0-1.01,0-2.465-.033-4.315,0-3.717-.033-9.02-.06-15.417l.121.115H353.913c-.033,0,.269-.269.143-.143h0v21.291l-.126-.132,19.715.066,5.605.033h.055l-5.578.033-19.831.154h-.126V126.883h0l.143-.143h27.435v.143c-.027,6.429-.044,11.755-.06,15.488,0,1.845,0,3.294-.033,4.293v1.1A2.281,2.281,0,0,1,381.227,148.152Z" transform="translate(-281.974 -94.007)" fill="#263238"/>
      <path id="패스_87674" data-name="패스 87674" d="M388.206,180.64H241.43V87.07H388.206Zm-146.227-.549H387.657V87.619H241.979Z" transform="translate(-231.312 -76.117)" fill="#263238"/>
      <rect id="사각형_151459" data-name="사각형 151459" width="146.227" height="4.738" transform="translate(10.393 11.228)" fill="#263238"/>
      <rect id="사각형_151460" data-name="사각형 151460" width="5.309" height="67.678" transform="translate(10.393 36.57)" fill="#263238"/>
      <rect id="사각형_151461" data-name="사각형 151461" width="5.309" height="8.922" transform="translate(10.393 11.228)" fill="#263238"/>
      <path id="패스_87675" data-name="패스 87675" d="M257.721,116.463l-9.7-14.275,1.707-1.158,9.7,14.275Zm-8.938-14.126,9.108,13.363.8-.549-9.081-13.363Z" transform="translate(-234.283 -82.413)" fill="#263238"/>
      <path id="패스_87676" data-name="패스 87676" d="M266.765,179.726H254V166h12.754Zm-12.216-.549H266.2V166.549H254.549Z" transform="translate(-236.98 -111.713)" fill="#263238"/>
      <rect id="사각형_151462" data-name="사각형 151462" width="146.227" height="5.358" transform="translate(10.393 98.89)" fill="#263238"/>
      <path id="패스_87677" data-name="패스 87677" d="M262.632,179.443a3.656,3.656,0,1,1,3.651-3.657A3.657,3.657,0,0,1,262.632,179.443Zm0-6.764a3.107,3.107,0,1,0,3.1,3.107A3.107,3.107,0,0,0,262.632,172.679Z" transform="translate(-239.222 -114.477)" fill="#263238"/>
      <path id="패스_87678" data-name="패스 87678" d="M384.622,109.041H335.21V95.7h49.412Zm-48.863-.549h48.314V96.249H335.759Z" transform="translate(-273.604 -80.009)" fill="#263238"/>
      <path id="패스_87679" data-name="패스 87679" d="M360.809,108.14,355,103.292l4.848-5.792,5.792,4.848Zm-5.024-4.914,4.941,4.145,4.145-4.941-4.941-4.145Z" transform="translate(-282.529 -80.821)" fill="#263238"/>
      <path id="패스_87680" data-name="패스 87680" d="M374.872,108.14l-5.792-4.848,4.848-5.792,5.8,4.848Zm-5.018-4.914,4.941,4.145,4.145-4.941L374,98.285Z" transform="translate(-288.879 -80.821)" fill="#263238"/>
      <path id="패스_87681" data-name="패스 87681" d="M388.928,108.14l-5.8-4.848L388,97.5l5.8,4.848Zm-5.024-4.914,4.941,4.145,4.145-4.941-4.941-4.145Z" transform="translate(-295.215 -80.821)" fill="#263238"/>
      <path id="패스_87682" data-name="패스 87682" d="M435.809,108a4.529,4.529,0,1,1,4.529-4.529A4.529,4.529,0,0,1,435.809,108Zm0-8.51a3.98,3.98,0,1,0,3.98,3.98A3.98,3.98,0,0,0,435.809,99.489Z" transform="translate(-316.93 -81.47)" fill="#263238"/>
      <path id="패스_87683" data-name="패스 87683" d="M312.087,107.647H290.9V95.7h21.187Zm-20.638-.549h20.089V96.249H291.449Z" transform="translate(-253.621 -80.009)" fill="#263238"/>
      <path id="패스_87684" data-name="패스 87684" d="M489.832,141.853H477.6v-31.5h12.232Zm-11.683-.549h11.134V110.9H478.149Z" transform="translate(-337.819 -86.616)" fill="#263238"/>
      <rect id="사각형_151463" data-name="사각형 151463" width="4.881" height="87.662" transform="translate(151.739 11.228)" fill="#263238"/>
      <path id="패스_87685" data-name="패스 87685" d="M463.336,143.571h-.889a3.722,3.722,0,0,1-3.717-3.717v-7.137A3.722,3.722,0,0,1,462.447,129h.889a3.722,3.722,0,0,1,3.717,3.717v7.137A3.722,3.722,0,0,1,463.336,143.571Zm-.889-14.022a3.173,3.173,0,0,0-3.168,3.168v7.137a3.173,3.173,0,0,0,3.168,3.168h.889a3.173,3.173,0,0,0,3.168-3.168v-7.137a3.173,3.173,0,0,0-3.168-3.168Z" transform="translate(-329.309 -95.026)" fill="#263238"/>
      <path id="패스_87686" data-name="패스 87686" d="M311.944,195.133c0,.077-13.863.143-30.959.143s-30.965-.066-30.965-.143,13.857-.143,30.965-.143S311.944,195.056,311.944,195.133Z" transform="translate(-235.185 -124.786)" fill="#263238"/>
      <path id="패스_87687" data-name="패스 87687" d="M361.883,206.508a9.715,9.715,0,0,1-.1-1.724c-.027-1.065-.038-2.542-.038-4.167s0-3.1.038-4.167a9.748,9.748,0,0,1,.1-1.729,10.939,10.939,0,0,1,.1,1.729c0,1.065.044,2.536.044,4.167s0,3.1-.044,4.167A10.9,10.9,0,0,1,361.883,206.508Z" transform="translate(-285.569 -124.665)" fill="#263238"/>
      <path id="패스_87688" data-name="패스 87688" d="M267.269,224.211H251.1V194.75h16.169Zm-15.62-.549H266.72V195.3H251.649Z" transform="translate(-235.672 -124.678)" fill="#263238"/>
      <path id="패스_87689" data-name="패스 87689" d="M519.379,87.453c0,.077-6.089.143-13.6.143s-13.6-.066-13.6-.143,6.083-.143,13.6-.143S519.379,87.37,519.379,87.453Z" transform="translate(-344.394 -76.225)" fill="#263238"/>
      <path id="패스_87690" data-name="패스 87690" d="M541.2,186.88c-.077,0-.143-23.432-.143-52.327s.066-52.333.143-52.333.143,23.427.143,52.333S541.28,186.88,541.2,186.88Z" transform="translate(-366.438 -73.93)" fill="#263238"/>
      <path id="패스_87691" data-name="패스 87691" d="M531.211,257.273c0,.082-5.457.148-12.183.148s-12.188-.066-12.188-.148,5.457-.143,12.188-.143S531.211,257.2,531.211,257.273Z" transform="translate(-351.005 -152.81)" fill="#263238"/>
      <path id="패스_87692" data-name="패스 87692" d="M507.5,263.122a52.662,52.662,0,0,1-.143-5.441,52.662,52.662,0,0,1,.143-5.441,50.861,50.861,0,0,1,.143,5.441A50.861,50.861,0,0,1,507.5,263.122Z" transform="translate(-351.23 -150.605)" fill="#263238"/>
      <path id="패스_87693" data-name="패스 87693" d="M244.07,267.983c0-.082,36.236-.143,80.942-.143s80.948.06,80.948.143-36.236.143-80.948.143S244.07,268.06,244.07,267.983Z" transform="translate(-232.502 -157.64)" fill="#263238"/>
      <path id="패스_87694" data-name="패스 87694" d="M242.757,265.7a66.375,66.375,0,0,1,0-8.7,66.389,66.389,0,0,1,0,8.7Z" transform="translate(-231.837 -152.752)" fill="#263238"/>
      <path id="패스_87695" data-name="패스 87695" d="M258.062,127a2.2,2.2,0,0,1-.4.379,13.754,13.754,0,0,1-1.186.906,16.108,16.108,0,0,1-4.431,2.125,19.512,19.512,0,0,1-4.853.774h-1.488a1.8,1.8,0,0,1-.549-.049c0-.049.774-.06,2.02-.154a23.178,23.178,0,0,0,4.782-.851,18.178,18.178,0,0,0,4.392-2.02C257.42,127.437,258.029,126.954,258.062,127Z" transform="translate(-232.994 -94.122)" fill="#263238"/>
      <path id="패스_87696" data-name="패스 87696" d="M370.031,229.843l-9.7-14.275,1.707-1.158,9.7,14.275Zm-8.938-14.126,9.081,13.363.8-.549-9.086-13.358Z" transform="translate(-284.933 -133.544)" fill="#263238"/>
      <path id="패스_87697" data-name="패스 87697" d="M370.4,240.358a1.991,1.991,0,0,1-.4.379,12.71,12.71,0,0,1-1.186.906,15.948,15.948,0,0,1-4.431,2.13,20.039,20.039,0,0,1-4.853.774h-1.488a1.849,1.849,0,0,1-.549-.055c0-.044.774-.06,2.02-.154a23.116,23.116,0,0,0,4.782-.846,18.164,18.164,0,0,0,4.392-2.026C369.738,240.808,370.347,240.32,370.4,240.358Z" transform="translate(-283.656 -145.246)" fill="#263238"/>
      <path id="패스_87698" data-name="패스 87698" d="M353.883,108.6c-.077,0-.143-2.674-.143-5.968s.066-5.973.143-5.973.143,2.674.143,5.973S353.949,108.6,353.883,108.6Z" transform="translate(-281.961 -80.442)" fill="#263238"/>
      <path id="패스_87699" data-name="패스 87699" d="M402.883,109.438c-.077,0-.143-2.7-.143-6.039s.066-6.039.143-6.039.148,2.7.148,6.039S402.943,109.438,402.883,109.438Z" transform="translate(-304.059 -80.758)" fill="#263238"/>
      <path id="패스_87700" data-name="패스 87700" d="M463.7,189.269a1.144,1.144,0,0,1,0-.3c0-.231.044-.516.077-.862.088-.785.2-1.856.346-3.162l.549-4.683a6.727,6.727,0,0,0,.088-1.323,1.18,1.18,0,0,0-.714-.994,8.823,8.823,0,0,0-1.378-.4l-1.477-.357-10.184-2.515-3.08-.8-.834-.231a.994.994,0,0,1-.285-.1,1.1,1.1,0,0,1,.3.044l.846.176,3.1.708,10.206,2.438,1.471.357a8.273,8.273,0,0,1,1.444.417,1.647,1.647,0,0,1,.6.494,1.494,1.494,0,0,1,.253.719,6.3,6.3,0,0,1-.1,1.389c-.225,1.751-.434,3.333-.609,4.678s-.329,2.366-.439,3.146q-.071.516-.132.856A1.1,1.1,0,0,1,463.7,189.269Z" transform="translate(-323.933 -115.118)" fill="#263238"/>
      <path id="패스_87701" data-name="패스 87701" d="M453.065,171.63a10.537,10.537,0,0,1-1.718.39c-1.1.2-2.553.467-4.195.741l.088-.231.049.06c1.054,1.312,1.993,2.509,2.663,3.387a10.738,10.738,0,0,1,1.032,1.455,10.982,10.982,0,0,1-1.191-1.329c-.708-.846-1.647-2.026-2.745-3.338l-.044-.06-.154-.187.242-.044c1.647-.269,3.129-.5,4.206-.653a10.978,10.978,0,0,1,1.768-.192Z" transform="translate(-323.951 -114.252)" fill="#263238"/>
      <path id="패스_87702" data-name="패스 87702" d="M313.116,174.411H280.46V152.78h32.656Zm-32.107-.549h31.558V153.329H281.009Z" transform="translate(-248.913 -105.751)" fill="#263238"/>
      <path id="패스_87703" data-name="패스 87703" d="M297.113,174.487c-.077,0-.143-4.645-.143-10.371s.066-10.366.143-10.366.143,4.639.143,10.366S297.2,174.487,297.113,174.487Z" transform="translate(-256.359 -106.188)" fill="#263238"/>
      <path id="패스_87704" data-name="패스 87704" d="M323.993,174.415c-.077,0-.143-4.628-.143-10.333s.066-10.333.143-10.333.143,4.623.143,10.333S324.075,174.415,323.993,174.415Z" transform="translate(-268.481 -106.188)" fill="#263238"/>
      <path id="패스_87705" data-name="패스 87705" d="M375.3,144s-1.784,26.15.439,30.383H403.09l-1.1-29.164Z" transform="translate(-291.38 -101.791)" fill="#e0e0e0"/>
      <path id="패스_87706" data-name="패스 87706" d="M375.86,144c.192,10.882,1.1,20.72,3.08,29.06l30.778.231s-3.036-25.008-3.036-29.29Z" transform="translate(-291.936 -101.791)" fill="#698cf5"/>
      <path id="패스_87707" data-name="패스 87707" d="M408.526,158.02a2.431,2.431,0,0,1-.368.412,4.513,4.513,0,0,1-3.843,1.125,4.667,4.667,0,0,1-2.827-1.729,3.352,3.352,0,0,1-.483-.846,1.592,1.592,0,0,1-.06-1.038,1.153,1.153,0,0,1,.791-.763.9.9,0,0,1,.593.077.967.967,0,0,1,.4.45,2.4,2.4,0,0,1-.4,2.235,5.638,5.638,0,0,1-1.735,1.68,5.49,5.49,0,0,1-5.013.478,3.047,3.047,0,0,1-1.823-2.031,2.273,2.273,0,0,1,.209-1.433,1.839,1.839,0,0,1,1.1-.983,1.587,1.587,0,0,1,1.444.285,2.246,2.246,0,0,1,.791,1.213,2.2,2.2,0,0,1-.121,1.422,3.223,3.223,0,0,1-.813,1.126,4.9,4.9,0,0,1-4.941.824,4.771,4.771,0,0,1-2-1.356,5.177,5.177,0,0,1-1.043-2.026,4.974,4.974,0,0,1-.1-2.119,3.624,3.624,0,0,1,.291-.972,1.307,1.307,0,0,1,.7-.714.911.911,0,0,1,.933.2,1.8,1.8,0,0,1,.467.763,3.2,3.2,0,0,1,0,1.592,4.32,4.32,0,0,1-1.252,2.2,3.985,3.985,0,0,1-1.351.84,2.058,2.058,0,0,1-.549.137,4.535,4.535,0,0,0,1.812-1.06,4.249,4.249,0,0,0,1.2-2.13,3.024,3.024,0,0,0-.038-1.5,1.592,1.592,0,0,0-.417-.681.725.725,0,0,0-.736-.154,1.164,1.164,0,0,0-.582.615,3.536,3.536,0,0,0-.258.917,4.923,4.923,0,0,0,1.12,3.947,4.562,4.562,0,0,0,1.889,1.285,4.65,4.65,0,0,0,4.656-.78,2.932,2.932,0,0,0,.741-1.032,1.927,1.927,0,0,0,.11-1.241,1.966,1.966,0,0,0-.692-1.06,1.307,1.307,0,0,0-1.186-.242,1.867,1.867,0,0,0-1.1,2.092,2.745,2.745,0,0,0,1.647,1.828,5.408,5.408,0,0,0,6.418-2.037,2.746,2.746,0,0,0,.456-.988,1.741,1.741,0,0,0-.06-1.01.642.642,0,0,0-.73-.4.933.933,0,0,0-.631.609,1.982,1.982,0,0,0,.5,1.686,4.392,4.392,0,0,0,5.117,1.482A5.04,5.04,0,0,0,408.526,158.02Z" transform="translate(-297.195 -105.978)" fill="#263238"/>
      <path id="패스_87708" data-name="패스 87708" d="M413.4,178.2a5.523,5.523,0,0,1-1.707.895,7.263,7.263,0,0,1-2.235.39,7.138,7.138,0,0,1-2.948-.549,3.843,3.843,0,0,1-1.482-.977,1.246,1.246,0,0,1-.291-.944,1.027,1.027,0,0,1,.62-.829.835.835,0,0,1,.972.445,1.191,1.191,0,0,1,0,1.1,2.591,2.591,0,0,1-.67.862,4.452,4.452,0,0,1-.895.664,5.754,5.754,0,0,1-4.546.5,5.056,5.056,0,0,1-2.125-1.263,3.2,3.2,0,0,1-.719-1.1,1.878,1.878,0,0,1-.049-1.329,1.57,1.57,0,0,1,.9-.994,1.323,1.323,0,0,1,1.307.242,1.768,1.768,0,0,1,.637,1.131,2.531,2.531,0,0,1-.17,1.252,4.892,4.892,0,0,1-3.547,2.849,4.941,4.941,0,0,1-4.008-1,3.151,3.151,0,0,1-1.1-1.559,2.13,2.13,0,0,1-.077-.928,1.235,1.235,0,0,1,.472-.774,1.323,1.323,0,0,1,1.581.093,1.548,1.548,0,0,1,.626,1.29,2.674,2.674,0,0,1-1.06,1.976,6.287,6.287,0,0,1-1.219.752l-.34.154-.115.044a3.628,3.628,0,0,1,.428-.247,7.4,7.4,0,0,0,1.175-.785,2.564,2.564,0,0,0,.972-1.894,1.394,1.394,0,0,0-.549-1.147,1.148,1.148,0,0,0-1.356-.071,1,1,0,0,0-.384.648,1.856,1.856,0,0,0,.082.824,2.9,2.9,0,0,0,1.06,1.438,4.623,4.623,0,0,0,7.137-1.757,2.229,2.229,0,0,0,.154-1.1,1.482,1.482,0,0,0-.549-.95,1.027,1.027,0,0,0-1.021-.192,1.29,1.29,0,0,0-.736.813,1.647,1.647,0,0,0,.044,1.136,3.009,3.009,0,0,0,.659.977,4.843,4.843,0,0,0,2,1.2,5.49,5.49,0,0,0,4.332-.467,4.145,4.145,0,0,0,.845-.62,2.41,2.41,0,0,0,.626-.78.955.955,0,0,0,0-.878.582.582,0,0,0-.675-.335.791.791,0,0,0-.472.637,1.021,1.021,0,0,0,.242.774,3.772,3.772,0,0,0,1.384.928,6.962,6.962,0,0,0,2.871.587,7.257,7.257,0,0,0,2.2-.335A10.218,10.218,0,0,0,413.4,178.2Z" transform="translate(-298.859 -115.767)" fill="#263238"/>
    </g>
    <g id="freepik--Picture--inject-10" transform="translate(50.844 34.668)">
      <rect id="사각형_151464" data-name="사각형 151464" width="68.507" height="68.507" transform="matrix(0.994, -0.113, 0.113, 0.994, 5.655, 8.678)" fill="#fff"/>
      <path id="패스_87709" data-name="패스 87709" d="M141.4,109.705a1.815,1.815,0,0,0-.044-.324c-.044-.214-.066-.549-.115-.939-.1-.835-.242-2.059-.428-3.656-.373-3.2-.917-7.878-1.614-13.835l-5.682-49.3.137.11-68.079,7.78h0l.121-.159c2.838,24.926,5.49,48.314,7.747,68.079l-.137-.11,49.313-5.562,13.846-1.543,3.656-.406.939-.1.324-.027-.307.038-.928.115-3.629.428-13.808,1.609L73.35,117.589H73.23v-.126C70.968,97.7,68.288,74.326,65.45,49.384v-.143h.143L133.672,41.5h.126v.126c2.306,20.429,4.227,37.46,5.573,49.412l1.543,13.819c.176,1.587.307,2.806.4,3.635l.1.928A2.219,2.219,0,0,0,141.4,109.705Z" transform="translate(-59.918 -40.72)" fill="#263238"/>
      <rect id="사각형_151465" data-name="사각형 151465" width="61.43" height="61.43" transform="matrix(0.994, -0.113, 0.113, 0.994, 9.574, 11.79)" fill="#ebebeb"/>
      <path id="패스_87710" data-name="패스 87710" d="M140.7,109.816a1.588,1.588,0,0,0-.038-.285c-.038-.187-.06-.478-.1-.845q-.132-1.12-.39-3.294c-.335-2.871-.824-7.066-1.449-12.408-1.23-10.678-2.992-25.919-5.106-44.2l.137.11L72.728,55.885h0l.126-.154c2.542,22.351,4.941,43.3,6.94,61.035l-.137-.11,44.213-4.98,12.413-1.384,3.294-.362.846-.088h.291l-.275.038-.835.1-3.25.384-12.38,1.444-44.3,5.111h-.121V116.8c-2.026-17.739-4.42-38.684-6.978-61.035v-.137h.143l61.029-6.973h.126v.121c2.064,18.321,3.783,33.595,4.991,44.29l1.378,12.391c.159,1.422.28,2.515.357,3.256.038.368.071.642.088.835A1.924,1.924,0,0,1,140.7,109.816Z" transform="translate(-63.134 -43.949)" fill="#263238"/>
      <path id="패스_87711" data-name="패스 87711" d="M146.066,129.76c-.027,0,2.317,12.869,2.317,12.869l-2.311.264-3.991-12.452Z" transform="translate(-94.476 -80.523)" fill="#455a64"/>
      <path id="패스_87712" data-name="패스 87712" d="M170.626,126.54c-.027,0,2.311,12.875,2.311,12.875l-2.311.264L166.64,127.2Z" transform="translate(-105.552 -79.071)" fill="#455a64"/>
      <path id="패스_87713" data-name="패스 87713" d="M102.76,134.24l.006,13.594,2.295-.264,1.6-13.319Z" transform="translate(-76.744 -82.543)" fill="#455a64"/>
      <path id="패스_87714" data-name="패스 87714" d="M136.988,76.107c.439,4.705,2.1,19.688-1.384,27.116l-15.8,2.009-25.552,2.91S87.5,98.65,87.06,89.179l12.628-5.4s1.856-5.49,4.041-5.638c1.543-.11,24.635-2.849,31.338-3.58a1.713,1.713,0,0,1,1.922,1.548Z" transform="translate(-69.664 -55.622)" fill="#698cf5"/>
      <path id="패스_87715" data-name="패스 87715" d="M156.689,75v.093a1.2,1.2,0,0,1-.11.275c-.1.231-.269.549-.5,1-.456.862-1.158,2.081-2.053,3.569a6.5,6.5,0,0,1-.807,1.1,3.843,3.843,0,0,1-1.235.878c-.95.39-1.949.807-3,1.268s-2.152.95-3.267,1.5a17.425,17.425,0,0,0-1.647.9,6.477,6.477,0,0,0-.8.549,1.444,1.444,0,0,0-.549.7,15.317,15.317,0,0,0-.5,1.867c-.132.631-.258,1.252-.368,1.867-.231,1.224-.439,2.41-.626,3.547-.362,2.256-.686,4.3-.961,6.039l-.631,4.063c-.071.456-.132.824-.176,1.1a1.911,1.911,0,0,1-.082.384,2.07,2.07,0,0,1,0-.39c.033-.285.077-.653.126-1.1.121-.961.3-2.355.549-4.079s.549-3.766.906-6.039c.181-1.136.379-2.322.6-3.552.11-.62.242-1.241.373-1.878a14.677,14.677,0,0,1,.511-1.922,1.7,1.7,0,0,1,.648-.813c.269-.2.549-.379.824-.549.549-.329,1.126-.626,1.691-.9q1.647-.824,3.294-1.5c1.1-.456,2.07-.862,3.014-1.241a3.525,3.525,0,0,0,1.164-.813,6.137,6.137,0,0,0,.774-1.1c.917-1.477,1.647-2.679,2.13-3.519.247-.417.428-.747.549-.972a2.611,2.611,0,0,1,.159-.34Z" transform="translate(-93.251 -55.827)" fill="#263238"/>
      <path id="패스_87716" data-name="패스 87716" d="M146.69,105.722a2.464,2.464,0,0,1,.027-.384c.033-.28.071-.642.126-1.1.126-.983.307-2.344.549-4.013s.516-3.711.856-5.946c.165-1.1.351-2.289.549-3.5.1-.6.209-1.224.329-1.85.066-.313.126-.62.22-.95l.077-.247a.747.747,0,0,1,.159-.236,2.469,2.469,0,0,1,.4-.329,26.088,26.088,0,0,1,3.393-1.773c1.1-.511,2.2-.983,3.245-1.427s2.026-.867,2.932-1.3a4.3,4.3,0,0,0,1.806-1.949,30.844,30.844,0,0,0,1.609-3.7c.159-.423.28-.769.379-1.032a3.347,3.347,0,0,1,.143-.357,1.5,1.5,0,0,1-.088.379c-.066.242-.181.593-.329,1.049a27.8,27.8,0,0,1-1.532,3.755,8.236,8.236,0,0,1-.708,1.158,2.778,2.778,0,0,1-.516.549,3.592,3.592,0,0,1-.659.379c-.911.439-1.894.862-2.932,1.323s-2.136.944-3.272,1.433a25.952,25.952,0,0,0-3.294,1.751,2.357,2.357,0,0,0-.351.291.4.4,0,0,0-.11.159l-.066.214c-.082.291-.143.615-.209.922-.121.62-.231,1.235-.335,1.839q-.3,1.823-.549,3.5c-.346,2.2-.653,4.233-.917,5.929s-.467,3.02-.615,4c-.077.45-.132.813-.181,1.1A1.907,1.907,0,0,1,146.69,105.722Z" transform="translate(-96.555 -56.112)" fill="#263238"/>
      <path id="패스_87717" data-name="패스 87717" d="M104.8,123.318a1.647,1.647,0,0,1-.165-.307l-.439-.917c-.368-.8-.895-1.955-1.526-3.387s-1.4-3.14-2.1-5.117a1.2,1.2,0,0,1,.055-.862,1.647,1.647,0,0,1,.6-.631,3.684,3.684,0,0,1,1.647-.549l3.475-.4,12.2-1.351,3.7-.379,1-.088a2.194,2.194,0,0,1,.357,0,1.725,1.725,0,0,1-.346.071l-1,.143-3.689.467-12.188,1.427-3.475.4a3.437,3.437,0,0,0-1.515.472,1.378,1.378,0,0,0-.505.516.922.922,0,0,0-.044.675c.675,1.938,1.438,3.657,2.037,5.106s1.1,2.586,1.444,3.426l.384.933A1.422,1.422,0,0,1,104.8,123.318Z" transform="translate(-75.729 -71.308)" fill="#263238"/>
      <path id="패스_87718" data-name="패스 87718" d="M104.74,124.986c0-.077,4.392-.642,9.795-1.257s9.822-1.06,9.827-.977-4.392.642-9.795,1.263S104.751,125.08,104.74,124.986Z" transform="translate(-77.637 -77.358)" fill="#263238"/>
      <path id="패스_87719" data-name="패스 87719" d="M87.06,100.691a1.241,1.241,0,0,1,.461-.264,4.656,4.656,0,0,1,1.416-.335,3.547,3.547,0,0,1,2.119.434,2.745,2.745,0,0,1,.911.955,7.581,7.581,0,0,1,.6,1.235c.609,1.762,1.1,3.338,1.488,4.5a12.946,12.946,0,0,1,.549,1.894,13.142,13.142,0,0,1-.725-1.823c-.423-1.131-.972-2.745-1.57-4.464a7.026,7.026,0,0,0-.549-1.191,2.537,2.537,0,0,0-.791-.884,3.42,3.42,0,0,0-1.966-.45A7.34,7.34,0,0,0,87.06,100.691Z" transform="translate(-69.664 -67.135)" fill="#263238"/>
      <path id="패스_87720" data-name="패스 87720" d="M117.058,102.312a2.514,2.514,0,0,1-.2-.549c-.115-.362-.269-.884-.45-1.532-.368-1.29-.851-3.086-1.373-5.067A9.64,9.64,0,0,0,114,92.523a3.876,3.876,0,0,0-1.691-1.51,2.893,2.893,0,0,0-1.51-.253c-.362.044-.549.132-.549.11s.038-.038.132-.082a1.526,1.526,0,0,1,.417-.137,2.745,2.745,0,0,1,1.6.181,3.882,3.882,0,0,1,1.823,1.548,9.235,9.235,0,0,1,1.1,2.712c.549,1.982.977,3.783,1.3,5.089.154.653.28,1.186.357,1.554A1.955,1.955,0,0,1,117.058,102.312Z" transform="translate(-80.122 -62.865)" fill="#263238"/>
      <path id="패스_87721" data-name="패스 87721" d="M130.672,92.425a1.35,1.35,0,0,0-.8.2.648.648,0,0,0-.3.714.818.818,0,0,0,.664.692.736.736,0,0,0,.8-.456.812.812,0,0,0-.049-.807,1.323,1.323,0,0,0-.708-.412.453.453,0,0,1,.247-.038.961.961,0,0,1,.62.324,1.021,1.021,0,0,1,.137,1.032,1.1,1.1,0,0,1-.406.505,1,1,0,0,1-.686.137,1.1,1.1,0,0,1-.867-.933.824.824,0,0,1,.1-.582.934.934,0,0,1,.357-.346,1.027,1.027,0,0,1,.681-.137C130.606,92.354,130.683,92.414,130.672,92.425Z" transform="translate(-88.718 -63.634)" fill="#263238"/>
      <path id="패스_87722" data-name="패스 87722" d="M152.239,90.509c-.049,0-.176-.313-.549-.384h-.027a.829.829,0,0,0-.6.049.736.736,0,0,0-.494.631h0c.044.285.1.456.071.478s-.176-.132-.275-.423h0a.906.906,0,0,1,.576-.928,1.032,1.032,0,0,1,.807,0h0a.725.725,0,0,1,.483.4A.178.178,0,0,1,152.239,90.509Z" transform="translate(-98.212 -62.525)" fill="#263238"/>
      <g id="그룹_166921" data-name="그룹 166921" transform="translate(25.423 30.757)" opacity="0.3">
        <path id="패스_87723" data-name="패스 87723" d="M124.168,103.358a22.768,22.768,0,0,1,1.378-7.258,5.861,5.861,0,0,0-1.647,2.542,3.93,3.93,0,0,1-1.911,2.278c-.955.357-1.916,0-2.882.049-1.213.033-2.383.609-3.591.505a4.332,4.332,0,0,1-2.745-1.5,12.885,12.885,0,0,1-1.729-2.685c.313,1.5.6,3.173-.176,4.5-.884,1.515-2.8,2.009-4.529,2.322s-3.64.708-4.656,2.136a8.488,8.488,0,0,1,2.24-.549Z" transform="translate(-101.68 -96.1)"/>
      </g>
      <rect id="사각형_151466" data-name="사각형 151466" width="4.738" height="25.002" transform="matrix(0.665, 0.747, -0.747, 0.665, 18.677, 0)" fill="#e0e0e0"/>
    </g>
    <g id="freepik--Character--inject-10" transform="translate(63.688 80.223)">
      <path id="패스_87724" data-name="패스 87724" d="M378.33,311.595l13.127-14.582L401.8,296.2l1.57,11.184L395,311.122l-9.13,9.613L380.334,322Z" transform="translate(-213.864 -201.139)" fill="#efbe9d"/>
      <rect id="사각형_151467" data-name="사각형 151467" width="99.302" height="115.921" transform="translate(168.225 134.825) rotate(-78.04)" fill="#fff"/>
      <path id="패스_87725" data-name="패스 87725" d="M498.443,312.725,518.9,215.548l.093.143L405.593,191.7h0l.17-.11c-7.472,35.247-14.511,68.469-20.588,97.144l-.1-.148,113.373,24.157L385.021,288.853H384.9v-.126c6.072-28.675,13.1-61.9,20.561-97.144l.027-.143h.137l113.417,24.025h.121l-.027.121C506.679,274.1,498.658,311.736,498.443,312.725Z" transform="translate(-216.827 -153.894)" fill="#263238"/>
      <rect id="사각형_151468" data-name="사각형 151468" width="89.902" height="105.429" transform="translate(174.333 131.315) rotate(-78.04)" fill="#ebebeb"/>
      <path id="패스_87726" data-name="패스 87726" d="M499.32,311.692s.11-.549.329-1.62.549-2.646.983-4.7c.862-4.118,2.13-10.146,3.744-17.832,3.239-15.373,7.867-37.334,13.451-63.824l.093.143L414.787,202.041h0l.17-.11c-6.764,31.9-13.138,61.968-18.639,87.948l-.1-.154,74.574,15.861,21.049,4.491,5.567,1.191,1.433.313.489.11-.478-.093-1.422-.291-5.551-1.164-21.033-4.42-74.667-15.751h-.121v-.126c5.49-25.98,11.864-56.05,18.612-87.953l.027-.143.143.033h0l103.123,21.862h.115v.115c-5.638,26.5-10.316,48.5-13.588,63.868-1.647,7.686-2.926,13.693-3.8,17.8-.439,2.042-.78,3.607-1,4.667S499.32,311.692,499.32,311.692Z" transform="translate(-221.86 -158.544)" fill="#263238"/>
      <path id="패스_87727" data-name="패스 87727" d="M487.036,348.95l-2.7,8.949.769.159,4.722-8.521Z" transform="translate(-261.672 -224.928)" fill="#263238"/>
      <path id="패스_87728" data-name="패스 87728" d="M548.235,361.437l-1.164,9.273-.769-.159-.862-9.7Z" transform="translate(-289.227 -230.294)" fill="#263238"/>
      <rect id="사각형_151469" data-name="사각형 151469" width="43.982" height="13.868" transform="translate(222.947 109.347) rotate(11.96)" fill="#263238"/>
      <path id="패스_87729" data-name="패스 87729" d="M504.041,333.657v-.115a2.368,2.368,0,0,1,.055-.313c.06-.3.137-.692.231-1.2.214-1.054.516-2.558.889-4.442l.071.11-20.424-4.282.165-.11h0v.181l-.044.2-.082.39-.165.774c-.11.516-.214,1.027-.324,1.532-.214,1.01-.423,2-.631,2.965l-.1-.165,14.566,3.151,4.288.95,1.158.264.307.071.1.033-.384-.06-1.136-.225-4.271-.862-14.692-3.047-.137-.027.033-.137.626-2.965c.1-.505.214-1.016.324-1.532.049-.258.1-.516.159-.78l.082-.39.044-.192v-.187h0c.34-.22.1-.06.176-.11l20.44,4.392h.088v.088c-.423,1.9-.763,3.409-1,4.475-.115.494-.2.884-.269,1.169A3.588,3.588,0,0,1,504.041,333.657Z" transform="translate(-261.284 -213.28)" fill="#455a64"/>
      <path id="패스_87730" data-name="패스 87730" d="M501.558,345.3v-.115l.055-.313c.06-.3.137-.692.236-1.2.209-1.054.511-2.558.889-4.442l.066.11-20.462-4.282.17-.11h0v.181l-.038.2-.088.39c-.055.258-.11.522-.159.774l-.329,1.532c-.214,1.01-.423,2-.631,2.965l-.1-.165,14.566,3.151,4.288.95,1.158.264.307.071.1.033-.384-.06L500.065,345l-4.271-.862L481.1,341.092h-.132l.017-.143.626-2.965c.1-.505.214-1.016.324-1.532l.165-.78.082-.39.038-.192v-.181h0l.17-.11,20.44,4.392h.088v.088c-.423,1.9-.763,3.409-1,4.475-.115.494-.2.884-.269,1.169A3.567,3.567,0,0,1,501.558,345.3Z" transform="translate(-260.152 -218.546)" fill="#455a64"/>
      <path id="패스_87731" data-name="패스 87731" d="M542.508,341.815V341.7a2.378,2.378,0,0,1,.055-.313c.06-.3.137-.692.236-1.2.209-1.054.511-2.553.889-4.442l.066.11-20.462-4.282.17-.11h0v.187l-.038.192-.088.39c-.055.264-.11.549-.159.78l-.329,1.532q-.324,1.515-.631,2.959l-.1-.165,14.566,3.151,4.288.95,1.158.264.307.071.1.033a1.969,1.969,0,0,1-.384-.06l-1.136-.225-4.271-.862-14.692-3.047-.132-.028v-.137l.626-2.965c.1-.505.214-1.016.324-1.532l.165-.774.082-.4.038-.192V331.4h0l.17-.11,20.44,4.392h.088v.088c-.423,1.9-.763,3.409-1,4.474-.115.494-.2.884-.269,1.169a3.128,3.128,0,0,1-.077.4Z" transform="translate(-278.62 -216.963)" fill="#455a64"/>
      <path id="패스_87732" data-name="패스 87732" d="M540.048,353.443v-.115a2.367,2.367,0,0,1,.055-.313c.06-.3.137-.692.236-1.2.209-1.054.511-2.553.889-4.442l.066.11L520.832,343.2l.17-.11h0v.187l-.038.192-.082.39-.165.78-.329,1.526-.626,2.965-.11-.165,14.566,3.151,4.293.95,1.158.264.3.071.1.033a1.97,1.97,0,0,1-.384-.06l-1.136-.225-4.321-.84-14.686-3.047-.137-.027.027-.137.626-2.965c.1-.505.214-1.016.324-1.532l.165-.774.082-.4.038-.192v-.187h0l.17-.11,20.44,4.392h.093v.088c-.423,1.9-.763,3.409-1,4.475-.115.494-.2.884-.269,1.169A3.126,3.126,0,0,1,540.048,353.443Z" transform="translate(-277.488 -222.217)" fill="#455a64"/>
      <path id="패스_87733" data-name="패스 87733" d="M485.473,322.841c-.06.055-.247-.044-.417-.225s-.264-.373-.209-.428.242.049.417.231S485.533,322.792,485.473,322.841Z" transform="translate(-261.894 -212.852)" fill="#455a64"/>
      <path id="패스_87734" data-name="패스 87734" d="M480.4,345.975c.038.066-.115.242-.351.384s-.456.209-.494.143.11-.242.346-.384S480.346,345.9,480.4,345.975Z" transform="translate(-259.511 -223.572)" fill="#455a64"/>
      <path id="패스_87735" data-name="패스 87735" d="M522.6,356.008c0,.077-9.674-1.905-21.577-4.425s-21.533-4.623-21.516-4.705,9.674,1.905,21.577,4.425S522.6,355.931,522.6,356.008Z" transform="translate(-259.494 -223.992)" fill="#455a64"/>
      <path id="패스_87736" data-name="패스 87736" d="M501,344.006c-.049,0,0-.253-.22-.478a.519.519,0,0,0-.878.247.516.516,0,0,0,.214.549.549.549,0,0,0,.489.055c.3-.115.351-.362.4-.346s.027.066,0,.17a.615.615,0,0,1-.3.362.719.719,0,0,1-.714,0,.752.752,0,0,1,.3-1.4.725.725,0,0,1,.659.275.632.632,0,0,1,.132.456C501.045,343.962,501.012,344.011,501,344.006Z" transform="translate(-268.555 -222.317)" fill="#455a64"/>
      <path id="패스_87737" data-name="패스 87737" d="M503.446,332.373c-.044,0,0-.253-.214-.478a.518.518,0,0,0-.878.247.516.516,0,0,0,.214.522.549.549,0,0,0,.489.055c.3-.115.351-.362.39-.346s.033.066,0,.17a.615.615,0,0,1-.3.362.719.719,0,0,1-.714,0,.752.752,0,0,1,.3-1.4.725.725,0,0,1,.659.275.659.659,0,0,1,.132.456C503.5,332.324,503.468,332.379,503.446,332.373Z" transform="translate(-269.66 -217.058)" fill="#455a64"/>
      <path id="패스_87738" data-name="패스 87738" d="M539.951,352.306c-.044,0,0-.253-.214-.478a.549.549,0,0,0-.472-.148.516.516,0,0,0-.406.4.494.494,0,0,0,.214.549.549.549,0,0,0,.489.055c.291-.115.346-.362.39-.346s0,.066,0,.17a.659.659,0,0,1-.3.362.747.747,0,0,1-.719,0,.758.758,0,0,1,.3-1.4.725.725,0,0,1,.659.274.609.609,0,0,1,.132.456C540.006,352.234,539.967,352.306,539.951,352.306Z" transform="translate(-286.126 -226.06)" fill="#455a64"/>
      <path id="패스_87739" data-name="패스 87739" d="M542.411,340.623c-.049,0,0-.253-.22-.478a.549.549,0,0,0-.467-.148.511.511,0,0,0-.406.4.494.494,0,0,0,.214.522.549.549,0,0,0,.489.055c.291-.115.346-.362.39-.346s.027.066,0,.17a.648.648,0,0,1-.307.362.719.719,0,0,1-.714,0,.758.758,0,0,1,.3-1.4.725.725,0,0,1,.659.274.631.631,0,0,1,.132.456C542.466,340.579,542.427,340.629,542.411,340.623Z" transform="translate(-287.235 -220.779)" fill="#455a64"/>
      <path id="패스_87740" data-name="패스 87740" d="M562.56,338.693c0,.082-.165.187-.39.285s-.423.159-.467.093.1-.247.351-.357S562.544,338.622,562.56,338.693Z" transform="translate(-296.558 -220.276)" fill="#455a64"/>
      <path id="패스_87741" data-name="패스 87741" d="M557.65,362.852c-.06.049-.258-.1-.439-.329s-.274-.461-.209-.511.258.1.439.335S557.711,362.808,557.65,362.852Z" transform="translate(-294.432 -230.814)" fill="#455a64"/>
      <rect id="사각형_151470" data-name="사각형 151470" width="8.634" height="105.402" transform="translate(175.526 131.167) rotate(-77.905)" fill="#e0e0e0"/>
      <path id="패스_87742" data-name="패스 87742" d="M442.5,269.376a35.527,35.527,0,0,0-4.079-19.15c-5.2-9.827-11.661-10.783-11.661-10.783s7.741-1.235,13.413,9.333A28.066,28.066,0,0,1,442.5,269.376Z" transform="translate(-235.705 -175.523)" fill="#455a64"/>
      <path id="패스_87743" data-name="패스 87743" d="M460.415,233.658c-.1-.28-3.717,20.457-3.717,20.457l-1.438,15.115s3.475-10.679,4.365-16.339S461.31,236.211,460.415,233.658Z" transform="translate(-248.558 -172.932)" fill="#455a64"/>
      <path id="패스_87744" data-name="패스 87744" d="M468.074,236.62s-3.519,1.3-7.637,16.185c-3.151,11.409-4.579,15.729-5.046,17.141a2.194,2.194,0,0,0-.132.62s5.984-9.943,8.3-15.51S466.059,240.809,468.074,236.62Z" transform="translate(-248.558 -174.269)" fill="#455a64"/>
      <path id="패스_87745" data-name="패스 87745" d="M455.358,292.612c-.093.373,2.273-4.694,10.239-9.849,7.412-4.8,10.217-4.458,10.217-4.458s-6.55-.461-11.76,3.217C459.454,284.767,456.324,288.819,455.358,292.612Z" transform="translate(-248.601 -193.06)" fill="#455a64"/>
      <path id="패스_87746" data-name="패스 87746" d="M445.956,303.545a25.8,25.8,0,0,0-1.444-8.164,9.717,9.717,0,0,0-5.622-5.781,27.454,27.454,0,0,1,7.066,13.945" transform="translate(-241.175 -198.162)" fill="#455a64"/>
      <path id="패스_87747" data-name="패스 87747" d="M442.844,281.361s.939-10.464-5.715-15.191c-3.706-2.635-10.009-2.789-10.009-2.789s7.423,2.569,9.882,4.941S442.844,281.361,442.844,281.361Z" transform="translate(-235.867 -186.337)" fill="#455a64"/>
      <path id="패스_87748" data-name="패스 87748" d="M444.2,310.5a.44.44,0,0,1,0-.126q.033-.154.066-.379c.071-.357.165-.84.28-1.455.264-1.279.631-3.091,1.1-5.32l3.673-17.541c.181-.856.362-1.7.549-2.536l.264-1.241c.055-.209.071-.406.148-.626a5.811,5.811,0,0,1,.258-.549c.318-.752.582-1.521.9-2.257s.626-1.438.922-2.136c.6-1.394,1.2-2.7,1.7-3.958s.972-2.41,1.405-3.47.769-2.042,1.1-2.9.549-1.587.791-2.2.384-1.049.511-1.384l.126-.362a.5.5,0,0,1,.055-.121.447.447,0,0,1-.027.126l-.1.373c-.093.324-.258.8-.461,1.406s-.456,1.356-.747,2.2-.609,1.856-1.049,2.915-.878,2.24-1.373,3.492-1.1,2.569-1.647,3.969c-.3.7-.6,1.411-.917,2.141s-.549,1.493-.895,2.256c-.077.192-.181.4-.253.549a4.024,4.024,0,0,0-.137.587c-.088.412-.17.824-.258,1.241-.176.835-.357,1.68-.549,2.536-1.466,6.83-2.789,13.017-3.755,17.519-.489,2.224-.884,4.03-1.169,5.309-.137.6-.247,1.1-.329,1.438l-.093.373C444.218,310.457,444.2,310.5,444.2,310.5Z" transform="translate(-243.566 -185.688)" fill="#263238"/>
      <path id="패스_87749" data-name="패스 87749" d="M455.237,299.05a8.159,8.159,0,0,1-.549,1.263c-.368.769-.845,1.839-1.318,3.053s-.846,2.322-1.1,3.135a8.1,8.1,0,0,1-.472,1.3,6.175,6.175,0,0,1,.28-1.362,29.894,29.894,0,0,1,1.032-3.179,27.258,27.258,0,0,1,1.406-3.042A5.333,5.333,0,0,1,455.237,299.05Z" transform="translate(-246.997 -202.424)" fill="#263238"/>
      <path id="패스_87750" data-name="패스 87750" d="M443.07,347.415c1.856-1.1,2.613-3.453,2.482-5.605a27.864,27.864,0,0,0-1.592-6.231l-5.71-1.208a28.209,28.209,0,0,0-3.986,5.051c-.988,1.911-1.263,4.392,0,6.127Z" transform="translate(-238.707 -218.352)" fill="#698cf5"/>
      <path id="패스_87751" data-name="패스 87751" d="M460.029,249.55a.773.773,0,0,1,0,.269c0,.2-.038.456-.066.752-.071.659-.187,1.6-.34,2.745-.313,2.333-.807,5.551-1.422,9.092s-1.241,6.731-1.757,9.031c-.253,1.153-.483,2.075-.653,2.712-.077.291-.148.549-.2.73a1.257,1.257,0,0,1-.088.253.791.791,0,0,1,.033-.264c.038-.2.093-.45.154-.741.143-.692.329-1.614.549-2.745.467-2.306,1.06-5.49,1.647-9.037s1.136-6.747,1.5-9.075c.176-1.1.324-2.059.428-2.745.049-.3.093-.549.126-.752A1.492,1.492,0,0,1,460.029,249.55Z" transform="translate(-248.665 -180.1)" fill="#263238"/>
      <path id="패스_87752" data-name="패스 87752" d="M452.146,263.6a2.625,2.625,0,0,1,.247.549c.143.357.329.884.549,1.537a38.036,38.036,0,0,1,1.79,10.563V277.9a2.236,2.236,0,0,1-.055.593c-.044,0-.055-.846-.137-2.2a48.38,48.38,0,0,0-1.779-10.514C452.371,264.418,452.1,263.616,452.146,263.6Z" transform="translate(-247.151 -186.437)" fill="#263238"/>
      <path id="패스_87753" data-name="패스 87753" d="M444.93,269.76a1.977,1.977,0,0,1,.494.368,10.979,10.979,0,0,1,1.169,1.208,20.11,20.11,0,0,1,1.471,2,12.671,12.671,0,0,1,1.29,2.773,40.972,40.972,0,0,1,1.411,5.336c.143.692.236,1.257.3,1.647a2.526,2.526,0,0,1,.06.609,2.406,2.406,0,0,1-.17-.587c-.1-.445-.231-.988-.384-1.647-.329-1.367-.785-3.261-1.482-5.287a13.129,13.129,0,0,0-1.246-2.745,22.391,22.391,0,0,0-1.405-2.02,14.834,14.834,0,0,0-1.1-1.257A3.442,3.442,0,0,1,444.93,269.76Z" transform="translate(-243.899 -189.215)" fill="#263238"/>
      <rect id="사각형_151471" data-name="사각형 151471" width="2.147" height="35.868" transform="translate(278.511 70.922) rotate(11.96)" fill="#263238"/>
      <rect id="사각형_151472" data-name="사각형 151472" width="43.4" height="35.242" transform="translate(235.977 62.261) rotate(11.96)" fill="#fff"/>
      <path id="패스_87754" data-name="패스 87754" d="M537.6,280.081l-44.07-9.333,7.642-36.087,44.07,9.333Zm-42.115-10.607,40.847,8.653,6.956-32.848-40.847-8.647Z" transform="translate(-265.816 -173.385)" fill="#455a64"/>
      <rect id="사각형_151473" data-name="사각형 151473" width="32.046" height="24.953" transform="translate(240.321 68.016) rotate(11.96)" fill="#e0e0e0"/>
      <path id="패스_87755" data-name="패스 87755" d="M287.42,323.48l7.439,23.839,24.777-21.961,9.333,7.966s-21.028,33.424-31.228,39.716c-11.315,6.984-24.777-2.2-26.479-8.933S260.6,327.169,260.6,327.169Z" transform="translate(-160.77 -213.441)" fill="#efbe9d"/>
      <path id="패스_87756" data-name="패스 87756" d="M318.568,366.14c.027.049-.653.428-1.609,1.219a14.28,14.28,0,0,0-1.559,1.526,13.841,13.841,0,0,0-2.663,4.579,14.088,14.088,0,0,0-.549,2.108c-.22,1.224-.214,2-.269,2a2.194,2.194,0,0,1-.038-.549,4.5,4.5,0,0,1,0-.642,4.82,4.82,0,0,1,.082-.845,12.861,12.861,0,0,1,.505-2.158,13.112,13.112,0,0,1,2.718-4.672,12.7,12.7,0,0,1,1.647-1.5c.242-.2.489-.351.692-.494a5.946,5.946,0,0,1,.549-.335,2.013,2.013,0,0,1,.494-.236Z" transform="translate(-183.892 -232.68)" fill="#e7996e"/>
      <path id="패스_87757" data-name="패스 87757" d="M190.4,318.554l26.062-7.033s-5.589-16.531-9.937-28.478A33.891,33.891,0,0,0,192.9,265.738a10.13,10.13,0,0,0-4.573-1.812c-6.166-.824-23.031-3.042-31.4-3.739-10.349-.862-31.964,4.837-31.964,4.837s-18.952,10.508-25.343,14.785a8.872,8.872,0,0,0-3.42,4.3c-1.18,3.179-2.685,8.642-4.486,15.708-1.147,4.491-4.941,19.359-4.941,19.359l22.23-.686c4.48,13.6,8.631,25.8,8.631,25.8l-1.8,32.59h82.441s-7.609-50.411-7.609-51.581C190.662,324.878,190.557,322,190.4,318.554Z" transform="translate(-82.377 -184.857)" fill="#698cf5"/>
      <g id="그룹_166922" data-name="그룹 166922" transform="translate(33.766 104.524)" opacity="0.3">
        <path id="패스_87758" data-name="패스 87758" d="M188.891,316.15a8.039,8.039,0,0,0-7.1-2.668,16.066,16.066,0,0,0-7.247,2.987c-6.742,4.573-11.529,11.469-15.757,18.425a222.108,222.108,0,0,0-18.513,38.245l.17,3.4c5.529-.7,9.13-5.358,11.529-10.382s3.431-10.6,5.545-15.751a40.628,40.628,0,0,1,21.879-21.879,10.461,10.461,0,0,0,8.982-3.234C190.528,322.782,190.939,318.747,188.891,316.15Z" transform="translate(-140.27 -313.435)"/>
      </g>
      <path id="패스_87759" data-name="패스 87759" d="M273.646,347.913c-.126,0-.862-7.209-1.647-16.119s-1.323-16.152-1.2-16.163.862,7.2,1.647,16.125S273.761,347.9,273.646,347.913Z" transform="translate(-165.361 -209.901)" fill="#263238"/>
      <path id="패스_87760" data-name="패스 87760" d="M116.48,315.63a5.363,5.363,0,0,1,.329,1.1c.192.813.439,1.85.73,3.091.6,2.613,1.395,6.226,2.245,10.228s1.6,7.626,2.125,10.256c.236,1.252.434,2.3.593,3.118a5.743,5.743,0,0,1,.154,1.158,6.149,6.149,0,0,1-.324-1.1c-.192-.813-.439-1.85-.73-3.091-.6-2.613-1.395-6.226-2.251-10.228s-1.6-7.626-2.119-10.256c-.236-1.252-.439-2.3-.593-3.124a6.038,6.038,0,0,1-.159-1.153Z" transform="translate(-95.775 -209.901)" fill="#263238"/>
      <path id="패스_87761" data-name="패스 87761" d="M267.1,267.64c.132.033-.62,2.926-1.136,6.588s-.626,6.621-.758,6.588a7.463,7.463,0,0,1-.088-1.96,40.749,40.749,0,0,1,.406-4.722,39.73,39.73,0,0,1,.944-4.65A7.637,7.637,0,0,1,267.1,267.64Z" transform="translate(-162.795 -188.259)" fill="#263238"/>
      <path id="패스_87762" data-name="패스 87762" d="M170.64,228.4l7.5-15.126-2.328-6.588s11.249-5.842,7.406-17.761c-1.856-5.754-6.643-17.294-11.1-27.687a23.339,23.339,0,0,0-28.89-12.929l-1.142.379c-12.106,4.875-14.73,17.876-9.526,29.845L147.79,223Z" transform="translate(-101.885 -133.891)" fill="#efbe9d"/>
      <path id="패스_87763" data-name="패스 87763" d="M199.494,255.56a29.107,29.107,0,0,1-16.954.807s6.533,7.313,18.013,2.262Z" transform="translate(-125.567 -182.811)" fill="#e7996e"/>
      <path id="패스_87764" data-name="패스 87764" d="M205.039,193.334a1.8,1.8,0,0,1-1.06,2.262,1.713,1.713,0,0,1-2.262-.939,1.79,1.79,0,0,1,1.054-2.262,1.713,1.713,0,0,1,2.267.939Z" transform="translate(-134.171 -154.262)" fill="#263238"/>
      <path id="패스_87765" data-name="패스 87765" d="M199.98,182.937c-.132.291-1.74-.231-3.563.39s-2.849,1.976-3.124,1.823c-.132-.066-.049-.549.39-1.158a4.941,4.941,0,0,1,2.41-1.735,4.738,4.738,0,0,1,2.926-.033C199.728,182.465,200.051,182.8,199.98,182.937Z" transform="translate(-130.391 -149.64)" fill="#263238"/>
      <path id="패스_87766" data-name="패스 87766" d="M176.191,201.982a1.784,1.784,0,0,1-1.06,2.256,1.707,1.707,0,0,1-2.262-.939,1.8,1.8,0,0,1,1.06-2.262,1.713,1.713,0,0,1,2.262.944Z" transform="translate(-121.162 -158.161)" fill="#263238"/>
      <path id="패스_87767" data-name="패스 87767" d="M167.924,192.971c-.1.3-1.757-.038-3.5.774s-2.619,2.278-2.9,2.152c-.137-.055-.115-.549.258-1.191a4.941,4.941,0,0,1,2.2-1.987,4.76,4.76,0,0,1,2.91-.351C167.616,192.532,167.978,192.829,167.924,192.971Z" transform="translate(-116.051 -154.273)" fill="#263238"/>
      <path id="패스_87768" data-name="패스 87768" d="M188.6,204.891a12.663,12.663,0,0,1,2.784-1.532c.45-.209.862-.445.835-.791a2.515,2.515,0,0,0-.78-1.279l-2.548-3.058c-3.607-4.392-6.391-8.093-6.209-8.235s3.25,3.294,6.857,7.719c.884,1.1,1.724,2.13,2.52,3.124a2.831,2.831,0,0,1,.856,1.746,1.23,1.23,0,0,1-.549.939,3.472,3.472,0,0,1-.758.379A13.522,13.522,0,0,1,188.6,204.891Z" transform="translate(-125.628 -153.241)" fill="#263238"/>
      <path id="패스_87769" data-name="패스 87769" d="M162.107,181.53c0,.549-1.916.933-3.969,1.911s-3.591,2.141-4.019,1.79c-.2-.17-.055-.736.478-1.449a7.653,7.653,0,0,1,6.089-2.822C161.574,180.981,162.1,181.244,162.107,181.53Z" transform="translate(-112.71 -149.167)" fill="#263238"/>
      <path id="패스_87770" data-name="패스 87770" d="M196.348,173.883c-.181.549-1.581.516-3.1,1s-2.7,1.213-3.14.878c-.2-.165-.137-.648.291-1.23a4.722,4.722,0,0,1,5.024-1.515C196.107,173.263,196.425,173.63,196.348,173.883Z" transform="translate(-128.933 -145.495)" fill="#263238"/>
      <path id="패스_87771" data-name="패스 87771" d="M136.348,219.74c-.231,0-8.966.329-5.979,8.356s10.431,3.371,10.36,3.135S136.348,219.74,136.348,219.74Z" transform="translate(-101.759 -166.657)" fill="#efbe9d"/>
      <path id="패스_87772" data-name="패스 87772" d="M139.106,231.978c-.044,0-.1.148-.3.346a1.466,1.466,0,0,1-1.038.406c-.966,0-2.2-1.1-2.745-2.5a4.9,4.9,0,0,1-.357-2.152,1.746,1.746,0,0,1,.653-1.466.763.763,0,0,1,.966.077c.192.187.2.368.253.362s.121-.2-.066-.505a.944.944,0,0,0-.505-.384,1.1,1.1,0,0,0-.851.082,2.1,2.1,0,0,0-1,1.79,5.117,5.117,0,0,0,.351,2.416c.653,1.6,2.042,2.806,3.327,2.707a1.587,1.587,0,0,0,1.2-.686C139.166,232.176,139.139,231.978,139.106,231.978Z" transform="translate(-103.72 -169.529)" fill="#e7996e"/>
      <path id="패스_87773" data-name="패스 87773" d="M184.382,222.706c.291-.115.961,1.861,3.129,2.7s4.2-.088,4.31.181c.066.115-.34.549-1.224.867a5.21,5.21,0,0,1-3.563-.038,4.529,4.529,0,0,1-2.493-2.306C184.184,223.3,184.244,222.739,184.382,222.706Z" transform="translate(-126.349 -167.992)" fill="#263238"/>
      <path id="패스_87774" data-name="패스 87774" d="M166.712,132.813a4.941,4.941,0,0,0-3.843-2.7,7.391,7.391,0,0,0-.6-1.3,6.29,6.29,0,0,0-7.478-2.745,6.166,6.166,0,0,0-10.893.549,7.363,7.363,0,0,0-7.835,1.51,1.856,1.856,0,0,0-.549.878.884.884,0,0,0,.132.664,4.628,4.628,0,0,0-4.2-.878,4.3,4.3,0,0,0-1.351.686,5.2,5.2,0,0,0-2.745,2.816,7.428,7.428,0,0,0-7.286,6.654,7.071,7.071,0,0,0-4.348,6.588,5.161,5.161,0,0,0-1.049,8.878s-5.249,3.2-2.07,7.78c1.647,2.339,4.941.719,4.941.719l9.882,14.928c-.044.1,1.7,1.647,2.536.911a5.51,5.51,0,0,0,1.318-3.025,12.106,12.106,0,0,0,.626-3.777,2.968,2.968,0,0,0-2.2-2.816,4.5,4.5,0,0,0,1.444-4.211,12.721,12.721,0,0,0-1.729-4.31l-3.294-6.039a8.554,8.554,0,0,0,5.463-6.951,4.9,4.9,0,0,0,6.182-3.92,6.374,6.374,0,0,0,8.609,1.268c.242,1.79,3.783,2.339,5.584,2.224s3.481-1.971,3.481-1.971a10.113,10.113,0,0,0,3.678.077h0l.181-.049c2.366-.549,3.909-3.376,4.343-5.765a4.5,4.5,0,0,0,1.685-.78,4.941,4.941,0,0,0,1.378-5.9Z" transform="translate(-93.565 -123.053)" fill="#263238"/>
      <path id="패스_87775" data-name="패스 87775" d="M175.933,132.87a1.608,1.608,0,0,1,.324.264,3.963,3.963,0,0,1,.719.955,4.941,4.941,0,0,1,.582,1.8,5.078,5.078,0,0,1-.318,2.487,4.348,4.348,0,0,1-2.059,2.2,5.2,5.2,0,0,1-3.453.428,4.507,4.507,0,0,1-1.74-.8,2.915,2.915,0,0,1-.708-.714,1.911,1.911,0,0,1-.362-.988,1.318,1.318,0,0,1,.417-1,1.971,1.971,0,0,1,.983-.467,2.481,2.481,0,0,1,1.1.033,3.075,3.075,0,0,1,1.01.417,3.975,3.975,0,0,1,1.823,3.624,4.941,4.941,0,0,1-1.845,3.355,6.319,6.319,0,0,1-3.217,1.351,9.334,9.334,0,0,1-3.036-.132,17.672,17.672,0,0,1-4.118-1.488c-.467-.225-.818-.412-1.06-.549a3.444,3.444,0,0,1-.362-.2,1.947,1.947,0,0,1,.384.154l1.1.489a19.089,19.089,0,0,0,4.107,1.389,9.268,9.268,0,0,0,2.965.093,6.039,6.039,0,0,0,3.08-1.318,4.722,4.722,0,0,0,1.74-3.173,3.706,3.706,0,0,0-1.7-3.36,2.685,2.685,0,0,0-.917-.379,2.24,2.24,0,0,0-.972-.033,1.647,1.647,0,0,0-.835.4,1.016,1.016,0,0,0-.335.791,2.13,2.13,0,0,0,.955,1.488,4.233,4.233,0,0,0,1.647.758,4.941,4.941,0,0,0,3.294-.384,4.145,4.145,0,0,0,1.976-2.086,4.991,4.991,0,0,0-.176-4.162,5.1,5.1,0,0,0-.988-1.23Z" transform="translate(-115.677 -127.48)" fill="#455a64"/>
      <path id="패스_87776" data-name="패스 87776" d="M85.857,349.146s-5.2,18.842-6.352,23.443-1.158,15.29,1.449,18.453,11.217,5.177,11.217,5.177,16.893-8.235,22.647-18.315S136.3,340.461,136.3,340.461l-4.98-13.671L105.122,351.8l.275-3.256Z" transform="translate(-78.768 -214.934)" fill="#efbe9d"/>
      <path id="패스_87777" data-name="패스 87777" d="M190.494,248.094h0a1.834,1.834,0,0,1,2.476.813l15.076,30.021-3.843,1.718L189.67,250.532a1.839,1.839,0,0,1,.824-2.438Z" transform="translate(-128.7 -179.353)" fill="#455a64"/>
      <path id="패스_87778" data-name="패스 87778" d="M173,316.423l14.093-14.533H200.6l8.636,11.42s-4.1.763-5.567-1.438l-1.911-2.718s1.911,4.184.884,6.242c0,0-2.026,4.771-2.35,5.282a2.3,2.3,0,0,1-2.844,1.285c-1.746-.291-4.5-1.724-4.206-2.745a1.7,1.7,0,0,1,1.323-1.175l-4.112-.587s-4.14,7.5-6.632,9.262a19.5,19.5,0,0,1-5.018,2.52Z" transform="translate(-121.265 -203.705)" fill="#efbe9d"/>
      <path id="패스_87779" data-name="패스 87779" d="M113.813,371.54c.033.071-1.136.615-2.932,1.647a41.4,41.4,0,0,0-6.539,4.749,41.83,41.83,0,0,0-5.49,5.962c-1.246,1.647-1.916,2.745-1.982,2.745a3.707,3.707,0,0,1,.4-.813,23.294,23.294,0,0,1,1.329-2.092,35.231,35.231,0,0,1,12.078-10.8c.922-.489,1.691-.856,2.229-1.1A3.68,3.68,0,0,1,113.813,371.54Z" transform="translate(-86.932 -235.115)" fill="#e7996e"/>
      <path id="패스_87780" data-name="패스 87780" d="M204.26,308.864a8.941,8.941,0,0,1,1.982-.335c1.224-.154,2.926-.329,4.8-.494a5.913,5.913,0,0,1,1.427,0,3.009,3.009,0,0,1,1.263.511,4.5,4.5,0,0,1,1.433,1.724,5.7,5.7,0,0,1,.631,1.922c-.071.027-.329-.708-.911-1.773a4.476,4.476,0,0,0-1.378-1.532,2.686,2.686,0,0,0-1.1-.417,5.964,5.964,0,0,0-1.323,0c-1.878.165-3.58.291-4.815.362A9.008,9.008,0,0,1,204.26,308.864Z" transform="translate(-135.362 -206.456)" fill="#e7996e"/>
      <path id="패스_87781" data-name="패스 87781" d="M214.985,326.5c-.077,0,.055-1.027-.033-2.663a17.855,17.855,0,0,0-.39-2.838,4.051,4.051,0,0,0-1.592-2.855,6.041,6.041,0,0,0-1.647-.587l-1.647-.379a20.086,20.086,0,0,0-2.849-.439,23.539,23.539,0,0,0-2.646.066,1.922,1.922,0,0,1,.692-.22,8.816,8.816,0,0,1,1.971-.159,17.527,17.527,0,0,1,2.9.346c.549.1,1.1.225,1.68.357a6.04,6.04,0,0,1,1.79.631,3.152,3.152,0,0,1,1.263,1.466,7.773,7.773,0,0,1,.5,1.686,15.677,15.677,0,0,1,.3,2.91,13.472,13.472,0,0,1-.121,1.965,2.158,2.158,0,0,1-.176.714Z" transform="translate(-135.326 -210.258)" fill="#e7996e"/>
      <path id="패스_87782" data-name="패스 87782" d="M212.58,325.89a9.068,9.068,0,0,1,.214,2.707v.264l-.275-.049a2.357,2.357,0,0,0-.45-.044,2.745,2.745,0,0,0-1.867.824c-.379.4-.5.741-.549.719s-.033-.412.329-.922a2.7,2.7,0,0,1,2.108-1.065,2.585,2.585,0,0,1,.549.06l-.269.214A7.336,7.336,0,0,1,212.58,325.89Z" transform="translate(-137.785 -214.528)" fill="#e7996e"/>
      <path id="패스_87783" data-name="패스 87783" d="M210.49,326.223a16,16,0,0,1-2.745-.132,15.412,15.412,0,0,1-2.745-.159,5.878,5.878,0,0,1,2.745-.285A6.444,6.444,0,0,1,210.49,326.223Z" transform="translate(-135.696 -214.411)" fill="#e7996e"/>
      <path id="패스_87784" data-name="패스 87784" d="M203.594,325.43a5.948,5.948,0,0,1-.609,2.828,5.5,5.5,0,0,1-1.592,2.416c-.093-.071.582-1.153,1.18-2.591A25.25,25.25,0,0,1,203.594,325.43Z" transform="translate(-134.065 -214.32)" fill="#e7996e"/>
      <path id="패스_87785" data-name="패스 87785" d="M366.55,315.983s9.289-12.078,10.305-12.628,13.951-2.416,13.951-2.416-.549,4.085-4.288,5.287c-2.646.851-5.748,1.515-5.748,1.515s1.032,7.917-.873,11.09a49.267,49.267,0,0,1-5.326,6.819Z" transform="translate(-208.551 -203.276)" fill="#efbe9d"/>
      <path id="패스_87786" data-name="패스 87786" d="M387.68,320.717a11.215,11.215,0,0,0,1.938-3.294,14.822,14.822,0,0,0,.758-4.1,23.2,23.2,0,0,0,0-2.476,10.069,10.069,0,0,0-.187-1.285,3.454,3.454,0,0,1-.044-1.411,1.01,1.01,0,0,1,.549-.549,3.788,3.788,0,0,1,.653-.247,12.62,12.62,0,0,1,1.3-.291,18.122,18.122,0,0,0,2.4-.549,7.917,7.917,0,0,0,3.547-2.075,6.792,6.792,0,0,0,1.405-2.4c.22-.631.291-1,.318-.994a.83.83,0,0,1-.033.269,5.666,5.666,0,0,1-.181.758,6.5,6.5,0,0,1-1.362,2.509,7.966,7.966,0,0,1-3.618,2.2,17.7,17.7,0,0,1-2.432.593,12.831,12.831,0,0,0-1.268.291,3.241,3.241,0,0,0-.609.231.752.752,0,0,0-.412.373,3.36,3.36,0,0,0,.055,1.274,9.72,9.72,0,0,1,.187,1.323,22.26,22.26,0,0,1,0,2.5,14.3,14.3,0,0,1-.835,4.156,9.1,9.1,0,0,1-1.411,2.443,5.624,5.624,0,0,1-.522.577,1.162,1.162,0,0,1-.2.181Z" transform="translate(-218.081 -203.321)" fill="#e7996e"/>
    </g>
    <g id="freepik--Device--inject-10" transform="translate(125.257 223.324)">
      <path id="패스_87787" data-name="패스 87787" d="M256.043,432.761h62.8a3.063,3.063,0,0,0,3.014-2.52l7.78-42.928a3.064,3.064,0,0,0-3.014-3.613h-62.8a3.069,3.069,0,0,0-3.02,2.52l-7.774,42.928a3.064,3.064,0,0,0,3.014,3.613Z" transform="translate(-218.902 -383.7)" fill="#263238"/>
      <path id="패스_87788" data-name="패스 87788" d="M0,0H40.331V.417A3.684,3.684,0,0,1,36.647,4.1H0Z" transform="translate(40.331 49.055) rotate(180)" fill="#263238"/>
      <path id="패스_87789" data-name="패스 87789" d="M265.92,383.7c-.06,0-2.289,10.98-4.98,24.5s-4.826,24.525-4.771,24.525,2.289-10.953,4.985-24.5S265.958,383.711,265.92,383.7Z" transform="translate(-220.34 -383.7)" fill="#455a64"/>
      <path id="패스_87790" data-name="패스 87790" d="M326.58,428.3a2.2,2.2,0,0,1,1.872-1.609h-.181a2.152,2.152,0,1,1-1.691,1.609Z" transform="translate(-252.067 -403.07)" fill="#455a64"/>
    </g>
  </g>
</svg>
