<svg xmlns="http://www.w3.org/2000/svg" width="361.068" height="333.236" viewBox="0 0 361.068 333.236">
  <g id="Hand_coding-pana" data-name="Hand coding-pana" transform="translate(-15.35 -31.74)">
    <g id="freepik--background-complete--inject-6" transform="translate(17.513 31.74)">
      <path id="패스_87439" data-name="패스 87439" d="M27.916,159.337a13.931,13.931,0,0,1,3.431-1.486l.7-3.4,5.741-.1.825,3.368a14.127,14.127,0,0,1,3.477,1.369l2.9-1.9,4.123,3.983-1.8,2.964a14.26,14.26,0,0,1,1.494,3.431l3.392.708.1,5.733-3.368.825a14.127,14.127,0,0,1-1.346,3.477l1.9,2.9-3.983,4.123-2.964-1.8a13.956,13.956,0,0,1-3.431,1.494l-.7,3.392-5.741.1-.848-3.33a13.832,13.832,0,0,1-3.477-1.369l-2.9,1.906-4.123-3.991,1.8-2.964a14.2,14.2,0,0,1-1.494-3.423l-3.392-.708-.1-5.788,3.368-.778a14.182,14.182,0,0,1,1.369-3.485l-1.9-2.894,3.983-4.131,2.964,1.8Zm3.057,7.639a6.153,6.153,0,1,0,8.7-.148,6.153,6.153,0,0,0-8.7.148Z" transform="translate(-18.13 -58.967)" fill="#f5f5f5"/>
      <path id="패스_87440" data-name="패스 87440" d="M283.773,35.988a11.934,11.934,0,0,1,2.917-1.268l.607-2.894,4.878-.086.7,2.871a11.911,11.911,0,0,1,2.964,1.159l2.466-1.618,3.516,3.392-1.556,2.528a11.81,11.81,0,0,1,1.291,2.917l2.894.6.086,4.885-2.871.7a11.755,11.755,0,0,1-1.167,2.964l1.618,2.466-3.392,3.508-2.52-1.556a12.1,12.1,0,0,1-2.917,1.268l-.6,2.9-4.885.086-.7-2.863a12.245,12.245,0,0,1-2.964-1.167l-2.466,1.61L278.164,55l1.556-2.521a11.864,11.864,0,0,1-1.268-2.925l-2.886-.6-.086-4.878,2.863-.708a12,12,0,0,1,1.167-2.956l-1.618-2.474,3.392-3.508,2.521,1.556Zm2.606,6.5a5.236,5.236,0,1,0,7.406-.124,5.236,5.236,0,0,0-7.406.124Z" transform="translate(-75.278 -31.74)" fill="#f5f5f5"/>
      <path id="패스_87441" data-name="패스 87441" d="M70.136,39.5a19.549,19.549,0,0,1,4.745-2.062l.972-4.668,7.927-.14L84.925,37.3a19.137,19.137,0,0,1,4.808,1.844l4.006-2.629,5.7,5.508-2.482,4.123a19.939,19.939,0,0,1,2.062,4.738l4.668.98.14,7.927-4.668,1.144a19.083,19.083,0,0,1-1.89,4.808L99.9,69.745l-5.508,5.71-4.03-2.5a19.254,19.254,0,0,1-4.745,2.062l-.972,4.668-7.927.132-1.144-4.668a19.565,19.565,0,0,1-4.808-1.89L66.713,75.93l-5.7-5.508,2.482-4.053a19.526,19.526,0,0,1-2.054-4.745l-4.668-.972L56.6,52.677l4.668-1.136a19.449,19.449,0,0,1,1.867-4.815L60.529,42.72l5.508-5.7ZM74.36,50.032a8.5,8.5,0,1,0,5.97-2.6,8.5,8.5,0,0,0-5.97,2.6Z" transform="translate(-26.673 -31.938)" fill="#f5f5f5"/>
      <path id="패스_87442" data-name="패스 87442" d="M235.6,214.577a14.057,14.057,0,0,1,3.431-1.486l.708-3.4,5.733-.1.825,3.368a14,14,0,0,1,3.477,1.369l2.9-1.9,4.123,3.983L255,219.376a13.932,13.932,0,0,1,1.486,3.431l3.392.708.1,5.733-3.368.825a14.1,14.1,0,0,1-1.361,3.477l1.9,2.9-3.96,4.108-2.964-1.8a14.081,14.081,0,0,1-3.431,1.494l-.708,3.392-5.733.1-.825-3.368a13.715,13.715,0,0,1-3.477-1.369l-2.9,1.906-4.131-3.991,1.8-2.956a14.057,14.057,0,0,1-1.486-3.431l-3.392-.708-.1-5.733,3.361-.825a14.491,14.491,0,0,1,1.369-3.485l-1.922-2.878,3.983-4.131Zm3.057,7.639a4.354,4.354,0,1,0,0-.016Z" transform="translate(-64.255 -71.234)" fill="#f5f5f5"/>
      <path id="패스_87443" data-name="패스 87443" d="M256.361,346.5A14.26,14.26,0,0,1,259.792,345l.7-3.392,5.741-.1.825,3.368a13.831,13.831,0,0,1,3.477,1.369l2.9-1.9,4.123,3.983-1.8,2.964a14.2,14.2,0,0,1,1.494,3.423l3.392.708.1,5.733-3.368.832a14.126,14.126,0,0,1-1.369,3.477l1.9,2.894-3.983,4.131-2.964-1.82a13.935,13.935,0,0,1-3.431,1.486l-.7,3.4-5.741.1-.825-3.368a14.127,14.127,0,0,1-3.477-1.369l-2.878,1.922-4.131-3.983,1.8-2.964a14.261,14.261,0,0,1-1.494-3.431l-3.392-.708-.1-5.733,3.368-.825a14.126,14.126,0,0,1,1.369-3.477l-1.9-2.9,3.983-4.123,2.964,1.8Zm3.057,7.639a6.146,6.146,0,1,0,4.316-1.881,6.153,6.153,0,0,0-4.316,1.881Z" transform="translate(-68.863 -100.529)" fill="#f5f5f5"/>
      <path id="패스_87444" data-name="패스 87444" d="M80.277,264.4a9.335,9.335,0,0,1,2.334-1l.475-2.295,3.89-.062.552,2.264a9.776,9.776,0,0,1,2.334.926l1.96-1.284,2.785,2.692-1.229,2a9.333,9.333,0,0,1,1,2.334l2.287.474.07,3.89-2.272.56a9.413,9.413,0,0,1-.926,2.334l1.284,1.96-2.684,2.777-2-1.214a9.656,9.656,0,0,1-2.334,1.011l-.482,2.287-3.89.07-.552-2.272a9.779,9.779,0,0,1-2.334-.926L78.6,282.169l-2.785-2.692,1.229-1.992a9.256,9.256,0,0,1-1-2.334l-2.287-.475-.07-3.89,2.272-.56a9.7,9.7,0,0,1,.918-2.334l-1.276-1.953,2.684-2.785,2,1.214Zm2.062,5.165a4.146,4.146,0,1,0,5.866-.1A4.146,4.146,0,0,0,82.338,269.566Z" transform="translate(-30.466 -82.66)" fill="#f5f5f5"/>
      <path id="패스_87445" data-name="패스 87445" d="M86.116,301.91a17.27,17.27,0,0,1,4.248-1.828l.871-4.177,7.048-.124,1.011,4.139a17.2,17.2,0,0,1,4.279,1.688l3.563-2.334,5.072,4.893L110,307.807a17.115,17.115,0,0,1,1.828,4.216l4.178.871.124,7.048-4.139,1.011a17.2,17.2,0,0,1-1.688,4.279l2.334,3.563-4.893,5.072-3.641-2.209a17.425,17.425,0,0,1-4.216,1.836l-.871,4.17-7.048.125-1.011-4.139a17.2,17.2,0,0,1-4.279-1.688L83.113,334.3l-5.1-4.893,2.24-3.641a17.293,17.293,0,0,1-1.836-4.216l-4.17-.871-.124-7.048,4.139-1.011a17.2,17.2,0,0,1,1.688-4.279l-2.334-3.563,4.9-5.072,3.641,2.209Zm3.757,9.39a7.562,7.562,0,1,0,10.7-.187A7.562,7.562,0,0,0,89.873,311.3Z" transform="translate(-30.563 -90.374)" fill="#f5f5f5"/>
      <rect id="사각형_151400" data-name="사각형 151400" width="106.997" height="180.286" transform="translate(251.288 11.156)" fill="#e0e0e0"/>
      <rect id="사각형_151401" data-name="사각형 151401" width="100.867" height="173.931" transform="translate(254.175 14.547)" fill="#f5f5f5"/>
      <rect id="사각형_151402" data-name="사각형 151402" width="40.219" height="62.406" transform="translate(304.608 23.836)" fill="#fff"/>
      <path id="패스_87446" data-name="패스 87446" d="M437.433,69.041a1.5,1.5,0,1,1-1.5-1.5A1.5,1.5,0,0,1,437.433,69.041Z" transform="translate(-110.576 -39.69)" fill="#e0e0e0"/>
      <rect id="사각형_151403" data-name="사각형 151403" width="40.219" height="62.406" transform="translate(264.07 103.613)" fill="#fff"/>
      <path id="패스_87447" data-name="패스 87447" d="M385.323,171.571a1.5,1.5,0,1,1-1.5-1.5,1.5,1.5,0,0,1,1.5,1.5Z" transform="translate(-99.004 -62.458)" fill="#e0e0e0"/>
      <rect id="사각형_151404" data-name="사각형 151404" width="34.346" height="48.738" transform="translate(263.525 23.836)" fill="#fff"/>
      <path id="패스_87448" data-name="패스 87448" d="M379.849,67.715A1.245,1.245,0,1,1,378.6,66.47,1.245,1.245,0,0,1,379.849,67.715Z" transform="translate(-97.902 -39.452)" fill="#e0e0e0"/>
      <rect id="사각형_151405" data-name="사각형 151405" width="36.967" height="20.483" transform="translate(309.416 108.603) rotate(-6.44)" fill="#fff"/>
      <circle id="타원_65" data-name="타원 65" cx="1.276" cy="1.276" r="1.276" transform="translate(326.935 109.129)" fill="#e0e0e0"/>
      <path id="패스_87449" data-name="패스 87449" d="M394.328,183.146c0,.171-6.309.3-14.1.3s-14.1-.132-14.1-.3,6.317-.3,14.1-.3S394.328,182.967,394.328,183.146Z" transform="translate(-95.406 -65.296)" fill="#e0e0e0"/>
      <path id="패스_87450" data-name="패스 87450" d="M394.328,188.916c0,.163-6.309.3-14.1.3s-14.1-.14-14.1-.3,6.317-.3,14.1-.3S394.328,188.729,394.328,188.916Z" transform="translate(-95.406 -66.578)" fill="#e0e0e0"/>
      <path id="패스_87451" data-name="패스 87451" d="M394.328,194.626c0,.163-6.309.3-14.1.3s-14.1-.14-14.1-.3,6.317-.3,14.1-.3S394.328,194.462,394.328,194.626Z" transform="translate(-95.406 -67.846)" fill="#e0e0e0"/>
      <path id="패스_87452" data-name="패스 87452" d="M394.328,200.366c0,.163-6.309.3-14.1.3s-14.1-.14-14.1-.3,6.317-.3,14.1-.3S394.328,200.2,394.328,200.366Z" transform="translate(-95.406 -69.12)" fill="#e0e0e0"/>
      <path id="패스_87453" data-name="패스 87453" d="M394.328,206.106c0,.163-6.309.3-14.1.3s-14.1-.14-14.1-.3,6.317-.3,14.1-.3S394.328,205.958,394.328,206.106Z" transform="translate(-95.406 -70.395)" fill="#e0e0e0"/>
      <path id="패스_87454" data-name="패스 87454" d="M394.328,211.846c0,.163-6.309.3-14.1.3s-14.1-.14-14.1-.3,6.317-.3,14.1-.3S394.328,211.682,394.328,211.846Z" transform="translate(-95.406 -71.67)" fill="#e0e0e0"/>
      <path id="패스_87455" data-name="패스 87455" d="M394.328,217.586c0,.163-6.309.3-14.1.3s-14.1-.14-14.1-.3,6.317-.3,14.1-.3S394.328,217.422,394.328,217.586Z" transform="translate(-95.406 -72.944)" fill="#e0e0e0"/>
      <path id="패스_87456" data-name="패스 87456" d="M450.688,177.074c0,.163-6.223,1.182-13.925,2.272s-14,1.836-14,1.673,6.223-1.175,13.925-2.264S450.665,176.91,450.688,177.074Z" transform="translate(-107.984 -64.009)" fill="#e0e0e0"/>
      <path id="패스_87457" data-name="패스 87457" d="M451.408,180.664c0,.163-6.224,1.182-13.925,2.272s-14,1.836-14,1.673,6.224-1.175,13.925-2.264S451.385,180.5,451.408,180.664Z" transform="translate(-108.144 -64.806)" fill="#e0e0e0"/>
      <path id="패스_87458" data-name="패스 87458" d="M452.028,183.993c0,.163-6.223,1.182-13.925,2.264s-14,1.844-14,1.68,6.223-1.182,13.925-2.272S452.028,183.822,452.028,183.993Z" transform="translate(-108.282 -65.545)" fill="#e0e0e0"/>
      <path id="패스_87459" data-name="패스 87459" d="M447.742,79.076c0,.171-7.134.3-15.932.3s-15.94-.132-15.94-.3,7.134-.3,15.94-.3S447.742,78.951,447.742,79.076Z" transform="translate(-106.454 -42.186)" fill="#e0e0e0"/>
      <path id="패스_87460" data-name="패스 87460" d="M447.742,82.493c0,.163-7.134.3-15.932.3s-15.94-.132-15.94-.3,7.134-.3,15.94-.3S447.742,82.322,447.742,82.493Z" transform="translate(-106.454 -42.943)" fill="#e0e0e0"/>
      <path id="패스_87461" data-name="패스 87461" d="M447.742,85.913c0,.163-7.134.3-15.932.3s-15.94-.14-15.94-.3,7.134-.3,15.94-.3S447.742,85.742,447.742,85.913Z" transform="translate(-106.454 -43.703)" fill="#e0e0e0"/>
      <path id="패스_87462" data-name="패스 87462" d="M447.742,89.311c0,.171-7.134.3-15.932.3s-15.94-.132-15.94-.3,7.1-.311,15.94-.311S447.742,89.148,447.742,89.311Z" transform="translate(-106.454 -44.455)" fill="#e0e0e0"/>
      <path id="패스_87463" data-name="패스 87463" d="M447.742,92.733c0,.163-7.134.3-15.932.3s-15.94-.132-15.94-.3,7.134-.3,15.94-.3S447.742,92.562,447.742,92.733Z" transform="translate(-106.454 -45.217)" fill="#e0e0e0"/>
      <path id="패스_87464" data-name="패스 87464" d="M447.742,96.143c0,.163-7.134.3-15.932.3s-15.94-.132-15.94-.3,7.134-.3,15.94-.3S447.742,95.964,447.742,96.143Z" transform="translate(-106.454 -45.974)" fill="#e0e0e0"/>
      <path id="패스_87465" data-name="패스 87465" d="M447.742,99.556c0,.163-7.134.3-15.932.3s-15.94-.14-15.94-.3,7.134-.3,15.94-.3S447.742,99.392,447.742,99.556Z" transform="translate(-106.454 -46.734)" fill="#e0e0e0"/>
      <path id="패스_87466" data-name="패스 87466" d="M447.742,109.683c0,.163-7.134.3-15.932.3s-15.94-.132-15.94-.3,7.134-.3,15.94-.3S447.742,109.52,447.742,109.683Z" transform="translate(-106.454 -48.981)" fill="#e0e0e0"/>
      <path id="패스_87467" data-name="패스 87467" d="M448.032,113.286c0,.171-7.134.3-15.932.3s-15.94-.132-15.94-.3,7.134-.3,15.94-.3S448.032,113.122,448.032,113.286Z" transform="translate(-106.519 -49.783)" fill="#e0e0e0"/>
      <path id="패스_87468" data-name="패스 87468" d="M448.322,116.913c0,.163-7.141.3-15.94.3s-15.932-.132-15.932-.3,7.134-.3,15.932-.3S448.322,116.734,448.322,116.913Z" transform="translate(-106.583 -50.587)" fill="#e0e0e0"/>
      <path id="패스_87469" data-name="패스 87469" d="M448.6,120.5c0,.171-7.134.3-15.932.3s-15.932-.132-15.932-.3,7.134-.3,15.932-.3S448.6,120.332,448.6,120.5Z" transform="translate(-106.647 -51.384)" fill="#e0e0e0"/>
      <path id="패스_87470" data-name="패스 87470" d="M448.9,124.1c0,.163-7.134.3-15.932.3S417,124.267,417,124.1s7.126-.3,15.932-.3S448.9,123.956,448.9,124.1Z" transform="translate(-106.705 -52.183)" fill="#e0e0e0"/>
      <path id="패스_87471" data-name="패스 87471" d="M449.182,127.706c0,.171-7.134.3-15.932.3s-15.94-.132-15.94-.3,7.134-.3,15.94-.3S449.182,127.542,449.182,127.706Z" transform="translate(-106.774 -52.985)" fill="#e0e0e0"/>
      <path id="패스_87472" data-name="패스 87472" d="M163.526,81h-23.05a2.886,2.886,0,0,1-2.886-2.878V46.178a2.886,2.886,0,0,1,2.886-2.878h14.617l11.319,11.669V78.12A2.886,2.886,0,0,1,163.526,81Z" transform="translate(-44.658 -34.307)" fill="#f5f5f5"/>
      <path id="패스_87473" data-name="패스 87473" d="M137.588,77.07H166.41v7.9a3.524,3.524,0,0,1-3.524,3.524H141.1a3.524,3.524,0,0,1-3.524-3.524v-7.9Z" transform="translate(-44.656 -41.806)" fill="#e0e0e0"/>
      <path id="패스_87478" data-name="패스 87478" d="M160.09,43.33v8.977a2.684,2.684,0,0,0,2.684,2.684h8.635Z" transform="translate(-49.654 -34.314)" fill="#ebebeb"/>
      <path id="패스_87479" data-name="패스 87479" d="M160.24,55.88a2.987,2.987,0,0,0,2.334,2.894,1.34,1.34,0,0,1,.28.07c1.128.2,8.557,1.556,8.557,1.346V57.778h-8.635A2.717,2.717,0,0,1,160.24,55.88Z" transform="translate(-49.688 -37.101)" fill="#e0e0e0"/>
    </g>
    <g id="freepik--Table--inject-6" transform="translate(15.35 324.913)">
      <path id="패스_87480" data-name="패스 87480" d="M15.88,437.275l41.059-27.726L255.9,408.6l9.1,29.095Z" transform="translate(-15.468 -408.6)" fill="#455a64"/>
      <path id="패스_87481" data-name="패스 87481" d="M264.367,456.662,15.35,456.483V444.76l249.126.778Z" transform="translate(-15.35 -416.63)" fill="#455a64"/>
      <path id="패스_87482" data-name="패스 87482" d="M259.037,445.6c0,.109-53.779.179-120.09.148s-120.1-.148-120.1-.265,53.763-.179,120.1-.148S259.037,445.486,259.037,445.6Z" transform="translate(-16.127 -416.756)" fill="#263238"/>
    </g>
    <g id="freepik--Files--inject-6" transform="translate(152.329 32.674)">
      <path id="패스_87483" data-name="패스 87483" d="M235.438,96.832H196.323a4.893,4.893,0,0,1-4.893-4.893V37.825a4.885,4.885,0,0,1,4.893-4.885h24.793l19.192,19.775V91.939a4.893,4.893,0,0,1-4.87,4.893Z" transform="translate(-191.43 -32.94)" fill="#698cf5"/>
      <g id="그룹_166897" data-name="그룹 166897" transform="translate(0 44.506)" opacity="0.2">
        <path id="패스_87484" data-name="패스 87484" d="M192.395,90.15h46.933a.965.965,0,0,1,.965.965V104.5a5.041,5.041,0,0,1-5.041,5.041h-38.78a5.041,5.041,0,0,1-5.041-5.041V91.115A.965.965,0,0,1,192.395,90.15Z" transform="translate(-191.43 -90.15)"/>
      </g>
      <g id="그룹_166898" data-name="그룹 166898" transform="translate(29.686)" opacity="0.2">
        <path id="패스_87485" data-name="패스 87485" d="M229.59,32.94V48.164a4.543,4.543,0,0,0,4.543,4.551h14.649Z" transform="translate(-229.59 -32.94)" fill="#fff"/>
      </g>
      <g id="그룹_166899" data-name="그룹 166899" transform="translate(29.879 16.562)" opacity="0.2">
        <path id="패스_87486" data-name="패스 87486" d="M229.84,54.23a5.057,5.057,0,0,0,4.014,4.909,4.829,4.829,0,0,0,.482.109c1.914.342,14.5,2.575,14.5,2.287V57.443H234.188S230.532,57.318,229.84,54.23Z" transform="translate(-229.838 -54.23)"/>
      </g>
      <path id="패스_87492" data-name="패스 87492" d="M305.6,147.054H265.923a4.963,4.963,0,0,1-4.963-4.971V87.153a4.963,4.963,0,0,1,4.963-4.963h25.166l19.448,20.078v39.815a4.963,4.963,0,0,1-4.94,4.971Z" transform="translate(-206.87 -43.877)" fill="#698cf5"/>
      <g id="그룹_166900" data-name="그룹 166900" transform="translate(54.066 83.496)" opacity="0.2">
        <path id="패스_87493" data-name="패스 87493" d="M260.946,140.27h49.617v14.314a5.368,5.368,0,0,1-5.368,5.368H266.3a5.368,5.368,0,0,1-5.368-5.368V140.27Z" transform="translate(-260.93 -140.27)"/>
      </g>
      <g id="그룹_166901" data-name="그룹 166901" transform="translate(84.211 38.313)" opacity="0.2">
        <path id="패스_87494" data-name="패스 87494" d="M299.68,82.19V97.648a4.621,4.621,0,0,0,4.621,4.621H319.16Z" transform="translate(-299.68 -82.19)" fill="#fff"/>
      </g>
      <g id="그룹_166902" data-name="그룹 166902" transform="translate(84.412 55.132)" opacity="0.2">
        <path id="패스_87495" data-name="패스 87495" d="M299.94,103.81a5.132,5.132,0,0,0,4.076,4.979,4.528,4.528,0,0,0,.49.109c1.937.35,14.711,2.622,14.711,2.334V107.07H304.358S300.648,106.945,299.94,103.81Z" transform="translate(-299.938 -103.81)"/>
      </g>
      <path id="패스_87499" data-name="패스 87499" d="M282.778,149.68v6.667h-1.556v-2.731H278.2v2.731H276.64V149.68H278.2v2.629h3.026V149.68Z" transform="translate(-210.352 -58.864)" fill="#fafafa"/>
      <path id="패스_87500" data-name="패스 87500" d="M287.732,150.94H285.6v-1.26h5.811v1.26h-2.139v5.407h-1.556Z" transform="translate(-212.342 -58.864)" fill="#fafafa"/>
    </g>
    <g id="freepik--Tabs--inject-6" transform="translate(36.722 91.034)">
      <rect id="사각형_151406" data-name="사각형 151406" width="76.813" height="123.808" rx="3.06" transform="translate(0.161 0.319)" fill="#fff"/>
      <path id="패스_87503" data-name="패스 87503" d="M45.832,108.37h71.306a2.7,2.7,0,0,1,2.7,2.7V122.2H43V111.194a2.808,2.808,0,0,1,2.832-2.824Z" transform="translate(-42.862 -108.051)" fill="#e0e0e0"/>
      <path id="패스_87504" data-name="패스 87504" d="M117.222,232.087a3.111,3.111,0,0,0,.988-.218,2.6,2.6,0,0,0,1.556-2.334c0-2.653,0-6.55-.039-11.568,0-10.043,0-24.567-.062-42.514s0-39.332-.047-63.067v-1.112a3.6,3.6,0,0,0-.093-1.058,2.412,2.412,0,0,0-2.334-1.743H45.621a2.334,2.334,0,0,0-2.334,2.178c0,.4,0,.84,0,1.26V229.294a2.451,2.451,0,0,0,1.914,2.575,12.261,12.261,0,0,0,1.789.054h12.12l42.522.062,11.56.039h0l-11.56.039-42.522.062H46.85a13.741,13.741,0,0,1-1.859-.062,2.723,2.723,0,0,1-1.61-1.027,2.8,2.8,0,0,1-.552-1.852q0-1.867,0-3.781V110.511a2.73,2.73,0,0,1,.443-1.291,2.785,2.785,0,0,1,2.334-1.26h71.609a2.762,2.762,0,0,1,1.175.241,2.793,2.793,0,0,1,1.556,1.774,4.278,4.278,0,0,1,.1,1.159v1.112c0,23.735,0,45.12-.047,63.067s-.047,32.471-.062,42.514c0,5.018,0,8.915-.039,11.568a2.614,2.614,0,0,1-.591,1.626,2.731,2.731,0,0,1-1.019.778,3,3,0,0,1-.778.179Z" transform="translate(-42.823 -107.959)" fill="#263238"/>
      <path id="패스_87505" data-name="패스 87505" d="M56.293,118a2.264,2.264,0,1,1-.663-1.609A2.272,2.272,0,0,1,56.293,118Z" transform="translate(-44.805 -109.685)" fill="#fff"/>
      <circle id="타원_66" data-name="타원 66" cx="2.264" cy="2.264" r="2.264" transform="translate(13.93 6.053)" fill="#fff"/>
      <circle id="타원_67" data-name="타원 67" cx="2.264" cy="2.264" r="2.264" transform="translate(20.901 6.053)" fill="#fff"/>
      <path id="패스_87506" data-name="패스 87506" d="M81.517,149.372H67.366a1.556,1.556,0,0,1-1.556-1.556h0a1.556,1.556,0,0,1,1.556-1.556H81.517a1.556,1.556,0,0,1,1.556,1.556h0A1.556,1.556,0,0,1,81.517,149.372Z" transform="translate(-47.928 -116.465)" fill="#263238"/>
      <path id="패스_87507" data-name="패스 87507" d="M81.517,159.7H67.366a1.556,1.556,0,0,1-1.556-1.556h0a1.556,1.556,0,0,1,1.556-1.556H81.517a1.556,1.556,0,0,1,1.556,1.556h0A1.556,1.556,0,0,1,81.517,159.7Z" transform="translate(-47.928 -118.759)" fill="#e0e0e0"/>
      <path id="패스_87508" data-name="패스 87508" d="M82.036,187.992H67.886a1.556,1.556,0,0,1-1.556-1.556h0a1.556,1.556,0,0,1,1.556-1.556H82.036a1.556,1.556,0,0,1,1.556,1.556h0A1.556,1.556,0,0,1,82.036,187.992Z" transform="translate(-48.043 -125.041)" fill="#e0e0e0"/>
      <path id="패스_87509" data-name="패스 87509" d="M81.517,170.372H67.366a1.556,1.556,0,0,1-1.556-1.556h0a1.556,1.556,0,0,1,1.556-1.556H81.517a1.556,1.556,0,0,1,1.556,1.556h0A1.556,1.556,0,0,1,81.517,170.372Z" transform="translate(-47.928 -121.128)" fill="#698cf5"/>
      <path id="패스_87510" data-name="패스 87510" d="M81.517,229.892H67.366a1.556,1.556,0,0,1-1.556-1.556h0a1.556,1.556,0,0,1,1.556-1.556H81.517a1.556,1.556,0,0,1,1.556,1.556h0A1.556,1.556,0,0,1,81.517,229.892Z" transform="translate(-47.928 -134.345)" fill="#698cf5"/>
      <path id="패스_87511" data-name="패스 87511" d="M110.647,149.372H96.5a1.556,1.556,0,0,1-1.556-1.556h0A1.556,1.556,0,0,1,96.5,146.26h14.151a1.556,1.556,0,0,1,1.556,1.556h0A1.556,1.556,0,0,1,110.647,149.372Z" transform="translate(-54.396 -116.465)" fill="#455a64"/>
      <path id="패스_87512" data-name="패스 87512" d="M125.981,159.7H96.42a1.47,1.47,0,0,1-1.4-1.556h0a1.47,1.47,0,0,1,1.4-1.556h29.6a1.47,1.47,0,0,1,1.4,1.556h0a1.47,1.47,0,0,1-1.439,1.556Z" transform="translate(-54.413 -118.759)" fill="#263238"/>
      <path id="패스_87513" data-name="패스 87513" d="M124.871,170.372H95.076a1.486,1.486,0,0,1-1.447-1.556h0a1.486,1.486,0,0,1,1.447-1.556h29.795a1.486,1.486,0,0,1,1.447,1.556h0a1.486,1.486,0,0,1-1.447,1.556Z" transform="translate(-54.105 -121.128)" fill="#e0e0e0"/>
      <path id="패스_87514" data-name="패스 87514" d="M97.2,179H67.406a1.486,1.486,0,0,1-1.447-1.556h0a1.486,1.486,0,0,1,1.447-1.556H97.2a1.486,1.486,0,0,1,1.447,1.556h0A1.486,1.486,0,0,1,97.2,179Z" transform="translate(-47.96 -123.044)" fill="#e0e0e0"/>
      <path id="패스_87515" data-name="패스 87515" d="M58.012,147.846a1.556,1.556,0,1,1-1.556-1.556A1.556,1.556,0,0,1,58.012,147.846Z" transform="translate(-45.505 -116.471)" fill="#455a64"/>
      <path id="패스_87516" data-name="패스 87516" d="M58.012,137.966a1.556,1.556,0,1,1-1.556-1.556A1.556,1.556,0,0,1,58.012,137.966Z" transform="translate(-45.505 -114.277)" fill="#455a64"/>
      <path id="패스_87517" data-name="패스 87517" d="M58.012,158.146a1.556,1.556,0,1,1-1.556-1.556A1.556,1.556,0,0,1,58.012,158.146Z" transform="translate(-45.505 -118.759)" fill="#455a64"/>
      <path id="패스_87518" data-name="패스 87518" d="M58.012,168.846a1.556,1.556,0,1,1-1.556-1.556A1.556,1.556,0,0,1,58.012,168.846Z" transform="translate(-45.505 -121.135)" fill="#455a64"/>
      <path id="패스_87519" data-name="패스 87519" d="M82.036,216.872H67.886a1.556,1.556,0,0,1-1.556-1.556h0a1.556,1.556,0,0,1,1.556-1.556H82.036a1.556,1.556,0,0,1,1.556,1.556h0A1.556,1.556,0,0,1,82.036,216.872Z" transform="translate(-48.043 -131.454)" fill="#e0e0e0"/>
      <path id="패스_87520" data-name="패스 87520" d="M81.517,199.252H67.366A1.556,1.556,0,0,1,65.81,197.7h0a1.556,1.556,0,0,1,1.556-1.556H81.517a1.556,1.556,0,0,1,1.556,1.556h0A1.556,1.556,0,0,1,81.517,199.252Z" transform="translate(-47.928 -127.541)" fill="#698cf5"/>
      <path id="패스_87521" data-name="패스 87521" d="M124.871,199.252H95.076A1.486,1.486,0,0,1,93.63,197.7h0a1.486,1.486,0,0,1,1.447-1.556h29.795a1.486,1.486,0,0,1,1.447,1.556h0a1.486,1.486,0,0,1-1.447,1.556Z" transform="translate(-54.105 -127.541)" fill="#e0e0e0"/>
      <path id="패스_87522" data-name="패스 87522" d="M97.2,207.882H67.406a1.486,1.486,0,0,1-1.447-1.556h0a1.486,1.486,0,0,1,1.447-1.556H97.2a1.486,1.486,0,0,1,1.447,1.556h0a1.486,1.486,0,0,1-1.447,1.556Z" transform="translate(-47.96 -129.458)" fill="#e0e0e0"/>
      <path id="패스_87523" data-name="패스 87523" d="M58.012,197.726a1.556,1.556,0,1,1-1.556-1.556A1.556,1.556,0,0,1,58.012,197.726Z" transform="translate(-45.505 -127.548)" fill="#455a64"/>
      <rect id="사각형_151407" data-name="사각형 151407" width="10.347" height="2.964" rx="0.96" transform="translate(17.991 22.584)" fill="#455a64"/>
      <path id="패스_87524" data-name="패스 87524" d="M81.517,240.4H67.366a1.556,1.556,0,0,1-1.556-1.556h0a1.556,1.556,0,0,1,1.556-1.556H81.517a1.556,1.556,0,0,1,1.556,1.556h0A1.556,1.556,0,0,1,81.517,240.4Z" transform="translate(-47.928 -136.679)" fill="#263238"/>
      <path id="패스_87525" data-name="패스 87525" d="M110.647,240.4H96.5a1.556,1.556,0,0,1-1.556-1.556h0A1.556,1.556,0,0,1,96.5,237.29h14.151a1.556,1.556,0,0,1,1.556,1.556h0A1.556,1.556,0,0,1,110.647,240.4Z" transform="translate(-54.396 -136.679)" fill="#455a64"/>
      <path id="패스_87526" data-name="패스 87526" d="M58.012,238.876a1.556,1.556,0,1,1-1.556-1.556A1.556,1.556,0,0,1,58.012,238.876Z" transform="translate(-45.505 -136.686)" fill="#455a64"/>
      <path id="패스_87527" data-name="패스 87527" d="M58.012,248.376a1.556,1.556,0,1,1-1.556-1.556A1.556,1.556,0,0,1,58.012,248.376Z" transform="translate(-45.505 -138.796)" fill="#455a64"/>
      <rect id="사각형_151408" data-name="사각형 151408" width="10.347" height="2.964" rx="0.96" transform="translate(17.991 108.476)" fill="#455a64"/>
      <rect id="사각형_151409" data-name="사각형 151409" width="140.301" height="89.245" transform="translate(82.101 105.014)" fill="#fff"/>
      <rect id="사각형_151410" data-name="사각형 151410" width="25.267" height="89.245" transform="translate(82.101 105.014)" fill="#ebebeb"/>
      <path id="패스_87528" data-name="패스 87528" d="M162.3,255.159a1.665,1.665,0,0,1,.42-.179l.086-.42h.7l.109.412a1.766,1.766,0,0,1,.42.171l.358-.233.506.482-.218.366a1.664,1.664,0,0,1,.179.42l.42.086v.708l-.412.1a1.556,1.556,0,0,1-.163.428l.233.35-.49.506-.366-.218a1.687,1.687,0,0,1-.42.187l-.086.412h-.708l-.1-.412a1.766,1.766,0,0,1-.42-.171l-.358.233-.506-.49.218-.366a1.664,1.664,0,0,1-.179-.42l-.42-.086v-.7l.412-.1a1.679,1.679,0,0,1,.163-.428l-.233-.358.49-.506.366.218Zm.373.941a.614.614,0,1,1-.016.016Z" transform="translate(-69.088 -140.514)" fill="#e0e0e0"/>
      <path id="패스_87529" data-name="패스 87529" d="M166.678,280.034h-11a1.128,1.128,0,0,1-1.128-1.136h0a1.128,1.128,0,0,1,1.128-1.128h11.016a1.128,1.128,0,0,1,1.136,1.128h0a1.136,1.136,0,0,1-1.151,1.136Z" transform="translate(-67.634 -145.668)" fill="#e0e0e0"/>
      <path id="패스_87530" data-name="패스 87530" d="M166.678,272.624h-11a1.136,1.136,0,0,1-1.128-1.136h0a1.128,1.128,0,0,1,1.128-1.128h11.016a1.128,1.128,0,0,1,1.136,1.128h0a1.136,1.136,0,0,1-1.151,1.136Z" transform="translate(-67.634 -144.023)" fill="#e0e0e0"/>
      <path id="패스_87531" data-name="패스 87531" d="M166.678,265.834h-11a1.128,1.128,0,0,1-1.128-1.128h0a1.136,1.136,0,0,1,1.128-1.136h11.016a1.136,1.136,0,0,1,1.12,1.112h0a1.128,1.128,0,0,1-1.136,1.151Z" transform="translate(-67.634 -142.515)" fill="#e0e0e0"/>
      <path id="패스_87532" data-name="패스 87532" d="M204.888,259.254h-10.44a1.128,1.128,0,0,1-1.128-1.128h0a1.128,1.128,0,0,1,1.128-1.136h10.44a1.128,1.128,0,0,1,1.128,1.136h0a1.128,1.128,0,0,1-1.128,1.128Z" transform="translate(-76.243 -141.054)" fill="#263238"/>
      <path id="패스_87533" data-name="패스 87533" d="M204.888,266.874h-10.44a1.128,1.128,0,0,1-1.128-1.136h0a1.128,1.128,0,0,1,1.128-1.128h10.44a1.128,1.128,0,0,1,1.128,1.128h0a1.128,1.128,0,0,1-1.128,1.136Z" transform="translate(-76.243 -142.746)" fill="#e0e0e0"/>
      <path id="패스_87534" data-name="패스 87534" d="M204.888,274.744h-10.44a1.128,1.128,0,0,1-1.128-1.128h0a1.128,1.128,0,0,1,1.128-1.136h10.44a1.128,1.128,0,0,1,1.128,1.136h0A1.128,1.128,0,0,1,204.888,274.744Z" transform="translate(-76.243 -144.494)" fill="#698cf5"/>
      <path id="패스_87535" data-name="패스 87535" d="M200.438,289.964h-5.99a1.128,1.128,0,0,1-1.128-1.136h0a1.128,1.128,0,0,1,1.128-1.128h5.99a1.128,1.128,0,0,1,1.128,1.128h0a1.128,1.128,0,0,1-1.128,1.136Z" transform="translate(-76.243 -147.874)" fill="#263238"/>
      <path id="패스_87536" data-name="패스 87536" d="M200.438,297.854h-5.99a1.128,1.128,0,0,1-1.128-1.136h0a1.128,1.128,0,0,1,1.128-1.128h5.99a1.128,1.128,0,0,1,1.128,1.128h0a1.128,1.128,0,0,1-1.128,1.136Z" transform="translate(-76.243 -149.626)" fill="#263238"/>
      <path id="패스_87537" data-name="패스 87537" d="M221.865,297.854H210.9a1.136,1.136,0,0,1-1.136-1.136h0a1.136,1.136,0,0,1,1.136-1.128h10.969A1.128,1.128,0,0,1,223,296.718h0a1.136,1.136,0,0,1-1.136,1.136Z" transform="translate(-79.894 -149.626)" fill="#e0e0e0"/>
      <path id="패스_87538" data-name="패스 87538" d="M213.895,304.864H202.918a1.128,1.128,0,0,1-1.128-1.128h0a1.136,1.136,0,0,1,1.128-1.136h10.977a1.136,1.136,0,0,1,1.128,1.136h0A1.128,1.128,0,0,1,213.895,304.864Z" transform="translate(-78.124 -151.182)" fill="#698cf5"/>
      <rect id="사각형_151411" data-name="사각형 151411" width="9.078" height="2.264" rx="0.99" transform="translate(129.889 157.649)" fill="#698cf5"/>
      <path id="패스_87539" data-name="패스 87539" d="M217.73,328.554h-6.815a1.136,1.136,0,0,1-1.136-1.136h0a1.128,1.128,0,0,1,1.136-1.128h6.815a1.128,1.128,0,0,1,1.128,1.128h0a1.128,1.128,0,0,1-1.128,1.136Z" transform="translate(-79.898 -156.443)" fill="#698cf5"/>
      <path id="패스_87540" data-name="패스 87540" d="M217.73,345.114h-6.815a1.128,1.128,0,0,1-1.136-1.128h0a1.136,1.136,0,0,1,1.136-1.136h6.815a1.128,1.128,0,0,1,1.128,1.136h0A1.128,1.128,0,0,1,217.73,345.114Z" transform="translate(-79.898 -160.12)" fill="#698cf5"/>
      <path id="패스_87541" data-name="패스 87541" d="M237.815,345.114H225.866a1.128,1.128,0,0,1-1.136-1.128h0a1.136,1.136,0,0,1,1.136-1.136h11.949a1.128,1.128,0,0,1,1.128,1.136h0a1.128,1.128,0,0,1-1.128,1.128Z" transform="translate(-83.218 -160.12)" fill="#455a64"/>
      <path id="패스_87542" data-name="패스 87542" d="M251.485,345.114h-1.719a1.128,1.128,0,0,1-1.136-1.128h0a1.136,1.136,0,0,1,1.136-1.136h1.719a1.136,1.136,0,0,1,1.136,1.136h0a1.136,1.136,0,0,1-1.136,1.128Z" transform="translate(-88.526 -160.12)" fill="#e0e0e0"/>
      <path id="패스_87543" data-name="패스 87543" d="M237.419,328.554H227.306a1.136,1.136,0,0,1-1.136-1.136h0a1.128,1.128,0,0,1,1.136-1.128h10.113a1.128,1.128,0,0,1,1.128,1.128h0a1.128,1.128,0,0,1-1.128,1.136Z" transform="translate(-83.538 -156.443)" fill="#e0e0e0"/>
      <path id="패스_87544" data-name="패스 87544" d="M259.571,335.824H227.326a1.136,1.136,0,0,1-1.136-1.136h0a1.128,1.128,0,0,1,1.136-1.128h32.245a1.128,1.128,0,0,1,1.128,1.128h0a1.128,1.128,0,0,1-1.128,1.136Z" transform="translate(-83.542 -158.057)" fill="#e0e0e0"/>
      <path id="패스_87545" data-name="패스 87545" d="M267.68,328.554H247.1a1.136,1.136,0,0,1-1.136-1.136h0a1.136,1.136,0,0,1,1.136-1.128H267.68a1.128,1.128,0,0,1,1.136,1.128h0a1.136,1.136,0,0,1-1.136,1.136Z" transform="translate(-87.933 -156.443)" fill="#455a64"/>
      <rect id="사각형_151412" data-name="사각형 151412" width="10.79" height="2.264" rx="0.99" transform="translate(141.932 157.649)" fill="#455a64"/>
      <rect id="사각형_151413" data-name="사각형 151413" width="4.38" height="2.264" rx="0.99" transform="translate(155.725 157.649)" fill="#e0e0e0"/>
      <rect id="사각형_151414" data-name="사각형 151414" width="12.929" height="2.264" rx="0.99" transform="translate(163.442 157.649)" fill="#e0e0e0"/>
      <path id="패스_87546" data-name="패스 87546" d="M225.878,304.864h-2.443a1.128,1.128,0,0,1-1.136-1.128h0a1.136,1.136,0,0,1,1.136-1.136h2.443a1.136,1.136,0,0,1,1.128,1.136h0A1.128,1.128,0,0,1,225.878,304.864Z" transform="translate(-82.679 -151.182)" fill="#263238"/>
      <path id="패스_87547" data-name="패스 87547" d="M248.757,304.864H233.2a1.128,1.128,0,0,1-1.128-1.128h0A1.136,1.136,0,0,1,233.2,302.6h15.559a1.144,1.144,0,0,1,1.136,1.136h0A1.136,1.136,0,0,1,248.757,304.864Z" transform="translate(-84.848 -151.182)" fill="#e0e0e0"/>
      <path id="패스_87548" data-name="패스 87548" d="M226.37,259.254H215.938a1.128,1.128,0,0,1-1.128-1.128h0a1.128,1.128,0,0,1,1.128-1.136H226.37a1.136,1.136,0,0,1,1.136,1.136h0a1.128,1.128,0,0,1-1.136,1.128Z" transform="translate(-81.015 -141.054)" fill="#455a64"/>
      <path id="패스_87549" data-name="패스 87549" d="M239.852,266.874H215.938a1.128,1.128,0,0,1-1.128-1.136h0a1.128,1.128,0,0,1,1.128-1.128h23.914a1.128,1.128,0,0,1,1.136,1.128h0A1.136,1.136,0,0,1,239.852,266.874Z" transform="translate(-81.015 -142.746)" fill="#263238"/>
      <path id="패스_87550" data-name="패스 87550" d="M265.524,274.744H215.938a1.128,1.128,0,0,1-1.128-1.128h0a1.128,1.128,0,0,1,1.128-1.136h49.586a1.128,1.128,0,0,1,1.128,1.136h0A1.128,1.128,0,0,1,265.524,274.744Z" transform="translate(-81.015 -144.494)" fill="#e0e0e0"/>
      <path id="패스_87551" data-name="패스 87551" d="M239.315,280.294H215.938a1.136,1.136,0,0,1-1.128-1.136h0a1.128,1.128,0,0,1,1.128-1.128h23.377a1.128,1.128,0,0,1,1.136,1.128h0A1.136,1.136,0,0,1,239.315,280.294Z" transform="translate(-81.015 -145.726)" fill="#e0e0e0"/>
      <path id="패스_87552" data-name="패스 87552" d="M233.173,289.964H209.788a1.128,1.128,0,0,1-1.128-1.136h0a1.128,1.128,0,0,1,1.128-1.128h23.385a1.128,1.128,0,0,1,1.128,1.128h0a1.128,1.128,0,0,1-1.128,1.136Z" transform="translate(-79.65 -147.874)" fill="#455a64"/>
      <path id="패스_87553" data-name="패스 87553" d="M254.437,289.964H246.6a1.136,1.136,0,0,1-1.136-1.136h0A1.128,1.128,0,0,1,246.6,287.7h7.842a1.136,1.136,0,0,1,1.136,1.128h0A1.136,1.136,0,0,1,254.437,289.964Z" transform="translate(-87.822 -147.874)" fill="#698cf5"/>
      <path id="패스_87554" data-name="패스 87554" d="M278.207,289.914H263.426a1.128,1.128,0,0,1-1.136-1.128h0a1.136,1.136,0,0,1,1.136-1.136h14.781a1.128,1.128,0,0,1,1.128,1.136h0a1.128,1.128,0,0,1-1.128,1.128Z" transform="translate(-91.559 -147.863)" fill="#263238"/>
      <path id="패스_87555" data-name="패스 87555" d="M304.1,289.914H289.318a1.128,1.128,0,0,1-1.128-1.128h0a1.128,1.128,0,0,1,1.128-1.136H304.1a1.136,1.136,0,0,1,1.136,1.136h0a1.128,1.128,0,0,1-1.136,1.128Z" transform="translate(-97.31 -147.862)" fill="#e0e0e0"/>
      <path id="패스_87556" data-name="패스 87556" d="M161.9,287.884h-6.223a1.136,1.136,0,0,1-1.128-1.136h0a1.128,1.128,0,0,1,1.128-1.128H161.9a1.128,1.128,0,0,1,1.128,1.128h0a1.136,1.136,0,0,1-1.128,1.136Z" transform="translate(-67.634 -147.412)" fill="#e0e0e0"/>
      <path id="패스_87557" data-name="패스 87557" d="M160.042,311.424h-4.364a1.128,1.128,0,0,1-1.128-1.136h0a1.128,1.128,0,0,1,1.128-1.128h4.38a1.128,1.128,0,0,1,1.128,1.128h0a1.128,1.128,0,0,1-1.144,1.136Z" transform="translate(-67.634 -152.639)" fill="#e0e0e0"/>
      <path id="패스_87558" data-name="패스 87558" d="M167.814,295.724H155.678a1.128,1.128,0,0,1-1.128-1.128h0a1.128,1.128,0,0,1,1.128-1.136h12.136a1.128,1.128,0,0,1,1.128,1.136h0A1.128,1.128,0,0,1,167.814,295.724Z" transform="translate(-67.634 -149.153)" fill="#e0e0e0"/>
      <path id="패스_87559" data-name="패스 87559" d="M165.682,303.574h-10a1.128,1.128,0,0,1-1.128-1.128h0a1.128,1.128,0,0,1,1.128-1.136H165.7a1.128,1.128,0,0,1,1.128,1.136h0a1.128,1.128,0,0,1-1.144,1.128Z" transform="translate(-67.634 -150.896)" fill="#e0e0e0"/>
      <path id="패스_87560" data-name="패스 87560" d="M187.543,258.121a1.151,1.151,0,1,1-1.151-1.151A1.151,1.151,0,0,1,187.543,258.121Z" transform="translate(-74.449 -141.049)" fill="#455a64"/>
      <circle id="타원_68" data-name="타원 68" cx="1.151" cy="1.151" r="1.151" transform="translate(110.791 109.876)" fill="#455a64"/>
      <circle id="타원_69" data-name="타원 69" cx="1.151" cy="1.151" r="1.151" transform="translate(110.791 121.825)" fill="#455a64"/>
      <circle id="타원_70" data-name="타원 70" cx="1.151" cy="1.151" r="1.151" transform="translate(110.791 127.971)" fill="#455a64"/>
      <circle id="타원_71" data-name="타원 71" cx="1.151" cy="1.151" r="1.151" transform="translate(110.791 134.109)" fill="#455a64"/>
      <path id="패스_87561" data-name="패스 87561" d="M187.543,289.394a1.151,1.151,0,1,1-1.151-1.144A1.151,1.151,0,0,1,187.543,289.394Z" transform="translate(-74.449 -147.996)" fill="#455a64"/>
      <circle id="타원_72" data-name="타원 72" cx="1.151" cy="1.151" r="1.151" transform="translate(110.791 146.392)" fill="#455a64"/>
      <circle id="타원_73" data-name="타원 73" cx="1.151" cy="1.151" r="1.151" transform="translate(110.791 152.53)" fill="#455a64"/>
      <path id="패스_87562" data-name="패스 87562" d="M187.543,313.081a1.151,1.151,0,1,1-1.151-1.151A1.151,1.151,0,0,1,187.543,313.081Z" transform="translate(-74.449 -153.254)" fill="#455a64"/>
      <path id="패스_87563" data-name="패스 87563" d="M187.543,320.971a1.151,1.151,0,1,1-1.151-1.151A1.151,1.151,0,0,1,187.543,320.971Z" transform="translate(-74.449 -155.006)" fill="#455a64"/>
      <circle id="타원_74" data-name="타원 74" cx="1.151" cy="1.151" r="1.151" transform="translate(110.791 170.959)" fill="#455a64"/>
      <path id="패스_87564" data-name="패스 87564" d="M187.543,336.761a1.151,1.151,0,1,1-1.151-1.151,1.151,1.151,0,0,1,1.151,1.151Z" transform="translate(-74.449 -158.513)" fill="#455a64"/>
      <circle id="타원_75" data-name="타원 75" cx="1.151" cy="1.151" r="1.151" transform="translate(110.791 183.243)" fill="#455a64"/>
      <path id="패스_87565" data-name="패스 87565" d="M152.569,227.31H285.681a2.979,2.979,0,0,1,2.979,2.979v9.226H148.36v-8a4.2,4.2,0,0,1,4.209-4.2Z" transform="translate(-66.259 -134.463)" fill="#e0e0e0"/>
      <circle id="타원_76" data-name="타원 76" cx="1.673" cy="1.673" r="1.673" transform="translate(87.679 97.631)" fill="#fff"/>
      <path id="패스_87566" data-name="패스 87566" d="M165.485,235.133a1.665,1.665,0,1,1-.488-1.185A1.673,1.673,0,0,1,165.485,235.133Z" transform="translate(-69.319 -135.829)" fill="#fff"/>
      <path id="패스_87567" data-name="패스 87567" d="M172.1,235.133a1.665,1.665,0,1,1-.488-1.185A1.673,1.673,0,0,1,172.1,235.133Z" transform="translate(-70.787 -135.829)" fill="#fff"/>
      <path id="패스_87568" data-name="패스 87568" d="M186.72,355.88l11.864,12.828,10.759-12.828Z" transform="translate(-74.778 -163.014)" fill="#fff"/>
      <path id="패스_87569" data-name="패스 87569" d="M284.814,328.673a4.883,4.883,0,0,0,1.229-.233,3.789,3.789,0,0,0,2.4-2.575,3.888,3.888,0,0,0,.132-1.26V311.7c0-12.33-.039-30.161-.062-52.2v-28.83a3.641,3.641,0,0,0-2.863-3.166,15.991,15.991,0,0,0-2.38-.078H151.834a3.555,3.555,0,0,0-1.408.443,3.617,3.617,0,0,0-1.735,2.334,10.781,10.781,0,0,0-.1,2.147v92.7a3.6,3.6,0,0,0,1.813,2.917,3.556,3.556,0,0,0,1.7.474h27.049l.054.055L190.1,339.93h-.241l9.522-11.358.047-.054h.07l62.367.062,17.029.047h0l-17.029.047-62.367.062.117-.054L190.046,340.2l-.117.14-.124-.132-10.891-11.42.124.054H152.044a4.061,4.061,0,0,1-1.867-.521,3.991,3.991,0,0,1-2.007-3.221V231.284a4.759,4.759,0,0,1,.109-1.136,4.053,4.053,0,0,1,1.929-2.575,4.006,4.006,0,0,1,1.556-.5c.568-.039,1.058,0,1.556,0H283.188a15.215,15.215,0,0,1,2.443.086,3.967,3.967,0,0,1,3.112,3.454c.047.825,0,1.556,0,2.334v26.5c0,22.039-.054,39.869-.07,52.2V324.55a4.037,4.037,0,0,1-.148,1.284,3.741,3.741,0,0,1-1.128,1.813,3.656,3.656,0,0,1-1.33.778,3.748,3.748,0,0,1-.926.187Z" transform="translate(-66.217 -134.407)" fill="#263238"/>
      <path id="패스_87570" data-name="패스 87570" d="M161.826,128.49H267.812a2.466,2.466,0,0,1,2.466,2.466v53.312a2.948,2.948,0,0,1-2.948,2.948h-105.5a2.466,2.466,0,0,1-2.466-2.466V130.956A2.466,2.466,0,0,1,161.826,128.49Z" transform="translate(-68.702 -112.519)" fill="#fff"/>
      <path id="패스_87571" data-name="패스 87571" d="M162.059,128.49H267.578a2.7,2.7,0,0,1,2.7,2.7V141.1H159.36v-9.88a2.7,2.7,0,0,1,2.7-2.731Z" transform="translate(-68.702 -112.519)" fill="#e0e0e0"/>
      <path id="패스_87572" data-name="패스 87572" d="M267.114,187.171a5.279,5.279,0,0,0,.848-.148,3.065,3.065,0,0,0,1.875-1.556,3.36,3.36,0,0,0,.342-1.789V175.8c0-8.464,0-20.7-.062-35.824v-8.806a2.334,2.334,0,0,0-1.346-2.334,3.111,3.111,0,0,0-1.455-.218H162.5a4.38,4.38,0,0,0-1.027.07,2.536,2.536,0,0,0-1.921,2.069,6.523,6.523,0,0,0,0,1.042v52.075a2.956,2.956,0,0,0,1.828,2.839,4.287,4.287,0,0,0,1.8.21H218.2l35.824.062h9.74l-9.74.039-35.824.062-53.141.047h-1.883a4.8,4.8,0,0,1-1.937-.241,3.353,3.353,0,0,1-2.069-3.19V131.813a6.674,6.674,0,0,1,.039-1.1,2.9,2.9,0,0,1,2.225-2.4,4.286,4.286,0,0,1,1.12-.086h104.78a3.236,3.236,0,0,1,1.556.249,2.676,2.676,0,0,1,1.556,2.637v8.806c0,15.123-.047,27.36-.062,35.824v7.88a4.561,4.561,0,0,1-.062.988,3.464,3.464,0,0,1-.3.84,3.182,3.182,0,0,1-1.945,1.556,2.559,2.559,0,0,1-.957.163Z" transform="translate(-68.657 -112.457)" fill="#263238"/>
      <circle id="타원_77" data-name="타원 77" cx="2.069" cy="2.069" r="2.069" transform="translate(96.843 21.191)" fill="#fff"/>
      <path id="패스_87573" data-name="패스 87573" d="M179.609,137.269a2.062,2.062,0,1,1-.6-1.463A2.069,2.069,0,0,1,179.609,137.269Z" transform="translate(-72.279 -114.009)" fill="#fff"/>
      <circle id="타원_78" data-name="타원 78" cx="2.069" cy="2.069" r="2.069" transform="translate(109.554 21.191)" fill="#fff"/>
      <path id="패스_87574" data-name="패스 87574" d="M196.361,166.743H183.47a1.392,1.392,0,0,1-1.4-1.393h0a1.393,1.393,0,0,1,1.4-1.4h12.89a1.4,1.4,0,0,1,1.4,1.4h0a1.4,1.4,0,0,1-1.4,1.393Z" transform="translate(-73.745 -120.393)" fill="#263238"/>
      <path id="패스_87575" data-name="패스 87575" d="M196.361,176.2H183.47a1.4,1.4,0,0,1-1.4-1.4h0a1.4,1.4,0,0,1,1.4-1.4h12.89a1.408,1.408,0,0,1,1.4,1.4h0a1.408,1.408,0,0,1-1.4,1.4Z" transform="translate(-73.745 -122.492)" fill="#e0e0e0"/>
      <path id="패스_87576" data-name="패스 87576" d="M276.863,166.743h-37.4a1.4,1.4,0,0,1-1.4-1.393h0a1.4,1.4,0,0,1,1.4-1.4h37.4a1.4,1.4,0,0,1,1.4,1.4h0A1.4,1.4,0,0,1,276.863,166.743Z" transform="translate(-86.178 -120.393)" fill="#e0e0e0"/>
      <path id="패스_87577" data-name="패스 87577" d="M196.361,185.891H183.47a1.4,1.4,0,0,1-1.4-1.4h0a1.393,1.393,0,0,1,1.4-1.4h12.89a1.4,1.4,0,0,1,1.4,1.4h0a1.408,1.408,0,0,1-1.4,1.4Z" transform="translate(-73.745 -124.643)" fill="#698cf5"/>
      <path id="패스_87578" data-name="패스 87578" d="M272.391,176.2h-12.9a1.4,1.4,0,0,1-1.392-1.4h0a1.4,1.4,0,0,1,1.393-1.4h12.9a1.408,1.408,0,0,1,1.4,1.4h0a1.408,1.408,0,0,1-1.4,1.4Z" transform="translate(-90.629 -122.492)" fill="#698cf5"/>
      <path id="패스_87579" data-name="패스 87579" d="M222.918,166.743h-12.9a1.4,1.4,0,0,1-1.4-1.393h0a1.4,1.4,0,0,1,1.4-1.4h12.9a1.393,1.393,0,0,1,1.393,1.4h0a1.393,1.393,0,0,1-1.392,1.393Z" transform="translate(-79.641 -120.393)" fill="#455a64"/>
      <path id="패스_87580" data-name="패스 87580" d="M239.527,176.2H210.02a1.408,1.408,0,0,1-1.4-1.4h0a1.408,1.408,0,0,1,1.4-1.4h29.507a1.4,1.4,0,0,1,1.4,1.4h0A1.4,1.4,0,0,1,239.527,176.2Z" transform="translate(-79.641 -122.492)" fill="#263238"/>
      <path id="패스_87581" data-name="패스 87581" d="M268.474,185.891H209.958a1.369,1.369,0,0,1-1.338-1.4h0a1.369,1.369,0,0,1,1.338-1.4h58.516a1.361,1.361,0,0,1,1.33,1.4h0A1.369,1.369,0,0,1,268.474,185.891Z" transform="translate(-79.641 -124.643)" fill="#e0e0e0"/>
      <path id="패스_87582" data-name="패스 87582" d="M238.913,192.741H210.02a1.408,1.408,0,0,1-1.4-1.4h0a1.408,1.408,0,0,1,1.4-1.4h28.893a1.4,1.4,0,0,1,1.4,1.4h0A1.4,1.4,0,0,1,238.913,192.741Z" transform="translate(-79.641 -126.164)" fill="#e0e0e0"/>
      <path id="패스_87583" data-name="패스 87583" d="M174.927,165.344a1.424,1.424,0,1,1-1.424-1.424,1.424,1.424,0,0,1,1.424,1.424Z" transform="translate(-71.526 -120.386)" fill="#455a64"/>
      <path id="패스_87584" data-name="패스 87584" d="M174.927,156.334a1.416,1.416,0,1,1-.415-1.009A1.424,1.424,0,0,1,174.927,156.334Z" transform="translate(-71.526 -118.386)" fill="#455a64"/>
      <circle id="타원_79" data-name="타원 79" cx="1.424" cy="1.424" r="1.424" transform="translate(100.554 50.831)" fill="#455a64"/>
      <circle id="타원_80" data-name="타원 80" cx="1.424" cy="1.424" r="1.424" transform="translate(100.554 58.423)" fill="#455a64"/>
      <rect id="사각형_151415" data-name="사각형 151415" width="9.429" height="2.699" rx="0.96" transform="translate(108.613 36.268)" fill="#455a64"/>
    </g>
    <g id="freepik--Drink--inject-6" transform="translate(48.56 304.88)">
      <path id="패스_87585" data-name="패스 87585" d="M82.964,428.623c-6.488,2.824-12.743,3.112-18.67,0L59.96,392.27H86.9Z" transform="translate(-58.466 -384.941)" fill="#6f4439"/>
      <path id="패스_87586" data-name="패스 87586" d="M84.75,388.109l-.778-2.6L63.629,383a1.19,1.19,0,0,0-1.26.778l-1.47,4.286H58.3v4.706a77.62,77.62,0,0,0,29.211,0v-4.706Z" transform="translate(-58.098 -382.88)" fill="#e0e0e0"/>
      <path id="패스_87587" data-name="패스 87587" d="M84.692,388.078a.531.531,0,0,1,.187,0h2.645v.078c0,1.214,0,2.8.047,4.706v.093h-.093a68.141,68.141,0,0,1-12.54,1.431A85.665,85.665,0,0,1,58.32,393h-.28v-5.08h2.8l-.187.132c.49-1.431.98-2.832,1.447-4.2a1.4,1.4,0,0,1,.778-.895,1.438,1.438,0,0,1,.6-.109,5.38,5.38,0,0,1,.537.062l2.054.257,7.5.895L83.914,385.4h.047v.047c.233.817.42,1.463.56,1.929.054.2.1.373.14.506a1.184,1.184,0,0,1,0,.187.608.608,0,0,1-.062-.156l-.171-.482c-.163-.474-.373-1.112-.653-1.937l.062.054-10.331-1.182-7.46-.879-2.054-.249a1.758,1.758,0,0,0-.949,0,1,1,0,0,0-.576.669l-1.439,4.209-.047.132H58.242l.2-.2v4.706l-.163-.2h.109a87.676,87.676,0,0,0,16.539,1.377,71.144,71.144,0,0,0,12.494-1.315l-.093.124c0-1.906,0-3.493.047-4.706l.078.078-2.077-.047h-.521Z" transform="translate(-58.04 -382.849)" fill="#263238"/>
      <path id="패스_87588" data-name="패스 87588" d="M85.1,420.373a84.273,84.273,0,0,1-23.05,0L60.93,409.35a114.284,114.284,0,0,0,25.524,0Z" transform="translate(-58.682 -388.734)" fill="#ae7461"/>
      <path id="패스_87589" data-name="패스 87589" d="M74.975,413.9a2.443,2.443,0,0,0-.949,3.112l.731,1.556a2.443,2.443,0,0,0,3,1.284Z" transform="translate(-61.54 -389.744)" fill="#6f4439"/>
      <path id="패스_87590" data-name="패스 87590" d="M75.94,413.575l2.785,5.99a2.458,2.458,0,0,0,.949-3.112l-.731-1.556a2.451,2.451,0,0,0-3-1.323Z" transform="translate(-62.015 -389.645)" fill="#6f4439"/>
      <path id="패스_87591" data-name="패스 87591" d="M85.708,389.653a4.423,4.423,0,0,1-.918.272c-.591.156-1.463.342-2.552.537a49.2,49.2,0,0,1-17.169,0c-1.081-.2-1.953-.389-2.552-.552a4.914,4.914,0,0,1-.918-.28,4.388,4.388,0,0,1,.949.124c.607.117,1.486.264,2.567.42a58.516,58.516,0,0,0,17.076,0c1.089-.156,1.968-.3,2.567-.412a4.094,4.094,0,0,1,.949-.109Z" transform="translate(-58.831 -384.355)" fill="#263238"/>
    </g>
    <g id="freepik--Device--inject-6" transform="translate(84.021 256.079)">
      <path id="패스_87592" data-name="패스 87592" d="M108.9,320.16s-4.442.957-5.212,4.115,6.223,78.571,6.465,80.4c.443,2.886,2.878,6.558,8.355,6.356,4.784-.171,69.905,0,86.3,0,2.186,0,3.493-1.851,3.781-4.061h0l-80.633-4.761Z" transform="translate(-103.624 -320.127)" fill="#e0e0e0"/>
      <path id="패스_87593" data-name="패스 87593" d="M107.8,322.689l7,81.325a2.637,2.637,0,0,0,2.575,2.373l92.146.412-17.706-17.566-59.854-.42-6.4-63.721A2,2,0,0,0,124,323.358l-13.412-3.112a2.334,2.334,0,0,0-2.793,2.443Z" transform="translate(-104.55 -320.136)" fill="#e0e0e0"/>
      <path id="패스_87594" data-name="패스 87594" d="M107.8,322.671a1.905,1.905,0,0,1,0-.4,2.163,2.163,0,0,1,.358-1.1,2.334,2.334,0,0,1,1.556-1.035,2.924,2.924,0,0,1,1.229.1l1.361.311,7.118,1.634,4.512,1.042a2.116,2.116,0,0,1,1.7,1.813c.086.871.179,1.766.272,2.684,1.5,14.781,3.641,35.785,6.223,61.052l-.171-.163,59.862.4h.078l.062.062,17.7,17.558.35.35h-4.574l-67.548-.319-15.17-.078h-5.477a2.8,2.8,0,0,1-1.727-.739,2.762,2.762,0,0,1-.864-1.649c-.07-.6-.109-1.175-.163-1.766-.093-1.167-.194-2.334-.3-3.477-.778-9.2-1.509-17.768-2.17-25.586-1.315-15.644-2.38-28.3-3.112-37.053-.358-4.372-.638-7.779-.825-10.074-.093-1.151-.156-2.023-.2-2.622s-.062-.895-.062-.895.047.3.1.887.14,1.478.241,2.622c.21,2.334.513,5.7.9,10.066.778,8.752,1.883,21.409,3.252,37.038.677,7.826,1.424,16.391,2.217,25.586q.148,1.727.3,3.477c.054.583.093,1.182.156,1.75a2.551,2.551,0,0,0,.778,1.447,2.49,2.49,0,0,0,1.556.638h5.461l15.17.062,67.54.288h4.084l-.148.342-17.776-17.574.14.062-59.854-.451h-.156v-.156c-2.513-25.267-4.6-46.318-6.06-61.06-.093-.918-.187-1.813-.272-2.684A1.929,1.929,0,0,0,123.9,323.4l-4.512-1.058-7.1-1.688-1.361-.319a2.8,2.8,0,0,0-1.19-.117,2.334,2.334,0,0,0-1.556.988,2.178,2.178,0,0,0-.373,1.074C107.789,322.539,107.813,322.671,107.8,322.671Z" transform="translate(-104.548 -320.118)" fill="#263238"/>
      <path id="패스_87595" data-name="패스 87595" d="M192.4,424.792h8.565L190.14,410.75h-5.08Z" transform="translate(-121.708 -340.244)" fill="#263238"/>
      <path id="패스_87596" data-name="패스 87596" d="M111.869,327.8l6.542,70.7,12.229-9.724-5.29-59.512a1.027,1.027,0,0,0-.879-.934L113.044,326.7a1.035,1.035,0,0,0-1.175,1.1Z" transform="translate(-105.454 -321.577)" fill="#263238"/>
      <path id="패스_87597" data-name="패스 87597" d="M128.7,424.792h8.837l8.985-14.042h-5.088Z" transform="translate(-109.192 -340.244)" fill="#263238"/>
      <path id="패스_87598" data-name="패스 87598" d="M142.65,424.792h8.565l4.691-14.042h-5.088Z" transform="translate(-112.29 -340.244)" fill="#263238"/>
      <path id="패스_87599" data-name="패스 87599" d="M156.12,424.792h8.565l.459-14.042h-5.08Z" transform="translate(-115.281 -340.244)" fill="#263238"/>
      <path id="패스_87600" data-name="패스 87600" d="M168.62,424.792h8.565l-3.166-14.042h-5.08Z" transform="translate(-118.057 -340.244)" fill="#263238"/>
      <path id="패스_87601" data-name="패스 87601" d="M180.643,424.792h8.565L182.23,410.75h-5.08Z" transform="translate(-119.951 -340.244)" fill="#263238"/>
      <path id="패스_87602" data-name="패스 87602" d="M188.347,425.247c0,.07-13.062.124-29.173.124s-29.165-.054-29.165-.124,13.054-.117,29.165-.117S188.347,425.184,188.347,425.247Z" transform="translate(-109.483 -343.438)" fill="#e0e0e0"/>
      <path id="패스_87603" data-name="패스 87603" d="M187.185,421.967c0,.07-12.4.125-27.7.125s-27.7-.055-27.7-.125,12.4-.117,27.7-.117S187.185,421.881,187.185,421.967Z" transform="translate(-109.876 -342.709)" fill="#e0e0e0"/>
      <path id="패스_87604" data-name="패스 87604" d="M188.122,418.931c0,.132-11.669.241-26.061.241S136,419.04,136,418.931s11.669-.241,26.069-.241S188.122,418.776,188.122,418.931Z" transform="translate(-110.814 -342.008)" fill="#e0e0e0"/>
      <path id="패스_87605" data-name="패스 87605" d="M188.859,416.159c0,.132-11.42.241-25.5.241s-25.508-.109-25.508-.241,11.42-.249,25.508-.249S188.859,416.019,188.859,416.159Z" transform="translate(-111.224 -341.39)" fill="#e0e0e0"/>
      <path id="패스_87606" data-name="패스 87606" d="M190.344,414.159c0,.132-11.5.241-25.672.241S139,414.291,139,414.159s11.49-.249,25.672-.249S190.344,414.019,190.344,414.159Z" transform="translate(-111.48 -340.946)" fill="#e0e0e0"/>
      <path id="패스_87607" data-name="패스 87607" d="M191.651,412.061c0,.14-11.708.249-26.146.249s-26.154-.109-26.154-.249,11.669-.241,26.154-.241S191.651,411.96,191.651,412.061Z" transform="translate(-111.557 -340.482)" fill="#e0e0e0"/>
      <path id="패스_87608" data-name="패스 87608" d="M118.44,423.679l15.994-14.929" transform="translate(-106.914 -339.8)" fill="#e0e0e0"/>
      <path id="패스_87609" data-name="패스 87609" d="M134.443,408.75c.078.078-3.438,3.485-7.842,7.608s-8.044,7.406-8.122,7.32,3.431-3.485,7.842-7.616S134.334,408.664,134.443,408.75Z" transform="translate(-106.923 -339.8)" fill="#263238"/>
    </g>
    <g id="freepik--Character--inject-6" transform="translate(142.904 138.714)">
      <path id="패스_87610" data-name="패스 87610" d="M458.669,332.934s-.778-8.262-21.362-13.544c-9.934-2.552-33.653-3.773-36.337,11.669-.086.5-11.809,97.452-11.809,97.452h43.852Z" transform="translate(-225.915 -202.249)" fill="#455a64"/>
      <path id="패스_87611" data-name="패스 87611" d="M463.806,430.815H443.58l6.752-94.955c.5-4.621,5.282-7.958,10.689-7.445l1.813.171c5.4.513,8.83,5.718,8.674,11.669Z" transform="translate(-237.999 -204.583)" fill="#455a64"/>
      <path id="패스_87612" data-name="패스 87612" d="M445.528,431.82c-.117,0,1.315-18.725,3.19-41.791s3.485-41.767,3.594-41.76-1.315,18.717-3.19,41.791S445.637,431.828,445.528,431.82Z" transform="translate(-238.43 -209.004)" fill="#263238"/>
      <path id="패스_87613" data-name="패스 87613" d="M469.237,331.161a21.156,21.156,0,0,0-2.847-.669,10.665,10.665,0,0,0-11.288,6.472,21.873,21.873,0,0,0-.856,2.793,2.683,2.683,0,0,1,.039-.778,9.335,9.335,0,0,1,.552-2.108,10.518,10.518,0,0,1,11.591-6.644,9.22,9.22,0,0,1,2.1.583,2.629,2.629,0,0,1,.708.35Z" transform="translate(-240.365 -204.964)" fill="#263238"/>
      <path id="패스_87614" data-name="패스 87614" d="M379.294,176.687c.21-5.562-3.563-6.309-6.465-5.671a9.841,9.841,0,0,0-12.1.661,8.752,8.752,0,0,0-12.945,7.616,7.313,7.313,0,0,0-5.943,12.54,7,7,0,0,0,3.446,13.559l34.12-22.723C381.457,180.514,379.185,179.659,379.294,176.687Z" transform="translate(-214.298 -169.25)" fill="#263238"/>
      <path id="패스_87615" data-name="패스 87615" d="M346.167,208.859A29.826,29.826,0,0,1,374.9,180.394l1.556-.054c16.671.381,25.672,14.781,24.824,31.413l-.436,55.5-.109,10.541-38.119,9.063-.389-21.969s-16.088-1.914-16.85-17.893C344.985,239.276,345.521,223.313,346.167,208.859Z" transform="translate(-216.163 -171.712)" fill="#efbe9d"/>
      <path id="패스_87616" data-name="패스 87616" d="M366.88,287.037a38.85,38.85,0,0,0,20.74-6.877s-4.52,11.669-20.53,10.813Z" transform="translate(-220.967 -193.879)" fill="#e7996e"/>
      <path id="패스_87617" data-name="패스 87617" d="M352.42,237.146a2.279,2.279,0,0,0,2.279,2.225,2.186,2.186,0,0,0,2.279-2.147A2.279,2.279,0,0,0,354.7,235a2.178,2.178,0,0,0-2.279,2.147Z" transform="translate(-217.756 -183.85)" fill="#263238"/>
      <path id="패스_87618" data-name="패스 87618" d="M350.99,227.27c.288.28,1.976-1.058,4.434-1.136s4.3,1.081,4.559.778c.124-.14-.179-.669-.988-1.206a6.224,6.224,0,0,0-3.664-.988,5.975,5.975,0,0,0-3.516,1.276C351.091,226.577,350.858,227.122,350.99,227.27Z" transform="translate(-217.43 -181.566)" fill="#263238"/>
      <path id="패스_87619" data-name="패스 87619" d="M377.81,236.5a2.287,2.287,0,0,0,2.287,2.225,2.186,2.186,0,0,0,2.279-2.147,2.279,2.279,0,0,0-2.279-2.225,2.186,2.186,0,0,0-2.287,2.147Z" transform="translate(-223.394 -183.705)" fill="#263238"/>
      <path id="패스_87620" data-name="패스 87620" d="M381.215,225.728c.288.288,1.976-1.05,4.434-1.136s4.3,1.089,4.559.778c.124-.14-.179-.669-.988-1.214a6.3,6.3,0,0,0-3.664-.988,6.068,6.068,0,0,0-3.516,1.276C381.308,225.051,381.036,225.6,381.215,225.728Z" transform="translate(-224.138 -181.222)" fill="#263238"/>
      <path id="패스_87621" data-name="패스 87621" d="M369.85,244.392a16.777,16.777,0,0,0-4.014-.583c-.63-.039-1.229-.14-1.354-.568a3.19,3.19,0,0,1,.358-1.875q.778-2.334,1.68-4.847c2.334-6.893,4.006-12.556,3.726-12.649s-2.4,5.446-4.73,12.322l-1.618,4.893a3.664,3.664,0,0,0-.241,2.474,1.556,1.556,0,0,0,1.066.879,4.284,4.284,0,0,0,1.074.109C368.3,244.571,369.85,244.532,369.85,244.392Z" transform="translate(-220.226 -181.379)" fill="#263238"/>
      <path id="패스_87622" data-name="패스 87622" d="M378.83,252.1c-.4,0-.311,2.661-2.528,4.668s-5.064,1.781-5.072,2.155c0,.171.646.5,1.851.482a6.613,6.613,0,0,0,4.24-1.649,5.78,5.78,0,0,0,1.953-3.89C379.352,252.73,379.033,252.077,378.83,252.1Z" transform="translate(-221.933 -187.648)" fill="#263238"/>
      <path id="패스_87623" data-name="패스 87623" d="M380.852,216.707c.319.622,2.412,0,4.987-.07s4.738.4,4.979-.233c.1-.311-.35-.879-1.268-1.385a7.662,7.662,0,0,0-3.89-.871,7.452,7.452,0,0,0-3.742,1.1C381.1,215.813,380.712,216.4,380.852,216.707Z" transform="translate(-224.063 -179.218)" fill="#263238"/>
      <path id="패스_87624" data-name="패스 87624" d="M351.4,218.613c.412.583,2.132.078,4.162.148s3.742.552,4.17,0c.187-.272-.062-.848-.778-1.408a6.037,6.037,0,0,0-6.714-.109C351.49,217.773,351.226,218.333,351.4,218.613Z" transform="translate(-217.518 -179.693)" fill="#263238"/>
      <path id="패스_87625" data-name="패스 87625" d="M348.052,200.958s3.89-10.168,8.612-12.673c5.749-3.042,8.5,3.291,14,1.556s11-4.668,16.85-.56c6.395,4.489,3.594,7.9,4.232,14.983,2.583,28.721,8.129,36.664,9.141,23.058.109-1.486,4.193-2.816,4.574-9.11.506-8.161.467-18.048-1.556-23.758-1.7-4.808-4.6-8.075-9.7-11.607-8.059-5.57-18.849-5.313-26.154-4.31S346.94,188.441,348.052,200.958Z" transform="translate(-216.772 -171.186)" fill="#263238"/>
      <path id="패스_87626" data-name="패스 87626" d="M414.655,239.627a4.341,4.341,0,0,1,4.535-4.349c3,.179,6.379,1.75,6.395,7.927.047,10.946-10.953,8.728-10.977,8.409S414.632,244.209,414.655,239.627Z" transform="translate(-231.564 -183.911)" fill="#efbe9d"/>
      <path id="패스_87627" data-name="패스 87627" d="M417.648,248.518c.054,0,.194.132.521.28a1.937,1.937,0,0,0,1.424,0c1.151-.428,2.124-2.272,2.163-4.24a6.271,6.271,0,0,0-.537-2.731,2.225,2.225,0,0,0-1.447-1.463.965.965,0,0,0-1.12.529c-.148.3-.078.521-.132.545s-.233-.187-.148-.638a1.175,1.175,0,0,1,.428-.685,1.392,1.392,0,0,1,1.05-.28,2.661,2.661,0,0,1,2,1.688,6.449,6.449,0,0,1,.669,3.049c-.054,2.2-1.182,4.271-2.762,4.738a2.046,2.046,0,0,1-1.743-.288C417.671,248.767,417.617,248.518,417.648,248.518Z" transform="translate(-232.239 -184.921)" fill="#6f4439"/>
      <path id="패스_87628" data-name="패스 87628" d="M400.9,204.691a10.853,10.853,0,0,1-4.559,2.334c-1.7.264-3.7-.685-4.045-2.373-.156-.778,0-1.641-.521-2.209-.622-.685-1.719-.428-2.629-.3a7,7,0,0,1-7.421-4.745c-.778,1.245-2.661,1.252-3.89.506a17.087,17.087,0,0,1-3.112-3.073c-1.019-1.066-2.38-2.007-3.82-1.75a10.783,10.783,0,0,1-2.334.615c-1.447-.078-2.2-1.735-2.474-3.112s-.5-3.112-1.735-3.812-2.606-.21-3.89,0-3.026,0-3.415-1.284a2.575,2.575,0,0,1,.42-2,7.071,7.071,0,0,1,8.262-2.979,9.607,9.607,0,0,1,17.574-2.489,9.755,9.755,0,0,1,15.7,3,7.064,7.064,0,0,1,8.262,9.942c2.007,1.058,3.757,2.948,3.89,5.212s-2.007,4.59-4.209,4.076a3.907,3.907,0,1,1-6.628,4.139" transform="translate(-218.774 -170.15)" fill="#263238"/>
      <path id="패스_87629" data-name="패스 87629" d="M417.66,207.88a2.645,2.645,0,0,1-.607,2.124,3.485,3.485,0,0,1-2.147,1.385,3.773,3.773,0,0,1-3.151-.778l.459-.086a10.822,10.822,0,0,1-2.085,2.808,6.223,6.223,0,0,1-1.945,1.307,4.87,4.87,0,0,1-5.446-1.416,6.223,6.223,0,0,1-.965-2.24,2.1,2.1,0,0,1-.117-.879,3.1,3.1,0,0,1,.35.778,7.212,7.212,0,0,0,1.081,2.046c1.1,1.556,4.5,2.217,6.581-.078a11.079,11.079,0,0,0,1.984-2.629l.187-.327.28.241a3.3,3.3,0,0,0,2.661.778,3.236,3.236,0,0,0,1.945-1.112,5.446,5.446,0,0,0,.934-1.921Z" transform="translate(-228.688 -177.828)" fill="#455a64"/>
      <path id="패스_87630" data-name="패스 87630" d="M238.971,391.624s-20.639-.615-21.876-1a13.117,13.117,0,0,0-5.718,0c-1.47.467-7.344,2.552-7.344,2.552l-12.447,3.322s-12.517,8.161-12.268,9.8,1.626,2.762,3.89,1.914,13.552-6.729,13.552-6.729l12.447-1.315s16.975,6.1,20.405,5.8,12.214-1.789,12.214-1.789,1.237-8.8.615-10.191S238.971,391.624,238.971,391.624Z" transform="translate(-179.315 -218.338)" fill="#efbe9d"/>
      <path id="패스_87631" data-name="패스 87631" d="M180.437,414.96s10.463-11.21,13.357-12.719,19.028-4.162,19.028-4.162,5.165-2.139,7.056-1.385,21.922,3.781,22.8,3.89-4.279,17.644-4.279,17.644a40.85,40.85,0,0,1-15-.63c-8.059-1.89-10.837-4.411-10.837-4.411l-8.044-2.116-4.932,1.875s-.879,7.3-4.411,6.916l-1.634-1.136,1.26-8.059-5.165,2.139s-4.037,6.052-7.056,5.165S180.437,414.96,180.437,414.96Z" transform="translate(-179.538 -219.721)" fill="#efbe9d"/>
      <path id="패스_87632" data-name="패스 87632" d="M180.419,414.934a2.707,2.707,0,0,0-.078.879,1.945,1.945,0,0,0,.389.98,2.871,2.871,0,0,0,1.182.863,2.979,2.979,0,0,0,1.813.264,5.577,5.577,0,0,0,2.007-1.019,18.4,18.4,0,0,0,3.8-4.17h0l5.158-2.155.21-.093v.226c-.373,2.427-.778,5.15-1.237,8.067l-.062-.14,1.634,1.128h-.07a2.334,2.334,0,0,0,1.82-.661,5.446,5.446,0,0,0,1.206-1.75,16.01,16.01,0,0,0,1.206-4.364v-.1l.093-.039,4.917-1.883h.109l8.059,2.1h.047a21.005,21.005,0,0,0,5.57,2.839,47.222,47.222,0,0,0,6.34,1.766,41.226,41.226,0,0,0,6.768.778,38.381,38.381,0,0,0,7-.389l-.156.14c.358-1.237.778-2.559,1.12-3.89,1.112-3.967,2.225-7.865,3.026-11.724a13.314,13.314,0,0,0,.226-1.431,2.289,2.289,0,0,0,0-.327c0-.054-.047-.078,0,0h-.093l-.723-.109-2.878-.436-5.64-.887c-3.7-.6-7.281-1.19-10.728-1.844-.856-.179-1.7-.327-2.552-.583a4.714,4.714,0,0,0-2.419-.078,24.769,24.769,0,0,0-4.668,1.4h-.039c-5.632.941-10.79,1.875-15.294,2.948a28.011,28.011,0,0,0-3.2.941,9.693,9.693,0,0,0-2.544,1.719c-1.556,1.291-2.847,2.567-4.037,3.719-2.38,2.334-4.185,4.185-5.446,5.446l-1.408,1.455c-.327.327-.5.482-.5.482s.148-.179.459-.521L182.177,413c1.221-1.284,3.011-3.182,5.368-5.516,1.182-1.159,2.5-2.451,4.022-3.757.381-.327.778-.661,1.2-.972a5.928,5.928,0,0,1,1.4-.778,28.548,28.548,0,0,1,3.236-.965c4.512-1.1,9.662-2.054,15.3-3.026h-.039a25.188,25.188,0,0,1,4.738-1.439,5.127,5.127,0,0,1,2.606.086c.778.241,1.649.389,2.5.568,3.431.646,7,1.221,10.72,1.813l5.64.879,2.878.443.723.109h.241a.4.4,0,0,1,.179.311,2.332,2.332,0,0,1,0,.4,13.14,13.14,0,0,1-.226,1.486c-.778,3.89-1.922,7.779-3.034,11.755-.381,1.338-.778,2.668-1.12,3.89v.124h-.124a38.025,38.025,0,0,1-7.071.389,40.351,40.351,0,0,1-6.83-.778,45.813,45.813,0,0,1-6.395-1.789,28.951,28.951,0,0,1-2.979-1.252,14.526,14.526,0,0,1-2.715-1.665l.078.039-8.044-2.124h.109l-4.932,1.875.109-.14a16.1,16.1,0,0,1-1.252,4.465,5.624,5.624,0,0,1-1.284,1.844,2.676,2.676,0,0,1-2.062.739h-.039l-1.634-1.136-.078-.055v-.093c.459-2.909.895-5.632,1.276-8.059l.179.14-5.173,2.124.047-.039a18.338,18.338,0,0,1-3.89,4.185,5.734,5.734,0,0,1-2.077,1.019,3.057,3.057,0,0,1-1.89-.3,2.871,2.871,0,0,1-1.206-.918,1.976,1.976,0,0,1-.381-1.027,1.75,1.75,0,0,1,.171-.926Z" transform="translate(-179.521 -219.695)" fill="#6f4439"/>
      <path id="패스_87633" data-name="패스 87633" d="M216.251,407.7a3.418,3.418,0,0,1-.778,0c-.506-.039-1.237-.109-2.147-.2l-3.174-.358-.918-.1a2.751,2.751,0,0,0-.91,0,19.115,19.115,0,0,0-1.96.4c-2.622.778-5.251,1.268-6.223,2.824a5.951,5.951,0,0,0-.934,1.883c-.14.482-.179.778-.2.778a1.719,1.719,0,0,1,.054-.778,5.219,5.219,0,0,1,.856-2.007,4.713,4.713,0,0,1,1.066-1.1,5.912,5.912,0,0,1,1.556-.778,39.29,39.29,0,0,1,3.757-1.159,17.358,17.358,0,0,1,2.007-.412,3.392,3.392,0,0,1,1.011,0l.91.124,3.174.436c.9.132,1.626.249,2.132.334a2.638,2.638,0,0,1,.723.109Z" transform="translate(-183.683 -221.971)" fill="#6f4439"/>
      <path id="패스_87634" data-name="패스 87634" d="M185.08,412.188a7.293,7.293,0,0,1,.864-.871c.583-.537,1.439-1.291,2.521-2.194s2.4-1.96,3.89-3.057c.778-.545,1.556-1.1,2.443-1.634a14.7,14.7,0,0,1,1.392-.731,12.318,12.318,0,0,1,1.556-.49,81.517,81.517,0,0,1,10.891-1.867l3.314-.412a7.448,7.448,0,0,1,1.221-.1,6.607,6.607,0,0,1-1.2.257l-3.291.537a100.255,100.255,0,0,0-10.813,1.976,11.857,11.857,0,0,0-1.486.475,13.89,13.89,0,0,0-1.354.7c-.864.513-1.665,1.058-2.427,1.595-1.556,1.074-2.839,2.1-3.944,2.972l-2.6,2.093A7.908,7.908,0,0,1,185.08,412.188Z" transform="translate(-180.595 -220.676)" fill="#6f4439"/>
      <path id="패스_87635" data-name="패스 87635" d="M331.214,318.743a120.294,120.294,0,0,0-9.856,16.632c-3.742,7.779-15.831,34.268-15.831,34.268l-49.267,2.583.731,19.036s47.578,16.951,58.228,13.676,22-15.559,22-15.559l5.1-80.283S338.091,308.31,331.214,318.743Z" transform="translate(-196.402 -200.302)" fill="#698cf5"/>
      <path id="패스_87636" data-name="패스 87636" d="M359.095,305.251s-12.634,28.651-14.477,40.787c-3.664,24.116-4.893,39.169-4.893,39.169l-4.294,37.286h84.134s2.785-69.1,1-92.271c-1.338-17.364-14.641-28.177-20.079-34.112a53.262,53.262,0,0,1-1.82-5.22l-39.208,10.043Z" transform="translate(-213.983 -196.262)" fill="#698cf5"/>
      <path id="패스_87637" data-name="패스 87637" d="M355.176,314.94a1.048,1.048,0,0,1-.093.272c-.086.194-.187.459-.327.778l-1.252,3c-1.081,2.6-2.645,6.371-4.216,11.163a132.9,132.9,0,0,0-4.349,17.115c-1.252,6.542-2.264,13.8-3.112,21.448-1.556,15.31-2.948,29.165-3.967,39.216-.521,5-.941,9.055-1.237,11.879-.156,1.385-.272,2.466-.358,3.228-.047.358-.078.63-.1.84a1.867,1.867,0,0,1-.054.288,2.023,2.023,0,0,1,0-.288c0-.21.039-.49.062-.848.07-.778.163-1.844.28-3.236.264-2.832.646-6.885,1.112-11.895.972-10.035,2.256-23.914,3.89-39.231.84-7.647,1.867-14.921,3.112-21.471a129.5,129.5,0,0,1,4.442-17.161c1.61-4.784,3.213-8.557,4.341-11.132.56-1.3,1.019-2.295,1.33-2.964.148-.327.265-.576.358-.778A2.351,2.351,0,0,1,355.176,314.94Z" transform="translate(-214.132 -201.602)" fill="#263238"/>
      <g id="그룹_166903" data-name="그룹 166903" transform="translate(122.972 138.745)" opacity="0.3">
        <path id="패스_87638" data-name="패스 87638" d="M399.174,367.3c-.778-7.632-4.209-15.294-10.487-19.7l-51.3,73.25c9.055,4.885,19.114,9.926,29.173,7.779,5.446-1.159,10.222-4.349,14.127-8.277,8.114-8.161,12.517-19.277,15.605-30.339C398.357,382.607,399.944,374.929,399.174,367.3Z" transform="translate(-337.39 -347.6)"/>
      </g>
      <path id="패스_87639" data-name="패스 87639" d="M386.382,349.435c-6.387,22.615-20.771,50.208-25.19,55.755a34.3,34.3,0,0,1-26.839,13.17c-5.788,0-54.7-9.53-69.236-12.377a6.223,6.223,0,0,1-4.878-4.815l-.124-.6-6.5-1.774,3.477-17.511.692-.972,69.96,2.2h0L348.1,325.825c.389-.646,6.262-19.666,22.2-18.8" transform="translate(-195.816 -199.838)" fill="#698cf5"/>
      <path id="패스_87640" data-name="패스 87640" d="M370.236,307.048h-.529a14.607,14.607,0,0,0-1.556.039,17.542,17.542,0,0,0-5.881,1.393,21.346,21.346,0,0,0-7.678,5.92,38.523,38.523,0,0,0-6.457,11.506h0c-5.142,14.361-12.12,33.871-20.3,56.7l-.039.124h-.132l-69.929-2.194.171-.086-.692.972v-.078c-1,5.064-2.069,10.448-3.112,15.893l-.319,1.618-.148-.241,6.527,1.758.124.039v.117a6.356,6.356,0,0,0,1.922,3.773A6.045,6.045,0,0,0,264,405.449a10.72,10.72,0,0,0,2.093.537l8.557,1.673,16.726,3.213c10.961,2.077,21.518,4.053,31.592,5.757,2.521.42,5.01.778,7.468,1.167,1.229.156,2.458.327,3.664.381a29.612,29.612,0,0,0,3.625-.179,34.4,34.4,0,0,0,13.225-4.24,35.3,35.3,0,0,0,9.872-8.417,48.162,48.162,0,0,0,3.392-5.119c1.019-1.735,1.984-3.454,2.894-5.142a276.5,276.5,0,0,0,15-33.054c1.478-4.014,2.536-7.165,3.205-9.335.327-1.066.583-1.883.778-2.443s.264-.825.264-.825-.07.28-.226.832l-.716,2.458c-.646,2.155-1.68,5.313-3.112,9.335A271.28,271.28,0,0,1,367.4,395.181c-.9,1.7-1.867,3.415-2.878,5.158A47,47,0,0,1,361.1,405.5a35.466,35.466,0,0,1-10.012,8.542,34.711,34.711,0,0,1-13.342,4.3,28.773,28.773,0,0,1-3.672.187c-1.245-.055-2.466-.226-3.7-.381-2.466-.35-4.963-.778-7.484-1.159-10.113-1.7-20.639-3.664-31.608-5.733l-16.726-3.213L266,406.383a10.93,10.93,0,0,1-2.163-.56,6.271,6.271,0,0,1-1.914-1.221,6.769,6.769,0,0,1-2.046-3.983l.148.156-6.527-1.758-.179-.054v-.179c.1-.513.218-1.066.327-1.618,1.081-5.446,2.147-10.829,3.112-15.893v-.047h0l.692-.972.062-.086h.226l69.96,2.225-.171.117,20.413-56.665h0a38.289,38.289,0,0,1,6.519-11.5,21.291,21.291,0,0,1,7.779-5.92,17.347,17.347,0,0,1,5.92-1.346,11.615,11.615,0,0,1,1.556,0Z" transform="translate(-195.749 -199.849)" fill="#263238"/>
      <path id="패스_87641" data-name="패스 87641" d="M326.8,395.846a25.79,25.79,0,0,0-3.376-4.948,25.452,25.452,0,0,0-4.668-3.718,5.4,5.4,0,0,1,1.626.739,14.929,14.929,0,0,1,3.368,2.7,15.141,15.141,0,0,1,2.458,3.547,5.81,5.81,0,0,1,.591,1.68Z" transform="translate(-210.281 -217.644)" fill="#263238"/>
      <path id="패스_87642" data-name="패스 87642" d="M357.425,417.841c-.07,0-.21-.895-.615-2.334a22.147,22.147,0,0,0-2.295-5.228,21.712,21.712,0,0,0-3.6-4.426c-1.066-1.011-1.813-1.556-1.774-1.6a2.07,2.07,0,0,1,.568.319,14.007,14.007,0,0,1,1.4,1.066,18.95,18.95,0,0,1,5.982,9.8,11.858,11.858,0,0,1,.3,1.735,2.154,2.154,0,0,1,.031.669Z" transform="translate(-217.027 -221.435)" fill="#263238"/>
      <g id="그룹_166904" data-name="그룹 166904" transform="translate(121.735 134.739)" opacity="0.3">
        <path id="패스_87643" data-name="패스 87643" d="M335.8,389.958l4.069.156c.661-15.987,3.952-31.9,6.768-47.664C339.456,357.122,337.574,373.731,335.8,389.958Z" transform="translate(-335.8 -342.45)"/>
      </g>
      <path id="패스_87644" data-name="패스 87644" d="M406.219,297.6a1.408,1.408,0,0,1-.389.132l-1.12.311-4.123,1.1c-3.477.926-8.277,2.248-13.614,3.594S376.759,305.12,373.2,305.7c-1.781.3-3.228.506-4.232.607l-1.159.117a1.446,1.446,0,0,1-.4,0,1.557,1.557,0,0,1,.4-.093l1.144-.194c1-.148,2.435-.4,4.2-.731,3.54-.653,8.4-1.735,13.731-3.112s10.113-2.629,13.645-3.485c1.75-.428,3.174-.778,4.162-.972l1.136-.233A1.557,1.557,0,0,1,406.219,297.6Z" transform="translate(-221.082 -197.749)" fill="#263238"/>
    </g>
  </g>
</svg>
