<svg xmlns="http://www.w3.org/2000/svg" width="465" height="304.695" viewBox="0 0 465 304.695">
  <g id="Interior_design-pana" data-name="Interior design-pana" transform="translate(-45.33 -28.08)">
    <g id="freepik--background-complete--inject-10" transform="translate(45.33 154.079)">
      <path id="패스_87645" data-name="패스 87645" d="M403.7,394.48v29.951h-5V427.7h5v20.042h93.5V429.484h-6.923v-3.971H497.2v-5.957h3.081v-2.739h-3.657V394.48Z" transform="translate(-156.734 -269.59)" fill="#f5f5f5"/>
      <path id="패스_87646" data-name="패스 87646" d="M506.3,394.569V447.39h24.822V429.155H524.2v-3.643l6.923.123v-5.957l3.136.007L534.2,416.6l-3.656-.089V394.48Z" transform="translate(-190.656 -269.59)" fill="#e0e0e0"/>
      <path id="패스_87647" data-name="패스 87647" d="M474.094,442.186c0,.185-16.913.329-37.77.329s-37.784-.144-37.784-.329,16.913-.336,37.784-.336S474.094,442,474.094,442.186Z" transform="translate(-156.683 -284.524)" fill="#e0e0e0"/>
      <path id="패스_87648" data-name="패스 87648" d="M474.094,437.746c0,.178-16.913.329-37.77.329s-37.784-.151-37.784-.329,16.913-.336,37.784-.336S474.094,437.561,474.094,437.746Z" transform="translate(-156.683 -283.124)" fill="#e0e0e0"/>
      <path id="패스_87649" data-name="패스 87649" d="M481.214,425.786c0,.185-16.913.329-37.777.329s-37.777-.144-37.777-.329,16.913-.336,37.777-.336S481.214,425.6,481.214,425.786Z" transform="translate(-158.928 -279.354)" fill="#e0e0e0"/>
      <path id="패스_87650" data-name="패스 87650" d="M481.864,458.356c0,.185-16.913.336-37.777.336s-37.777-.151-37.777-.336S423.216,458,444.087,458,481.864,458.178,481.864,458.356Z" transform="translate(-159.133 -289.616)" fill="#e0e0e0"/>
      <rect id="사각형_151416" data-name="사각형 151416" width="36.62" height="44.529" transform="translate(53.011 30.385) rotate(7.26)" fill="#fff"/>
      <rect id="사각형_151417" data-name="사각형 151417" width="36.62" height="33.135" transform="translate(53.012 30.387) rotate(7.26)" fill="#ebebeb"/>
      <path id="패스_87651" data-name="패스 87651" d="M139.827,312.923c0,.062-4.718-.479-10.511-1.219s-10.483-1.37-10.477-1.459,4.711.479,10.511,1.212S139.834,312.855,139.827,312.923Z" transform="translate(-68.505 -243.032)" fill="#e0e0e0"/>
      <path id="패스_87652" data-name="패스 87652" d="M127.541,314.724c0,.062-2.054-.144-4.574-.459a42.76,42.76,0,0,1-4.547-.685,42.288,42.288,0,0,1,4.574.459A42.775,42.775,0,0,1,127.541,314.724Z" transform="translate(-68.372 -244.086)" fill="#e0e0e0"/>
      <path id="패스_87653" data-name="패스 87653" d="M150.812,305.217a1.589,1.589,0,0,1,0-.212c0-.151.041-.356.068-.623.068-.548.164-1.369.294-2.4.26-2.1.644-5.156,1.123-9.039.972-7.758,2.362-18.789,4.006-31.916l.1.123-36.291-4.615h0l.144-.11c-2.054,16.338-4.033,31.5-5.649,44.173l-.089-.116,26.335,3.424,7.361.965,1.945.26.685.1-.685-.075-1.924-.233-7.34-.89-26.417-3.314h-.1v-.1c1.6-12.64,3.533-27.842,5.608-44.173v-.123h.123l36.291,4.643h.11v.11c-1.7,13.154-3.122,24.206-4.108,31.97-.5,3.869-.9,6.916-1.171,9.011-.137,1.034-.246,1.828-.315,2.369l-.089.609A.8.8,0,0,1,150.812,305.217Z" transform="translate(-67.096 -226.034)" fill="#e0e0e0"/>
      <rect id="사각형_151418" data-name="사각형 151418" width="36.62" height="44.529" transform="translate(0.101 18.562) rotate(-7.29)" fill="#f5f5f5"/>
      <rect id="사각형_151419" data-name="사각형 151419" width="36.62" height="33.135" transform="translate(0.106 18.557) rotate(-7.29)" fill="#e0e0e0"/>
      <path id="패스_87654" data-name="패스 87654" d="M76.2,288.317c0,.062-4.684.719-10.477,1.465s-10.5,1.287-10.5,1.219,4.677-.726,10.477-1.465S76.194,288.249,76.2,288.317Z" transform="translate(-48.448 -236.12)" fill="#e0e0e0"/>
      <path id="패스_87655" data-name="패스 87655" d="M64.8,293.83a42.058,42.058,0,0,1-4.54.685,42.453,42.453,0,0,1-4.574.459,44.608,44.608,0,0,1,4.54-.685,42.453,42.453,0,0,1,4.574-.459Z" transform="translate(-48.596 -237.859)" fill="#e0e0e0"/>
      <path id="패스_87656" data-name="패스 87656" d="M87.414,276.519a.979.979,0,0,0-.034-.212c-.034-.137-.048-.349-.089-.623-.068-.548-.178-1.369-.315-2.39-.274-2.1-.685-5.156-1.185-9.032l-4.108-31.9.123.1-36.291,4.663h0l.11-.137c2.054,16.331,4.019,31.5,5.635,44.173l-.116-.089,26.28-3.321,7.4-.918,1.945-.233.685-.075-.685.1-1.924.253-7.334.965-26.4,3.424h-.1v-.1c-1.63-12.64-3.581-27.835-5.676-44.166v-.123h.123l36.291-4.636h.11v.11c1.664,13.161,3.061,24.212,4.04,31.984.479,3.869.863,6.923,1.123,9.018.13,1.034.226,1.828.294,2.376a4.5,4.5,0,0,0,.068.6Z" transform="translate(-45.33 -218.439)" fill="#e0e0e0"/>
      <rect id="사각형_151420" data-name="사각형 151420" width="36.62" height="44.529" transform="translate(34.523 0.131) rotate(13.26)" fill="#fff"/>
      <rect id="사각형_151421" data-name="사각형 151421" width="36.62" height="33.135" transform="translate(34.522 0.125) rotate(13.26)" fill="#ebebeb"/>
      <path id="패스_87657" data-name="패스 87657" d="M106.83,270.213c0,.062-4.636-.965-10.319-2.308s-10.271-2.479-10.271-2.547,4.643.966,10.326,2.308S106.851,270.145,106.83,270.213Z" transform="translate(-58.227 -228.882)" fill="#e0e0e0"/>
      <path id="패스_87658" data-name="패스 87658" d="M94.439,270.709a45.386,45.386,0,0,1-4.485-.938A43.328,43.328,0,0,1,85.51,268.6a41.956,41.956,0,0,1,4.485.959A42.216,42.216,0,0,1,94.439,270.709Z" transform="translate(-57.997 -229.905)" fill="#e0e0e0"/>
      <path id="패스_87659" data-name="패스 87659" d="M116.431,263.959l.041-.212a3.834,3.834,0,0,1,.137-.609c.123-.541.308-1.328.541-2.355.479-2.054,1.178-5.06,2.054-8.867,1.78-7.614,4.307-18.44,7.32-31.327l.082.137-35.634-8.388h0l.144-.089c-3.78,16.023-7.3,30.93-10.23,43.337l-.075-.123,25.835,6.163,7.217,1.726,1.91.466.685.164-.644-.137-1.917-.459-7.21-1.671L80.763,255.66h-.1v-.1l10.189-43.344v-.123h.123l35.641,8.409h.1v.11c-3.061,12.9-5.635,23.74-7.443,31.368-.9,3.793-1.623,6.779-2.109,8.833-.247,1.013-.431,1.794-.561,2.328-.068.253-.116.452-.151.589Z" transform="translate(-56.468 -212.09)" fill="#e0e0e0"/>
      <rect id="사각형_151422" data-name="사각형 151422" width="40.365" height="49.089" transform="translate(382.705 47.132) rotate(-20.94)" fill="#fff"/>
      <rect id="사각형_151423" data-name="사각형 151423" width="40.365" height="36.531" transform="translate(382.701 47.133) rotate(-20.94)" fill="#ebebeb"/>
      <path id="패스_87660" data-name="패스 87660" d="M650.225,323c0,.075-4.793,1.993-10.839,4.3s-10.915,4.108-10.956,4.04,4.793-1.993,10.839-4.3S650.2,322.945,650.225,323Z" transform="translate(-229.158 -247.055)" fill="#e0e0e0"/>
      <path id="패스_87661" data-name="패스 87661" d="M639.223,333.33a94.821,94.821,0,0,1-9.463,3.622,47.343,47.343,0,0,1,4.684-1.938,48.255,48.255,0,0,1,4.779-1.684Z" transform="translate(-229.578 -250.312)" fill="#e0e0e0"/>
      <path id="패스_87662" data-name="패스 87662" d="M659.4,305.626a.483.483,0,0,0-.089-.219l-.253-.637c-.219-.568-.541-1.369-.965-2.486-.835-2.171-2.054-5.341-3.615-9.36-30.669-18.9-25.952-26.753-12.736-33.1l.157.068-37.661,14.441h0l.082-.171c6.478,16.954,12.51,32.724,17.523,45.878l-.144-.062,27.39-10.408c3.294-1.253,5.882-2.232,7.655-2.9l2.02-.76.685-.26-.685.274-2.041.746-7.607,2.944-27.39,10.545-.109.041-.041-.11-17.543-45.816-.048-.13.123-.048h0l37.7-14.38.11-.041.041.11c5.2,13.695,9.586,25.144,12.647,33.217,1.527,4.019,2.739,7.19,3.554,9.36l.924,2.472.24.63Z" transform="translate(-221.45 -227.093)" fill="#e0e0e0"/>
    </g>
    <g id="freepik--Table--inject-10" transform="translate(49.582 332.419)">
      <path id="패스_87663" data-name="패스 87663" d="M494.512,472.718c0,.1-99.171.178-221.472.178s-221.5-.082-221.5-.178,99.15-.178,221.5-.178S494.512,472.615,494.512,472.718Z" transform="translate(-51.54 -472.54)" fill="#263238"/>
    </g>
    <g id="freepik--color-palette--inject-10" transform="translate(389.882 28.08)">
      <rect id="사각형_151424" data-name="사각형 151424" width="96.822" height="31.888" rx="6.39" transform="translate(20.318 77.842) rotate(-7.42)" fill="#fafafa"/>
      <path id="패스_87664" data-name="패스 87664" d="M581.949,163.449a2.091,2.091,0,0,0,.144.623,4.307,4.307,0,0,0,.9,1.643,4.382,4.382,0,0,0,2.616,1.452,6.3,6.3,0,0,0,1.945-.082l2.219-.294,26.547-3.506,39.379-5.156,11.387-1.486,5.875-.767c.493-.075,1-.116,1.479-.212a4.178,4.178,0,0,0,1.369-.514,4.28,4.28,0,0,0,1.828-2.239,4.016,4.016,0,0,0,.24-1.452,12.97,12.97,0,0,0-.164-1.506c-.13-1.02-.267-2.054-.4-3.068-.274-2.054-.541-4.108-.815-6.2q-.815-6.259-1.65-12.668a4.252,4.252,0,0,0-4.321-3.7c-2.089.226-4.2.534-6.279.794l-12.325,1.6-23.281,3.02-39.386,5.1-4.108.534-1.979.253a4.951,4.951,0,0,0-1.828.486,4.3,4.3,0,0,0-2.225,2.739,8.85,8.85,0,0,0,.123,3.424c.575,4.458,1.061,8.292,1.465,11.428s.685,5.567.918,7.224c.1.822.178,1.452.233,1.876s.068.644.068.644-.041-.219-.1-.637-.151-1.055-.26-1.876c-.219-1.657-.548-4.108-.965-7.217s-.924-6.971-1.513-11.421c-.068-.555-.144-1.123-.219-1.7a4.649,4.649,0,0,1,.089-1.787,4.485,4.485,0,0,1,2.3-2.855,5.307,5.307,0,0,1,1.89-.507l1.972-.26,4.108-.534,39.407-5.163,23.281-3.04,12.325-1.6c2.054-.26,4.163-.568,6.307-.8a4.519,4.519,0,0,1,4.595,3.937q.842,6.409,1.65,12.668.411,3.122.808,6.163c.137,1.027.267,2.054.4,3.068.062.507.151,1.007.171,1.541a4.387,4.387,0,0,1-.26,1.541,4.464,4.464,0,0,1-3.383,2.924c-.507.1-.993.137-1.493.212l-5.923.781-11.38,1.479-39.386,5.1-26.561,3.424-2.219.281a6.163,6.163,0,0,1-1.965.068,4.4,4.4,0,0,1-2.65-1.493,4.184,4.184,0,0,1-.876-1.671,2.741,2.741,0,0,1-.1-.472Z" transform="translate(-558.07 -58.335)" fill="#263238"/>
      <rect id="사각형_151425" data-name="사각형 151425" width="29.334" height="15.03" transform="translate(110.288 67.401) rotate(82.58)" fill="#698cf5"/>
      <rect id="사각형_151426" data-name="사각형 151426" width="29.334" height="15.03" transform="translate(89.179 70.145) rotate(82.58)" fill="#698cf5"/>
      <rect id="사각형_151427" data-name="사각형 151427" width="29.334" height="15.03" transform="translate(68.071 72.895) rotate(82.58)" fill="#698cf5"/>
      <rect id="사각형_151428" data-name="사각형 151428" width="29.334" height="15.03" transform="translate(46.962 75.646) rotate(82.58)" fill="#698cf5"/>
      <g id="그룹_166905" data-name="그룹 166905" transform="translate(95.383 67.401)" opacity="0.5">
        <rect id="사각형_151429" data-name="사각형 151429" width="29.334" height="15.03" transform="translate(14.904 0) rotate(82.58)"/>
      </g>
      <g id="그룹_166906" data-name="그룹 166906" transform="translate(74.274 70.145)" opacity="0.6">
        <rect id="사각형_151430" data-name="사각형 151430" width="29.334" height="15.03" transform="translate(14.904 0) rotate(82.58)"/>
      </g>
      <g id="그룹_166907" data-name="그룹 166907" transform="translate(53.166 72.895)" opacity="0.7">
        <rect id="사각형_151431" data-name="사각형 151431" width="29.334" height="15.03" transform="translate(14.904) rotate(82.58)"/>
      </g>
      <g id="그룹_166908" data-name="그룹 166908" transform="translate(32.057 75.646)" opacity="0.8">
        <rect id="사각형_151432" data-name="사각형 151432" width="29.334" height="15.03" transform="translate(14.904) rotate(82.58)"/>
      </g>
      <path id="패스_87665" data-name="패스 87665" d="M578.369,144.842,568,124.752a4.649,4.649,0,0,1,2-6.259l77.793-40.133a4.636,4.636,0,0,1,6.252,1.993l10.34,20.09a4.643,4.643,0,0,1-2,6.259l-77.766,40.133a4.636,4.636,0,0,1-6.252-1.993Z" transform="translate(-554.497 -43.768)" fill="#fafafa"/>
      <path id="패스_87666" data-name="패스 87666" d="M578.331,144.772a1.053,1.053,0,0,1,.089.137c.062.089.13.233.26.4a4.423,4.423,0,0,0,1.369,1.26,4.533,4.533,0,0,0,2.924.637,4.971,4.971,0,0,0,1.828-.609l1.986-1.034,23.74-12.291,35.216-18.207,10.182-5.252,5.259-2.739a7.32,7.32,0,0,0,2.445-1.616,4.519,4.519,0,0,0,.979-4.108,6.881,6.881,0,0,0-.589-1.369L662.6,97.244,659.74,91.7l-5.848-11.332a4.5,4.5,0,0,0-5.286-2.26,8.217,8.217,0,0,0-1.424.644l-1.411.726-2.807,1.452-11,5.663-20.816,10.73L575.9,115.472l-3.67,1.89-1.767.918a5.416,5.416,0,0,0-1.582,1.055,4.547,4.547,0,0,0-1.007,4.964c.219.52.514,1.02.76,1.52l5.252,10.23c1.431,2.807,2.547,4.985,3.307,6.471.377.74.685,1.3.856,1.684s.281.582.281.582-.11-.192-.308-.568l-.876-1.671c-.767-1.479-1.9-3.65-3.355-6.45l-5.307-10.216c-.253-.507-.534-.993-.774-1.534a4.793,4.793,0,0,1,1.034-5.149,5.822,5.822,0,0,1,1.623-1.089l1.767-.911,3.663-1.9,35.223-18.207,20.8-10.744,11-5.676,2.807-1.452,1.411-.726a8.456,8.456,0,0,1,1.472-.685,4.793,4.793,0,0,1,5.6,2.4l5.861,11.367,2.862,5.546,1.411,2.739a6.476,6.476,0,0,1,.609,1.431,4.6,4.6,0,0,1,.151,1.554,4.793,4.793,0,0,1-1.185,2.828,4.526,4.526,0,0,1-1.191.965c-.445.253-.89.466-1.328.685l-5.266,2.739-10.182,5.231-35.244,18.152-23.774,12.223-1.986,1.02a5.156,5.156,0,0,1-1.869.609,4.677,4.677,0,0,1-2.965-.685,4.368,4.368,0,0,1-1.369-1.294,3.593,3.593,0,0,1-.253-.411q-.038-.067-.068-.137Z" transform="translate(-554.459 -43.697)" fill="#263238"/>
      <rect id="사각형_151433" data-name="사각형 151433" width="29.334" height="15.03" transform="matrix(0.458, 0.889, -0.889, 0.458, 92.443, 36.468)" fill="#698cf5"/>
      <rect id="사각형_151434" data-name="사각형 151434" width="29.334" height="15.03" transform="matrix(0.458, 0.889, -0.889, 0.458, 73.523, 46.227)" fill="#698cf5"/>
      <rect id="사각형_151435" data-name="사각형 151435" width="29.334" height="15.03" transform="matrix(0.458, 0.889, -0.889, 0.458, 54.612, 55.99)" fill="#698cf5"/>
      <rect id="사각형_151436" data-name="사각형 151436" width="29.334" height="15.03" transform="matrix(0.458, 0.889, -0.889, 0.458, 35.698, 65.747)" fill="#698cf5"/>
      <g id="그룹_166909" data-name="그룹 166909" transform="translate(79.085 36.468)" opacity="0.1">
        <rect id="사각형_151437" data-name="사각형 151437" width="29.334" height="15.03" transform="matrix(0.458, 0.889, -0.889, 0.458, 13.357, 0)"/>
      </g>
      <g id="그룹_166910" data-name="그룹 166910" transform="translate(60.165 46.227)" opacity="0.2">
        <rect id="사각형_151438" data-name="사각형 151438" width="29.334" height="15.03" transform="matrix(0.458, 0.889, -0.889, 0.458, 13.357, 0)"/>
      </g>
      <g id="그룹_166911" data-name="그룹 166911" transform="translate(41.255 55.99)" opacity="0.3">
        <rect id="사각형_151439" data-name="사각형 151439" width="29.334" height="15.03" transform="matrix(0.458, 0.889, -0.889, 0.458, 13.357, 0)"/>
      </g>
      <g id="그룹_166912" data-name="그룹 166912" transform="translate(22.341 65.747)" opacity="0.4">
        <rect id="사각형_151440" data-name="사각형 151440" width="29.334" height="15.03" transform="matrix(0.458, 0.889, -0.889, 0.458, 13.357, 0)"/>
      </g>
      <path id="패스_87667" data-name="패스 87667" d="M578.1,133.56l-17.249-14.14a4.793,4.793,0,0,1-.685-6.745l55.306-67.488a4.793,4.793,0,0,1,6.745-.685l17.255,14.14a4.793,4.793,0,0,1,.685,6.745l-55.286,67.474a4.793,4.793,0,0,1-6.772.7Z" transform="translate(-551.848 -32.917)" fill="#fafafa"/>
      <path id="패스_87668" data-name="패스 87668" d="M578.07,133.5l.137.089c.089.055.212.164.4.267a4.629,4.629,0,0,0,1.753.637,4.793,4.793,0,0,0,2.958-.493c1.116-.52,1.876-1.76,2.9-2.958L603.1,110.365l25.055-30.649,7.251-8.854,3.745-4.574a7.958,7.958,0,0,0,1.63-2.445,4.732,4.732,0,0,0,.055-2.89,4.835,4.835,0,0,0-1.691-2.4q-1.191-.965-2.383-1.952l-4.807-3.944-9.847-8.08a4.732,4.732,0,0,0-2.855-1.055,4.643,4.643,0,0,0-2.9.952,6.4,6.4,0,0,0-1.082,1.109l-1.007,1.226c-.685.822-1.335,1.63-2,2.445L604.4,58.825,589.573,76.909l-25.1,30.615-2.623,3.191-1.287,1.52a6.054,6.054,0,0,0-1.048,1.582,4.745,4.745,0,0,0-.048,3.547,4.54,4.54,0,0,0,.917,1.458,13.218,13.218,0,0,0,1.274,1.123l8.9,7.292c2.431,2.006,4.314,3.568,5.6,4.622l1.452,1.212c.329.267.486.418.486.418l-.507-.4-1.479-1.178-5.635-4.581-8.9-7.258a14.164,14.164,0,0,1-1.294-1.13,4.793,4.793,0,0,1-.952-1.513,4.9,4.9,0,0,1,.041-3.67,6.062,6.062,0,0,1,1.068-1.623l1.26-1.541,2.609-3.191L589.4,76.751l14.8-18.1,7.84-9.586,2-2.445c.336-.4.685-.815,1-1.226a6.935,6.935,0,0,1,1.13-1.157,4.951,4.951,0,0,1,6.115.116l9.853,8.094,4.827,3.951,2.376,1.952a5.046,5.046,0,0,1,1.78,2.52,4.971,4.971,0,0,1-.062,3.061,4.792,4.792,0,0,1-.726,1.369c-.308.4-.63.774-.945,1.164q-1.89,2.314-3.745,4.574-3.718,4.519-7.258,8.847L603.254,110.5l-16.961,20.624-1.417,1.726a4.793,4.793,0,0,1-4.526,1.712,4.513,4.513,0,0,1-1.76-.685,5.161,5.161,0,0,1-.52-.377Z" transform="translate(-551.822 -32.859)" fill="#263238"/>
      <rect id="사각형_151441" data-name="사각형 151441" width="29.334" height="15.03" transform="translate(63.71 14.203) rotate(39.33)" fill="#698cf5"/>
      <rect id="사각형_151442" data-name="사각형 151442" width="29.334" height="15.03" transform="translate(50.215 30.665) rotate(39.33)" fill="#698cf5"/>
      <rect id="사각형_151443" data-name="사각형 151443" width="29.334" height="15.03" transform="translate(36.722 47.133) rotate(39.33)" fill="#698cf5"/>
      <rect id="사각형_151444" data-name="사각형 151444" width="29.334" height="15.03" transform="translate(23.232 63.599) rotate(39.33)" fill="#698cf5"/>
      <g id="그룹_166913" data-name="그룹 166913" transform="translate(54.184 14.203)" opacity="0.5">
        <rect id="사각형_151445" data-name="사각형 151445" width="29.334" height="15.03" transform="translate(9.526) rotate(39.33)" fill="#fff"/>
      </g>
      <g id="그룹_166914" data-name="그룹 166914" transform="translate(40.689 30.665)" opacity="0.6">
        <rect id="사각형_151446" data-name="사각형 151446" width="29.334" height="15.03" transform="translate(9.526) rotate(39.33)" fill="#fff"/>
      </g>
      <g id="그룹_166915" data-name="그룹 166915" transform="translate(27.196 47.133)" opacity="0.7">
        <rect id="사각형_151447" data-name="사각형 151447" width="29.334" height="15.03" transform="translate(9.526 0) rotate(39.33)" fill="#fff"/>
      </g>
      <g id="그룹_166916" data-name="그룹 166916" transform="translate(13.706 63.599)" opacity="0.8">
        <rect id="사각형_151448" data-name="사각형 151448" width="29.334" height="15.03" transform="translate(9.526 0) rotate(39.33)" fill="#fff"/>
      </g>
      <rect id="사각형_151449" data-name="사각형 151449" width="96.822" height="31.888" rx="6.51" transform="translate(0 92.517) rotate(-72.85)" fill="#fafafa"/>
      <path id="패스_87669" data-name="패스 87669" d="M575.221,129.141a5.994,5.994,0,0,0,.63.13,4.43,4.43,0,0,0,4.286-1.842,5.539,5.539,0,0,0,.767-1.78l.685-2.143,7.847-25.582L601.1,59.982q1.643-5.348,3.376-10.956l1.746-5.663c.144-.472.308-.959.431-1.431a4.686,4.686,0,0,0,.109-1.452,4.417,4.417,0,0,0-1.232-2.609,4.108,4.108,0,0,0-1.2-.856,10.673,10.673,0,0,0-1.431-.493l-2.951-.911-5.971-1.842L581.781,30a4.328,4.328,0,0,0-3.047.192,4.232,4.232,0,0,0-2.157,2.136c-.205.466-.342.993-.507,1.493l-.466,1.506c-.308,1.013-.623,2.054-.931,3.02Q572.818,44.37,571.01,50.2l-6.916,22.4-11.736,37.921-1.226,3.951c-.2.644-.4,1.274-.589,1.9a5.066,5.066,0,0,0-.329,1.862,4.355,4.355,0,0,0,1.513,3.191,8.2,8.2,0,0,0,3.136,1.369l11,3.424,6.943,2.164,1.8.575.616.2-.623-.171-1.808-.548-6.964-2.123L554.8,122.978l-1.637-.507a4.533,4.533,0,0,1-3.136-4.184,5.266,5.266,0,0,1,.329-1.924c.2-.623.39-1.26.589-1.9.39-1.28.8-2.6,1.212-3.951,3.328-10.812,7.3-23.692,11.7-37.976,2.2-7.142,4.512-14.633,6.909-22.4,1.2-3.882,2.417-7.84,3.65-11.846.315-1.007.623-2.013.931-3.027l.472-1.513a14.823,14.823,0,0,1,.514-1.527,4.512,4.512,0,0,1,2.287-2.273,4.615,4.615,0,0,1,3.246-.205l12.2,3.766,5.971,1.828,2.944.911a10.953,10.953,0,0,1,1.465.514,4.67,4.67,0,0,1,1.281.9,4.725,4.725,0,0,1,1.3,2.78,4.623,4.623,0,0,1-.116,1.534c-.13.507-.288.965-.431,1.445-.589,1.91-1.171,3.793-1.753,5.663Q603,54.689,601.344,60.037L589.608,97.958l-7.936,25.561c-.233.753-.452,1.465-.685,2.136-.1.336-.205.685-.322.965l-.212.438c-.089.13-.164.267-.253.4a4.444,4.444,0,0,1-2.492,1.739,4.266,4.266,0,0,1-1.883.1,3.3,3.3,0,0,1-.473-.11Z" transform="translate(-548.994 -28.539)" fill="#263238"/>
      <rect id="사각형_151450" data-name="사각형 151450" width="29.334" height="15.03" transform="translate(27.953 6.341) rotate(17.15)" fill="#698cf5"/>
      <rect id="사각형_151451" data-name="사각형 151451" width="29.334" height="15.03" transform="translate(21.674 26.681) rotate(17.15)" fill="#698cf5"/>
      <rect id="사각형_151452" data-name="사각형 151452" width="29.334" height="15.03" transform="translate(15.399 47.023) rotate(17.15)" fill="#698cf5"/>
      <rect id="사각형_151453" data-name="사각형 151453" width="29.327" height="15.03" transform="translate(9.127 67.357) rotate(17.15)" fill="#698cf5"/>
      <g id="그룹_166917" data-name="그룹 166917" transform="translate(17.242 26.681)" opacity="0.2">
        <rect id="사각형_151454" data-name="사각형 151454" width="29.334" height="15.03" transform="translate(4.432 0) rotate(17.15)" fill="#fff"/>
      </g>
      <g id="그룹_166918" data-name="그룹 166918" transform="translate(10.967 47.023)" opacity="0.3">
        <rect id="사각형_151455" data-name="사각형 151455" width="29.334" height="15.03" transform="translate(4.432 0) rotate(17.15)" fill="#fff"/>
      </g>
      <g id="그룹_166919" data-name="그룹 166919" transform="translate(4.695 67.357)" opacity="0.4">
        <rect id="사각형_151456" data-name="사각형 151456" width="29.327" height="15.03" transform="translate(4.432 0) rotate(17.15)" fill="#fff"/>
      </g>
      <g id="그룹_166920" data-name="그룹 166920" transform="translate(23.521 6.341)" opacity="0.1">
        <rect id="사각형_151457" data-name="사각형 151457" width="29.334" height="15.03" transform="translate(4.432) rotate(17.15)" fill="#fff"/>
      </g>
      <path id="패스_87670" data-name="패스 87670" d="M588.507,165.859a3.526,3.526,0,1,1-1.274-4.793,3.526,3.526,0,0,1,1.274,4.793Z" transform="translate(-559.048 -69.852)" fill="#455a64"/>
      <path id="패스_87671" data-name="패스 87671" d="M588.438,165.792a4.563,4.563,0,0,0,.288-.815,3.506,3.506,0,0,0-.164-2.273,3.431,3.431,0,0,0-6.58,1.65,3.37,3.37,0,0,0,.767,1.821,3.424,3.424,0,0,0,3.033,1.226,3.506,3.506,0,0,0,2.054-.979,4.879,4.879,0,0,0,.561-.685c.021,0,0,.075-.1.205a2.884,2.884,0,0,1-.39.52,3.506,3.506,0,0,1-2.116,1.1,3.739,3.739,0,0,1-1.664-.164,3.643,3.643,0,0,1-1.582-1.1,3.581,3.581,0,0,1-.835-1.952,3.664,3.664,0,0,1,7.039-1.719,3.493,3.493,0,0,1,.089,2.376,2.469,2.469,0,0,1-.26.6C588.492,165.73,588.451,165.8,588.438,165.792Z" transform="translate(-558.978 -69.785)" fill="#263238"/>
    </g>
    <g id="freepik--Blueprint--inject-10" transform="translate(166.988 54.812)">
      <rect id="사각형_151458" data-name="사각형 151458" width="232.277" height="154.854" transform="translate(0.144 0.178)" fill="#fafafa"/>
      <path id="패스_87672" data-name="패스 87672" d="M455.428,222.152c0-1.164-.055-60.469-.144-154.854l.144.137-232.264.041h0l.178-.178V222.152l-.164-.164,232.284.164-232.284.157H223V67.12H455.6v.144C455.483,161.683,455.428,220.988,455.428,222.152Z" transform="translate(-223 -67.12)" fill="#263238"/>
      <path id="패스_87673" data-name="패스 87673" d="M388.014,153.445v-1.924c0-1.26,0-3.074-.041-5.382,0-4.636-.041-11.25-.075-19.227l.151.144h-34.1c-.041,0,.336-.336.178-.178h0v26.554l-.158-.164,24.589.082,6.991.041h.068l-6.957.041-24.733.192h-.158v-26.7h0l.178-.178h34.216v.178c-.034,8.018-.055,14.66-.075,19.316,0,2.3,0,4.108-.041,5.355v1.369A2.846,2.846,0,0,1,388.014,153.445Z" transform="translate(-264.227 -85.916)" fill="#263238"/>
      <path id="패스_87674" data-name="패스 87674" d="M424.488,203.77H241.43V87.07H424.488Zm-182.374-.685H423.8V87.755H242.115Z" transform="translate(-228.81 -73.409)" fill="#263238"/>
      <rect id="사각형_151459" data-name="사각형 151459" width="182.374" height="5.909" transform="translate(12.962 14.003)" fill="#263238"/>
      <rect id="사각형_151460" data-name="사각형 151460" width="6.621" height="84.408" transform="translate(12.962 45.611)" fill="#263238"/>
      <rect id="사각형_151461" data-name="사각형 151461" width="6.621" height="11.127" transform="translate(12.962 14.003)" fill="#263238"/>
      <path id="패스_87675" data-name="패스 87675" d="M260.119,120.278l-12.1-17.8,2.13-1.445,12.1,17.8ZM248.972,102.66l11.36,16.667,1-.685-11.326-16.667Z" transform="translate(-230.888 -77.81)" fill="#263238"/>
      <path id="패스_87676" data-name="패스 87676" d="M269.92,183.118H254V166h15.906Zm-15.235-.685h14.537V166.685H254.685Z" transform="translate(-232.773 -98.293)" fill="#263238"/>
      <rect id="사각형_151462" data-name="사각형 151462" width="182.374" height="6.683" transform="translate(12.962 123.335)" fill="#263238"/>
      <path id="패스_87677" data-name="패스 87677" d="M263.537,181.251a4.56,4.56,0,1,1,4.553-4.56,4.56,4.56,0,0,1-4.553,4.56Zm0-8.436a3.876,3.876,0,1,0,3.869,3.876A3.876,3.876,0,0,0,263.537,172.815Z" transform="translate(-234.34 -100.225)" fill="#263238"/>
      <path id="패스_87678" data-name="패스 87678" d="M396.837,112.339H335.21V95.7h61.627Zm-60.942-.685h60.257V96.385H335.895Z" transform="translate(-258.375 -76.13)" fill="#263238"/>
      <path id="패스_87679" data-name="패스 87679" d="M362.245,110.77,355,104.724l6.046-7.224,7.224,6.046Zm-6.265-6.128,6.163,5.17,5.17-6.163-6.163-5.17Z" transform="translate(-264.614 -76.698)" fill="#263238"/>
      <path id="패스_87680" data-name="패스 87680" d="M376.3,110.77l-7.224-6.046,6.046-7.224,7.231,6.046Zm-6.259-6.128,6.163,5.17,5.17-6.163-6.163-5.17Z" transform="translate(-269.053 -76.698)" fill="#263238"/>
      <path id="패스_87681" data-name="패스 87681" d="M390.361,110.77l-7.231-6.046L389.2,97.5l7.231,6.046Zm-6.265-6.128,6.163,5.17,5.17-6.163-6.163-5.17Z" transform="translate(-273.483 -76.698)" fill="#263238"/>
      <path id="패스_87682" data-name="패스 87682" d="M436.929,110.238a5.649,5.649,0,1,1,5.649-5.649,5.649,5.649,0,0,1-5.649,5.649Zm0-10.613a4.964,4.964,0,1,0,4.964,4.964A4.964,4.964,0,0,0,436.929,99.625Z" transform="translate(-288.662 -77.152)" fill="#263238"/>
      <path id="패스_87683" data-name="패스 87683" d="M317.324,110.6H290.9V95.7h26.424Zm-25.739-.685h25.055V96.385H291.585Z" transform="translate(-244.406 -76.13)" fill="#263238"/>
      <path id="패스_87684" data-name="패스 87684" d="M492.856,149.64H477.6V110.35h15.256Zm-14.571-.685h13.887V111.035H478.285Z" transform="translate(-303.265 -80.749)" fill="#263238"/>
      <rect id="사각형_151463" data-name="사각형 151463" width="6.087" height="109.332" transform="translate(189.248 14.003)" fill="#263238"/>
      <path id="패스_87685" data-name="패스 87685" d="M464.475,147.173h-1.109a4.643,4.643,0,0,1-4.636-4.636v-8.9A4.643,4.643,0,0,1,463.366,129h1.109a4.643,4.643,0,0,1,4.636,4.636v8.9a4.643,4.643,0,0,1-4.636,4.636Zm-1.109-17.488a3.958,3.958,0,0,0-3.951,3.951v8.9a3.958,3.958,0,0,0,3.951,3.951h1.109a3.958,3.958,0,0,0,3.951-3.951v-8.9a3.958,3.958,0,0,0-3.951-3.951Z" transform="translate(-297.316 -86.628)" fill="#263238"/>
      <path id="패스_87686" data-name="패스 87686" d="M327.252,195.168c0,.1-17.29.178-38.612.178s-38.619-.082-38.619-.178,17.283-.178,38.619-.178S327.252,195.072,327.252,195.168Z" transform="translate(-231.518 -107.432)" fill="#263238"/>
      <path id="패스_87687" data-name="패스 87687" d="M361.918,209.421a12.111,12.111,0,0,1-.13-2.15c-.034-1.328-.048-3.17-.048-5.2s0-3.869.048-5.2a12.16,12.16,0,0,1,.13-2.157,13.638,13.638,0,0,1,.123,2.157c0,1.328.055,3.163.055,5.2s0,3.869-.055,5.2A13.6,13.6,0,0,1,361.918,209.421Z" transform="translate(-266.739 -107.347)" fill="#263238"/>
      <path id="패스_87688" data-name="패스 87688" d="M271.266,231.493H251.1V194.75h20.166Zm-19.481-.685h18.8V195.435h-18.8Z" transform="translate(-231.859 -107.357)" fill="#263238"/>
      <path id="패스_87689" data-name="패스 87689" d="M526.1,87.488c0,.1-7.594.178-16.961.178s-16.961-.082-16.961-.178,7.587-.178,16.961-.178S526.1,87.385,526.1,87.488Z" transform="translate(-307.862 -73.485)" fill="#263238"/>
      <path id="패스_87690" data-name="패스 87690" d="M541.238,212.752c-.1,0-.178-29.225-.178-65.263s.082-65.269.178-65.269.178,29.218.178,65.269S541.334,212.752,541.238,212.752Z" transform="translate(-323.272 -71.88)" fill="#263238"/>
      <path id="패스_87691" data-name="패스 87691" d="M537.236,257.308c0,.1-6.806.185-15.194.185s-15.2-.082-15.2-.185,6.806-.178,15.2-.178S537.236,257.212,537.236,257.308Z" transform="translate(-312.483 -127.023)" fill="#263238"/>
      <path id="패스_87692" data-name="패스 87692" d="M507.538,265.812a65.692,65.692,0,0,1-.178-6.786,65.691,65.691,0,0,1,.178-6.786,63.443,63.443,0,0,1,.178,6.786A63.443,63.443,0,0,1,507.538,265.812Z" transform="translate(-312.641 -125.481)" fill="#263238"/>
      <path id="패스_87693" data-name="패스 87693" d="M244.07,268.018c0-.1,45.193-.178,100.951-.178s100.958.075,100.958.178-45.193.178-100.958.178S244.07,268.114,244.07,268.018Z" transform="translate(-229.643 -130.399)" fill="#263238"/>
      <path id="패스_87694" data-name="패스 87694" d="M242.8,267.853a40.582,40.582,0,0,1-.178-5.423A40.653,40.653,0,0,1,242.8,257a42.088,42.088,0,0,1,.178,5.43,42.015,42.015,0,0,1-.178,5.423Z" transform="translate(-229.178 -126.982)" fill="#263238"/>
      <path id="패스_87695" data-name="패스 87695" d="M261.251,127a2.74,2.74,0,0,1-.493.472,17.152,17.152,0,0,1-1.479,1.13,20.09,20.09,0,0,1-5.526,2.65,24.335,24.335,0,0,1-6.053.965h-1.856a2.245,2.245,0,0,1-.685-.062c0-.062.965-.075,2.52-.192a28.909,28.909,0,0,0,5.964-1.061,22.672,22.672,0,0,0,5.478-2.52C260.45,127.546,261.21,126.944,261.251,127Z" transform="translate(-229.986 -85.996)" fill="#263238"/>
      <path id="패스_87696" data-name="패스 87696" d="M372.429,233.658l-12.1-17.8,2.13-1.445,12.093,17.8ZM361.282,216.04l11.326,16.667,1-.685-11.332-16.66Z" transform="translate(-266.295 -113.555)" fill="#263238"/>
      <path id="패스_87697" data-name="패스 87697" d="M373.591,240.359a2.485,2.485,0,0,1-.493.473,15.864,15.864,0,0,1-1.479,1.13,19.893,19.893,0,0,1-5.526,2.657,24.993,24.993,0,0,1-6.053.965h-1.856a2.307,2.307,0,0,1-.685-.068c0-.055.965-.075,2.52-.192a28.833,28.833,0,0,0,5.964-1.055,22.656,22.656,0,0,0,5.478-2.527C372.763,240.92,373.523,240.311,373.591,240.359Z" transform="translate(-265.402 -121.734)" fill="#263238"/>
      <path id="패스_87698" data-name="패스 87698" d="M353.918,111.553c-.1,0-.178-3.335-.178-7.443s.082-7.45.178-7.45.178,3.335.178,7.45S354,111.553,353.918,111.553Z" transform="translate(-264.217 -76.433)" fill="#263238"/>
      <path id="패스_87699" data-name="패스 87699" d="M402.918,112.424c-.1,0-.178-3.369-.178-7.532s.082-7.532.178-7.532.185,3.369.185,7.532S402.993,112.424,402.918,112.424Z" transform="translate(-279.665 -76.653)" fill="#263238"/>
      <path id="패스_87700" data-name="패스 87700" d="M467.879,193.154a1.425,1.425,0,0,1,0-.377c0-.288.055-.644.1-1.075.11-.979.253-2.314.431-3.944l.685-5.841a8.394,8.394,0,0,0,.11-1.65,1.472,1.472,0,0,0-.89-1.239,11,11,0,0,0-1.719-.493l-1.842-.445-12.7-3.136-3.841-.993-1.041-.288a1.239,1.239,0,0,1-.356-.123,1.369,1.369,0,0,1,.37.055l1.055.219,3.869.883,12.729,3.04,1.835.445a10.318,10.318,0,0,1,1.8.52,2.054,2.054,0,0,1,.753.616,1.863,1.863,0,0,1,.315.9,7.849,7.849,0,0,1-.123,1.732c-.281,2.184-.541,4.156-.76,5.834s-.411,2.951-.548,3.924q-.089.644-.164,1.068A1.37,1.37,0,0,1,467.879,193.154Z" transform="translate(-293.558 -100.673)" fill="#263238"/>
      <path id="패스_87701" data-name="패스 87701" d="M454.6,171.63a13.139,13.139,0,0,1-2.143.486c-1.369.253-3.184.582-5.231.924l.11-.288.062.075c1.315,1.637,2.486,3.129,3.321,4.225a13.394,13.394,0,0,1,1.287,1.815,13.7,13.7,0,0,1-1.486-1.657c-.883-1.055-2.054-2.527-3.424-4.163l-.055-.075-.192-.233.3-.055c2.054-.336,3.9-.623,5.245-.815a13.7,13.7,0,0,1,2.2-.24Z" transform="translate(-293.571 -100.068)" fill="#263238"/>
      <path id="패스_87702" data-name="패스 87702" d="M321.188,179.759H280.46V152.78h40.728Zm-40.044-.685H320.5V153.465H281.145Z" transform="translate(-241.115 -94.125)" fill="#263238"/>
      <path id="패스_87703" data-name="패스 87703" d="M297.148,179.613c-.1,0-.178-5.793-.178-12.935s.082-12.928.178-12.928.178,5.786.178,12.928S297.251,179.613,297.148,179.613Z" transform="translate(-246.32 -94.431)" fill="#263238"/>
      <path id="패스_87704" data-name="패스 87704" d="M324.028,179.524c-.1,0-.178-5.772-.178-12.887s.082-12.887.178-12.887.178,5.766.178,12.887S324.131,179.524,324.028,179.524Z" transform="translate(-254.794 -94.431)" fill="#263238"/>
      <path id="패스_87705" data-name="패스 87705" d="M375.471,144s-2.225,32.614.548,37.893h34.107l-1.369-36.373Z" transform="translate(-270.802 -91.357)" fill="#e0e0e0"/>
      <path id="패스_87706" data-name="패스 87706" d="M375.86,144c.24,13.572,1.369,25.842,3.841,36.243l38.387.288S414.3,149.341,414.3,144Z" transform="translate(-271.191 -91.357)" fill="#698cf5"/>
      <path id="패스_87707" data-name="패스 87707" d="M413.718,159.19a3.034,3.034,0,0,1-.459.514,5.629,5.629,0,0,1-4.793,1.4,5.82,5.82,0,0,1-3.526-2.157,4.183,4.183,0,0,1-.6-1.054,1.986,1.986,0,0,1-.075-1.294,1.438,1.438,0,0,1,.986-.952,1.116,1.116,0,0,1,.74.1,1.205,1.205,0,0,1,.5.561,2.992,2.992,0,0,1-.493,2.787,7.032,7.032,0,0,1-2.164,2.1,6.847,6.847,0,0,1-6.252.6,3.8,3.8,0,0,1-2.273-2.534,2.835,2.835,0,0,1,.26-1.787,2.294,2.294,0,0,1,1.37-1.226,1.979,1.979,0,0,1,1.8.356,2.8,2.8,0,0,1,.986,1.513,2.739,2.739,0,0,1-.151,1.773,4.019,4.019,0,0,1-1.013,1.4,6.115,6.115,0,0,1-6.163,1.027,5.95,5.95,0,0,1-2.492-1.691,6.457,6.457,0,0,1-1.3-2.527,6.2,6.2,0,0,1-.13-2.643,4.519,4.519,0,0,1,.363-1.212,1.63,1.63,0,0,1,.87-.89,1.137,1.137,0,0,1,1.164.247,2.246,2.246,0,0,1,.582.952,3.992,3.992,0,0,1,0,1.986,5.389,5.389,0,0,1-1.561,2.739,4.971,4.971,0,0,1-1.684,1.048,2.567,2.567,0,0,1-.685.171,5.656,5.656,0,0,0,2.26-1.322,5.3,5.3,0,0,0,1.493-2.657,3.773,3.773,0,0,0-.048-1.869,1.986,1.986,0,0,0-.52-.849.9.9,0,0,0-.918-.192,1.452,1.452,0,0,0-.726.767,4.409,4.409,0,0,0-.322,1.144,6.14,6.14,0,0,0,1.4,4.923,5.69,5.69,0,0,0,2.355,1.6,5.8,5.8,0,0,0,5.807-.972,3.657,3.657,0,0,0,.924-1.287,2.4,2.4,0,0,0,.137-1.548,2.451,2.451,0,0,0-.863-1.322,1.63,1.63,0,0,0-1.479-.3,2.328,2.328,0,0,0-1.369,2.609,3.424,3.424,0,0,0,2.054,2.28,6.745,6.745,0,0,0,8-2.54,3.424,3.424,0,0,0,.568-1.233,2.171,2.171,0,0,0-.075-1.26.8.8,0,0,0-.911-.5,1.164,1.164,0,0,0-.787.76,2.472,2.472,0,0,0,.623,2.1,5.478,5.478,0,0,0,6.382,1.849,6.286,6.286,0,0,0,2.212-1.486Z" transform="translate(-274.867 -94.284)" fill="#263238"/>
      <path id="패스_87708" data-name="패스 87708" d="M418.88,178.989a6.888,6.888,0,0,1-2.129,1.116,9.06,9.06,0,0,1-2.787.486,8.9,8.9,0,0,1-3.677-.685,4.793,4.793,0,0,1-1.849-1.219,1.554,1.554,0,0,1-.363-1.178,1.28,1.28,0,0,1,.774-1.034,1.041,1.041,0,0,1,1.212.555,1.486,1.486,0,0,1,0,1.369,3.232,3.232,0,0,1-.835,1.075,5.554,5.554,0,0,1-1.116.829,7.176,7.176,0,0,1-5.67.623,6.307,6.307,0,0,1-2.65-1.575,3.992,3.992,0,0,1-.9-1.369,2.342,2.342,0,0,1-.062-1.657,1.958,1.958,0,0,1,1.123-1.239,1.65,1.65,0,0,1,1.63.3,2.2,2.2,0,0,1,.794,1.411,3.157,3.157,0,0,1-.212,1.561,6.1,6.1,0,0,1-4.423,3.554,6.163,6.163,0,0,1-5-1.253,3.93,3.93,0,0,1-1.369-1.945,2.657,2.657,0,0,1-.1-1.157,1.541,1.541,0,0,1,.589-.965,1.65,1.65,0,0,1,1.972.116,1.931,1.931,0,0,1,.781,1.609,3.335,3.335,0,0,1-1.322,2.465,7.839,7.839,0,0,1-1.52.938l-.425.192-.144.055a4.523,4.523,0,0,1,.534-.308,9.234,9.234,0,0,0,1.465-.979,3.2,3.2,0,0,0,1.212-2.362,1.739,1.739,0,0,0-.685-1.431,1.431,1.431,0,0,0-1.691-.089,1.253,1.253,0,0,0-.479.808,2.315,2.315,0,0,0,.1,1.027,3.622,3.622,0,0,0,1.322,1.794,5.765,5.765,0,0,0,8.9-2.191,2.78,2.78,0,0,0,.192-1.37,1.849,1.849,0,0,0-.685-1.185,1.281,1.281,0,0,0-1.274-.24,1.609,1.609,0,0,0-.918,1.013,2.054,2.054,0,0,0,.055,1.417,3.752,3.752,0,0,0,.822,1.219,6.039,6.039,0,0,0,2.5,1.493,6.847,6.847,0,0,0,5.4-.582,5.17,5.17,0,0,0,1.054-.774,3.006,3.006,0,0,0,.781-.972,1.192,1.192,0,0,0,0-1.1.726.726,0,0,0-.842-.418.986.986,0,0,0-.589.794,1.274,1.274,0,0,0,.3.965,4.7,4.7,0,0,0,1.726,1.157,8.683,8.683,0,0,0,3.581.733,9.052,9.052,0,0,0,2.739-.418A12.745,12.745,0,0,0,418.88,178.989Z" transform="translate(-276.03 -101.127)" fill="#263238"/>
    </g>
    <g id="freepik--Picture--inject-10" transform="translate(52.208 36.296)">
      <rect id="사각형_151464" data-name="사각형 151464" width="85.442" height="85.442" transform="matrix(0.994, -0.113, 0.113, 0.994, 7.052, 10.824)" fill="#fff"/>
      <path id="패스_87709" data-name="패스 87709" d="M160.177,126.565a2.263,2.263,0,0,0-.055-.4c-.055-.267-.082-.685-.144-1.171-.123-1.041-.3-2.568-.534-4.56-.466-3.985-1.144-9.826-2.013-17.255l-7.087-61.483.171.137-84.908,9.7h0l.151-.2c3.54,31.087,6.847,60.257,9.662,84.908l-.171-.137,61.5-6.936,17.269-1.924,4.56-.507,1.171-.123.4-.034-.383.048-1.157.144-4.526.534-17.221,2.006L75.3,136.4h-.151v-.157c-2.821-24.651-6.163-53.8-9.7-84.908v-.178h.178L150.536,41.5h.157v.157c2.876,25.479,5.272,46.72,6.95,61.627l1.924,17.235c.219,1.979.383,3.5.5,4.533l.123,1.157A2.766,2.766,0,0,0,160.177,126.565Z" transform="translate(-58.551 -40.527)" fill="#263238"/>
      <rect id="사각형_151465" data-name="사각형 151465" width="76.616" height="76.616" transform="matrix(0.994, -0.113, 0.113, 0.994, 11.94, 14.704)" fill="#ebebeb"/>
      <path id="패스_87710" data-name="패스 87710" d="M157.543,124.933a1.981,1.981,0,0,0-.048-.356c-.048-.233-.075-.6-.13-1.054q-.164-1.4-.486-4.108c-.418-3.581-1.027-8.813-1.808-15.475-1.534-13.318-3.732-32.327-6.368-55.128l.171.137L72.765,57.671h0l.157-.192c3.17,27.876,6.163,54,8.655,76.123l-.171-.137,55.142-6.211,15.482-1.726,4.108-.452,1.055-.11h.363l-.342.048-1.041.13-4.054.479-15.441,1.8L81.434,133.8h-.151v-.151c-2.527-22.124-5.512-48.247-8.7-76.123v-.171h.178l76.116-8.7h.157v.151c2.575,22.85,4.718,41.9,6.224,55.238l1.719,15.455c.2,1.773.349,3.136.445,4.061.048.459.089.8.11,1.041A2.4,2.4,0,0,1,157.543,124.933Z" transform="translate(-60.798 -42.784)" fill="#263238"/>
      <path id="패스_87711" data-name="패스 87711" d="M147.051,129.76c-.034,0,2.89,16.05,2.89,16.05l-2.883.329-4.978-15.53Z" transform="translate(-82.709 -68.352)" fill="#455a64"/>
      <path id="패스_87712" data-name="패스 87712" d="M171.611,126.54c-.034,0,2.883,16.057,2.883,16.057l-2.883.329-4.971-15.557Z" transform="translate(-90.452 -67.337)" fill="#455a64"/>
      <path id="패스_87713" data-name="패스 87713" d="M102.76,134.24l.007,16.954,2.862-.329,1.993-16.612Z" transform="translate(-70.313 -69.764)" fill="#455a64"/>
      <path id="패스_87714" data-name="패스 87714" d="M149.33,76.493c.548,5.868,2.623,24.555-1.726,33.819L127.9,112.819,96.03,116.448S87.608,104.609,87.06,92.8l15.749-6.738s2.314-6.847,5.04-7.032c1.924-.137,30.724-3.554,39.085-4.465a2.136,2.136,0,0,1,2.4,1.931Z" transform="translate(-65.363 -50.945)" fill="#698cf5"/>
      <path id="패스_87715" data-name="패스 87715" d="M160.971,75v.116a1.5,1.5,0,0,1-.137.342c-.13.288-.336.685-.623,1.246-.568,1.075-1.445,2.6-2.561,4.451a8.108,8.108,0,0,1-1.007,1.376,4.793,4.793,0,0,1-1.541,1.1c-1.185.486-2.431,1.007-3.746,1.582s-2.684,1.185-4.074,1.876a21.733,21.733,0,0,0-2.054,1.123,8.078,8.078,0,0,0-1,.685,1.8,1.8,0,0,0-.685.876,19.108,19.108,0,0,0-.623,2.328c-.164.787-.322,1.561-.459,2.328-.288,1.527-.548,3.006-.781,4.423-.452,2.814-.856,5.362-1.2,7.532l-.787,5.067c-.089.568-.164,1.027-.219,1.369a2.384,2.384,0,0,1-.1.479,2.581,2.581,0,0,1,0-.486c.041-.356.1-.815.157-1.369.151-1.2.377-2.938.685-5.088s.685-4.7,1.13-7.532c.226-1.417.472-2.9.753-4.43.137-.774.3-1.548.466-2.342a18.306,18.306,0,0,1,.637-2.4,2.116,2.116,0,0,1,.808-1.013c.336-.247.685-.472,1.027-.685.685-.411,1.4-.781,2.109-1.123q2.054-1.027,4.108-1.876c1.369-.568,2.581-1.075,3.759-1.548a4.4,4.4,0,0,0,1.452-1.013,7.656,7.656,0,0,0,.965-1.369c1.144-1.842,2.054-3.342,2.657-4.389.308-.52.534-.931.685-1.212a3.258,3.258,0,0,1,.2-.425Z" transform="translate(-81.853 -51.088)" fill="#263238"/>
      <path id="패스_87716" data-name="패스 87716" d="M146.69,113.161a3.067,3.067,0,0,1,.034-.479c.041-.349.089-.8.158-1.369.157-1.226.383-2.924.685-5.005s.644-4.629,1.068-7.416c.205-1.369.438-2.855.685-4.369.123-.753.26-1.527.411-2.308.082-.39.157-.774.274-1.185l.1-.308a.931.931,0,0,1,.2-.294,3.081,3.081,0,0,1,.493-.411,32.537,32.537,0,0,1,4.232-2.212c1.369-.637,2.739-1.226,4.047-1.78s2.527-1.082,3.657-1.616a5.369,5.369,0,0,0,2.253-2.431,38.469,38.469,0,0,0,2.006-4.615c.2-.527.349-.959.472-1.287a4.176,4.176,0,0,1,.178-.445,1.869,1.869,0,0,1-.11.472c-.082.3-.226.74-.411,1.308a34.664,34.664,0,0,1-1.91,4.684,10.272,10.272,0,0,1-.883,1.445,3.465,3.465,0,0,1-.644.685,4.478,4.478,0,0,1-.822.472c-1.137.548-2.362,1.075-3.656,1.65s-2.664,1.178-4.081,1.787a32.368,32.368,0,0,0-4.108,2.184,2.937,2.937,0,0,0-.438.363.493.493,0,0,0-.137.2l-.082.267c-.1.363-.178.767-.26,1.15-.151.774-.288,1.541-.418,2.294q-.37,2.273-.685,4.362c-.431,2.739-.815,5.279-1.144,7.4s-.582,3.766-.767,4.985c-.1.561-.164,1.013-.226,1.369a2.377,2.377,0,0,1-.164.459Z" transform="translate(-84.162 -51.287)" fill="#263238"/>
      <path id="패스_87717" data-name="패스 87717" d="M105.858,126.776a2.054,2.054,0,0,1-.205-.383l-.548-1.144c-.459-.993-1.116-2.438-1.9-4.225s-1.746-3.917-2.623-6.382a1.5,1.5,0,0,1,.068-1.075,2.054,2.054,0,0,1,.753-.787,4.6,4.6,0,0,1,2.054-.685l4.334-.493L123,109.918l4.615-.472,1.253-.11a2.738,2.738,0,0,1,.445,0,2.15,2.15,0,0,1-.431.089l-1.253.178-4.6.582-15.2,1.78-4.334.493a4.286,4.286,0,0,0-1.89.589,1.719,1.719,0,0,0-.63.644,1.15,1.15,0,0,0-.055.842c.842,2.417,1.794,4.56,2.54,6.368s1.369,3.225,1.8,4.273l.479,1.164A1.773,1.773,0,0,1,105.858,126.776Z" transform="translate(-69.604 -61.91)" fill="#263238"/>
      <path id="패스_87718" data-name="패스 87718" d="M104.74,125.541c0-.1,5.478-.8,12.216-1.568s12.25-1.322,12.257-1.219-5.478.8-12.216,1.575S104.754,125.658,104.74,125.541Z" transform="translate(-70.937 -66.139)" fill="#263238"/>
      <path id="패스_87719" data-name="패스 87719" d="M87.06,100.844a1.547,1.547,0,0,1,.575-.329A5.807,5.807,0,0,1,89.4,100.1a4.423,4.423,0,0,1,2.643.541,3.424,3.424,0,0,1,1.137,1.191,9.456,9.456,0,0,1,.753,1.541c.76,2.2,1.369,4.163,1.856,5.608a16.147,16.147,0,0,1,.685,2.362,16.392,16.392,0,0,1-.9-2.273c-.527-1.411-1.212-3.424-1.958-5.567a8.764,8.764,0,0,0-.685-1.486,3.164,3.164,0,0,0-.986-1.1,4.266,4.266,0,0,0-2.451-.561A9.155,9.155,0,0,0,87.06,100.844Z" transform="translate(-65.363 -58.992)" fill="#263238"/>
      <path id="패스_87720" data-name="패스 87720" d="M118.741,105.207a3.136,3.136,0,0,1-.247-.685c-.144-.452-.336-1.1-.561-1.91-.459-1.609-1.061-3.848-1.712-6.32A12.024,12.024,0,0,0,114.927,93a4.834,4.834,0,0,0-2.109-1.883,3.608,3.608,0,0,0-1.883-.315c-.452.055-.685.164-.685.137s.048-.048.164-.1a1.9,1.9,0,0,1,.52-.171,3.424,3.424,0,0,1,2,.226,4.841,4.841,0,0,1,2.273,1.931,11.517,11.517,0,0,1,1.369,3.383c.685,2.472,1.219,4.718,1.616,6.348.192.815.349,1.479.445,1.938A2.438,2.438,0,0,1,118.741,105.207Z" transform="translate(-72.674 -56.007)" fill="#263238"/>
      <path id="패스_87721" data-name="패스 87721" d="M131.008,92.454a1.684,1.684,0,0,0-.993.253.808.808,0,0,0-.377.89,1.02,1.02,0,0,0,.829.863.918.918,0,0,0,1-.568,1.013,1.013,0,0,0-.062-1.007,1.65,1.65,0,0,0-.883-.514.564.564,0,0,1,.308-.048,1.2,1.2,0,0,1,.774.4,1.274,1.274,0,0,1,.171,1.287,1.37,1.37,0,0,1-.507.63,1.246,1.246,0,0,1-.856.171,1.369,1.369,0,0,1-1.082-1.164,1.027,1.027,0,0,1,.123-.726,1.164,1.164,0,0,1,.445-.431,1.28,1.28,0,0,1,.849-.171C130.926,92.365,131.022,92.44,131.008,92.454Z" transform="translate(-78.683 -56.545)" fill="#263238"/>
      <path id="패스_87722" data-name="패스 87722" d="M152.7,90.672c-.062,0-.219-.39-.685-.479h-.034a1.034,1.034,0,0,0-.746.062.918.918,0,0,0-.616.787h0c.055.356.13.568.089.6s-.219-.164-.342-.527h0a1.13,1.13,0,0,1,.719-1.157,1.287,1.287,0,0,1,1.007,0h0a.9.9,0,0,1,.6.5A.221.221,0,0,1,152.7,90.672Z" transform="translate(-85.32 -55.77)" fill="#263238"/>
      <g id="그룹_166921" data-name="그룹 166921" transform="translate(31.708 38.36)" opacity="0.3">
        <path id="패스_87723" data-name="패스 87723" d="M129.727,105.152a28.4,28.4,0,0,1,1.719-9.052,7.31,7.31,0,0,0-2.054,3.17,4.9,4.9,0,0,1-2.383,2.842c-1.191.445-2.39,0-3.595.062-1.513.041-2.972.76-4.478.63a5.4,5.4,0,0,1-3.424-1.876,16.071,16.071,0,0,1-2.157-3.348c.39,1.876.753,3.958-.219,5.615-1.1,1.89-3.492,2.506-5.649,2.9s-4.54.883-5.807,2.664a10.586,10.586,0,0,1,2.794-.685Z" transform="translate(-101.68 -96.1)"/>
      </g>
      <rect id="사각형_151466" data-name="사각형 151466" width="5.909" height="31.183" transform="matrix(0.665, 0.747, -0.747, 0.665, 23.293, 0)" fill="#e0e0e0"/>
    </g>
    <g id="freepik--Character--inject-10" transform="translate(68.227 93.112)">
      <path id="패스_87724" data-name="패스 87724" d="M378.33,315.4,394.7,297.213,407.6,296.2l1.958,13.948-10.429,4.663L387.738,326.8l-6.909,1.575Z" transform="translate(-173.208 -177.64)" fill="#efbe9d"/>
      <rect id="사각형_151467" data-name="사각형 151467" width="123.849" height="144.576" transform="translate(209.81 168.153) rotate(-78.04)" fill="#fff"/>
      <path id="패스_87725" data-name="패스 87725" d="M526.511,342.706l25.513-121.2.116.178L410.708,191.762h0l.212-.137c-9.319,43.96-18.1,85.394-25.678,121.158l-.123-.185,141.4,30.129L385.051,312.933H384.9v-.158c7.573-35.764,16.338-77.2,25.643-121.158l.034-.178h.171L552.2,221.4h.151l-.034.151C536.782,294.534,526.778,341.473,526.511,342.706Z" transform="translate(-175.28 -144.613)" fill="#263238"/>
      <rect id="사각형_151468" data-name="사각형 151468" width="112.126" height="131.491" transform="translate(217.428 163.776) rotate(-78.04)" fill="#ebebeb"/>
      <path id="패스_87726" data-name="패스 87726" d="M524.846,338.869s.137-.685.411-2.02.685-3.3,1.226-5.861c1.075-5.136,2.657-12.654,4.67-22.24,4.04-19.173,9.812-46.562,16.776-79.6l.116.178L419.416,202.113h0l.212-.137c-8.436,39.783-16.386,77.287-23.247,109.688l-.123-.192,93.008,19.782,26.253,5.6,6.943,1.486,1.787.39.609.137-.6-.116-1.773-.363-6.923-1.452-26.232-5.512-93.125-19.645h-.151v-.158c6.847-32.4,14.8-69.905,23.213-109.7l.034-.178.178.041h0L548.1,229.057h.144v.144c-7.032,33.052-12.866,60.483-16.947,79.656-2.054,9.586-3.65,17.077-4.738,22.2-.548,2.547-.972,4.5-1.253,5.82S524.846,338.869,524.846,338.869Z" transform="translate(-178.798 -147.863)" fill="#263238"/>
      <path id="패스_87727" data-name="패스 87727" d="M487.7,348.95l-3.362,11.161.959.2,5.889-10.627Z" transform="translate(-206.629 -194.269)" fill="#263238"/>
      <path id="패스_87728" data-name="패스 87728" d="M548.925,361.583l-1.452,11.565-.959-.2-1.075-12.1Z" transform="translate(-225.891 -198.021)" fill="#263238"/>
      <rect id="사각형_151469" data-name="사각형 151469" width="54.855" height="17.297" transform="translate(278.059 136.377) rotate(11.96)" fill="#263238"/>
      <path id="패스_87729" data-name="패스 87729" d="M509.123,336.261v-.144a2.953,2.953,0,0,1,.068-.39c.075-.37.171-.863.288-1.5.267-1.315.644-3.191,1.109-5.54l.089.137-25.472-5.341.205-.137h0v.226l-.055.246-.1.486-.205.965c-.137.644-.267,1.28-.4,1.91-.267,1.26-.527,2.5-.787,3.7l-.13-.205,18.166,3.93,5.348,1.185,1.445.329.383.089.13.041-.479-.075-1.417-.281-5.327-1.075-18.324-3.8-.171-.034.041-.171.781-3.7c.13-.63.267-1.267.4-1.91.062-.322.13-.644.2-.972l.1-.486.055-.24v-.233h0c.424-.274.123-.075.219-.137l25.493,5.478h.11v.11c-.527,2.369-.952,4.252-1.246,5.581-.144.616-.253,1.1-.336,1.458A4.462,4.462,0,0,1,509.123,336.261Z" transform="translate(-206.358 -186.127)" fill="#455a64"/>
      <path id="패스_87730" data-name="패스 87730" d="M506.648,347.892v-.144l.068-.39c.075-.37.171-.863.294-1.5.26-1.315.637-3.191,1.109-5.54l.082.137-25.52-5.341.212-.137h0v.226l-.048.246-.11.486c-.068.322-.137.651-.2.965l-.411,1.91c-.267,1.26-.527,2.5-.787,3.7l-.13-.205,18.166,3.93,5.348,1.185,1.445.329.383.089.13.041-.479-.075-1.417-.281-5.327-1.075-18.324-3.8h-.164l.021-.178.781-3.7c.13-.63.267-1.267.4-1.91l.205-.972.1-.486.048-.24v-.226h0l.212-.137,25.493,5.478h.11v.11c-.527,2.369-.952,4.252-1.246,5.581-.144.616-.253,1.1-.336,1.458a4.456,4.456,0,0,1-.116.466Z" transform="translate(-205.567 -189.809)" fill="#455a64"/>
      <path id="패스_87731" data-name="패스 87731" d="M547.6,344.416v-.144a2.963,2.963,0,0,1,.068-.39c.075-.37.171-.863.294-1.5.26-1.315.637-3.184,1.109-5.54l.082.137-25.52-5.341.212-.137h0v.233l-.048.24-.11.486c-.068.329-.137.685-.2.972l-.411,1.91q-.4,1.89-.787,3.691l-.13-.205,18.166,3.93,5.348,1.185,1.445.329.383.089.13.041a2.456,2.456,0,0,1-.479-.075l-1.417-.281-5.327-1.075-18.324-3.8-.164-.034v-.171l.781-3.7c.13-.63.267-1.267.4-1.91l.205-.965.1-.493.048-.24v-.233h0l.212-.137,25.493,5.478h.109v.11c-.527,2.369-.952,4.252-1.246,5.581-.144.616-.253,1.1-.336,1.458a3.9,3.9,0,0,1-.1.5Z" transform="translate(-218.476 -188.702)" fill="#455a64"/>
      <path id="패스_87732" data-name="패스 87732" d="M545.149,356.039V355.9a2.962,2.962,0,0,1,.068-.39c.075-.37.171-.863.294-1.5.26-1.315.637-3.184,1.109-5.54l.082.137-25.52-5.341.212-.137h0v.233l-.048.24-.1.486-.205.972-.411,1.9-.781,3.7-.137-.205,18.166,3.93,5.355,1.185,1.445.329.377.089.13.041a2.46,2.46,0,0,1-.479-.075l-1.417-.281-5.389-1.048-18.317-3.8-.171-.034.034-.171.781-3.7c.13-.63.267-1.267.4-1.91l.205-.966.1-.493.048-.24v-.233h0l.212-.137,25.493,5.478h.116v.11c-.527,2.369-.952,4.252-1.246,5.581-.144.616-.253,1.1-.336,1.458a3.911,3.911,0,0,1-.075.473Z" transform="translate(-217.685 -192.375)" fill="#455a64"/>
      <path id="패스_87733" data-name="패스 87733" d="M485.632,323.006c-.075.068-.308-.055-.52-.281s-.329-.466-.26-.534.3.062.52.288S485.707,322.945,485.632,323.006Z" transform="translate(-206.784 -185.828)" fill="#455a64"/>
      <path id="패스_87734" data-name="패스 87734" d="M480.611,345.983c.048.082-.144.3-.438.479s-.568.26-.616.178.137-.3.431-.479S480.543,345.887,480.611,345.983Z" transform="translate(-205.119 -193.322)" fill="#455a64"/>
      <path id="패스_87735" data-name="패스 87735" d="M533.255,358.266c0,.1-12.065-2.376-26.91-5.519s-26.855-5.766-26.835-5.868,12.065,2.376,26.91,5.519S533.255,358.17,533.255,358.266Z" transform="translate(-205.106 -193.615)" fill="#455a64"/>
      <path id="패스_87736" data-name="패스 87736" d="M501.34,344.215c-.062,0,0-.315-.274-.6a.648.648,0,0,0-1.1.308.644.644,0,0,0,.267.685.685.685,0,0,0,.609.069c.37-.144.438-.452.493-.431s.034.082,0,.212a.767.767,0,0,1-.377.452.9.9,0,0,1-.89,0,.938.938,0,0,1,.37-1.746.9.9,0,0,1,.822.342.787.787,0,0,1,.164.568C501.4,344.16,501.361,344.221,501.34,344.215Z" transform="translate(-211.441 -192.444)" fill="#455a64"/>
      <path id="패스_87737" data-name="패스 87737" d="M503.79,332.589c-.055,0,0-.315-.267-.6a.647.647,0,0,0-1.1.308.644.644,0,0,0,.267.651.685.685,0,0,0,.609.068c.37-.144.438-.452.486-.431s.041.082,0,.212a.767.767,0,0,1-.377.452.9.9,0,0,1-.89,0,.938.938,0,0,1,.37-1.746.9.9,0,0,1,.822.342.822.822,0,0,1,.164.568C503.859,332.527,503.818,332.6,503.79,332.589Z" transform="translate(-212.213 -188.768)" fill="#455a64"/>
      <path id="패스_87738" data-name="패스 87738" d="M540.294,352.515c-.055,0,0-.315-.267-.6a.685.685,0,0,0-.589-.185.644.644,0,0,0-.507.493.616.616,0,0,0,.267.685.685.685,0,0,0,.609.068c.363-.144.431-.452.486-.431s0,.082,0,.212a.822.822,0,0,1-.377.452.931.931,0,0,1-.9,0,.945.945,0,0,1,.37-1.746.9.9,0,0,1,.822.342.76.76,0,0,1,.164.568C540.362,352.426,540.314,352.515,540.294,352.515Z" transform="translate(-223.724 -195.061)" fill="#455a64"/>
      <path id="패스_87739" data-name="패스 87739" d="M542.754,340.839c-.062,0,0-.315-.274-.6a.685.685,0,0,0-.582-.185.637.637,0,0,0-.507.493.616.616,0,0,0,.267.65.685.685,0,0,0,.609.069c.363-.144.431-.452.486-.431s.034.082,0,.212a.808.808,0,0,1-.383.452.9.9,0,0,1-.89,0,.945.945,0,0,1,.37-1.746.9.9,0,0,1,.822.342.788.788,0,0,1,.164.568C542.822,340.784,542.774,340.846,542.754,340.839Z" transform="translate(-224.499 -191.369)" fill="#455a64"/>
      <path id="패스_87740" data-name="패스 87740" d="M562.774,338.707c0,.1-.205.233-.486.356s-.527.2-.582.116.123-.308.438-.445S562.753,338.618,562.774,338.707Z" transform="translate(-231.016 -191.018)" fill="#455a64"/>
      <path id="패스_87741" data-name="패스 87741" d="M557.816,363.062c-.075.062-.322-.123-.548-.411s-.342-.575-.26-.637.322.13.548.418S557.891,363.008,557.816,363.062Z" transform="translate(-229.53 -198.385)" fill="#455a64"/>
      <rect id="사각형_151470" data-name="사각형 151470" width="10.768" height="131.457" transform="translate(218.916 163.592) rotate(-77.905)" fill="#e0e0e0"/>
      <path id="패스_87742" data-name="패스 87742" d="M446.391,276.787A44.309,44.309,0,0,0,441.3,252.9c-6.491-12.257-14.544-13.448-14.544-13.448s9.655-1.541,16.728,11.641A35,35,0,0,1,446.391,276.787Z" transform="translate(-188.476 -159.732)" fill="#455a64"/>
      <path id="패스_87743" data-name="패스 87743" d="M461.69,233.658c-.123-.349-4.636,25.513-4.636,25.513l-1.794,18.851s4.334-13.318,5.444-20.378S462.806,236.842,461.69,233.658Z" transform="translate(-197.461 -157.922)" fill="#455a64"/>
      <path id="패스_87744" data-name="패스 87744" d="M471.242,236.62s-4.389,1.623-9.525,20.186c-3.93,14.229-5.711,19.618-6.293,21.378a2.738,2.738,0,0,0-.164.774s7.464-12.4,10.346-19.344S468.729,241.845,471.242,236.62Z" transform="translate(-197.461 -158.856)" fill="#455a64"/>
      <path id="패스_87745" data-name="패스 87745" d="M455.358,296.154c-.116.466,2.835-5.855,12.77-12.284,9.244-5.985,12.743-5.56,12.743-5.56s-8.169-.575-14.667,4.013C460.467,286.369,456.564,291.422,455.358,296.154Z" transform="translate(-197.491 -171.992)" fill="#455a64"/>
      <path id="패스_87746" data-name="패스 87746" d="M447.7,306.992a32.171,32.171,0,0,0-1.8-10.182c-1.294-3.211-3.725-6.128-7.012-7.21a34.241,34.241,0,0,1,8.813,17.392" transform="translate(-192.3 -175.559)" fill="#455a64"/>
      <path id="패스_87747" data-name="패스 87747" d="M446.731,285.805s1.171-13.051-7.128-18.947c-4.622-3.287-12.483-3.478-12.483-3.478s9.258,3.2,12.325,6.163S446.731,285.805,446.731,285.805Z" transform="translate(-188.59 -167.293)" fill="#455a64"/>
      <path id="패스_87748" data-name="패스 87748" d="M444.2,322.5a.549.549,0,0,1,0-.158q.041-.192.082-.472c.089-.445.205-1.048.349-1.815.329-1.6.787-3.855,1.369-6.635l4.581-21.877c.226-1.068.452-2.123.685-3.163l.329-1.548c.068-.26.089-.507.185-.781a7.251,7.251,0,0,1,.322-.685c.4-.938.726-1.9,1.123-2.814s.781-1.794,1.15-2.664c.746-1.739,1.493-3.369,2.116-4.937s1.212-3.006,1.753-4.328.959-2.547,1.369-3.615.685-1.979.986-2.739.479-1.308.637-1.726l.158-.452a.617.617,0,0,1,.068-.151.561.561,0,0,1-.034.158l-.123.466c-.116.4-.322.993-.575,1.753s-.568,1.691-.931,2.739-.76,2.314-1.308,3.636-1.1,2.794-1.712,4.355-1.369,3.2-2.054,4.951c-.377.87-.753,1.76-1.144,2.671s-.685,1.862-1.116,2.814c-.1.24-.226.493-.315.685a5.019,5.019,0,0,0-.171.733c-.11.514-.212,1.027-.322,1.547-.219,1.041-.445,2.1-.685,3.164-1.828,8.518-3.478,16.235-4.684,21.85-.609,2.773-1.1,5.026-1.458,6.621-.171.753-.308,1.369-.411,1.794l-.116.466C444.225,322.45,444.2,322.505,444.2,322.5Z" transform="translate(-193.972 -166.839)" fill="#263238"/>
      <path id="패스_87749" data-name="패스 87749" d="M456.086,299.05a10.181,10.181,0,0,1-.685,1.575c-.459.959-1.055,2.294-1.643,3.807s-1.055,2.9-1.369,3.91a10.115,10.115,0,0,1-.589,1.623,7.7,7.7,0,0,1,.349-1.7,37.285,37.285,0,0,1,1.287-3.965,34.018,34.018,0,0,1,1.753-3.793A6.656,6.656,0,0,1,456.086,299.05Z" transform="translate(-196.37 -178.538)" fill="#263238"/>
      <path id="패스_87750" data-name="패스 87750" d="M445.457,350.639c2.314-1.369,3.259-4.307,3.1-6.991s-1.212-5.2-1.986-7.772l-7.121-1.506c-1.753,2.054-3.739,3.917-4.971,6.3s-1.575,5.478,0,7.642Z" transform="translate(-190.575 -189.673)" fill="#698cf5"/>
      <path id="패스_87751" data-name="패스 87751" d="M461.149,249.55a.965.965,0,0,1,0,.336c0,.253-.048.568-.082.938-.089.822-.233,2-.425,3.424-.39,2.91-1.007,6.923-1.773,11.339s-1.548,8.395-2.191,11.264c-.315,1.438-.6,2.588-.815,3.383-.1.363-.185.685-.253.911a1.565,1.565,0,0,1-.11.315.988.988,0,0,1,.041-.329c.048-.253.116-.561.192-.924.178-.863.411-2.013.685-3.424.582-2.876,1.322-6.847,2.054-11.271s1.417-8.415,1.869-11.319c.219-1.369.4-2.568.534-3.424.062-.377.116-.685.158-.938a1.855,1.855,0,0,1,.116-.281Z" transform="translate(-197.536 -162.933)" fill="#263238"/>
      <path id="패스_87752" data-name="패스 87752" d="M452.147,263.6a3.273,3.273,0,0,1,.308.685c.178.445.411,1.1.685,1.917a47.438,47.438,0,0,1,2.232,13.174v2.054a2.789,2.789,0,0,1-.068.74c-.055,0-.068-1.055-.171-2.739a60.34,60.34,0,0,0-2.219-13.113C452.428,264.62,452.093,263.621,452.147,263.6Z" transform="translate(-196.478 -167.362)" fill="#263238"/>
      <path id="패스_87753" data-name="패스 87753" d="M444.93,269.76a2.466,2.466,0,0,1,.616.459A13.7,13.7,0,0,1,447,271.725a25.1,25.1,0,0,1,1.835,2.5,15.8,15.8,0,0,1,1.609,3.458,51.1,51.1,0,0,1,1.76,6.656c.178.863.294,1.568.37,2.054a3.151,3.151,0,0,1,.075.76,3,3,0,0,1-.212-.733c-.13-.555-.288-1.233-.479-2.054-.411-1.7-.979-4.067-1.849-6.594a16.378,16.378,0,0,0-1.554-3.424,27.94,27.94,0,0,0-1.753-2.52,18.482,18.482,0,0,0-1.37-1.568A4.3,4.3,0,0,1,444.93,269.76Z" transform="translate(-194.205 -169.304)" fill="#263238"/>
      <rect id="사각형_151471" data-name="사각형 151471" width="2.677" height="44.734" transform="translate(347.358 88.453) rotate(11.96)" fill="#263238"/>
      <rect id="사각형_151472" data-name="사각형 151472" width="54.129" height="43.953" transform="translate(294.31 77.652) rotate(11.96)" fill="#fff"/>
      <path id="패스_87754" data-name="패스 87754" d="M548.494,291.309,493.53,279.668l9.532-45.008L558.026,246.3Zm-52.526-13.229,50.945,10.792,8.676-40.968-50.945-10.785Z" transform="translate(-209.526 -158.238)" fill="#455a64"/>
      <rect id="사각형_151473" data-name="사각형 151473" width="39.968" height="31.121" transform="translate(299.728 84.829) rotate(11.96)" fill="#e0e0e0"/>
      <path id="패스_87755" data-name="패스 87755" d="M294.05,323.48l9.278,29.731,30.9-27.39,11.641,9.936s-26.226,41.687-38.948,49.534c-14.112,8.71-30.9-2.739-33.025-11.141s-13.3-46.069-13.3-46.069Z" transform="translate(-136.093 -186.24)" fill="#efbe9d"/>
      <path id="패스_87756" data-name="패스 87756" d="M320.224,366.14c.034.062-.815.534-2.006,1.52a17.809,17.809,0,0,0-1.945,1.9,17.263,17.263,0,0,0-3.321,5.711,17.573,17.573,0,0,0-.685,2.629c-.274,1.527-.267,2.5-.336,2.5a2.737,2.737,0,0,1-.048-.685,5.625,5.625,0,0,1,0-.8,6.015,6.015,0,0,1,.1-1.055,16.036,16.036,0,0,1,.63-2.691,16.352,16.352,0,0,1,3.389-5.827,15.837,15.837,0,0,1,2.054-1.876c.3-.253.609-.438.863-.616a7.435,7.435,0,0,1,.685-.418,2.513,2.513,0,0,1,.616-.294Z" transform="translate(-152.256 -199.689)" fill="#e7996e"/>
      <path id="패스_87757" data-name="패스 87757" d="M216.021,333l32.5-8.772s-6.971-20.618-12.394-35.517c-4.793-13.14-12.825-18.611-17-21.583a12.634,12.634,0,0,0-5.7-2.26c-7.69-1.027-28.725-3.793-39.16-4.663-12.907-1.075-39.866,6.033-39.866,6.033s-23.637,13.106-31.608,18.44a11.065,11.065,0,0,0-4.266,5.368c-1.472,3.965-3.348,10.778-5.594,19.59-1.431,5.6-6.163,24.144-6.163,24.144l27.725-.856c5.587,16.968,10.764,32.183,10.764,32.183l-2.246,40.646H225.834s-9.49-62.873-9.49-64.331C216.343,340.892,216.213,337.3,216.021,333Z" transform="translate(-81.291 -166.258)" fill="#698cf5"/>
      <g id="그룹_166922" data-name="그룹 166922" transform="translate(42.113 130.362)" opacity="0.3">
        <path id="패스_87758" data-name="패스 87758" d="M200.911,316.821a10.026,10.026,0,0,0-8.861-3.328,20.038,20.038,0,0,0-9.039,3.725c-8.409,5.7-14.38,14.3-19.652,22.98a277.013,277.013,0,0,0-23.089,47.7l.212,4.245c6.9-.87,11.387-6.683,14.38-12.948s4.28-13.222,6.916-19.645a50.671,50.671,0,0,1,27.287-27.287c4.108.425,8.518-.9,11.2-4.033S203.465,320.06,200.911,316.821Z" transform="translate(-140.27 -313.435)"/>
      </g>
      <path id="패스_87759" data-name="패스 87759" d="M274.354,355.893c-.158,0-1.075-8.991-2.054-20.1s-1.65-20.145-1.5-20.159,1.075,8.984,2.054,20.111S274.5,355.879,274.354,355.893Z" transform="translate(-139.302 -183.765)" fill="#263238"/>
      <path id="패스_87760" data-name="패스 87760" d="M116.48,315.63a6.689,6.689,0,0,1,.411,1.369c.24,1.013.548,2.308.911,3.855.746,3.259,1.739,7.765,2.8,12.757s2,9.511,2.65,12.791c.294,1.561.541,2.869.74,3.889a7.162,7.162,0,0,1,.192,1.445,7.67,7.67,0,0,1-.4-1.37c-.24-1.013-.548-2.308-.911-3.855-.746-3.259-1.739-7.765-2.807-12.757s-1.993-9.511-2.643-12.791c-.294-1.561-.548-2.869-.74-3.9a7.531,7.531,0,0,1-.2-1.438Z" transform="translate(-90.657 -183.765)" fill="#263238"/>
      <path id="패스_87761" data-name="패스 87761" d="M267.6,267.64c.164.041-.774,3.65-1.417,8.217s-.781,8.258-.945,8.217a9.307,9.307,0,0,1-.11-2.445,50.814,50.814,0,0,1,.507-5.889,49.549,49.549,0,0,1,1.178-5.8A9.525,9.525,0,0,1,267.6,267.64Z" transform="translate(-137.508 -168.636)" fill="#263238"/>
      <path id="패스_87762" data-name="패스 87762" d="M180.68,248.5l9.354-18.865-2.9-8.217s14.03-7.286,9.237-22.151c-2.314-7.176-8.285-21.569-13.839-34.531A29.108,29.108,0,0,0,146.5,148.609l-1.424.472c-15.1,6.08-18.372,22.3-11.88,37.222l18.988,55.464Z" transform="translate(-94.929 -130.63)" fill="#efbe9d"/>
      <path id="패스_87763" data-name="패스 87763" d="M203.685,255.56a36.3,36.3,0,0,1-21.145,1.007s8.148,9.121,22.466,2.821Z" transform="translate(-111.483 -164.827)" fill="#e7996e"/>
      <path id="패스_87764" data-name="패스 87764" d="M205.885,193.6a2.239,2.239,0,0,1-1.322,2.821,2.136,2.136,0,0,1-2.821-1.171,2.232,2.232,0,0,1,1.315-2.821,2.136,2.136,0,0,1,2.828,1.171Z" transform="translate(-117.498 -144.87)" fill="#263238"/>
      <path id="패스_87765" data-name="패스 87765" d="M201.647,183.166c-.164.363-2.171-.288-4.444.486s-3.554,2.465-3.9,2.273c-.164-.082-.062-.685.486-1.445a6.163,6.163,0,0,1,3.006-2.164,5.909,5.909,0,0,1,3.65-.041C201.332,182.578,201.736,183,201.647,183.166Z" transform="translate(-114.855 -141.639)" fill="#263238"/>
      <path id="패스_87766" data-name="패스 87766" d="M177.036,202.249a2.225,2.225,0,0,1-1.322,2.814,2.13,2.13,0,0,1-2.821-1.171,2.239,2.239,0,0,1,1.322-2.821,2.136,2.136,0,0,1,2.821,1.178Z" transform="translate(-108.404 -147.596)" fill="#263238"/>
      <path id="패스_87767" data-name="패스 87767" d="M169.526,193.143c-.13.377-2.191-.048-4.369.965s-3.266,2.842-3.622,2.684c-.171-.068-.144-.685.322-1.486a6.163,6.163,0,0,1,2.739-2.479,5.937,5.937,0,0,1,3.629-.438C169.143,192.595,169.595,192.965,169.526,193.143Z" transform="translate(-104.831 -144.877)" fill="#263238"/>
      <path id="패스_87768" data-name="패스 87768" d="M190.067,208.575c-.048-.13,1.28-.849,3.472-1.91.561-.26,1.075-.555,1.041-.986a3.136,3.136,0,0,0-.972-1.6l-3.177-3.814c-4.5-5.478-7.97-10.093-7.744-10.271s4.054,4.108,8.552,9.627c1.1,1.369,2.15,2.657,3.143,3.9a3.532,3.532,0,0,1,1.068,2.177,1.534,1.534,0,0,1-.685,1.171,4.333,4.333,0,0,1-.945.472A16.865,16.865,0,0,1,190.067,208.575Z" transform="translate(-111.526 -144.156)" fill="#263238"/>
      <path id="패스_87769" data-name="패스 87769" d="M164.1,181.671c0,.685-2.39,1.164-4.951,2.383s-4.478,2.67-5.012,2.232c-.253-.212-.068-.918.6-1.808a9.545,9.545,0,0,1,7.594-3.52C163.439,180.987,164.1,181.315,164.1,181.671Z" transform="translate(-102.496 -141.308)" fill="#263238"/>
      <path id="패스_87770" data-name="패스 87770" d="M197.917,174.147c-.226.685-1.972.644-3.862,1.253s-3.369,1.513-3.917,1.1c-.247-.205-.171-.808.363-1.534a5.889,5.889,0,0,1,6.265-1.89C197.615,173.373,198.012,173.832,197.917,174.147Z" transform="translate(-113.836 -138.741)" fill="#263238"/>
      <path id="패스_87771" data-name="패스 87771" d="M137.98,219.74c-.288,0-11.182.411-7.457,10.422s13.01,4.2,12.921,3.91S137.98,219.74,137.98,219.74Z" transform="translate(-94.84 -153.535)" fill="#efbe9d"/>
      <path id="패스_87772" data-name="패스 87772" d="M140.344,233.429c-.055,0-.13.185-.37.431a1.828,1.828,0,0,1-1.294.507c-1.205,0-2.739-1.369-3.424-3.122a6.108,6.108,0,0,1-.445-2.684,2.178,2.178,0,0,1,.815-1.828.952.952,0,0,1,1.205.1c.24.233.253.459.315.452s.151-.247-.082-.63a1.178,1.178,0,0,0-.63-.479,1.369,1.369,0,0,0-1.061.1,2.616,2.616,0,0,0-1.246,2.232,6.382,6.382,0,0,0,.438,3.013c.815,1.993,2.547,3.5,4.15,3.376a1.979,1.979,0,0,0,1.5-.856C140.419,233.676,140.385,233.429,140.344,233.429Z" transform="translate(-96.211 -155.542)" fill="#e7996e"/>
      <path id="패스_87773" data-name="패스 87773" d="M184.408,222.707c.363-.144,1.2,2.321,3.9,3.362s5.238-.11,5.375.226c.082.144-.425.685-1.527,1.082a6.5,6.5,0,0,1-4.444-.048,5.649,5.649,0,0,1-3.109-2.876C184.162,223.454,184.237,222.748,184.408,222.707Z" transform="translate(-112.03 -154.468)" fill="#263238"/>
      <path id="패스_87774" data-name="패스 87774" d="M180.341,135.226a6.163,6.163,0,0,0-4.793-3.369,9.218,9.218,0,0,0-.746-1.616c-1.835-3.109-5.971-4.793-9.326-3.424a7.69,7.69,0,0,0-13.585.685,9.182,9.182,0,0,0-9.771,1.883,2.314,2.314,0,0,0-.685,1.1,1.1,1.1,0,0,0,.164.829,5.772,5.772,0,0,0-5.238-1.1,5.361,5.361,0,0,0-1.684.856,6.491,6.491,0,0,0-3.424,3.513,9.265,9.265,0,0,0-9.087,8.3,8.819,8.819,0,0,0-5.423,8.217,6.437,6.437,0,0,0-1.308,11.072s-6.546,3.992-2.581,9.7c2.054,2.917,6.163.9,6.163.9l12.325,18.618c-.055.13,2.116,2.054,3.163,1.137s1.322-2.417,1.643-3.773a15.1,15.1,0,0,0,.781-4.711c-.13-1.6-1.144-3.266-2.739-3.513a5.617,5.617,0,0,0,1.8-5.252,15.865,15.865,0,0,0-2.157-5.375l-4.108-7.532a10.668,10.668,0,0,0,6.813-8.669,6.11,6.11,0,0,0,7.71-4.889,7.95,7.95,0,0,0,10.737,1.582c.3,2.232,4.718,2.917,6.964,2.773s4.341-2.458,4.341-2.458a12.613,12.613,0,0,0,4.588.1h0l.226-.062c2.951-.685,4.875-4.211,5.416-7.19a5.615,5.615,0,0,0,2.1-.972,6.163,6.163,0,0,0,1.719-7.354Z" transform="translate(-89.112 -123.053)" fill="#263238"/>
      <path id="패스_87775" data-name="패스 87775" d="M179.721,132.87a2.006,2.006,0,0,1,.4.329,4.944,4.944,0,0,1,.9,1.191,6.163,6.163,0,0,1,.726,2.246,6.334,6.334,0,0,1-.4,3.1,5.423,5.423,0,0,1-2.568,2.739,6.491,6.491,0,0,1-4.307.534,5.621,5.621,0,0,1-2.171-.993,3.636,3.636,0,0,1-.883-.89,2.383,2.383,0,0,1-.452-1.233,1.643,1.643,0,0,1,.52-1.253,2.458,2.458,0,0,1,1.226-.582,3.1,3.1,0,0,1,1.369.041,3.834,3.834,0,0,1,1.26.52,4.957,4.957,0,0,1,2.273,4.519,6.163,6.163,0,0,1-2.3,4.184,7.881,7.881,0,0,1-4.013,1.684,11.64,11.64,0,0,1-3.787-.164,22.041,22.041,0,0,1-5.136-1.856c-.582-.281-1.02-.514-1.322-.685a4.288,4.288,0,0,1-.452-.253,2.431,2.431,0,0,1,.479.192l1.369.609a23.809,23.809,0,0,0,5.122,1.732,11.559,11.559,0,0,0,3.7.116,7.532,7.532,0,0,0,3.841-1.643,5.889,5.889,0,0,0,2.171-3.958,4.622,4.622,0,0,0-2.123-4.191,3.348,3.348,0,0,0-1.144-.472,2.793,2.793,0,0,0-1.212-.041,2.054,2.054,0,0,0-1.041.493,1.267,1.267,0,0,0-.418.986,2.657,2.657,0,0,0,1.191,1.856,5.279,5.279,0,0,0,2.054.945,6.163,6.163,0,0,0,4.108-.479,5.17,5.17,0,0,0,2.465-2.6,6.224,6.224,0,0,0-.219-5.19,6.354,6.354,0,0,0-1.232-1.534Z" transform="translate(-104.57 -126.148)" fill="#455a64"/>
      <path id="패스_87776" data-name="패스 87776" d="M87.609,354.673s-6.491,23.5-7.922,29.238-1.445,19.07,1.808,23.014,13.989,6.457,13.989,6.457,21.069-10.271,28.246-22.843,26.787-46.7,26.787-46.7l-6.211-17.05-32.669,31.19.342-4.06Z" transform="translate(-78.768 -187.283)" fill="#efbe9d"/>
      <path id="패스_87777" data-name="패스 87777" d="M190.742,248.144h0a2.287,2.287,0,0,1,3.088,1.013l18.8,37.442-4.793,2.143-18.125-37.558a2.294,2.294,0,0,1,1.027-3.04Z" transform="translate(-113.674 -162.41)" fill="#455a64"/>
      <path id="패스_87778" data-name="패스 87778" d="M173,320.015l17.577-18.125h16.845l10.771,14.243s-5.115.952-6.943-1.794l-2.383-3.389s2.383,5.218,1.1,7.785c0,0-2.527,5.95-2.931,6.587-.767,1.2-1.369,1.965-3.547,1.6s-5.608-2.15-5.245-3.424a2.123,2.123,0,0,1,1.65-1.465l-5.129-.733s-5.163,9.354-8.272,11.552A24.322,24.322,0,0,1,180.238,336Z" transform="translate(-108.476 -179.433)" fill="#efbe9d"/>
      <path id="패스_87779" data-name="패스 87779" d="M118,371.54c.041.089-1.417.767-3.657,2.054a51.631,51.631,0,0,0-8.155,5.923,52.171,52.171,0,0,0-6.847,7.436c-1.554,2.054-2.39,3.424-2.472,3.424a4.622,4.622,0,0,1,.5-1.013,29.041,29.041,0,0,1,1.657-2.609,43.94,43.94,0,0,1,15.064-13.476c1.15-.609,2.109-1.068,2.78-1.369A4.587,4.587,0,0,1,118,371.54Z" transform="translate(-84.475 -201.391)" fill="#e7996e"/>
      <path id="패스_87780" data-name="패스 87780" d="M204.26,309.079a11.155,11.155,0,0,1,2.472-.418c1.527-.192,3.65-.411,5.991-.616a7.377,7.377,0,0,1,1.78,0,3.753,3.753,0,0,1,1.575.637,5.608,5.608,0,0,1,1.787,2.15,7.108,7.108,0,0,1,.787,2.4c-.089.034-.411-.883-1.137-2.212a5.581,5.581,0,0,0-1.719-1.91,3.349,3.349,0,0,0-1.369-.52,7.437,7.437,0,0,0-1.65,0c-2.342.205-4.465.363-6.005.452a11.234,11.234,0,0,1-2.513.041Z" transform="translate(-118.331 -181.357)" fill="#e7996e"/>
      <path id="패스_87781" data-name="패스 87781" d="M217.656,328.992c-.1,0,.068-1.28-.041-3.321a22.268,22.268,0,0,0-.486-3.54c-.288-1.28-.685-2.814-1.986-3.561a7.533,7.533,0,0,0-2.054-.733l-2.054-.472a25.055,25.055,0,0,0-3.554-.548,29.359,29.359,0,0,0-3.3.082,2.4,2.4,0,0,1,.863-.274,11,11,0,0,1,2.458-.2,21.86,21.86,0,0,1,3.622.431c.685.13,1.369.281,2.1.445a7.532,7.532,0,0,1,2.232.787,3.93,3.93,0,0,1,1.575,1.828,9.7,9.7,0,0,1,.623,2.1,19.556,19.556,0,0,1,.377,3.629,16.806,16.806,0,0,1-.151,2.451,2.691,2.691,0,0,1-.219.89Z" transform="translate(-118.306 -184.015)" fill="#e7996e"/>
      <path id="패스_87782" data-name="패스 87782" d="M213.308,325.89a11.309,11.309,0,0,1,.267,3.376v.329l-.342-.062a2.942,2.942,0,0,0-.561-.055,3.424,3.424,0,0,0-2.328,1.027c-.472.493-.623.924-.685.9s-.041-.514.411-1.15a3.369,3.369,0,0,1,2.629-1.328,3.221,3.221,0,0,1,.685.075l-.336.267C213.02,327.335,213.137,325.89,213.308,325.89Z" transform="translate(-120.025 -187)" fill="#e7996e"/>
      <path id="패스_87783" data-name="패스 87783" d="M211.847,326.369a19.957,19.957,0,0,1-3.424-.164,19.231,19.231,0,0,1-3.424-.2,7.331,7.331,0,0,1,3.424-.356A8.037,8.037,0,0,1,211.847,326.369Z" transform="translate(-118.564 -186.917)" fill="#e7996e"/>
      <path id="패스_87784" data-name="패스 87784" d="M204.141,325.43a7.418,7.418,0,0,1-.76,3.526,6.856,6.856,0,0,1-1.986,3.013c-.116-.089.726-1.438,1.472-3.232A31.481,31.481,0,0,1,204.141,325.43Z" transform="translate(-117.424 -186.854)" fill="#e7996e"/>
      <path id="패스_87785" data-name="패스 87785" d="M366.55,319.7s11.586-15.064,12.853-15.749,17.4-3.013,17.4-3.013-.685,5.094-5.348,6.594c-3.3,1.061-7.169,1.89-7.169,1.89s1.287,9.874-1.089,13.832a61.448,61.448,0,0,1-6.642,8.5Z" transform="translate(-169.494 -179.134)" fill="#efbe9d"/>
      <path id="패스_87786" data-name="패스 87786" d="M387.68,325.581a13.987,13.987,0,0,0,2.417-4.108,18.485,18.485,0,0,0,.945-5.115,28.956,28.956,0,0,0,0-3.088,12.552,12.552,0,0,0-.233-1.6,4.308,4.308,0,0,1-.055-1.76,1.26,1.26,0,0,1,.685-.685,4.724,4.724,0,0,1,.815-.308,15.757,15.757,0,0,1,1.623-.363,22.592,22.592,0,0,0,3-.685,9.874,9.874,0,0,0,4.423-2.588,8.471,8.471,0,0,0,1.753-3c.274-.787.363-1.246.4-1.239a1.034,1.034,0,0,1-.041.336,7.062,7.062,0,0,1-.226.945,8.114,8.114,0,0,1-1.7,3.129,9.935,9.935,0,0,1-4.512,2.739,22.077,22.077,0,0,1-3.033.74,16,16,0,0,0-1.582.363,4.046,4.046,0,0,0-.76.288.938.938,0,0,0-.513.466,4.191,4.191,0,0,0,.068,1.589,12.127,12.127,0,0,1,.233,1.65,27.754,27.754,0,0,1,0,3.122,17.838,17.838,0,0,1-1.041,5.183,11.348,11.348,0,0,1-1.76,3.047,7.015,7.015,0,0,1-.651.719,1.45,1.45,0,0,1-.253.226Z" transform="translate(-176.156 -179.165)" fill="#e7996e"/>
    </g>
    <g id="freepik--Device--inject-10" transform="translate(145.014 271.587)">
      <path id="패스_87787" data-name="패스 87787" d="M256.8,444.888h78.321a3.821,3.821,0,0,0,3.759-3.143l9.7-53.54a3.821,3.821,0,0,0-3.759-4.506H266.5a3.828,3.828,0,0,0-3.766,3.143l-9.7,53.54a3.821,3.821,0,0,0,3.759,4.506Z" transform="translate(-210.478 -383.7)" fill="#263238"/>
      <path id="패스_87788" data-name="패스 87788" d="M0,0H50.3V.52a4.6,4.6,0,0,1-4.595,4.595H0Z" transform="translate(50.301 61.182) rotate(180)" fill="#263238"/>
      <path id="패스_87789" data-name="패스 87789" d="M268.33,383.7c-.075,0-2.855,13.695-6.211,30.56s-6.019,30.587-5.95,30.587,2.855-13.661,6.217-30.56S268.378,383.714,268.33,383.7Z" transform="translate(-211.483 -383.7)" fill="#455a64"/>
      <path id="패스_87790" data-name="패스 87790" d="M326.6,428.7a2.739,2.739,0,0,1,2.335-2.006H328.7A2.684,2.684,0,1,1,326.6,428.7Z" transform="translate(-233.662 -397.241)" fill="#455a64"/>
    </g>
  </g>
</svg>
