<svg xmlns="http://www.w3.org/2000/svg" width="483" height="268" viewBox="0 0 483 268">
  <g id="그룹_166338" data-name="그룹 166338" transform="translate(-320 -365)">
    <rect id="사각형_150561" data-name="사각형 150561" width="483" height="268" rx="8" transform="translate(320 365)" fill="#f2f2f2"/>
    <g id="camera" transform="translate(491.835 449.576)">
      <g id="그룹_164607" data-name="그룹 164607">
        <path id="패스_86084" data-name="패스 86084" d="M136.644,87.849H100.369l-4.154-9.505a4.315,4.315,0,0,0-3.953-2.588H48.7a4.314,4.314,0,0,0-3.953,2.588L40.59,87.849h-7.9V80.074a4.317,4.317,0,0,0-4.315-4.319H16.345a4.317,4.317,0,0,0-4.315,4.319v7.775H4.315A4.317,4.317,0,0,0,0,92.168v78.61A4.317,4.317,0,0,0,4.315,175.1H136.643a4.317,4.317,0,0,0,4.315-4.319V92.168A4.317,4.317,0,0,0,136.644,87.849ZM70.479,159.98a28.507,28.507,0,1,1,28.375-28.507A28.473,28.473,0,0,1,70.479,159.98ZM118.6,116.356a6.047,6.047,0,1,1,6.015-6.047A6.031,6.031,0,0,1,118.6,116.356Z" transform="translate(0 -75.755)" fill="#94989b"/>
      </g>
    </g>
  </g>
</svg>
