<svg xmlns="http://www.w3.org/2000/svg" width="297.001" height="56" viewBox="0 0 297.001 56">
  <g id="그룹_164406" data-name="그룹 164406" transform="translate(-259.999 -38)">
    <rect id="사각형_2" data-name="사각형 2" width="297" height="56" transform="translate(260 38)" fill="none"/>
    <rect id="사각형_1" data-name="사각형 1" width="25.648" height="49.594" transform="translate(281.373 41.157)" fill="#0a18c9"/>
    <path id="패스_1" data-name="패스 1" d="M194.557,434.456H163.6V410.724L179.08,399.08l15.477,11.645Z" transform="translate(96.396 -343.706)" fill="#27cf54"/>
    <path id="패스_2" data-name="패스 2" d="M133.18,414.226v30.65h-11.7V395.543h11.5L150.333,425.2V395.543h11.7v49.333h-10.9Z" transform="translate(194.067 -354.126)"/>
    <path id="패스_3" data-name="패스 3" d="M152.967,447.052a26.15,26.15,0,0,1-9.973-1.8,19.864,19.864,0,0,1-7.38-5.12,21.66,21.66,0,0,1-4.621-8.145,38.02,38.02,0,0,1,0-21.575,21.69,21.69,0,0,1,4.621-8.112,20.2,20.2,0,0,1,7.38-5.153,25.728,25.728,0,0,1,9.973-1.828,26.017,26.017,0,0,1,10.006,1.828,20.868,20.868,0,0,1,7.48,5.153,22.671,22.671,0,0,1,4.687,8.112,36.654,36.654,0,0,1,0,21.575,22.631,22.631,0,0,1-4.687,8.145,20.517,20.517,0,0,1-7.48,5.12A26.444,26.444,0,0,1,152.967,447.052Zm.127-11.3a10.457,10.457,0,0,0,8.444-3.923q3.266-3.923,3.263-10.638a17.985,17.985,0,0,0-.9-5.784,16.112,16.112,0,0,0-2.427-4.654,11.1,11.1,0,0,0-3.69-3.025,10.7,10.7,0,0,0-9.441,0,10.989,10.989,0,0,0-3.69,3.025,15.286,15.286,0,0,0-2.4,4.654,18.621,18.621,0,0,0-.859,5.784q0,6.715,3.225,10.638A10.428,10.428,0,0,0,153.095,435.749Z" transform="translate(230.177 -355.116)"/>
    <path id="패스_4" data-name="패스 4" d="M150.408,414.228v30.651h-11.7V395.545h11.5L167.561,425.2V395.545h11.7v49.333h-10.9Z" transform="translate(272.291 -354.117)"/>
    <path id="패스_5" data-name="패스 5" d="M175.2,434.45a6.073,6.073,0,0,0,2.061-2.793,10.176,10.176,0,0,0,.8-3.923H167.882V417.562h22.539v4.854q-.133,2.261-.266,4.322a37.847,37.847,0,0,1-.465,3.989,19.012,19.012,0,0,1-.9,3.723,17.91,17.91,0,0,1-1.762,3.59,16.562,16.562,0,0,1-5.784,6.05,21.5,21.5,0,0,1-6.848,2.66,24.225,24.225,0,0,1-4.189.465,26.9,26.9,0,0,1-8.976-1.164,16.423,16.423,0,0,1-3.79-1.629,21.141,21.141,0,0,1-8.145-9.109,32.97,32.97,0,0,1-2.693-14.1,30.025,30.025,0,0,1,2.992-14,23.143,23.143,0,0,1,8.444-9.142,15.357,15.357,0,0,1,3.657-1.629,24.592,24.592,0,0,1,4.255-.9,32.352,32.352,0,0,1,4.388-.233,21.979,21.979,0,0,1,4.122.432,20.025,20.025,0,0,1,6.35,2.593A32.279,32.279,0,0,1,187.429,404l-7.181,7.447a15.843,15.843,0,0,0-6.782-4.654,10.96,10.96,0,0,0-6.848.066,11.1,11.1,0,0,0-6.316,5.053,18.311,18.311,0,0,0-2.128,9.308,19.46,19.46,0,0,0,2.194,9.674,9.583,9.583,0,0,0,5.784,4.887,11.621,11.621,0,0,0,4.554.333A9.11,9.11,0,0,0,175.2,434.45Z" transform="translate(308.164 -355.146)"/>
    <path id="패스_6" data-name="패스 6" d="M196.006,420.214q-.066,11.436-5.951,18.051T171.8,444.881H154.983V395.547H171.8q12.367.066,18.251,6.682T196.006,420.214Zm-11.17,0q0-6.383-2.56-10.272a8.644,8.644,0,0,0-7.746-3.89h-7.912v28.323h7.912q5.186,0,7.746-3.79T184.836,420.214Z" transform="translate(346.2 -354.108)"/>
    <path id="패스_7" data-name="패스 7" d="M162.805,395.549H174.64v49.333H162.805Z" transform="translate(381.714 -354.099)"/>
  </g>
</svg>
