<svg xmlns="http://www.w3.org/2000/svg" width="89.998" height="90" viewBox="0 0 89.998 90">
  <g id="그룹_274" data-name="그룹 274" transform="translate(-1124 -1527)">
    <g id="그룹_273" data-name="그룹 273" transform="translate(1124 1527)">
      <path id="패스_2138" data-name="패스 2138" d="M1218.417,1553.962s-.693-4.023-3.3-3.321c5.283,23.958-8.172,44.64-13.824,52.02l5.4,1.593c6.345-9.081,16.956-28.377,11.727-50.274Z" transform="translate(-1130.829 -1525.774)" fill="#d3e0f1"/>
      <path id="패스_2139" data-name="패스 2139" d="M1171.829,1578.423a24.738,24.738,0,1,0-24.489-24.732A24.614,24.614,0,0,0,1171.829,1578.423Z" transform="translate(-1126.334 -1523.595)" fill="#dce8ff"/>
      <path id="패스_2140" data-name="패스 2140" d="M1188.376,1535.55a24.764,24.764,0,0,1-18.612,40.779,24.253,24.253,0,0,1-15.894-5.931,24.349,24.349,0,0,0,18.612,8.685,24.773,24.773,0,0,0,15.894-43.533Z" transform="translate(-1126.987 -1524.255)" fill="#dce8ff"/>
      <path id="패스_2141" data-name="패스 2141" d="M1172.585,1572.311a17.861,17.861,0,1,0-17.685-17.856A17.771,17.771,0,0,0,1172.585,1572.311Z" transform="translate(-1127.09 -1524.359)" fill="#dce8ff"/>
      <path id="패스_2142" data-name="패스 2142" d="M1183.241,1540.3a17.874,17.874,0,0,1-14.364,28.251,17.43,17.43,0,0,1-10.287-3.357,17.6,17.6,0,0,0,14.364,7.479,17.886,17.886,0,0,0,10.287-32.373Z" transform="translate(-1127.459 -1524.735)" fill="#dce8ff"/>
      <path id="패스_2143" data-name="패스 2143" d="M1213.886,1553.8a4.949,4.949,0,0,1,2.232,4.41l-1.053,19.665-8.955-1.332.711-6.516c1.566-7.434.828-12.6,1.917-15.156,1.008-2.349,3.429-2.385,5.13-1.071Z" transform="translate(-1131.311 -1526.001)" fill="#dce8ff"/>
      <path id="패스_2144" data-name="패스 2144" d="M1214.283,1553.8a3.515,3.515,0,0,0-3.654-.567,4.94,4.94,0,0,1,1.215,3.717l-1.764,19.6,5.4,1.323,1.044-19.665a4.949,4.949,0,0,0-2.232-4.41Z" transform="translate(-1132.608 -1526.002)" fill="#dce8ff"/>
      <path id="패스_2145" data-name="패스 2145" d="M1132.021,1553.8a4.911,4.911,0,0,0-2.232,4.41l1.044,19.665,8.955-1.332-.711-6.516c-1.557-7.434-.828-12.6-1.917-15.156-1.008-2.349-3.429-2.385-5.13-1.071Z" transform="translate(-1124.578 -1526.001)" fill="#dce8ff"/>
      <path id="패스_2146" data-name="패스 2146" d="M1134.791,1555.984c1.089,2.547.351,7.713,1.917,15.156l.612,5.652,2.646-.4-.711-6.516c-1.566-7.434-.828-12.6-1.917-15.156-1.008-2.349-3.429-2.394-5.13-1.071a4.322,4.322,0,0,0-.558.423A2.909,2.909,0,0,1,1134.791,1555.984Z" transform="translate(-1124.765 -1525.985)" fill="#dce8ff"/>
      <path id="패스_2147" data-name="패스 2147" d="M1208.528,1537.271h-1.881a1.031,1.031,0,0,1,0-2.061h1.881a1.031,1.031,0,0,1,0,2.061Z" transform="translate(-1132.163 -1524.221)" fill="#222"/>
      <path id="패스_2148" data-name="패스 2148" d="M1215.508,1537.271h-1.872a1.031,1.031,0,0,1,0-2.061h1.872a1.031,1.031,0,0,1,0,2.061Z" transform="translate(-1132.861 -1524.221)" fill="#222"/>
      <path id="패스_2149" data-name="패스 2149" d="M1211.187,1541.641a1.03,1.03,0,0,1-1.017-1.026v-1.9a1.017,1.017,0,1,1,2.034,0v1.9A1.029,1.029,0,0,1,1211.187,1541.641Z" transform="translate(-1132.617 -1524.469)" fill="#222"/>
      <path id="패스_2150" data-name="패스 2150" d="M1211.187,1534.59a1.03,1.03,0,0,1-1.017-1.026v-1.9a1.017,1.017,0,1,1,2.034,0v1.9A1.03,1.03,0,0,1,1211.187,1534.59Z" transform="translate(-1132.617 -1523.763)" fill="#222"/>
      <path id="패스_2151" data-name="패스 2151" d="M1140.518,1529.641h-1.881a1.031,1.031,0,0,1,0-2.061h1.881a1.031,1.031,0,0,1,0,2.061Z" transform="translate(-1125.362 -1523.458)" fill="#222"/>
      <path id="패스_2152" data-name="패스 2152" d="M1147.488,1529.641h-1.881a1.031,1.031,0,0,1,0-2.061h1.881a1.031,1.031,0,0,1,0,2.061Z" transform="translate(-1126.059 -1523.458)" fill="#222"/>
      <path id="패스_2153" data-name="패스 2153" d="M1143.157,1534.01a1.029,1.029,0,0,1-1.017-1.026v-1.9a1.022,1.022,0,1,1,2.043,0v1.9A1.037,1.037,0,0,1,1143.157,1534.01Z" transform="translate(-1125.814 -1523.705)" fill="#222"/>
      <path id="패스_2154" data-name="패스 2154" d="M1143.157,1526.96a1.031,1.031,0,0,1-1.017-1.035v-1.89a1.022,1.022,0,1,1,2.043,0v1.89A1.039,1.039,0,0,1,1143.157,1526.96Z" transform="translate(-1125.814 -1523)" fill="#222"/>
      <path id="패스_2155" data-name="패스 2155" d="M1126.9,1540.331h-1.881a1.031,1.031,0,0,1,0-2.061h1.881a1.031,1.031,0,0,1,0,2.061Z" transform="translate(-1124 -1524.527)" fill="#222"/>
      <path id="패스_2156" data-name="패스 2156" d="M1133.878,1540.331h-1.872a1.031,1.031,0,0,1,0-2.061h1.872a1.031,1.031,0,0,1,0,2.061Z" transform="translate(-1124.698 -1524.527)" fill="#222"/>
      <path id="패스_2157" data-name="패스 2157" d="M1129.557,1544.7a1.031,1.031,0,0,1-1.017-1.035v-1.89a1.017,1.017,0,1,1,2.034,0v1.89A1.031,1.031,0,0,1,1129.557,1544.7Z" transform="translate(-1124.454 -1524.777)" fill="#222"/>
      <path id="패스_2158" data-name="패스 2158" d="M1129.557,1537.641a1.03,1.03,0,0,1-1.017-1.026v-1.9a1.017,1.017,0,1,1,2.034,0v1.9A1.03,1.03,0,0,1,1129.557,1537.641Z" transform="translate(-1124.454 -1524.069)" fill="#222"/>
      <path id="패스_2159" data-name="패스 2159" d="M1214.951,1578.782h-.144l-8.955-1.332a1.029,1.029,0,0,1-.873-1.125l.711-6.516a62.8,62.8,0,0,0,1.152-9.711,17.983,17.983,0,0,1,.846-5.733,3.984,3.984,0,0,1,2.664-2.43,4.67,4.67,0,0,1,3.987.918,5.979,5.979,0,0,1,2.664,5.319l-1.044,19.665a1.05,1.05,0,0,1-.369.738.965.965,0,0,1-.639.234Zm-7.821-3.231,6.867,1.017,1-18.522a3.932,3.932,0,0,0-1.773-3.492c-.027-.009-.036-.027-.063-.054a2.724,2.724,0,0,0-2.259-.585,1.931,1.931,0,0,0-1.305,1.26,17.777,17.777,0,0,0-.684,5.031,62.08,62.08,0,0,1-1.188,9.918l-.585,5.427Z" transform="translate(-1131.197 -1525.888)" fill="#222"/>
      <path id="패스_2160" data-name="패스 2160" d="M1212.72,1550.873c-2.385,1.179.063,8.532-3.375,23.22.117-2.088-.585-3.159-1.539-3.681-4.311-2.313-5.823,1.674-5.823,1.674-8.586,20.079-6.57,2.772-18.693,29.871l17.334,7.8s23.265-25.371,16.011-55.8c0,0-.792-4.644-3.906-3.1Z" transform="translate(-1129.029 -1525.772)" fill="#dce8ff"/>
      <path id="패스_2161" data-name="패스 2161" d="M1130.721,1578.779a1,1,0,0,1-.639-.234,1.052,1.052,0,0,1-.369-.747l-1.044-19.656a6.039,6.039,0,0,1,2.664-5.319,4.683,4.683,0,0,1,3.987-.918,4.044,4.044,0,0,1,2.673,2.43,18.706,18.706,0,0,1,.837,5.724,61.18,61.18,0,0,0,1.143,9.621l.738,6.615a1.023,1.023,0,0,1-.873,1.125l-8.955,1.332h-.144Zm3.564-24.939a2.977,2.977,0,0,0-1.755.657.338.338,0,0,0-.063.054,3.932,3.932,0,0,0-1.773,3.492l.981,18.522,6.876-1.017-.6-5.526a63.681,63.681,0,0,1-1.17-9.819,17.456,17.456,0,0,0-.684-5.031,1.983,1.983,0,0,0-1.305-1.269A2.271,2.271,0,0,0,1134.285,1553.84Z" transform="translate(-1124.466 -1525.885)" fill="#222"/>
      <path id="패스_2162" data-name="패스 2162" d="M1130.44,1550.873c2.376,1.179-.072,8.532,3.375,23.22-.126-2.088.585-3.159,1.539-3.681,4.311-2.313,5.823,1.674,5.823,1.674,8.586,20.079,6.57,2.772,18.693,29.871l-17.334,7.8s-23.256-25.371-16-55.8c0,0,.792-4.644,3.906-3.1Z" transform="translate(-1124.113 -1525.772)" fill="#dce8ff"/>
      <path id="패스_2163" data-name="패스 2163" d="M1200.49,1610.679a.911.911,0,0,1-.423-.1l-17.334-7.8a1.06,1.06,0,0,1-.54-.576,1.073,1.073,0,0,1,.027-.8c6.588-14.742,9.153-16.623,11.43-18.3,1.809-1.332,3.375-2.475,7.254-11.556a5.121,5.121,0,0,1,2.727-2.754,5.368,5.368,0,0,1,4.509.567,4.24,4.24,0,0,1,.855.63,83.306,83.306,0,0,0,1.305-13.446c.108-3.807.18-5.913,1.836-6.741a3.2,3.2,0,0,1,2.97-.108c1.836.954,2.349,3.654,2.394,3.96,7.29,30.528-16.029,56.421-16.263,56.682a1.016,1.016,0,0,1-.747.324Zm-15.984-9.36,15.714,7.074c3.249-3.834,21.753-27.2,15.291-54.3-.126-.72-.594-2.16-1.332-2.547-.108-.054-.432-.216-1.134.126-.558.279-.621,2.547-.693,4.95a81.65,81.65,0,0,1-2.133,17.586,1.025,1.025,0,0,1-1.143.783,1.049,1.049,0,0,1-.873-1.089c.126-2.1-.72-2.556-1.008-2.7a3.483,3.483,0,0,0-2.844-.459,3.122,3.122,0,0,0-1.557,1.593c-4.122,9.648-5.895,10.944-7.947,12.456C1192.831,1586.271,1190.545,1587.954,1184.506,1601.319Z" transform="translate(-1128.913 -1525.656)" fill="#222"/>
      <path id="패스_2164" data-name="패스 2164" d="M1204.956,1592.622a1.032,1.032,0,0,1-.873-1.566c5.013-8.28,6.183-12.582,6.291-14.715a.989.989,0,0,1,1.062-.972,1.018,1.018,0,0,1,.963,1.071c-.162,3.456-2.385,8.748-6.588,15.687a1.022,1.022,0,0,1-.864.495Z" transform="translate(-1131.093 -1528.248)" fill="#222"/>
      <path id="패스_2165" data-name="패스 2165" d="M1201.554,1609.23l-1.485,6.543a1.353,1.353,0,0,1-1.314,1.071h-17.991l-.5,3.744h24.129l2.232-9.873Z" transform="translate(-1128.726 -1531.641)" fill="#d3e0f1"/>
      <path id="패스_2166" data-name="패스 2166" d="M1182.537,1603.02l-2.277,16.947h24.129l2.232-9.873Z" transform="translate(-1128.726 -1531.02)" fill="#dce8ff"/>
      <path id="패스_2167" data-name="패스 2167" d="M1204.277,1620.887h-24.129a.955.955,0,0,1-.756-.36,1.019,1.019,0,0,1-.243-.81l2.268-16.956a1.086,1.086,0,0,1,.45-.729,1,1,0,0,1,.846-.117l24.075,7.083a1.031,1.031,0,0,1,.711,1.224l-2.232,9.882a1.019,1.019,0,0,1-.99.8Zm-22.959-2.061h22.14l1.836-8.118-22.014-6.489Z" transform="translate(-1128.614 -1530.905)" fill="#222"/>
      <path id="패스_2168" data-name="패스 2168" d="M1142.254,1574.214s-1.512-3.987-5.823-1.674a2.4,2.4,0,0,0-.621.468c2.529-.153,3.249,2.556,3.249,2.556,8.586,20.07,6.57,2.772,18.693,29.871l-14.193,6.39.054.063,17.334-7.8C1148.824,1576.986,1150.84,1594.293,1142.254,1574.214Z" transform="translate(-1125.181 -1527.9)" fill="#dce8ff"/>
      <path id="패스_2169" data-name="패스 2169" d="M1130.663,1550.875c-1.728-.864-2.745.189-3.3,1.3.036.009.063.027.108.036,2.376,1.188-.693,22.5,8.307,27.936-1.062-3.4-2.4-9.243-2.43-9.441-2.367-12.447-.495-18.765-2.673-19.854Z" transform="translate(-1124.336 -1525.763)" fill="#dce8ff"/>
      <path id="패스_2170" data-name="패스 2170" d="M1142.434,1610.682a.979.979,0,0,1-.747-.333c-.234-.261-23.553-26.136-16.245-56.736.045-.234.549-2.934,2.385-3.888a3.127,3.127,0,0,1,2.961.117c1.665.819,1.728,2.925,1.836,6.732a82.494,82.494,0,0,0,1.314,13.446,3.6,3.6,0,0,1,.855-.63,5.354,5.354,0,0,1,4.5-.567,5.2,5.2,0,0,1,2.745,2.781c3.87,9.036,5.436,10.2,7.245,11.529,2.268,1.665,4.842,3.555,11.43,18.3a1.118,1.118,0,0,1,.027.8.989.989,0,0,1-.549.576l-17.334,7.8a1.121,1.121,0,0,1-.423.1Zm-13.3-59.211a.773.773,0,0,0-.4.1c-.738.387-1.206,1.827-1.323,2.475-6.462,27.162,12.033,50.517,15.3,54.351l15.714-7.074c-6.057-13.383-8.334-15.057-10.341-16.524-2.061-1.512-3.825-2.817-7.938-12.411a3.052,3.052,0,0,0-1.593-1.638,3.441,3.441,0,0,0-2.808.459c-.279.144-1.116.6-1.008,2.7a1.049,1.049,0,0,1-.873,1.089,1.025,1.025,0,0,1-1.143-.783,81.068,81.068,0,0,1-2.133-17.586c-.072-2.4-.135-4.662-.693-4.95a1.614,1.614,0,0,0-.738-.207Z" transform="translate(-1124.003 -1525.659)" fill="#222"/>
      <path id="패스_2171" data-name="패스 2171" d="M1161.554,1603.02l2.268,16.947H1139.7l-2.232-9.873Z" transform="translate(-1125.347 -1531.02)" fill="#dce8ff"/>
      <path id="패스_2172" data-name="패스 2172" d="M1163.975,1619.967l-2.268-16.947-4.068,1.188,1.4,10.449a1.353,1.353,0,0,1-1.332,1.539H1139l.855,3.771Z" transform="translate(-1125.5 -1531.02)" fill="#dce8ff"/>
      <path id="패스_2173" data-name="패스 2173" d="M1141.112,1592.62a1.023,1.023,0,0,1-.864-.495c-4.212-6.948-6.426-12.231-6.588-15.687a1.034,1.034,0,0,1,.963-1.089,1,1,0,0,1,1.062.981c.1,2.142,1.278,6.426,6.291,14.715a1.034,1.034,0,0,1-.342,1.413,1.06,1.06,0,0,1-.531.153Z" transform="translate(-1124.966 -1528.246)" fill="#222"/>
      <path id="패스_2174" data-name="패스 2174" d="M1163.709,1620.885h-24.12a1.037,1.037,0,0,1-1-.8l-2.223-9.873a1.028,1.028,0,0,1,.7-1.224l24.084-7.092a1.006,1.006,0,0,1,.846.126.981.981,0,0,1,.441.729l2.277,16.956a1.064,1.064,0,0,1-.243.81,1.039,1.039,0,0,1-.765.351Zm-23.3-2.061h22.131l-1.962-14.607-22.014,6.489Z" transform="translate(-1125.234 -1530.903)" fill="#222"/>
      <path id="패스_2175" data-name="패스 2175" d="M1201.093,1614.723a1.372,1.372,0,0,1,.882,1.728,1.355,1.355,0,0,1-1.71.891,1.384,1.384,0,0,1-.882-1.728A1.355,1.355,0,0,1,1201.093,1614.723Z" transform="translate(-1130.632 -1532.184)" fill="#222"/>
      <path id="패스_2176" data-name="패스 2176" d="M1159.225,1614.723a1.372,1.372,0,0,0-.882,1.728,1.355,1.355,0,0,0,1.71.891,1.383,1.383,0,0,0,.882-1.728A1.355,1.355,0,0,0,1159.225,1614.723Z" transform="translate(-1127.428 -1532.184)" fill="#222"/>
      <path id="패스_2177" data-name="패스 2177" d="M1171.716,1579.335a25.764,25.764,0,1,1,25.506-25.758A25.661,25.661,0,0,1,1171.716,1579.335Zm0-49.464a23.7,23.7,0,1,0,23.472,23.706A23.619,23.619,0,0,0,1171.716,1529.871Z" transform="translate(-1126.221 -1523.481)" fill="#222"/>
      <path id="패스_2178" data-name="패스 2178" d="M1172.472,1573.231a18.9,18.9,0,1,1,18.711-18.891A18.82,18.82,0,0,1,1172.472,1573.231Zm0-35.73a16.835,16.835,0,1,0,16.668,16.839A16.784,16.784,0,0,0,1172.472,1537.5Z" transform="translate(-1126.977 -1524.244)" fill="#222"/>
      <path id="패스_2179" data-name="패스 2179" d="M1166.607,1556.046a1.031,1.031,0,0,1-1.017,1.035H1163.1a1.031,1.031,0,0,1,0-2.061h2.493A1.024,1.024,0,0,1,1166.607,1556.046Z" transform="translate(-1127.808 -1526.208)" fill="#222"/>
      <path id="패스_2180" data-name="패스 2180" d="M1186.506,1556.046a1.039,1.039,0,0,1-1.026,1.035H1183a1.031,1.031,0,0,1,0-2.061h2.484A1.031,1.031,0,0,1,1186.506,1556.046Z" transform="translate(-1129.797 -1526.208)" fill="#222"/>
      <path id="패스_2181" data-name="패스 2181" d="M1176.182,1562.09l-2.367-8.847-2.394,8.847c-.189.675-.342,1.161-.45,1.449a1.885,1.885,0,0,1-.576.783,1.613,1.613,0,0,1-1.089.342,1.74,1.74,0,0,1-.891-.207,1.679,1.679,0,0,1-.576-.576,3.345,3.345,0,0,1-.351-.891c-.1-.351-.18-.666-.243-.963l-2.439-9.936a5.449,5.449,0,0,1-.216-1.323,1.353,1.353,0,0,1,1.386-1.359,1.133,1.133,0,0,1,1.089.522,5.557,5.557,0,0,1,.486,1.53l1.926,8.613,2.133-8.064a13.96,13.96,0,0,1,.423-1.413,1.885,1.885,0,0,1,.612-.846,1.78,1.78,0,0,1,1.17-.351,1.643,1.643,0,0,1,1.152.369,2.056,2.056,0,0,1,.576.792c.108.3.243.774.423,1.431l2.16,8.064,1.917-8.613c.1-.45.18-.792.261-1.053a1.761,1.761,0,0,1,.432-.693,1.178,1.178,0,0,1,.882-.3,1.33,1.33,0,0,1,.981.378,1.28,1.28,0,0,1,.414.981,6.04,6.04,0,0,1-.225,1.314l-2.43,9.936c-.162.675-.3,1.17-.4,1.476a2.116,2.116,0,0,1-.558.819,1.646,1.646,0,0,1-1.116.36,1.613,1.613,0,0,1-1.089-.342,1.861,1.861,0,0,1-.576-.774c-.108-.288-.261-.765-.45-1.467Z" transform="translate(-1128.059 -1525.646)" fill="#222"/>
    </g>
  </g>
</svg>
