<svg xmlns="http://www.w3.org/2000/svg" width="90" height="90" viewBox="0 0 90 90">
  <g id="그룹_265" data-name="그룹 265" transform="translate(-605 -1040)">
    <path id="패스_1597" data-name="패스 1597" d="M866.97,1124.944H779.03a1.032,1.032,0,0,1,0-2.064h87.94a1.032,1.032,0,0,1,0,2.064Z" transform="translate(-173 5.046)" fill="#345080"/>
    <path id="패스_1598" data-name="패스 1598" d="M822.389,1123.387H782.542a1.041,1.041,0,0,1-1.031-1.037v-70.063a1.033,1.033,0,0,1,1.031-1.027h39.846a1.033,1.033,0,0,1,1.031,1.027v70.063A1.041,1.041,0,0,1,822.389,1123.387Zm-38.816-2.064h37.786v-68.009H783.572Z" transform="translate(-173.076 6.603)" fill="#345080"/>
    <path id="패스_1599" data-name="패스 1599" d="M803.564,1074.384h-15.4a1.032,1.032,0,0,1,0-2.064h15.4a1.032,1.032,0,0,1,0,2.064Z" transform="translate(-173.198 6.145)" fill="#345080"/>
    <path id="패스_1600" data-name="패스 1600" d="M814.267,1067.364H788.16a1.032,1.032,0,0,1,0-2.064h26.107a1.032,1.032,0,0,1,0,2.064Z" transform="translate(-173.198 6.298)" fill="#345080"/>
    <path id="패스_1601" data-name="패스 1601" d="M817.016,1060.344H788.16a1.032,1.032,0,0,1,0-2.064h28.856a1.032,1.032,0,0,1,0,2.064Z" transform="translate(-173.198 6.45)" fill="#345080"/>
    <path id="패스_1602" data-name="패스 1602" d="M798.273,1081.4H788.16a1.032,1.032,0,0,1,0-2.064h10.113a1.032,1.032,0,0,1,0,2.064Z" transform="translate(-173.198 5.993)" fill="#345080"/>
    <path id="패스_1603" data-name="패스 1603" d="M796.9,1088.424H788.16a1.027,1.027,0,1,1,0-2.054H796.9a1.027,1.027,0,1,1,0,2.054Z" transform="translate(-173.198 5.84)" fill="#345080"/>
    <path id="패스_1604" data-name="패스 1604" d="M796.514,1095.444H788.16a1.027,1.027,0,1,1,0-2.054h8.354a1.027,1.027,0,1,1,0,2.054Z" transform="translate(-173.198 5.687)" fill="#345080"/>
    <path id="패스_1605" data-name="패스 1605" d="M797.009,1102.474H788.16a1.032,1.032,0,0,1,0-2.064h8.849a1.032,1.032,0,0,1,0,2.064Z" transform="translate(-173.198 5.535)" fill="#345080"/>
    <path id="패스_1606" data-name="패스 1606" d="M800.541,1109.494H788.16a1.032,1.032,0,0,1,0-2.064h12.381a1.032,1.032,0,0,1,0,2.064Z" transform="translate(-173.198 5.382)" fill="#345080"/>
    <path id="패스_1607" data-name="패스 1607" d="M807.41,1116.524H788.16a1.027,1.027,0,1,1,0-2.054h19.25a1.027,1.027,0,1,1,0,2.054Z" transform="translate(-173.198 5.229)" fill="#345080"/>
    <path id="패스_1608" data-name="패스 1608" d="M822.328,1053.314h-42.6a1.027,1.027,0,1,1,0-2.054h42.6a1.027,1.027,0,1,1,0,2.054Z" transform="translate(-173.015 6.603)" fill="#345080"/>
    <path id="패스_1609" data-name="패스 1609" d="M864.5,1123H823.275a1.039,1.039,0,0,1-1.031-1.027v-87.946a1.039,1.039,0,0,1,1.031-1.027H864.5a1.038,1.038,0,0,1,1.03,1.027v87.946A1.038,1.038,0,0,1,864.5,1123Zm-40.191-2.064h39.161v-85.872H824.305Z" transform="translate(-173.962 7)" fill="#345080"/>
    <path id="패스_1610" data-name="패스 1610" d="M867.183,1035.064H820.465a1.032,1.032,0,0,1,0-2.064h46.718a1.032,1.032,0,0,1,0,2.064Z" transform="translate(-173.901 7)" fill="#345080"/>
    <path id="패스_1611" data-name="패스 1611" d="M851.366,1117.615a1.038,1.038,0,0,1-1.03-1.027v-76.94a1.031,1.031,0,0,1,2.061,0v76.94A1.039,1.039,0,0,1,851.366,1117.615Z" transform="translate(-174.573 6.878)" fill="#345080"/>
    <path id="패스_1612" data-name="패스 1612" d="M858.389,1117.615a1.039,1.039,0,0,1-1.03-1.027v-76.94a1.031,1.031,0,0,1,2.061,0v76.94A1.039,1.039,0,0,1,858.389,1117.615Z" transform="translate(-174.725 6.878)" fill="#345080"/>
    <path id="패스_1613" data-name="패스 1613" d="M837.32,1068.447a1.041,1.041,0,0,1-1.03-1.037v-27.763a1.031,1.031,0,0,1,2.061,0v27.763A1.041,1.041,0,0,1,837.32,1068.447Z" transform="translate(-174.267 6.878)" fill="#345080"/>
    <path id="패스_1614" data-name="패스 1614" d="M844.343,1074.972a1.041,1.041,0,0,1-1.03-1.037v-34.288a1.031,1.031,0,0,1,2.061,0v34.288A1.041,1.041,0,0,1,844.343,1074.972Z" transform="translate(-174.42 6.878)" fill="#345080"/>
    <path id="패스_1615" data-name="패스 1615" d="M844.343,1119.109a1.039,1.039,0,0,1-1.03-1.027v-9.675a1.031,1.031,0,0,1,2.061,0v9.675A1.039,1.039,0,0,1,844.343,1119.109Z" transform="translate(-174.42 5.383)" fill="#345080"/>
    <path id="패스_1616" data-name="패스 1616" d="M830.3,1066.383a1.039,1.039,0,0,1-1.031-1.027v-25.709a1.031,1.031,0,0,1,2.061,0v25.709A1.039,1.039,0,0,1,830.3,1066.383Z" transform="translate(-174.115 6.878)" fill="#345080"/>
    <path id="패스_1617" data-name="패스 1617" d="M838.35,1076.127a21.985,21.985,0,0,0-31.1,31.089l15.541,15.535,15.541-15.535a21.98,21.98,0,0,0,0-31.089Z" transform="translate(-173.496 6.202)" fill="#fafafa"/>
    <path id="패스_1618" data-name="패스 1618" d="M822.787,1123.765a1.025,1.025,0,0,1-.729-.3l-15.541-15.545a23,23,0,1,1,32.538.02l-15.541,15.535a1.022,1.022,0,0,1-.728.3Zm0-53.071a20.94,20.94,0,0,0-14.813,35.755l14.813,14.811L837.6,1106.45a20.959,20.959,0,0,0-14.812-35.775Z" transform="translate(-173.473 6.225)" fill="#345080"/>
    <path id="패스_1619" data-name="패스 1619" d="M823.011,1104.766a12.9,12.9,0,1,1,12.9-12.9A12.911,12.911,0,0,1,823.011,1104.766Zm0-23.742a10.839,10.839,0,1,0,10.841,10.839A10.852,10.852,0,0,0,823.011,1081.024Z" transform="translate(-173.698 6.001)" fill="#345080"/>
  </g>
</svg>
