<svg xmlns="http://www.w3.org/2000/svg" xmlns:xlink="http://www.w3.org/1999/xlink" width="90" height="90" viewBox="0 0 90 90">
  <defs>
    <clipPath id="clip-path">
      <rect id="사각형_150230" data-name="사각형 150230" width="90" height="90" transform="translate(482 1523)" fill="#fff"/>
    </clipPath>
  </defs>
  <g id="그룹_268" data-name="그룹 268" transform="translate(-482 -1523)" clip-path="url(#clip-path)">
    <path id="패스_2017" data-name="패스 2017" d="M534.445,1614.574a30.228,30.228,0,1,1,23.849-35.478A30.222,30.222,0,0,1,534.445,1614.574Z" transform="translate(-1.64 -3.167)" fill="#dce8ff"/>
    <path id="패스_2018" data-name="패스 2018" d="M545.057,1559.55a30.2,30.2,0,0,1-38.633,45.423,30.212,30.212,0,1,0,38.633-45.423Z" transform="translate(-2.442 -3.655)" fill="#dce8ff"/>
    <path id="패스_2019" data-name="패스 2019" d="M528.5,1616.052a31.261,31.261,0,0,1-6-61.938,31.251,31.251,0,0,1,36.681,24.66,31.294,31.294,0,0,1-24.66,36.684A30.617,30.617,0,0,1,528.5,1616.052Zm.068-60.471a29.658,29.658,0,0,0-5.674.549,29.094,29.094,0,1,0,5.674-.549Z" transform="translate(-1.525 -3.052)" fill="#222"/>
    <path id="패스_2020" data-name="패스 2020" d="M537.809,1602.28l-.728-2.88H524.634l-.728,2.88a5.827,5.827,0,0,1-3.256,3.879l10.208,5.436,10.208-5.436A5.829,5.829,0,0,1,537.809,1602.28Z" transform="translate(-3.865 -7.64)" fill="#dce8ff"/>
    <path id="패스_2021" data-name="패스 2021" d="M530.743,1612.494a1.01,1.01,0,0,1-.481-.117l-10.208-5.445a1.034,1.034,0,0,1,.055-1.854,4.72,4.72,0,0,0,2.679-3.186l.728-2.889a1.035,1.035,0,0,1,1-.783h12.447a1.04,1.04,0,0,1,1,.783l.728,2.889a4.716,4.716,0,0,0,2.678,3.186,1.023,1.023,0,0,1,.6.909,1.043,1.043,0,0,1-.55.945l-10.208,5.445A1.008,1.008,0,0,1,530.743,1612.494Zm-8.16-6.552,8.16,4.356,8.161-4.356a6.8,6.8,0,0,1-2.212-3.546l-.536-2.1H525.3l-.536,2.1a6.783,6.783,0,0,1-2.212,3.546Z" transform="translate(-3.75 -7.522)" fill="#222"/>
    <path id="패스_2022" data-name="패스 2022" d="M542.946,1583.592c0,8.3-5.523,15.021-12.324,15.021s-12.323-6.723-12.323-15.021,5.522-12.672,12.323-12.672S542.946,1575.3,542.946,1583.592Z" transform="translate(-3.63 -4.792)" fill="#dce8ff"/>
    <path id="패스_2023" data-name="패스 2023" d="M530.508,1599.514c-7.364,0-13.353-7.2-13.353-16.056,0-8.181,5.371-13.7,13.353-13.7s13.354,5.517,13.354,13.7C543.862,1592.314,537.872,1599.514,530.508,1599.514Zm0-27.693c-6.869,0-11.292,4.581-11.292,11.637,0,7.713,5.069,13.995,11.292,13.995s11.293-6.282,11.293-13.995C541.8,1576.384,537.364,1571.821,530.508,1571.821Z" transform="translate(-3.516 -4.676)" fill="#222"/>
    <path id="패스_2024" data-name="패스 2024" d="M530.609,1581.161a19.8,19.8,0,0,0-11.787-.783,15.9,15.9,0,0,0-.522,4.1c0,8.3,5.522,15.021,12.323,15.021s12.324-6.723,12.324-15.021a16.939,16.939,0,0,0-.261-2.97,20.476,20.476,0,0,1-12.09-.351Z" transform="translate(-3.63 -5.683)" fill="#dce8ff"/>
    <path id="패스_2025" data-name="패스 2025" d="M543.232,1581.7a22.754,22.754,0,0,1-5.537.747c-.288,7.983-5.674,14.355-12.3,14.355a9.016,9.016,0,0,1-1.634-.153,10.911,10.911,0,0,0,7.4,3.042c6.815,0,12.324-6.723,12.324-15.021A16.939,16.939,0,0,0,543.232,1581.7Z" transform="translate(-4.177 -5.87)" fill="#dce8ff"/>
    <path id="패스_2026" data-name="패스 2026" d="M530.508,1600.406c-7.364,0-13.353-7.2-13.353-16.056a16.55,16.55,0,0,1,.563-4.365,1.045,1.045,0,0,1,.742-.729,21.038,21.038,0,0,1,12.406.81,19.509,19.509,0,0,0,11.471.333,1.025,1.025,0,0,1,.811.126.94.94,0,0,1,.454.684,18.06,18.06,0,0,1,.275,3.141c0,8.856-5.99,16.056-13.354,16.056Zm-10.963-19.3a15.377,15.377,0,0,0-.344,3.24c0,7.713,5.07,13.995,11.293,13.995s11.293-6.282,11.293-13.995c0-.576-.028-1.152-.083-1.7a21.015,21.015,0,0,1-11.581-.648,18.967,18.967,0,0,0-10.592-.891Z" transform="translate(-3.516 -5.568)" fill="#222"/>
    <path id="패스_2027" data-name="패스 2027" d="M529.489,1620.354a30.121,30.121,0,0,0,22.559-10.107,8.613,8.613,0,0,0-3.764-1.692l-7.2-1.251a5.577,5.577,0,0,1-1.374-.414l-10.207,5.445L519.3,1606.89a5.385,5.385,0,0,1-1.374.414l-7.2,1.251a8.543,8.543,0,0,0-3.765,1.692,30.184,30.184,0,0,0,22.558,10.107Z" transform="translate(-2.496 -8.389)" fill="#dce8ff"/>
    <path id="패스_2028" data-name="패스 2028" d="M513.263,1608.25l-2.556.441a8.544,8.544,0,0,0-3.764,1.692,30.211,30.211,0,0,0,45.117,0c-.221-.162-.44-.315-.673-.468a30.2,30.2,0,0,1-38.111-1.665Z" transform="translate(-2.494 -8.525)" fill="#dce8ff"/>
    <path id="패스_2029" data-name="패스 2029" d="M529.37,1621.275a31.3,31.3,0,0,1-23.327-10.458,1.027,1.027,0,0,1-.262-.783.966.966,0,0,1,.4-.711,9.484,9.484,0,0,1,4.217-1.881l7.2-1.251a4.53,4.53,0,0,0,1.127-.351,1.067,1.067,0,0,1,.906.036l9.727,5.175,9.713-5.175a1.009,1.009,0,0,1,.907-.036,4.536,4.536,0,0,0,1.126.351l7.2,1.251a9.41,9.41,0,0,1,4.217,1.881,1.081,1.081,0,0,1,.4.711,1.023,1.023,0,0,1-.261.783,31.27,31.27,0,0,1-23.314,10.458Zm-20.978-10.953a29.182,29.182,0,0,0,41.957-.009,6.915,6.915,0,0,0-2.363-.855l-7.2-1.251a7.205,7.205,0,0,1-1.14-.3l-9.781,5.22a1.041,1.041,0,0,1-.976,0l-9.8-5.22a9.17,9.17,0,0,1-1.14.3l-7.2,1.251a6.9,6.9,0,0,0-2.363.855Z" transform="translate(-2.378 -8.275)" fill="#222"/>
    <path id="패스_2030" data-name="패스 2030" d="M485.893,1524.15h30.225a2.753,2.753,0,0,1,2.748,2.745v30.231a2.753,2.753,0,0,1-2.748,2.745h-5.5v8.244l-15.113-8.244h-9.616a2.753,2.753,0,0,1-2.748-2.745V1526.9A2.753,2.753,0,0,1,485.893,1524.15Z" transform="translate(-0.114 -0.115)" fill="#dce8ff"/>
    <path id="패스_2031" data-name="패스 2031" d="M485.893,1524.15H512v26.1a2.761,2.761,0,0,1-2.748,2.754h-26.1V1526.9A2.753,2.753,0,0,1,485.893,1524.15Z" transform="translate(-0.114 -0.115)" fill="#dce8ff"/>
    <path id="패스_2032" data-name="패스 2032" d="M510.507,1569.035a1.076,1.076,0,0,1-.495-.126l-14.879-8.127h-9.355a3.77,3.77,0,0,1-3.778-3.771V1526.78a3.778,3.778,0,0,1,3.778-3.78H516a3.777,3.777,0,0,1,3.778,3.78v30.231a3.77,3.77,0,0,1-3.778,3.771h-4.465V1568a1.017,1.017,0,0,1-.508.882A1.114,1.114,0,0,1,510.507,1569.035Zm-24.729-43.974a1.721,1.721,0,0,0-1.717,1.719v30.231a1.714,1.714,0,0,0,1.717,1.71h9.616a1.079,1.079,0,0,1,.5.126l13.587,7.407v-6.516a1.038,1.038,0,0,1,1.03-1.026H516a1.722,1.722,0,0,0,1.718-1.719V1526.78a1.722,1.722,0,0,0-1.718-1.719Z" fill="#222"/>
    <path id="패스_2033" data-name="패스 2033" d="M499.665,1550.642a1.047,1.047,0,0,1-.728-.3L491.3,1542.7a1.03,1.03,0,1,1,1.456-1.458l6.91,6.912,16.349-16.371a1.031,1.031,0,0,1,1.457,1.458l-17.077,17.082a1.019,1.019,0,0,1-.728.306Z" transform="translate(-0.9 -0.849)" fill="#222"/>
    <path id="패스_2034" data-name="패스 2034" d="M574.123,1524.15H543.9a2.753,2.753,0,0,0-2.748,2.745v30.231a2.753,2.753,0,0,0,2.748,2.745h5.5v8.244l15.113-8.244h9.617a2.753,2.753,0,0,0,2.748-2.745V1526.9A2.753,2.753,0,0,0,574.123,1524.15Z" transform="translate(-5.915 -0.115)" fill="#dce8ff"/>
    <path id="패스_2035" data-name="패스 2035" d="M543.9,1524.15H570v26.1a2.761,2.761,0,0,1-2.748,2.754h-26.1V1526.9A2.753,2.753,0,0,1,543.9,1524.15Z" transform="translate(-5.915 -0.115)" fill="#dce8ff"/>
    <path id="패스_2036" data-name="패스 2036" d="M549.28,1569.035a1.111,1.111,0,0,1-.522-.153,1.018,1.018,0,0,1-.508-.882v-7.218h-4.465a3.77,3.77,0,0,1-3.778-3.771V1526.78a3.778,3.778,0,0,1,3.778-3.78h30.225a3.778,3.778,0,0,1,3.778,3.78v30.231a3.77,3.77,0,0,1-3.778,3.771h-9.356l-14.878,8.127A1.079,1.079,0,0,1,549.28,1569.035Zm-5.5-43.974a1.721,1.721,0,0,0-1.717,1.719v30.231a1.714,1.714,0,0,0,1.717,1.71h5.5a1.04,1.04,0,0,1,1.031,1.035v6.516l13.587-7.407a1.034,1.034,0,0,1,.494-.126h9.617a1.721,1.721,0,0,0,1.717-1.719v-30.24a1.721,1.721,0,0,0-1.717-1.719Z" transform="translate(-5.801)" fill="#222"/>
    <path id="패스_2037" data-name="패스 2037" d="M553.249,1551.015a1.026,1.026,0,0,1-.728-1.755l13.738-13.743a1.03,1.03,0,0,1,1.456,1.458l-13.738,13.743A1.047,1.047,0,0,1,553.249,1551.015Z" transform="translate(-7.022 -1.222)" fill="#222"/>
    <path id="패스_2038" data-name="패스 2038" d="M566.987,1551.015a1.047,1.047,0,0,1-.728-.3l-13.738-13.743a1.03,1.03,0,0,1,1.456-1.458l13.738,13.743a1.026,1.026,0,0,1-.728,1.755Z" transform="translate(-7.022 -1.222)" fill="#222"/>
    <path id="패스_2039" data-name="패스 2039" d="M491.032,1612.081h-1.9a1.031,1.031,0,1,1,0-2.061h1.9a1.031,1.031,0,1,1,0,2.061Z" transform="translate(-0.611 -8.702)" fill="#222"/>
    <path id="패스_2040" data-name="패스 2040" d="M498.085,1612.081h-1.9a1.031,1.031,0,1,1,0-2.061h1.9a1.031,1.031,0,0,1,0,2.061Z" transform="translate(-1.316 -8.702)" fill="#222"/>
    <path id="패스_2041" data-name="패스 2041" d="M493.716,1616.451a1.037,1.037,0,0,1-1.03-1.026v-1.9a1.03,1.03,0,0,1,2.06,0v1.9A1.038,1.038,0,0,1,493.716,1616.451Z" transform="translate(-1.069 -8.95)" fill="#222"/>
    <path id="패스_2042" data-name="패스 2042" d="M493.716,1609.411a1.032,1.032,0,0,1-1.03-1.026v-1.9a1.03,1.03,0,0,1,2.06,0v1.9A1.032,1.032,0,0,1,493.716,1609.411Z" transform="translate(-1.069 -8.246)" fill="#222"/>
    <path id="패스_2043" data-name="패스 2043" d="M484.926,1587.661h-1.9a1.031,1.031,0,0,1,0-2.061h1.9a1.031,1.031,0,0,1,0,2.061Z" transform="translate(0 -6.26)" fill="#222"/>
    <path id="패스_2044" data-name="패스 2044" d="M491.979,1587.661h-1.9a1.031,1.031,0,0,1,0-2.061h1.9a1.031,1.031,0,1,1,0,2.061Z" transform="translate(-0.705 -6.26)" fill="#222"/>
    <path id="패스_2045" data-name="패스 2045" d="M487.61,1592.03a1.039,1.039,0,0,1-1.03-1.035v-1.9a1.03,1.03,0,0,1,2.06,0v1.9A1.039,1.039,0,0,1,487.61,1592.03Z" transform="translate(-0.458 -6.507)" fill="#222"/>
    <path id="패스_2046" data-name="패스 2046" d="M487.61,1584.99a1.039,1.039,0,0,1-1.03-1.035v-1.89a1.03,1.03,0,1,1,2.06,0v1.89A1.039,1.039,0,0,1,487.61,1584.99Z" transform="translate(-0.458 -5.803)" fill="#222"/>
    <path id="패스_2047" data-name="패스 2047" d="M564.319,1618.191h-1.9a1.031,1.031,0,0,1,0-2.061h1.9a1.031,1.031,0,1,1,0,2.061Z" transform="translate(-7.939 -9.313)" fill="#222"/>
    <path id="패스_2048" data-name="패스 2048" d="M571.356,1618.191h-1.9a1.031,1.031,0,1,1,0-2.061h1.9a1.031,1.031,0,0,1,0,2.061Z" transform="translate(-8.643 -9.313)" fill="#222"/>
    <path id="패스_2049" data-name="패스 2049" d="M566.987,1622.56a1.039,1.039,0,0,1-1.03-1.035v-1.89a1.03,1.03,0,1,1,2.06,0v1.89A1.039,1.039,0,0,1,566.987,1622.56Z" transform="translate(-8.396 -9.56)" fill="#222"/>
    <path id="패스_2050" data-name="패스 2050" d="M566.987,1615.52a1.037,1.037,0,0,1-1.03-1.026v-1.9a1.03,1.03,0,1,1,2.06,0v1.9A1.038,1.038,0,0,1,566.987,1615.52Z" transform="translate(-8.396 -8.856)" fill="#222"/>
    <path id="패스_2051" data-name="패스 2051" d="M573.478,1599.871h-1.9a1.03,1.03,0,1,1,0-2.061h1.9a1.03,1.03,0,1,1,0,2.061Z" transform="translate(-8.855 -7.481)" fill="#222"/>
    <path id="패스_2052" data-name="패스 2052" d="M580.53,1599.871h-1.9a1.03,1.03,0,0,1,0-2.061h1.9a1.03,1.03,0,1,1,0,2.061Z" transform="translate(-9.56 -7.481)" fill="#222"/>
    <path id="패스_2053" data-name="패스 2053" d="M576.161,1604.24a1.04,1.04,0,0,1-1.031-1.035v-1.89a1.031,1.031,0,1,1,2.061,0v1.89A1.039,1.039,0,0,1,576.161,1604.24Z" transform="translate(-9.313 -7.728)" fill="#222"/>
    <path id="패스_2054" data-name="패스 2054" d="M576.161,1597.2a1.038,1.038,0,0,1-1.031-1.026v-1.9a1.031,1.031,0,1,1,2.061,0v1.9A1.038,1.038,0,0,1,576.161,1597.2Z" transform="translate(-9.313 -7.024)" fill="#222"/>
    <path id="패스_2055" data-name="패스 2055" d="M571.951,1576.971h-1.9a1.03,1.03,0,1,1,0-2.061h1.9a1.03,1.03,0,1,1,0,2.061Z" transform="translate(-8.703 -5.191)" fill="#222"/>
    <path id="패스_2056" data-name="패스 2056" d="M579,1576.971h-1.9a1.03,1.03,0,1,1,0-2.061H579a1.03,1.03,0,0,1,0,2.061Z" transform="translate(-9.408 -5.191)" fill="#222"/>
    <path id="패스_2057" data-name="패스 2057" d="M574.635,1581.34a1.039,1.039,0,0,1-1.031-1.035v-1.89a1.03,1.03,0,1,1,2.061,0v1.89A1.039,1.039,0,0,1,574.635,1581.34Z" transform="translate(-9.16 -5.438)" fill="#222"/>
    <path id="패스_2058" data-name="패스 2058" d="M574.635,1574.29a1.039,1.039,0,0,1-1.031-1.035v-1.9a1.03,1.03,0,0,1,2.061,0v1.9A1.039,1.039,0,0,1,574.635,1574.29Z" transform="translate(-9.16 -4.733)" fill="#222"/>
  </g>
</svg>
