<svg xmlns="http://www.w3.org/2000/svg" xmlns:xlink="http://www.w3.org/1999/xlink" width="131" height="18.894" viewBox="0 0 131 18.894">
  <defs>
    <clipPath id="clip-path">
      <rect id="사각형_150258" data-name="사각형 150258" width="131" height="18.894" fill="none"/>
    </clipPath>
  </defs>
  <g id="그룹_303" data-name="그룹 303" transform="translate(0 0)">
    <g id="그룹_302" data-name="그룹 302" transform="translate(0 0)" clip-path="url(#clip-path)">
      <path id="패스_2358" data-name="패스 2358" d="M2.013,6.811c0-2.19-.23-2.395-2.013-2.565V3.329H7.037v.917c-1.684.17-1.9.375-1.9,2.565v4.465a3.925,3.925,0,0,0,1.43-1.07,35.423,35.423,0,0,0,3.5-4.643c.486-.77.369-1.134-.532-1.251l-.476-.065V3.329h6.07v.917a4.544,4.544,0,0,0-3.448,1.86c-1.3,1.389-2.509,2.864-3.42,4.04a90.855,90.855,0,0,0,4.856,7.791c.975,1.324,1.4,1.683,2.415,1.824v.918h-4.64c-1.263-1.881-3-4.9-4.505-7.554-.46-.8-.814-.9-1.254-.8V17.2c-.046,2.19.219,2.4,2.014,2.561v.918H.111v-.918c1.674-.166,1.9-.371,1.9-2.561Z" transform="translate(0 -2.168)" fill="#00393f"/>
      <path id="패스_2359" data-name="패스 2359" d="M51.649,13.854c.539,1.507,2,4.441,4.471,4.441,1.609,0,2.585-1.229,2.585-2.943,0-1.694-1.039-2.863-2.921-3.86C53.523,10.306,51.3,8.68,51.3,6.039c0-2.763,2.036-5.118,5.719-5.118a10.9,10.9,0,0,1,3.512.647c.091,1.07.28,2.253.527,3.988l-1.008.188c-.578-1.725-1.371-3.625-3.405-3.625A2.484,2.484,0,0,0,54.265,4.84c0,1.447,1.062,2.455,2.943,3.394,2.567,1.279,4.567,2.875,4.567,5.761,0,3.168-2.461,5.5-6.138,5.5a8.725,8.725,0,0,1-2.405-.339,11.978,11.978,0,0,1-1.78-.654c-.217-.762-.509-2.617-.788-4.36Z" transform="translate(-32.991 -0.6)" fill="#00393f"/>
      <path id="패스_2360" data-name="패스 2360" d="M90.555,12.04c.629-2.059,1.251-3.994,1.923-6.013h.079l1.787,6.013Zm4.232,1.393c.279.8.765,2.316,1.015,3.072.437,1.314.23,1.513-1.249,1.7v.947h6.781V18.2c-1.33-.171-1.706-.369-2.492-2.694-.956-2.846-2.009-6.155-3.064-9.449L94.156.922l-1.335.368L87.879,15.556c-.8,2.3-1.12,2.471-2.6,2.649v.947h5.612V18.2c-1.778-.234-1.931-.418-1.541-1.937.279-1.07.643-2.35.816-2.834Z" transform="translate(-55.532 -0.601)" fill="#00393f"/>
      <path id="패스_2361" data-name="패스 2361" d="M192.886,9.032V7.387h-1.624c.02-.017.039-.035.059-.055a1.929,1.929,0,0,0,.466-1.346V3.318a1.467,1.467,0,0,0-.393-1.233,2.056,2.056,0,0,0-1.282-.307h-7.9V3.425h7.386V5.986a3.421,3.421,0,0,1-.159.934,3.339,3.339,0,0,1-.219.466H181.3V9.032h4.353V10.24h-3.447v1.644h7.386v2.8h2.194v-2.91a1.468,1.468,0,0,0-.393-1.233,2.056,2.056,0,0,0-1.282-.306h-2.264V9.032Z" transform="translate(-118.061 -1.154)" fill="#464545"/>
      <path id="패스_2362" data-name="패스 2362" d="M169.43,3.656h-1.053V1.694h-2.918v.473h.726v9.215h2.192V5.24h1.053Z" transform="translate(-107.744 -1.103)" fill="#464545"/>
      <path id="패스_2363" data-name="패스 2363" d="M147.776,4.624a3.284,3.284,0,0,0-.629-1.93h.813V1.111h-2.61L145.359,0h-2.919V.473h.717v.637h-2.65V2.694h.855a3.28,3.28,0,0,0-.629,1.93,3.524,3.524,0,0,0,7.044,0m-4.943,0a1.817,1.817,0,0,1,1.271-1.93h.3a1.817,1.817,0,0,1,1.271,1.93c0,1.073-.637,1.942-1.421,1.942s-1.422-.869-1.422-1.942" transform="translate(-91.496 0)" fill="#464545"/>
      <path id="패스_2364" data-name="패스 2364" d="M147.237,26.647h-2.918v.473h.711v2.336a1.374,1.374,0,0,0,.393,1.186,2.123,2.123,0,0,0,1.282.3h7.906V29.353h-7.387Z" transform="translate(-93.978 -17.353)" fill="#464545"/>
      <path id="패스_2365" data-name="패스 2365" d="M232.759,7.352h-1.426V3.437h1.426V1.792h-9.777V3.437h1.613V7.352h-1.613V9h9.777Zm-5.971-3.915h2.352V7.352h-2.352Z" transform="translate(-145.202 -1.167)" fill="#464545"/>
      <path id="패스_2366" data-name="패스 2366" d="M229.608,28.979l.008-2.811H226.7v.491h.716v2.32h-1.866l.009-2.811h-2.919v.491h.717v2.32h-2.909v1.645h11.585V28.979Z" transform="translate(-143.551 -17.041)" fill="#464545"/>
      <path id="패스_2367" data-name="패스 2367" d="M260.453,18.7v1.645h4.983v1.982h2.192V20.347h4.41V18.7Z" transform="translate(-169.602 -12.179)" fill="#464545"/>
      <path id="패스_2368" data-name="패스 2368" d="M264.233,26.168h-2.919v.491h.7v2.289a1.926,1.926,0,0,0,.522,1.209,1.869,1.869,0,0,0,1.286.468h8.159V28.98h-7.755Z" transform="translate(-170.163 -17.041)" fill="#464545"/>
      <path id="패스_2369" data-name="패스 2369" d="M260.275,5.48l.684,1.583a7.22,7.22,0,0,0,5.163-2.021,7.213,7.213,0,0,0,5.162,2.021l.6-1.583c-1.8,0-4.206-.71-4.58-2.043h3.767V1.792H260.992V3.437h3.934c-.442,1.381-2.851,2.043-4.65,2.043" transform="translate(-169.487 -1.167)" fill="#464545"/>
      <path id="패스_2370" data-name="패스 2370" d="M342.164,4.663a3.524,3.524,0,0,0,7.043,0,3.286,3.286,0,0,0-.629-1.931h.812V1.149h-2.609L346.769.012h-2.919V.486h.739v.663h-2.651V2.731h.856a3.286,3.286,0,0,0-.63,1.931m4.943,0c0,1.073-.636,1.941-1.421,1.941s-1.422-.869-1.422-1.941a1.82,1.82,0,0,1,1.273-1.931h.3a1.821,1.821,0,0,1,1.272,1.931" transform="translate(-222.664 -0.008)" fill="#464545"/>
      <path id="패스_2371" data-name="패스 2371" d="M353.155,1.814h-2.918v.473h.732v8.858h-4.474V9.706h-.013V9.684h-2.919v.473h.739v.988H341.5V12.69h9.473v2.082h2.193Z" transform="translate(-222.376 -1.181)" fill="#464545"/>
      <path id="패스_2372" data-name="패스 2372" d="M307.458,4.669a3.281,3.281,0,0,0-.629-1.931h.814V1.155h-2.61l0-1.128h-2.919V.5h.723v.655h-2.651V2.738h.855a3.288,3.288,0,0,0-.629,1.931,3.524,3.524,0,0,0,7.043,0m-4.943,0a1.818,1.818,0,0,1,1.272-1.931h.3a1.818,1.818,0,0,1,1.271,1.931c0,1.072-.636,1.942-1.42,1.942s-1.422-.87-1.422-1.942" transform="translate(-195.478 -0.018)" fill="#464545"/>
      <path id="패스_2373" data-name="패스 2373" d="M314.272,13.2l0-11.369h-2.918V2.3h.731V4.15H310.4V5.733h1.684v.65H310.4V7.967h1.684v3.4h-5.205v-.9h-2.9v.492h.707v2.319a1.72,1.72,0,0,0,.293,1.1,1.9,1.9,0,0,0,1.209.426h6.5a1.612,1.612,0,0,0,1.161-.4,1.629,1.629,0,0,0,.415-1.206m-2.184.025h-5.205v-.574h5.205Z" transform="translate(-197.949 -1.19)" fill="#464545"/>
      <path id="패스_2374" data-name="패스 2374" d="M141.958,44.4c0-.425-.046-.461-.391-.494v-.189h1.418v.189c-.324.032-.369.069-.369.494v.844a.782.782,0,0,0,.282-.206,6.485,6.485,0,0,0,.668-.88c.093-.146.073-.219-.107-.24l-.087-.01v-.189h1.214v.189a.881.881,0,0,0-.676.351,9.3,9.3,0,0,0-.645.755,16.351,16.351,0,0,0,.943,1.515c.181.248.268.318.461.344v.189h-.957c-.229-.349-.549-.912-.85-1.445-.088-.154-.158-.172-.245-.156v.919c-.011.425.046.461.391.493v.189h-1.419v-.189c.325-.032.37-.068.37-.493Z" transform="translate(-92.186 -28.469)" fill="#464545"/>
      <path id="패스_2375" data-name="패스 2375" d="M152.01,43.769c.479,0,.711.614.711,1.61,0,.918-.226,1.39-.6,1.39-.51,0-.74-.722-.74-1.6,0-.837.234-1.4.624-1.4Zm.081-.236a1.57,1.57,0,0,0-1.475,1.754c0,.987.546,1.718,1.414,1.718.838,0,1.446-.666,1.446-1.779,0-1.015-.586-1.693-1.38-1.693Z" transform="translate(-98.079 -28.35)" fill="#464545"/>
      <path id="패스_2376" data-name="패스 2376" d="M161.2,44.18c0-.114.006-.159.033-.191a.281.281,0,0,1,.185-.045c.258,0,.574.2.574.716a.738.738,0,0,1-.216.592.65.65,0,0,1-.444.138H161.2Zm-.659,2.2c0,.425-.046.471-.392.494v.189h1.428v-.189c-.331-.023-.377-.069-.377-.494v-.77l.1,0a.3.3,0,0,1,.3.228,5.2,5.2,0,0,0,.389.776c.208.335.377.469.971.493l.208.011.033-.167a.819.819,0,0,1-.3-.24,3.954,3.954,0,0,1-.382-.543,7.1,7.1,0,0,1-.379-.741.879.879,0,0,0,.582-.847.769.769,0,0,0-.341-.682,1.414,1.414,0,0,0-.795-.181H160.18v.189c.325.041.361.054.361.474Z" transform="translate(-104.283 -28.47)" fill="#464545"/>
      <path id="패스_2377" data-name="패스 2377" d="M170.088,44.4c0-.42-.046-.457-.371-.489v-.189H172c.005.084.027.461.049.768l-.205.024a1.029,1.029,0,0,0-.194-.429c-.078-.085-.227-.121-.5-.121h-.2c-.17,0-.2.02-.2.188v1.034h.36c.387,0,.406-.027.487-.4h.2l0,1.09h-.207c-.078-.389-.095-.416-.487-.416h-.36v.918c0,.246.021.352.117.4a1.069,1.069,0,0,0,.419.045.652.652,0,0,0,.525-.164,1.924,1.924,0,0,0,.254-.489l.2.047c-.03.193-.12.7-.163.848h-2.465v-.189c.39-.032.436-.073.436-.494Z" transform="translate(-110.474 -28.47)" fill="#464545"/>
      <path id="패스_2378" data-name="패스 2378" d="M179.04,45.63c.119-.378.234-.73.362-1.094h.016l.333,1.094Zm.8.273c.043.116.13.378.182.527.088.254.048.287-.228.322v.189h1.327v-.189c-.249-.032-.322-.066-.472-.5-.185-.538-.386-1.152-.586-1.761l-.311-.959-.28.073-.949,2.662c-.15.422-.215.451-.5.484v.189h1.083v-.189c-.337-.045-.365-.075-.29-.353.054-.2.116-.414.148-.5Z" transform="translate(-115.926 -28.35)" fill="#464545"/>
      <path id="패스_2379" data-name="패스 2379" d="M188.325,44.662c0-.349,0-.456-.087-.577a.466.466,0,0,0-.391-.174v-.194h.886l1.613,2.234h.011v-.92a5.374,5.374,0,0,0-.053-.846c-.027-.175-.156-.257-.461-.273v-.194h1.2v.194c-.228.011-.337.1-.358.272a6.2,6.2,0,0,0-.049.848V47.1h-.345l-1.676-2.458H188.6v1.113a5.962,5.962,0,0,0,.048.837c.027.185.16.262.465.278v.194h-1.2v-.194c.228-.011.343-.092.365-.277a5.954,5.954,0,0,0,.049-.838Z" transform="translate(-122.323 -28.469)" fill="#464545"/>
      <path id="패스_2380" data-name="패스 2380" d="M201.682,45.934c.108.285.4.836.861.836a.479.479,0,0,0,.476-.531c0-.3-.187-.522-.55-.707-.46-.233-.868-.544-.868-1.029a.993.993,0,0,1,1.113-.969,2.163,2.163,0,0,1,.69.125c.016.2.054.426.1.758l-.2.037c-.114-.328-.27-.684-.653-.684a.459.459,0,0,0-.442.5c0,.255.195.444.558.616.524.251.881.558.881,1.084a1.076,1.076,0,0,1-1.2,1.039,1.728,1.728,0,0,1-.467-.065,2.22,2.22,0,0,1-.347-.125c-.041-.141-.1-.492-.154-.825Z" transform="translate(-131.202 -28.35)" fill="#464545"/>
      <path id="패스_2381" data-name="패스 2381" d="M209.7,43.716h-.165a.5.5,0,0,0-.42.159,1.156,1.156,0,0,0-.185.472h-.209c.017-.385.049-.742.055-1h.128a.258.258,0,0,0,.247.131h1.788a.247.247,0,0,0,.238-.131h.132c.005.215.027.622.05.988l-.209.015a1.117,1.117,0,0,0-.2-.506.482.482,0,0,0-.376-.125h-.2v2.419c0,.425.046.461.456.494v.189h-1.564v-.189c.389-.032.435-.069.435-.494Z" transform="translate(-135.916 -28.226)" fill="#464545"/>
      <path id="패스_2382" data-name="패스 2382" d="M217.1,45.63c.118-.378.234-.73.361-1.094h.015l.333,1.094Zm.8.273c.043.116.13.378.182.527.088.254.048.287-.228.322v.189h1.327v-.189c-.249-.032-.322-.066-.472-.5-.185-.538-.385-1.152-.586-1.761l-.311-.959-.28.073-.949,2.662c-.15.422-.215.451-.5.484v.189h1.083v-.189c-.337-.045-.365-.075-.29-.353.054-.2.117-.414.148-.5Z" transform="translate(-140.71 -28.35)" fill="#464545"/>
      <path id="패스_2383" data-name="패스 2383" d="M226.385,44.662c0-.349,0-.456-.087-.577a.466.466,0,0,0-.391-.174v-.194h.886l1.613,2.234h.011v-.92a5.431,5.431,0,0,0-.053-.846c-.027-.175-.156-.257-.461-.273v-.194h1.2v.194c-.227.011-.337.1-.358.272a6.2,6.2,0,0,0-.049.848V47.1h-.345l-1.676-2.458h-.011v1.113a5.96,5.96,0,0,0,.048.837c.027.185.16.262.465.278v.194h-1.2v-.194c.229-.011.343-.092.365-.277a5.955,5.955,0,0,0,.049-.838Z" transform="translate(-147.107 -28.469)" fill="#464545"/>
      <path id="패스_2384" data-name="패스 2384" d="M237.284,44.242c0-.158.015-.219.055-.249a.29.29,0,0,1,.187-.05.832.832,0,0,1,.646.292,1.691,1.691,0,0,1,.311,1.116c0,1.007-.431,1.474-.9,1.474-.246,0-.3-.121-.3-.465Zm-.673,2.132c0,.425-.046.466-.4.5v.189h1.112a2,2,0,0,0,1.37-.425,1.731,1.731,0,0,0,.538-1.377,1.612,1.612,0,0,0-.388-1.091,1.735,1.735,0,0,0-1.346-.451h-1.252v.189c.319.032.365.073.365.5Z" transform="translate(-153.818 -28.469)" fill="#464545"/>
      <path id="패스_2385" data-name="패스 2385" d="M246.072,45.63c.119-.378.234-.73.361-1.094h.016l.333,1.094Zm.8.273c.043.116.13.378.182.527.088.254.048.287-.228.322v.189h1.327v-.189c-.249-.032-.322-.066-.473-.5-.185-.538-.385-1.152-.586-1.761l-.312-.959-.28.073-.949,2.662c-.15.422-.215.451-.5.484v.189h1.083v-.189c-.337-.045-.365-.075-.291-.353.054-.2.117-.414.148-.5Z" transform="translate(-159.576 -28.35)" fill="#464545"/>
      <path id="패스_2386" data-name="패스 2386" d="M256.178,44.18c0-.114.006-.159.033-.191a.28.28,0,0,1,.185-.045c.258,0,.574.2.574.716a.739.739,0,0,1-.216.592.65.65,0,0,1-.444.138h-.134Zm-.659,2.2c0,.425-.046.471-.392.494v.189h1.428v-.189c-.331-.023-.377-.069-.377-.494v-.77l.1,0a.3.3,0,0,1,.3.228,5.234,5.234,0,0,0,.389.776c.208.335.377.469.971.493l.208.011.033-.167a.813.813,0,0,1-.3-.24,3.882,3.882,0,0,1-.382-.543,7.1,7.1,0,0,1-.379-.741.879.879,0,0,0,.582-.847.77.77,0,0,0-.34-.682,1.413,1.413,0,0,0-.795-.181h-1.395v.189c.325.041.361.054.361.474Z" transform="translate(-166.134 -28.47)" fill="#464545"/>
      <path id="패스_2387" data-name="패스 2387" d="M265.817,44.242c0-.158.015-.219.055-.249a.289.289,0,0,1,.187-.05.832.832,0,0,1,.646.292,1.69,1.69,0,0,1,.311,1.116c0,1.007-.432,1.474-.9,1.474-.247,0-.3-.121-.3-.465Zm-.673,2.132c0,.425-.046.466-.4.5v.189h1.112a2,2,0,0,0,1.37-.425,1.732,1.732,0,0,0,.538-1.377,1.612,1.612,0,0,0-.388-1.091,1.736,1.736,0,0,0-1.347-.451h-1.252v.189c.319.032.365.073.365.5Z" transform="translate(-172.398 -28.469)" fill="#464545"/>
      <path id="패스_2388" data-name="패스 2388" d="M275.139,45.934c.109.285.4.836.861.836a.479.479,0,0,0,.477-.531c0-.3-.186-.522-.55-.707-.46-.233-.868-.544-.868-1.029a.993.993,0,0,1,1.112-.969,2.161,2.161,0,0,1,.69.125c.016.2.054.426.1.758l-.2.037c-.114-.328-.271-.684-.653-.684a.459.459,0,0,0-.442.5c0,.255.194.444.558.616.524.251.881.558.881,1.084a1.076,1.076,0,0,1-1.2,1.039,1.729,1.729,0,0,1-.467-.065,2.223,2.223,0,0,1-.347-.125c-.04-.141-.1-.492-.154-.825Z" transform="translate(-179.036 -28.35)" fill="#464545"/>
      <path id="패스_2389" data-name="패스 2389" d="M286.075,45.63c.119-.378.234-.73.361-1.094h.016l.333,1.094Zm.8.273c.043.116.13.378.182.527.088.254.048.287-.228.322v.189h1.327v-.189c-.249-.032-.322-.066-.473-.5-.185-.538-.385-1.152-.586-1.761l-.312-.959-.28.073-.949,2.662c-.15.422-.215.451-.5.484v.189h1.082v-.189c-.337-.045-.365-.075-.29-.353.054-.2.117-.414.148-.5Z" transform="translate(-185.626 -28.35)" fill="#464545"/>
      <path id="패스_2390" data-name="패스 2390" d="M295.1,45.934c.108.285.4.836.861.836a.479.479,0,0,0,.476-.531c0-.3-.186-.522-.55-.707-.46-.233-.868-.544-.868-1.029a.993.993,0,0,1,1.113-.969,2.159,2.159,0,0,1,.689.125c.016.2.054.426.1.758l-.2.037c-.114-.328-.271-.684-.653-.684a.459.459,0,0,0-.442.5c0,.255.195.444.558.616.524.251.881.558.881,1.084a1.076,1.076,0,0,1-1.2,1.039,1.732,1.732,0,0,1-.467-.065,2.248,2.248,0,0,1-.347-.125c-.04-.141-.1-.492-.154-.825Z" transform="translate(-192.034 -28.35)" fill="#464545"/>
      <path id="패스_2391" data-name="패스 2391" d="M302.75,45.934c.108.285.4.836.861.836a.479.479,0,0,0,.476-.531c0-.3-.186-.522-.55-.707-.46-.233-.868-.544-.868-1.029a.993.993,0,0,1,1.113-.969,2.155,2.155,0,0,1,.689.125c.017.2.054.426.1.758l-.2.037c-.114-.328-.27-.684-.653-.684a.459.459,0,0,0-.442.5c0,.255.194.444.558.616.524.251.881.558.881,1.084a1.076,1.076,0,0,1-1.2,1.039,1.728,1.728,0,0,1-.467-.065,2.209,2.209,0,0,1-.347-.125c-.04-.141-.1-.492-.154-.825Z" transform="translate(-197.016 -28.35)" fill="#464545"/>
      <path id="패스_2392" data-name="패스 2392" d="M311.64,43.769c.479,0,.711.614.711,1.61,0,.918-.226,1.39-.6,1.39-.511,0-.739-.722-.739-1.6,0-.837.234-1.4.624-1.4Zm.08-.236a1.57,1.57,0,0,0-1.474,1.754c0,.987.546,1.718,1.414,1.718.838,0,1.446-.666,1.446-1.779,0-1.015-.587-1.693-1.38-1.693Z" transform="translate(-202.027 -28.35)" fill="#464545"/>
      <path id="패스_2393" data-name="패스 2393" d="M322.6,44.511c-.191-.563-.446-.742-.755-.742-.5,0-.837.668-.837,1.439,0,.934.368,1.561.843,1.561.365,0,.575-.309.835-.77l.212.043c-.062.225-.161.642-.239.841a3.461,3.461,0,0,1-.8.123,1.541,1.541,0,0,1-1.613-1.69,1.661,1.661,0,0,1,1.731-1.783,3.207,3.207,0,0,1,.748.1c.034.316.055.541.082.843Z" transform="translate(-208.537 -28.35)" fill="#464545"/>
      <path id="패스_2394" data-name="패스 2394" d="M329.383,44.4c0-.425-.053-.461-.381-.494v-.189h1.435v.189c-.333.032-.381.069-.381.494v1.979c0,.425.048.461.381.493v.189H329v-.189c.328-.032.381-.068.381-.493Z" transform="translate(-214.24 -28.469)" fill="#464545"/>
      <path id="패스_2395" data-name="패스 2395" d="M335.359,45.63c.119-.378.234-.73.361-1.094h.016l.333,1.094Zm.8.273c.043.116.13.378.182.527.087.254.047.287-.229.322v.189h1.327v-.189c-.249-.032-.322-.066-.473-.5-.185-.538-.385-1.152-.586-1.761l-.312-.959-.28.073-.95,2.662c-.15.422-.215.451-.5.484v.189h1.083v-.189c-.337-.045-.365-.075-.291-.353.054-.2.117-.414.148-.5Z" transform="translate(-217.718 -28.35)" fill="#464545"/>
      <path id="패스_2396" data-name="패스 2396" d="M343.765,43.716H343.6a.5.5,0,0,0-.42.159,1.161,1.161,0,0,0-.185.472h-.209c.017-.385.049-.742.055-1h.128a.258.258,0,0,0,.247.131H345a.247.247,0,0,0,.238-.131h.132c.006.215.027.622.049.988l-.209.015a1.113,1.113,0,0,0-.2-.506.482.482,0,0,0-.376-.125h-.2v2.419c0,.425.046.461.456.494v.189H343.33v-.189c.389-.032.435-.069.435-.494Z" transform="translate(-223.216 -28.226)" fill="#464545"/>
      <path id="패스_2397" data-name="패스 2397" d="M352,44.4c0-.425-.053-.461-.381-.494v-.189h1.435v.189c-.332.032-.38.069-.38.494v1.979c0,.425.048.461.38.493v.189H351.62v-.189c.328-.032.381-.068.381-.493Z" transform="translate(-228.969 -28.469)" fill="#464545"/>
      <path id="패스_2398" data-name="패스 2398" d="M358.49,43.769c.48,0,.712.614.712,1.61,0,.918-.226,1.39-.6,1.39-.51,0-.739-.722-.739-1.6,0-.837.234-1.4.624-1.4Zm.081-.236a1.57,1.57,0,0,0-1.475,1.754c0,.987.546,1.718,1.414,1.718.838,0,1.446-.666,1.446-1.779,0-1.015-.586-1.693-1.38-1.693Z" transform="translate(-232.534 -28.35)" fill="#464545"/>
      <path id="패스_2399" data-name="패스 2399" d="M366.88,44.662c0-.349,0-.456-.087-.577a.466.466,0,0,0-.391-.174v-.194h.886l1.613,2.234h.01v-.92a5.435,5.435,0,0,0-.053-.846c-.027-.175-.156-.257-.461-.273v-.194h1.2v.194c-.228.011-.337.1-.359.272a6.2,6.2,0,0,0-.049.848V47.1h-.345l-1.676-2.458h-.01v1.113a6.037,6.037,0,0,0,.048.837c.027.185.16.262.465.278v.194h-1.2v-.194c.228-.011.343-.092.365-.277a5.9,5.9,0,0,0,.049-.838Z" transform="translate(-238.595 -28.469)" fill="#464545"/>
    </g>
  </g>
</svg>
