<svg id="그룹_297" data-name="그룹 297" xmlns="http://www.w3.org/2000/svg" xmlns:xlink="http://www.w3.org/1999/xlink" width="140" height="27.313" viewBox="0 0 140 27.313">
  <defs>
    <clipPath id="clip-path">
      <rect id="사각형_150252" data-name="사각형 150252" width="140" height="27.313" fill="none"/>
    </clipPath>
  </defs>
  <g id="그룹_296" data-name="그룹 296" clip-path="url(#clip-path)">
    <path id="패스_2295" data-name="패스 2295" d="M21.073,13.034a4.919,4.919,0,0,0-7,1.47,4.925,4.925,0,0,1-8.9-1.355h0c-.005-.018-.008-.033-.014-.051s-.011-.042-.016-.063a6.323,6.323,0,0,1-.252-1.958c0-4.417,4.528-9.335,11.052-9.335A12.442,12.442,0,0,1,27.424,9.658c-.017-.05-.032-.1-.05-.15A14.066,14.066,0,0,0,0,14.074c0,6.948,5.009,12.9,11.955,12.9a11.3,11.3,0,0,0,10.972-7.393,5.428,5.428,0,0,0-1.854-6.543" transform="translate(0 0.001)" fill="#002a56"/>
    <path id="패스_2296" data-name="패스 2296" d="M49.108,17.631A12.4,12.4,0,0,0,37.534,9.44c-6.524,0-11.052,4.917-11.052,9.335a6.322,6.322,0,0,0,.252,1.958,4.105,4.105,0,0,1-.13-1c0-4.6,4.6-7.788,9.335-7.788a11.6,11.6,0,0,1,11.6,11.6,12.793,12.793,0,0,1-7.088,11.462v0a14.079,14.079,0,0,0,9.276-13.238,13.911,13.911,0,0,0-.619-4.141" transform="translate(-21.597 -7.697)" fill="#dc0021"/>
    <path id="패스_2297" data-name="패스 2297" d="M190.4,36.2H188.57V26.689H190.4v3.416h2.132v1.817H190.4Zm-9.609.083v3.333h9.992v1.633H178.945V36.288Zm1.782-9.682,4.579,7.316-1.465.933-3.114-5.1-3.065,5.232-1.5-.95Z" transform="translate(-145.174 -21.695)" fill="#474645"/>
    <path id="패스_2298" data-name="패스 2298" d="M276.578,27.056h1.849v7.066h-1.849v-2.8h-2.514V29.706h2.514Zm.034,11.015h-8.044v2.049h8.044Zm-5.212-7.3a1.992,1.992,0,0,0-1.982-1.983,1.879,1.879,0,0,0-1.39.583,1.923,1.923,0,0,0-.575,1.4,1.962,1.962,0,0,0,1.965,1.966,1.92,1.92,0,0,0,1.4-.575,1.881,1.881,0,0,0,.584-1.391m-4.647,4.383h1.816v1.466h8.044V35.155h1.815v6.465H266.752Zm6.412-4.383a3.2,3.2,0,0,1-.3,1.375,3.75,3.75,0,0,1-.8,1.125,3.95,3.95,0,0,1-1.2.767,3.856,3.856,0,0,1-2.9,0,3.959,3.959,0,0,1-1.2-.767,3.765,3.765,0,0,1-.8-1.125,3.217,3.217,0,0,1-.3-1.375,3.272,3.272,0,0,1,.3-1.383,3.529,3.529,0,0,1,.8-1.117,3.82,3.82,0,0,1,1.2-.784,3.851,3.851,0,0,1,2.9,0,3.811,3.811,0,0,1,1.2.784,3.516,3.516,0,0,1,.8,1.117,3.254,3.254,0,0,1,.3,1.383" transform="translate(-216.662 -22.062)" fill="#474645"/>
    <path id="패스_2299" data-name="패스 2299" d="M357.242,39.922a1.779,1.779,0,0,0-.533-1.292,1.752,1.752,0,0,0-1.3-.541,1.849,1.849,0,0,0-1.849,1.832,1.736,1.736,0,0,0,.543,1.283,1.792,1.792,0,0,0,1.306.533,1.82,1.82,0,0,0,1.832-1.817m1.782.016a3.061,3.061,0,0,1-.291,1.317,3.474,3.474,0,0,1-.775,1.067,3.888,3.888,0,0,1-1.148.741,3.552,3.552,0,0,1-1.4.276A3.6,3.6,0,0,1,354,43.063a3.848,3.848,0,0,1-1.158-.741,3.449,3.449,0,0,1-.774-1.067,3.026,3.026,0,0,1-.293-1.317,2.975,2.975,0,0,1,.293-1.308,3.474,3.474,0,0,1,.774-1.058A3.871,3.871,0,0,1,354,36.831a3.6,3.6,0,0,1,1.406-.275,3.554,3.554,0,0,1,1.4.275,3.911,3.911,0,0,1,1.148.741,3.5,3.5,0,0,1,.775,1.058,3.01,3.01,0,0,1,.291,1.308m3.18-3.649H348.549V34.773h5.912v-.966h-4.814v-5.85h11.441v1.517h-9.643v.733h9.643V31.59h-9.643v.75h9.676v1.467h-4.846v.966H362.2Z" transform="translate(-284.252 -22.796)" fill="#474645"/>
    <path id="패스_2300" data-name="패스 2300" d="M441.918,28.9h2.132v1.817h-2.132v3.149h-1.832V26.247h1.832Zm-2.548,9.032a1.927,1.927,0,0,0-.617-1.433,2.007,2.007,0,0,0-1.448-.6,1.979,1.979,0,0,0-1.44.6,2,2,0,0,0,0,2.874,1.994,1.994,0,0,0,1.44.591,2.023,2.023,0,0,0,1.448-.591,1.918,1.918,0,0,0,.617-1.442m1.8.017a3.283,3.283,0,0,1-.308,1.408,3.688,3.688,0,0,1-2.048,1.95,3.889,3.889,0,0,1-1.491.292,3.94,3.94,0,0,1-1.5-.292,4.021,4.021,0,0,1-1.249-.792,3.888,3.888,0,0,1-.823-1.158,3.363,3.363,0,0,1,0-2.816,3.894,3.894,0,0,1,.823-1.159,4.031,4.031,0,0,1,1.249-.791,3.937,3.937,0,0,1,1.5-.292,3.885,3.885,0,0,1,1.491.292,3.685,3.685,0,0,1,2.048,1.95,3.281,3.281,0,0,1,.308,1.408m-4.1-4.349-3.1-4.516-3.081,4.632-1.483-.983,4.564-6.665,4.58,6.516Z" transform="translate(-350.197 -21.253)" fill="#474645"/>
    <path id="패스_2301" data-name="패스 2301" d="M525.8,41.921h-1.832V27.056H525.8v5.766h2.132v1.85H525.8ZM513.524,29.606V27.973h8.86v1.633h-3.731l4.13,9.716-1.615.7-3.181-7.6-3.131,7.715-1.666-.7,4.131-9.832Z" transform="translate(-418.522 -22.062)" fill="#474645"/>
    <path id="패스_2302" data-name="패스 2302" d="M610.833,31.98h-2.115V30.463h2.115V26.247h1.832V36.979h-1.832Zm-4.512-2.566a1.722,1.722,0,0,0-.534-1.275,1.868,1.868,0,0,0-2.6,0,1.793,1.793,0,0,0,0,2.55,1.871,1.871,0,0,0,2.6,0,1.723,1.723,0,0,0,.534-1.275m1.747-.017a2.959,2.959,0,0,1-.29,1.292A3.734,3.734,0,0,1,607,31.763a3.678,3.678,0,0,1-1.133.716,3.71,3.71,0,0,1-2.764,0,3.921,3.921,0,0,1-1.149-.716,3.85,3.85,0,0,1-.757-1.075,2.952,2.952,0,0,1-.293-1.292,2.9,2.9,0,0,1,.293-1.283,3.891,3.891,0,0,1,.757-1.066,3.64,3.64,0,0,1,1.149-.725,3.826,3.826,0,0,1,2.764,0,3.427,3.427,0,0,1,1.133.725,3.772,3.772,0,0,1,.775,1.066,2.9,2.9,0,0,1,.29,1.283m-5.612,6.716h-1.848v4.7h12.457v-1.6H602.456Zm3.1-1.3h4.031V33.28h-9.91v1.533h4.047v2h1.832Z" transform="translate(-489.052 -21.253)" fill="#474645"/>
    <path id="패스_2303" data-name="패스 2303" d="M695.625,31.836h-7.811v2.05h7.811Zm-7.81-1.6h7.81V28.353h1.832V35.5H686v-7.15h1.815ZM684.9,37.5h13.656v1.633h-5.912v3.833H690.8V39.135h-5.9Z" transform="translate(-558.556 -23.119)" fill="#474645"/>
  </g>
</svg>
