<svg id="그룹_301" data-name="그룹 301" xmlns="http://www.w3.org/2000/svg" xmlns:xlink="http://www.w3.org/1999/xlink" width="151" height="27.239" viewBox="0 0 151 27.239">
  <defs>
    <clipPath id="clip-path">
      <rect id="사각형_150255" data-name="사각형 150255" width="151" height="27.238" fill="none"/>
    </clipPath>
  </defs>
  <g id="그룹_300" data-name="그룹 300" transform="translate(0 0)" clip-path="url(#clip-path)">
    <path id="패스_2313" data-name="패스 2313" d="M21.007,13a4.9,4.9,0,0,0-6.98,1.466,4.908,4.908,0,0,1-8.876-1.351h0a.368.368,0,0,0-.012-.051q-.01-.03-.017-.063a6.3,6.3,0,0,1-.251-1.952c0-4.405,4.515-9.31,11.018-9.31A12.4,12.4,0,0,1,27.333,9.633c-.015-.05-.031-.1-.048-.149A14.02,14.02,0,0,0,0,14.036C0,20.965,4.993,26.9,11.917,26.9a11.263,11.263,0,0,0,10.937-7.373A5.416,5.416,0,0,0,21.007,13" transform="translate(0 0)" fill="#002b51"/>
    <path id="패스_2314" data-name="패스 2314" d="M28.614,10.331A12.36,12.36,0,0,0,17.078,2.163c-6.5,0-11.018,4.9-11.018,9.31a6.3,6.3,0,0,0,.251,1.952,4.122,4.122,0,0,1-.128-1c0-4.588,4.588-7.768,9.3-7.768A11.568,11.568,0,0,1,27.048,16.23,12.758,12.758,0,0,1,19.982,27.66l0,0a14.063,14.063,0,0,0,8.63-17.333" transform="translate(-1.191 -0.425)" fill="#da0021"/>
    <path id="패스_2315" data-name="패스 2315" d="M44.269,26.161l1.6-1.791h.779l-1.718,1.912,1.713,1.941h-.8l-1.574-1.792v1.792h-.64V24.37h.64Z" transform="translate(-8.575 -4.79)" fill="#464545"/>
    <path id="패스_2316" data-name="패스 2316" d="M48.767,28.538a1.424,1.424,0,0,1-1.035-.418,1.457,1.457,0,0,1,0-2.065,1.489,1.489,0,0,1,2.074,0,1.466,1.466,0,0,1,0,2.065,1.426,1.426,0,0,1-1.039.418m0-.52a.775.775,0,0,0,.588-.263.936.936,0,0,0,.246-.666.948.948,0,0,0-.246-.666.772.772,0,0,0-1.171,0,.948.948,0,0,0-.246.666.936.936,0,0,0,.246.666.771.771,0,0,0,.583.263" transform="translate(-9.298 -5.039)" fill="#464545"/>
    <path id="패스_2317" data-name="패스 2317" d="M51.619,28.477V25.707h.591v.415a.979.979,0,0,1,.337-.316,1.056,1.056,0,0,1,.557-.143h.044v.563h-.067a.832.832,0,0,0-.623.238,1.039,1.039,0,0,0-.215.725v1.288Z" transform="translate(-10.146 -5.044)" fill="#464545"/>
    <path id="패스_2318" data-name="패스 2318" d="M54.426,27.366a.749.749,0,0,0,.238.415,1,1,0,0,0,.7.243,1.3,1.3,0,0,0,.856-.337l.187.464a1.564,1.564,0,0,1-1.06.387,1.632,1.632,0,0,1-1.14-.4,1.346,1.346,0,0,1-.439-1.045,1.465,1.465,0,0,1,.389-1.048,1.464,1.464,0,0,1,2.033,0,1.4,1.4,0,0,1,.394,1.012,1.707,1.707,0,0,1-.027.309Zm-.011-.5H55.95a.744.744,0,0,0-.227-.495.776.776,0,0,0-1.11.019.871.871,0,0,0-.2.476" transform="translate(-10.568 -5.039)" fill="#464545"/>
    <path id="패스_2319" data-name="패스 2319" d="M59.085,26.686h.652a.453.453,0,0,0-.21-.407,1.129,1.129,0,0,0-.607-.135H58.9a2.039,2.039,0,0,0-.795.177l-.161-.492a2.462,2.462,0,0,1,.961-.194h.011a1.813,1.813,0,0,1,1.068.268.981.981,0,0,1,.373.855v1.714h-.6v-.3a1.2,1.2,0,0,1-.434.274,1.48,1.48,0,0,1-.522.1,1.2,1.2,0,0,1-.8-.263.818.818,0,0,1-.307-.644.837.837,0,0,1,.382-.7,1.759,1.759,0,0,1,1.005-.243m-.171,1.355a1.055,1.055,0,0,0,.48-.119.874.874,0,0,0,.343-.273v-.47h-.558a1.3,1.3,0,0,0-.662.121.408.408,0,0,0-.182.332.356.356,0,0,0,.154.293.7.7,0,0,0,.426.116" transform="translate(-11.341 -5.039)" fill="#464545"/>
    <path id="패스_2320" data-name="패스 2320" d="M62.542,27.078v1.393h-.623V25.7h.6v.37a.85.85,0,0,1,.321-.315.89.89,0,0,1,.453-.122,1,1,0,0,1,.787.334,1.3,1.3,0,0,1,.3.893v1.609h-.63V27.023a1.188,1.188,0,0,0-.144-.655.493.493,0,0,0-.441-.213.527.527,0,0,0-.3.1.651.651,0,0,0-.223.28,1.3,1.3,0,0,0-.094.542" transform="translate(-12.17 -5.039)" fill="#464545"/>
    <path id="패스_2321" data-name="패스 2321" d="M69.613,24.369l1.347,3.853H70.3l-.387-1.133h-1.48l-.386,1.133h-.662l1.347-3.853Zm-.995,2.184h1.116l-.552-1.62Z" transform="translate(-13.245 -4.79)" fill="#464545"/>
    <path id="패스_2322" data-name="패스 2322" d="M73.337,29.577a1.837,1.837,0,0,1-1.089-.321l.188-.5a1.488,1.488,0,0,0,.9.309A.9.9,0,0,0,74,28.825a.737.737,0,0,0,.241-.537v-.166a1.077,1.077,0,0,1-.867.415,1.242,1.242,0,0,1-.983-.431,1.571,1.571,0,0,1,0-2.038,1.239,1.239,0,0,1,.983-.434,1.091,1.091,0,0,1,.844.4V25.7h.63V28a1.611,1.611,0,0,1-.392,1.183,1.512,1.512,0,0,1-1.115.392m.873-2.305a2.127,2.127,0,0,0,0-.365.873.873,0,0,0-.233-.525.723.723,0,0,0-.546-.232.689.689,0,0,0-.574.272,1.175,1.175,0,0,0,0,1.338.694.694,0,0,0,.574.265.723.723,0,0,0,.546-.232.866.866,0,0,0,.233-.52" transform="translate(-14.154 -5.039)" fill="#464545"/>
    <path id="패스_2323" data-name="패스 2323" d="M76.852,27.366a.749.749,0,0,0,.238.415,1,1,0,0,0,.7.243,1.3,1.3,0,0,0,.856-.337l.188.464a1.564,1.564,0,0,1-1.061.387,1.632,1.632,0,0,1-1.14-.4,1.346,1.346,0,0,1-.439-1.045,1.466,1.466,0,0,1,.39-1.048,1.464,1.464,0,0,1,2.033,0,1.4,1.4,0,0,1,.394,1.012,1.632,1.632,0,0,1-.028.309Zm-.01-.5h1.535a.749.749,0,0,0-.227-.495.775.775,0,0,0-1.109.019.865.865,0,0,0-.2.476" transform="translate(-14.976 -5.039)" fill="#464545"/>
    <path id="패스_2324" data-name="패스 2324" d="M80.99,27.078v1.393h-.624V25.7h.6v.37a.848.848,0,0,1,.32-.315.89.89,0,0,1,.453-.122,1,1,0,0,1,.787.334,1.305,1.305,0,0,1,.3.893v1.609h-.631V27.023a1.188,1.188,0,0,0-.143-.655.5.5,0,0,0-.442-.213.525.525,0,0,0-.3.1.643.643,0,0,0-.223.28,1.3,1.3,0,0,0-.094.542" transform="translate(-15.796 -5.039)" fill="#464545"/>
    <path id="패스_2325" data-name="패스 2325" d="M84.09,27.089a1.365,1.365,0,0,1,.451-1.025,1.585,1.585,0,0,1,1.14-.429,1.687,1.687,0,0,1,1.016.349l-.2.492a1.335,1.335,0,0,0-.812-.321.925.925,0,0,0-.69.271.913.913,0,0,0-.265.664.9.9,0,0,0,.265.66.926.926,0,0,0,.69.268A1.378,1.378,0,0,0,86.5,27.7l.2.492a1.673,1.673,0,0,1-1.028.343,1.593,1.593,0,0,1-1.14-.426,1.357,1.357,0,0,1-.451-1.023" transform="translate(-16.528 -5.039)" fill="#464545"/>
    <path id="패스_2326" data-name="패스 2326" d="M88.737,28.383l-1.088-2.665H88.3l.751,1.891.745-1.891h.647L88.9,29.566h-.641Z" transform="translate(-17.228 -5.055)" fill="#464545"/>
    <path id="패스_2327" data-name="패스 2327" d="M93.531,24.837a.757.757,0,0,1,.219-.591.96.96,0,0,1,.665-.2h.3v.5h-.182a.437.437,0,0,0-.273.075.327.327,0,0,0-.1.274v.492h.552V25.9h-.552V28.16h-.636V25.9h-.475v-.509h.475Z" transform="translate(-18.29 -4.726)" fill="#464545"/>
    <path id="패스_2328" data-name="패스 2328" d="M96.869,28.538a1.426,1.426,0,0,1-1.036-.418,1.459,1.459,0,0,1,0-2.065,1.489,1.489,0,0,1,2.074,0,1.464,1.464,0,0,1,0,2.065,1.425,1.425,0,0,1-1.038.418m0-.52a.778.778,0,0,0,.588-.263.935.935,0,0,0,.245-.666.947.947,0,0,0-.245-.666.773.773,0,0,0-1.171,0,.951.951,0,0,0-.245.666.939.939,0,0,0,.245.666.774.774,0,0,0,.583.263" transform="translate(-18.752 -5.039)" fill="#464545"/>
    <path id="패스_2329" data-name="패스 2329" d="M99.72,28.477V25.707h.591v.415a.986.986,0,0,1,.337-.316,1.059,1.059,0,0,1,.558-.143h.045v.563h-.067a.83.83,0,0,0-.623.238,1.035,1.035,0,0,0-.215.725v1.288Z" transform="translate(-19.6 -5.044)" fill="#464545"/>
    <path id="패스_2330" data-name="패스 2330" d="M105.513,24.911v3.312h-.646V24.911H103.69V24.37h3v.542Z" transform="translate(-20.381 -4.79)" fill="#464545"/>
    <path id="패스_2331" data-name="패스 2331" d="M107.865,27.366a.744.744,0,0,0,.238.415,1,1,0,0,0,.7.243,1.3,1.3,0,0,0,.856-.337l.188.464a1.564,1.564,0,0,1-1.061.387,1.632,1.632,0,0,1-1.14-.4,1.346,1.346,0,0,1-.439-1.045,1.466,1.466,0,0,1,.39-1.048,1.464,1.464,0,0,1,2.033,0,1.4,1.4,0,0,1,.395,1.012,1.634,1.634,0,0,1-.028.309Zm-.01-.5h1.535a.749.749,0,0,0-.227-.495.775.775,0,0,0-1.109.019.865.865,0,0,0-.2.476" transform="translate(-21.072 -5.039)" fill="#464545"/>
    <path id="패스_2332" data-name="패스 2332" d="M111.138,27.089a1.365,1.365,0,0,1,.451-1.025,1.585,1.585,0,0,1,1.14-.429,1.691,1.691,0,0,1,1.016.349l-.2.492a1.335,1.335,0,0,0-.812-.321.925.925,0,0,0-.69.271.913.913,0,0,0-.265.664.9.9,0,0,0,.265.66.926.926,0,0,0,.69.268,1.378,1.378,0,0,0,.823-.315l.2.492a1.671,1.671,0,0,1-1.028.343,1.593,1.593,0,0,1-1.14-.426,1.357,1.357,0,0,1-.451-1.023" transform="translate(-21.844 -5.039)" fill="#464545"/>
    <path id="패스_2333" data-name="패스 2333" d="M115.719,28.16H115.1V24.052h.623v1.67a.9.9,0,0,1,.751-.4,1,1,0,0,1,.787.334,1.3,1.3,0,0,1,.3.893V28.16h-.629V26.711a1.187,1.187,0,0,0-.145-.655.493.493,0,0,0-.441-.213.521.521,0,0,0-.3.1.657.657,0,0,0-.223.28,1.3,1.3,0,0,0-.094.542Z" transform="translate(-22.622 -4.728)" fill="#464545"/>
    <path id="패스_2334" data-name="패스 2334" d="M119.685,27.078v1.393h-.624V25.7h.6v.37a.848.848,0,0,1,.32-.315.89.89,0,0,1,.453-.122,1,1,0,0,1,.787.334,1.305,1.305,0,0,1,.3.893v1.609h-.631V27.023a1.189,1.189,0,0,0-.143-.655.5.5,0,0,0-.442-.213.527.527,0,0,0-.3.1.643.643,0,0,0-.223.28,1.3,1.3,0,0,0-.094.542" transform="translate(-23.402 -5.039)" fill="#464545"/>
    <path id="패스_2335" data-name="패스 2335" d="M124.248,28.538a1.424,1.424,0,0,1-1.035-.418,1.457,1.457,0,0,1,0-2.065,1.489,1.489,0,0,1,2.074,0,1.466,1.466,0,0,1,0,2.065,1.426,1.426,0,0,1-1.039.418m0-.52a.775.775,0,0,0,.588-.263.936.936,0,0,0,.246-.666.948.948,0,0,0-.246-.666.772.772,0,0,0-1.171,0,.948.948,0,0,0-.246.666.936.936,0,0,0,.246.666.771.771,0,0,0,.583.263" transform="translate(-24.133 -5.039)" fill="#464545"/>
    <rect id="사각형_150254" data-name="사각형 150254" width="0.623" height="4.108" transform="translate(102.118 19.325)" fill="#464545"/>
    <path id="패스_2336" data-name="패스 2336" d="M130.025,28.538a1.424,1.424,0,0,1-1.035-.418,1.457,1.457,0,0,1,0-2.065,1.489,1.489,0,0,1,2.074,0,1.466,1.466,0,0,1,0,2.065,1.425,1.425,0,0,1-1.039.418m0-.52a.775.775,0,0,0,.588-.263.936.936,0,0,0,.246-.666.948.948,0,0,0-.246-.666.773.773,0,0,0-1.171,0,.948.948,0,0,0-.246.666.936.936,0,0,0,.246.666.771.771,0,0,0,.582.263" transform="translate(-25.269 -5.039)" fill="#464545"/>
    <path id="패스_2337" data-name="패스 2337" d="M133.962,29.577a1.838,1.838,0,0,1-1.089-.321l.189-.5a1.485,1.485,0,0,0,.9.309.9.9,0,0,0,.66-.237.739.739,0,0,0,.24-.537v-.166a1.078,1.078,0,0,1-.867.415,1.244,1.244,0,0,1-.984-.431,1.571,1.571,0,0,1,0-2.038,1.241,1.241,0,0,1,.984-.434,1.091,1.091,0,0,1,.844.4V25.7h.63V28a1.615,1.615,0,0,1-.392,1.183,1.512,1.512,0,0,1-1.116.392m.873-2.305a2.128,2.128,0,0,0,0-.365.881.881,0,0,0-.231-.525.729.729,0,0,0-.548-.232.686.686,0,0,0-.574.272,1.168,1.168,0,0,0,0,1.338.692.692,0,0,0,.574.265.729.729,0,0,0,.548-.232.874.874,0,0,0,.231-.52" transform="translate(-26.07 -5.039)" fill="#464545"/>
    <path id="패스_2338" data-name="패스 2338" d="M137.69,28.383,136.6,25.717h.652L138,27.609l.745-1.891h.646l-1.54,3.849h-.64Z" transform="translate(-26.849 -5.055)" fill="#464545"/>
    <path id="패스_2339" data-name="패스 2339" d="M143.47,26.686h.652a.453.453,0,0,0-.21-.407,1.129,1.129,0,0,0-.607-.135h-.017a2.039,2.039,0,0,0-.795.177l-.161-.492a2.462,2.462,0,0,1,.961-.194h.011a1.813,1.813,0,0,1,1.068.268.981.981,0,0,1,.373.855v1.714h-.6v-.3a1.2,1.2,0,0,1-.434.274,1.48,1.48,0,0,1-.522.1,1.2,1.2,0,0,1-.8-.263.818.818,0,0,1-.307-.644.837.837,0,0,1,.382-.7,1.759,1.759,0,0,1,1.005-.243m-.171,1.355a1.055,1.055,0,0,0,.48-.119.874.874,0,0,0,.343-.273v-.47h-.558a1.3,1.3,0,0,0-.662.121.409.409,0,0,0-.182.332.356.356,0,0,0,.154.293.7.7,0,0,0,.426.116" transform="translate(-27.927 -5.039)" fill="#464545"/>
    <path id="패스_2340" data-name="패스 2340" d="M146.927,27.078v1.393H146.3V25.7h.6v.37a.848.848,0,0,1,.32-.315.89.89,0,0,1,.453-.122,1,1,0,0,1,.787.334,1.305,1.305,0,0,1,.3.893v1.609h-.631V27.023a1.2,1.2,0,0,0-.142-.655.5.5,0,0,0-.443-.213.527.527,0,0,0-.3.1.643.643,0,0,0-.223.28,1.3,1.3,0,0,0-.094.542" transform="translate(-28.756 -5.039)" fill="#464545"/>
    <path id="패스_2341" data-name="패스 2341" d="M151.385,25.324a1.091,1.091,0,0,1,.844.4v-1.67h.63V28.16h-.607v-.348a1.089,1.089,0,0,1-.867.415,1.244,1.244,0,0,1-.984-.431,1.571,1.571,0,0,1,0-2.038,1.241,1.241,0,0,1,.984-.434m.839,1.631a2,2,0,0,0,0-.354.879.879,0,0,0-.231-.525.726.726,0,0,0-.548-.232.689.689,0,0,0-.574.268,1.048,1.048,0,0,0-.21.666,1.034,1.034,0,0,0,.21.666.7.7,0,0,0,.574.263.726.726,0,0,0,.548-.232.876.876,0,0,0,.231-.52" transform="translate(-29.488 -4.728)" fill="#464545"/>
    <path id="패스_2342" data-name="패스 2342" d="M156.272,27.427,156.7,27a1.264,1.264,0,0,0,.431.537,1.017,1.017,0,0,0,.568.188.846.846,0,0,0,.52-.161.479.479,0,0,0,.215-.409.423.423,0,0,0-.219-.368,2.627,2.627,0,0,0-.472-.24q-.254-.094-.53-.2a1.324,1.324,0,0,1-.632-.42.913.913,0,0,1-.19-.548.967.967,0,0,1,.381-.766,1.414,1.414,0,0,1,.934-.317,1.439,1.439,0,0,1,.944.3.775.775,0,0,1,.26.321l-.386.409a.917.917,0,0,0-.182-.227.962.962,0,0,0-.668-.254.706.706,0,0,0-.428.135.429.429,0,0,0-.185.362q0,.342.75.608c.092.03.188.063.287.1a2.054,2.054,0,0,1,.754.456.9.9,0,0,1,.251.649,1,1,0,0,1-.391.791,1.466,1.466,0,0,1-1,.337,1.611,1.611,0,0,1-.934-.255,1.357,1.357,0,0,1-.5-.591" transform="translate(-30.716 -4.774)" fill="#464545"/>
    <path id="패스_2343" data-name="패스 2343" d="M161.017,24.61v.89h.6v.509h-.6v1.41a.33.33,0,0,0,.1.273.441.441,0,0,0,.274.075h.232v.5h-.382a.907.907,0,0,1-.652-.2.794.794,0,0,1-.2-.592v-1.47h-.474V25.5h.474v-.89Z" transform="translate(-31.43 -4.837)" fill="#464545"/>
    <path id="패스_2344" data-name="패스 2344" d="M163.834,26.686h.652a.453.453,0,0,0-.21-.407,1.127,1.127,0,0,0-.607-.135h-.017a2.039,2.039,0,0,0-.795.177l-.161-.492a2.462,2.462,0,0,1,.961-.194h.011a1.813,1.813,0,0,1,1.068.268.981.981,0,0,1,.373.855v1.714h-.6v-.3a1.2,1.2,0,0,1-.434.274,1.48,1.48,0,0,1-.522.1,1.2,1.2,0,0,1-.8-.263.818.818,0,0,1-.307-.644.837.837,0,0,1,.382-.7,1.759,1.759,0,0,1,1.005-.243m-.171,1.355a1.055,1.055,0,0,0,.48-.119.874.874,0,0,0,.343-.273v-.47h-.558a1.3,1.3,0,0,0-.662.121.408.408,0,0,0-.182.332.356.356,0,0,0,.154.293.7.7,0,0,0,.426.116" transform="translate(-31.929 -5.039)" fill="#464545"/>
    <path id="패스_2345" data-name="패스 2345" d="M167.291,27.078v1.393h-.623V25.7h.6v.37a.85.85,0,0,1,.321-.315.89.89,0,0,1,.453-.122,1,1,0,0,1,.787.334,1.3,1.3,0,0,1,.3.893v1.609h-.63V27.023a1.188,1.188,0,0,0-.144-.655.493.493,0,0,0-.441-.213.527.527,0,0,0-.3.1.651.651,0,0,0-.223.28,1.3,1.3,0,0,0-.094.542" transform="translate(-32.759 -5.039)" fill="#464545"/>
    <path id="패스_2346" data-name="패스 2346" d="M171.75,25.324a1.091,1.091,0,0,1,.844.4v-1.67h.629V28.16h-.607v-.348a1.088,1.088,0,0,1-.867.415,1.242,1.242,0,0,1-.983-.431,1.571,1.571,0,0,1,0-2.038,1.239,1.239,0,0,1,.983-.434m.84,1.631a2,2,0,0,0,0-.354.871.871,0,0,0-.233-.525.72.72,0,0,0-.546-.232.689.689,0,0,0-.574.268,1.047,1.047,0,0,0-.209.666,1.033,1.033,0,0,0,.209.666.7.7,0,0,0,.574.263.72.72,0,0,0,.546-.232.868.868,0,0,0,.233-.52" transform="translate(-33.491 -4.728)" fill="#464545"/>
    <path id="패스_2347" data-name="패스 2347" d="M175.962,26.686h.652a.453.453,0,0,0-.21-.407,1.129,1.129,0,0,0-.607-.135h-.017a2.039,2.039,0,0,0-.795.177l-.161-.492a2.462,2.462,0,0,1,.961-.194h.011a1.813,1.813,0,0,1,1.068.268.981.981,0,0,1,.373.855v1.714h-.6v-.3a1.2,1.2,0,0,1-.434.274,1.48,1.48,0,0,1-.522.1,1.2,1.2,0,0,1-.8-.263.818.818,0,0,1-.307-.644.837.837,0,0,1,.382-.7,1.759,1.759,0,0,1,1.005-.243m-.171,1.355a1.056,1.056,0,0,0,.48-.119.874.874,0,0,0,.343-.273v-.47h-.558a1.3,1.3,0,0,0-.662.121.408.408,0,0,0-.182.332.356.356,0,0,0,.154.293.7.7,0,0,0,.426.116" transform="translate(-34.313 -5.039)" fill="#464545"/>
    <path id="패스_2348" data-name="패스 2348" d="M178.794,28.477V25.707h.591v.415a.978.978,0,0,1,.337-.316,1.059,1.059,0,0,1,.558-.143h.045v.563h-.067a.833.833,0,0,0-.624.238,1.039,1.039,0,0,0-.215.725v1.288Z" transform="translate(-35.142 -5.044)" fill="#464545"/>
    <path id="패스_2349" data-name="패스 2349" d="M182.3,25.324a1.091,1.091,0,0,1,.844.4v-1.67h.63V28.16h-.607v-.348a1.089,1.089,0,0,1-.867.415,1.244,1.244,0,0,1-.984-.431,1.571,1.571,0,0,1,0-2.038,1.241,1.241,0,0,1,.984-.434m.839,1.631a2,2,0,0,0,0-.354.879.879,0,0,0-.231-.525.726.726,0,0,0-.548-.232.689.689,0,0,0-.574.268,1.048,1.048,0,0,0-.21.666,1.034,1.034,0,0,0,.21.666.7.7,0,0,0,.574.263.726.726,0,0,0,.548-.232.876.876,0,0,0,.231-.52" transform="translate(-35.565 -4.728)" fill="#464545"/>
    <path id="패스_2350" data-name="패스 2350" d="M185.053,27.957l.392-.4a1.363,1.363,0,0,0,.365.354.785.785,0,0,0,.415.117.693.693,0,0,0,.356-.086.258.258,0,0,0,.146-.229.246.246,0,0,0-.141-.224,2.156,2.156,0,0,0-.334-.152q-.225-.072-.464-.161a1.046,1.046,0,0,1-.468-.3.636.636,0,0,1-.15-.415.714.714,0,0,1,.321-.583A1.356,1.356,0,0,1,187,25.856a.87.87,0,0,1,.238.288l-.386.376a.757.757,0,0,0-.182-.215.668.668,0,0,0-.459-.161.484.484,0,0,0-.279.08.229.229,0,0,0-.119.19.24.24,0,0,0,.133.2,1.641,1.641,0,0,0,.392.16l.215.067a1.5,1.5,0,0,1,.61.343.69.69,0,0,1,.206.5.734.734,0,0,1-.331.595,1.361,1.361,0,0,1-.844.251,1.452,1.452,0,0,1-.762-.2,1.169,1.169,0,0,1-.382-.382" transform="translate(-36.373 -5.039)" fill="#464545"/>
    <path id="패스_2351" data-name="패스 2351" d="M47.943,12.759V11.174H43.63v-1.2h9.99v1.2H49.3v1.585h3.522v3.794H51.464v-2.61H44.312V12.759Zm4.849-6.891V9.112H51.44V7.064H44.409v-1.2Z" transform="translate(-8.576 -1.153)" fill="#464545"/>
    <path id="패스_2352" data-name="패스 2352" d="M62.8,15.047H61.456V7.485H57.4V6.265h5.4Zm3.727-5.233h1.56v1.354h-1.56v5.306h-1.34V5.594h1.34Z" transform="translate(-11.282 -1.1)" fill="#464545"/>
    <path id="패스_2353" data-name="패스 2353" d="M77.4,15.048H76.048V7.486H71.881V6.266H77.4Zm2.716-9.453H81.47v10.88H80.117Z" transform="translate(-14.128 -1.1)" fill="#464545"/>
    <path id="패스_2354" data-name="패스 2354" d="M90.434,11.716v-.842H86.12V9.765h9.99v1.11H91.786v.842h3.521v2.757H88.252v.659h7.2v1.11H86.924v-2.83h7.041V12.79H86.924V11.716Zm.682-4.891-3.8,2.7-.8-.939,4.606-3.244,4.605,3.244-.8.939Z" transform="translate(-16.927 -1.049)" fill="#464545"/>
    <path id="패스_2355" data-name="패스 2355" d="M100.966,6.293h8.627V7.476h-1.437v3.452h1.437V12.1h-1.73v2.513h2.412v1.2h-9.99v-1.2H102.7V12.1h-1.731V10.928h1.426V7.476h-1.426Zm5.886,1.183h-3.144v3.452h3.144Zm-.329,4.622h-2.485v2.512h2.485Z" transform="translate(-19.711 -1.237)" fill="#464545"/>
    <path id="패스_2356" data-name="패스 2356" d="M124.439,10.958v1.183h-4.277V13.91h-1.351V12.141h-4.362V10.958Zm-.706-4.025h-3.7l3.983,2.733-.779.939-3.789-2.6-3.789,2.6-.78-.939,3.984-2.733h-3.7V5.762h8.578ZM116.6,13.117v2.013h7.164v1.2h-8.516V13.117Z" transform="translate(-22.495 -1.133)" fill="#464545"/>
    <path id="패스_2357" data-name="패스 2357" d="M135.775,12.1H132.9v1.647h-1.352V12.1h-3V10.905h7.225Zm-6.481,4.159v-3.11h1.34v1.927h7.481v1.183Zm5.519-8.307a2.211,2.211,0,0,1-.219.976,2.976,2.976,0,0,1-.574.805,2.884,2.884,0,0,1-3.849,0,2.959,2.959,0,0,1-.574-.805,2.212,2.212,0,0,1-.219-.976,2.251,2.251,0,0,1,.219-.981,2.942,2.942,0,0,1,.574-.811,2.884,2.884,0,0,1,3.849,0,2.959,2.959,0,0,1,.574.811,2.25,2.25,0,0,1,.219.981m-1.3,0a1.294,1.294,0,0,0-.42-.981,1.441,1.441,0,0,0-1.986,0,1.345,1.345,0,0,0,0,1.952,1.443,1.443,0,0,0,1.986,0,1.281,1.281,0,0,0,.42-.971m3.132-2.39h1.34v8.307h-1.34V9.856h-1.51V8.685h1.51Z" transform="translate(-25.267 -1.067)" fill="#464545"/>
  </g>
</svg>
