<svg xmlns="http://www.w3.org/2000/svg" width="18" height="18" viewBox="0 0 18 18">
  <path id="패스_2437" data-name="패스 2437" d="M111.855,52.571a.429.429,0,0,1-.429.429h-4.286a.429.429,0,0,1-.428-.429V44.429h-1.286a.429.429,0,0,1-.3-.732l8.571-8.571a.428.428,0,0,1,.606,0l8.571,8.571a.429.429,0,0,1-.3.732h-1.286v8.143a.429.429,0,0,1-.428.429h-4.286a.429.429,0,0,1-.429-.429V47.428a.429.429,0,0,0-.428-.428h-3.429a.429.429,0,0,0-.428.428v5.143Z" transform="translate(-104.998 -35)" fill="#202020" fill-rule="evenodd"/>
</svg>
