<svg xmlns="http://www.w3.org/2000/svg" xmlns:xlink="http://www.w3.org/1999/xlink" width="291.925" height="243.334" viewBox="0 0 291.925 243.334">
  <defs>
    <clipPath id="clip-path">
      <rect id="사각형_153138" data-name="사각형 153138" width="43.516" height="43.516" fill="#c3d4e8"/>
    </clipPath>
    <clipPath id="clip-path-2">
      <rect id="사각형_153137" data-name="사각형 153137" width="121.793" height="101.347" fill="#c3d4e8"/>
    </clipPath>
    <clipPath id="clip-path-3">
      <rect id="사각형_153144" data-name="사각형 153144" width="30.705" height="32.514" fill="none"/>
    </clipPath>
    <clipPath id="clip-path-4">
      <rect id="사각형_153147" data-name="사각형 153147" width="144" height="120" transform="translate(-0.419 0.333)" fill="none"/>
    </clipPath>
    <clipPath id="clip-path-5">
      <rect id="사각형_153146" data-name="사각형 153146" width="30.671" height="12.519" fill="#202020"/>
    </clipPath>
    <clipPath id="clip-path-6">
      <path id="패스_86377" data-name="패스 86377" d="M240.085,559.753a5.649,5.649,0,0,0-5.65,5.649v.036h48.329V565.4a5.649,5.649,0,0,0-5.65-5.649Z" transform="translate(-234.435 -559.753)" fill="none"/>
    </clipPath>
    <clipPath id="clip-path-7">
      <rect id="사각형_153152" data-name="사각형 153152" width="136.067" height="71.738" rx="13.061" fill="#e4e8ef"/>
    </clipPath>
    <clipPath id="clip-path-9">
      <rect id="사각형_153153" data-name="사각형 153153" width="135.918" height="71.7" fill="#1c1c1c"/>
    </clipPath>
    <clipPath id="clip-path-10">
      <rect id="사각형_153154" data-name="사각형 153154" width="92.471" height="71.858" fill="none"/>
    </clipPath>
    <clipPath id="clip-path-11">
      <rect id="사각형_153156" data-name="사각형 153156" width="44.769" height="40.123" fill="none"/>
    </clipPath>
  </defs>
  <g id="그룹_167750" data-name="그룹 167750" transform="translate(-28.075 28.333)">
    <g id="그룹_167749" data-name="그룹 167749">
      <g id="그룹_167721" data-name="그룹 167721" transform="translate(136.448 -28.333)" clip-path="url(#clip-path)">
        <path id="패스_86367" data-name="패스 86367" d="M43.516,22.928V20.587l-3.623-.56L39.54,17.8l3.273-1.652-.723-2.226-3.619.587L37.446,12.5l2.6-2.583L38.672,8.022,35.412,9.7,33.817,8.1l1.677-3.26L33.6,3.467l-2.583,2.6-2.01-1.024.587-3.619L27.368.7,25.716,3.976l-2.228-.353L22.928,0H20.587l-.56,3.623L17.8,3.976,16.147.7l-2.226.723.587,3.619L12.5,6.069l-2.583-2.6L8.022,4.843,9.7,8.1,8.1,9.7,4.843,8.022,3.467,9.916l2.6,2.583-1.024,2.01-3.619-.587L.7,16.147,3.976,17.8l-.353,2.228L0,20.587v2.341l3.623.56.353,2.228L.7,27.368l.723,2.226,3.619-.587,1.024,2.01L3.467,33.6l1.376,1.894L8.1,33.817,9.7,35.412l-1.677,3.26,1.894,1.376,2.583-2.6,2.01,1.024-.587,3.619,2.226.723L17.8,39.54l2.228.353.56,3.623h2.341l.56-3.623,2.228-.353,1.652,3.273,2.226-.723-.587-3.619,2.01-1.024,2.583,2.6,1.894-1.376-1.677-3.26,1.595-1.595,3.26,1.677L40.048,33.6l-2.6-2.583,1.024-2.01,3.619.587.723-2.226L39.54,25.716l.353-2.228ZM9.165,24.556a1.276,1.276,0,0,1-1.914-1.1V20.064a1.276,1.276,0,0,1,1.914-1.1L12.1,20.653a1.276,1.276,0,0,1,0,2.21Zm6.544,4.813-.877,3.272a1.276,1.276,0,0,1-2.135.572l-2.4-2.4a1.276,1.276,0,0,1,.572-2.135l3.272-.877a1.276,1.276,0,0,1,1.562,1.563M14.146,15.709l-3.272-.877A1.276,1.276,0,0,1,10.3,12.7l2.4-2.4a1.276,1.276,0,0,1,2.135.572l.877,3.272a1.276,1.276,0,0,1-1.562,1.562m5.918-8.458h3.387a1.276,1.276,0,0,1,1.1,1.914L22.863,12.1a1.276,1.276,0,0,1-2.21,0L18.959,9.165a1.276,1.276,0,0,1,1.1-1.914m3.387,29.014H20.064a1.276,1.276,0,0,1-1.1-1.914l1.694-2.933a1.276,1.276,0,0,1,2.21,0l1.694,2.933a1.276,1.276,0,0,1-1.1,1.914M21.758,25.8A4.039,4.039,0,1,1,25.8,21.758,4.039,4.039,0,0,1,21.758,25.8m6.049-11.651.877-3.272a1.276,1.276,0,0,1,2.134-.572l2.4,2.4a1.276,1.276,0,0,1-.572,2.135l-3.272.877a1.276,1.276,0,0,1-1.563-1.562m5.406,16.672-2.4,2.4a1.276,1.276,0,0,1-2.134-.572l-.877-3.272a1.276,1.276,0,0,1,1.563-1.563l3.272.877a1.276,1.276,0,0,1,.572,2.135m3.051-7.367a1.276,1.276,0,0,1-1.914,1.1l-2.933-1.694a1.276,1.276,0,0,1,0-2.21l2.933-1.694a1.276,1.276,0,0,1,1.914,1.1Z" transform="translate(0 0)" fill="#c3d4e8"/>
      </g>
      <g id="그룹_167722" data-name="그룹 167722" transform="translate(28.075 71.03)">
        <path id="패스_86361" data-name="패스 86361" d="M37.795,65.434l-.516-5.658L33.7,59.189a15.564,15.564,0,0,0-2.19-4.169l1.546-3.279-4.366-3.636-2.945,2.114a15.57,15.57,0,0,0-4.5-1.4l-1.224-3.411-5.658.516L13.781,49.5a15.569,15.569,0,0,0-4.169,2.191L6.333,50.145,2.7,54.51l2.114,2.944a15.572,15.572,0,0,0-1.4,4.5L0,63.176l.516,5.658,3.577.587a15.575,15.575,0,0,0,2.191,4.17L4.737,76.87,9.1,80.505l2.944-2.114a15.571,15.571,0,0,0,4.5,1.4L17.768,83.2l5.658-.516.587-3.577a15.565,15.565,0,0,0,4.17-2.19l3.278,1.546L35.1,74.1l-2.114-2.945a15.569,15.569,0,0,0,1.4-4.5ZM19.555,71.52a7.245,7.245,0,1,1,6.557-7.873,7.245,7.245,0,0,1-6.557,7.873" transform="translate(0 -45.408)" fill="#c3d4e8"/>
      </g>
      <g id="그룹_167720" data-name="그룹 167720" transform="translate(198.207 38.998)" clip-path="url(#clip-path-2)">
        <path id="패스_86362" data-name="패스 86362" d="M51.815,186.12a23.346,23.346,0,0,0-1.229-6.956l3.7-3.979L49.712,168l-5.171,1.678a23.351,23.351,0,0,0-5.787-4.051l-.194-5.433L30.24,158.35l-2.47,4.842a23.355,23.355,0,0,0-6.956,1.229l-3.979-3.7L9.649,165.3l1.678,5.171a23.354,23.354,0,0,0-4.051,5.787l-5.433.194L0,184.768l4.842,2.47a23.356,23.356,0,0,0,1.229,6.956l-3.7,3.979,4.58,7.186,5.171-1.678a23.346,23.346,0,0,0,5.787,4.051l.194,5.433,8.319,1.843,2.47-4.843a23.345,23.345,0,0,0,6.956-1.229l3.979,3.7,7.186-4.58-1.678-5.171a23.351,23.351,0,0,0,4.051-5.787l5.433-.194,1.843-8.319Z" transform="translate(0 -135.041)" fill="#c3d4e8"/>
        <path id="패스_86363" data-name="패스 86363" d="M284.55,11.2a13.508,13.508,0,0,0-2.12-3.493l1.164-2.922-3.975-2.915-2.437,1.988a13.508,13.508,0,0,0-3.969-.972L271.971,0,267.1.749l-.317,3.129A13.506,13.506,0,0,0,263.288,6l-2.922-1.164-2.915,3.975,1.988,2.437a13.508,13.508,0,0,0-.972,3.969l-2.889,1.243.749,4.872,3.129.317a13.507,13.507,0,0,0,2.12,3.493l-1.164,2.922,3.975,2.915,2.437-1.988a13.5,13.5,0,0,0,3.969.972l1.243,2.888,4.872-.749.317-3.128a13.509,13.509,0,0,0,3.493-2.12l2.922,1.164,2.915-3.975L284.567,21.6a13.514,13.514,0,0,0,.972-3.969l2.888-1.243-.749-4.872Z" transform="translate(-217.959)" fill="#c3d4e8"/>
        <path id="패스_86364" data-name="패스 86364" d="M502.988,399.4a16.076,16.076,0,1,0-21.66-6.907,16.075,16.075,0,0,0,21.66,6.907M492.1,384l-2.365-7.97,1.875-.968,5.129,6.543,7.97-2.365.968,1.875-6.543,5.129,2.365,7.97-1.875.968-5.129-6.543L486.521,391l-.968-1.875Z" transform="translate(-408.948 -314.717)" fill="#c3d4e8"/>
        <path id="패스_86365" data-name="패스 86365" d="M420.256,328.535l7.079-3.656-2-6.238a25.117,25.117,0,0,0,6.18-7.322l6.488.933,2.421-7.59-5.831-3a25.113,25.113,0,0,0-.8-9.547l5.244-3.926-3.656-7.079-6.238,2a25.116,25.116,0,0,0-7.322-6.18l.933-6.488-7.591-2.421-3,5.831a25.116,25.116,0,0,0-9.548.8l-3.926-5.244-7.079,3.656,2,6.238a25.115,25.115,0,0,0-6.179,7.322l-6.488-.933-2.421,7.591,5.831,3a25.113,25.113,0,0,0,.8,9.548l-5.244,3.926,3.656,7.079,6.238-2a25.112,25.112,0,0,0,7.322,6.18L396.2,327.5l7.591,2.421,3-5.831a25.114,25.114,0,0,0,9.547-.8ZM401.18,282.918a18.073,18.073,0,1,1-7.766,24.35,18.073,18.073,0,0,1,7.766-24.35" transform="translate(-322.807 -228.576)" fill="#c3d4e8"/>
        <path id="패스_86366" data-name="패스 86366" d="M741.593,213.616a7.407,7.407,0,1,1-7.406-7.407,7.407,7.407,0,0,1,7.406,7.407" transform="translate(-619.8 -175.856)" fill="#c3d4e8"/>
      </g>
      <g id="그룹_167748" data-name="그룹 167748" transform="translate(-1181.981 -278.334)">
        <g id="그룹_167727" data-name="그룹 167727" transform="translate(1326.564 457.044)">
          <g id="그룹_167726" data-name="그룹 167726" transform="translate(0 0)" clip-path="url(#clip-path-3)">
            <rect id="사각형_153143" data-name="사각형 153143" width="30.705" height="32.514" fill="#545454"/>
          </g>
        </g>
        <g id="그룹_167732" data-name="그룹 167732" transform="translate(1270.4 373.001)">
          <g id="그룹_167731" data-name="그룹 167731" transform="translate(0 0)" clip-path="url(#clip-path-4)">
            <g id="그룹_167730" data-name="그룹 167730" transform="translate(56.181 83.982)" opacity="0.77" style="mix-blend-mode: multiply;isolation: isolate">
              <g id="그룹_167729" data-name="그룹 167729">
                <g id="그룹_167728" data-name="그룹 167728" clip-path="url(#clip-path-5)">
                  <rect id="사각형_153145" data-name="사각형 153145" width="30.671" height="12.519" fill="#202020"/>
                </g>
              </g>
            </g>
          </g>
        </g>
        <g id="그룹_167733" data-name="그룹 167733" transform="translate(1317.752 487.64)" clip-path="url(#clip-path-6)">
          <rect id="사각형_153148" data-name="사각형 153148" width="48.329" height="5.685" transform="translate(0 0)" fill="#545454"/>
        </g>
        <rect id="사각형_153149" data-name="사각형 153149" width="55.115" height="57.058" transform="translate(1309.318 393.71)" fill="none"/>
        <rect id="사각형_153150" data-name="사각형 153150" width="55.115" height="57.058" transform="translate(1309.318 393.71)" fill="none"/>
        <rect id="사각형_153151" data-name="사각형 153151" width="144" height="90" rx="3" transform="translate(1269.981 376.334)" fill="#545454"/>
        <g id="그룹_167735" data-name="그룹 167735" transform="translate(1273.947 380.042)">
          <g id="그룹_167734" data-name="그룹 167734" transform="translate(0 0)" clip-path="url(#clip-path-7)">
            <path id="패스_86378" data-name="패스 86378" d="M.087.087,147.055,0l-.087,146.967L0,147.055Z" transform="translate(-35.95 35.869) rotate(-45)" fill="#e4e8ef"/>
          </g>
        </g>
        <g id="그룹_167743" data-name="그룹 167743" transform="translate(1270.4 373.001)">
          <g id="그룹_167742" data-name="그룹 167742" transform="translate(0 0)" clip-path="url(#clip-path-4)">
            <g id="그룹_167738" data-name="그룹 167738" transform="translate(3.636 6.933)" opacity="0.77" style="mix-blend-mode: multiply;isolation: isolate">
              <g id="그룹_167737" data-name="그룹 167737">
                <g id="그룹_167736" data-name="그룹 167736" clip-path="url(#clip-path-9)">
                  <path id="패스_86379" data-name="패스 86379" d="M153.981,36.144a1.458,1.458,0,0,0-1.456-1.458H19.846A2.681,2.681,0,0,1,22.371,32.9H153.082a2.685,2.685,0,0,1,2.683,2.687V102.07a2.685,2.685,0,0,1-1.784,2.529Z" transform="translate(-19.846 -32.899)" fill="#1c1c1c"/>
                </g>
              </g>
            </g>
            <path id="패스_86380" data-name="패스 86380" d="M338.01,410.739a3.024,3.024,0,1,0,3.024-3.029,3.026,3.026,0,0,0-3.024,3.029" transform="translate(-269.517 -324.16)" fill="#fff"/>
            <g id="그룹_167741" data-name="그룹 167741" transform="translate(3.479 6.933)" opacity="0.45" style="mix-blend-mode: screen;isolation: isolate">
              <g id="그룹_167740" data-name="그룹 167740">
                <g id="그룹_167739" data-name="그룹 167739" clip-path="url(#clip-path-10)">
                  <path id="패스_86381" data-name="패스 86381" d="M21.755,32.9h89.789L39.8,104.756H21.755a2.685,2.685,0,0,1-2.683-2.687V35.585A2.685,2.685,0,0,1,21.755,32.9" transform="translate(-19.072 -32.898)" fill="#fff"/>
                </g>
              </g>
            </g>
          </g>
        </g>
        <g id="그룹_167746" data-name="그룹 167746" transform="translate(1318.005 395.369)" style="mix-blend-mode: overlay;isolation: isolate">
          <g id="그룹_167745" data-name="그룹 167745">
            <g id="그룹_167744" data-name="그룹 167744" clip-path="url(#clip-path-11)">
              <path id="패스_86382" data-name="패스 86382" d="M161.049,63.311H126.5a5.1,5.1,0,0,1-4.417-7.65l17.276-29.923a5.049,5.049,0,0,1,4.417-2.55h0a5.049,5.049,0,0,1,4.417,2.55l17.276,29.923a5.1,5.1,0,0,1-4.417,7.65m-19.4-36.251L124.371,56.983a2.456,2.456,0,0,0,2.127,3.684h34.552a2.456,2.456,0,0,0,2.127-3.684l-1.947-3.372L145.9,27.06a2.456,2.456,0,0,0-4.254,0" transform="translate(-121.389 -23.188)" fill="#1c1c1c"/>
              <path id="패스_86383" data-name="패스 86383" d="M392.892,174.544h0a3.193,3.193,0,0,1,3.171,3.572l-1.4,11.731a1.79,1.79,0,0,1-3.554,0l-1.384-11.734a3.193,3.193,0,0,1,3.171-3.567" transform="translate(-370.498 -163.713)" fill="#1c1c1c"/>
              <path id="패스_86384" data-name="패스 86384" d="M399.466,433.568a2.586,2.586,0,1,1,1.809.738,2.46,2.46,0,0,1-1.809-.738" transform="translate(-378.882 -400.156)" fill="#1c1c1c"/>
            </g>
          </g>
        </g>
        <g id="그룹_167747" data-name="그룹 167747" transform="translate(1319.62 395.866)">
          <path id="패스_86385" data-name="패스 86385" d="M184.238,40.123H149.686a5.1,5.1,0,0,1-4.417-7.65L162.545,2.55A5.049,5.049,0,0,1,166.962,0h0a5.049,5.049,0,0,1,4.417,2.55l17.276,29.923a5.1,5.1,0,0,1-4.417,7.65m-19.4-36.251L147.559,33.8a2.456,2.456,0,0,0,2.127,3.684h34.552a2.456,2.456,0,0,0,2.127-3.684L169.088,3.872a2.456,2.456,0,0,0-4.254,0" transform="translate(-144.577 0)" fill="#f65858"/>
          <path id="패스_86386" data-name="패스 86386" d="M416.079,151.355h0a3.193,3.193,0,0,1,3.171,3.572l-1.4,11.731a1.79,1.79,0,0,1-3.554,0l-1.384-11.733a3.193,3.193,0,0,1,3.171-3.567" transform="translate(-393.686 -140.524)" fill="#f65858"/>
          <path id="패스_86387" data-name="패스 86387" d="M422.653,410.379a2.586,2.586,0,1,1,1.809.738,2.46,2.46,0,0,1-1.809-.738" transform="translate(-402.069 -376.967)" fill="#f65858"/>
        </g>
      </g>
    </g>
  </g>
</svg>
