<svg xmlns="http://www.w3.org/2000/svg" xmlns:xlink="http://www.w3.org/1999/xlink" width="40" height="52" viewBox="0 0 40 52">
  <defs>
    <clipPath id="clip-path">
      <rect width="40" height="52" fill="none"/>
    </clipPath>
    <clipPath id="clip-path-2">
      <rect id="사각형_150614" data-name="사각형 150614" width="40" height="52" fill="#bad1fe"/>
    </clipPath>
  </defs>
  <g id="반복_그리드_1" data-name="반복 그리드 1" clip-path="url(#clip-path)">
    <g id="그룹_165513" data-name="그룹 165513" transform="translate(-602.927 -331.5)">
      <g id="그룹_165512" data-name="그룹 165512" transform="translate(602.927 331.5)">
        <g id="그룹_165511" data-name="그룹 165511" clip-path="url(#clip-path-2)">
          <path id="패스_83242" data-name="패스 83242" d="M2.273,4.562A2.281,2.281,0,1,1,4.545,2.281,2.277,2.277,0,0,1,2.273,4.562" fill="#bad1fe"/>
          <path id="패스_83243" data-name="패스 83243" d="M2.273,523.354a2.281,2.281,0,1,1,2.273-2.281,2.277,2.277,0,0,1-2.273,2.281" transform="translate(0 -471.354)" fill="#bad1fe"/>
          <path id="패스_83244" data-name="패스 83244" d="M67.094,4.562a2.281,2.281,0,1,1,2.273-2.281,2.277,2.277,0,0,1-2.273,2.281" transform="translate(-58.914)" fill="#bad1fe"/>
          <path id="패스_83245" data-name="패스 83245" d="M67.094,69.384A2.281,2.281,0,1,1,69.366,67.1a2.277,2.277,0,0,1-2.273,2.281" transform="translate(-58.914 -58.895)" fill="#bad1fe"/>
          <path id="패스_83246" data-name="패스 83246" d="M67.094,458.479a2.281,2.281,0,1,1,2.273-2.281,2.277,2.277,0,0,1-2.273,2.281" transform="translate(-58.914 -412.411)" fill="#bad1fe"/>
          <path id="패스_83247" data-name="패스 83247" d="M67.094,523.354a2.281,2.281,0,1,1,2.273-2.281,2.277,2.277,0,0,1-2.273,2.281" transform="translate(-58.914 -471.354)" fill="#bad1fe"/>
          <path id="패스_83248" data-name="패스 83248" d="M131.969,4.562a2.281,2.281,0,1,1,2.273-2.281,2.277,2.277,0,0,1-2.273,2.281" transform="translate(-117.878)" fill="#bad1fe"/>
          <path id="패스_83249" data-name="패스 83249" d="M131.969,69.384a2.281,2.281,0,1,1,2.273-2.281,2.277,2.277,0,0,1-2.273,2.281" transform="translate(-117.878 -58.895)" fill="#bad1fe"/>
          <path id="패스_83250" data-name="패스 83250" d="M131.969,134.261a2.281,2.281,0,1,1,2.273-2.281,2.277,2.277,0,0,1-2.273,2.281" transform="translate(-117.878 -117.839)" fill="#bad1fe"/>
          <path id="패스_83251" data-name="패스 83251" d="M131.969,393.655a2.281,2.281,0,1,1,2.273-2.281,2.277,2.277,0,0,1-2.273,2.281" transform="translate(-117.878 -353.515)" fill="#bad1fe"/>
          <path id="패스_83252" data-name="패스 83252" d="M131.969,458.479a2.281,2.281,0,1,1,2.273-2.281,2.277,2.277,0,0,1-2.273,2.281" transform="translate(-117.878 -412.411)" fill="#bad1fe"/>
          <path id="패스_83253" data-name="패스 83253" d="M131.969,523.354a2.281,2.281,0,1,1,2.273-2.281,2.277,2.277,0,0,1-2.273,2.281" transform="translate(-117.878 -471.354)" fill="#bad1fe"/>
          <path id="패스_83254" data-name="패스 83254" d="M196.791,69.384a2.281,2.281,0,1,1,2.273-2.281,2.277,2.277,0,0,1-2.273,2.281" transform="translate(-176.793 -58.895)" fill="#bad1fe"/>
          <path id="패스_83255" data-name="패스 83255" d="M196.791,134.261a2.281,2.281,0,1,1,2.273-2.281,2.277,2.277,0,0,1-2.273,2.281" transform="translate(-176.793 -117.839)" fill="#bad1fe"/>
          <path id="패스_83256" data-name="패스 83256" d="M196.791,199.083a2.281,2.281,0,1,1,2.273-2.281,2.277,2.277,0,0,1-2.273,2.281" transform="translate(-176.793 -176.735)" fill="#bad1fe"/>
          <path id="패스_83257" data-name="패스 83257" d="M196.791,328.78a2.281,2.281,0,1,1,2.273-2.281,2.277,2.277,0,0,1-2.273,2.281" transform="translate(-176.793 -294.572)" fill="#bad1fe"/>
          <path id="패스_83258" data-name="패스 83258" d="M196.791,393.655a2.281,2.281,0,1,1,2.273-2.281,2.277,2.277,0,0,1-2.273,2.281" transform="translate(-176.793 -353.515)" fill="#bad1fe"/>
          <path id="패스_83259" data-name="패스 83259" d="M196.791,458.479a2.281,2.281,0,1,1,2.273-2.281,2.277,2.277,0,0,1-2.273,2.281" transform="translate(-176.793 -412.411)" fill="#bad1fe"/>
          <path id="패스_83260" data-name="패스 83260" d="M261.663,134.261a2.281,2.281,0,1,1,2.273-2.281,2.277,2.277,0,0,1-2.273,2.281" transform="translate(-235.754 -117.839)" fill="#bad1fe"/>
          <path id="패스_83261" data-name="패스 83261" d="M261.663,199.083a2.281,2.281,0,1,1,2.273-2.281,2.277,2.277,0,0,1-2.273,2.281" transform="translate(-235.754 -176.735)" fill="#bad1fe"/>
          <path id="패스_83262" data-name="패스 83262" d="M261.663,263.961a2.281,2.281,0,1,1,2.273-2.281,2.277,2.277,0,0,1-2.273,2.281" transform="translate(-235.754 -235.681)" fill="#bad1fe"/>
          <path id="패스_83263" data-name="패스 83263" d="M261.663,328.78a2.281,2.281,0,1,1,2.273-2.281,2.277,2.277,0,0,1-2.273,2.281" transform="translate(-235.754 -294.572)" fill="#bad1fe"/>
          <path id="패스_83264" data-name="패스 83264" d="M261.663,393.655a2.281,2.281,0,1,1,2.273-2.281,2.277,2.277,0,0,1-2.273,2.281" transform="translate(-235.754 -353.515)" fill="#bad1fe"/>
          <path id="패스_83265" data-name="패스 83265" d="M326.489,199.083a2.281,2.281,0,1,1,2.273-2.281,2.277,2.277,0,0,1-2.273,2.281" transform="translate(-294.674 -176.735)" fill="#bad1fe"/>
          <path id="패스_83266" data-name="패스 83266" d="M326.489,263.961a2.281,2.281,0,1,1,2.273-2.281,2.276,2.276,0,0,1-2.273,2.281" transform="translate(-294.674 -235.681)" fill="#bad1fe"/>
          <path id="패스_83267" data-name="패스 83267" d="M326.489,328.78a2.281,2.281,0,1,1,2.273-2.281,2.277,2.277,0,0,1-2.273,2.281" transform="translate(-294.674 -294.572)" fill="#bad1fe"/>
          <path id="패스_83268" data-name="패스 83268" d="M391.367,263.961a2.281,2.281,0,1,1,2.272-2.281,2.276,2.276,0,0,1-2.272,2.281" transform="translate(-353.639 -235.681)" fill="#bad1fe"/>
        </g>
      </g>
    </g>
  </g>
</svg>
