<svg xmlns="http://www.w3.org/2000/svg" width="80" height="80" viewBox="0 0 80 80">
  <g id="그룹_166810" data-name="그룹 166810" transform="translate(-441 -354)">
    <circle id="타원_9492" data-name="타원 9492" cx="40" cy="40" r="40" transform="translate(441 354)" fill="#fff"/>
    <g id="그룹_166186" data-name="그룹 166186" transform="translate(-0.5 -29.5)">
      <path id="패스_85936" data-name="패스 85936" d="M24.25,1.25c9.773,5.458,21.617,2,21.617,2,8.043,41.959-21.617,48-21.617,48s-29.66-6.038-21.617-48C2.634,3.253,14.477,6.708,24.25,1.25Z" transform="translate(457.25 397.25)" fill="#fff" stroke="#194da1" stroke-linecap="round" stroke-linejoin="round" stroke-width="1.5"/>
      <path id="패스_85934" data-name="패스 85934" d="M27.643,18.825a5,5,0,0,0-10,0,4.881,4.881,0,0,0,2.16,4.039l-1.534,9.052h8.75l-1.538-9.052A4.877,4.877,0,0,0,27.643,18.825Z" transform="translate(458.857 399.584)" fill="#fff" stroke="#194da1" stroke-linecap="round" stroke-linejoin="round" stroke-width="1.5"/>
    </g>
  </g>
</svg>
