<svg xmlns="http://www.w3.org/2000/svg" xmlns:xlink="http://www.w3.org/1999/xlink" width="1920" height="1080" viewBox="0 0 1920 1080">
  <defs>
    <clipPath id="clip-path">
      <rect id="사각형_153045" data-name="사각형 153045" width="1920" height="1080" fill="#fff" stroke="#707070" stroke-width="1"/>
    </clipPath>
    <clipPath id="clip-path-2">
      <rect id="사각형_153037" data-name="사각형 153037" width="1472.149" height="1337.06" fill="#ecf5ff"/>
    </clipPath>
  </defs>
  <g id="마스크_그룹_1" data-name="마스크 그룹 1" clip-path="url(#clip-path)">
    <g id="그룹_167583" data-name="그룹 167583">
      <g id="그룹_167578" data-name="그룹 167578" transform="translate(447.851 -128.529)">
        <g id="그룹_167577" data-name="그룹 167577" clip-path="url(#clip-path-2)">
          <path id="패스_86257" data-name="패스 86257" d="M1472.149,0V1337.06H586.2c51.021-102.431,131.893-190.013,233.058-243.792,57.607-30.623,120.173-50.85,178.736-79.605s114.883-68.094,146.421-125.207,32.19-134.884-12.155-182.739c-43.049-46.459-113.479-53.319-176.776-51.03s-129.912,10.065-187.243-16.86C663.107,588.457,638.179,450.071,558,366.041c-55.6-58.262-134.834-87.03-212.354-108.853s-157.919-39.259-226.527-81.431C56.462,137.245,4.383,72.193,0,0Z" fill="#ecf5ff"/>
        </g>
      </g>
      <path id="패스_86258" data-name="패스 86258" d="M404.961,1492.87v189.163a59.368,59.368,0,0,1-59.3,59.3H59.3a44.13,44.13,0,0,0-44.083,44.083v24.308H0v-24.308a59.362,59.362,0,0,1,59.3-59.3H345.664a44.137,44.137,0,0,0,44.08-44.087V1492.87Z" transform="translate(1014.192 -729.725)" fill="#202020"/>
      <path id="패스_86259" data-name="패스 86259" d="M1068.609,1621.138v30.314a13.106,13.106,0,0,1-13.105,13.105h-23.239a13.071,13.071,0,0,1-9.971-4.6v0a13.046,13.046,0,0,1-3.131-8.5v-30.314Z" transform="translate(367.66 -901.411)" fill="#545454"/>
      <path id="패스_86260" data-name="패스 86260" d="M1049.623,1427.866v60.554a16.933,16.933,0,0,1-16.936,16.931H965.45a16.933,16.933,0,0,1-16.932-16.931v-60.554Z" transform="translate(412.476 -778.804)" fill="#e4e8ef"/>
      <path id="패스_86261" data-name="패스 86261" d="M928.194,1391.4h113.144a2.223,2.223,0,0,1,2.223,2.223v8.886a2.223,2.223,0,0,1-2.223,2.223H928.194a2.223,2.223,0,0,1-2.223-2.223v-8.886a2.223,2.223,0,0,1,2.223-2.223" transform="translate(426.778 -755.674)" fill="#d9dee5"/>
      <path id="패스_86262" data-name="패스 86262" d="M1015.383,1304.954H998.152v-41.21a8.616,8.616,0,0,1,17.231,0Z" transform="translate(380.988 -669.224)" fill="#efefef"/>
      <path id="패스_86263" data-name="패스 86263" d="M1145.508,1304.954h-17.231v-41.21a8.616,8.616,0,0,1,17.231,0Z" transform="translate(298.44 -669.224)" fill="#efefef"/>
      <path id="패스_86264" data-name="패스 86264" d="M1049.623,1427.866v60.554a16.933,16.933,0,0,1-16.936,16.931H965.45a16.933,16.933,0,0,1-16.932-16.931c72.6-5.044,79.269-60.554,79.269-60.554Z" transform="translate(412.476 -778.804)" fill="#e4e8ef"/>
      <rect id="사각형_153038" data-name="사각형 153038" width="101.105" height="4.883" transform="translate(1360.993 649.063)" fill="#c1c8d1"/>
      <path id="패스_86265" data-name="패스 86265" d="M1113.765,1497.867v34.96a16.934,16.934,0,0,1-16.936,16.932h-47.2c47.665,0,64.137-51.891,64.137-51.891" transform="translate(348.333 -823.211)" fill="#d9dee5"/>
      <rect id="사각형_153039" data-name="사각형 153039" width="49.444" height="3.164" transform="translate(1386.823 726.547)" fill="#141e41"/>
      <rect id="사각형_153040" data-name="사각형 153040" width="17.231" height="6.033" transform="translate(1379.141 629.698)" fill="#d9dee5"/>
      <rect id="사각형_153041" data-name="사각형 153041" width="17.231" height="6.033" transform="translate(1426.717 629.698)" fill="#d9dee5"/>
      <path id="패스_86266" data-name="패스 86266" d="M1074.041,1639.792v23.494a13.106,13.106,0,0,1-13.1,13.105H1037.7a13.07,13.07,0,0,1-9.97-4.6v0c36.222,4.443,41.753-31.992,41.753-31.992Z" transform="translate(362.228 -913.245)" fill="#202020"/>
      <path id="패스_86267" data-name="패스 86267" d="M1582.034,0V15.214H1125.271A44.13,44.13,0,0,0,1081.187,59.3V259.205H1065.97V59.3a59.365,59.365,0,0,1,59.3-59.3Z" transform="translate(337.967 112)" fill="#202020"/>
      <path id="패스_86268" data-name="패스 86268" d="M1068.609,586.782V556.467a13.106,13.106,0,0,0-13.105-13.105h-23.239a13.071,13.071,0,0,0-9.971,4.6v0a13.047,13.047,0,0,0-3.131,8.5v30.315Z" transform="translate(367.66 -232.695)" fill="#545454"/>
      <path id="패스_86269" data-name="패스 86269" d="M1049.623,720.947V660.394a16.934,16.934,0,0,0-16.936-16.932H965.45a16.933,16.933,0,0,0-16.932,16.932v60.553Z" transform="translate(412.476 -296.197)" fill="#e4e8ef"/>
      <path id="패스_86270" data-name="패스 86270" d="M928.194,868.72h113.144a2.223,2.223,0,0,0,2.223-2.223v-8.886a2.223,2.223,0,0,0-2.223-2.223H928.194a2.223,2.223,0,0,0-2.223,2.223V866.5a2.223,2.223,0,0,0,2.223,2.223" transform="translate(426.778 -430.638)" fill="#d9dee5"/>
      <path id="패스_86271" data-name="패스 86271" d="M1049.623,720.947V660.394a16.934,16.934,0,0,0-16.936-16.932H965.45a16.933,16.933,0,0,0-16.932,16.932c72.6,5.044,79.269,60.553,79.269,60.553Z" transform="translate(412.476 -296.197)" fill="#e4e8ef"/>
      <rect id="사각형_153042" data-name="사각형 153042" width="101.105" height="4.883" transform="translate(1360.993 419.867)" fill="#c1c8d1"/>
      <path id="패스_86272" data-name="패스 86272" d="M1113.765,695.354V660.394a16.934,16.934,0,0,0-16.936-16.932h-47.2c47.665,0,64.137,51.892,64.137,51.892" transform="translate(348.333 -296.197)" fill="#d9dee5"/>
      <rect id="사각형_153043" data-name="사각형 153043" width="49.444" height="3.164" transform="translate(1386.823 344.101)" fill="#141e41"/>
      <path id="패스_86273" data-name="패스 86273" d="M1074.041,579.961V556.467a13.106,13.106,0,0,0-13.1-13.105H1037.7a13.07,13.07,0,0,0-9.97,4.6v0c36.222-4.443,41.753,31.993,41.753,31.993Z" transform="translate(362.228 -232.695)" fill="#202020"/>
      <path id="패스_86274" data-name="패스 86274" d="M662.275,1021.509H630.97a4.309,4.309,0,1,1,0-8.619h31.306a4.309,4.309,0,1,1,0,8.619" transform="translate(616.654 -530.554)" fill="#ffb709"/>
      <path id="패스_86275" data-name="패스 86275" d="M825.266,858.517a4.31,4.31,0,0,1-4.31-4.31V822.9a4.31,4.31,0,0,1,8.619,0v31.306a4.31,4.31,0,0,1-4.31,4.31" transform="translate(493.397 -407.295)" fill="#ffb709"/>
      <path id="패스_86276" data-name="패스 86276" d="M709.382,905.625a4.3,4.3,0,0,1-3.047-1.262L684.83,882.858a4.309,4.309,0,0,1,6.094-6.095l21.506,21.506a4.31,4.31,0,0,1-3.047,7.357" transform="translate(580.554 -443.396)" fill="#ffb709"/>
      <path id="패스_86277" data-name="패스 86277" d="M1442.011,1301.64h31.306a4.309,4.309,0,0,1,0,8.619h-31.306a4.309,4.309,0,1,1,0-8.619" transform="translate(102.149 -698.729)" fill="#ffb709"/>
      <path id="패스_86278" data-name="패스 86278" d="M1333.337,1410.314a4.31,4.31,0,0,1,4.31,4.31v31.306a4.31,4.31,0,0,1-8.619,0v-31.306a4.309,4.309,0,0,1,4.31-4.31" transform="translate(171.09 -767.67)" fill="#ffb709"/>
      <path id="패스_86279" data-name="패스 86279" d="M1411.907,1380.21a4.3,4.3,0,0,1,3.047,1.262l21.506,21.506a4.31,4.31,0,0,1-6.095,6.095l-21.506-21.505a4.309,4.309,0,0,1,3.047-7.357" transform="translate(121.246 -748.572)" fill="#ffb709"/>
      <rect id="사각형_153044" data-name="사각형 153044" width="905.808" height="968" transform="translate(870.068 127)" fill="none"/>
      <g id="그룹_167582" data-name="그룹 167582" transform="translate(-1647 1198)">
        <text id="_404_Not_Found" data-name="404 Not Found" transform="translate(202 437)" fill="#202020" font-size="80" font-family="Pretendard-Bold, Pretendard" font-weight="700"><tspan x="0" y="0">404 Not Found</tspan></text>
        <text id="원하시는_페이지를_찾을_수_없습니다" data-name="원하시는 페이지를 찾을 수 없습니다" transform="translate(202 514)" fill="#202020" font-size="50" font-family="Pretendard-Bold, Pretendard" font-weight="700"><tspan x="0" y="0">원하시는 페이지를 찾을 수 없습니다</tspan></text>
        <text id="페이지가_존재하지_않거나_사용할_수_없는_페이지입니다._입력하신_페이지의_주소가_정확한지_다시_한번_확인해주세요." data-name="페이지가 존재하지 않거나, 사용할 수 없는 페이지입니다.
입력하신 페이지의 주소가 정확한지 다시 한번 확인해주세요." transform="translate(202 565)" fill="#202020" font-size="20" font-family="Pretendard-Regular, Pretendard"><tspan x="0" y="0">페이지가 존재하지 않거나, 사용할 수 없는 페이지입니다.</tspan><tspan x="0" y="30">입력하신 페이지의 주소가 정확한지 다시 한번 확인해주세요.</tspan></text>
        <g id="그룹_167581" data-name="그룹 167581" transform="translate(0 -51)">
          <rect id="사각형_149931" data-name="사각형 149931" width="200" height="60" rx="10" transform="translate(412 711)" fill="#132262"/>
          <text id="홈으로" transform="translate(512 747)" fill="#fff" font-size="16" font-family="Pretendard-Bold, Pretendard" font-weight="700"><tspan x="-20.742" y="0">홈으로</tspan></text>
        </g>
        <g id="그룹_167580" data-name="그룹 167580" transform="translate(0 -51)">
          <rect id="사각형_149931-2" data-name="사각형 149931" width="200" height="60" rx="10" transform="translate(202 711)" fill="#e1e7ee"/>
          <text id="이전_페이지로_이동" data-name="이전 페이지로 이동" transform="translate(302 747)" fill="#202020" font-size="16" font-family="Pretendard-Bold, Pretendard" font-weight="700"><tspan x="-59" y="0">이전 페이지로 이동</tspan></text>
        </g>
      </g>
    </g>
  </g>
</svg>
