<svg xmlns="http://www.w3.org/2000/svg" width="138" height="138" viewBox="0 0 138 138">
  <g id="그룹_166211" data-name="그룹 166211" transform="translate(-1362 -3876)">
    <rect id="사각형_151766" data-name="사각형 151766" width="138" height="138" rx="10" transform="translate(1362 3876)" fill="#fff"/>
    <g id="그룹_166159" data-name="그룹 166159" transform="translate(0 2.189)">
      <g id="그룹_166158" data-name="그룹 166158" transform="translate(1406.014 3910.811)">
        <g id="g121">
          <path id="path123" d="M-433.2-592h-41.6a5.2,5.2,0,0,1-5.2-5.2V-650.8a5.2,5.2,0,0,1,5.2-5.2h41.6a5.2,5.2,0,0,1,5.2,5.2V-597.2A5.2,5.2,0,0,1-433.2-592Z" transform="translate(479.999 655.998)" fill="none" stroke="#194da1" stroke-linecap="round" stroke-linejoin="round" stroke-miterlimit="10" stroke-width="2"/>
        </g>
        <g id="g125" transform="translate(16.918 14.96)">
          <path id="path127" d="M-84.008-226.211h0a9.082,9.082,0,0,1-9.082-9.082v-6.291a9.082,9.082,0,0,1,9.082-9.082,9.082,9.082,0,0,1,9.082,9.082v6.291A9.082,9.082,0,0,1-84.008-226.211Z" transform="translate(93.09 250.666)" fill="none" stroke="#194da1" stroke-linecap="round" stroke-linejoin="round" stroke-miterlimit="10" stroke-width="2"/>
        </g>
        <g id="g129" transform="translate(21.838 38.597)">
          <path id="path131" d="M-77.008,0V3.512l-4.163,4.163-4.163-4.163V0" transform="translate(85.333)" fill="none" stroke="#194da1" stroke-linecap="round" stroke-linejoin="round" stroke-miterlimit="10" stroke-width="2"/>
        </g>
        <g id="g133" transform="translate(5.203 41.329)">
          <path id="path135" d="M-154.016,0l-10.369,2.3a8.016,8.016,0,0,0-6.281,7.826v3.14" transform="translate(170.666)" fill="none" stroke="#194da1" stroke-linecap="round" stroke-linejoin="round" stroke-miterlimit="10" stroke-width="2"/>
        </g>
        <g id="g137" transform="translate(30.147 41.329)">
          <path id="path139" d="M0,0,10.369,2.3a8.016,8.016,0,0,1,6.281,7.826v3.14" fill="none" stroke="#194da1" stroke-linecap="round" stroke-linejoin="round" stroke-miterlimit="10" stroke-width="2"/>
        </g>
        <g id="g141" transform="translate(20.77 42.433)">
          <path id="path143" d="M0,0V15.841" transform="translate(0 0)" fill="none" stroke="#194da1" stroke-linecap="round" stroke-linejoin="round" stroke-miterlimit="10" stroke-width="2"/>
        </g>
        <g id="g145" transform="translate(31.23 42.433)">
          <path id="path147" d="M0,0V15.841" transform="translate(0 0)" fill="none" stroke="#194da1" stroke-linecap="round" stroke-linejoin="round" stroke-miterlimit="10" stroke-width="2"/>
        </g>
        <g id="g149" transform="translate(16.918 14.96)">
          <path id="path151" d="M-40.578-77.792a13.343,13.343,0,0,0,4.7.848,13.343,13.343,0,0,0,4.7-.848A13.431,13.431,0,0,0-26.8-72.763V-77.12A9.082,9.082,0,0,0-35.883-86.2a9.082,9.082,0,0,0-9.082,9.082v4.357A13.432,13.432,0,0,0-40.578-77.792Z" transform="translate(44.965 86.202)" fill="none" stroke="#194da1" stroke-linecap="round" stroke-linejoin="round" stroke-miterlimit="10" stroke-width="2"/>
        </g>
        <g id="g153" transform="translate(25.205)">
          <path id="path155" d="M0,0,26.795,26.795V19.436L7.358,0Z" fill="none" stroke="#194da1" stroke-linecap="round" stroke-linejoin="round" stroke-miterlimit="10" stroke-width="2"/>
        </g>
        <g id="g157" transform="translate(13.519 43.769)">
          <path id="path159" d="M0,0,1.98,6.583H0L2.42,14.5" fill="none" stroke="#194da1" stroke-linecap="round" stroke-linejoin="round" stroke-miterlimit="10" stroke-width="2"/>
        </g>
        <g id="g161" transform="translate(36.061 43.769)">
          <path id="path163" d="M-22.385,0l-1.98,6.583h1.98l-2.42,7.921" transform="translate(24.805)" fill="none" stroke="#194da1" stroke-linecap="round" stroke-linejoin="round" stroke-miterlimit="10" stroke-width="2"/>
        </g>
        <g id="g165" transform="translate(5.203 5.203)">
          <path id="path167" d="M-233.469,0h-25.218V16.13m0,11.707V53.594h41.593V16.388m0-7.358V0h-9.023" transform="translate(258.687)" fill="none" stroke="#194da1" stroke-linecap="round" stroke-linejoin="round" stroke-miterlimit="10" stroke-width="2"/>
        </g>
        <g id="g169" transform="translate(5.203 27.188)">
          <path id="path171" d="M0,0H0" fill="none" stroke="#194da1" stroke-linecap="round" stroke-linejoin="round" stroke-miterlimit="10" stroke-width="2"/>
        </g>
      </g>
    </g>
  </g>
</svg>
