<svg xmlns="http://www.w3.org/2000/svg" width="120" height="120" viewBox="0 0 120 120">
  <g id="그룹_166337" data-name="그룹 166337" transform="translate(-50 -495)">
    <circle id="타원_9492" data-name="타원 9492" cx="60" cy="60" r="60" transform="translate(50 495)" fill="#ecf5ff"/>
    <g id="그룹_166336" data-name="그룹 166336">
      <path id="패스_85959" data-name="패스 85959" d="M62.716,1A21.149,21.149,0,0,0,41.421,22,20.666,20.666,0,0,0,43.9,31.818L38.01,41.461,50.4,39.122l-.015-.022A21.378,21.378,0,0,0,62.716,43,21.149,21.149,0,0,0,84.01,22,21.149,21.149,0,0,0,62.716,1Z" transform="translate(59.99 521)" fill="#fff" stroke="#194da1" stroke-linecap="round" stroke-linejoin="round" stroke-width="1.5"/>
      <g id="그룹_166249" data-name="그룹 166249" transform="translate(-156.691 -51.479)">
        <path id="패스_85960" data-name="패스 85960" d="M40.977,73.132a2.967,2.967,0,0,1-.766,1.644L37.3,77.691c-9.918,8.3-22.513-4.066-22.639-4.19L8.077,66.91c-.126-.126-12.5-12.717-4.234-22.6L6.8,41.347a2.963,2.963,0,0,1,1.642-.767,2.73,2.73,0,0,1,.353-.024,1.51,1.51,0,0,1,1.051.337L16,48a1.9,1.9,0,0,1,0,2.674l-2.246,2.248a6.3,6.3,0,0,0-1.191,1.722c-.492,1.344-1.273,4.861,2.1,8.5l3.783,3.786c3.616,3.36,7.129,2.576,8.517,2.067a6.343,6.343,0,0,0,1.7-1.193l2.225-2.227a1.912,1.912,0,0,1,2.712.037l7.034,6.1A1.733,1.733,0,0,1,40.977,73.132Z" transform="translate(231.691 558.922)" fill="#fff" stroke="#194da1" stroke-miterlimit="10" stroke-width="1.5"/>
      </g>
      <path id="패스_85956" data-name="패스 85956" d="M61.037,29.221a1.3,1.3,0,1,1-1.3-1.3,1.3,1.3,0,0,1,1.3,1.3" transform="translate(54.757 514.574)" fill="#194da1"/>
      <path id="패스_85957" data-name="패스 85957" d="M72.018,29.221a1.3,1.3,0,1,1-1.3-1.3,1.3,1.3,0,0,1,1.3,1.3" transform="translate(51.943 514.574)" fill="#194da1"/>
      <path id="패스_85958" data-name="패스 85958" d="M83,29.221a1.3,1.3,0,1,1-1.3-1.3,1.3,1.3,0,0,1,1.3,1.3" transform="translate(49.129 514.574)" fill="#194da1"/>
    </g>
  </g>
</svg>
