<svg xmlns="http://www.w3.org/2000/svg" width="650" height="1189.5" viewBox="0 0 650 1189.5">
  <g id="그룹_166221" data-name="그룹 166221" transform="translate(-622 -4532)">
    <line id="선_3689" data-name="선 3689" y2="734.999" transform="translate(732 4894)" fill="none" stroke="#c2c2c2" stroke-width="1" stroke-dasharray="2"/>
    <g id="그룹_166097" data-name="그룹 166097" transform="translate(201 3018)">
      <rect id="사각형_151256" data-name="사각형 151256" width="200" height="60" rx="30" transform="translate(871 1714)" fill="#1161f8"/>
      <text id="인증기관_한국표준협회_" data-name="인증기관
(한국표준협회)" transform="translate(971 1739)" fill="#fff" font-size="16" font-family="Pretendard-Bold, Pretendard" font-weight="700"><tspan x="-27.656" y="0">인증기관</tspan><tspan font-size="14" font-family="Pretendard-Regular, Pretendard" font-weight="400"><tspan x="-41.07" y="22">(한국표준협회)</tspan></tspan></text>
    </g>
    <line id="선_3690" data-name="선 3690" x2="240" transform="translate(832 4865)" fill="none" stroke="#c2c2c2" stroke-width="1" stroke-dasharray="2"/>
    <path id="다각형_46" data-name="다각형 46" d="M7,0l7,12H0Z" transform="translate(959 4858) rotate(90)" fill="#545454"/>
    <g id="그룹_166098" data-name="그룹 166098" transform="translate(206 2905)">
      <text id="신청서_제출_및_신청비_납부" data-name="신청서 제출 및 신청비 납부" transform="translate(757 1944)" fill="#202020" font-size="14" font-family="Pretendard-Regular, Pretendard"><tspan x="-73.575" y="0">신청서 제출 및 신청비 납부</tspan></text>
      <g id="그룹_166070" data-name="그룹 166070" transform="translate(6 -2)">
        <circle id="타원_9487" data-name="타원 9487" cx="8" cy="8" r="8" transform="translate(657 1933)" fill="#194da1"/>
        <text id="_1" data-name="1" transform="translate(665 1944)" fill="#fff" font-size="9" font-family="Pretendard-Bold, Pretendard" font-weight="700"><tspan x="-2.109" y="0">1</tspan></text>
      </g>
    </g>
    <line id="선_3691" data-name="선 3691" y2="735" transform="translate(1172 4894)" fill="none" stroke="#c2c2c2" stroke-width="1" stroke-dasharray="2"/>
    <g id="사각형_151260" data-name="사각형 151260" transform="translate(1072 5375)" fill="#fff" stroke="#1161f8" stroke-width="1">
      <rect width="200" height="60" rx="10" stroke="none"/>
      <rect x="0.5" y="0.5" width="199" height="59" rx="9.5" fill="none"/>
    </g>
    <text id="인증위원회_심의" data-name="인증위원회 심의" transform="translate(1172 5411)" fill="#1161f8" font-size="16" font-family="Pretendard-Bold, Pretendard" font-weight="700"><tspan x="-50.242" y="0">인증위원회 심의</tspan></text>
    <g id="사각형_151261" data-name="사각형 151261" transform="translate(1072 4835)" fill="#fff" stroke="#1161f8" stroke-width="1">
      <rect width="200" height="60" rx="10" stroke="none"/>
      <rect x="0.5" y="0.5" width="199" height="59" rx="9.5" fill="none"/>
    </g>
    <text id="신청서_접수_검토" data-name="신청서 접수/검토" transform="translate(1172 4871)" fill="#1161f8" font-size="16" font-family="Pretendard-Bold, Pretendard" font-weight="700"><tspan x="-53.211" y="0">신청서 접수/검토</tspan></text>
    <g id="사각형_151259" data-name="사각형 151259" transform="translate(1072 5275)" fill="#fff" stroke="#1161f8" stroke-width="1">
      <rect width="200" height="60" rx="10" stroke="none"/>
      <rect x="0.5" y="0.5" width="199" height="59" rx="9.5" fill="none"/>
    </g>
    <text id="인증위원회_심의-2" data-name="인증위원회 심의" transform="translate(1172 5311)" fill="#1161f8" font-size="16" font-family="Pretendard-Bold, Pretendard" font-weight="700"><tspan x="-50.242" y="0">인증위원회 심의</tspan></text>
    <g id="그룹_166105" data-name="그룹 166105" transform="translate(242 3018)">
      <rect id="사각형_151255" data-name="사각형 151255" width="200" height="60" rx="30" transform="translate(390 1714)" fill="#e8e8e8"/>
      <text id="인증_신청자" data-name="인증 신청자" transform="translate(490 1750)" fill="#545454" font-size="16" font-family="Pretendard-Bold, Pretendard" font-weight="700"><tspan x="-36.414" y="0">인증 신청자</tspan></text>
    </g>
    <g id="사각형_151258" data-name="사각형 151258" transform="translate(632 4835)" fill="#fff" stroke="#c2c2c2" stroke-width="1">
      <rect width="200" height="60" rx="10" stroke="none"/>
      <rect x="0.5" y="0.5" width="199" height="59" rx="9.5" fill="none"/>
    </g>
    <text id="신청서_작성" data-name="신청서 작성" transform="translate(732 4871)" fill="#545454" font-size="16" font-family="Pretendard-Bold, Pretendard" font-weight="700"><tspan x="-36.414" y="0">신청서 작성</tspan></text>
    <g id="사각형_151268" data-name="사각형 151268" transform="translate(632 5035)" fill="#fff" stroke="#c2c2c2" stroke-width="1">
      <rect width="200" height="60" rx="10" stroke="none"/>
      <rect x="0.5" y="0.5" width="199" height="59" rx="9.5" fill="none"/>
    </g>
    <text id="서비스_심사_준비" data-name="서비스 심사 준비" transform="translate(732 5071)" fill="#545454" font-size="16" font-family="Pretendard-Bold, Pretendard" font-weight="700"><tspan x="-52.086" y="0">서비스 심사 준비</tspan></text>
    <g id="사각형_151269" data-name="사각형 151269" transform="translate(632 5490)" fill="#fff" stroke="#c2c2c2" stroke-width="1">
      <rect width="200" height="60" rx="10" stroke="none"/>
      <rect x="0.5" y="0.5" width="199" height="59" rx="9.5" fill="none"/>
    </g>
    <text id="인증서_수령" data-name="인증서 수령" transform="translate(732 5525)" fill="#545454" font-size="16" font-family="Pretendard-Bold, Pretendard" font-weight="700"><tspan x="-36.414" y="0">인증서 수령</tspan></text>
    <path id="다각형_49" data-name="다각형 49" d="M7,0l7,12H0Z" transform="translate(832 5162) rotate(-90)" fill="#ec5f2a"/>
    <path id="다각형_50" data-name="다각형 50" d="M7,0l7,12H0Z" transform="translate(1179 5071) rotate(180)" fill="#194da1"/>
    <g id="사각형_151264" data-name="사각형 151264" transform="translate(1072 5139)" fill="#fff" stroke="#1161f8" stroke-width="1">
      <rect width="200" height="60" rx="10" stroke="none"/>
      <rect x="0.5" y="0.5" width="199" height="59" rx="9.5" fill="none"/>
    </g>
    <text id="공장_심사" data-name="공장 심사" transform="translate(1172 5175)" fill="#1161f8" font-size="16" font-family="Pretendard-Bold, Pretendard" font-weight="700"><tspan x="-29.5" y="0">공장 심사</tspan></text>
    <g id="사각형_151268-2" data-name="사각형 151268" transform="translate(632 5135)" fill="#fff" stroke="#c2c2c2" stroke-width="1">
      <rect width="200" height="60" rx="10" stroke="none"/>
      <rect x="0.5" y="0.5" width="199" height="59" rx="9.5" fill="none"/>
    </g>
    <text id="개선_·_보안" data-name="개선 · 보안" transform="translate(732 5171)" fill="#545454" font-size="16" font-family="Pretendard-Bold, Pretendard" font-weight="700"><tspan x="-33.602" y="0">개선 · 보안</tspan></text>
    <path id="패스_85924" data-name="패스 85924" d="M0,0H228" transform="translate(844 5155)" fill="none" stroke="#ec5f2a" stroke-width="1" stroke-dasharray="6"/>
    <line id="선_3693" data-name="선 3693" x2="240" transform="translate(832 5185)" fill="none" stroke="#c2c2c2" stroke-width="1" stroke-dasharray="2"/>
    <path id="다각형_48" data-name="다각형 48" d="M7,0l7,12H0Z" transform="translate(958 5178) rotate(90)" fill="#545454"/>
    <text id="부적합_개선조치" data-name="부적합 개선조치" transform="translate(952 5211)" fill="#202020" font-size="14" font-family="Pretendard-Regular, Pretendard"><tspan x="-44.105" y="0">부적합 개선조치</tspan></text>
    <rect id="사각형_151777" data-name="사각형 151777" width="100" height="20" rx="10" transform="translate(898 5146)" fill="#ec5f2a"/>
    <text id="부적합_통보" data-name="부적합 통보" transform="translate(948 5161)" fill="#fff" font-size="13" font-family="Pretendard-Medium, Pretendard" font-weight="500"><tspan x="-29.675" y="0">부적합 통보</tspan></text>
    <g id="그룹_166111" data-name="그룹 166111" transform="translate(209 2908)">
      <circle id="타원_9487-2" data-name="타원 9487" cx="8" cy="8" r="8" transform="translate(841 2255)" fill="#194da1"/>
      <text id="_4" data-name="4" transform="translate(849 2267)" fill="#fff" font-size="10" font-family="Pretendard-Bold, Pretendard" font-weight="700"><tspan x="-3.286" y="0">4</tspan></text>
    </g>
    <g id="그룹_166118" data-name="그룹 166118" transform="translate(35 5)">
      <text id="합격시" transform="translate(1107 5240)" fill="#202020" font-size="14" font-family="Pretendard-Regular, Pretendard"><tspan x="-18.149" y="0">합격시</tspan></text>
      <g id="그룹_166112" data-name="그룹 166112" transform="translate(138 2781)">
        <circle id="타원_9488" data-name="타원 9488" cx="8" cy="8" r="8" transform="translate(931 2446)" fill="#194da1"/>
        <text id="_5" data-name="5" transform="translate(939 2458)" fill="#fff" font-size="10" font-family="Pretendard-Bold, Pretendard" font-weight="700"><tspan x="-3.135" y="0">5</tspan></text>
      </g>
    </g>
    <path id="패스_85925" data-name="패스 85925" d="M3003.867,1451.167h-340" transform="translate(-1831.867 4068.834)" fill="none" stroke="#c2c2c2" stroke-width="1" stroke-dasharray="2"/>
    <path id="다각형_51" data-name="다각형 51" d="M7,0l7,12H0Z" transform="translate(997 5527) rotate(-90)" fill="#1161f8"/>
    <text id="합격통보_및_인증서_발급" data-name="합격통보 및 인증서 발급" transform="translate(1003 5504)" fill="#202020" font-size="14" font-family="Pretendard-Regular, Pretendard"><tspan x="-65.769" y="0">합격통보 및 인증서 발급</tspan></text>
    <text id="합격시-2" data-name="합격시" transform="translate(1200 5525)" fill="#202020" font-size="14" font-family="Pretendard-Regular, Pretendard"><tspan x="-18.149" y="0">합격시</tspan></text>
    <path id="다각형_52" data-name="다각형 52" d="M7,0l7,12H0Z" transform="translate(739 5641) rotate(180)" fill="#c2c2c2"/>
    <path id="다각형_53" data-name="다각형 53" d="M7,0l7,12H0Z" transform="translate(1179 5641) rotate(180)" fill="#c2c2c2"/>
    <text id="_처리기간:_40일-공휴일_제외_" data-name="(처리기간: 40일-공휴일 제외)" transform="translate(948 5638)" fill="#202020" font-size="14" font-family="Pretendard-Regular, Pretendard"><tspan x="-82.127" y="0">(처리기간: 40일-공휴일 제외)</tspan></text>
    <g id="사각형_151263" data-name="사각형 151263" transform="translate(1072 4935)" fill="#fff" stroke="#1161f8" stroke-width="1">
      <rect width="200" height="60" rx="10" stroke="none"/>
      <rect x="0.5" y="0.5" width="199" height="59" rx="9.5" fill="none"/>
    </g>
    <text id="심사_계획_수립" data-name="심사 계획 수립" transform="translate(1172 4971)" fill="#1161f8" font-size="16" font-family="Pretendard-Bold, Pretendard" font-weight="700"><tspan x="-45.172" y="0">심사 계획 수립</tspan></text>
    <g id="사각형_151776" data-name="사각형 151776" transform="translate(632 4935)" fill="#fff" stroke="#c2c2c2" stroke-width="1">
      <rect width="200" height="60" rx="10" stroke="none"/>
      <rect x="0.5" y="0.5" width="199" height="59" rx="9.5" fill="none"/>
    </g>
    <text id="사업장_심사준비" data-name="사업장 심사준비" transform="translate(732 4971)" fill="#545454" font-size="16" font-family="Pretendard-Bold, Pretendard" font-weight="700"><tspan x="-50.242" y="0">사업장 심사준비</tspan></text>
    <g id="그룹_166109" data-name="그룹 166109" transform="translate(244 2990)">
      <text id="심사_계획통보" data-name="심사 계획통보" transform="translate(683 1944)" fill="#202020" font-size="14" font-family="Pretendard-Regular, Pretendard"><tspan x="0" y="0">심사 계획통보</tspan></text>
      <g id="그룹_166070-2" data-name="그룹 166070" transform="translate(6 -2)">
        <circle id="타원_9487-3" data-name="타원 9487" cx="8" cy="8" r="8" transform="translate(657 1933)" fill="#194da1"/>
        <text id="_2" data-name="2" transform="translate(665 1944)" fill="#fff" font-size="9" font-family="Pretendard-Bold, Pretendard" font-weight="700"><tspan x="-2.747" y="0">2</tspan></text>
      </g>
    </g>
    <g id="그룹_166110" data-name="그룹 166110" transform="translate(247 3062)">
      <text id="심사비_납부" data-name="심사비 납부" transform="translate(683 1944)" fill="#202020" font-size="14" font-family="Pretendard-Regular, Pretendard"><tspan x="0" y="0">심사비 납부</tspan></text>
      <g id="그룹_166070-3" data-name="그룹 166070" transform="translate(6 -2)">
        <circle id="타원_9487-4" data-name="타원 9487" cx="8" cy="8" r="8" transform="translate(657 1933)" fill="#194da1"/>
        <text id="_3" data-name="3" transform="translate(665 1944)" fill="#fff" font-size="9" font-family="Pretendard-Bold, Pretendard" font-weight="700"><tspan x="-2.874" y="0">3</tspan></text>
      </g>
    </g>
    <line id="선_3692" data-name="선 3692" x2="240" transform="translate(832 4980)" fill="none" stroke="#c2c2c2" stroke-width="1" stroke-dasharray="2"/>
    <path id="패스_85923" data-name="패스 85923" d="M0,0H240" transform="translate(832 4950)" fill="none" stroke="#c2c2c2" stroke-width="1" stroke-dasharray="2"/>
    <path id="다각형_47" data-name="다각형 47" d="M7,0l7,12H0Z" transform="translate(945.5 4957) rotate(-90)" fill="#1161f8"/>
    <path id="다각형_54" data-name="다각형 54" d="M7,0l7,12H0Z" transform="translate(958 4973) rotate(90)" fill="#545454"/>
    <g id="그룹_166220" data-name="그룹 166220">
      <g id="사각형_151775" data-name="사각형 151775" transform="translate(1082 4532)" fill="#fff" stroke="#c2c2c2" stroke-width="1">
        <rect width="180" height="180" rx="10" stroke="none"/>
        <rect x="0.5" y="0.5" width="179" height="179" rx="9.5" fill="none"/>
      </g>
      <g id="그룹_166140" data-name="그룹 166140" transform="translate(-142 3649)">
        <path id="패스_86309" data-name="패스 86309" d="M69.2,65.6H.8A.8.8,0,0,1,.8,64H69.2a.8.8,0,0,1,0,1.6" transform="translate(1279 942.391)" fill="#194da1"/>
        <rect id="사각형_151786" data-name="사각형 151786" width="17.099" height="49.158" transform="translate(1301.711 958.033)" fill="#fff"/>
        <path id="패스_86310" data-name="패스 86310" d="M38.4,68.764H21.3a.8.8,0,0,1-.8-.8V18.8a.8.8,0,0,1,.8-.8H38.4a.8.8,0,0,1,.8.8V67.962a.8.8,0,0,1-.8.8m-16.3-1.6H37.6V19.605H22.1Z" transform="translate(1280.408 939.23)" fill="#194da1"/>
        <path id="패스_86311" data-name="패스 86311" d="M33.852,29.606H25.3a.8.8,0,0,1,0-1.6h8.55a.8.8,0,0,1,0,1.6" transform="translate(1280.684 939.922)" fill="#194da1"/>
        <path id="패스_86312" data-name="패스 86312" d="M33.852,24.606H25.3a.8.8,0,0,1,0-1.6h8.55a.8.8,0,0,1,0,1.6" transform="translate(1280.684 939.578)" fill="#194da1"/>
        <path id="패스_86313" data-name="패스 86313" d="M33.852,34.607H25.3a.8.8,0,0,1,0-1.6h8.55a.8.8,0,1,1,0,1.6" transform="translate(1280.684 940.264)" fill="#194da1"/>
        <path id="패스_86314" data-name="패스 86314" d="M33.852,39.607H25.3a.8.8,0,1,1,0-1.6h8.55a.8.8,0,1,1,0,1.6" transform="translate(1280.684 940.607)" fill="#194da1"/>
        <path id="패스_86315" data-name="패스 86315" d="M33.852,44.608H25.3a.8.8,0,0,1,0-1.6h8.55a.8.8,0,0,1,0,1.6" transform="translate(1280.684 940.949)" fill="#194da1"/>
        <path id="패스_86316" data-name="패스 86316" d="M33.852,49.608H25.3a.8.8,0,0,1,0-1.6h8.55a.8.8,0,1,1,0,1.6" transform="translate(1280.684 941.293)" fill="#194da1"/>
        <path id="패스_86317" data-name="패스 86317" d="M33.852,54.609H25.3a.8.8,0,0,1,0-1.6h8.55a.8.8,0,0,1,0,1.6" transform="translate(1280.684 941.635)" fill="#194da1"/>
        <path id="패스_86318" data-name="패스 86318" d="M33.852,59.609H25.3a.8.8,0,1,1,0-1.6h8.55a.8.8,0,1,1,0,1.6" transform="translate(1280.684 941.979)" fill="#194da1"/>
        <rect id="사각형_151788" data-name="사각형 151788" width="18.703" height="55.571" transform="translate(1283.008 951.619)" fill="#fff"/>
        <path id="패스_86320" data-name="패스 86320" d="M22.5,69.175H3.8a.8.8,0,0,1-.8-.8V12.8a.8.8,0,0,1,.8-.8H22.5a.8.8,0,0,1,.8.8v55.57a.8.8,0,0,1-.8.8m-17.9-1.6H21.7V13.605H4.6Z" transform="translate(1279.206 938.818)" fill="#194da1"/>
        <path id="패스_86321" data-name="패스 86321" d="M7.056,19.609a.8.8,0,0,1-.8-.8.809.809,0,0,1,.235-.577.8.8,0,0,1,1.368.577.8.8,0,0,1-.235.557.808.808,0,0,1-.566.245" transform="translate(1279.43 939.236)" fill="#194da1"/>
        <path id="패스_86322" data-name="패스 86322" d="M13.836,18.808a.8.8,0,1,1,1.6,0,.8.8,0,0,1-1.6,0m-3.922,0a.8.8,0,1,1,.8.8.8.8,0,0,1-.8-.8" transform="translate(1279.681 939.234)" fill="#194da1"/>
        <path id="패스_86323" data-name="패스 86323" d="M18.056,19.609a.8.8,0,0,1-.566-.235.812.812,0,0,1-.011-1.132.819.819,0,0,1,1.144,0,.782.782,0,0,1,.235.565.8.8,0,0,1-.8.8" transform="translate(1280.186 939.236)" fill="#194da1"/>
        <path id="패스_86324" data-name="패스 86324" d="M7.056,24.609a.828.828,0,0,1-.566-.235.8.8,0,0,1-.235-.566.8.8,0,0,1,1.368-.565.782.782,0,0,1,.235.565.8.8,0,0,1-.8.8" transform="translate(1279.43 939.578)" fill="#194da1"/>
        <path id="패스_86325" data-name="패스 86325" d="M13.836,23.808a.8.8,0,0,1,1.6,0,.8.8,0,0,1-1.6,0m-3.922,0a.8.8,0,1,1,.8.8.8.8,0,0,1-.8-.8" transform="translate(1279.681 939.578)" fill="#194da1"/>
        <path id="패스_86326" data-name="패스 86326" d="M18.056,24.608a.8.8,0,0,1-.566-.235.818.818,0,0,1-.235-.566.8.8,0,0,1,.235-.565.837.837,0,0,1,1.133-.012.807.807,0,0,1-.566,1.379" transform="translate(1280.186 939.578)" fill="#194da1"/>
        <path id="패스_86327" data-name="패스 86327" d="M7.056,29.608a.785.785,0,0,1-.8-.8.788.788,0,0,1,.224-.565.838.838,0,0,1,1.134-.012.8.8,0,0,1-.557,1.379" transform="translate(1279.43 939.922)" fill="#194da1"/>
        <path id="패스_86328" data-name="패스 86328" d="M13.836,28.808a.8.8,0,1,1,1.6,0,.8.8,0,0,1-1.6,0m-3.922,0a.8.8,0,1,1,.8.8.8.8,0,0,1-.8-.8" transform="translate(1279.681 939.922)" fill="#194da1"/>
        <path id="패스_86329" data-name="패스 86329" d="M18.056,29.609a.8.8,0,0,1-.566-.235.812.812,0,0,1-.011-1.132.828.828,0,0,1,1.134-.012.815.815,0,0,1,.245.577.8.8,0,0,1-.8.8" transform="translate(1280.186 939.922)" fill="#194da1"/>
        <path id="패스_86330" data-name="패스 86330" d="M7.056,34.608a.8.8,0,0,1-.566-.235.816.816,0,0,1-.235-.566.8.8,0,0,1,1.358-.577.815.815,0,0,1,.245.577.8.8,0,0,1-.8.8" transform="translate(1279.43 940.266)" fill="#194da1"/>
        <path id="패스_86331" data-name="패스 86331" d="M13.836,33.808a.8.8,0,0,1,1.6,0,.8.8,0,1,1-1.6,0m-3.922,0a.8.8,0,1,1,.8.8.8.8,0,0,1-.8-.8" transform="translate(1279.681 940.264)" fill="#194da1"/>
        <path id="패스_86332" data-name="패스 86332" d="M18.056,34.608a.8.8,0,0,1-.566-.235.772.772,0,0,1-.235-.566.788.788,0,0,1,.224-.565.838.838,0,0,1,1.134-.012.815.815,0,0,1,.245.577.8.8,0,0,1-.8.8" transform="translate(1280.186 940.266)" fill="#194da1"/>
        <path id="패스_86333" data-name="패스 86333" d="M7.056,39.609a.8.8,0,0,1-.566-.235.791.791,0,0,1-.235-.566.836.836,0,0,1,.224-.565.819.819,0,0,1,1.144,0,.782.782,0,0,1,.235.565.816.816,0,0,1-.235.566.84.84,0,0,1-.566.235" transform="translate(1279.43 940.607)" fill="#194da1"/>
        <path id="패스_86334" data-name="패스 86334" d="M13.836,38.808a.8.8,0,0,1,1.6,0,.8.8,0,0,1-1.6,0m-3.922,0a.8.8,0,1,1,.8.8.8.8,0,0,1-.8-.8" transform="translate(1279.681 940.607)" fill="#194da1"/>
        <path id="패스_86335" data-name="패스 86335" d="M18.056,39.609a.8.8,0,0,1-.566-.235.791.791,0,0,1-.235-.566.836.836,0,0,1,.224-.565.819.819,0,0,1,1.144,0,.8.8,0,0,1,.235.565.8.8,0,0,1-.8.8" transform="translate(1280.186 940.607)" fill="#194da1"/>
        <path id="패스_86336" data-name="패스 86336" d="M7.056,44.608a.8.8,0,0,1-.566-.235.772.772,0,0,1-.235-.566.8.8,0,0,1,1.368-.565.8.8,0,0,1,.235.565.8.8,0,0,1-.8.8" transform="translate(1279.43 940.951)" fill="#194da1"/>
        <path id="패스_86337" data-name="패스 86337" d="M13.836,43.808a.8.8,0,0,1,1.6,0,.8.8,0,0,1-1.6,0m-3.922,0a.8.8,0,1,1,.8.8.8.8,0,0,1-.8-.8" transform="translate(1279.681 940.951)" fill="#194da1"/>
        <path id="패스_86338" data-name="패스 86338" d="M18.056,44.608a.8.8,0,0,1-.566-.235.816.816,0,0,1-.235-.566.8.8,0,0,1,.235-.565.815.815,0,0,1,1.123,0,.769.769,0,0,1,.245.565.8.8,0,0,1-.8.8" transform="translate(1280.186 940.951)" fill="#194da1"/>
        <path id="패스_86339" data-name="패스 86339" d="M7.056,49.608a.782.782,0,0,1-.566-.235.772.772,0,0,1-.235-.566.788.788,0,0,1,.224-.565.84.84,0,0,1,1.144,0,.8.8,0,0,1,.235.565.8.8,0,0,1-.8.8" transform="translate(1279.43 941.295)" fill="#194da1"/>
        <path id="패스_86340" data-name="패스 86340" d="M13.836,48.808a.8.8,0,0,1,1.6,0,.8.8,0,0,1-1.6,0m-3.922,0a.8.8,0,1,1,.8.8.8.8,0,0,1-.8-.8" transform="translate(1279.681 941.293)" fill="#194da1"/>
        <path id="패스_86341" data-name="패스 86341" d="M18.056,49.608a.8.8,0,0,1-.566-.235.772.772,0,0,1-.235-.566.788.788,0,0,1,.224-.565.828.828,0,0,1,1.134,0,.787.787,0,0,1,.245.565.8.8,0,0,1-.8.8" transform="translate(1280.186 941.295)" fill="#194da1"/>
        <path id="패스_86342" data-name="패스 86342" d="M7.056,54.608a.8.8,0,0,1-.566-.235.757.757,0,0,1-.235-.566.788.788,0,0,1,.224-.565.828.828,0,0,1,1.134,0,.787.787,0,0,1,.245.565.8.8,0,0,1-.8.8" transform="translate(1279.43 941.637)" fill="#194da1"/>
        <path id="패스_86343" data-name="패스 86343" d="M13.836,53.808a.8.8,0,1,1,.8.8.8.8,0,0,1-.8-.8m-3.922,0a.8.8,0,1,1,.8.8.8.8,0,0,1-.8-.8" transform="translate(1279.681 941.635)" fill="#194da1"/>
        <path id="패스_86344" data-name="패스 86344" d="M18.056,54.608a.8.8,0,0,1-.8-.8.8.8,0,0,1,1.368-.565.8.8,0,0,1,0,1.132.84.84,0,0,1-.566.235" transform="translate(1280.186 941.637)" fill="#194da1"/>
        <path id="패스_86345" data-name="패스 86345" d="M7.056,59.608a.8.8,0,0,1-.8-.8.791.791,0,0,1,1.358-.565.769.769,0,0,1,.245.565.8.8,0,0,1-.235.566.84.84,0,0,1-.566.235" transform="translate(1279.43 941.98)" fill="#194da1"/>
        <path id="패스_86346" data-name="패스 86346" d="M13.836,58.808a.8.8,0,1,1,.8.8.8.8,0,0,1-.8-.8m-3.922,0a.8.8,0,1,1,.8.8.8.8,0,0,1-.8-.8" transform="translate(1279.681 941.979)" fill="#194da1"/>
        <path id="패스_86347" data-name="패스 86347" d="M18.056,59.608a.8.8,0,0,1-.566-1.367.827.827,0,0,1,1.133,0,.8.8,0,0,1,0,1.132.84.84,0,0,1-.566.235" transform="translate(1280.186 941.98)" fill="#194da1"/>
        <path id="패스_86348" data-name="패스 86348" d="M23.925,13.605H2.552a.8.8,0,0,1,0-1.6H23.925a.8.8,0,0,1,0,1.6" transform="translate(1279.12 938.824)" fill="#194da1"/>
        <rect id="사각형_151789" data-name="사각형 151789" width="26.717" height="61.985" transform="translate(1318.811 938.801)" fill="#fff"/>
        <path id="패스_86349" data-name="패스 86349" d="M64.021,63.588H37.3a.8.8,0,0,1-.8-.8V.8a.8.8,0,0,1,.8-.8H64.021a.8.8,0,0,1,.8.8V62.786a.8.8,0,0,1-.8.8m-25.916-1.6H63.219V1.6H38.105Z" transform="translate(1281.508 938)" fill="#194da1"/>
        <rect id="사각형_151791" data-name="사각형 151791" width="26.717" height="6.412" transform="translate(1318.811 1000.785)" fill="#fff"/>
        <path id="패스_86351" data-name="패스 86351" d="M64.021,66.021H37.3a.8.8,0,0,1-.8-.8V58.808a.8.8,0,0,1,.8-.8H64.021a.8.8,0,0,1,.8.8V65.22a.8.8,0,0,1-.8.8m-25.916-1.6H63.219V59.609H38.105Z" transform="translate(1281.508 941.979)" fill="#194da1"/>
        <path id="패스_86352" data-name="패스 86352" d="M65.727,1.6H35.8a.8.8,0,0,1,0-1.6H65.727a.8.8,0,0,1,0,1.6" transform="translate(1281.404 938)" fill="#194da1"/>
        <path id="패스_86353" data-name="패스 86353" d="M52.3,59.038a.8.8,0,0,1-.8-.8V4.8a.8.8,0,1,1,1.6,0V58.236a.8.8,0,0,1-.8.8" transform="translate(1282.538 938.275)" fill="#194da1"/>
        <path id="패스_86354" data-name="패스 86354" d="M57.3,59.038a.8.8,0,0,1-.8-.8V4.8a.8.8,0,1,1,1.6,0V58.236a.8.8,0,0,1-.8.8" transform="translate(1282.882 938.275)" fill="#194da1"/>
        <path id="패스_86355" data-name="패스 86355" d="M42.3,59.038a.8.8,0,0,1-.8-.8V4.8a.8.8,0,1,1,1.6,0V58.236a.8.8,0,0,1-.8.8" transform="translate(1281.851 938.275)" fill="#194da1"/>
        <path id="패스_86356" data-name="패스 86356" d="M47.3,59.038a.8.8,0,0,1-.8-.8V4.8a.8.8,0,1,1,1.6,0V58.236a.8.8,0,0,1-.8.8" transform="translate(1282.194 938.275)" fill="#194da1"/>
        <path id="패스_86357" data-name="패스 86357" d="M32.525,11.888a2.137,2.137,0,1,1-2.137-2.137,2.137,2.137,0,0,1,2.137,2.137" transform="translate(1280.94 938.67)" fill="#fff"/>
        <path id="패스_86358" data-name="패스 86358" d="M30.439,14.879a2.939,2.939,0,1,1,2.939-2.939,2.941,2.941,0,0,1-2.939,2.939m0-4.275a1.336,1.336,0,1,0,1.336,1.336A1.338,1.338,0,0,0,30.439,10.6" transform="translate(1280.889 938.619)" fill="#194da1"/>
        <path id="패스_86359" data-name="패스 86359" d="M24.524,2.887A2.137,2.137,0,1,1,22.386.75a2.137,2.137,0,0,1,2.137,2.137" transform="translate(1280.391 938.051)" fill="#fff"/>
        <path id="패스_86360" data-name="패스 86360" d="M22.438,5.878a2.939,2.939,0,1,1,2.939-2.939,2.941,2.941,0,0,1-2.939,2.939m0-4.275a1.336,1.336,0,1,0,1.336,1.336A1.338,1.338,0,0,0,22.438,1.6" transform="translate(1280.34 938)" fill="#194da1"/>
        <path id="패스_86361" data-name="패스 86361" d="M13.523,5.887A2.137,2.137,0,1,1,11.385,3.75a2.138,2.138,0,0,1,2.137,2.137" transform="translate(1279.635 938.258)" fill="#fff"/>
        <path id="패스_86362" data-name="패스 86362" d="M11.437,8.879A2.939,2.939,0,1,1,14.376,5.94a2.941,2.941,0,0,1-2.939,2.939m0-4.275A1.336,1.336,0,1,0,12.773,5.94,1.337,1.337,0,0,0,11.437,4.6" transform="translate(1279.584 938.207)" fill="#194da1"/>
        <rect id="사각형_151792" data-name="사각형 151792" width="70" height="70" transform="translate(1279 938)" fill="none"/>
      </g>
    </g>
    <g id="그룹_166219" data-name="그룹 166219">
      <g id="사각형_151774" data-name="사각형 151774" transform="translate(642 4532)" fill="#fff" stroke="#c2c2c2" stroke-width="1">
        <rect width="180" height="180" rx="10" stroke="none"/>
        <rect x="0.5" y="0.5" width="179" height="179" rx="9.5" fill="none"/>
      </g>
      <g id="그룹_166141" data-name="그룹 166141" transform="translate(477 2860)">
        <path id="패스_86399" data-name="패스 86399" d="M37.031,1.814l2.137,2.949a2.572,2.572,0,0,0,3.43.682l3.1-1.907a2.573,2.573,0,0,1,3.849,1.594L50.4,8.677A2.572,2.572,0,0,0,53.3,10.62l3.6-.575a2.572,2.572,0,0,1,2.945,2.946l-.575,3.6A2.575,2.575,0,0,0,61.218,19.5l3.543.845a2.573,2.573,0,0,1,1.594,3.849L64.448,27.3a2.572,2.572,0,0,0,.682,3.429l2.95,2.137a2.572,2.572,0,0,1,0,4.165l-2.95,2.139a2.571,2.571,0,0,0-.682,3.429l1.907,3.1a2.573,2.573,0,0,1-1.594,3.849l-3.543.847A2.573,2.573,0,0,0,59.274,53.3l.575,3.6A2.572,2.572,0,0,1,56.9,59.847l-3.6-.574A2.569,2.569,0,0,0,50.4,61.216l-.846,3.543A2.572,2.572,0,0,1,45.7,66.353l-3.1-1.906a2.572,2.572,0,0,0-3.43.682l-2.137,2.95a2.572,2.572,0,0,1-4.165,0l-2.138-2.95a2.572,2.572,0,0,0-3.43-.682l-3.1,1.906a2.571,2.571,0,0,1-3.848-1.593L19.5,61.216a2.57,2.57,0,0,0-2.908-1.943l-3.6.574A2.573,2.573,0,0,1,10.047,56.9l.575-3.6A2.572,2.572,0,0,0,8.679,50.4l-3.545-.847A2.572,2.572,0,0,1,3.541,45.7l1.907-3.1a2.573,2.573,0,0,0-.683-3.429l-2.95-2.139a2.572,2.572,0,0,1,0-4.165l2.95-2.137A2.573,2.573,0,0,0,5.448,27.3L3.541,24.191a2.573,2.573,0,0,1,1.593-3.849L8.679,19.5a2.574,2.574,0,0,0,1.943-2.908l-.575-3.6a2.573,2.573,0,0,1,2.946-2.946l3.6.575A2.573,2.573,0,0,0,19.5,8.677l.846-3.545a2.572,2.572,0,0,1,3.848-1.594l3.1,1.907a2.572,2.572,0,0,0,3.43-.682l2.138-2.949a2.571,2.571,0,0,1,4.165,0" transform="translate(220.052 1727.052)" fill="#fff"/>
        <path id="패스_86401" data-name="패스 86401" d="M35,69.994A3.34,3.34,0,0,1,32.267,68.6L30.13,65.651a1.778,1.778,0,0,0-2.362-.47l-3.1,1.907A3.374,3.374,0,0,1,19.616,65l-.846-3.544a1.774,1.774,0,0,0-2-1.338l-3.6.574a3.373,3.373,0,0,1-3.863-3.863l.574-3.6a1.779,1.779,0,0,0-1.337-2L5,50.382a3.377,3.377,0,0,1-2.091-5.049l1.907-3.1a1.777,1.777,0,0,0-.469-2.362L1.4,37.729a3.373,3.373,0,0,1,0-5.465l2.95-2.137a1.778,1.778,0,0,0,.468-2.362l-1.907-3.1A3.373,3.373,0,0,1,5,19.615l3.545-.847a1.778,1.778,0,0,0,1.337-2l-.574-3.6A3.374,3.374,0,0,1,13.17,9.3l3.6.575a1.772,1.772,0,0,0,2-1.338L19.616,5a3.374,3.374,0,0,1,5.048-2.09l3.1,1.907a1.779,1.779,0,0,0,2.362-.47l2.137-2.95A3.343,3.343,0,0,1,35,0h0a3.34,3.34,0,0,1,2.731,1.395l2.138,2.95a1.779,1.779,0,0,0,2.361.47l3.105-1.907A3.374,3.374,0,0,1,50.382,5l.846,3.543a1.78,1.78,0,0,0,2,1.338l3.6-.575a3.375,3.375,0,0,1,3.864,3.863l-.574,3.6a1.778,1.778,0,0,0,1.336,2L65,19.615a3.372,3.372,0,0,1,2.091,5.046l-1.907,3.1a1.779,1.779,0,0,0,.47,2.362L68.6,32.264a3.376,3.376,0,0,1,0,5.465l-2.95,2.138a1.779,1.779,0,0,0-.469,2.362l1.907,3.1A3.375,3.375,0,0,1,65,50.382l-3.543.845a1.779,1.779,0,0,0-1.337,2l.574,3.6a3.374,3.374,0,0,1-3.864,3.863l-3.6-.574a1.78,1.78,0,0,0-2,1.338L50.382,65a3.373,3.373,0,0,1-5.047,2.091L42.23,65.181a1.774,1.774,0,0,0-2.361.47L37.731,68.6A3.334,3.334,0,0,1,35,69.994m-6.314-6.675a3.384,3.384,0,0,1,2.742,1.39l2.137,2.95a1.823,1.823,0,0,0,2.868,0l2.138-2.95a3.392,3.392,0,0,1,4.5-.9l3.1,1.907a1.771,1.771,0,0,0,2.649-1.1l.846-3.545a3.4,3.4,0,0,1,3.814-2.548l3.6.575a1.771,1.771,0,0,0,2.027-2.029l-.574-3.6a3.389,3.389,0,0,1,2.548-3.813l3.543-.845a1.773,1.773,0,0,0,1.1-2.651l-1.907-3.1a3.391,3.391,0,0,1,.893-4.5l2.951-2.138a1.772,1.772,0,0,0,0-2.868l-2.95-2.137a3.39,3.39,0,0,1-.894-4.5l1.907-3.1a1.769,1.769,0,0,0-1.1-2.648l-3.543-.847a3.389,3.389,0,0,1-2.548-3.814l.574-3.6a1.769,1.769,0,0,0-2.027-2.026l-3.6.574A3.393,3.393,0,0,1,49.67,8.914L48.823,5.37a1.77,1.77,0,0,0-2.649-1.1L43.07,6.18a3.387,3.387,0,0,1-4.5-.9L36.433,2.336A1.748,1.748,0,0,0,35,1.6h0a1.753,1.753,0,0,0-1.434.733L31.428,5.284a3.386,3.386,0,0,1-4.5.9l-3.1-1.907a1.772,1.772,0,0,0-2.65,1.1L20.33,8.914a3.39,3.39,0,0,1-3.814,2.549l-3.6-.574a1.77,1.77,0,0,0-2.028,2.026l.575,3.6a3.39,3.39,0,0,1-2.55,3.814l-3.542.847a1.768,1.768,0,0,0-1.1,2.648l1.906,3.1a3.39,3.39,0,0,1-.893,4.5l-2.95,2.137a1.769,1.769,0,0,0,0,2.868l2.949,2.138a3.389,3.389,0,0,1,.894,4.5l-1.906,3.1a1.771,1.771,0,0,0,1.1,2.651l3.543.845a3.389,3.389,0,0,1,2.549,3.813l-.575,3.6a1.772,1.772,0,0,0,2.028,2.029l3.6-.575A3.4,3.4,0,0,1,20.33,61.08l.845,3.545a1.772,1.772,0,0,0,2.65,1.1l3.1-1.907a3.345,3.345,0,0,1,1.756-.495" transform="translate(220 1727)" fill="#194da1"/>
        <path id="패스_86402" data-name="패스 86402" d="M34.261,57.767A23.508,23.508,0,1,1,57.77,34.258,23.509,23.509,0,0,1,34.261,57.767" transform="translate(220.739 1727.738)" fill="#fff"/>
        <path id="패스_86404" data-name="패스 86404" d="M34.312,58.62a24.31,24.31,0,1,1,24.31-24.31,24.337,24.337,0,0,1-24.31,24.31m0-47.017A22.707,22.707,0,1,0,57.019,34.31,22.733,22.733,0,0,0,34.312,11.6" transform="translate(220.687 1727.687)" fill="#194da1"/>
        <path id="패스_86405" data-name="패스 86405" d="M38.954,38.546l-.593-2.35H28.214l-.593,2.35A4.715,4.715,0,0,1,24.969,41.7l8.323,4.434L41.605,41.7a4.721,4.721,0,0,1-2.651-3.154" transform="translate(221.712 1729.483)" fill="#fff"/>
        <path id="패스_86406" data-name="패스 86406" d="M33.343,46.986a.8.8,0,0,1-.376-.094l-8.323-4.433a.8.8,0,0,1,.05-1.441,3.889,3.889,0,0,0,2.2-2.617l.593-2.35a.8.8,0,0,1,.778-.606H38.413a.8.8,0,0,1,.776.606l.593,2.35a3.892,3.892,0,0,0,2.2,2.617.8.8,0,0,1,.05,1.44l-8.313,4.433a.8.8,0,0,1-.378.1m-6.722-5.291,6.722,3.581,6.715-3.581a5.484,5.484,0,0,1-1.83-2.9l-.44-1.745h-8.9l-.44,1.745a5.486,5.486,0,0,1-1.829,2.9" transform="translate(221.661 1729.431)" fill="#194da1"/>
        <path id="패스_86407" data-name="패스 86407" d="M43.446,26.977c0,6.758-4.5,12.238-10.047,12.238S23.352,33.735,23.352,26.977,27.85,16.653,33.4,16.653s10.047,3.566,10.047,10.324" transform="translate(221.601 1728.142)" fill="#fff"/>
        <path id="패스_86408" data-name="패스 86408" d="M33.449,40.065c-5.981,0-10.847-5.848-10.847-13.038,0-6.654,4.359-11.125,10.847-11.125S44.3,20.373,44.3,27.027c0,7.19-4.867,13.038-10.849,13.038m0-22.56c-5.616,0-9.244,3.738-9.244,9.522,0,6.306,4.147,11.435,9.244,11.435S42.7,33.333,42.7,27.027c0-5.784-3.629-9.522-9.246-9.522" transform="translate(221.55 1728.09)" fill="#194da1"/>
        <path id="패스_86409" data-name="패스 86409" d="M33.387,23.853a16.269,16.269,0,0,0-9.611-.639,12.8,12.8,0,0,0-.424,3.342c0,6.759,4.5,12.238,10.047,12.238s10.047-5.478,10.047-12.238a13.408,13.408,0,0,0-.212-2.414,16.669,16.669,0,0,1-9.847-.289" transform="translate(221.601 1728.561)" fill="#fff"/>
        <path id="패스_86411" data-name="패스 86411" d="M33.449,39.646c-5.98,0-10.847-5.848-10.847-13.038a13.555,13.555,0,0,1,.452-3.55.8.8,0,0,1,.577-.569,16.966,16.966,0,0,1,10.084.665,15.86,15.86,0,0,0,9.369.263.8.8,0,0,1,.99.632,14.371,14.371,0,0,1,.224,2.56c0,7.19-4.867,13.038-10.849,13.038M24.488,23.935a12.214,12.214,0,0,0-.283,2.673c0,6.305,4.148,11.435,9.244,11.435S42.7,32.914,42.7,26.608a13.154,13.154,0,0,0-.077-1.434,17.105,17.105,0,0,1-9.458-.516,15.5,15.5,0,0,0-8.672-.722" transform="translate(221.55 1728.51)" fill="#194da1"/>
        <path id="패스_86412" data-name="패스 86412" d="M49.312,42.7l-5.871-1.014a4.769,4.769,0,0,1-1.118-.34l-8.312,4.434L25.69,41.345a4.754,4.754,0,0,1-1.118.34L18.7,42.7a7.028,7.028,0,0,0-4.256,2.494A23.477,23.477,0,0,0,34.008,55.671h0A23.477,23.477,0,0,0,53.568,45.193,7.028,7.028,0,0,0,49.312,42.7" transform="translate(220.992 1729.835)" fill="#fff"/>
        <path id="패스_86414" data-name="패스 86414" d="M34.063,56.524A24.281,24.281,0,0,1,13.832,45.691a.8.8,0,0,1,.046-.951,7.844,7.844,0,0,1,4.74-2.779l5.869-1.014a3.869,3.869,0,0,0,.927-.282.8.8,0,0,1,.7.026l7.945,4.232L42,40.69a.8.8,0,0,1,.7-.026,3.928,3.928,0,0,0,.927.282L49.5,41.961a7.844,7.844,0,0,1,4.74,2.779.8.8,0,0,1,.046.951A24.281,24.281,0,0,1,34.063,56.524M15.516,45.311a22.7,22.7,0,0,0,37.086,0,6.223,6.223,0,0,0-3.374-1.77l-5.869-1.014a5.523,5.523,0,0,1-.933-.247l-7.983,4.257a.8.8,0,0,1-.755,0L25.694,42.28a5.538,5.538,0,0,1-.932.247l-5.873,1.014a6.228,6.228,0,0,0-3.373,1.77" transform="translate(220.941 1729.784)" fill="#194da1"/>
        <path id="패스_86415" data-name="패스 86415" d="M51.717,66.675A14.962,14.962,0,1,1,66.678,51.714,14.962,14.962,0,0,1,51.717,66.675" transform="translate(222.519 1729.519)" fill="#fff"/>
        <path id="패스_86417" data-name="패스 86417" d="M51.768,67.528A15.763,15.763,0,1,1,67.531,51.765,15.781,15.781,0,0,1,51.768,67.528m0-29.923a14.16,14.16,0,1,0,14.16,14.16,14.176,14.176,0,0,0-14.16-14.16" transform="translate(222.467 1729.467)" fill="#194da1"/>
        <path id="패스_86418" data-name="패스 86418" d="M61.995,49.2l-4.1-4.1-7.858,7.827-4.356-4.357-4.1,4.1,8.458,8.459Z" transform="translate(222.85 1729.023)" fill="#fff"/>
        <path id="패스_86420" data-name="패스 86420" d="M50.087,61.981a.8.8,0,0,1-.567-.236l-8.458-8.458a.8.8,0,0,1,0-1.133l4.1-4.1a.8.8,0,0,1,1.134,0l3.791,3.791,7.291-7.262a.8.8,0,0,1,1.133,0l4.1,4.1a.8.8,0,0,1,0,1.134L50.654,61.746a.8.8,0,0,1-.566.235m-7.325-9.26,7.326,7.325,10.824-10.8-2.968-2.969-7.292,7.263a.8.8,0,0,1-1.133,0l-3.79-3.789Z" transform="translate(222.799 1728.972)" fill="#194da1"/>
        <path id="패스_86421" data-name="패스 86421" d="M60.03,2.887A2.137,2.137,0,1,1,57.892.75,2.137,2.137,0,0,1,60.03,2.887" transform="translate(223.824 1727.052)" fill="#fff"/>
        <path id="패스_86422" data-name="패스 86422" d="M57.945,5.878a2.939,2.939,0,1,1,2.939-2.939,2.941,2.941,0,0,1-2.939,2.939m0-4.275a1.336,1.336,0,1,0,1.336,1.336A1.338,1.338,0,0,0,57.945,1.6" transform="translate(223.773 1727)" fill="#194da1"/>
        <path id="패스_86423" data-name="패스 86423" d="M10.025,4.888A2.137,2.137,0,1,1,7.887,2.751a2.138,2.138,0,0,1,2.137,2.137" transform="translate(220.395 1727.189)" fill="#fff"/>
        <path id="패스_86424" data-name="패스 86424" d="M7.94,7.878a2.939,2.939,0,1,1,2.938-2.939A2.941,2.941,0,0,1,7.94,7.878m0-4.275A1.336,1.336,0,1,0,9.275,4.939,1.337,1.337,0,0,0,7.94,3.6" transform="translate(220.344 1727.137)" fill="#194da1"/>
        <path id="패스_86425" data-name="패스 86425" d="M14.026,62.894a2.137,2.137,0,1,1-2.137-2.137,2.138,2.138,0,0,1,2.137,2.137" transform="translate(220.67 1731.168)" fill="#fff"/>
        <path id="패스_86426" data-name="패스 86426" d="M11.94,65.884a2.939,2.939,0,1,1,2.939-2.939,2.941,2.941,0,0,1-2.939,2.939m0-4.275a1.336,1.336,0,1,0,1.336,1.336,1.337,1.337,0,0,0-1.336-1.336" transform="translate(220.618 1731.116)" fill="#194da1"/>
        <path id="패스_86427" data-name="패스 86427" d="M5.025,52.893a2.137,2.137,0,1,1-2.137-2.137,2.137,2.137,0,0,1,2.137,2.137" transform="translate(220.052 1730.482)" fill="#fff"/>
        <path id="패스_86428" data-name="패스 86428" d="M2.939,55.884a2.939,2.939,0,1,1,2.939-2.939,2.942,2.942,0,0,1-2.939,2.939m0-4.275a1.336,1.336,0,1,0,1.336,1.336,1.338,1.338,0,0,0-1.336-1.336" transform="translate(220 1730.43)" fill="#194da1"/>
        <path id="패스_86429" data-name="패스 86429" d="M65.031,11.889a2.137,2.137,0,1,1-2.137-2.137,2.138,2.138,0,0,1,2.137,2.137" transform="translate(224.168 1727.67)" fill="#fff"/>
        <path id="패스_86430" data-name="패스 86430" d="M62.945,14.88a2.939,2.939,0,1,1,2.939-2.939,2.942,2.942,0,0,1-2.939,2.939m0-4.275a1.336,1.336,0,1,0,1.336,1.336,1.337,1.337,0,0,0-1.336-1.336" transform="translate(224.116 1727.618)" fill="#194da1"/>
      </g>
    </g>
    <rect id="사각형_151271" data-name="사각형 151271" width="630" height="60" transform="translate(622.5 5661)" fill="#fff" stroke="#c2c2c2" stroke-width="1"/>
    <text id="인증유지" transform="translate(937 5697)" fill="#545454" font-size="16" font-family="Pretendard-Bold, Pretendard" font-weight="700"><tspan x="-27.656" y="0">인증유지</tspan></text>
  </g>
</svg>
