<svg xmlns="http://www.w3.org/2000/svg" width="120" height="120" viewBox="0 0 120 120">
  <g id="그룹_166180" data-name="그룹 166180" transform="translate(-1350 -322)">
    <circle id="타원_9496" data-name="타원 9496" cx="60" cy="60" r="60" transform="translate(1350 322)" fill="#fff"/>
    <g id="그룹_166093" data-name="그룹 166093" transform="translate(1 -1)">
      <path id="패스_84551" data-name="패스 84551" d="M1,23.317A2.7,2.7,0,0,0,3.724,26H48.277A2.7,2.7,0,0,0,51,23.317V20H1Z" transform="translate(1383 370.001)" fill="#fff" stroke="#194da1" stroke-linejoin="round" stroke-width="1.5"/>
      <rect id="사각형_151174" data-name="사각형 151174" width="50.001" height="22" transform="translate(1384 368)" fill="#fff" stroke="#194da1" stroke-linejoin="round" stroke-width="1.5"/>
      <path id="패스_84553" data-name="패스 84553" d="M51,3.516A2.626,2.626,0,0,0,48.277,1H3.724A2.626,2.626,0,0,0,1,3.516V6H51Z" transform="translate(1383 362)" fill="#fff" stroke="#194da1" stroke-linejoin="round" stroke-width="1.5"/>
      <line id="선_3538" data-name="선 3538" y2="7" transform="translate(1409 396)" fill="#fff" stroke="#194da1" stroke-width="1.5"/>
      <line id="선_3541" data-name="선 3541" x2="30" transform="translate(1395 403)" fill="none" stroke="#194da1" stroke-linecap="round" stroke-linejoin="round" stroke-width="1.5"/>
    </g>
  </g>
</svg>
