<svg xmlns="http://www.w3.org/2000/svg" width="80" height="80" viewBox="0 0 80 80">
  <g id="그룹_167202" data-name="그룹 167202" transform="translate(-664 -298)">
    <circle id="타원_9493" data-name="타원 9493" cx="40" cy="40" r="40" transform="translate(664 298)" fill="#fff"/>
    <g id="그룹_166036" data-name="그룹 166036" transform="translate(-738 -21)">
      <g id="사각형_151081" data-name="사각형 151081" transform="translate(1417 342)" fill="#fff" stroke="#194da1" stroke-width="1">
        <rect width="49.999" height="35" rx="1" stroke="none"/>
        <rect x="0.5" y="0.5" width="48.999" height="34" rx="0.5" fill="none"/>
      </g>
      <path id="패스_85934" data-name="패스 85934" d="M-15293-16915.029h50" transform="translate(16710 17262.893)" fill="none" stroke="#194da1" stroke-width="1"/>
      <g id="타원_9518" data-name="타원 9518" transform="translate(1462.998 344)" fill="#fff" stroke="#194da1" stroke-width="1">
        <circle cx="1" cy="1" r="1" stroke="none"/>
        <circle cx="1" cy="1" r="0.5" fill="none"/>
      </g>
      <g id="타원_9519" data-name="타원 9519" transform="translate(1459.998 344)" fill="#fff" stroke="#194da1" stroke-width="1">
        <circle cx="1" cy="1" r="1" stroke="none"/>
        <circle cx="1" cy="1" r="0.5" fill="none"/>
      </g>
      <g id="타원_9520" data-name="타원 9520" transform="translate(1456.271 344)" fill="#fff" stroke="#194da1" stroke-width="1">
        <circle cx="1" cy="1" r="1" stroke="none"/>
        <circle cx="1" cy="1" r="0.5" fill="none"/>
      </g>
      <g id="그룹_166035" data-name="그룹 166035">
        <g id="그룹_165618" data-name="그룹 165618" transform="translate(1433.999 352)">
          <g id="패스_84525" data-name="패스 84525" transform="translate(-8.49 -1)" fill="#fff" stroke-linecap="round" stroke-linejoin="round">
            <path d="M 16.48964881896973 16.49999618530273 C 12.35433006286621 16.49999618530273 8.989999771118164 13.135666847229 8.989999771118164 9.000347137451172 C 8.989999771118164 4.86463737487793 12.35433006286621 1.499997138977051 16.48964881896973 1.499997138977051 C 20.6253604888916 1.499997138977051 23.98999977111816 4.86463737487793 23.98999977111816 9.000347137451172 C 23.98999977111816 13.135666847229 20.6253604888916 16.49999618530273 16.48964881896973 16.49999618530273 Z" stroke="none"/>
            <path d="M 16.48964881896973 15.99999713897705 C 20.34965896606445 15.99999713897705 23.48999977111816 12.85996723175049 23.48999977111816 9.000347137451172 C 23.48999977111816 5.140336990356445 20.34965896606445 1.999997138977051 16.48964881896973 1.999997138977051 C 12.63002967834473 1.999997138977051 9.489999771118164 5.140336990356445 9.489999771118164 9.000347137451172 C 9.489999771118164 12.85996723175049 12.63002967834473 15.99999713897705 16.48964881896973 15.99999713897705 M 16.48964881896973 16.99999618530273 C 12.07813930511475 16.99999618530273 8.489999771118164 13.41185760498047 8.489999771118164 9.000347137451172 C 8.489999771118164 4.589177131652832 12.07813930511475 0.9999971389770508 16.48964881896973 0.9999971389770508 C 20.90115928649902 0.9999971389770508 24.48999977111816 4.589177131652832 24.48999977111816 9.000347137451172 C 24.48999977111816 13.41185760498047 20.90115928649902 16.99999618530273 16.48964881896973 16.99999618530273 Z" stroke="none" fill="#194da1"/>
          </g>
          <path id="패스_84526" data-name="패스 84526" d="M-12781.144-6274.856v6l4.979-2.4,5.021,2.4v-6" transform="translate(12784.144 6288.856)" fill="none" stroke="#194da1" stroke-linecap="square" stroke-linejoin="round" stroke-width="1"/>
        </g>
        <path id="check" d="M10.429,6l-4.42,4.286L4,8.338" transform="translate(1435.021 352.045)" fill="none" stroke="#194da1" stroke-linecap="round" stroke-linejoin="round" stroke-width="1"/>
      </g>
    </g>
  </g>
</svg>
