<svg xmlns="http://www.w3.org/2000/svg" width="90" height="90" viewBox="0 0 90 90">
  <g id="그룹_165405" data-name="그룹 165405" transform="translate(-687 -1286)">
    <path id="패스_83439" data-name="패스 83439" d="M82.7,71.658H7.259A1.565,1.565,0,0,1,5.75,70.043V16.75H82.7Z" transform="translate(682.28 1292.262)" fill="#fff"/>
    <path id="패스_83440" data-name="패스 83440" d="M76.6,73.014H2.4A2.408,2.408,0,0,1,0,70.61V17.03A1.031,1.031,0,0,1,1.031,16H77.976a1.031,1.031,0,0,1,1.031,1.03V70.61a2.408,2.408,0,0,1-2.4,2.4M2.061,18.061V70.61a.344.344,0,0,0,.344.343H76.6a.344.344,0,0,0,.344-.343V18.061Z" transform="translate(687 1291.982)" fill="#345080"/>
    <path id="패스_83442" data-name="패스 83442" d="M82.7,20.861H7.259c-.834,0-1.509-.967-1.509-2.159V5.749H81.187c.833,0,1.509.967,1.509,2.159Z" transform="translate(682.28 1288.149)" fill="#fff"/>
    <path id="패스_83443" data-name="패스 83443" d="M77.976,22.173H1.031A1.031,1.031,0,0,1,0,21.143V7.4A2.407,2.407,0,0,1,2.4,5H76.6a2.407,2.407,0,0,1,2.4,2.4V21.143a1.031,1.031,0,0,1-1.031,1.03M2.061,20.112H76.945V7.4a.344.344,0,0,0-.344-.343H2.4a.344.344,0,0,0-.344.343Z" transform="translate(687 1287.87)" fill="#345080"/>
    <path id="패스_83444" data-name="패스 83444" d="M36.653,15.8a1.03,1.03,0,1,1,0-2.061,3.094,3.094,0,0,0,3.092-3.091v-5.5a3.092,3.092,0,0,0-6.183,0V7.9a1.031,1.031,0,0,1-2.061,0V5.152a5.153,5.153,0,0,1,10.305,0v5.5A5.158,5.158,0,0,1,36.653,15.8" transform="translate(698.782 1286)" fill="#345080"/>
    <path id="패스_83445" data-name="패스 83445" d="M49.655,15.8a1.03,1.03,0,1,1,0-2.061,3.1,3.1,0,0,0,3.092-3.091v-5.5a3.092,3.092,0,0,0-6.183,0V7.9a1.031,1.031,0,0,1-2.061,0V5.152a5.153,5.153,0,0,1,10.305,0v5.5A5.159,5.159,0,0,1,49.655,15.8" transform="translate(703.645 1286)" fill="#345080"/>
    <path id="패스_83446" data-name="패스 83446" d="M23.652,15.8a1.03,1.03,0,1,1,0-2.061,3.094,3.094,0,0,0,3.092-3.091v-5.5a3.092,3.092,0,0,0-6.183,0V7.9a1.031,1.031,0,0,1-2.061,0V5.152a5.153,5.153,0,0,1,10.305,0v5.5A5.158,5.158,0,0,1,23.652,15.8" transform="translate(693.919 1286)" fill="#345080"/>
    <path id="패스_83447" data-name="패스 83447" d="M10.651,15.8a1.03,1.03,0,1,1,0-2.061,3.1,3.1,0,0,0,3.092-3.091v-5.5a3.092,3.092,0,0,0-6.183,0V7.9A1.031,1.031,0,0,1,5.5,7.9V5.152a5.153,5.153,0,0,1,10.305,0v5.5A5.159,5.159,0,0,1,10.651,15.8" transform="translate(689.057 1286)" fill="#345080"/>
    <g id="그룹_165403" data-name="그룹 165403">
      <path id="패스_83448" data-name="패스 83448" d="M35.794,22.754a1.374,1.374,0,1,0,1.374,1.374,1.369,1.369,0,0,0-1.374-1.374" transform="translate(699.874 1294.507)" fill="#345080"/>
      <path id="패스_83449" data-name="패스 83449" d="M42.464,22.754a1.374,1.374,0,1,0,0,2.748,1.374,1.374,0,1,0,0-2.748" transform="translate(702.369 1294.507)" fill="#345080"/>
      <path id="패스_83450" data-name="패스 83450" d="M42.464,28.754a1.374,1.374,0,1,0,0,2.748,1.374,1.374,0,1,0,0-2.748" transform="translate(702.369 1296.75)" fill="#345080"/>
      <path id="패스_83451" data-name="패스 83451" d="M49.124,25.5a1.35,1.35,0,0,0,.976-.412,1.376,1.376,0,0,0,0-1.937,1.421,1.421,0,0,0-1.937,0,1.381,1.381,0,0,0,.962,2.349" transform="translate(704.859 1294.511)" fill="#345080"/>
      <path id="패스_83452" data-name="패스 83452" d="M8.145,29.148a1.424,1.424,0,0,0-.385.975,1.4,1.4,0,0,0,.4.975,1.419,1.419,0,0,0,.976.4,1.409,1.409,0,0,0,1.374-1.374,1.4,1.4,0,0,0-.412-.975,1.439,1.439,0,0,0-1.951,0" transform="translate(689.902 1296.754)" fill="#345080"/>
      <path id="패스_83453" data-name="패스 83453" d="M29.138,28.754a1.374,1.374,0,1,0,1.374,1.374,1.372,1.372,0,0,0-1.374-1.374" transform="translate(697.379 1296.75)" fill="#345080"/>
      <path id="패스_83454" data-name="패스 83454" d="M35.794,28.754a1.374,1.374,0,1,0,1.374,1.374,1.369,1.369,0,0,0-1.374-1.374" transform="translate(699.874 1296.75)" fill="#345080"/>
      <path id="패스_83455" data-name="패스 83455" d="M15.794,28.754a1.374,1.374,0,1,0,1.374,1.374,1.369,1.369,0,0,0-1.374-1.374" transform="translate(692.394 1296.75)" fill="#345080"/>
      <path id="패스_83456" data-name="패스 83456" d="M22.464,28.754a1.374,1.374,0,1,0,1.374,1.374,1.369,1.369,0,0,0-1.374-1.374" transform="translate(694.889 1296.75)" fill="#345080"/>
      <path id="패스_83457" data-name="패스 83457" d="M8.145,35.148a1.424,1.424,0,0,0-.385.975,1.377,1.377,0,0,0,.4.975,1.419,1.419,0,0,0,.976.4,1.366,1.366,0,0,0,.962-.412,1.347,1.347,0,0,0,.412-.962,1.4,1.4,0,0,0-.412-.975,1.439,1.439,0,0,0-1.951,0" transform="translate(689.902 1298.998)" fill="#345080"/>
      <path id="패스_83458" data-name="패스 83458" d="M15.794,34.754a1.374,1.374,0,1,0,1.374,1.374,1.369,1.369,0,0,0-1.374-1.374" transform="translate(692.394 1298.993)" fill="#345080"/>
      <path id="패스_83459" data-name="패스 83459" d="M22.464,34.754a1.374,1.374,0,1,0,1.374,1.374,1.369,1.369,0,0,0-1.374-1.374" transform="translate(694.889 1298.993)" fill="#345080"/>
      <path id="패스_83460" data-name="패스 83460" d="M29.138,34.754a1.374,1.374,0,1,0,1.374,1.374,1.372,1.372,0,0,0-1.374-1.374" transform="translate(697.379 1298.993)" fill="#345080"/>
      <path id="패스_83461" data-name="패스 83461" d="M29.138,40.76a1.374,1.374,0,1,0,1.374,1.374,1.373,1.373,0,0,0-1.374-1.374" transform="translate(697.379 1301.238)" fill="#345080"/>
      <path id="패스_83462" data-name="패스 83462" d="M8.158,41.148a1.337,1.337,0,0,0-.4.975A1.36,1.36,0,0,0,9.12,43.5a1.419,1.419,0,0,0,.976-.4,1.383,1.383,0,0,0,.4-.975,1.337,1.337,0,0,0-.4-.975,1.421,1.421,0,0,0-1.937,0" transform="translate(689.902 1301.24)" fill="#345080"/>
      <path id="패스_83463" data-name="패스 83463" d="M15.794,40.754a1.374,1.374,0,1,0,1.374,1.374,1.369,1.369,0,0,0-1.374-1.374" transform="translate(692.394 1301.236)" fill="#345080"/>
      <path id="패스_83464" data-name="패스 83464" d="M22.464,40.754a1.374,1.374,0,1,0,1.374,1.374,1.369,1.369,0,0,0-1.374-1.374" transform="translate(694.889 1301.236)" fill="#345080"/>
      <path id="패스_83465" data-name="패스 83465" d="M8.162,47.148a1.349,1.349,0,0,0-.412.975,1.4,1.4,0,0,0,.412.975,1.377,1.377,0,0,0,1.937,0,1.383,1.383,0,0,0,.4-.975,1.337,1.337,0,0,0-.4-.975,1.421,1.421,0,0,0-1.937,0" transform="translate(689.898 1303.483)" fill="#345080"/>
      <path id="패스_83466" data-name="패스 83466" d="M15.794,46.754a1.374,1.374,0,1,0,1.374,1.374,1.378,1.378,0,0,0-1.374-1.374" transform="translate(692.394 1303.479)" fill="#345080"/>
      <path id="패스_83467" data-name="패스 83467" d="M22.464,46.754a1.374,1.374,0,1,0,1.374,1.374,1.378,1.378,0,0,0-1.374-1.374" transform="translate(694.889 1303.479)" fill="#345080"/>
    </g>
    <g id="그룹_165401" data-name="그룹 165401">
      <path id="패스_83468" data-name="패스 83468" d="M57.9,77.154a22.9,22.9,0,0,1-7.582,0L49.06,69.207a16.109,16.109,0,0,1-2.045-.853L40.5,73.081a23.2,23.2,0,0,1-5.366-5.357l4.731-6.513a15.787,15.787,0,0,1-.852-2.044L31.064,57.9a23.062,23.062,0,0,1,0-7.577l7.953-1.267a16.263,16.263,0,0,1,.848-2.043L35.138,40.5A23.373,23.373,0,0,1,40.5,35.141l6.512,4.729a14.973,14.973,0,0,1,2.045-.849l1.263-7.946a23,23,0,0,1,7.582,0l1.264,7.946a14.708,14.708,0,0,1,2.04.849l6.518-4.729A23.531,23.531,0,0,1,73.092,40.5l-4.734,6.52a14.639,14.639,0,0,1,.855,2.043l7.95,1.267a23.677,23.677,0,0,1,0,7.577l-7.95,1.265a15.426,15.426,0,0,1-.855,2.044l4.734,6.513a23.352,23.352,0,0,1-5.364,5.357l-6.518-4.727a15.806,15.806,0,0,1-2.04.853Z" transform="translate(698.502 1297.5)" fill="#fff"/>
      <path id="패스_83470" data-name="패스 83470" d="M54.394,78.781a24.63,24.63,0,0,1-3.957-.328,1.028,1.028,0,0,1-.852-.856l-1.168-7.345c-.333-.126-.668-.268-1.011-.425L41.389,74.2a1.029,1.029,0,0,1-1.205.006,24.223,24.223,0,0,1-5.6-5.594,1.029,1.029,0,0,1,0-1.206l4.371-6.017c-.154-.341-.3-.679-.423-1.014L31.181,59.2a1.033,1.033,0,0,1-.855-.849,24.2,24.2,0,0,1,0-7.913,1.033,1.033,0,0,1,.855-.849l7.35-1.172c.125-.331.267-.669.42-1.01l-4.368-6.024a1.031,1.031,0,0,1,0-1.209,24.334,24.334,0,0,1,5.6-5.59,1.034,1.034,0,0,1,1.205,0L47.4,38.956c.335-.152.675-.294,1.014-.422l1.168-7.342a1.031,1.031,0,0,1,.848-.855,24.093,24.093,0,0,1,7.92,0,1.033,1.033,0,0,1,.849.855l1.167,7.342c.341.128.679.269,1.014.422l6.02-4.369a1.029,1.029,0,0,1,1.206,0,24.446,24.446,0,0,1,5.6,5.589,1.031,1.031,0,0,1,0,1.209L69.834,47.4c.15.328.293.668.423,1.017L77.6,49.588a1.028,1.028,0,0,1,.853.849,24.506,24.506,0,0,1,0,7.913,1.028,1.028,0,0,1-.855.849l-7.347,1.169c-.129.342-.271.681-.423,1.014L74.2,67.4a1.027,1.027,0,0,1,0,1.206,24.274,24.274,0,0,1-5.6,5.593,1.034,1.034,0,0,1-1.206,0L61.38,69.828q-.511.235-1.01.425L59.2,77.6a1.031,1.031,0,0,1-.853.856,24.6,24.6,0,0,1-3.954.328m3.79-1.345h0ZM51.5,76.527a21.68,21.68,0,0,0,5.783,0l1.145-7.2a1.033,1.033,0,0,1,.691-.816,14.647,14.647,0,0,0,1.909-.8,1.033,1.033,0,0,1,1.065.088L68,72.084A22.234,22.234,0,0,0,72.091,68L67.8,62.1a1.033,1.033,0,0,1-.085-1.07,14.646,14.646,0,0,0,.8-1.908,1.028,1.028,0,0,1,.815-.69l7.2-1.147a22.593,22.593,0,0,0,0-5.778l-7.2-1.149a1.031,1.031,0,0,1-.816-.691,13.65,13.65,0,0,0-.793-1.9,1.028,1.028,0,0,1,.082-1.074l4.287-5.906A22.441,22.441,0,0,0,68,36.7l-5.907,4.286a1.03,1.03,0,0,1-1.072.085,13.462,13.462,0,0,0-1.9-.79,1.03,1.03,0,0,1-.7-.817l-1.145-7.2a22.146,22.146,0,0,0-5.783,0l-1.146,7.2a1.031,1.031,0,0,1-.7.817,13.917,13.917,0,0,0-1.9.79,1.027,1.027,0,0,1-1.07-.085l-5.9-4.286A22.326,22.326,0,0,0,36.7,40.785l4.283,5.906a1.031,1.031,0,0,1,.089,1.061,15.246,15.246,0,0,0-.794,1.912,1.033,1.033,0,0,1-.816.692L32.25,51.5a22.266,22.266,0,0,0,0,5.778l7.207,1.147a1.03,1.03,0,0,1,.818.692,14.871,14.871,0,0,0,.8,1.91,1.032,1.032,0,0,1-.088,1.066L36.7,68a22.157,22.157,0,0,0,4.092,4.086l5.9-4.285a1.035,1.035,0,0,1,1.062-.089,14.9,14.9,0,0,0,1.913.8,1.031,1.031,0,0,1,.691.816Z" transform="translate(698.221 1297.219)" fill="#345080"/>
      <path id="패스_83471" data-name="패스 83471" d="M49.686,56.8a7.108,7.108,0,1,0-7.109-7.108A7.109,7.109,0,0,0,49.686,56.8" transform="translate(702.925 1301.921)" fill="#fff"/>
      <path id="패스_83473" data-name="패스 83473" d="M49.967,58.113a8.139,8.139,0,1,1,8.14-8.139,8.148,8.148,0,0,1-8.14,8.139m0-14.216a6.078,6.078,0,1,0,6.079,6.078A6.085,6.085,0,0,0,49.967,43.9" transform="translate(702.645 1301.64)" fill="#345080"/>
    </g>
    <rect id="사각형_150651" data-name="사각형 150651" width="90" height="90" transform="translate(687 1286)" fill="none"/>
  </g>
</svg>
