<svg xmlns="http://www.w3.org/2000/svg" width="80" height="80" viewBox="0 0 80 80">
  <g id="그룹_166811" data-name="그룹 166811" transform="translate(-920 -354)">
    <circle id="타원_9495" data-name="타원 9495" cx="40" cy="40" r="40" transform="translate(920 354)" fill="#fff"/>
    <g id="그룹_166190" data-name="그룹 166190" transform="translate(141.5 111)">
      <path id="패스_84551" data-name="패스 84551" d="M1,23.317A2.7,2.7,0,0,0,3.724,26H48.277A2.7,2.7,0,0,0,51,23.317V20H1Z" transform="translate(792.5 270.002)" fill="#fff" stroke="#194da1" stroke-linejoin="round" stroke-width="1.5"/>
      <rect id="사각형_151174" data-name="사각형 151174" width="50.001" height="22" transform="translate(793.5 268)" fill="#fff" stroke="#194da1" stroke-linejoin="round" stroke-width="1.5"/>
      <path id="패스_84553" data-name="패스 84553" d="M51,3.516A2.626,2.626,0,0,0,48.277,1H3.724A2.626,2.626,0,0,0,1,3.516V6H51Z" transform="translate(792.5 262)" fill="#fff" stroke="#194da1" stroke-linejoin="round" stroke-width="1.5"/>
      <line id="선_3538" data-name="선 3538" y2="7" transform="translate(818.5 296)" fill="#fff" stroke="#194da1" stroke-width="1.5"/>
      <line id="선_3541" data-name="선 3541" x2="30" transform="translate(803.5 303)" fill="none" stroke="#194da1" stroke-linecap="round" stroke-linejoin="round" stroke-width="1.5"/>
      <g id="그룹_166192" data-name="그룹 166192">
        <g id="타원_9511" data-name="타원 9511" transform="translate(811 272)" fill="#fff" stroke="#194da1" stroke-width="1.5">
          <circle cx="7" cy="7" r="7" stroke="none"/>
          <circle cx="7" cy="7" r="6.25" fill="none"/>
        </g>
        <g id="check" transform="translate(815 277)">
          <path id="check-2" data-name="check" d="M10.429,6l-4.42,4.286L4,8.338" transform="translate(-4 -6)" fill="none" stroke="#194da1" stroke-linecap="round" stroke-linejoin="round" stroke-width="1.5"/>
        </g>
      </g>
    </g>
  </g>
</svg>
