<svg xmlns="http://www.w3.org/2000/svg" width="90" height="90.001" viewBox="0 0 90 90.001">
  <g id="그룹_165404" data-name="그룹 165404" transform="translate(-1143 -1287)">
    <g id="그룹_165356" data-name="그룹 165356" transform="translate(0 -69.998)">
      <g id="패스_83335" data-name="패스 83335" transform="translate(1151 1356.998)" fill="#fff">
        <path d="M 59 79 L 1 79 L 1 1 L 59 1 L 59 79 Z" stroke="none"/>
        <path d="M 2 2 L 2 78 L 58 78 L 58 2 L 2 2 M 0 0 L 60 0 L 60 80 L 0 80 L 0 0 Z" stroke="none" fill="#345080"/>
      </g>
      <g id="패스_83333" data-name="패스 83333" transform="translate(1143 1363.998)" fill="#fff">
        <path d="M 59 79 L 1 79 L 1 1 L 59 1 L 59 79 Z" stroke="none"/>
        <path d="M 2 2 L 2 78 L 58 78 L 58 2 L 2 2 M 0 0 L 60 0 L 60 80 L 0 80 L 0 0 Z" stroke="none" fill="#345080"/>
      </g>
      <g id="타원_19" data-name="타원 19" transform="translate(1150 1374.998)" fill="#fff" stroke="#345080" stroke-width="2">
        <circle cx="10" cy="10" r="10" stroke="none"/>
        <circle cx="10" cy="10" r="9" fill="none"/>
      </g>
      <line id="선_590" data-name="선 590" x2="18" transform="translate(1177 1376.998)" fill="none" stroke="#345080" stroke-linecap="round" stroke-width="2"/>
      <line id="선_591" data-name="선 591" x2="18" transform="translate(1177 1384.998)" fill="none" stroke="#345080" stroke-linecap="round" stroke-width="2"/>
      <line id="선_592" data-name="선 592" x2="18" transform="translate(1177 1392.998)" fill="none" stroke="#345080" stroke-linecap="round" stroke-width="2"/>
      <line id="선_593" data-name="선 593" x2="44" transform="translate(1151 1402.998)" fill="none" stroke="#345080" stroke-linecap="round" stroke-width="2"/>
      <line id="선_594" data-name="선 594" x2="36" transform="translate(1151 1412.998)" fill="none" stroke="#345080" stroke-linecap="round" stroke-width="2"/>
      <line id="선_595" data-name="선 595" x2="30" transform="translate(1151 1422.998)" fill="none" stroke="#345080" stroke-linecap="round" stroke-width="2"/>
      <line id="선_596" data-name="선 596" x2="30" transform="translate(1151 1432.998)" fill="none" stroke="#345080" stroke-linecap="round" stroke-width="2"/>
    </g>
    <g id="그룹_165402" data-name="그룹 165402" transform="translate(456 1)">
      <path id="패스_83468" data-name="패스 83468" d="M57.9,77.154a22.9,22.9,0,0,1-7.582,0L49.06,69.207a16.109,16.109,0,0,1-2.045-.853L40.5,73.081a23.2,23.2,0,0,1-5.366-5.357l4.731-6.513a15.787,15.787,0,0,1-.852-2.044L31.064,57.9a23.062,23.062,0,0,1,0-7.577l7.953-1.267a16.263,16.263,0,0,1,.848-2.043L35.138,40.5A23.373,23.373,0,0,1,40.5,35.141l6.512,4.729a14.973,14.973,0,0,1,2.045-.849l1.263-7.946a23,23,0,0,1,7.582,0l1.264,7.946a14.708,14.708,0,0,1,2.04.849l6.518-4.729A23.531,23.531,0,0,1,73.092,40.5l-4.734,6.52a14.639,14.639,0,0,1,.855,2.043l7.95,1.267a23.677,23.677,0,0,1,0,7.577l-7.95,1.265a15.426,15.426,0,0,1-.855,2.044l4.734,6.513a23.352,23.352,0,0,1-5.364,5.357l-6.518-4.727a15.806,15.806,0,0,1-2.04.853Z" transform="translate(698.502 1297.5)" fill="#fff"/>
      <path id="패스_83470" data-name="패스 83470" d="M54.394,78.781a24.63,24.63,0,0,1-3.957-.328,1.028,1.028,0,0,1-.852-.856l-1.168-7.345c-.333-.126-.668-.268-1.011-.425L41.389,74.2a1.029,1.029,0,0,1-1.205.006,24.223,24.223,0,0,1-5.6-5.594,1.029,1.029,0,0,1,0-1.206l4.371-6.017c-.154-.341-.3-.679-.423-1.014L31.181,59.2a1.033,1.033,0,0,1-.855-.849,24.2,24.2,0,0,1,0-7.913,1.033,1.033,0,0,1,.855-.849l7.35-1.172c.125-.331.267-.669.42-1.01l-4.368-6.024a1.031,1.031,0,0,1,0-1.209,24.334,24.334,0,0,1,5.6-5.59,1.034,1.034,0,0,1,1.205,0L47.4,38.956c.335-.152.675-.294,1.014-.422l1.168-7.342a1.031,1.031,0,0,1,.848-.855,24.093,24.093,0,0,1,7.92,0,1.033,1.033,0,0,1,.849.855l1.167,7.342c.341.128.679.269,1.014.422l6.02-4.369a1.029,1.029,0,0,1,1.206,0,24.446,24.446,0,0,1,5.6,5.589,1.031,1.031,0,0,1,0,1.209L69.834,47.4c.15.328.293.668.423,1.017L77.6,49.588a1.028,1.028,0,0,1,.853.849,24.506,24.506,0,0,1,0,7.913,1.028,1.028,0,0,1-.855.849l-7.347,1.169c-.129.342-.271.681-.423,1.014L74.2,67.4a1.027,1.027,0,0,1,0,1.206,24.274,24.274,0,0,1-5.6,5.593,1.034,1.034,0,0,1-1.206,0L61.38,69.828q-.511.235-1.01.425L59.2,77.6a1.031,1.031,0,0,1-.853.856,24.6,24.6,0,0,1-3.954.328m3.79-1.345h0ZM51.5,76.527a21.68,21.68,0,0,0,5.783,0l1.145-7.2a1.033,1.033,0,0,1,.691-.816,14.647,14.647,0,0,0,1.909-.8,1.033,1.033,0,0,1,1.065.088L68,72.084A22.234,22.234,0,0,0,72.091,68L67.8,62.1a1.033,1.033,0,0,1-.085-1.07,14.646,14.646,0,0,0,.8-1.908,1.028,1.028,0,0,1,.815-.69l7.2-1.147a22.593,22.593,0,0,0,0-5.778l-7.2-1.149a1.031,1.031,0,0,1-.816-.691,13.65,13.65,0,0,0-.793-1.9,1.028,1.028,0,0,1,.082-1.074l4.287-5.906A22.441,22.441,0,0,0,68,36.7l-5.907,4.286a1.03,1.03,0,0,1-1.072.085,13.462,13.462,0,0,0-1.9-.79,1.03,1.03,0,0,1-.7-.817l-1.145-7.2a22.146,22.146,0,0,0-5.783,0l-1.146,7.2a1.031,1.031,0,0,1-.7.817,13.917,13.917,0,0,0-1.9.79,1.027,1.027,0,0,1-1.07-.085l-5.9-4.286A22.326,22.326,0,0,0,36.7,40.785l4.283,5.906a1.031,1.031,0,0,1,.089,1.061,15.246,15.246,0,0,0-.794,1.912,1.033,1.033,0,0,1-.816.692L32.25,51.5a22.266,22.266,0,0,0,0,5.778l7.207,1.147a1.03,1.03,0,0,1,.818.692,14.871,14.871,0,0,0,.8,1.91,1.032,1.032,0,0,1-.088,1.066L36.7,68a22.157,22.157,0,0,0,4.092,4.086l5.9-4.285a1.035,1.035,0,0,1,1.062-.089,14.9,14.9,0,0,0,1.913.8,1.031,1.031,0,0,1,.691.816Z" transform="translate(698.221 1297.219)" fill="#345080"/>
      <path id="패스_83471" data-name="패스 83471" d="M49.686,56.8a7.108,7.108,0,1,0-7.109-7.108A7.109,7.109,0,0,0,49.686,56.8" transform="translate(702.925 1301.921)" fill="#fff"/>
      <path id="패스_83473" data-name="패스 83473" d="M49.967,58.113a8.139,8.139,0,1,1,8.14-8.139,8.148,8.148,0,0,1-8.14,8.139m0-14.216a6.078,6.078,0,1,0,6.079,6.078A6.085,6.085,0,0,0,49.967,43.9" transform="translate(702.645 1301.64)" fill="#345080"/>
    </g>
  </g>
</svg>
