<svg xmlns="http://www.w3.org/2000/svg" width="80" height="80" viewBox="0 0 80 80">
  <g id="그룹_167200" data-name="그룹 167200" transform="translate(-56 -298)">
    <circle id="타원_9492" data-name="타원 9492" cx="40" cy="40" r="40" transform="translate(56 298)" fill="#fff"/>
    <g id="그룹_166570" data-name="그룹 166570" transform="translate(-384 -30)">
      <path id="패스_83199" data-name="패스 83199" d="M32.142,1,24.366,8.66V51H62.41V1Z" transform="translate(434.634 342)" fill="#fff" stroke="#194da1" stroke-linecap="round" stroke-linejoin="round" stroke-width="1"/>
      <path id="패스_83201" data-name="패스 83201" d="M32.116,8.75h-7.75L32.116,1V8.75Z" transform="translate(434.634 342)" fill="#fff" stroke="#194da1" stroke-linecap="round" stroke-linejoin="round" stroke-width="1"/>
      <line id="선_574" data-name="선 574" x2="22" transform="translate(467.021 355.988)" fill="none" stroke="#194da1" stroke-linecap="round" stroke-linejoin="round" stroke-width="1"/>
      <line id="선_575" data-name="선 575" x2="22" transform="translate(467.021 361.994)" fill="none" stroke="#194da1" stroke-linecap="round" stroke-linejoin="round" stroke-width="1"/>
      <line id="선_576" data-name="선 576" x2="18" transform="translate(467.021 369.002)" fill="none" stroke="#194da1" stroke-linecap="round" stroke-linejoin="round" stroke-width="1"/>
      <line id="선_3507" data-name="선 3507" x2="18" transform="translate(467.021 375.008)" fill="none" stroke="#194da1" stroke-linecap="round" stroke-linejoin="round" stroke-width="1"/>
      <line id="선_3508" data-name="선 3508" x2="18" transform="translate(467.021 382.016)" fill="none" stroke="#194da1" stroke-linecap="round" stroke-linejoin="round" stroke-width="1"/>
      <path id="사각형_150527" data-name="사각형 150527" d="M1.427,0h0A1.427,1.427,0,0,1,2.854,1.427V7.136a0,0,0,0,1,0,0H0a0,0,0,0,1,0,0V1.427A1.427,1.427,0,0,1,1.427,0Z" transform="translate(506.721 358.971) rotate(37)" fill="#fff" stroke="#194da1" stroke-linecap="round" stroke-linejoin="round" stroke-width="1"/>
      <path id="패스_83217" data-name="패스 83217" d="M0,0V17.81a.983.983,0,0,0,.065.358L1.306,21.3c.056.141.186.141.242,0l1.241-3.134a.983.983,0,0,0,.065-.358V0Z" transform="translate(502.426 364.686) rotate(37)" fill="#fff" stroke="#194da1" stroke-width="1"/>
    </g>
  </g>
</svg>
