<svg xmlns="http://www.w3.org/2000/svg" width="90.002" height="90.002" viewBox="0 0 90.002 90.002">
  <g id="그룹_165360" data-name="그룹 165360" transform="translate(-530.097 -1500.5)">
    <g id="그룹_165359" data-name="그룹 165359" transform="translate(0 -24.5)">
      <path id="패스_83387" data-name="패스 83387" d="M52.962.749H2.124A1.374,1.374,0,0,0,.75,2.123V74.947H52.962Z" transform="translate(530.377 1525.28)" fill="#fff"/>
      <path id="패스_83388" data-name="패스 83388" d="M60.114,81.755H2.4a2.407,2.407,0,0,1-2.4-2.4V2.4A2.406,2.406,0,0,1,2.4,0h57.71a2.406,2.406,0,0,1,2.4,2.4V79.351a2.407,2.407,0,0,1-2.4,2.4M2.4,2.061a.344.344,0,0,0-.344.344V79.351a.344.344,0,0,0,.344.344h57.71a.344.344,0,0,0,.344-.344V2.4a.344.344,0,0,0-.344-.344Z" transform="translate(530.097 1525)" fill="#2b5185"/>
      <path id="패스_83390" data-name="패스 83390" d="M68.239,6.75H19.7C14.64,11.327,11.807,13.894,6.75,18.472v67.4H66.621a1.548,1.548,0,0,0,1.618-1.465Z" transform="translate(532.622 1527.525)" fill="#fff"/>
      <path id="패스_83391" data-name="패스 83391" d="M66.115,87.755H8.406a2.407,2.407,0,0,1-2.4-2.4V18.023a1.029,1.029,0,0,1,.3-.73L17.3,6.3a1.036,1.036,0,0,1,.728-.3H66.115a2.407,2.407,0,0,1,2.4,2.4V85.351a2.407,2.407,0,0,1-2.4,2.4M8.062,18.45v66.9a.344.344,0,0,0,.344.344h57.71a.344.344,0,0,0,.344-.344V8.4a.345.345,0,0,0-.344-.344H18.45Z" transform="translate(532.341 1527.244)" fill="#2b5185"/>
      <path id="패스_83392" data-name="패스 83392" d="M6.75,17.742H17.742V6.75Z" transform="translate(532.622 1527.525)" fill="#fff"/>
      <path id="패스_83393" data-name="패스 83393" d="M18.024,19.054H7.032a1.031,1.031,0,0,1-.73-1.76L17.294,6.3a1.032,1.032,0,0,1,1.76.73V18.023a1.032,1.032,0,0,1-1.031,1.031M9.519,16.993h7.475V9.519Z" transform="translate(532.341 1527.244)" fill="#2b5185"/>
      <path id="패스_83396" data-name="패스 83396" d="M62.529,70.178a1.029,1.029,0,0,1-.969-.679l-5.5-15.114A1.029,1.029,0,0,1,57.033,53H68.025a1.031,1.031,0,0,1,.969,1.384L63.5,69.5a1.032,1.032,0,0,1-.969.679M58.5,55.062l4.026,11.071,4.025-11.071Z" transform="translate(551.044 1544.824)" fill="#2b5185"/>
      <path id="패스_83397" data-name="패스 83397" d="M66,8.993H57.752V3.5A2.747,2.747,0,0,1,60.5.749h2.748A2.747,2.747,0,0,1,66,3.5Z" transform="translate(551.698 1525.28)" fill="#fff"/>
      <path id="패스_83398" data-name="패스 83398" d="M66.277,10.305H58.033A1.032,1.032,0,0,1,57,9.275v-5.5A3.782,3.782,0,0,1,60.781,0h2.748a3.782,3.782,0,0,1,3.779,3.779v5.5a1.032,1.032,0,0,1-1.031,1.031M59.063,8.244h6.183V3.779a1.72,1.72,0,0,0-1.718-1.718H60.781a1.72,1.72,0,0,0-1.718,1.718Z" transform="translate(551.418 1525)" fill="#2b5185"/>
      <path id="패스_83400" data-name="패스 83400" d="M68.025,61.8H57.033A1.03,1.03,0,0,1,56,60.768V36.036a1.032,1.032,0,0,1,1.031-1.031H68.025a1.032,1.032,0,0,1,1.031,1.031V60.768A1.03,1.03,0,0,1,68.025,61.8m-9.962-2.061h8.931V37.066H58.063Z" transform="translate(551.044 1538.093)" fill="#2b5185"/>
      <path id="패스_83401" data-name="패스 83401" d="M60.873,41.105H56.751V6.749h5.5V39.731a1.374,1.374,0,0,1-1.374,1.374" transform="translate(551.324 1527.525)" fill="#fff"/>
      <path id="패스_83402" data-name="패스 83402" d="M68.025,47.914H57.033A1.032,1.032,0,0,1,56,46.883V7.031A1.032,1.032,0,0,1,57.033,6H68.025a1.032,1.032,0,0,1,1.031,1.031V46.883a1.032,1.032,0,0,1-1.031,1.031m-9.962-2.061h8.931V8.061H58.063Z" transform="translate(551.044 1527.244)" fill="#2b5185"/>
      <path id="패스_83403" data-name="패스 83403" d="M61.033,30.051A1.032,1.032,0,0,1,60,29.021V7.031a1.031,1.031,0,0,1,2.061,0v21.99a1.032,1.032,0,0,1-1.031,1.031" transform="translate(552.54 1527.244)" fill="#2b5185"/>
      <path id="패스_83405" data-name="패스 83405" d="M41.268,16.061H22.032a1.031,1.031,0,1,1,0-2.061H41.268a1.031,1.031,0,0,1,0,2.061" transform="translate(537.952 1530.237)" fill="#2b5185"/>
      <path id="패스_83406" data-name="패스 83406" d="M50.642,21.061H30.033a1.031,1.031,0,1,1,0-2.061H50.642a1.031,1.031,0,0,1,0,2.061" transform="translate(540.945 1532.107)" fill="#2b5185"/>
      <path id="패스_83407" data-name="패스 83407" d="M30.9,21.061H13.032a1.031,1.031,0,1,1,0-2.061H30.9a1.031,1.031,0,0,1,0,2.061" transform="translate(534.586 1532.107)" fill="#2b5185"/>
      <path id="패스_83408" data-name="패스 83408" d="M48.4,26.061H36.034a1.031,1.031,0,1,1,0-2.061H48.4a1.031,1.031,0,1,1,0,2.061" transform="translate(543.189 1533.977)" fill="#2b5185"/>
      <path id="패스_83409" data-name="패스 83409" d="M39.141,26.061H13.032a1.031,1.031,0,1,1,0-2.061H39.141a1.031,1.031,0,0,1,0,2.061" transform="translate(534.586 1533.977)" fill="#2b5185"/>
      <path id="패스_83410" data-name="패스 83410" d="M51.763,31.062H27.034a1.031,1.031,0,1,1,0-2.061h24.73a1.031,1.031,0,0,1,0,2.061" transform="translate(539.823 1535.848)" fill="#2b5185"/>
      <path id="패스_83411" data-name="패스 83411" d="M26.773,31.062H13.032a1.031,1.031,0,1,1,0-2.061H26.773a1.031,1.031,0,1,1,0,2.061" transform="translate(534.586 1535.848)" fill="#2b5185"/>
      <path id="패스_83412" data-name="패스 83412" d="M49.894,36.062H32.033a1.031,1.031,0,0,1,0-2.061H49.894a1.031,1.031,0,0,1,0,2.061" transform="translate(541.693 1537.718)" fill="#2b5185"/>
      <path id="패스_83413" data-name="패스 83413" d="M33.643,36.062H13.032a1.031,1.031,0,0,1,0-2.061H33.643a1.031,1.031,0,1,1,0,2.061" transform="translate(534.586 1537.718)" fill="#2b5185"/>
      <path id="패스_83414" data-name="패스 83414" d="M33.646,41.063H24.034a1.031,1.031,0,1,1,0-2.061h9.613a1.031,1.031,0,1,1,0,2.061" transform="translate(538.701 1539.588)" fill="#2b5185"/>
      <path id="패스_83415" data-name="패스 83415" d="M22.651,41.063h-9.62a1.031,1.031,0,1,1,0-2.061h9.62a1.031,1.031,0,1,1,0,2.061" transform="translate(534.586 1539.588)" fill="#2b5185"/>
      <path id="패스_83416" data-name="패스 83416" d="M30.891,46.065H13.032a1.031,1.031,0,1,1,0-2.061h17.86a1.031,1.031,0,1,1,0,2.061" transform="translate(534.586 1541.459)" fill="#2b5185"/>
    </g>
    <text id="KS" transform="translate(569 1578)" fill="#345080" font-size="20" font-family="Pretendard-Medium, Pretendard" font-weight="500"><tspan x="0" y="0">KS</tspan></text>
  </g>
</svg>
