<svg xmlns="http://www.w3.org/2000/svg" width="90" height="90" viewBox="0 0 90 90">
  <g id="그룹_264" data-name="그룹 264" transform="translate(-815 -1040)">
    <path id="패스_1621" data-name="패스 1621" d="M1051.443,1124.771h-35.726a1.033,1.033,0,0,1-1.027-1.027V1115.5a1.027,1.027,0,0,1,1.027-1.027h35.726a1.027,1.027,0,0,1,1.027,1.027v8.247A1.033,1.033,0,0,1,1051.443,1124.771Zm-34.7-2.064h33.672v-6.183h-33.672Z" transform="translate(-173.58 5.229)" fill="#345080"/>
    <path id="패스_1622" data-name="패스 1622" d="M1060.846,1124.954h-54.959a1.032,1.032,0,1,1,0-2.064h54.959a1.032,1.032,0,1,1,0,2.064Z" transform="translate(-173.366 5.046)" fill="#345080"/>
    <path id="패스_1623" data-name="패스 1623" d="M1072.845,1116.3H993.153a5.153,5.153,0,0,1-5.153-5.146v-4.128a1.039,1.039,0,0,1,1.03-1.027h87.943a1.04,1.04,0,0,1,1.027,1.027v4.128A5.154,5.154,0,0,1,1072.845,1116.3Zm-82.783-8.237v3.091a3.1,3.1,0,0,0,3.091,3.091h79.692a3.1,3.1,0,0,0,3.091-3.091v-3.091Z" transform="translate(-173 5.413)" fill="#345080"/>
    <path id="패스_1624" data-name="패스 1624" d="M1076.973,1106.944H989.03a1.041,1.041,0,0,1-1.03-1.037v-48.091a5.156,5.156,0,0,1,5.153-5.156h79.692a5.156,5.156,0,0,1,5.155,5.156v48.091A1.042,1.042,0,0,1,1076.973,1106.944Zm-86.912-2.064h85.875v-47.064a3.1,3.1,0,0,0-3.091-3.091H993.153a3.1,3.1,0,0,0-3.091,3.091Z" transform="translate(-173 6.573)" fill="#345080"/>
    <path id="패스_1625" data-name="패스 1625" d="M1052.5,1034h-52.21v71.452h65.954v-57.708C1060.874,1042.364,1057.88,1039.371,1052.5,1034Z" transform="translate(-173.267 6.978)" fill="#fff"/>
    <path id="패스_1626" data-name="패스 1626" d="M1066.221,1106.516h-65.954a1.041,1.041,0,0,1-1.03-1.037v-71.452a1.038,1.038,0,0,1,1.03-1.027h52.21a1.019,1.019,0,0,1,.734.3l13.735,13.735a1.036,1.036,0,0,1,.3.734v57.708A1.035,1.035,0,0,1,1066.221,1106.516Zm-64.927-2.064h63.9v-56.26l-13.138-13.128h-50.762Z" transform="translate(-173.244 7)" fill="#345080"/>
    <path id="패스_1627" data-name="패스 1627" d="M1067.382,1048.8h-13.745a1.033,1.033,0,0,1-1.027-1.027v-13.745a1.02,1.02,0,0,1,.636-.949,1.047,1.047,0,0,1,1.125.225l13.735,13.735a1.028,1.028,0,0,1-.724,1.761Zm-12.708-2.054H1064.9l-10.223-10.223Z" transform="translate(-174.405 7)" fill="#345080"/>
    <path id="패스_1628" data-name="패스 1628" d="M1019.683,1057.229h-8.237a3.781,3.781,0,0,1-3.786-3.776v-8.247a3.781,3.781,0,0,1,3.786-3.776h8.237a3.78,3.78,0,0,1,3.786,3.776v8.247A3.78,3.78,0,0,1,1019.683,1057.229Zm-8.237-13.745a1.724,1.724,0,0,0-1.722,1.722v8.247a1.716,1.716,0,0,0,1.722,1.712h8.237a1.716,1.716,0,0,0,1.722-1.712v-8.247a1.724,1.724,0,0,0-1.722-1.722Z" transform="translate(-173.427 6.817)" fill="#345080"/>
    <path id="패스_1629" data-name="패스 1629" d="M1017.212,1053.111a1.029,1.029,0,0,1-.734-.3l-4.285-4.285a1.031,1.031,0,1,1,1.458-1.458l3.561,3.551,8.892-8.883a1.022,1.022,0,0,1,1.448,0,1.033,1.033,0,0,1,0,1.458l-9.616,9.616A1.024,1.024,0,0,1,1017.212,1053.111Z" transform="translate(-173.519 6.817)" fill="#345080"/>
    <path id="패스_1630" data-name="패스 1630" d="M1019.683,1078.3h-8.237a3.781,3.781,0,0,1-3.786-3.776v-8.247a3.774,3.774,0,0,1,3.786-3.776h8.237a3.774,3.774,0,0,1,3.786,3.776v8.247A3.78,3.78,0,0,1,1019.683,1078.3Zm-8.237-13.745a1.724,1.724,0,0,0-1.722,1.722v8.247a1.716,1.716,0,0,0,1.722,1.712h8.237a1.716,1.716,0,0,0,1.722-1.712v-8.247a1.724,1.724,0,0,0-1.722-1.722Z" transform="translate(-173.427 6.359)" fill="#345080"/>
    <path id="패스_1631" data-name="패스 1631" d="M1017.212,1074.18a1.029,1.029,0,0,1-.734-.3l-4.285-4.295a1.033,1.033,0,0,1,0-1.458,1.052,1.052,0,0,1,1.458,0l3.561,3.561,8.892-8.883a1.024,1.024,0,0,1,1.448,1.448l-9.616,9.626A1.024,1.024,0,0,1,1017.212,1074.18Z" transform="translate(-173.519 6.359)" fill="#345080"/>
    <path id="패스_1632" data-name="패스 1632" d="M1019.683,1099.369h-8.237a3.783,3.783,0,0,1-3.786-3.786v-8.237a3.783,3.783,0,0,1,3.786-3.786h8.237a3.783,3.783,0,0,1,3.786,3.786v8.237A3.783,3.783,0,0,1,1019.683,1099.369Zm-8.237-13.745a1.724,1.724,0,0,0-1.722,1.722v8.237a1.724,1.724,0,0,0,1.722,1.722h8.237a1.724,1.724,0,0,0,1.722-1.722v-8.237a1.724,1.724,0,0,0-1.722-1.722Z" transform="translate(-173.427 5.901)" fill="#345080"/>
    <path id="패스_1633" data-name="패스 1633" d="M1017.212,1095.241a.99.99,0,0,1-.734-.3l-4.285-4.285a1.033,1.033,0,0,1,0-1.458,1.052,1.052,0,0,1,1.458,0l3.561,3.561,8.892-8.892a1.027,1.027,0,1,1,1.448,1.458l-9.616,9.616A.984.984,0,0,1,1017.212,1095.241Z" transform="translate(-173.519 5.901)" fill="#345080"/>
    <path id="패스_1634" data-name="패스 1634" d="M1053.451,1054.024h-8.374a1.032,1.032,0,1,1,0-2.064h8.374a1.032,1.032,0,1,1,0,2.064Z" transform="translate(-174.218 6.588)" fill="#345080"/>
    <path id="패스_1635" data-name="패스 1635" d="M1039.277,1054.024h-8.11a1.032,1.032,0,0,1,0-2.064h8.11a1.032,1.032,0,0,1,0,2.064Z" transform="translate(-173.916 6.588)" fill="#345080"/>
    <path id="패스_1636" data-name="패스 1636" d="M1047.661,1047h-16.494a1.032,1.032,0,0,1,0-2.064h16.494a1.032,1.032,0,0,1,0,2.064Z" transform="translate(-173.916 6.74)" fill="#345080"/>
    <path id="패스_1637" data-name="패스 1637" d="M1047.661,1075.094h-16.494a1.032,1.032,0,0,1,0-2.064h16.494a1.032,1.032,0,0,1,0,2.064Z" transform="translate(-173.916 6.13)" fill="#345080"/>
    <path id="패스_1638" data-name="패스 1638" d="M1056.264,1068.064h-8.237a1.027,1.027,0,1,1,0-2.054h8.237a1.027,1.027,0,1,1,0,2.054Z" transform="translate(-174.282 6.282)" fill="#345080"/>
    <path id="패스_1639" data-name="패스 1639" d="M1042.163,1068.064h-11a1.027,1.027,0,0,1,0-2.054h11a1.027,1.027,0,0,1,0,2.054Z" transform="translate(-173.916 6.282)" fill="#345080"/>
    <path id="패스_1640" data-name="패스 1640" d="M1056.322,1096.164h-5.635a1.032,1.032,0,0,1,0-2.064h5.635a1.032,1.032,0,1,1,0,2.064Z" transform="translate(-174.34 5.672)" fill="#345080"/>
    <path id="패스_1641" data-name="패스 1641" d="M1044.775,1096.164h-13.608a1.032,1.032,0,0,1,0-2.064h13.608a1.032,1.032,0,0,1,0,2.064Z" transform="translate(-173.916 5.672)" fill="#345080"/>
    <path id="패스_1642" data-name="패스 1642" d="M1056.2,1089.134h-10.986a1.027,1.027,0,1,1,0-2.054H1056.2a1.027,1.027,0,1,1,0,2.054Z" transform="translate(-174.221 5.824)" fill="#345080"/>
    <path id="패스_1643" data-name="패스 1643" d="M1039.414,1089.134h-8.247a1.027,1.027,0,0,1,0-2.054h8.247a1.027,1.027,0,0,1,0,2.054Z" transform="translate(-173.916 5.824)" fill="#345080"/>
  </g>
</svg>
