<svg xmlns="http://www.w3.org/2000/svg" xmlns:xlink="http://www.w3.org/1999/xlink" width="1920" height="1080" viewBox="0 0 1920 1080">
  <defs>
    <clipPath id="clip-path">
      <rect id="사각형_153139" data-name="사각형 153139" width="1920" height="1080" fill="#fff"/>
    </clipPath>
    <clipPath id="clip-path-2">
      <rect id="사각형_153037" data-name="사각형 153037" width="1472.149" height="1337.06" fill="#ecf5ff"/>
    </clipPath>
    <clipPath id="clip-path-3">
      <rect id="사각형_153086" data-name="사각형 153086" width="373.341" height="310.668" fill="#c3d4e8"/>
    </clipPath>
    <clipPath id="clip-path-4">
      <rect id="사각형_153087" data-name="사각형 153087" width="132.701" height="132.701" fill="#c3d4e8"/>
    </clipPath>
    <clipPath id="clip-path-5">
      <rect id="사각형_153088" data-name="사각형 153088" width="211.003" height="211.002" fill="#c3d4e8"/>
    </clipPath>
    <clipPath id="clip-path-6">
      <rect id="사각형_153073" data-name="사각형 153073" width="85.381" height="90.41" fill="none"/>
    </clipPath>
    <clipPath id="clip-path-7">
      <rect id="사각형_153076" data-name="사각형 153076" width="400" height="334" fill="none"/>
    </clipPath>
    <clipPath id="clip-path-8">
      <rect id="사각형_153075" data-name="사각형 153075" width="85.286" height="34.811" fill="#202020"/>
    </clipPath>
    <clipPath id="clip-path-9">
      <path id="패스_86327" data-name="패스 86327" d="M250.145,559.753a15.709,15.709,0,0,0-15.71,15.709v.1H368.82v-.1a15.709,15.709,0,0,0-15.71-15.709Z" transform="translate(-234.435 -559.753)" fill="none"/>
    </clipPath>
    <clipPath id="clip-path-10">
      <rect id="사각형_153081" data-name="사각형 153081" width="378.354" height="199.478" rx="13.061" fill="#e4e8ef"/>
    </clipPath>
    <clipPath id="clip-path-12">
      <rect id="사각형_153082" data-name="사각형 153082" width="377.94" height="199.371" fill="#1c1c1c"/>
    </clipPath>
    <clipPath id="clip-path-13">
      <rect id="사각형_153083" data-name="사각형 153083" width="257.129" height="199.811" fill="none"/>
    </clipPath>
    <clipPath id="clip-path-14">
      <rect id="사각형_153090" data-name="사각형 153090" width="124.486" height="111.569" fill="none"/>
    </clipPath>
  </defs>
  <g id="마스크_그룹_6" data-name="마스크 그룹 6" clip-path="url(#clip-path)">
    <g id="그룹_167578" data-name="그룹 167578" transform="translate(447.851 -128.529)">
      <g id="그룹_167577" data-name="그룹 167577" clip-path="url(#clip-path-2)">
        <path id="패스_86257" data-name="패스 86257" d="M1472.149,0V1337.06H586.2c51.021-102.431,131.893-190.013,233.058-243.792,57.607-30.623,120.173-50.85,178.736-79.605s114.883-68.094,146.421-125.207,32.19-134.884-12.155-182.739c-43.049-46.459-113.479-53.319-176.776-51.03s-129.912,10.065-187.243-16.86C663.107,588.457,638.179,450.071,558,366.041c-55.6-58.262-134.834-87.03-212.354-108.853s-157.919-39.259-226.527-81.431C56.462,137.245,4.383,72.193,0,0Z" fill="#ecf5ff"/>
      </g>
    </g>
    <text id="서비스_점검_중입니다" data-name="서비스 점검 중입니다" transform="translate(73 1597)" fill="#202020" font-size="80" font-family="Pretendard-Bold, Pretendard" font-weight="700"><tspan x="0" y="0">서비스 점검 중입니다</tspan></text>
    <text id="보다_나은_서비스를_위한_서버_점검으로_인하여_사용이_일시_중단되었습니다._더욱_안정적인_서비스로_보답_드리겠습니다._감사합니다._" data-name="보다 나은 서비스를 위한 서버 점검으로 인하여 사용이 일시 중단되었습니다. 
더욱 안정적인 서비스로 보답 드리겠습니다.
감사합니다. " transform="translate(73 1665)" fill="#202020" font-size="30" font-family="Pretendard-Regular, Pretendard"><tspan x="0" y="0">보다 나은 서비스를 위한 서버 점검으로 인하여 사용이 일시 중단되었습니다. </tspan><tspan x="0" y="40">더욱 안정적인 서비스로 보답 드리겠습니다.</tspan><tspan x="0" y="80">감사합니다. </tspan></text>
    <text id="_2023년_08월_26일_토_23:00_2023년_08월_27일_일_08:00_" data-name="2023년 08월 26일(토) 23:00 ~ 2023년 08월 27일(일) 08:00 " transform="translate(73 1887)" fill="#202020" font-size="30" font-family="Pretendard-Bold, Pretendard" font-weight="700"><tspan x="0" y="0">2023년 08월 26일(토) 23:00 ~ 2023년 08월 27일(일) 08:00 </tspan></text>
    <text id="서비스_점검_기간" data-name="서비스 점검 기간" transform="translate(73 1841)" fill="#1161f8" font-size="30" font-family="Pretendard-Bold, Pretendard" font-weight="700"><tspan x="0" y="0">서비스 점검 기간</tspan></text>
    <g id="그룹_167625" data-name="그룹 167625" transform="translate(1482.985 231.075)">
      <g id="그룹_167624" data-name="그룹 167624" transform="translate(-38.947 -32.409)" clip-path="url(#clip-path-3)">
        <path id="패스_86332" data-name="패스 86332" d="M158.833,243.475a71.564,71.564,0,0,0-3.766-21.324l11.357-12.2-14.039-22.027-15.852,5.143a71.579,71.579,0,0,0-17.739-12.418L118.2,164,92.7,158.35l-7.571,14.844A71.6,71.6,0,0,0,63.8,176.96L51.6,165.6,29.577,179.642l5.143,15.852A71.587,71.587,0,0,0,22.3,213.233l-16.653.595L0,239.33,14.844,246.9a71.593,71.593,0,0,0,3.766,21.324l-11.356,12.2L21.292,302.45l15.852-5.143a71.566,71.566,0,0,0,17.739,12.418l.595,16.653,25.5,5.649,7.571-14.844a71.563,71.563,0,0,0,21.324-3.766l12.2,11.357L144.1,310.735l-5.143-15.852a71.579,71.579,0,0,0,12.418-17.739l16.653-.595,5.649-25.5Z" transform="translate(0 -86.9)" fill="#c3d4e8"/>
        <path id="패스_86333" data-name="패스 86333" d="M344.385,34.34a41.407,41.407,0,0,0-6.5-10.709l3.568-8.956L329.271,5.74l-7.47,6.094a41.406,41.406,0,0,0-12.166-2.979L305.826,0,290.892,2.3l-.972,9.59a41.4,41.4,0,0,0-10.709,6.5l-8.956-3.568L261.319,27l6.095,7.47a41.407,41.407,0,0,0-2.98,12.166l-8.855,3.81,2.3,14.934,9.59.973a41.4,41.4,0,0,0,6.5,10.709L270.4,86.017l12.184,8.936,7.47-6.095a41.39,41.39,0,0,0,12.166,2.98l3.809,8.854,14.934-2.3.972-9.59a41.409,41.409,0,0,0,10.709-6.5l8.956,3.568,8.935-12.184-6.094-7.47a41.423,41.423,0,0,0,2.98-12.167l8.854-3.809-2.3-14.934Z" transform="translate(-140.258)" fill="#c3d4e8"/>
        <path id="패스_86334" data-name="패스 86334" d="M551.432,462.11a49.278,49.278,0,1,0-66.395-21.174,49.277,49.277,0,0,0,66.395,21.174M518.04,414.888l-7.251-24.431,5.748-2.968,15.723,20.056,24.431-7.25,2.968,5.748L539.6,421.765l7.25,24.431-5.747,2.968-15.723-20.056-24.431,7.251-2.968-5.748Z" transform="translate(-263.162 -202.523)" fill="#c3d4e8"/>
        <path id="패스_86335" data-name="패스 86335" d="M506.445,453.5l21.7-11.206L522,423.177a76.989,76.989,0,0,0,18.942-22.445l19.888,2.859,7.42-23.268-17.874-9.184a76.977,76.977,0,0,0-2.456-29.267L564,329.839l-11.206-21.7-19.121,6.141a76.984,76.984,0,0,0-22.445-18.943l2.859-19.888-23.268-7.421L481.635,285.9a76.988,76.988,0,0,0-29.267,2.456l-12.034-16.075-21.7,11.206,6.141,19.121a76.983,76.983,0,0,0-18.942,22.445l-19.888-2.86-7.42,23.268,17.874,9.184a76.979,76.979,0,0,0,2.456,29.267L382.78,395.949l11.206,21.7,19.121-6.141a76.977,76.977,0,0,0,22.445,18.943l-2.859,19.887,23.268,7.421,9.184-17.874a76.984,76.984,0,0,0,29.267-2.455ZM447.97,313.67a55.4,55.4,0,1,1-23.8,74.643,55.4,55.4,0,0,1,23.8-74.643" transform="translate(-207.729 -147.091)" fill="#c3d4e8"/>
        <path id="패스_86336" data-name="패스 86336" d="M772.188,228.913a22.7,22.7,0,1,1-22.7-22.7,22.7,22.7,0,0,1,22.7,22.7" transform="translate(-398.847 -113.165)" fill="#c3d4e8"/>
      </g>
    </g>
    <g id="그룹_167627" data-name="그룹 167627" transform="translate(1389.633 -53.366)">
      <g id="그룹_167626" data-name="그룹 167626" transform="translate(0 -0.001)" clip-path="url(#clip-path-4)">
        <path id="패스_86337" data-name="패스 86337" d="M132.7,69.92V62.781l-11.049-1.708c-.55-3.469-.527-3.324-1.076-6.794l9.98-5.038-2.206-6.789-11.036,1.79-3.123-6.128,7.935-7.876-4.2-5.775-9.942,5.113-4.864-4.864,5.113-9.942-5.775-4.2-7.876,7.935-6.129-3.123L90.248,4.35,83.459,2.144l-5.038,9.98-6.794-1.076L69.92,0H62.781L61.073,11.049,54.28,12.125l-5.038-9.98L42.452,4.35l1.791,11.036-6.129,3.123-7.876-7.935-5.776,4.2,5.113,9.942-4.864,4.864L14.77,24.463l-4.2,5.775,7.935,7.876-3.123,6.128L4.35,42.452,2.144,49.241l9.98,5.038c-.55,3.469-.527,3.325-1.076,6.794L0,62.781V69.92l11.049,1.707c.549,3.469.526,3.324,1.076,6.794l-9.98,5.038L4.35,90.248l11.036-1.79,3.123,6.128-7.935,7.876,4.2,5.775,9.942-5.113,4.864,4.864-5.113,9.942,5.776,4.2,7.876-7.935,6.129,3.123L42.452,128.35l6.789,2.206,5.038-9.98,6.794,1.076L62.781,132.7H69.92l1.707-11.049,6.794-1.076,5.038,9.98,6.789-2.206-1.79-11.036,6.129-3.123,7.876,7.935,5.775-4.2-5.113-9.942,4.864-4.864,9.942,5.113,4.2-5.775-7.935-7.876,3.123-6.128,11.036,1.79,2.206-6.789-9.98-5.038c.549-3.469.526-3.324,1.076-6.794ZM27.948,74.884a3.891,3.891,0,0,1-5.836-3.369V61.185a3.891,3.891,0,0,1,5.836-3.369l8.946,5.165a3.891,3.891,0,0,1,0,6.739ZM47.9,89.562,45.23,99.539a3.891,3.891,0,0,1-6.509,1.744l-7.3-7.3a3.891,3.891,0,0,1,1.744-6.509L43.139,84.8A3.89,3.89,0,0,1,47.9,89.562M43.139,47.9,33.161,45.23a3.891,3.891,0,0,1-1.744-6.509l7.3-7.3a3.891,3.891,0,0,1,6.509,1.744L47.9,43.139A3.89,3.89,0,0,1,43.139,47.9M61.185,22.112h10.33a3.891,3.891,0,0,1,3.37,5.836l-5.165,8.946a3.89,3.89,0,0,1-6.739,0l-5.165-8.946a3.89,3.89,0,0,1,3.369-5.836m10.33,88.477H61.185a3.89,3.89,0,0,1-3.369-5.836l5.165-8.946a3.89,3.89,0,0,1,6.739,0l5.165,8.946a3.891,3.891,0,0,1-3.37,5.836M66.35,78.668A12.317,12.317,0,1,1,78.668,66.35,12.318,12.318,0,0,1,66.35,78.668M84.8,43.139l2.674-9.978a3.89,3.89,0,0,1,6.509-1.744l7.3,7.3a3.891,3.891,0,0,1-1.744,6.509L89.562,47.9A3.89,3.89,0,0,1,84.8,43.139m16.486,50.841-7.3,7.3a3.89,3.89,0,0,1-6.509-1.744L84.8,89.562A3.891,3.891,0,0,1,89.562,84.8l9.977,2.673a3.891,3.891,0,0,1,1.744,6.509m9.305-22.465a3.89,3.89,0,0,1-5.836,3.369l-8.946-5.165a3.89,3.89,0,0,1,0-6.739l8.946-5.165a3.89,3.89,0,0,1,5.836,3.369Z" transform="translate(0 0)" fill="#c3d4e8"/>
      </g>
    </g>
    <g id="그룹_167629" data-name="그룹 167629" transform="translate(998.537 198.665)">
      <g id="그룹_167630" data-name="그룹 167630">
        <path id="패스_86338" data-name="패스 86338" d="M118.926,108.424,117.3,90.62l-11.255-1.848a48.973,48.973,0,0,0-6.892-13.119l4.866-10.317L90.285,53.9l-9.266,6.652a48.992,48.992,0,0,0-14.15-4.406L63.016,45.408l-17.8,1.624L43.364,58.286a48.99,48.99,0,0,0-13.119,6.893L19.928,60.313,8.487,74.05l6.653,9.265a49,49,0,0,0-4.406,14.151L0,101.319l1.624,17.8,11.254,1.848a49.011,49.011,0,0,0,6.893,13.12L14.9,144.407l13.737,11.44,9.265-6.652a49,49,0,0,0,14.151,4.4l3.853,10.735,17.8-1.624,1.848-11.255a48.979,48.979,0,0,0,13.12-6.892L99,149.43l11.441-13.737-6.652-9.266a48.991,48.991,0,0,0,4.4-14.15Zm-57.392,19.15A22.8,22.8,0,1,1,82.166,102.8a22.8,22.8,0,0,1-20.632,24.773" fill="#c3d4e8"/>
      </g>
    </g>
    <g id="그룹_167632" data-name="그룹 167632" transform="translate(-71.57 161.998)">
      <g id="그룹_167631" data-name="그룹 167631" clip-path="url(#clip-path-5)">
        <path id="패스_86339" data-name="패스 86339" d="M105.5,199.394A93.893,93.893,0,1,1,199.4,105.5,94,94,0,0,1,105.5,199.394m0-186.144A92.251,92.251,0,1,0,197.752,105.5,92.355,92.355,0,0,0,105.5,13.25" fill="#c3d4e8"/>
        <path id="패스_86340" data-name="패스 86340" d="M105.5,211A105.5,105.5,0,1,1,211,105.5,105.62,105.62,0,0,1,105.5,211m0-205.812A100.312,100.312,0,1,0,205.814,105.5,100.426,100.426,0,0,0,105.5,5.189" fill="#c3d4e8"/>
        <path id="패스_86341" data-name="패스 86341" d="M171.037,149.068l-7.689-7.888a4.629,4.629,0,0,1,4.131-7.787l10.843,1.944a4.629,4.629,0,0,0,2.97-8.653l-9.75-5.126a4.628,4.628,0,0,1,1.523-8.682l10.912-1.5a4.628,4.628,0,0,0,.151-9.147l-10.856-1.862a4.629,4.629,0,0,1-1.235-8.728l9.914-4.8a4.628,4.628,0,0,0-2.683-8.746l-10.9,1.584a4.629,4.629,0,0,1-3.871-7.919l7.945-7.629a4.629,4.629,0,0,0-5.254-7.49l-9.878,4.875a4.628,4.628,0,0,1-6.129-6.334l5.2-9.712a4.628,4.628,0,0,0-7.311-5.5l-7.888,7.689a4.629,4.629,0,0,1-7.787-4.131l1.944-10.843a4.629,4.629,0,0,0-8.653-2.97l-5.126,9.75a4.628,4.628,0,0,1-8.682-1.523l-1.5-10.912a4.628,4.628,0,0,0-9.147-.151l-1.862,10.857a4.629,4.629,0,0,1-8.728,1.234l-4.8-9.914a4.628,4.628,0,0,0-8.746,2.683l1.584,10.9a4.628,4.628,0,0,1-7.919,3.871l-7.629-7.945a4.628,4.628,0,0,0-7.489,5.254l4.875,9.878a4.629,4.629,0,0,1-6.335,6.129l-9.712-5.2a4.628,4.628,0,0,0-5.5,7.311l7.689,7.888a4.629,4.629,0,0,1-4.131,7.787L32.682,75.666a4.629,4.629,0,0,0-2.971,8.653l9.75,5.126a4.628,4.628,0,0,1-1.522,8.682l-10.913,1.5a4.628,4.628,0,0,0-.151,9.147l10.857,1.862a4.629,4.629,0,0,1,1.235,8.728l-9.915,4.8a4.628,4.628,0,0,0,2.683,8.746l10.9-1.584a4.628,4.628,0,0,1,3.871,7.919l-7.945,7.629a4.629,4.629,0,0,0,5.254,7.49l9.878-4.876a4.629,4.629,0,0,1,6.129,6.336l-5.2,9.711a4.628,4.628,0,0,0,7.311,5.5l7.888-7.689a4.629,4.629,0,0,1,7.787,4.131l-1.944,10.842a4.629,4.629,0,0,0,8.653,2.971l5.126-9.75a4.628,4.628,0,0,1,8.682,1.523l1.5,10.912a4.628,4.628,0,0,0,9.147.151l1.863-10.856a4.628,4.628,0,0,1,8.727-1.235l4.8,9.914a4.628,4.628,0,0,0,8.746-2.683l-1.584-10.9a4.628,4.628,0,0,1,7.919-3.871l7.63,7.945a4.628,4.628,0,0,0,7.489-5.254l-4.875-9.878a4.628,4.628,0,0,1,6.335-6.129l9.711,5.2a4.628,4.628,0,0,0,5.5-7.311m-24.6-21.846a46.2,46.2,0,0,1-10.657,13.36l-9.059-14.468a29.549,29.549,0,0,0,7.744-14.6l17.06-.611a46.216,46.216,0,0,1-5.088,16.316M98.791,118.15a14.318,14.318,0,1,1,19.359-5.938,14.319,14.319,0,0,1-19.359,5.938M64.561,83.781A46.216,46.216,0,0,1,75.218,70.42l9.059,14.469a29.573,29.573,0,0,0-7.744,14.6l-17.059.612a46.214,46.214,0,0,1,5.087-16.316m86.456,13.035-17.06.611A29.544,29.544,0,0,0,125.2,83.421l8-15.085a46.294,46.294,0,0,1,17.817,28.48M120.744,61.728l-8,15.085a29.546,29.546,0,0,0-16.509.6l-9.06-14.468a46.29,46.29,0,0,1,33.572-1.217M59.987,114.187l17.059-.611a29.552,29.552,0,0,0,8.761,14.006l-8,15.085a46.29,46.29,0,0,1-17.817-28.48m30.272,35.088,8-15.085a29.55,29.55,0,0,0,16.51-.6l9.059,14.468a46.29,46.29,0,0,1-33.572,1.217" fill="#c3d4e8"/>
      </g>
    </g>
    <g id="그룹_167717" data-name="그룹 167717">
      <g id="그룹_167603" data-name="그룹 167603" transform="translate(1427.309 606.115)">
        <g id="그룹_167602" data-name="그룹 167602" transform="translate(0 0)" clip-path="url(#clip-path-6)">
          <rect id="사각형_153072" data-name="사각형 153072" width="85.381" height="90.41" fill="#545454"/>
        </g>
      </g>
      <g id="그룹_167608" data-name="그룹 167608" transform="translate(1270 373)">
        <g id="그룹_167607" data-name="그룹 167607" clip-path="url(#clip-path-7)">
          <g id="그룹_167606" data-name="그룹 167606" transform="translate(157.357 232.947)" opacity="0.77" style="mix-blend-mode: multiply;isolation: isolate">
            <g id="그룹_167605" data-name="그룹 167605">
              <g id="그룹_167604" data-name="그룹 167604" clip-path="url(#clip-path-8)">
                <rect id="사각형_153074" data-name="사각형 153074" width="85.285" height="34.811" fill="#202020"/>
              </g>
            </g>
          </g>
        </g>
      </g>
      <g id="그룹_167609" data-name="그룹 167609" transform="translate(1402.807 691.191)" clip-path="url(#clip-path-9)">
        <rect id="사각형_153077" data-name="사각형 153077" width="134.385" height="15.808" transform="translate(0 0)" fill="#545454"/>
      </g>
      <rect id="사각형_153091" data-name="사각형 153091" width="153.254" height="158.657" transform="translate(1379.356 430.005)" fill="none"/>
      <rect id="사각형_153092" data-name="사각형 153092" width="153.254" height="158.657" transform="translate(1379.356 430.005)" fill="none"/>
      <rect id="사각형_153136" data-name="사각형 153136" width="400" height="250" rx="10" transform="translate(1270 382)" fill="#545454"/>
      <g id="그룹_167614" data-name="그룹 167614" transform="translate(1281 392)">
        <g id="그룹_167613" data-name="그룹 167613" transform="translate(0 0)" clip-path="url(#clip-path-10)">
          <path id="패스_86331" data-name="패스 86331" d="M.242.242,408.906,0l-.242,408.664L0,408.906Z" transform="translate(-99.964 99.739) rotate(-45)" fill="#e4e8ef"/>
        </g>
      </g>
      <g id="그룹_167622" data-name="그룹 167622" transform="translate(1270 373)">
        <g id="그룹_167621" data-name="그룹 167621" clip-path="url(#clip-path-7)">
          <g id="그룹_167617" data-name="그룹 167617" transform="translate(11.249 18.699)" opacity="0.77" style="mix-blend-mode: multiply;isolation: isolate">
            <g id="그룹_167616" data-name="그룹 167616">
              <g id="그룹_167615" data-name="그룹 167615" clip-path="url(#clip-path-12)">
                <path id="패스_86328" data-name="패스 86328" d="M392.827,41.922a4.053,4.053,0,0,0-4.05-4.056H19.846A7.455,7.455,0,0,1,26.867,32.9H390.326a7.465,7.465,0,0,1,7.46,7.471V225.238a7.467,7.467,0,0,1-4.96,7.032Z" transform="translate(-19.846 -32.898)" fill="#1c1c1c"/>
              </g>
            </g>
          </g>
          <path id="패스_86329" data-name="패스 86329" d="M338.01,416.131a8.408,8.408,0,1,0,8.408-8.421,8.415,8.415,0,0,0-8.408,8.421" transform="translate(-146.419 -175.966)" fill="#fff"/>
          <g id="그룹_167620" data-name="그룹 167620" transform="translate(10.811 18.699)" opacity="0.45" style="mix-blend-mode: screen;isolation: isolate">
            <g id="그룹_167619" data-name="그룹 167619">
              <g id="그룹_167618" data-name="그룹 167618" clip-path="url(#clip-path-13)">
                <path id="패스_86330" data-name="패스 86330" d="M26.531,32.9H276.2L76.7,232.708H26.531a7.465,7.465,0,0,1-7.459-7.471V40.369A7.465,7.465,0,0,1,26.531,32.9" transform="translate(-19.072 -32.898)" fill="#fff"/>
              </g>
            </g>
          </g>
        </g>
      </g>
      <g id="그룹_167638" data-name="그룹 167638" transform="translate(1403.51 434.619)" style="mix-blend-mode: overlay;isolation: isolate">
        <g id="그룹_167637" data-name="그룹 167637">
          <g id="그룹_167636" data-name="그룹 167636" clip-path="url(#clip-path-14)">
            <path id="패스_86343" data-name="패스 86343" d="M231.67,134.756H135.594a14.182,14.182,0,0,1-12.282-21.273l48.038-83.2a14.039,14.039,0,0,1,12.282-7.091h0a14.039,14.039,0,0,1,12.281,7.091l48.039,83.2a14.182,14.182,0,0,1-12.282,21.273m-53.952-100.8-48.038,83.2a6.828,6.828,0,0,0,5.914,10.243H231.67a6.829,6.829,0,0,0,5.914-10.243l-5.413-9.376L189.546,33.956a6.829,6.829,0,0,0-11.828,0" transform="translate(-121.389 -23.188)" fill="#1c1c1c"/>
            <path id="패스_86344" data-name="패스 86344" d="M398.579,174.544h0a8.879,8.879,0,0,1,8.816,9.933l-3.9,32.621a4.976,4.976,0,0,1-9.883-.008l-3.85-32.627a8.879,8.879,0,0,1,8.818-9.919" transform="translate(-336.31 -144.427)" fill="#1c1c1c"/>
            <path id="패스_86345" data-name="패스 86345" d="M400.781,441.325a7.192,7.192,0,1,1,5.031,2.053,6.84,6.84,0,0,1-5.031-2.053" transform="translate(-343.543 -348.419)" fill="#1c1c1c"/>
          </g>
        </g>
      </g>
      <g id="그룹_167639" data-name="그룹 167639" transform="translate(-0.124 5.995)">
        <path id="패스_86346" data-name="패스 86346" d="M254.858,111.568H158.782A14.182,14.182,0,0,1,146.5,90.3l48.038-83.2A14.039,14.039,0,0,1,206.82,0h0A14.038,14.038,0,0,1,219.1,7.091l48.039,83.2a14.182,14.182,0,0,1-12.282,21.273m-53.952-100.8-48.038,83.2a6.828,6.828,0,0,0,5.914,10.243h96.076a6.829,6.829,0,0,0,5.914-10.243l-48.039-83.2a6.83,6.83,0,0,0-11.828,0" transform="translate(1263.547 430.005)" fill="#f65858"/>
        <path id="패스_86347" data-name="패스 86347" d="M421.766,151.355h0a8.879,8.879,0,0,1,8.816,9.933l-3.9,32.621a4.976,4.976,0,0,1-9.883-.008l-3.85-32.627a8.879,8.879,0,0,1,8.818-9.919" transform="translate(1048.627 308.767)" fill="#f65858"/>
        <path id="패스_86348" data-name="패스 86348" d="M423.968,418.136A7.191,7.191,0,1,1,429,420.189a6.839,6.839,0,0,1-5.031-2.053" transform="translate(1041.394 104.774)" fill="#f65858"/>
      </g>
    </g>
  </g>
</svg>
