<svg xmlns="http://www.w3.org/2000/svg" width="138" height="138" viewBox="0 0 138 138">
  <g id="그룹_166218" data-name="그룹 166218" transform="translate(-1362 -4106)">
    <rect id="사각형_151767" data-name="사각형 151767" width="138" height="138" rx="10" transform="translate(1362 4106)" fill="#fff"/>
    <g id="그룹_166172" data-name="그룹 166172" transform="translate(2 0.656)">
      <path id="패스_86063" data-name="패스 86063" d="M37.655,59.982a41.688,41.688,0,0,1-15.547-8.018c-10.231-8.328-16.194-20.6-15.953-32.82C5.913,15,11.932,16.438,15.3,16.183c3.721-.3,5.169.609,5.075,4.455a19.355,19.355,0,0,0,.853,5.33c.565,1.955.841,3.225-.127,4.4-.59.758-1.168,1.525-1.746,2.292-1.775,2.59-3.566,3.141-1.292,6.3a1.076,1.076,0,0,0,1.472.375c1.177-.788.036-1.919-.4-2.848,1.23-1.567,2.431-3.216,3.644-4.778,1.737-2.107,1.059-4.453.513-6.344a16.975,16.975,0,0,1-.768-4.8c.145-4.925-2.492-7-7.307-6.531-4.114.356-10.749-1.728-11.2,5.052-.254,12.884,6.006,25.8,16.744,34.538a42.738,42.738,0,0,0,16.631,8.465,1.076,1.076,0,0,0,.273-2.111Z" transform="translate(1395 4140.965)" fill="#194da1"/>
      <path id="패스_86064" data-name="패스 86064" d="M50.909,44.663c-1.414-1.469-3.326-1.531-5.012-1.587a20.2,20.2,0,0,1-5.056-.8c-2.043-.628-4.389-1.081-6.225.513-1.6,1.249-3.179,2.4-4.8,3.659a29.093,29.093,0,0,1-8.02-6.318,1.074,1.074,0,1,0-1.608,1.424A31.249,31.249,0,0,0,28.8,48.345a1.97,1.97,0,0,0,2.31-.175c1.586-1.253,3.236-2.443,4.827-3.689a2.728,2.728,0,0,1,1.959-.66c2.575.468,5.234,1.432,7.926,1.4,1.463.048,2.726.09,3.516.909,1.518,1.908.483,5.43.794,7.9.078,2.906-.012,4.72-1.91,5.238a36.305,36.305,0,0,1-6.626-.187,1.074,1.074,0,1,0-.256,2.132,35.92,35.92,0,0,0,7.308.16c3.8-.934,3.7-4.826,3.63-7.4-.337-3.154.944-6.538-1.373-9.306Z" transform="translate(1396.101 4142.857)" fill="#194da1"/>
      <path id="패스_86065" data-name="패스 86065" d="M31.258,12.826H35.79a2.15,2.15,0,0,0,2.147-2.147V6.147A2.15,2.15,0,0,0,35.79,4H31.258a2.15,2.15,0,0,0-2.147,2.147v4.533A2.15,2.15,0,0,0,31.258,12.826Zm0-6.679H35.79v4.533H31.258Z" transform="translate(1396.785 4140.344)" fill="#194da1"/>
      <path id="패스_86066" data-name="패스 86066" d="M60.1,4.777H45.073a1.073,1.073,0,1,0,0,2.147H60.1a1.073,1.073,0,1,0,0-2.147Z" transform="translate(1397.825 4140.399)" fill="#194da1"/>
      <path id="패스_86067" data-name="패스 86067" d="M45.073,11.591H55.091a1.073,1.073,0,1,0,0-2.147H45.073a1.073,1.073,0,1,0,0,2.147Z" transform="translate(1397.825 4140.743)" fill="#194da1"/>
      <path id="패스_86068" data-name="패스 86068" d="M60.1,17.667H45.073a1.073,1.073,0,1,0,0,2.147H60.1a1.073,1.073,0,1,0,0-2.147Z" transform="translate(1397.825 4141.317)" fill="#194da1"/>
      <path id="패스_86069" data-name="패스 86069" d="M55.091,22.333H45.073a1.073,1.073,0,1,0,0,2.147H55.091a1.073,1.073,0,1,0,0-2.147Z" transform="translate(1397.825 4141.65)" fill="#194da1"/>
      <path id="패스_86070" data-name="패스 86070" d="M29.426,22.061l3.339,3.34a1.073,1.073,0,0,0,1.518,0l6.679-6.679A1.073,1.073,0,1,0,39.444,17.2l-5.92,5.921-2.58-2.581a1.073,1.073,0,1,0-1.518,1.518Z" transform="translate(1396.781 4141.26)" fill="#194da1"/>
    </g>
  </g>
</svg>
