<svg xmlns="http://www.w3.org/2000/svg" width="90" height="90" viewBox="0 0 90 90">
  <g id="그룹_279" data-name="그룹 279" transform="translate(-1338 -1527)">
    <g id="그룹_278" data-name="그룹 278" transform="translate(1351.338 1528.732)">
      <g id="그룹_277" data-name="그룹 277">
        <path id="패스_2191" data-name="패스 2191" d="M1369.3,1581.4a.865.865,0,0,1-.621-.261.83.83,0,0,1-.261-.612.85.85,0,0,1,.261-.621.887.887,0,0,1,1.5.621.931.931,0,0,1-.252.612A.9.9,0,0,1,1369.3,1581.4Z" transform="translate(-1354.38 -1530.398)" fill="#222"/>
        <path id="패스_2192" data-name="패스 2192" d="M1372.32,1580.522a.882.882,0,0,1,1.764,0,.882.882,0,0,1-1.764,0Z" transform="translate(-1354.77 -1530.396)" fill="#222"/>
        <path id="패스_2194" data-name="패스 2194" d="M1369.3,1586.577a.85.85,0,0,1-.621-.261.83.83,0,0,1-.261-.612.85.85,0,0,1,.261-.621.9.9,0,0,1,1.233,0,.839.839,0,0,1,0,1.233A.83.83,0,0,1,1369.3,1586.577Z" transform="translate(-1354.38 -1530.917)" fill="#222"/>
        <path id="패스_2195" data-name="패스 2195" d="M1372.32,1585.7a.882.882,0,1,1,1.764,0,.882.882,0,0,1-1.764,0Z" transform="translate(-1354.77 -1530.914)" fill="#222"/>
        <path id="패스_2197" data-name="패스 2197" d="M1369.3,1591.757a.865.865,0,0,1-.621-.261.83.83,0,0,1-.261-.612.88.88,0,0,1,.261-.621.887.887,0,0,1,1.5.621.869.869,0,0,1-.27.612A.83.83,0,0,1,1369.3,1591.757Z" transform="translate(-1354.38 -1531.435)" fill="#222"/>
        <path id="패스_2198" data-name="패스 2198" d="M1372.32,1590.882a.882.882,0,0,1,1.764,0,.882.882,0,0,1-1.764,0Z" transform="translate(-1354.77 -1531.432)" fill="#222"/>
        <path id="패스_2200" data-name="패스 2200" d="M1369.3,1596.926a.937.937,0,0,1-.621-.252.9.9,0,0,1-.261-.63.83.83,0,0,1,.261-.612.886.886,0,0,1,1.233,0,.87.87,0,0,1,.27.612.953.953,0,0,1-.252.621A.942.942,0,0,1,1369.3,1596.926Z" transform="translate(-1354.38 -1531.95)" fill="#222"/>
        <path id="패스_2201" data-name="패스 2201" d="M1372.32,1596.062a.882.882,0,0,1,1.764,0,.882.882,0,0,1-1.764,0Z" transform="translate(-1354.77 -1531.95)" fill="#222"/>
        <path id="패스_2203" data-name="패스 2203" d="M1369.3,1602.107a.936.936,0,0,1-.621-.252.87.87,0,0,1-.261-.63.83.83,0,0,1,.261-.612.9.9,0,0,1,1.233,0,.869.869,0,0,1,.27.612.906.906,0,0,1-.27.621A.866.866,0,0,1,1369.3,1602.107Z" transform="translate(-1354.38 -1532.469)" fill="#222"/>
        <path id="패스_2204" data-name="패스 2204" d="M1372.32,1601.223a.882.882,0,0,1,1.764,0,.882.882,0,0,1-1.764,0Z" transform="translate(-1354.77 -1532.467)" fill="#222"/>
        <path id="패스_2206" data-name="패스 2206" d="M1369.3,1607.288a.936.936,0,0,1-.621-.252.9.9,0,0,1-.261-.63.83.83,0,0,1,.261-.612.923.923,0,0,1,1.233,0,.886.886,0,0,1,.27.612.972.972,0,0,1-.252.621A.9.9,0,0,1,1369.3,1607.288Z" transform="translate(-1354.38 -1532.988)" fill="#222"/>
        <path id="패스_2207" data-name="패스 2207" d="M1372.32,1606.4a.882.882,0,1,1,.882.891A.882.882,0,0,1,1372.32,1606.4Z" transform="translate(-1354.77 -1532.985)" fill="#222"/>
        <path id="패스_2209" data-name="패스 2209" d="M1373.2,1612.476a.956.956,0,0,1-.621-.261.942.942,0,0,1-.261-.63.845.845,0,0,1,.261-.6.888.888,0,0,1,1.242,0,.869.869,0,0,1,.009,1.233.868.868,0,0,1-.63.279Z" transform="translate(-1354.77 -1533.505)" fill="#222"/>
        <path id="패스_2182" data-name="패스 2182" d="M1391.248,1613.739a37.265,37.265,0,1,0-37.458-37.26A37.352,37.352,0,0,0,1391.248,1613.739Z" transform="translate(-1352.917 -1526.353)" fill="#dce8ff"/>
        <path id="패스_2183" data-name="패스 2183" d="M1387.227,1545.034a37.244,37.244,0,0,1,31.446,57.519,37.225,37.225,0,0,0-26.757-63.333,37.495,37.495,0,0,0-31.446,17.037,37.424,37.424,0,0,1,26.757-11.205Z" transform="translate(-1353.585 -1526.354)" fill="#dce8ff"/>
        <path id="패스_2184" data-name="패스 2184" d="M1391.151,1614.523a38.147,38.147,0,1,1,38.331-38.142A38.276,38.276,0,0,1,1391.151,1614.523Zm0-74.547a36.405,36.405,0,1,0,36.585,36.405A36.53,36.53,0,0,0,1391.151,1539.976Z" transform="translate(-1352.82 -1526.255)" fill="#222"/>
        <path id="패스_2185" data-name="패스 2185" d="M1431.2,1547.564a2.535,2.535,0,0,0-3.915-3.114,4.575,4.575,0,0,0-9.108.594,4.319,4.319,0,0,0,.081.837,3.8,3.8,0,0,0-.783-.081,3.839,3.839,0,1,0,0,7.677h13.158a2.973,2.973,0,0,0,.567-5.9Z" transform="translate(-1358.899 -1526.481)" fill="#dce8ff"/>
        <path id="패스_2186" data-name="패스 2186" d="M1431.766,1547.564a2.535,2.535,0,0,0-3.915-3.114,4.569,4.569,0,0,0-8.541-1.575,4.553,4.553,0,0,1,3.843,3.9,2.536,2.536,0,0,1,4.239,1.863,2.589,2.589,0,0,1-.324,1.251,2.967,2.967,0,0,1,2.421,2.916,3.113,3.113,0,0,1-.072.648h1.764a2.973,2.973,0,0,0,.567-5.9Z" transform="translate(-1359.469 -1526.481)" fill="#dce8ff"/>
        <path id="패스_2187" data-name="패스 2187" d="M1430.533,1554.245h-13.158a4.7,4.7,0,0,1-.171-9.405,5.458,5.458,0,0,1,10.548-1.818,3.624,3.624,0,0,1,1.143-.189,3.407,3.407,0,0,1,3.411,3.4,4.539,4.539,0,0,1-.063.7,3.844,3.844,0,0,1-1.7,7.308Zm-13.158-7.668a2.961,2.961,0,1,0,0,5.922h13.158a2.1,2.1,0,0,0,.4-4.167.9.9,0,0,1-.63-.5.85.85,0,0,1,.027-.792,1.7,1.7,0,0,0,.216-.81,1.648,1.648,0,0,0-1.647-1.647,1.7,1.7,0,0,0-1.116.423.892.892,0,0,1-.9.18.877.877,0,0,1-.567-.711,3.693,3.693,0,0,0-7.353.477,3.3,3.3,0,0,0,.072.675.877.877,0,0,1-.252.783.9.9,0,0,1-.8.234A2.9,2.9,0,0,0,1417.375,1546.577Z" transform="translate(-1358.803 -1526.385)" fill="#222"/>
        <path id="패스_2188" data-name="패스 2188" d="M1364.19,1575.825v28.134a37.384,37.384,0,0,0,16.38,10.764V1567.68l-16.38,8.163Z" transform="translate(-1353.957 -1529.2)" fill="#dce8ff"/>
        <path id="패스_2189" data-name="패스 2189" d="M1380.59,1567.68l-16.38,8.163v9.324l11.691-5.832v33.516a38.053,38.053,0,0,0,4.689,1.89Z" transform="translate(-1353.959 -1529.2)" fill="#dce8ff"/>
        <path id="패스_2190" data-name="패스 2190" d="M1380.492,1615.507a1,1,0,0,1-.279-.045,38.346,38.346,0,0,1-16.767-11.025.914.914,0,0,1-.216-.576v-28.134a.9.9,0,0,1,.477-.783l16.389-8.154a.878.878,0,0,1,1.26.783v47.052a.931.931,0,0,1-.351.72A.889.889,0,0,1,1380.492,1615.507Zm-15.516-11.97a36.726,36.726,0,0,0,14.634,9.873v-44.415l-14.634,7.281Z" transform="translate(-1353.861 -1529.102)" fill="#222"/>
        <path id="패스_2193" data-name="패스 2193" d="M1377.1,1581.4a.875.875,0,0,1-.612-.261.839.839,0,0,1-.27-.612.858.858,0,0,1,.27-.621.9.9,0,0,1,1.233,0,.858.858,0,0,1,0,1.233A.85.85,0,0,1,1377.1,1581.4Z" transform="translate(-1355.16 -1530.398)" fill="#222"/>
        <path id="패스_2196" data-name="패스 2196" d="M1377.1,1586.577a.859.859,0,0,1-.612-.261.838.838,0,0,1-.27-.612.858.858,0,0,1,.27-.621.9.9,0,0,1,1.233,0,.858.858,0,0,1,0,1.233A.85.85,0,0,1,1377.1,1586.577Z" transform="translate(-1355.16 -1530.917)" fill="#222"/>
        <path id="패스_2199" data-name="패스 2199" d="M1377.1,1591.757a.939.939,0,0,1-.612-.243.911.911,0,0,1-.27-.63.858.858,0,0,1,.27-.621.913.913,0,0,1,1.233,0,.9.9,0,0,1,.261.621.861.861,0,0,1-.882.873Z" transform="translate(-1355.16 -1531.435)" fill="#222"/>
        <path id="패스_2202" data-name="패스 2202" d="M1377.1,1596.926a.95.95,0,0,1-.612-.252.91.91,0,0,1-.27-.63.839.839,0,0,1,.27-.612.886.886,0,0,1,1.233,0,.876.876,0,0,1,.261.612.945.945,0,0,1-.243.621A.965.965,0,0,1,1377.1,1596.926Z" transform="translate(-1355.16 -1531.95)" fill="#222"/>
        <path id="패스_2205" data-name="패스 2205" d="M1377.1,1602.106a.95.95,0,0,1-.612-.252.878.878,0,0,1-.27-.63.838.838,0,0,1,.27-.612.886.886,0,0,1,1.233,0,.859.859,0,0,1,.261.612.9.9,0,0,1-.261.621A.887.887,0,0,1,1377.1,1602.106Z" transform="translate(-1355.16 -1532.469)" fill="#222"/>
        <path id="패스_2208" data-name="패스 2208" d="M1377.1,1607.286a.9.9,0,0,1-.612-.261.843.843,0,0,1-.27-.621.819.819,0,0,1,.27-.6.869.869,0,0,1,1.233,0,.9.9,0,0,1,.261.621.86.86,0,0,1-.261.612.887.887,0,0,1-.621.261Z" transform="translate(-1355.16 -1532.987)" fill="#222"/>
        <path id="패스_2210" data-name="패스 2210" d="M1377.1,1612.476a.907.907,0,0,1-.882-.891.839.839,0,0,1,.27-.612.894.894,0,0,1,1.233,0,.875.875,0,0,1,.261.612.963.963,0,0,1-.243.621A.932.932,0,0,1,1377.1,1612.476Z" transform="translate(-1355.16 -1533.505)" fill="#222"/>
        <path id="패스_2211" data-name="패스 2211" d="M1424.8,1603.958v-28.134l-16.38-8.154v47.052A37.488,37.488,0,0,0,1424.8,1603.958Z" transform="translate(-1358.38 -1529.199)" fill="#dce8ff"/>
        <path id="패스_2212" data-name="패스 2212" d="M1408.42,1567.679v10.494l11.7,5.823v24.39a36.874,36.874,0,0,0,4.68-4.428v-28.134l-16.38-8.154Z" transform="translate(-1358.38 -1529.199)" fill="#dce8ff"/>
        <path id="패스_2213" data-name="패스 2213" d="M1408.324,1615.508a.889.889,0,0,1-.513-.162.866.866,0,0,1-.351-.72v-47.043a.838.838,0,0,1,.414-.738.877.877,0,0,1,.855-.045l16.38,8.163a.856.856,0,0,1,.477.783v28.134a.9.9,0,0,1-.216.576,38.427,38.427,0,0,1-16.767,11.025.913.913,0,0,1-.279.036Zm.882-46.512v44.415a36.727,36.727,0,0,0,14.634-9.873v-27.261Z" transform="translate(-1358.284 -1529.103)" fill="#222"/>
        <path id="패스_2214" data-name="패스 2214" d="M1421.332,1581.4a.871.871,0,0,1-.63-.261.9.9,0,0,1-.252-.612.858.858,0,0,1,.27-.621.9.9,0,0,1,1.233,0,.877.877,0,0,1-.621,1.494Z" transform="translate(-1359.583 -1530.398)" fill="#222"/>
        <path id="패스_2215" data-name="패스 2215" d="M1416.55,1580.522a.882.882,0,1,1,.882.873A.865.865,0,0,1,1416.55,1580.522Z" transform="translate(-1359.193 -1530.396)" fill="#222"/>
        <path id="패스_2216" data-name="패스 2216" d="M1413.532,1581.4a.891.891,0,0,1-.882-.873.864.864,0,0,1,1.485-.621.849.849,0,0,1,.279.621.9.9,0,0,1-.261.612A.912.912,0,0,1,1413.532,1581.4Z" transform="translate(-1358.803 -1530.398)" fill="#222"/>
        <path id="패스_2217" data-name="패스 2217" d="M1421.332,1586.577a.871.871,0,0,1-.63-.261.9.9,0,0,1-.252-.612.878.878,0,0,1,1.5-.621.9.9,0,0,1,.261.621.891.891,0,0,1-.882.873Z" transform="translate(-1359.583 -1530.917)" fill="#222"/>
        <path id="패스_2218" data-name="패스 2218" d="M1416.55,1585.7a.882.882,0,1,1,.882.873A.865.865,0,0,1,1416.55,1585.7Z" transform="translate(-1359.193 -1530.914)" fill="#222"/>
        <path id="패스_2219" data-name="패스 2219" d="M1413.532,1586.577a.836.836,0,0,1-.621-.261.8.8,0,0,1-.261-.612.864.864,0,0,1,1.485-.621.849.849,0,0,1,.279.621.9.9,0,0,1-.261.612A.912.912,0,0,1,1413.532,1586.577Z" transform="translate(-1358.803 -1530.917)" fill="#222"/>
        <path id="패스_2220" data-name="패스 2220" d="M1421.332,1591.757a.871.871,0,0,1-.63-.261.9.9,0,0,1-.252-.612.858.858,0,0,1,.27-.621.913.913,0,0,1,1.233,0,.878.878,0,0,1-.621,1.494Z" transform="translate(-1359.583 -1531.435)" fill="#222"/>
        <path id="패스_2221" data-name="패스 2221" d="M1416.55,1590.882a.882.882,0,1,1,.882.873A.865.865,0,0,1,1416.55,1590.882Z" transform="translate(-1359.193 -1531.432)" fill="#222"/>
        <path id="패스_2222" data-name="패스 2222" d="M1413.532,1591.757a.836.836,0,0,1-.621-.261.8.8,0,0,1-.261-.612.91.91,0,0,1,.243-.621.938.938,0,0,1,1.26,0,.859.859,0,0,1,0,1.233A.913.913,0,0,1,1413.532,1591.757Z" transform="translate(-1358.803 -1531.434)" fill="#222"/>
        <path id="패스_2223" data-name="패스 2223" d="M1421.332,1596.926a.909.909,0,0,1-.63-.261.936.936,0,0,1-.252-.621.9.9,0,0,1,.252-.612.908.908,0,0,1,1.251,0,.859.859,0,0,1,0,1.233A.9.9,0,0,1,1421.332,1596.926Z" transform="translate(-1359.583 -1531.95)" fill="#222"/>
        <path id="패스_2224" data-name="패스 2224" d="M1416.55,1596.062a.882.882,0,1,1,.882.873A.865.865,0,0,1,1416.55,1596.062Z" transform="translate(-1359.193 -1531.95)" fill="#222"/>
        <path id="패스_2225" data-name="패스 2225" d="M1413.532,1596.926a.947.947,0,0,1-.639-.261.926.926,0,0,1-.243-.621.865.865,0,0,1,.243-.612.9.9,0,0,1,1.242,0,.861.861,0,0,1,.279.612.92.92,0,0,1-.261.621A.938.938,0,0,1,1413.532,1596.926Z" transform="translate(-1358.803 -1531.95)" fill="#222"/>
        <path id="패스_2226" data-name="패스 2226" d="M1421.332,1602.107a.909.909,0,0,1-.63-.261.937.937,0,0,1-.252-.621.839.839,0,0,1,.27-.612.9.9,0,0,1,1.233,0,.859.859,0,0,1,.261.612.891.891,0,0,1-.882.882Z" transform="translate(-1359.583 -1532.469)" fill="#222"/>
        <path id="패스_2227" data-name="패스 2227" d="M1416.55,1601.223a.882.882,0,1,1,.882.882A.876.876,0,0,1,1416.55,1601.223Z" transform="translate(-1359.193 -1532.467)" fill="#222"/>
        <path id="패스_2228" data-name="패스 2228" d="M1413.532,1602.107a.887.887,0,0,1-.621-.261.865.865,0,0,1-.261-.621.828.828,0,0,1,.243-.6.9.9,0,0,1,1.521.621.9.9,0,0,1-.261.612.956.956,0,0,1-.621.261Z" transform="translate(-1358.803 -1532.469)" fill="#222"/>
        <path id="패스_2229" data-name="패스 2229" d="M1421.332,1607.286a.908.908,0,0,1-.63-.261.936.936,0,0,1-.252-.621.878.878,0,0,1,1.5-.612.876.876,0,0,1,.261.612.9.9,0,0,1-.261.621A.937.937,0,0,1,1421.332,1607.286Z" transform="translate(-1359.583 -1532.987)" fill="#222"/>
        <path id="패스_2230" data-name="패스 2230" d="M1416.55,1606.4a.882.882,0,1,1,.882.882A.876.876,0,0,1,1416.55,1606.4Z" transform="translate(-1359.193 -1532.985)" fill="#222"/>
        <path id="패스_2231" data-name="패스 2231" d="M1413.532,1607.287a.887.887,0,0,1-.621-.261.864.864,0,0,1-.261-.621.888.888,0,0,1,.243-.612.915.915,0,0,1,1.242,0,.845.845,0,0,1,.279.612.937.937,0,0,1-.261.621A.955.955,0,0,1,1413.532,1607.287Z" transform="translate(-1358.803 -1532.987)" fill="#222"/>
        <path id="패스_2232" data-name="패스 2232" d="M1417.432,1612.467a.9.9,0,0,1-.621-.252.934.934,0,0,1-.261-.612.918.918,0,0,1,.252-.621.869.869,0,0,1,1.233,0,.839.839,0,0,1,.018,1.233.858.858,0,0,1-.621.261Z" transform="translate(-1359.193 -1533.505)" fill="#222"/>
        <path id="패스_2233" data-name="패스 2233" d="M1413.532,1612.467a.887.887,0,0,1-.621-.261.865.865,0,0,1-.261-.621.9.9,0,0,1,.243-.612.915.915,0,0,1,1.242,0,.845.845,0,0,1,.279.612.937.937,0,0,1-.261.621A.912.912,0,0,1,1413.532,1612.467Z" transform="translate(-1358.803 -1533.505)" fill="#222"/>
        <path id="패스_2234" data-name="패스 2234" d="M1395.312,1553.438a.882.882,0,0,1-.882-.873v-6.993a.882.882,0,1,1,1.764,0v6.993A.888.888,0,0,1,1395.312,1553.438Z" transform="translate(-1356.981 -1526.901)" fill="#222"/>
        <path id="패스_2235" data-name="패스 2235" d="M1394.11,1553.44l-11.7,5.823V1613.3a37.67,37.67,0,0,0,23.4,0v-54.036Z" transform="translate(-1355.779 -1527.776)" fill="#dce8ff"/>
        <path id="패스_2236" data-name="패스 2236" d="M1405.82,1559.263l-11.7-5.823-11.7,5.823,18.729,9.324V1614.5a38.456,38.456,0,0,0,4.689-1.179v-54.054Z" transform="translate(-1355.78 -1527.776)" fill="#dce8ff"/>
        <path id="패스_2237" data-name="패스 2237" d="M1394.012,1615.947a38.689,38.689,0,0,1-11.979-1.908.884.884,0,0,1-.6-.837v-54.036a.867.867,0,0,1,.486-.774l11.691-5.832a.878.878,0,0,1,.792,0l11.691,5.832a.851.851,0,0,1,.486.774V1613.2a.884.884,0,0,1-.6.837,38.73,38.73,0,0,1-11.979,1.908Zm-10.836-3.375a36.874,36.874,0,0,0,21.663,0v-52.866l-10.827-5.391-10.836,5.391Z" transform="translate(-1355.681 -1527.679)" fill="#222"/>
        <path id="패스_2238" data-name="패스 2238" d="M1387.5,1581.4a.891.891,0,0,1-.882-.873.887.887,0,0,1,.261-.621.915.915,0,0,1,1.242,0,.887.887,0,0,1,.261.621.891.891,0,0,1-.882.873Z" transform="translate(-1356.2 -1530.398)" fill="#222"/>
        <path id="패스_2239" data-name="패스 2239" d="M1397.549,1580.522a.889.889,0,0,1,.882-.882.878.878,0,0,1,.882.882.864.864,0,0,1-.882.873A.876.876,0,0,1,1397.549,1580.522Zm-3.51,0a.882.882,0,0,1,1.764,0,.882.882,0,0,1-1.764,0Zm-3.519,0a.889.889,0,0,1,.882-.882.877.877,0,0,1,.882.882.864.864,0,0,1-.882.873A.876.876,0,0,1,1390.52,1580.522Z" transform="translate(-1356.59 -1530.396)" fill="#222"/>
        <path id="패스_2240" data-name="패스 2240" d="M1403.122,1581.4a.962.962,0,0,1-.621-.243.9.9,0,0,1-.261-.63.849.849,0,0,1,.261-.621.9.9,0,0,1,1.233,0,.858.858,0,0,1,.27.621.875.875,0,0,1-.882.873Z" transform="translate(-1357.762 -1530.398)" fill="#222"/>
        <path id="패스_2241" data-name="패스 2241" d="M1387.5,1586.577a.927.927,0,0,1-.621-.243.941.941,0,0,1-.261-.63.887.887,0,0,1,.261-.621.925.925,0,0,1,1.242,0,.887.887,0,0,1,.261.621.875.875,0,0,1-.882.873Z" transform="translate(-1356.2 -1530.917)" fill="#222"/>
        <path id="패스_2242" data-name="패스 2242" d="M1397.549,1585.7a.889.889,0,0,1,.882-.882.878.878,0,0,1,.882.882.865.865,0,0,1-.882.873A.876.876,0,0,1,1397.549,1585.7Zm-3.51,0a.882.882,0,1,1,1.764,0,.882.882,0,0,1-1.764,0Zm-3.519,0a.889.889,0,0,1,.882-.882.878.878,0,0,1,.882.882.864.864,0,0,1-.882.873A.876.876,0,0,1,1390.52,1585.7Z" transform="translate(-1356.59 -1530.914)" fill="#222"/>
        <path id="패스_2243" data-name="패스 2243" d="M1403.122,1586.577a.9.9,0,0,1-.621-.261.829.829,0,0,1-.261-.612.85.85,0,0,1,.261-.621.9.9,0,0,1,1.233,0,.839.839,0,0,1,0,1.233A.83.83,0,0,1,1403.122,1586.577Z" transform="translate(-1357.762 -1530.917)" fill="#222"/>
        <path id="패스_2244" data-name="패스 2244" d="M1387.5,1571.037a.891.891,0,0,1-.882-.873.9.9,0,0,1,.261-.621.915.915,0,0,1,1.242,0,.9.9,0,0,1,.261.621.891.891,0,0,1-.882.873Z" transform="translate(-1356.2 -1529.363)" fill="#222"/>
        <path id="패스_2245" data-name="패스 2245" d="M1397.549,1570.173a.888.888,0,0,1,.882-.873.878.878,0,1,1-.882.873Zm-3.51,0a.882.882,0,0,1,1.764,0,.882.882,0,0,1-1.764,0Zm-3.519,0a.887.887,0,0,1,.882-.873.878.878,0,1,1-.882.873Z" transform="translate(-1356.59 -1529.362)" fill="#222"/>
        <path id="패스_2246" data-name="패스 2246" d="M1403.122,1571.037a.9.9,0,0,1-.621-.261.829.829,0,0,1-.261-.612.865.865,0,0,1,.261-.621.9.9,0,0,1,1.233,0,.89.89,0,0,1,.27.621.87.87,0,0,1-.27.612A.83.83,0,0,1,1403.122,1571.037Z" transform="translate(-1357.762 -1529.363)" fill="#222"/>
        <path id="패스_2247" data-name="패스 2247" d="M1387.5,1565.876a.9.9,0,0,1-.621-.261.887.887,0,0,1-.261-.621.866.866,0,0,1,.261-.612.9.9,0,0,1,1.242,0,.866.866,0,0,1,.261.612.919.919,0,0,1-.252.621A.943.943,0,0,1,1387.5,1565.876Z" transform="translate(-1356.2 -1528.846)" fill="#222"/>
        <path id="패스_2248" data-name="패스 2248" d="M1397.549,1564.993a.887.887,0,0,1,.882-.873.877.877,0,1,1-.882.873Zm-3.51,0a.882.882,0,0,1,1.764,0,.882.882,0,1,1-1.764,0Zm-3.519,0a.887.887,0,0,1,.882-.873.877.877,0,1,1-.882.873Z" transform="translate(-1356.59 -1528.844)" fill="#222"/>
        <path id="패스_2249" data-name="패스 2249" d="M1403.122,1565.876a.938.938,0,0,1-.621-.261.85.85,0,0,1-.261-.621.829.829,0,0,1,.261-.612.886.886,0,0,1,1.233,0,.839.839,0,0,1,.27.612.907.907,0,0,1-.882.882Z" transform="translate(-1357.762 -1528.846)" fill="#222"/>
        <path id="패스_2250" data-name="패스 2250" d="M1387.5,1576.217a.892.892,0,0,1-.882-.873.886.886,0,0,1,.261-.621.915.915,0,0,1,1.242,0,.887.887,0,0,1,.261.621.876.876,0,0,1-.882.873Z" transform="translate(-1356.2 -1529.88)" fill="#222"/>
        <path id="패스_2251" data-name="패스 2251" d="M1397.549,1575.342a.889.889,0,0,1,.882-.882.878.878,0,1,1,0,1.755A.888.888,0,0,1,1397.549,1575.342Zm-3.51,0a.882.882,0,1,1,.882.873A.883.883,0,0,1,1394.039,1575.342Zm-3.519,0a.889.889,0,0,1,.882-.882.878.878,0,1,1,0,1.755A.888.888,0,0,1,1390.52,1575.342Z" transform="translate(-1356.59 -1529.878)" fill="#222"/>
        <path id="패스_2252" data-name="패스 2252" d="M1403.122,1576.217a.962.962,0,0,1-.621-.243.9.9,0,0,1-.261-.63.849.849,0,0,1,.261-.621.9.9,0,0,1,1.233,0,.874.874,0,0,1,.27.621.931.931,0,0,1-.252.612A.9.9,0,0,1,1403.122,1576.217Z" transform="translate(-1357.762 -1529.88)" fill="#222"/>
        <path id="패스_2253" data-name="패스 2253" d="M1387.5,1607.287a.9.9,0,0,1-.621-.261.87.87,0,0,1-.261-.621.882.882,0,0,1,.261-.612.882.882,0,0,1,1.5.612.891.891,0,0,1-.882.882Z" transform="translate(-1356.2 -1532.987)" fill="#222"/>
        <path id="패스_2254" data-name="패스 2254" d="M1397.549,1606.4a.888.888,0,0,1,.882-.873.878.878,0,1,1-.882.873Zm-3.51,0a.882.882,0,0,1,1.764,0,.882.882,0,1,1-1.764,0Zm-3.519,0a.887.887,0,0,1,.882-.873.878.878,0,1,1-.882.873Z" transform="translate(-1356.59 -1532.985)" fill="#222"/>
        <path id="패스_2255" data-name="패스 2255" d="M1403.122,1607.286a.927.927,0,0,1-.621-.252.87.87,0,0,1-.261-.63.83.83,0,0,1,.261-.612.886.886,0,0,1,1.233,0,.87.87,0,0,1,.27.612.906.906,0,0,1-.27.621A.865.865,0,0,1,1403.122,1607.286Z" transform="translate(-1357.762 -1532.987)" fill="#222"/>
        <path id="패스_2256" data-name="패스 2256" d="M1387.5,1612.476a.9.9,0,0,1-.621-.261.942.942,0,0,1-.261-.63.866.866,0,0,1,.261-.612.882.882,0,0,1,1.5.612.974.974,0,0,1-.252.621A.911.911,0,0,1,1387.5,1612.476Z" transform="translate(-1356.2 -1533.505)" fill="#222"/>
        <path id="패스_2257" data-name="패스 2257" d="M1397.549,1611.583a.888.888,0,0,1,.882-.873.882.882,0,0,1,0,1.764A.891.891,0,0,1,1397.549,1611.583Zm-3.51,0a.882.882,0,1,1,.882.891A.882.882,0,0,1,1394.039,1611.583Zm-3.519,0a.887.887,0,0,1,.882-.873.882.882,0,0,1,0,1.764A.891.891,0,0,1,1390.52,1611.583Z" transform="translate(-1356.59 -1533.503)" fill="#222"/>
        <path id="패스_2258" data-name="패스 2258" d="M1403.122,1612.476a.937.937,0,0,1-.621-.261.892.892,0,0,1-.261-.612.849.849,0,0,1,.261-.621.877.877,0,0,1,1.233,0,.859.859,0,0,1,.018,1.233.884.884,0,0,1-.63.279Z" transform="translate(-1357.762 -1533.505)" fill="#222"/>
        <path id="패스_2259" data-name="패스 2259" d="M1387.5,1617.647a.936.936,0,0,1-.621-.252.9.9,0,0,1-.261-.612.887.887,0,0,1,.261-.621.9.9,0,0,1,1.242,0,.88.88,0,0,1,0,1.251.886.886,0,0,1-.621.243Z" transform="translate(-1356.2 -1534.024)" fill="#222"/>
        <path id="패스_2260" data-name="패스 2260" d="M1397.549,1616.763a.888.888,0,0,1,.882-.873.878.878,0,1,1-.882.873Zm-3.51,0a.882.882,0,0,1,1.764,0,.882.882,0,0,1-1.764,0Zm-3.519,0a.887.887,0,0,1,.882-.873.878.878,0,1,1-.882.873Z" transform="translate(-1356.59 -1534.021)" fill="#222"/>
        <path id="패스_2261" data-name="패스 2261" d="M1403.122,1617.647a.927.927,0,0,1-.621-.252.9.9,0,0,1-.261-.63.864.864,0,0,1,.261-.621.922.922,0,0,1,1.233,0,.906.906,0,0,1,.27.621.973.973,0,0,1-.252.621A.9.9,0,0,1,1403.122,1617.647Z" transform="translate(-1357.762 -1534.023)" fill="#222"/>
        <path id="패스_2262" data-name="패스 2262" d="M1387.5,1596.926a.891.891,0,0,1-.882-.882.866.866,0,0,1,.261-.612.882.882,0,0,1,1.5.612.92.92,0,0,1-.261.621A.9.9,0,0,1,1387.5,1596.926Z" transform="translate(-1356.2 -1531.95)" fill="#222"/>
        <path id="패스_2263" data-name="패스 2263" d="M1397.549,1596.062a.889.889,0,0,1,.882-.882.877.877,0,0,1,.882.882.865.865,0,0,1-.882.873A.876.876,0,0,1,1397.549,1596.062Zm-3.51,0a.882.882,0,0,1,1.764,0,.882.882,0,0,1-1.764,0Zm-3.519,0a.889.889,0,0,1,.882-.882.877.877,0,0,1,.882.882.865.865,0,0,1-.882.873A.876.876,0,0,1,1390.52,1596.062Z" transform="translate(-1356.59 -1531.95)" fill="#222"/>
        <path id="패스_2264" data-name="패스 2264" d="M1403.122,1596.926a.886.886,0,0,1-.621-.252.9.9,0,0,1-.261-.63.83.83,0,0,1,.261-.612.886.886,0,0,1,1.233,0,.87.87,0,0,1,.27.612.89.89,0,0,1-.27.621A.866.866,0,0,1,1403.122,1596.926Z" transform="translate(-1357.762 -1531.95)" fill="#222"/>
        <path id="패스_2265" data-name="패스 2265" d="M1387.5,1591.757a.891.891,0,0,1-.882-.873.887.887,0,0,1,.261-.621.915.915,0,0,1,1.242,0,.859.859,0,0,1,0,1.233A.866.866,0,0,1,1387.5,1591.757Z" transform="translate(-1356.2 -1531.434)" fill="#222"/>
        <path id="패스_2266" data-name="패스 2266" d="M1397.549,1590.882a.889.889,0,0,1,.882-.882.878.878,0,0,1,.882.882.865.865,0,0,1-.882.873A.876.876,0,0,1,1397.549,1590.882Zm-3.51,0a.882.882,0,0,1,1.764,0,.882.882,0,0,1-1.764,0Zm-3.519,0a.889.889,0,0,1,.882-.882.878.878,0,0,1,.882.882.864.864,0,0,1-.882.873A.876.876,0,0,1,1390.52,1590.882Z" transform="translate(-1356.59 -1531.432)" fill="#222"/>
        <path id="패스_2267" data-name="패스 2267" d="M1403.122,1591.757a.963.963,0,0,1-.621-.243.9.9,0,0,1-.261-.63.85.85,0,0,1,.261-.621.9.9,0,0,1,1.233,0,.839.839,0,0,1,0,1.233A.831.831,0,0,1,1403.122,1591.757Z" transform="translate(-1357.762 -1531.434)" fill="#222"/>
        <path id="패스_2268" data-name="패스 2268" d="M1387.5,1602.107a.876.876,0,0,1-.882-.882.866.866,0,0,1,.261-.612.915.915,0,0,1,1.242,0,.866.866,0,0,1,.261.612.937.937,0,0,1-.252.621A.9.9,0,0,1,1387.5,1602.107Z" transform="translate(-1356.2 -1532.469)" fill="#222"/>
        <path id="패스_2269" data-name="패스 2269" d="M1397.549,1601.223a.888.888,0,0,1,.882-.873.878.878,0,1,1-.882.873Zm-3.51,0a.882.882,0,0,1,1.764,0,.882.882,0,1,1-1.764,0Zm-3.519,0a.888.888,0,0,1,.882-.873.878.878,0,1,1-.882.873Z" transform="translate(-1356.59 -1532.467)" fill="#222"/>
        <path id="패스_2270" data-name="패스 2270" d="M1403.122,1602.106a.973.973,0,0,1-.621-.252.9.9,0,0,1-.261-.63.829.829,0,0,1,.261-.612.886.886,0,0,1,1.233,0,.869.869,0,0,1,.27.612.907.907,0,0,1-.27.621A.866.866,0,0,1,1403.122,1602.106Z" transform="translate(-1357.762 -1532.469)" fill="#222"/>
        <path id="패스_2271" data-name="패스 2271" d="M1418.982,1565.486a.825.825,0,0,1-.612-.261l-3.519-3.5a.869.869,0,0,1,0-1.233.88.88,0,0,1,1.242,0l3.51,3.5a.853.853,0,0,1,0,1.233A.9.9,0,0,1,1418.982,1565.486Z" transform="translate(-1358.997 -1528.456)" fill="#222"/>
        <path id="패스_2272" data-name="패스 2272" d="M1415.472,1565.486a.858.858,0,0,1-.621-.261.869.869,0,0,1,0-1.233l3.519-3.5a.869.869,0,0,1,1.233,0,.853.853,0,0,1,0,1.233l-3.51,3.5A.9.9,0,0,1,1415.472,1565.486Z" transform="translate(-1358.997 -1528.456)" fill="#222"/>
        <path id="패스_2273" data-name="패스 2273" d="M1426.2,1530.167a.83.83,0,0,1-.621-.261l-3.519-3.492a.869.869,0,0,1,0-1.233.88.88,0,0,1,1.242,0l3.51,3.492a.878.878,0,0,1-.612,1.494Z" transform="translate(-1359.718 -1524.925)" fill="#222"/>
        <path id="패스_2274" data-name="패스 2274" d="M1422.682,1530.167a.859.859,0,0,1-.621-.261.869.869,0,0,1,0-1.233l3.519-3.492a.869.869,0,0,1,1.233,0,.854.854,0,0,1,0,1.233l-3.51,3.492A.865.865,0,0,1,1422.682,1530.167Z" transform="translate(-1359.718 -1524.925)" fill="#222"/>
        <path id="패스_2275" data-name="패스 2275" d="M1414.122,1534.848a.83.83,0,0,1-.621-.261l-3.519-3.492a.869.869,0,0,1,0-1.233.88.88,0,0,1,1.242,0l3.519,3.492a.869.869,0,0,1,0,1.233A.938.938,0,0,1,1414.122,1534.848Z" transform="translate(-1358.51 -1525.393)" fill="#222"/>
        <path id="패스_2276" data-name="패스 2276" d="M1410.6,1534.848a.858.858,0,0,1-.621-.261.869.869,0,0,1,0-1.233l3.519-3.492a.88.88,0,0,1,1.242,0,.869.869,0,0,1,0,1.233l-3.519,3.492A.9.9,0,0,1,1410.6,1534.848Z" transform="translate(-1358.51 -1525.393)" fill="#222"/>
      </g>
    </g>
    <g id="그룹_276" data-name="그룹 276" transform="translate(1338 1527)">
      <path id="패스_2277" data-name="패스 2277" d="M1356.519,1611.89a13.747,13.747,0,0,1-13.779-13.707V1524.14H1370.3v74.043A13.747,13.747,0,0,1,1356.519,1611.89Z" transform="translate(-1337.574 -1523.114)" fill="#dce8ff"/>
      <path id="패스_2278" data-name="패스 2278" d="M1361.645,1551.94v48.987a13.7,13.7,0,0,1-8.955,12.834,13.777,13.777,0,0,0,18.6-12.834v-47.979C1368.674,1551.4,1365.173,1551.319,1361.645,1551.94Z" transform="translate(-1338.569 -1525.858)" fill="#dce8ff"/>
      <path id="패스_2279" data-name="패스 2279" d="M1365.71,1524.14v24.723a12.259,12.259,0,0,1,6.885,1.341V1524.14Z" transform="translate(-1339.871 -1523.114)" fill="#dce8ff"/>
      <path id="패스_2280" data-name="패스 2280" d="M1356.4,1612.811a14.794,14.794,0,0,1-14.814-14.742v-74.043a1.039,1.039,0,0,1,1.035-1.026h27.558a1.039,1.039,0,0,1,1.035,1.026v74.043A14.794,14.794,0,0,1,1356.4,1612.811Zm-12.744-87.75v73.008a12.744,12.744,0,0,0,25.488,0v-73.008Z" transform="translate(-1337.459 -1523)" fill="#222"/>
      <path id="패스_2281" data-name="패스 2281" d="M1373.855,1525.061h-35.82a1.031,1.031,0,1,1,0-2.061h35.82a1.031,1.031,0,1,1,0,2.061Z" transform="translate(-1337 -1523)" fill="#222"/>
      <path id="패스_2282" data-name="패스 2282" d="M1348.465,1555.236a12.568,12.568,0,0,1-6.381-1.512,1.017,1.017,0,0,1-.351-1.413,1.032,1.032,0,0,1,1.413-.351c3.987,2.34,10.377.711,12.942-.1,4.284-1.359,10.305-2.439,14.616.1a1.029,1.029,0,1,1-1.062,1.764c-3.843-2.277-9.756-.918-12.933.1A28.459,28.459,0,0,1,1348.465,1555.236Z" transform="translate(-1337.458 -1525.743)" fill="#222"/>
      <path id="패스_2283" data-name="패스 2283" d="M1366.666,1534.2h-4.14a1.031,1.031,0,0,1,0-2.061h4.14a1.031,1.031,0,1,1,0,2.061Z" transform="translate(-1339.45 -1523.914)" fill="#222"/>
      <path id="패스_2284" data-name="패스 2284" d="M1366.666,1543.341h-4.14a1.03,1.03,0,0,1,0-2.061h4.14a1.03,1.03,0,1,1,0,2.061Z" transform="translate(-1339.45 -1524.828)" fill="#222"/>
      <path id="패스_2285" data-name="패스 2285" d="M1366.666,1561.621h-4.14a1.03,1.03,0,0,1,0-2.061h4.14a1.03,1.03,0,1,1,0,2.061Z" transform="translate(-1339.45 -1526.656)" fill="#222"/>
      <path id="패스_2286" data-name="패스 2286" d="M1366.666,1570.761h-4.14a1.031,1.031,0,0,1,0-2.061h4.14a1.031,1.031,0,1,1,0,2.061Z" transform="translate(-1339.45 -1527.57)" fill="#222"/>
      <path id="패스_2287" data-name="패스 2287" d="M1366.666,1579.9h-4.14a1.031,1.031,0,0,1,0-2.061h4.14a1.031,1.031,0,1,1,0,2.061Z" transform="translate(-1339.45 -1528.484)" fill="#222"/>
      <path id="패스_2288" data-name="패스 2288" d="M1366.666,1589.042h-4.14a1.026,1.026,0,1,1,0-2.052h4.14a1.026,1.026,0,1,1,0,2.052Z" transform="translate(-1339.45 -1529.399)" fill="#222"/>
      <path id="패스_2289" data-name="패스 2289" d="M1366.666,1598.182h-4.14a1.026,1.026,0,0,1,0-2.052h4.14a1.026,1.026,0,1,1,0,2.052Z" transform="translate(-1339.45 -1530.313)" fill="#222"/>
      <path id="패스_2290" data-name="패스 2290" d="M1366.666,1607.322h-4.14a1.026,1.026,0,0,1,0-2.052h4.14a1.026,1.026,0,1,1,0,2.052Z" transform="translate(-1339.45 -1531.227)" fill="#222"/>
      <path id="패스_2291" data-name="패스 2291" d="M1348.755,1595.928a1.039,1.039,0,0,1-1.035-1.026v-20.277a1.031,1.031,0,1,1,2.061,0V1594.9A1.037,1.037,0,0,1,1348.755,1595.928Z" transform="translate(-1338.072 -1528.059)" fill="#222"/>
      <path id="패스_2292" data-name="패스 2292" d="M1348.755,1569.235a1.039,1.039,0,0,1-1.035-1.026v-3.033a1.031,1.031,0,0,1,2.061,0v3.033A1.037,1.037,0,0,1,1348.755,1569.235Z" transform="translate(-1338.072 -1527.115)" fill="#222"/>
    </g>
  </g>
</svg>
