<svg xmlns="http://www.w3.org/2000/svg" width="80" height="80" viewBox="0 0 80 80">
  <g id="그룹_167634" data-name="그룹 167634" transform="translate(-1393 -298)">
    <circle id="타원_9496" data-name="타원 9496" cx="40" cy="40" r="40" transform="translate(1393 298)" fill="#fff"/>
    <g id="그룹_166322" data-name="그룹 166322" transform="translate(12.001 -43.771)">
      <rect id="사각형_151250" data-name="사각형 151250" width="50" height="34" rx="6" transform="translate(1395.999 364.771)" fill="#fff" stroke="#194da1" stroke-linecap="round" stroke-linejoin="round" stroke-width="1.5"/>
      <path id="패스_85942" data-name="패스 85942" d="M63.82,28.46l-20,15-20-15" transform="translate(1377.18 340.594)" fill="none" stroke="#194da1" stroke-linecap="round" stroke-linejoin="round" stroke-width="1.5"/>
      <g id="그룹_166035" data-name="그룹 166035" transform="translate(-21 22)">
        <g id="그룹_165618" data-name="그룹 165618" transform="translate(1433.999 352)">
          <g id="패스_84525" data-name="패스 84525" transform="translate(-8.49 -1)" fill="#fff" stroke-linecap="round" stroke-linejoin="round">
            <path d="M 16.48964881896973 16.24999618530273 C 12.49217987060547 16.24999618530273 9.239999771118164 12.99781703948975 9.239999771118164 9.000347137451172 C 9.239999771118164 5.002487182617188 12.49217987060547 1.749997138977051 16.48964881896973 1.749997138977051 C 20.48751068115234 1.749997138977051 23.73999977111816 5.002487182617188 23.73999977111816 9.000347137451172 C 23.73999977111816 12.99781703948975 20.48751068115234 16.24999618530273 16.48964881896973 16.24999618530273 Z" stroke="none"/>
            <path d="M 16.48964881896973 15.49999713897705 C 20.07395935058594 15.49999713897705 22.98999977111816 12.58426666259766 22.98999977111816 9.000347137451172 C 22.98999977111816 5.416037082672119 20.07395935058594 2.499997138977051 16.48964881896973 2.499997138977051 C 12.90573024749756 2.499997138977051 9.989999771118164 5.416037082672119 9.989999771118164 9.000347137451172 C 9.989999771118164 12.58426666259766 12.90573024749756 15.49999713897705 16.48964881896973 15.49999713897705 M 16.48964881896973 16.99999618530273 C 12.07813930511475 16.99999618530273 8.489999771118164 13.41185760498047 8.489999771118164 9.000347137451172 C 8.489999771118164 4.589177131652832 12.07813930511475 0.9999971389770508 16.48964881896973 0.9999971389770508 C 20.90115928649902 0.9999971389770508 24.48999977111816 4.589177131652832 24.48999977111816 9.000347137451172 C 24.48999977111816 13.41185760498047 20.90115928649902 16.99999618530273 16.48964881896973 16.99999618530273 Z" stroke="none" fill="#194da1"/>
          </g>
          <path id="패스_84526" data-name="패스 84526" d="M-12781.144-6274.856v6l4.979-2.4,5.021,2.4v-6" transform="translate(12784.144 6288.856)" fill="none" stroke="#194da1" stroke-linecap="square" stroke-linejoin="round" stroke-width="1.5"/>
        </g>
        <path id="check" d="M10.429,6l-4.42,4.286L4,8.338" transform="translate(1435.021 352.045)" fill="none" stroke="#194da1" stroke-linecap="round" stroke-linejoin="round" stroke-width="1.5"/>
      </g>
    </g>
  </g>
</svg>
