<svg xmlns="http://www.w3.org/2000/svg" width="120" height="120" viewBox="0 0 120 120">
  <g id="그룹_166179" data-name="그룹 166179" transform="translate(-1050 -322)">
    <g id="그룹_166085" data-name="그룹 166085" transform="translate(-8 -10)">
      <circle id="타원_9495" data-name="타원 9495" cx="60" cy="60" r="60" transform="translate(1058 332)" fill="#fff"/>
    </g>
    <g id="그룹_166098" data-name="그룹 166098" transform="translate(11 -210)">
      <g id="그룹_166097" data-name="그룹 166097">
        <ellipse id="타원_9525" data-name="타원 9525" cx="8" cy="8" rx="8" ry="8" transform="translate(1096 581)" fill="#fff" stroke="#194da1" stroke-linejoin="round" stroke-width="1.5"/>
        <path id="패스_84556" data-name="패스 84556" d="M21,22.008H7.645c-3.67,0-6.645-3.581-6.645-8s2.975-8,6.645-8H21Z" transform="translate(1073 574.992)" fill="#fff" stroke="#194da1" stroke-linejoin="round" stroke-width="1.5"/>
        <path id="패스_84558" data-name="패스 84558" d="M28.486,35l-14-8.972V9.972L28.486,1Z" transform="translate(1079.514 571)" fill="#fff" stroke="#194da1" stroke-linejoin="round" stroke-width="1.5"/>
        <rect id="사각형_151176" data-name="사각형 151176" width="6" height="15" transform="translate(1084 597)" fill="#fff" stroke="#194da1" stroke-width="1.5"/>
        <g id="그룹_166096" data-name="그룹 166096" transform="translate(-5 1)">
          <line id="선_3542" data-name="선 3542" y2="5" transform="translate(1129 588.348) rotate(90)" fill="none" stroke="#194da1" stroke-linecap="round" stroke-linejoin="round" stroke-width="1.5"/>
          <line id="선_3543" data-name="선 3543" x2="2.748" y2="3.748" transform="translate(1124.748 571) rotate(90)" fill="none" stroke="#194da1" stroke-linecap="round" stroke-linejoin="round" stroke-width="1.5"/>
          <line id="선_3544" data-name="선 3544" x1="2.748" y2="3.748" transform="translate(1124.748 602.252) rotate(90)" fill="none" stroke="#194da1" stroke-linecap="round" stroke-linejoin="round" stroke-width="1.5"/>
        </g>
      </g>
    </g>
  </g>
</svg>
