<svg id="그룹_167832" data-name="그룹 167832" xmlns="http://www.w3.org/2000/svg" xmlns:xlink="http://www.w3.org/1999/xlink" width="800" height="1280" viewBox="0 0 800 1280">
  <defs>
    <clipPath id="clip-path">
      <rect id="사각형_153207" data-name="사각형 153207" width="800" height="1280" fill="#fff"/>
    </clipPath>
  </defs>
  <g id="마스크_그룹_15" data-name="마스크 그룹 15" clip-path="url(#clip-path)">
    <path id="패스_86280" data-name="패스 86280" d="M1409.324,0V1280H561.18c48.844-98.06,126.264-181.9,223.112-233.388C839.44,1017.3,899.336,997.932,955.4,970.4s109.98-65.188,140.172-119.864,30.816-129.128-11.636-174.94C1042.724,631.124,975.3,624.556,914.7,626.748s-124.368,9.636-179.252-16.14C634.808,563.344,610.944,430.864,534.184,350.42,480.96,294.644,405.1,267.1,330.892,246.212s-151.18-37.584-216.86-77.956C54.052,131.388,4.2,69.112,0,0Z" fill="#ecf5ff"/>
    <g id="그룹_167591" data-name="그룹 167591" transform="translate(276 60)">
      <path id="패스_86290" data-name="패스 86290" d="M1470.883,0V11.937H1112.5a34.625,34.625,0,0,0-34.589,34.589V203.377H1065.97V46.525A46.579,46.579,0,0,1,1112.5,0Z" transform="translate(-939.943)" fill="#202020"/>
      <path id="패스_86291" data-name="패스 86291" d="M1057.959,577.43V553.644a10.283,10.283,0,0,0-10.282-10.282h-18.234a10.256,10.256,0,0,0-7.823,3.612v0a10.238,10.238,0,0,0-2.456,6.668V577.43Z" transform="translate(-906.563 -387.485)" fill="#545454"/>
      <path id="패스_86292" data-name="패스 86292" d="M1027.847,704.258V656.747a13.286,13.286,0,0,0-13.288-13.285H961.8a13.286,13.286,0,0,0-13.285,13.285v47.511Z" transform="translate(-856.185 -458.869)" fill="#e4e8ef"/>
      <path id="패스_86293" data-name="패스 86293" d="M927.715,865.848h88.775a1.744,1.744,0,0,0,1.744-1.744v-6.972a1.744,1.744,0,0,0-1.744-1.744H927.715a1.745,1.745,0,0,0-1.745,1.744V864.1a1.744,1.744,0,0,0,1.745,1.744" transform="translate(-840.107 -609.998)" fill="#d9dee5"/>
      <path id="패스_86294" data-name="패스 86294" d="M1027.847,704.258V656.747a13.286,13.286,0,0,0-13.288-13.285H961.8a13.286,13.286,0,0,0-13.285,13.285c56.964,3.958,62.2,47.511,62.2,47.511Z" transform="translate(-856.185 -458.869)" fill="#e4e8ef"/>
      <rect id="사각형_153051" data-name="사각형 153051" width="79.329" height="3.831" transform="translate(92.333 241.558)" fill="#c1c8d1"/>
      <path id="패스_86295" data-name="패스 86295" d="M1099.951,684.177v-27.43a13.287,13.287,0,0,0-13.288-13.285h-37.035c37.4,0,50.323,40.715,50.323,40.715" transform="translate(-928.29 -458.869)" fill="#d9dee5"/>
      <rect id="사각형_153052" data-name="사각형 153052" width="38.794" height="2.483" transform="translate(112.6 182.11)" fill="#141e41"/>
      <path id="패스_86296" data-name="패스 86296" d="M1064.065,572.078V553.644a10.283,10.283,0,0,0-10.282-10.282h-18.234a10.254,10.254,0,0,0-7.823,3.612v0c28.421-3.486,32.76,25.1,32.76,25.1Z" transform="translate(-912.671 -387.485)" fill="#202020"/>
      <path id="패스_86297" data-name="패스 86297" d="M654.6,1019.652H630.041a3.381,3.381,0,1,1,0-6.763H654.6a3.381,3.381,0,1,1,0,6.763" transform="translate(-626.66 -722.318)" fill="#ffb709"/>
      <path id="패스_86298" data-name="패스 86298" d="M824.337,849.918a3.381,3.381,0,0,1-3.381-3.382V821.973a3.381,3.381,0,1,1,6.763,0v24.563a3.381,3.381,0,0,1-3.382,3.382" transform="translate(-765.218 -583.759)" fill="#ffb709"/>
      <path id="패스_86299" data-name="패스 86299" d="M703.822,899.137a3.371,3.371,0,0,1-2.391-.99l-16.874-16.874a3.381,3.381,0,0,1,4.782-4.782l16.874,16.874a3.381,3.381,0,0,1-2.391,5.772" transform="translate(-667.242 -624.342)" fill="#ffb709"/>
    </g>
    <g id="그룹_167592" data-name="그룹 167592" transform="translate(7697.063 7634.267)">
      <path id="패스_86282" data-name="패스 86282" d="M1057.959,1621.138v23.786a10.283,10.283,0,0,1-10.282,10.282h-18.234a10.257,10.257,0,0,1-7.823-3.611v0a10.236,10.236,0,0,1-2.456-6.668v-23.786Z" transform="translate(-8337.879 -8264.421)" fill="#545454"/>
      <path id="패스_86283" data-name="패스 86283" d="M1027.847,1427.866v47.511a13.286,13.286,0,0,1-13.288,13.285H961.8a13.286,13.286,0,0,1-13.285-13.285v-47.511Z" transform="translate(-8287.501 -8126.592)" fill="#e4e8ef"/>
      <path id="패스_86284" data-name="패스 86284" d="M927.715,1391.4h88.775a1.744,1.744,0,0,1,1.744,1.744v6.972a1.744,1.744,0,0,1-1.744,1.744H927.715a1.745,1.745,0,0,1-1.745-1.744v-6.972a1.744,1.744,0,0,1,1.745-1.744" transform="translate(-8271.423 -8100.592)" fill="#d9dee5"/>
      <path id="패스_86285" data-name="패스 86285" d="M1011.672,1294.223h-13.52v-32.334a6.76,6.76,0,1,1,13.52,0Z" transform="translate(-8322.896 -8003.41)" fill="#efefef"/>
      <path id="패스_86286" data-name="패스 86286" d="M1141.8,1294.223h-13.52v-32.334a6.76,6.76,0,1,1,13.52,0Z" transform="translate(-8415.691 -8003.41)" fill="#efefef"/>
      <path id="패스_86287" data-name="패스 86287" d="M1027.847,1427.866v47.511a13.286,13.286,0,0,1-13.288,13.285H961.8a13.286,13.286,0,0,1-13.285-13.285c56.964-3.958,62.2-47.511,62.2-47.511Z" transform="translate(-8287.501 -8126.592)" fill="#e4e8ef"/>
      <rect id="사각형_153047" data-name="사각형 153047" width="79.329" height="3.831" transform="translate(-7338.983 -6698.727)" fill="#c1c8d1"/>
      <path id="패스_86288" data-name="패스 86288" d="M1099.951,1497.867v27.43a13.287,13.287,0,0,1-13.288,13.285h-37.035c37.4,0,50.323-40.715,50.323-40.715" transform="translate(-8359.605 -8176.512)" fill="#d9dee5"/>
      <rect id="사각형_153048" data-name="사각형 153048" width="38.794" height="2.483" transform="translate(-7318.716 -6637.932)" fill="#141e41"/>
      <rect id="사각형_153049" data-name="사각형 153049" width="13.52" height="4.733" transform="translate(-7324.745 -6713.921)" fill="#d9dee5"/>
      <rect id="사각형_153050" data-name="사각형 153050" width="13.52" height="4.733" transform="translate(-7287.414 -6713.921)" fill="#d9dee5"/>
      <path id="패스_86289" data-name="패스 86289" d="M1064.065,1639.792v18.434a10.283,10.283,0,0,1-10.282,10.282h-18.234a10.255,10.255,0,0,1-7.823-3.611v0c28.421,3.486,32.76-25.1,32.76-25.1Z" transform="translate(-8343.986 -8277.724)" fill="#202020"/>
      <path id="패스_86300" data-name="패스 86300" d="M1441.083,1301.64h24.563a3.381,3.381,0,1,1,0,6.762h-24.563a3.381,3.381,0,1,1,0-6.762" transform="translate(-8636.349 -8036.58)" fill="#ffb709"/>
      <path id="패스_86301" data-name="패스 86301" d="M1332.408,1410.314a3.381,3.381,0,0,1,3.382,3.381v24.563a3.381,3.381,0,1,1-6.763,0V1413.7a3.381,3.381,0,0,1,3.381-3.381" transform="translate(-8558.853 -8114.078)" fill="#ffb709"/>
      <path id="패스_86302" data-name="패스 86302" d="M1410.979,1380.21a3.371,3.371,0,0,1,2.391.99l16.874,16.873a3.381,3.381,0,0,1-4.782,4.782l-16.874-16.873a3.381,3.381,0,0,1,2.391-5.772" transform="translate(-8614.883 -8092.609)" fill="#ffb709"/>
      <path id="패스_86281" data-name="패스 86281" d="M317.74,1492.87V1641.29a46.581,46.581,0,0,1-46.525,46.528H-81.911c-19.074,0-25.655-11.937,0-11.937H271.215A34.63,34.63,0,0,0,305.8,1641.29V1492.87Z" transform="translate(-7611.089 -8102.086)" fill="#202020"/>
    </g>
  </g>
</svg>
