<svg id="그룹_167833" data-name="그룹 167833" xmlns="http://www.w3.org/2000/svg" xmlns:xlink="http://www.w3.org/1999/xlink" width="322" height="568" viewBox="0 0 322 568">
  <defs>
    <clipPath id="clip-path">
      <rect id="사각형_153200" data-name="사각형 153200" width="322" height="568" fill="#fff"/>
    </clipPath>
  </defs>
  <g id="마스크_그룹_10" data-name="마스크 그룹 10" clip-path="url(#clip-path)">
    <path id="패스_86303" data-name="패스 86303" d="M625.387,0V568H249.024c21.675-43.514,56.03-80.72,99.006-103.566,24.472-13.009,51.051-21.6,75.929-33.817s48.8-28.927,62.2-53.19,13.675-57.3-5.163-77.63c-18.288-19.736-48.207-22.651-75.1-21.678s-55.188,4.276-79.543-7.162C281.7,249.984,271.106,191.2,237.044,155.5c-23.618-24.751-57.279-36.971-90.211-46.242S79.747,92.579,50.6,74.664C23.986,58.3,1.862,30.668,0,0Z" transform="translate(-9.693)" fill="#ecf5ff"/>
    <g id="그룹_167594" data-name="그룹 167594" transform="translate(-0.424 -43.964)">
      <path id="패스_86304" data-name="패스 86304" d="M1227.935,0V4.775H1084.582a13.85,13.85,0,0,0-13.835,13.835V81.351h-4.776V18.61A18.632,18.632,0,0,1,1084.582,0Z" transform="translate(-905.136 23.964)" fill="#202020"/>
      <path id="패스_86305" data-name="패스 86305" d="M1034.681,556.989v-9.514a4.113,4.113,0,0,0-4.113-4.113h-7.294a4.1,4.1,0,0,0-3.129,1.445h0a4.1,4.1,0,0,0-.983,2.667v9.514Z" transform="translate(-863.699 -457.047)" fill="#545454"/>
      <path id="패스_86306" data-name="패스 86306" d="M980.249,667.78v-19a5.314,5.314,0,0,0-5.315-5.314h-21.1a5.314,5.314,0,0,0-5.314,5.314v19Z" transform="translate(-801.161 -545.661)" fill="#e4e8ef"/>
      <path id="패스_86307" data-name="패스 86307" d="M926.669,859.572h35.51a.7.7,0,0,0,.7-.7v-2.789a.7.7,0,0,0-.7-.7h-35.51a.7.7,0,0,0-.7.7v2.789a.7.7,0,0,0,.7.7" transform="translate(-781.202 -733.268)" fill="#d9dee5"/>
      <path id="패스_86308" data-name="패스 86308" d="M980.249,667.78v-19a5.314,5.314,0,0,0-5.315-5.314h-21.1a5.314,5.314,0,0,0-5.314,5.314c22.786,1.583,24.879,19,24.879,19Z" transform="translate(-801.161 -545.661)" fill="#e4e8ef"/>
      <rect id="사각형_153060" data-name="사각형 153060" width="31.731" height="1.532" transform="translate(147.357 120.587)" fill="#c1c8d1"/>
      <path id="패스_86309" data-name="패스 86309" d="M1069.757,659.748V648.776a5.315,5.315,0,0,0-5.315-5.314h-14.814c14.959,0,20.129,16.286,20.129,16.286" transform="translate(-890.669 -545.661)" fill="#d9dee5"/>
      <rect id="사각형_153061" data-name="사각형 153061" width="15.518" height="0.993" transform="translate(155.464 96.808)" fill="#141e41"/>
      <path id="패스_86310" data-name="패스 86310" d="M1042.262,554.848v-7.374a4.113,4.113,0,0,0-4.113-4.113h-7.294a4.1,4.1,0,0,0-3.129,1.445h0c11.368-1.394,13.1,10.041,13.1,10.041Z" transform="translate(-871.28 -457.047)" fill="#202020"/>
      <path id="패스_86311" data-name="패스 86311" d="M637.838,1015.595h-9.825a1.353,1.353,0,1,1,0-2.705h9.825a1.353,1.353,0,1,1,0,2.705" transform="translate(-516.236 -872.697)" fill="#ffb709"/>
      <path id="패스_86312" data-name="패스 86312" d="M822.309,831.122a1.352,1.352,0,0,1-1.352-1.353v-9.825a1.353,1.353,0,1,1,2.705,0v9.825a1.353,1.353,0,0,1-1.353,1.353" transform="translate(-688.237 -700.694)" fill="#ffb709"/>
      <path id="패스_86313" data-name="패스 86313" d="M691.669,884.955a1.349,1.349,0,0,1-.956-.4l-6.749-6.75a1.352,1.352,0,0,1,1.913-1.913l6.749,6.749a1.353,1.353,0,0,1-.956,2.309" transform="translate(-566.613 -751.073)" fill="#ffb709"/>
    </g>
    <g id="그룹_167595" data-name="그룹 167595" transform="translate(0.146 15.549)">
      <path id="패스_86314" data-name="패스 86314" d="M1034.681,1621.138v9.514a4.113,4.113,0,0,1-4.113,4.113h-7.294a4.1,4.1,0,0,1-3.129-1.445h0a4.1,4.1,0,0,1-.983-2.667v-9.514Z" transform="translate(-867.85 -1115.688)" fill="#545454"/>
      <path id="패스_86315" data-name="패스 86315" d="M980.249,1427.866v19a5.314,5.314,0,0,1-5.315,5.314h-21.1a5.314,5.314,0,0,1-5.314-5.314v-19Z" transform="translate(-805.312 -944.593)" fill="#e4e8ef"/>
      <path id="패스_86316" data-name="패스 86316" d="M926.669,1391.4h35.51a.7.7,0,0,1,.7.7v2.789a.7.7,0,0,1-.7.7h-35.51a.7.7,0,0,1-.7-.7V1392.1a.7.7,0,0,1,.7-.7" transform="translate(-785.352 -912.315)" fill="#d9dee5"/>
      <path id="패스_86317" data-name="패스 86317" d="M1003.56,1270.766h-5.408v-12.933a2.7,2.7,0,1,1,5.408,0Z" transform="translate(-849.25 -791.678)" fill="#efefef"/>
      <path id="패스_86318" data-name="패스 86318" d="M1133.685,1270.766h-5.408v-12.933a2.7,2.7,0,1,1,5.408,0Z" transform="translate(-964.443 -791.678)" fill="#efefef"/>
      <path id="패스_86319" data-name="패스 86319" d="M980.249,1427.866v19a5.314,5.314,0,0,1-5.315,5.314h-21.1a5.314,5.314,0,0,1-5.314-5.314c22.786-1.583,24.879-19,24.879-19Z" transform="translate(-805.312 -944.593)" fill="#e4e8ef"/>
      <rect id="사각형_153062" data-name="사각형 153062" width="31.731" height="1.532" transform="translate(143.207 483.273)" fill="#c1c8d1"/>
      <path id="패스_86320" data-name="패스 86320" d="M1069.757,1497.867v10.972a5.315,5.315,0,0,1-5.315,5.314h-14.814c14.959,0,20.129-16.286,20.129-16.286" transform="translate(-894.819 -1006.561)" fill="#d9dee5"/>
      <rect id="사각형_153063" data-name="사각형 153063" width="15.518" height="0.993" transform="translate(151.313 507.591)" fill="#141e41"/>
      <rect id="사각형_153064" data-name="사각형 153064" width="5.408" height="1.893" transform="translate(148.902 477.195)" fill="#d9dee5"/>
      <rect id="사각형_153065" data-name="사각형 153065" width="5.408" height="1.893" transform="translate(163.834 477.195)" fill="#d9dee5"/>
      <path id="패스_86321" data-name="패스 86321" d="M1042.262,1639.792v7.374a4.113,4.113,0,0,1-4.113,4.113h-7.294a4.1,4.1,0,0,1-3.129-1.445h0c11.368,1.394,13.1-10.041,13.1-10.041Z" transform="translate(-875.431 -1132.201)" fill="#202020"/>
      <path id="패스_86322" data-name="패스 86322" d="M1439.053,1301.64h9.825a1.352,1.352,0,1,1,0,2.7h-9.825a1.352,1.352,0,1,1,0-2.7" transform="translate(-1238.36 -832.853)" fill="#ffb709"/>
      <path id="패스_86323" data-name="패스 86323" d="M1330.379,1410.314a1.353,1.353,0,0,1,1.353,1.353v9.825a1.353,1.353,0,0,1-2.705,0v-9.825a1.352,1.352,0,0,1,1.352-1.353" transform="translate(-1142.157 -929.056)" fill="#ffb709"/>
      <path id="패스_86324" data-name="패스 86324" d="M1408.95,1380.21a1.348,1.348,0,0,1,.956.4l6.75,6.749a1.352,1.352,0,1,1-1.913,1.913l-6.75-6.749a1.352,1.352,0,0,1,.956-2.309" transform="translate(-1211.712 -902.406)" fill="#ffb709"/>
      <path id="패스_86325" data-name="패스 86325" d="M67.832,1492.87v59.368a18.633,18.633,0,0,1-18.61,18.611H-92.029c-7.63,0-10.262-4.775,0-4.775H49.221a13.852,13.852,0,0,0,13.834-13.837V1492.87Z" transform="translate(93.628 -973.793)" fill="#202020"/>
    </g>
  </g>
</svg>
