<svg xmlns="http://www.w3.org/2000/svg" xmlns:xlink="http://www.w3.org/1999/xlink" width="90" height="90" viewBox="0 0 90 90">
  <defs>
    <clipPath id="clip-path">
      <rect id="사각형_150650" data-name="사각형 150650" width="13.5" height="3.502" transform="translate(0 0)" fill="none"/>
    </clipPath>
  </defs>
  <g id="그룹_165363" data-name="그룹 165363" transform="translate(-1371 -1362)">
    <path id="패스_83418" data-name="패스 83418" d="M86.8,89.719H.75V4.107A3.16,3.16,0,0,1,3.667.75H89.719V86.362A3.162,3.162,0,0,1,86.8,89.719" transform="translate(1371.25 1362.281)" fill="#fff"/>
    <path id="패스_83419" data-name="패스 83419" d="M86.221,90H3.779A4.071,4.071,0,0,1,0,85.7V4.3A4.071,4.071,0,0,1,3.779,0H86.221A4.071,4.071,0,0,1,90,4.3V85.7A4.071,4.071,0,0,1,86.221,90M3.779,2.348A1.851,1.851,0,0,0,2.061,4.3V85.7a1.85,1.85,0,0,0,1.718,1.957H86.221A1.85,1.85,0,0,0,87.939,85.7V4.3a1.851,1.851,0,0,0-1.718-1.957Z" transform="translate(1371 1362)" fill="#2b5185"/>
    <path id="패스_83421" data-name="패스 83421" d="M68.581,57.588H6.75V13.62a6.869,6.869,0,0,0,6.87-6.87H68.581Z" transform="translate(1373.525 1364.525)" fill="#fff"/>
    <path id="패스_83422" data-name="패스 83422" d="M71.611,68.517H13.9a1.031,1.031,0,0,1-1.031-1.031,5.845,5.845,0,0,0-5.84-5.84A1.031,1.031,0,0,1,6,60.616V13.9A1.031,1.031,0,0,1,7.031,12.87a5.845,5.845,0,0,0,5.84-5.84A1.031,1.031,0,0,1,13.9,6h57.71a1.031,1.031,0,0,1,1.031,1.031,5.845,5.845,0,0,0,5.84,5.84A1.031,1.031,0,0,1,79.512,13.9V60.616a1.031,1.031,0,0,1-1.031,1.031,5.845,5.845,0,0,0-5.84,5.84,1.031,1.031,0,0,1-1.031,1.031M14.864,66.456H70.648a7.913,7.913,0,0,1,6.8-6.8V14.864a7.913,7.913,0,0,1-6.8-6.8H14.864a7.915,7.915,0,0,1-6.8,6.8V59.653a7.915,7.915,0,0,1,6.8,6.8" transform="translate(1373.244 1364.244)" fill="#2b5185"/>
    <path id="패스_83423" data-name="패스 83423" d="M45.267,35.059H26.031a1.031,1.031,0,1,1,0-2.061H45.267a1.031,1.031,0,0,1,0,2.061" transform="translate(1380.351 1374.342)" fill="#2b5185"/>
    <path id="패스_83424" data-name="패스 83424" d="M54.275,40.059H46.031a1.031,1.031,0,1,1,0-2.061h8.244a1.031,1.031,0,0,1,0,2.061" transform="translate(1387.831 1376.212)" fill="#2b5185"/>
    <path id="패스_83425" data-name="패스 83425" d="M45.77,40.059H32.032a1.031,1.031,0,1,1,0-2.061H45.77a1.031,1.031,0,0,1,0,2.061" transform="translate(1382.595 1376.212)" fill="#2b5185"/>
    <path id="패스_83426" data-name="패스 83426" d="M55.77,45.06H42.033a1.031,1.031,0,1,1,0-2.061H55.77a1.031,1.031,0,0,1,0,2.061" transform="translate(1386.336 1378.001)" fill="#2b5185"/>
    <path id="패스_83427" data-name="패스 83427" d="M32.893,40.059H15.031a1.031,1.031,0,1,1,0-2.061H32.893a1.031,1.031,0,0,1,0,2.061" transform="translate(1376.236 1376.212)" fill="#2b5185"/>
    <path id="패스_83435" data-name="패스 83435" d="M32.893,40.059H15.031a1.031,1.031,0,1,1,0-2.061H32.893a1.031,1.031,0,0,1,0,2.061" transform="translate(1384.236 1383.002)" fill="#2b5185"/>
    <path id="패스_83429" data-name="패스 83429" d="M65.963,23.721a55.538,55.538,0,0,1-52.212,0q2.56-1.624,4.919-3.474-.8-3.25-1.341-6.5a47.927,47.927,0,0,0,45.056,0q-.542,3.244-1.341,6.5,2.358,1.845,4.919,3.474" transform="translate(1376.143 1367.143)" fill="#fff"/>
    <path id="패스_83431" data-name="패스 83431" d="M40.137,31.524a57.33,57.33,0,0,1-26.583-6.609,1.031,1.031,0,0,1-.074-1.785c1.47-.933,2.92-1.944,4.313-3.009-.467-1.962-.868-3.949-1.2-5.919a1.031,1.031,0,0,1,1.492-1.084,47.091,47.091,0,0,0,44.1,0A1.031,1.031,0,0,1,63.681,14.2c-.331,1.979-.734,3.967-1.2,5.919,1.391,1.063,2.839,2.075,4.312,3.009a1.031,1.031,0,0,1-.074,1.785,57.33,57.33,0,0,1-26.583,6.609M16.09,23.883a54.607,54.607,0,0,0,48.094,0c-1.194-.808-2.365-1.66-3.5-2.545a1.034,1.034,0,0,1-.365-1.057c.359-1.456.682-2.935.966-4.416a49.021,49.021,0,0,1-42.3,0c.284,1.476.607,2.954.967,4.416a1.032,1.032,0,0,1-.367,1.057c-1.132.886-2.3,1.738-3.5,2.545" transform="translate(1375.862 1366.863)" fill="#2b5185"/>
    <path id="패스_83432" data-name="패스 83432" d="M38.747,13.161h0A3.157,3.157,0,0,0,42,14.509a3.159,3.159,0,0,1,3.721,3.721,3.161,3.161,0,0,0,1.349,3.256,3.158,3.158,0,0,1,0,5.261A3.157,3.157,0,0,0,45.723,30,3.159,3.159,0,0,1,42,33.723a3.157,3.157,0,0,0-3.255,1.348,3.158,3.158,0,0,1-5.261,0,3.159,3.159,0,0,0-3.255-1.348A3.158,3.158,0,0,1,26.51,30a3.157,3.157,0,0,0-1.349-3.255,3.158,3.158,0,0,1,0-5.261A3.161,3.161,0,0,0,26.51,18.23a3.158,3.158,0,0,1,3.721-3.721,3.159,3.159,0,0,0,3.255-1.348,3.158,3.158,0,0,1,5.261,0" transform="translate(1379.883 1366.395)" fill="#fff"/>
    <path id="패스_83434" data-name="패스 83434" d="M36.4,37.793a4.181,4.181,0,0,1-3.49-1.871,2.119,2.119,0,0,0-2.194-.908,4.188,4.188,0,0,1-4.933-4.935,2.118,2.118,0,0,0-.908-2.192,4.189,4.189,0,0,1,0-6.979,2.122,2.122,0,0,0,.908-2.193,4.188,4.188,0,0,1,4.933-4.935,2.129,2.129,0,0,0,2.194-.908,4.189,4.189,0,0,1,6.979,0,2.126,2.126,0,0,0,2.193.908,4.19,4.19,0,0,1,4.935,4.935,2.122,2.122,0,0,0,.908,2.193,4.189,4.189,0,0,1,0,6.979,2.118,2.118,0,0,0-.908,2.192,4.19,4.19,0,0,1-4.935,4.935,2.118,2.118,0,0,0-2.193.908A4.177,4.177,0,0,1,36.4,37.793M31.142,32.91a4.175,4.175,0,0,1,3.483,1.871,2.186,2.186,0,0,0,3.544,0,4.173,4.173,0,0,1,4.319-1.788,2.128,2.128,0,0,0,2.506-2.508,4.175,4.175,0,0,1,1.789-4.317,2.126,2.126,0,0,0,0-3.544,4.176,4.176,0,0,1-1.789-4.319A2.128,2.128,0,0,0,42.487,15.8a4.184,4.184,0,0,1-4.319-1.789,2.186,2.186,0,0,0-3.544,0A4.164,4.164,0,0,1,30.307,15.8,2.128,2.128,0,0,0,27.8,18.307a4.175,4.175,0,0,1-1.788,4.319,2.126,2.126,0,0,0,0,3.544A4.174,4.174,0,0,1,27.8,30.486a2.128,2.128,0,0,0,2.506,2.508,4.223,4.223,0,0,1,.835-.084" transform="translate(1379.603 1366.114)" fill="#2b5185"/>
    <rect id="사각형_150649" data-name="사각형 150649" width="90" height="90" transform="translate(1371 1362)" fill="none"/>
    <g id="그룹_165362" data-name="그룹 165362" transform="translate(1384.736 1439.889)">
      <g id="그룹_165361" data-name="그룹 165361" transform="translate(25.264)" clip-path="url(#clip-path)">
        <path id="패스_83437" data-name="패스 83437" d="M3.436,3.5A4.708,4.708,0,0,1,.255,2.349a.75.75,0,0,1,.989-1.127c1.391,1.219,3.576.837,5.123-.082,2.611-1.548,5.053-1.519,6.877.082a.75.75,0,0,1-.989,1.127C10.921,1.18,9.2,1.205,7.132,2.431A7.493,7.493,0,0,1,3.436,3.5" fill="#2b5185"/>
      </g>
    </g>
  </g>
</svg>
