<svg xmlns="http://www.w3.org/2000/svg" width="80" height="80" viewBox="0 0 80 80">
  <g id="그룹_168277" data-name="그룹 168277" transform="translate(-680 -298)">
    <circle id="타원_9494" data-name="타원 9494" cx="40" cy="40" r="40" transform="translate(680 298)" fill="#fff"/>
    <g id="그룹_167775" data-name="그룹 167775" transform="translate(-3 -1)">
      <g id="그룹_165377" data-name="그룹 165377" transform="translate(698 314)">
        <path id="패스_83199" data-name="패스 83199" d="M31.666,1l-7.3,7.332V48.857H60.081V1Z" transform="translate(-24.366 -1)" fill="#fff" stroke="#194da1" stroke-linecap="round" stroke-linejoin="round" stroke-width="1.5"/>
        <path id="패스_83201" data-name="패스 83201" d="M31.509,8.143H24.366L31.509,1Z" transform="translate(-24.366 -1)" fill="#fff" stroke="#194da1" stroke-linecap="round" stroke-linejoin="round" stroke-width="1.5"/>
        <line id="선_574" data-name="선 574" x2="20" transform="translate(8 13)" fill="none" stroke="#194da1" stroke-linecap="round" stroke-linejoin="round" stroke-width="1.5"/>
        <line id="선_575" data-name="선 575" x2="20" transform="translate(8 19)" fill="none" stroke="#194da1" stroke-linecap="round" stroke-linejoin="round" stroke-width="1.5"/>
        <line id="선_576" data-name="선 576" x2="17" transform="translate(8 25)" fill="none" stroke="#194da1" stroke-linecap="round" stroke-linejoin="round" stroke-width="1.5"/>
        <line id="선_3507" data-name="선 3507" x2="17" transform="translate(8 32)" fill="none" stroke="#194da1" stroke-linecap="round" stroke-linejoin="round" stroke-width="1.5"/>
        <line id="선_3508" data-name="선 3508" x2="17" transform="translate(8 39)" fill="none" stroke="#194da1" stroke-linecap="round" stroke-linejoin="round" stroke-width="1.5"/>
      </g>
      <g id="그룹_167761" data-name="그룹 167761" transform="translate(483 -1)">
        <path id="사각형_150529" data-name="사각형 150529" d="M0,0H18a0,0,0,0,1,0,0V3a1,1,0,0,1-1,1H1A1,1,0,0,1,0,3V0A0,0,0,0,1,0,0Z" transform="translate(247 359)" fill="#fff" stroke="#194da1" stroke-linecap="round" stroke-linejoin="round" stroke-width="1.5"/>
        <rect id="사각형_150532" data-name="사각형 150532" width="18" height="4" transform="translate(247 355)" fill="#fff" stroke="#194da1" stroke-linecap="round" stroke-linejoin="round" stroke-width="1.5"/>
        <rect id="사각형_150535" data-name="사각형 150535" width="18" height="4" transform="translate(247 351)" fill="#fff" stroke="#194da1" stroke-linecap="round" stroke-linejoin="round" stroke-width="1.5"/>
        <rect id="사각형_150538" data-name="사각형 150538" width="18" height="4" transform="translate(247 347)" fill="#fff" stroke="#194da1" stroke-linecap="round" stroke-linejoin="round" stroke-width="1.5"/>
        <rect id="사각형_150553" data-name="사각형 150553" width="18" height="4" transform="translate(247 343)" fill="#fff" stroke="#194da1" stroke-linecap="round" stroke-linejoin="round" stroke-width="1.5"/>
        <rect id="사각형_150556" data-name="사각형 150556" width="18" height="4" transform="translate(247 339)" fill="#fff" stroke="#194da1" stroke-linecap="round" stroke-linejoin="round" stroke-width="1.5"/>
        <path id="사각형_150559" data-name="사각형 150559" d="M1,0H17a1,1,0,0,1,1,1V4a0,0,0,0,1,0,0H0A0,0,0,0,1,0,4V1A1,1,0,0,1,1,0Z" transform="translate(247 335)" fill="#fff" stroke="#194da1" stroke-linecap="round" stroke-linejoin="round" stroke-width="1.5"/>
      </g>
      <g id="그룹_167762" data-name="그룹 167762" transform="translate(483 -1)">
        <path id="사각형_150541" data-name="사각형 150541" d="M0,0H17.857a0,0,0,0,1,0,0V3a1,1,0,0,1-1,1H1A1,1,0,0,1,0,3V0A0,0,0,0,1,0,0Z" transform="translate(235.871 361)" fill="#fff" stroke="#194da1" stroke-linecap="round" stroke-linejoin="round" stroke-width="1.5"/>
        <rect id="사각형_150544" data-name="사각형 150544" width="17.857" height="4" transform="translate(235.871 357)" fill="#fff" stroke="#194da1" stroke-linecap="round" stroke-linejoin="round" stroke-width="1.5"/>
        <rect id="사각형_150547" data-name="사각형 150547" width="17.857" height="4" transform="translate(235.871 353)" fill="#fff" stroke="#194da1" stroke-linecap="round" stroke-linejoin="round" stroke-width="1.5"/>
        <path id="사각형_150550" data-name="사각형 150550" d="M1,0H16.857a1,1,0,0,1,1,1V4a0,0,0,0,1,0,0H0A0,0,0,0,1,0,4V1A1,1,0,0,1,1,0Z" transform="translate(235.871 349)" fill="#fff" stroke="#194da1" stroke-linecap="round" stroke-linejoin="round" stroke-width="1.5"/>
      </g>
    </g>
  </g>
</svg>
