<svg xmlns="http://www.w3.org/2000/svg" width="80" height="80" viewBox="0 0 80 80">
  <g id="그룹_167288" data-name="그룹 167288" transform="translate(-920 -298)">
    <circle id="타원_9495" data-name="타원 9495" cx="40" cy="40" r="40" transform="translate(920 298)" fill="#fff"/>
    <g id="그룹_165625" data-name="그룹 165625" transform="translate(701 -53)">
      <g id="그룹_165624" data-name="그룹 165624">
        <g id="그룹_165623" data-name="그룹 165623">
          <g id="사각형_150589" data-name="사각형 150589" transform="translate(234 366)" fill="#fff" stroke="#194da1" stroke-width="1.5">
            <rect width="40" height="50" stroke="none"/>
            <rect x="0.75" y="0.75" width="38.5" height="48.5" fill="none"/>
          </g>
          <g id="그룹_165622" data-name="그룹 165622">
            <line id="선_574" data-name="선 574" x2="14" transform="translate(252 378)" fill="none" stroke="#194da1" stroke-linecap="round" stroke-linejoin="round" stroke-width="1.5"/>
            <line id="선_575" data-name="선 575" x2="14" transform="translate(252 387)" fill="none" stroke="#194da1" stroke-linecap="round" stroke-linejoin="round" stroke-width="1.5"/>
            <line id="선_3522" data-name="선 3522" x2="14" transform="translate(252 396)" fill="none" stroke="#194da1" stroke-linecap="round" stroke-linejoin="round" stroke-width="1.5"/>
            <line id="선_3523" data-name="선 3523" x2="14" transform="translate(252 405)" fill="none" stroke="#194da1" stroke-linecap="round" stroke-linejoin="round" stroke-width="1.5"/>
            <g id="사각형_150641" data-name="사각형 150641" transform="translate(242 375)" fill="#fff" stroke="#194da1" stroke-width="1.5">
              <rect width="6" height="6" stroke="none"/>
              <rect x="0.75" y="0.75" width="4.5" height="4.5" fill="none"/>
            </g>
            <g id="사각형_150642" data-name="사각형 150642" transform="translate(242 384)" fill="#fff" stroke="#194da1" stroke-width="1.5">
              <rect width="6" height="6" stroke="none"/>
              <rect x="0.75" y="0.75" width="4.5" height="4.5" fill="none"/>
            </g>
            <g id="사각형_150643" data-name="사각형 150643" transform="translate(242 393)" fill="#fff" stroke="#194da1" stroke-width="1.5">
              <rect width="6" height="6" stroke="none"/>
              <rect x="0.75" y="0.75" width="4.5" height="4.5" fill="none"/>
            </g>
            <g id="사각형_150644" data-name="사각형 150644" transform="translate(242 402)" fill="#fff" stroke="#194da1" stroke-width="1.5">
              <rect width="6" height="6" stroke="none"/>
              <rect x="0.75" y="0.75" width="4.5" height="4.5" fill="none"/>
            </g>
          </g>
        </g>
        <path id="패스_84528" data-name="패스 84528" d="M.5.761V36.037a.972.972,0,0,0,.08.391L2.327,40.37a.18.18,0,0,0,.346,0L4.42,36.428a.972.972,0,0,0,.08-.391V.761A.237.237,0,0,0,4.3.5H.7A.237.237,0,0,0,.5.761Z" transform="translate(279.844 370.665) rotate(17)" fill="#fff" stroke="#194da1" stroke-miterlimit="10" stroke-width="1.5"/>
      </g>
    </g>
  </g>
</svg>
