<svg xmlns="http://www.w3.org/2000/svg" xmlns:xlink="http://www.w3.org/1999/xlink" width="205" height="22" viewBox="0 0 205 22">
  <defs>
    <clipPath id="clip-path">
      <rect id="사각형_150516" data-name="사각형 150516" width="205" height="22" transform="translate(0 -0.143)" fill="none"/>
    </clipPath>
  </defs>
  <g id="그룹_165278" data-name="그룹 165278" transform="translate(0 0.143)">
    <path id="패스_83197" data-name="패스 83197" d="M0,1V21.76H4.047V15.924L6.7,12.445l5.224,9.32H16.38L9.106,9.166,15.285,1H10.828l-6.7,9.006H4.047V1Z" transform="translate(0 -0.452)" fill="#0a2b63"/>
    <g id="그룹_165277" data-name="그룹 165277" transform="translate(0 0)">
      <g id="그룹_165276" data-name="그룹 165276" transform="translate(0 0)" clip-path="url(#clip-path)">
        <path id="패스_83198" data-name="패스 83198" d="M34.331,21.045a10.354,10.354,0,0,1-3.4-2.248l2.324-2.868A9.152,9.152,0,0,0,35.7,17.6a6.316,6.316,0,0,0,2.694.632,3.823,3.823,0,0,0,2.4-.646,2.1,2.1,0,0,0,.82-1.743,2,2,0,0,0-.219-.984,2.325,2.325,0,0,0-.615-.7,4.756,4.756,0,0,0-.957-.562q-.561-.252-1.244-.562l-2.708-1.18a8.418,8.418,0,0,1-1.982-1.18,6.034,6.034,0,0,1-1.518-1.813,5.276,5.276,0,0,1-.6-2.6,5.545,5.545,0,0,1,.519-2.375A5.662,5.662,0,0,1,33.74,1.973,6.97,6.97,0,0,1,35.956.707,8.221,8.221,0,0,1,38.772.244a8.915,8.915,0,0,1,3.459.689,8.384,8.384,0,0,1,2.885,1.981L43.068,5.531a8,8,0,0,0-2-1.264,5.734,5.734,0,0,0-2.295-.45,3.558,3.558,0,0,0-2.131.576,1.884,1.884,0,0,0-.793,1.616,1.644,1.644,0,0,0,.26.929,2.74,2.74,0,0,0,.684.7,6,6,0,0,0,1,.576q.576.267,1.231.52l2.647,1.148a7.706,7.706,0,0,1,2.981,2.08,5.359,5.359,0,0,1,1.093,3.57,5.948,5.948,0,0,1-.507,2.417,5.8,5.8,0,0,1-1.463,2.01,7.141,7.141,0,0,1-2.339,1.366,9.041,9.041,0,0,1-3.13.506,10.438,10.438,0,0,1-3.976-.789" transform="translate(-14.028 -0.11)" fill="#0a2b63"/>
        <path id="패스_83199" data-name="패스 83199" d="M63.955,21.764h-4.1L66.333,1h4.758L77.6,21.764H73.358l-1.421-5.329H65.376Zm5.619-14.2q-.424-1.738-.888-3.423h-.109q-.383,1.712-.82,3.437t-.9,3.353l-.6,2.273h4.808l-.6-2.273Q70,9.307,69.574,7.566" transform="translate(-27.149 -0.454)" fill="#0a2b63"/>
        <path id="패스_83200" data-name="패스 83200" d="M95.058,14.408V11.989h8.424V10.65H97.562V1.4h15.258v2.35H100.714V4.873h11.6V7.128h-11.6V8.3H112.99v2.35h-6.331V11.99h8.447v2.419Zm15.753,1.858a2.787,2.787,0,0,1,0,5.309,14.356,14.356,0,0,1-5.765.892,14.279,14.279,0,0,1-5.741-.892,2.787,2.787,0,0,1,0-5.309,14.273,14.273,0,0,1,5.741-.892,14.34,14.34,0,0,1,5.765.89Zm-2.35,3.641q1.083-.3,1.083-.986t-1.083-.974a14.237,14.237,0,0,0-3.417-.295,14.088,14.088,0,0,0-3.406.295q-1.07.293-1.071.974t1.071.986a13.586,13.586,0,0,0,3.406.305,13.752,13.752,0,0,0,3.42-.308Z" transform="translate(-43.118 -0.633)" fill="#131618"/>
        <path id="패스_83201" data-name="패스 83201" d="M135.581,2.069h4.934V0h3.2V2.069h4.959l-.024,2.422H135.581Zm11.589,8.394a3.659,3.659,0,0,1-1.12,1.211,5.639,5.639,0,0,1-1.721.788,8.718,8.718,0,0,1-4.4,0,5.639,5.639,0,0,1-1.721-.788,3.659,3.659,0,0,1-1.12-1.211,3.1,3.1,0,0,1-.4-1.552,3.159,3.159,0,0,1,.4-1.576,3.667,3.667,0,0,1,1.12-1.21,5.47,5.47,0,0,1,1.721-.777,9.128,9.128,0,0,1,4.4,0,5.469,5.469,0,0,1,1.721.777,3.667,3.667,0,0,1,1.12,1.21,3.153,3.153,0,0,1,.4,1.576,3.108,3.108,0,0,1-.4,1.552Zm5.885,11.123H138.638V13.663h3.153v1.644H149.9V13.662h3.153Zm-12.672-11.5a4.006,4.006,0,0,0,3.49,0,1.376,1.376,0,0,0,0-2.35,4.006,4.006,0,0,0-3.49,0,1.376,1.376,0,0,0,0,2.35m1.409,9.076H149.9V17.656h-8.113Zm11.264-6.325h-3.177V.164h3.177v5.2h2.936V7.9h-2.936Z" transform="translate(-61.499 0)" fill="#131618"/>
        <path id="패스_83202" data-name="패스 83202" d="M188.029,9.406a5.127,5.127,0,0,1-1.275,1.739,6.024,6.024,0,0,1-1.912,1.14,6.693,6.693,0,0,1-2.37.411,6.789,6.789,0,0,1-2.383-.411,5.827,5.827,0,0,1-1.912-1.14A5.35,5.35,0,0,1,176.9,9.406a5.107,5.107,0,0,1-.469-2.186,5.176,5.176,0,0,1,.469-2.209,5.363,5.363,0,0,1,1.276-1.739,5.833,5.833,0,0,1,1.912-1.139,6.789,6.789,0,0,1,2.383-.411,6.693,6.693,0,0,1,2.37.411,6.021,6.021,0,0,1,1.912,1.139,5.152,5.152,0,0,1,1.275,1.739,5.291,5.291,0,0,1,.458,2.209,5.221,5.221,0,0,1-.458,2.186m-7.641-.117a3.1,3.1,0,0,0,2.082.728,3.038,3.038,0,0,0,2.081-.728,2.6,2.6,0,0,0,.831-2.068,2.642,2.642,0,0,0-.831-2.08,3.011,3.011,0,0,0-2.081-.74,3.07,3.07,0,0,0-2.082.74,2.606,2.606,0,0,0-.855,2.08,2.567,2.567,0,0,0,.854,2.068ZM179.774,21.6V14.364h3.178v4.77h12.13V21.6ZM191.324.361h3.2v15.53h-3.2Z" transform="translate(-80.028 -0.164)" fill="#131618"/>
        <path id="패스_83203" data-name="패스 83203" d="M216.228,11.215h20.024v2.441H216.228Zm3.635-3.7a10.1,10.1,0,0,0,2.046-.751,5.081,5.081,0,0,0,1.347-.961,3.005,3.005,0,0,0,.7-1.093h-5.9V2.252h16.392V4.716h-5.922a3,3,0,0,0,.7,1.093,5.057,5.057,0,0,0,1.347.961,10.1,10.1,0,0,0,2.046.751,16.937,16.937,0,0,0,2.792.457L234.3,10.393a13.566,13.566,0,0,1-5.235-1.338,6.8,6.8,0,0,1-2.828-2.6,6.979,6.979,0,0,1-2.852,2.6,13.563,13.563,0,0,1-5.235,1.338l-1.059-2.417a16.958,16.958,0,0,0,2.769-.457Zm9.554,7.579a8.859,8.859,0,0,1,2.419.786,4.194,4.194,0,0,1,1.53,1.257,2.849,2.849,0,0,1,.53,1.7,2.9,2.9,0,0,1-.53,1.712,4.154,4.154,0,0,1-1.53,1.267,8.9,8.9,0,0,1-2.419.786,19.377,19.377,0,0,1-6.448,0,8.726,8.726,0,0,1-2.407-.786,4.18,4.18,0,0,1-1.516-1.267,2.9,2.9,0,0,1-.53-1.712,2.849,2.849,0,0,1,.53-1.7,4.216,4.216,0,0,1,1.516-1.257,8.69,8.69,0,0,1,2.407-.786,19.406,19.406,0,0,1,6.448,0m1.252,3.742q0-.845-1.108-1.232a14.818,14.818,0,0,0-6.738,0q-1.108.387-1.108,1.232,0,1.642,4.477,1.642t4.477-1.642Z" transform="translate(-98.08 -1.022)" fill="#131618"/>
        <path id="패스_83204" data-name="패스 83204" d="M256.6,9.916h20.025v2.442H256.6Zm1.758-8.476h16.486v2.3h-2.815V6.51h2.645v2.3H258.5V6.51h2.671V3.74h-2.813Zm16.415,20.873H258.914V16.842H271.07V15.785H258.889V13.554H274.2v5.355h-12.13v1.174h12.708ZM264.33,6.512h4.548V3.742H264.33Z" transform="translate(-116.394 -0.653)" fill="#131618"/>
        <path id="패스_83205" data-name="패스 83205" d="M306.092,12.67q-.891.106-1.841.164t-2,.082q-1.047.024-2.274.024h-1.541V6.191h5.318V4.239h-5.343V1.817h8.4V8.448H301.5V10.5q1.756-.022,3.2-.142a27.983,27.983,0,0,0,2.937-.4l.288,2.421q-.943.188-1.83.293m4.742,3.315a4.919,4.919,0,0,0,1.3,1.54,8.357,8.357,0,0,0,2.189,1.235,12.332,12.332,0,0,0,3.129.741L316.2,21.9a13.007,13.007,0,0,1-4.535-1.4,8.075,8.075,0,0,1-2.852-2.528,8.3,8.3,0,0,1-2.876,2.528,13.007,13.007,0,0,1-4.535,1.4l-1.227-2.4a12.285,12.285,0,0,0,3.1-.741,8.562,8.562,0,0,0,2.2-1.235,4.872,4.872,0,0,0,1.311-1.54,3.566,3.566,0,0,0,.433-1.657V13.95H310.4v.377a3.571,3.571,0,0,0,.431,1.657M308.691.689h2.96V5.556h1.781V.311h3.009V14.867h-3.009V8.026h-1.781v5.055h-2.96Z" transform="translate(-135.359 -0.141)" fill="#131618"/>
        <path id="패스_83206" data-name="패스 83206" d="M337.353,13.763V11.322h8.4V9.632h-6.5V7.167h2.671V3.905h-2.815V1.44H355.6V3.9H352.78V7.167H355.4V9.632H348.93v1.69h8.447v2.441ZM355,22.214h-15.31V15.172h15.308Zm-3.129-4.6H342.8V19.8h9.07Zm-2.24-13.708h-4.548V7.168h4.553Z" transform="translate(-153.022 -0.653)" fill="#131618"/>
      </g>
    </g>
  </g>
</svg>
