<svg xmlns="http://www.w3.org/2000/svg" width="60" height="60" viewBox="0 0 60 60">
  <g id="그룹_168283" data-name="그룹 168283" transform="translate(-230 -279)">
    <circle id="타원_9532" data-name="타원 9532" cx="30" cy="30" r="30" transform="translate(230 279)" fill="#fff"/>
    <g id="그룹_168273" data-name="그룹 168273" transform="translate(-700 66)">
      <g id="그룹_165515" data-name="그룹 165515" transform="translate(945 230.4)">
        <ellipse id="타원_9490" data-name="타원 9490" cx="6.306" cy="6.306" rx="6.306" ry="6.306" transform="translate(4.204)" fill="#fff" stroke="#194da1" stroke-linecap="round" stroke-linejoin="round" stroke-width="1"/>
        <path id="패스_83220" data-name="패스 83220" d="M24,41.1V36.759a10.5,10.5,0,0,0-21,0V41.1Z" transform="translate(-3 -13.496)" fill="#fff" stroke="#194da1" stroke-linecap="round" stroke-linejoin="round" stroke-width="1"/>
      </g>
      <g id="그룹_165618" data-name="그룹 165618" transform="translate(963.8 228)">
        <g id="패스_84525" data-name="패스 84525" transform="translate(-8.49 -1)" fill="#fff" stroke-linecap="round" stroke-linejoin="round">
          <path d="M 14.08969116210938 11.69986152648926 C 11.27771186828613 11.69986152648926 8.990001678466797 9.412151336669922 8.990001678466797 6.600171089172363 C 8.990001678466797 3.787931203842163 11.27771186828613 1.500001192092896 14.08969116210938 1.500001192092896 C 16.90193176269531 1.500001192092896 19.18986129760742 3.787931203842163 19.18986129760742 6.600171089172363 C 19.18986129760742 9.412151336669922 16.90193176269531 11.69986152648926 14.08969116210938 11.69986152648926 Z" stroke="none"/>
          <path d="M 14.08969116210938 11.19986152648926 C 16.6262321472168 11.19986152648926 18.68986129760742 9.13645076751709 18.68986129760742 6.600171089172363 C 18.68986129760742 4.063631057739258 16.6262321472168 2.000001192092896 14.08969116210938 2.000001192092896 C 11.55341148376465 2.000001192092896 9.490001678466797 4.063631057739258 9.490001678466797 6.600171089172363 C 9.490001678466797 9.13645076751709 11.55341148376465 11.19986152648926 14.08969116210938 11.19986152648926 M 14.08969116210938 12.19986152648926 C 11.00166130065918 12.19986152648926 8.490001678466797 9.688200950622559 8.490001678466797 6.600171089172363 C 8.490001678466797 3.512401342391968 11.00166130065918 1.000001192092896 14.08969116210938 1.000001192092896 C 17.17771148681641 1.000001192092896 19.68986129760742 3.512401342391968 19.68986129760742 6.600171089172363 C 19.68986129760742 9.688200950622559 17.17771148681641 12.19986152648926 14.08969116210938 12.19986152648926 Z" stroke="none" fill="#194da1"/>
        </g>
        <path id="패스_84526" data-name="패스 84526" d="M-12781.144-6274.856v4.2l3.485-1.682,3.515,1.682v-4.2" transform="translate(12783.243 6284.656)" fill="none" stroke="#194da1" stroke-linecap="square" stroke-linejoin="round" stroke-width="1"/>
      </g>
      <g id="check" transform="translate(967.11 231.967)">
        <path id="check-2" data-name="check" d="M8.58,6,5.431,9.054,4,7.666" transform="translate(-4 -6)" fill="none" stroke="#194da1" stroke-linecap="round" stroke-linejoin="round" stroke-width="1"/>
      </g>
    </g>
  </g>
</svg>
