<svg xmlns="http://www.w3.org/2000/svg" width="60" height="60" viewBox="0 0 60 60">
  <g id="그룹_168285" data-name="그룹 168285" transform="translate(-130 -385)">
    <circle id="타원_9531" data-name="타원 9531" cx="30" cy="30" r="30" transform="translate(130 385)" fill="#fff"/>
    <g id="그룹_168275" data-name="그룹 168275" transform="translate(-1271 67)">
      <path id="합치기_2" data-name="합치기 2" d="M6.6,30v-.041C1.57,30.127,0,26.588,0,26.588V19.5H6.6V0H30V30Z" transform="translate(1415 333)" fill="#fff"/>
      <g id="그룹_165633" data-name="그룹 165633" transform="translate(1415 333)">
        <path id="패스_84530" data-name="패스 84530" d="M8.573,41.457v5.892s-.536,5.06-5.023,3.108" transform="translate(-2.145 -22.19)" fill="none" stroke="#194da1" stroke-linecap="round" stroke-linejoin="round" stroke-width="1"/>
        <line id="선_3554" data-name="선 3554" x2="13.024" transform="translate(11.248 21.016)" fill="none" stroke="#194da1" stroke-linecap="round" stroke-linejoin="round" stroke-width="1"/>
        <line id="선_3555" data-name="선 3555" x2="13.024" transform="translate(11.248 25.16)" fill="none" stroke="#194da1" stroke-linecap="round" stroke-linejoin="round" stroke-width="1"/>
        <path id="패스_84531" data-name="패스 84531" d="M30.6,35.7H6.938C3.672,35.7,1,34.393,1,31.334v-6.01H7.431V6.1H30.6Z" transform="translate(-1 -6.1)" fill="none" stroke="#194da1" stroke-linecap="round" stroke-linejoin="round" stroke-width="1"/>
        <g id="그룹_165632" data-name="그룹 165632" transform="translate(13.32 3.811)">
          <path id="패스_84533" data-name="패스 84533" d="M6.032,1S4.808,3.727,1,3.139V9.321c.1.359-.34,3.264,5.032,4.7,5.372-1.439,4.933-4.344,5.032-4.7V3.139C7.255,3.727,6.032,1,6.032,1Z" transform="translate(-1 -1)" fill="#fff" stroke="#194da1" stroke-linecap="round" stroke-linejoin="round" stroke-width="1"/>
          <path id="패스_84532" data-name="패스 84532" d="M15.67,28.288l1.722,1.722h0l2.633-2.633" transform="translate(-12.816 -21.717)" fill="none" stroke="#194da1" stroke-linecap="round" stroke-linejoin="round" stroke-width="1"/>
        </g>
      </g>
    </g>
  </g>
</svg>
