<svg xmlns="http://www.w3.org/2000/svg" width="60" height="60" viewBox="0 0 60 60">
  <g id="그룹_168288" data-name="그룹 168288" transform="translate(-205 -385)">
    <circle id="타원_9570" data-name="타원 9570" cx="30" cy="30" r="30" transform="translate(205 385)" fill="#fff"/>
    <g id="그룹_167827" data-name="그룹 167827" transform="translate(1023.333 21098)">
      <rect id="사각형_151250" data-name="사각형 151250" width="30" height="20" rx="3" transform="translate(-803.334 -20693)" fill="#fff" stroke="#194da1" stroke-linecap="round" stroke-linejoin="round" stroke-width="1"/>
      <path id="패스_85942" data-name="패스 85942" d="M47.154,28.46,35.487,37.21,23.82,28.46" transform="translate(-823.903 -20718.963)" fill="none" stroke="#194da1" stroke-linecap="round" stroke-linejoin="round" stroke-width="1"/>
      <g id="그룹_165618" data-name="그룹 165618" transform="translate(-793.083 -20687.617)">
        <g id="패스_84525" data-name="패스 84525" transform="translate(-8.49 -1)" fill="#fff" stroke-linecap="round" stroke-linejoin="round">
          <path d="M 13.15646553039551 9.833334922790527 C 10.85906600952148 9.833334922790527 8.989995956420898 7.964264869689941 8.989995956420898 5.66686487197876 C 8.989995956420898 3.369255065917969 10.85906600952148 1.500005125999451 13.15646553039551 1.500005125999451 C 15.45408535003662 1.500005125999451 17.32333564758301 3.369255065917969 17.32333564758301 5.66686487197876 C 17.32333564758301 7.964264869689941 15.45408535003662 9.833334922790527 13.15646553039551 9.833334922790527 Z" stroke="none"/>
          <path d="M 13.15646553039551 9.333334922790527 C 15.17838573455811 9.333334922790527 16.82333564758301 7.688565254211426 16.82333564758301 5.66686487197876 C 16.82333564758301 3.644955158233643 15.17838573455811 2.000005006790161 13.15646553039551 2.000005006790161 C 11.134765625 2.000005006790161 9.489995956420898 3.644955158233643 9.489995956420898 5.66686487197876 C 9.489995956420898 7.688565254211426 11.134765625 9.333334922790527 13.15646553039551 9.333334922790527 M 13.15646553039551 10.33333492279053 C 10.58307552337646 10.33333492279053 8.489995956420898 8.240255355834961 8.489995956420898 5.66686487197876 C 8.489995956420898 3.093685150146484 10.58307552337646 1.000005125999451 13.15646553039551 1.000005125999451 C 15.72984600067139 1.000005125999451 17.82333564758301 3.093685150146484 17.82333564758301 5.66686487197876 C 17.82333564758301 8.240255355834961 15.72984600067139 10.33333492279053 13.15646553039551 10.33333492279053 Z" stroke="none" fill="#194da1"/>
        </g>
        <path id="패스_84526" data-name="패스 84526" d="M-12781.145-6274.856v3.5l2.906-1.4,2.928,1.4v-3.5" transform="translate(12782.895 6283.023)" fill="none" stroke="#194da1" stroke-linecap="square" stroke-linejoin="round" stroke-width="1"/>
      </g>
      <path id="check" d="M7.75,6,5.172,8.5,4,7.364" transform="translate(-794.154 -20690.092)" fill="none" stroke="#194da1" stroke-linecap="round" stroke-linejoin="round" stroke-width="1"/>
    </g>
  </g>
</svg>
