<svg xmlns="http://www.w3.org/2000/svg" width="60" height="60" viewBox="0 0 60 60">
  <g id="그룹_168287" data-name="그룹 168287" transform="translate(-55 -385)">
    <circle id="타원_9493" data-name="타원 9493" cx="30" cy="30" r="30" transform="translate(55 385)" fill="#fff"/>
    <g id="그룹_166630" data-name="그룹 166630" transform="translate(1173 21101)">
      <g id="사각형_150589" data-name="사각형 150589" transform="translate(-1103 -20701)" fill="#fff" stroke="#194da1" stroke-width="1">
        <rect width="24" height="30" stroke="none"/>
        <rect x="0.5" y="0.5" width="23" height="29" fill="none"/>
      </g>
      <path id="패스_84528" data-name="패스 84528" d="M0,.156V21.322a.583.583,0,0,0,.048.235L1.1,23.922a.108.108,0,0,0,.208,0l1.048-2.365a.583.583,0,0,0,.048-.235V.156A.142.142,0,0,0,2.28,0H.12A.142.142,0,0,0,0,.156Z" transform="translate(-1075.295 -20697.826) rotate(17)" fill="#fff" stroke="#194da1" stroke-miterlimit="10" stroke-width="1"/>
      <line id="선_574" data-name="선 574" x2="8.4" transform="translate(-1091.686 -20694.107)" fill="none" stroke="#194da1" stroke-linecap="round" stroke-linejoin="round" stroke-width="1"/>
      <line id="선_575" data-name="선 575" x2="8.4" transform="translate(-1091.686 -20688.672)" fill="none" stroke="#194da1" stroke-linecap="round" stroke-linejoin="round" stroke-width="1"/>
      <line id="선_3522" data-name="선 3522" x2="8.4" transform="translate(-1091.686 -20683.236)" fill="none" stroke="#194da1" stroke-linecap="round" stroke-linejoin="round" stroke-width="1"/>
      <line id="선_3523" data-name="선 3523" x2="8.4" transform="translate(-1091.686 -20677.195)" fill="none" stroke="#194da1" stroke-linecap="round" stroke-linejoin="round" stroke-width="1"/>
      <g id="check" transform="translate(-1098.2 -20695.6)">
        <path id="check-2" data-name="check" d="M7.857,6,5.205,8.571,4,7.4" transform="translate(-4 -6)" fill="none" stroke="#194da1" stroke-linecap="round" stroke-linejoin="round" stroke-width="1"/>
      </g>
      <g id="check-3" data-name="check" transform="translate(-1098.2 -20689.986)">
        <path id="check-4" data-name="check" d="M7.857,6,5.205,8.571,4,7.4" transform="translate(-4 -6)" fill="none" stroke="#194da1" stroke-linecap="round" stroke-linejoin="round" stroke-width="1"/>
      </g>
      <g id="check-5" data-name="check" transform="translate(-1098.2 -20684.375)">
        <path id="check-6" data-name="check" d="M7.857,6,5.205,8.571,4,7.4" transform="translate(-4 -6)" fill="none" stroke="#194da1" stroke-linecap="round" stroke-linejoin="round" stroke-width="1"/>
      </g>
      <g id="check-7" data-name="check" transform="translate(-1098.2 -20678.762)">
        <path id="check-8" data-name="check" d="M7.857,6,5.205,8.571,4,7.4" transform="translate(-4 -6)" fill="none" stroke="#194da1" stroke-linecap="round" stroke-linejoin="round" stroke-width="1"/>
      </g>
    </g>
  </g>
</svg>
