<svg xmlns="http://www.w3.org/2000/svg" xmlns:xlink="http://www.w3.org/1999/xlink" width="300" height="80" viewBox="0 0 300 80">
  <defs>
    <clipPath id="clip-path">
      <rect id="사각형_150614" data-name="사각형 150614" width="26" height="34" fill="#bad1fe"/>
    </clipPath>
  </defs>
  <g id="그룹_166756" data-name="그룹 166756" transform="translate(-10 -451)">
    <rect id="사각형_150423" data-name="사각형 150423" width="80" height="300" transform="translate(310 451) rotate(90)" fill="#ecf5ff"/>
    <g id="그룹_165513" data-name="그룹 165513" transform="translate(177 478) rotate(90)">
      <g id="그룹_165512" data-name="그룹 165512">
        <g id="그룹_165511" data-name="그룹 165511" transform="translate(0 0)" clip-path="url(#clip-path)">
          <path id="패스_83242" data-name="패스 83242" d="M1.459,2.929A1.464,1.464,0,1,1,2.918,1.465,1.462,1.462,0,0,1,1.459,2.929" transform="translate(0 0.115)" fill="#bad1fe"/>
          <path id="패스_83243" data-name="패스 83243" d="M1.459,2.929A1.464,1.464,0,1,1,2.918,1.464,1.462,1.462,0,0,1,1.459,2.929" transform="translate(0 30.571)" fill="#bad1fe"/>
          <path id="패스_83244" data-name="패스 83244" d="M1.459,2.929A1.464,1.464,0,1,1,2.918,1.465,1.462,1.462,0,0,1,1.459,2.929" transform="translate(3.792 0.115)" fill="#bad1fe"/>
          <path id="패스_83245" data-name="패스 83245" d="M1.459,2.929A1.464,1.464,0,1,1,2.918,1.464,1.462,1.462,0,0,1,1.459,2.929" transform="translate(3.792 3.921)" fill="#bad1fe"/>
          <path id="패스_83246" data-name="패스 83246" d="M1.459,2.929A1.464,1.464,0,1,1,2.918,1.464,1.462,1.462,0,0,1,1.459,2.929" transform="translate(3.792 26.763)" fill="#bad1fe"/>
          <path id="패스_83247" data-name="패스 83247" d="M1.459,2.929A1.464,1.464,0,1,1,2.918,1.464,1.462,1.462,0,0,1,1.459,2.929" transform="translate(3.792 30.571)" fill="#bad1fe"/>
          <path id="패스_83248" data-name="패스 83248" d="M1.459,2.929A1.464,1.464,0,1,1,2.918,1.465,1.462,1.462,0,0,1,1.459,2.929" transform="translate(7.587 0.115)" fill="#bad1fe"/>
          <path id="패스_83249" data-name="패스 83249" d="M1.459,2.929A1.464,1.464,0,1,1,2.918,1.464,1.462,1.462,0,0,1,1.459,2.929" transform="translate(7.587 3.921)" fill="#bad1fe"/>
          <path id="패스_83250" data-name="패스 83250" d="M1.459,2.929A1.464,1.464,0,1,1,2.918,1.464,1.462,1.462,0,0,1,1.459,2.929" transform="translate(7.587 7.729)" fill="#bad1fe"/>
          <path id="패스_83251" data-name="패스 83251" d="M1.459,2.929A1.464,1.464,0,1,1,2.918,1.464,1.462,1.462,0,0,1,1.459,2.929" transform="translate(7.587 22.957)" fill="#bad1fe"/>
          <path id="패스_83252" data-name="패스 83252" d="M1.459,2.929A1.464,1.464,0,1,1,2.918,1.464,1.462,1.462,0,0,1,1.459,2.929" transform="translate(7.587 26.763)" fill="#bad1fe"/>
          <path id="패스_83253" data-name="패스 83253" d="M1.459,2.929A1.464,1.464,0,1,1,2.918,1.464,1.462,1.462,0,0,1,1.459,2.929" transform="translate(7.587 30.571)" fill="#bad1fe"/>
          <path id="패스_83254" data-name="패스 83254" d="M1.459,2.929A1.464,1.464,0,1,1,2.918,1.464,1.462,1.462,0,0,1,1.459,2.929" transform="translate(11.38 3.921)" fill="#bad1fe"/>
          <path id="패스_83255" data-name="패스 83255" d="M1.459,2.929A1.464,1.464,0,1,1,2.918,1.464,1.462,1.462,0,0,1,1.459,2.929" transform="translate(11.38 7.729)" fill="#bad1fe"/>
          <path id="패스_83256" data-name="패스 83256" d="M1.459,2.928A1.464,1.464,0,1,1,2.918,1.464,1.462,1.462,0,0,1,1.459,2.928" transform="translate(11.38 11.535)" fill="#bad1fe"/>
          <path id="패스_83257" data-name="패스 83257" d="M1.459,2.929A1.464,1.464,0,1,1,2.918,1.465,1.462,1.462,0,0,1,1.459,2.929" transform="translate(11.38 19.149)" fill="#bad1fe"/>
          <path id="패스_83258" data-name="패스 83258" d="M1.459,2.929A1.464,1.464,0,1,1,2.918,1.464,1.462,1.462,0,0,1,1.459,2.929" transform="translate(11.38 22.957)" fill="#bad1fe"/>
          <path id="패스_83259" data-name="패스 83259" d="M1.459,2.929A1.464,1.464,0,1,1,2.918,1.464,1.462,1.462,0,0,1,1.459,2.929" transform="translate(11.38 26.763)" fill="#bad1fe"/>
          <path id="패스_83260" data-name="패스 83260" d="M1.459,2.929A1.464,1.464,0,1,1,2.918,1.464,1.462,1.462,0,0,1,1.459,2.929" transform="translate(15.175 7.729)" fill="#bad1fe"/>
          <path id="패스_83261" data-name="패스 83261" d="M1.459,2.928A1.464,1.464,0,1,1,2.918,1.464,1.462,1.462,0,0,1,1.459,2.928" transform="translate(15.175 11.535)" fill="#bad1fe"/>
          <path id="패스_83262" data-name="패스 83262" d="M1.459,2.928A1.464,1.464,0,1,1,2.918,1.464,1.462,1.462,0,0,1,1.459,2.928" transform="translate(15.175 15.344)" fill="#bad1fe"/>
          <path id="패스_83263" data-name="패스 83263" d="M1.459,2.929A1.464,1.464,0,1,1,2.918,1.465,1.462,1.462,0,0,1,1.459,2.929" transform="translate(15.175 19.149)" fill="#bad1fe"/>
          <path id="패스_83264" data-name="패스 83264" d="M1.459,2.929A1.464,1.464,0,1,1,2.918,1.464,1.462,1.462,0,0,1,1.459,2.929" transform="translate(15.175 22.957)" fill="#bad1fe"/>
          <path id="패스_83265" data-name="패스 83265" d="M1.459,2.928A1.464,1.464,0,1,1,2.918,1.464,1.462,1.462,0,0,1,1.459,2.928" transform="translate(18.967 11.535)" fill="#bad1fe"/>
          <path id="패스_83266" data-name="패스 83266" d="M1.459,2.928A1.464,1.464,0,1,1,2.918,1.464,1.462,1.462,0,0,1,1.459,2.928" transform="translate(18.967 15.344)" fill="#bad1fe"/>
          <path id="패스_83267" data-name="패스 83267" d="M1.459,2.929A1.464,1.464,0,1,1,2.918,1.465,1.462,1.462,0,0,1,1.459,2.929" transform="translate(18.967 19.149)" fill="#bad1fe"/>
          <path id="패스_83268" data-name="패스 83268" d="M1.459,2.928A1.464,1.464,0,1,1,2.918,1.464,1.461,1.461,0,0,1,1.459,2.928" transform="translate(22.763 15.344)" fill="#bad1fe"/>
        </g>
      </g>
    </g>
  </g>
</svg>
