<svg xmlns="http://www.w3.org/2000/svg" xmlns:xlink="http://www.w3.org/1999/xlink" width="90" height="90" viewBox="0 0 90 90">
  <defs>
    <clipPath id="clip-path">
      <rect id="사각형_150232" data-name="사각형 150232" width="90" height="90" transform="translate(910 1523)" fill="#fff"/>
    </clipPath>
  </defs>
  <g id="그룹_270" data-name="그룹 270" transform="translate(-910 -1523)" clip-path="url(#clip-path)">
    <path id="패스_2096" data-name="패스 2096" d="M975.438,1524.15h-60.19a4.1,4.1,0,0,0-4.1,4.1v79.332a4.1,4.1,0,0,0,4.1,4.1h60.19a4.1,4.1,0,0,0,4.1-4.1v-79.332A4.1,4.1,0,0,0,975.438,1524.15Z" transform="translate(-0.119 -0.12)" fill="#dce8ff"/>
    <path id="패스_2097" data-name="패스 2097" d="M915.249,1524.15H972.7v79.332a2.748,2.748,0,0,1-2.735,2.742H911.145v-77.97A4.106,4.106,0,0,1,915.249,1524.15Z" transform="translate(-0.119 -0.12)" fill="#dce8ff"/>
    <path id="패스_2098" data-name="패스 2098" d="M929.466,1524.15h38.3v6.836a4.1,4.1,0,0,1-4.1,4.1H933.57a4.1,4.1,0,0,1-4.1-4.1Z" transform="translate(-2.024 -0.12)" fill="#dce8ff"/>
    <path id="패스_2099" data-name="패스 2099" d="M929.466,1524.15h34.2v5.466a1.374,1.374,0,0,1-1.368,1.371h-32.83Z" transform="translate(-2.024 -0.12)" fill="#dce8ff"/>
    <path id="패스_2100" data-name="패스 2100" d="M971.782,1577.96l5.266,1.057,1.054,5.268L966.09,1596.31l-1.053-5.269-5.267-1.057Z" transform="translate(-5.176 -5.716)" fill="#d3e0f1"/>
    <path id="패스_2101" data-name="패스 2101" d="M1008.264,1529.156a1.018,1.018,0,0,1-.726-.3l-4.1-4.1a1.02,1.02,0,0,1,1.443-1.443l4.1,4.1a1.011,1.011,0,0,1,0,1.443A.984.984,0,0,1,1008.264,1529.156Z" transform="translate(-9.686 0)" fill="#222"/>
    <path id="패스_2102" data-name="패스 2102" d="M1004.161,1529.156a.989.989,0,0,1-.726-.3,1.011,1.011,0,0,1,0-1.443l4.1-4.1a1.02,1.02,0,0,1,1.443,1.443l-4.1,4.1A.984.984,0,0,1,1004.161,1529.156Z" transform="translate(-9.686 0)" fill="#222"/>
    <path id="패스_2103" data-name="패스 2103" d="M1000.625,1542.9a1.019,1.019,0,0,1-.726-.3l-4.1-4.1a1.023,1.023,0,0,1,1.45-1.442l4.1,4.1a1.026,1.026,0,0,1-.726,1.747Z" transform="translate(-8.892 -1.429)" fill="#222"/>
    <path id="패스_2104" data-name="패스 2104" d="M996.522,1542.9a1.026,1.026,0,0,1-.725-1.747l4.1-4.1a1.023,1.023,0,0,1,1.452,1.442l-4.1,4.1A1.015,1.015,0,0,1,996.522,1542.9Z" transform="translate(-8.892 -1.429)" fill="#222"/>
    <path id="패스_2105" data-name="패스 2105" d="M1008.264,1587.186a1.018,1.018,0,0,1-.726-.3l-4.1-4.1a1.02,1.02,0,0,1,1.443-1.443l4.1,4.1a1.011,1.011,0,0,1,0,1.443A.984.984,0,0,1,1008.264,1587.186Z" transform="translate(-9.686 -6.035)" fill="#222"/>
    <path id="패스_2106" data-name="패스 2106" d="M1004.161,1587.186a.989.989,0,0,1-.726-.3,1.012,1.012,0,0,1,0-1.443l4.1-4.1a1.02,1.02,0,0,1,1.443,1.443l-4.1,4.1A.984.984,0,0,1,1004.161,1587.186Z" transform="translate(-9.686 -6.035)" fill="#222"/>
    <path id="패스_2107" data-name="패스 2107" d="M1003.675,1616.2a.984.984,0,0,1-.717-.3l-4.108-4.1a1.025,1.025,0,0,1,1.447-1.452l4.1,4.1a1.03,1.03,0,0,1-.726,1.756Z" transform="translate(-9.21 -9.052)" fill="#222"/>
    <path id="패스_2108" data-name="패스 2108" d="M999.575,1616.2a1.014,1.014,0,0,1-.725-.3,1.035,1.035,0,0,1,0-1.452l4.108-4.1a1.023,1.023,0,0,1,1.443,1.452l-4.1,4.1A1.009,1.009,0,0,1,999.575,1616.2Z" transform="translate(-9.21 -9.052)" fill="#222"/>
    <path id="패스_2109" data-name="패스 2109" d="M997.573,1602.456a1.014,1.014,0,0,1-.725-.3l-4.1-4.1a1.026,1.026,0,0,1,1.45-1.452l4.1,4.1a1.034,1.034,0,0,1,0,1.452A1.014,1.014,0,0,1,997.573,1602.456Z" transform="translate(-8.574 -7.623)" fill="#222"/>
    <path id="패스_2110" data-name="패스 2110" d="M993.469,1602.456a1.014,1.014,0,0,1-.725-.3,1.034,1.034,0,0,1,0-1.452l4.1-4.1a1.026,1.026,0,0,1,1.45,1.452l-4.1,4.1A1.014,1.014,0,0,1,993.469,1602.456Z" transform="translate(-8.574 -7.623)" fill="#222"/>
    <path id="패스_2111" data-name="패스 2111" d="M931.249,1544h-8.207a2.737,2.737,0,0,0-2.736,2.733v8.207a2.739,2.739,0,0,0,2.736,2.742h8.207a2.739,2.739,0,0,0,2.736-2.742v-8.207A2.737,2.737,0,0,0,931.249,1544Z" transform="translate(-1.072 -2.184)" fill="#dce8ff"/>
    <path id="패스_2112" data-name="패스 2112" d="M923.041,1543.99h6.839v8.207a1.374,1.374,0,0,1-1.368,1.371H920.3v-6.837A2.749,2.749,0,0,1,923.041,1543.99Z" transform="translate(-1.072 -2.183)" fill="#dce8ff"/>
    <path id="패스_2113" data-name="패스 2113" d="M931.249,1568.44h-8.207a2.739,2.739,0,0,0-2.736,2.742v8.207a2.737,2.737,0,0,0,2.736,2.733h8.207a2.737,2.737,0,0,0,2.736-2.733v-8.207A2.739,2.739,0,0,0,931.249,1568.44Z" transform="translate(-1.072 -4.726)" fill="#dce8ff"/>
    <path id="패스_2114" data-name="패스 2114" d="M923.041,1568.44h6.839v8.207a1.367,1.367,0,0,1-1.368,1.362H920.3v-6.837A2.741,2.741,0,0,1,923.041,1568.44Z" transform="translate(-1.072 -4.726)" fill="#dce8ff"/>
    <path id="패스_2115" data-name="패스 2115" d="M931.249,1592.87h-8.207a2.737,2.737,0,0,0-2.736,2.733v8.207a2.739,2.739,0,0,0,2.736,2.742h8.207a2.739,2.739,0,0,0,2.736-2.742V1595.6A2.737,2.737,0,0,0,931.249,1592.87Z" transform="translate(-1.072 -7.266)" fill="#dce8ff"/>
    <path id="패스_2116" data-name="패스 2116" d="M923.041,1592.86h6.839v8.207a1.374,1.374,0,0,1-1.368,1.371H920.3V1595.6A2.749,2.749,0,0,1,923.041,1592.86Z" transform="translate(-1.072 -7.265)" fill="#dce8ff"/>
    <path id="패스_2117" data-name="패스 2117" d="M975.319,1612.6H915.13a5.13,5.13,0,0,1-5.13-5.134v-79.332a5.141,5.141,0,0,1,5.13-5.134h60.19a5.13,5.13,0,0,1,5.13,5.134v79.332A5.13,5.13,0,0,1,975.319,1612.6Zm-60.19-87.548a3.082,3.082,0,0,0-3.078,3.082v79.332a3.082,3.082,0,0,0,3.078,3.082h60.19a3.082,3.082,0,0,0,3.078-3.082v-79.332a3.082,3.082,0,0,0-3.078-3.082Z" transform="translate(0 0)" fill="#222"/>
    <path id="패스_2118" data-name="패스 2118" d="M963.545,1535.992H933.451a5.128,5.128,0,0,1-5.13-5.125v-6.836a1.035,1.035,0,0,1,1.026-1.031h38.3a1.035,1.035,0,0,1,1.026,1.031v6.836A5.128,5.128,0,0,1,963.545,1535.992Zm-33.173-10.94v5.815a3.08,3.08,0,0,0,3.078,3.073h30.095a3.08,3.08,0,0,0,3.078-3.073v-5.815Z" transform="translate(-1.905 0)" fill="#222"/>
    <path id="패스_2119" data-name="패스 2119" d="M996.818,1549.35l-37.658,37.659-5.267,11.585,11.586-5.26,37.655-37.668-1.048-5.26Z" transform="translate(-4.565 -2.74)" fill="#dce8ff"/>
    <path id="패스_2120" data-name="패스 2120" d="M997.1,1549.35l-37.658,37.659-2.873,6.326,8.29-4.57,37.644-37.659-.134-.7Z" transform="translate(-4.843 -2.74)" fill="#dce8ff"/>
    <path id="패스_2121" data-name="패스 2121" d="M953.774,1599.505a1,1,0,0,1-.725-.3,1.02,1.02,0,0,1-.205-1.147l5.267-11.585a1.2,1.2,0,0,1,.205-.3l37.657-37.659a1.084,1.084,0,0,1,.932-.287l5.268,1.057a1.013,1.013,0,0,1,.807.806l1.048,5.269a.985.985,0,0,1-.287.923l-37.656,37.659a.742.742,0,0,1-.3.206l-11.586,5.269A1.212,1.212,0,0,1,953.774,1599.505Zm6.129-12.024-4.063,8.933,8.933-4.068,37.141-37.139-.806-4.059-4.068-.806Z" transform="translate(-4.446 -2.621)" fill="#222"/>
    <path id="패스_2122" data-name="패스 2122" d="M965.971,1597.215a.705.705,0,0,1-.3-.045,1.041,1.041,0,0,1-.711-.78l-.916-4.6-4.6-.914a1,1,0,0,1-.78-.708,1.06,1.06,0,0,1,.26-1.03l12.01-12.006a1.02,1.02,0,0,1,.93-.278l5.267,1.057a1.018,1.018,0,0,1,.807.806l1.054,5.269a1.007,1.007,0,0,1-.288.923L966.7,1596.928a1.067,1.067,0,0,1-.725.3Zm-4.241-7.974,3.393.672a1.016,1.016,0,0,1,.806.806l.685,3.387,10.273-10.268-.806-4.068-4.063-.806-10.273,10.277Z" transform="translate(-5.057 -5.599)" fill="#222"/>
    <path id="패스_2123" data-name="패스 2123" d="M991.728,1581.263a1.021,1.021,0,0,1-.725-1.747l13.773-13.781-1.3-6.478a1.028,1.028,0,0,1,2.016-.4l1.407,7.025a1.032,1.032,0,0,1-.287.923l-14.16,14.166A1.043,1.043,0,0,1,991.728,1581.263Z" transform="translate(-8.393 -3.643)" fill="#222"/>
    <path id="패스_2124" data-name="패스 2124" d="M931.13,1558.575h-8.207a3.754,3.754,0,0,1-3.762-3.754v-8.207a3.761,3.761,0,0,1,3.762-3.763h8.207a3.761,3.761,0,0,1,3.761,3.763v8.207A3.753,3.753,0,0,1,931.13,1558.575Zm-8.207-13.673a1.708,1.708,0,0,0-1.71,1.711v8.207a1.706,1.706,0,0,0,1.71,1.7h8.207a1.706,1.706,0,0,0,1.71-1.7v-8.207a1.708,1.708,0,0,0-1.71-1.711Z" transform="translate(-0.953 -2.064)" fill="#222"/>
    <path id="패스_2125" data-name="패스 2125" d="M929.035,1554.471a1.032,1.032,0,0,1-.725-.3l-4.269-4.265a1.033,1.033,0,0,1,0-1.452,1.021,1.021,0,0,1,1.451,0l3.543,3.539,8.851-8.852a1.026,1.026,0,1,1,1.45,1.451l-9.576,9.578A1.035,1.035,0,0,1,929.035,1554.471Z" transform="translate(-1.429 -2.064)" fill="#222"/>
    <path id="패스_2126" data-name="패스 2126" d="M931.13,1583.024h-8.207a3.761,3.761,0,0,1-3.762-3.763v-8.207a3.761,3.761,0,0,1,3.762-3.763h8.207a3.761,3.761,0,0,1,3.761,3.763v8.207A3.761,3.761,0,0,1,931.13,1583.024Zm-8.207-13.682a1.714,1.714,0,0,0-1.71,1.711v8.207a1.714,1.714,0,0,0,1.71,1.711h8.207a1.714,1.714,0,0,0,1.71-1.711v-8.207a1.714,1.714,0,0,0-1.71-1.711Z" transform="translate(-0.953 -4.606)" fill="#222"/>
    <path id="패스_2127" data-name="패스 2127" d="M929.035,1578.92a1,1,0,0,1-.725-.3l-4.269-4.265a1.026,1.026,0,1,1,1.451-1.452l3.543,3.539,8.851-8.844a1.023,1.023,0,0,1,1.45,1.443l-9.576,9.578A1.006,1.006,0,0,1,929.035,1578.92Z" transform="translate(-1.429 -4.606)" fill="#222"/>
    <path id="패스_2128" data-name="패스 2128" d="M931.13,1607.445h-8.207a3.754,3.754,0,0,1-3.762-3.754v-8.207a3.761,3.761,0,0,1,3.762-3.763h8.207a3.761,3.761,0,0,1,3.761,3.763v8.207A3.753,3.753,0,0,1,931.13,1607.445Zm-8.207-13.673a1.708,1.708,0,0,0-1.71,1.711v8.207a1.706,1.706,0,0,0,1.71,1.7h8.207a1.706,1.706,0,0,0,1.71-1.7v-8.207a1.708,1.708,0,0,0-1.71-1.711Z" transform="translate(-0.953 -7.147)" fill="#222"/>
    <path id="패스_2129" data-name="패스 2129" d="M974.179,1556.352h-8.344a1.026,1.026,0,1,1,0-2.052h8.344a1.026,1.026,0,1,1,0,2.052Z" transform="translate(-5.7 -3.255)" fill="#222"/>
    <path id="패스_2130" data-name="패스 2130" d="M958.156,1556.352H944.614a1.026,1.026,0,1,1,0-2.052h13.542a1.026,1.026,0,1,1,0,2.052Z" transform="translate(-3.493 -3.255)" fill="#222"/>
    <path id="패스_2131" data-name="패스 2131" d="M973.56,1548.712H959.881a1.026,1.026,0,1,1,0-2.052H973.56a1.026,1.026,0,1,1,0,2.052Z" transform="translate(-5.081 -2.461)" fill="#222"/>
    <path id="패스_2132" data-name="패스 2132" d="M952.821,1548.712h-8.207a1.026,1.026,0,1,1,0-2.052h8.207a1.026,1.026,0,1,1,0,2.052Z" transform="translate(-3.493 -2.461)" fill="#222"/>
    <path id="패스_2133" data-name="패스 2133" d="M961.029,1580.792H944.614a1.026,1.026,0,0,1,0-2.052h16.416a1.026,1.026,0,0,1,0,2.052Z" transform="translate(-3.493 -5.797)" fill="#222"/>
    <path id="패스_2134" data-name="패스 2134" d="M968.088,1573.162h-8.207a1.026,1.026,0,1,1,0-2.052h8.207a1.026,1.026,0,1,1,0,2.052Z" transform="translate(-5.081 -5.003)" fill="#222"/>
    <path id="패스_2135" data-name="패스 2135" d="M952.821,1573.162h-8.207a1.026,1.026,0,0,1,0-2.052h8.207a1.026,1.026,0,1,1,0,2.052Z" transform="translate(-3.493 -5.003)" fill="#222"/>
    <path id="패스_2136" data-name="패스 2136" d="M952.821,1605.222h-8.207a1.026,1.026,0,1,1,0-2.052h8.207a1.026,1.026,0,1,1,0,2.052Z" transform="translate(-3.493 -8.338)" fill="#222"/>
    <path id="패스_2137" data-name="패스 2137" d="M950.455,1597.582h-5.841a1.026,1.026,0,1,1,0-2.052h5.841a1.026,1.026,0,1,1,0,2.052Z" transform="translate(-3.493 -7.543)" fill="#222"/>
  </g>
</svg>
