<svg xmlns="http://www.w3.org/2000/svg" xmlns:xlink="http://www.w3.org/1999/xlink" width="205" height="22" viewBox="0 0 205 22">
  <defs>
    <clipPath id="clip-path">
      <rect id="사각형_294" data-name="사각형 294" width="205" height="22" fill="#fff"/>
    </clipPath>
  </defs>
  <g id="그룹_216" data-name="그룹 216" transform="translate(-326 -33)">
    <g id="그룹_213" data-name="그룹 213" transform="translate(326 33)" clip-path="url(#clip-path)">
      <path id="패스_1868" data-name="패스 1868" d="M330.056,42.614h.077l6.731-9.064h4.473l-6.194,8.217,7.3,12.683h-4.473l-5.251-9.383-2.664,3.5v5.874H326V33.55h4.056Z" transform="translate(-326 -33)" fill="#233875"/>
      <path id="패스_1869" data-name="패스 1869" d="M346.427,54.076a10.286,10.286,0,0,1-3.41-2.266l2.335-2.882a8.956,8.956,0,0,0,2.456,1.683,6.4,6.4,0,0,0,2.708.638,3.835,3.835,0,0,0,2.412-.649,2.129,2.129,0,0,0,.822-1.749,2.075,2.075,0,0,0-.219-.99,2.225,2.225,0,0,0-.614-.7,4.025,4.025,0,0,0-.965-.561q-.559-.248-1.25-.561l-2.719-1.188A8.639,8.639,0,0,1,346,43.659a6.1,6.1,0,0,1-1.524-1.826,5.407,5.407,0,0,1-.6-2.618,5.77,5.77,0,0,1,.515-2.387,5.567,5.567,0,0,1,1.458-1.925,7.025,7.025,0,0,1,2.226-1.276,8.247,8.247,0,0,1,2.828-.462,8.9,8.9,0,0,1,3.464.693,8.372,8.372,0,0,1,2.894,1.991l-2.05,2.629A8.293,8.293,0,0,0,353.2,37.2a5.694,5.694,0,0,0-2.3-.451,3.517,3.517,0,0,0-2.138.583,1.9,1.9,0,0,0-.8,1.628,1.746,1.746,0,0,0,.263.935,2.632,2.632,0,0,0,.691.7,6.957,6.957,0,0,0,1,.583c.384.176.8.352,1.239.528l2.653,1.155a7.818,7.818,0,0,1,2.993,2.09,5.416,5.416,0,0,1,1.1,3.6,6.148,6.148,0,0,1-.5,2.431,5.822,5.822,0,0,1-1.469,2.024,7.211,7.211,0,0,1-2.346,1.375,8.967,8.967,0,0,1-3.135.506,10.582,10.582,0,0,1-3.991-.792Z" transform="translate(-326.057 -33)" fill="#233875"/>
      <path id="패스_1870" data-name="패스 1870" d="M363.034,54.45h-4.111l6.49-20.9h4.769l6.534,20.9h-4.254l-1.425-5.368h-6.578Zm5.635-14.289c-.285-1.166-.581-2.31-.888-3.443h-.11q-.378,1.716-.822,3.465c-.3,1.155-.592,2.277-.9,3.377l-.6,2.288h4.824l-.6-2.288c-.307-1.089-.6-2.222-.888-3.388Z" transform="translate(-326.11 -33)" fill="#233875"/>
      <path id="패스_1871" data-name="패스 1871" d="M378.283,46.86V44.429h8.453V43.087h-5.942V33.77h15.3v2.365H383.951v1.133h11.632v2.266H383.951v1.177h12.312v2.365h-6.348v1.342h8.474v2.431H378.283Zm15.8,1.87a2.811,2.811,0,0,1,0,5.346,14.421,14.421,0,0,1-5.778.9,14.145,14.145,0,0,1-5.756-.9,2.811,2.811,0,0,1,0-5.346,18.994,18.994,0,0,1,11.533-.011Zm-2.357,3.663q1.085-.314,1.085-.99c0-.451-.362-.781-1.085-.979a19.908,19.908,0,0,0-6.852,0c-.713.2-1.074.528-1.074.979s.362.792,1.074.99a19.208,19.208,0,0,0,6.852,0Z" transform="translate(-326.175 -33)" fill="#233875"/>
      <path id="패스_1872" data-name="패스 1872" d="M400.569,35.079h4.944V33h3.212v2.079H413.7l-.022,2.442H400.569Zm11.621,8.448a3.718,3.718,0,0,1-1.118,1.221,5.567,5.567,0,0,1-1.721.792,8.839,8.839,0,0,1-4.418,0,5.567,5.567,0,0,1-1.721-.792,3.718,3.718,0,0,1-1.118-1.221,3.094,3.094,0,0,1-.395-1.562,3.326,3.326,0,0,1,.395-1.584,3.718,3.718,0,0,1,1.118-1.221,5.3,5.3,0,0,1,1.721-.781,9.1,9.1,0,0,1,4.418,0,5.3,5.3,0,0,1,1.721.781,3.718,3.718,0,0,1,1.118,1.221,3.332,3.332,0,0,1,0,3.146Zm5.9,11.2h-14.46V46.75H406.8V48.4h8.135V46.75h3.157ZM405.371,43.153a3.984,3.984,0,0,0,3.5,0,1.393,1.393,0,0,0,.46-1.9,1.325,1.325,0,0,0-.46-.462,3.984,3.984,0,0,0-3.5,0,1.393,1.393,0,0,0-.46,1.9A1.325,1.325,0,0,0,405.371,43.153Zm1.414,9.13h8.135V50.765h-8.135Zm11.3-6.369H414.9V33.165h3.19V38.4h2.949v2.552h-2.949v4.961Z" transform="translate(-326.25 -33)" fill="#233875"/>
      <path id="패스_1873" data-name="패스 1873" d="M434.663,42.306a5.054,5.054,0,0,1-1.283,1.749,5.975,5.975,0,0,1-1.919,1.144,6.734,6.734,0,0,1-2.379.418,6.837,6.837,0,0,1-2.39-.418,5.975,5.975,0,0,1-1.919-1.144,5.59,5.59,0,0,1-1.283-1.749,5.094,5.094,0,0,1-.471-2.2,5.279,5.279,0,0,1,1.754-3.971,5.784,5.784,0,0,1,1.919-1.144,7.1,7.1,0,0,1,2.39-.418,6.777,6.777,0,0,1,2.379.418,6.179,6.179,0,0,1,1.919,1.144,5.2,5.2,0,0,1,1.283,1.749,5.347,5.347,0,0,1,.46,2.222A5.422,5.422,0,0,1,434.663,42.306ZM427,42.185a3.092,3.092,0,0,0,2.094.737,2.993,2.993,0,0,0,2.083-.737,3.024,3.024,0,0,0,0-4.169,3.29,3.29,0,0,0-4.177,0,2.968,2.968,0,0,0,0,4.169Zm-.614,12.4V47.3h3.19v4.8h12.169v2.486ZM437.974,33.2h3.212V48.829h-3.212Z" transform="translate(-326.325 -33)" fill="#233875"/>
      <path id="패스_1874" data-name="패스 1874" d="M444.921,45.716V43.263h20.085v2.453Zm3.651-6.171a9.777,9.777,0,0,0,2.05-.759,4.894,4.894,0,0,0,1.348-.968,3.044,3.044,0,0,0,.7-1.1h-5.92V34.243H463.2v2.475h-5.942a3.045,3.045,0,0,0,.7,1.1,5.063,5.063,0,0,0,1.348.968,9.777,9.777,0,0,0,2.05.759,17.238,17.238,0,0,0,2.8.462l-1.107,2.431a13.634,13.634,0,0,1-5.251-1.342,6.942,6.942,0,0,1-2.839-2.618,7,7,0,0,1-2.861,2.618,13.44,13.44,0,0,1-5.251,1.342l-1.063-2.431a16.977,16.977,0,0,0,2.774-.462Zm9.582,7.634a8.578,8.578,0,0,1,2.423.792,4.281,4.281,0,0,1,1.535,1.265,2.887,2.887,0,0,1,.526,1.716,3.024,3.024,0,0,1-.526,1.727,4.311,4.311,0,0,1-1.535,1.276,8.943,8.943,0,0,1-2.423.792,19.346,19.346,0,0,1-6.468,0,8.4,8.4,0,0,1-2.412-.792,4.276,4.276,0,0,1-1.524-1.276,2.944,2.944,0,0,1-.526-1.727,2.99,2.99,0,0,1,.526-1.716,4.246,4.246,0,0,1,1.524-1.265,8.624,8.624,0,0,1,2.412-.792A19.346,19.346,0,0,1,458.154,47.179Zm1.261,3.762c0-.572-.373-.979-1.107-1.243a14.944,14.944,0,0,0-6.764,0c-.746.264-1.107.671-1.107,1.243,0,1.1,1.5,1.65,4.495,1.65s4.495-.55,4.495-1.65Z" transform="translate(-326.398 -33)" fill="#233875"/>
      <path id="패스_1875" data-name="패스 1875" d="M467.13,44.781V42.328h20.085v2.453ZM468.9,33.792h16.532V36.1H482.6v2.783h2.653v2.321H469.027V38.885H471.7V36.1h-2.818v-2.31ZM485.362,54.8H469.454V49.291h12.191V48.224H469.421V45.98h15.359v5.39H472.612v1.177h12.75V54.8ZM474.881,38.9h4.561V36.113h-4.561Z" transform="translate(-326.473 -33)" fill="#233875"/>
      <path id="패스_1876" data-name="패스 1876" d="M497.827,45.606q-.888.1-1.842.165c-.636.044-1.3.066-2.006.077s-1.458.022-2.28.022h-1.546V39.094h5.339V37.125h-5.361V34.683h8.431V41.36h-5.339v2.057c1.173-.011,2.247-.066,3.212-.143a29.655,29.655,0,0,0,2.949-.4l.285,2.442c-.625.121-1.239.22-1.831.3Zm4.758,3.333a4.805,4.805,0,0,0,1.3,1.551,8.18,8.18,0,0,0,2.193,1.243,12.3,12.3,0,0,0,3.135.748l-1.261,2.409a12.973,12.973,0,0,1-4.55-1.408,8.162,8.162,0,0,1-2.861-2.541,8.217,8.217,0,0,1-2.883,2.541,12.973,12.973,0,0,1-4.55,1.408l-1.228-2.409A12.141,12.141,0,0,0,495,51.733a8.889,8.889,0,0,0,2.2-1.243,4.98,4.98,0,0,0,1.316-1.551,3.722,3.722,0,0,0,.439-1.672v-.374h3.19v.374a3.575,3.575,0,0,0,.428,1.672Zm-2.149-15.4h2.971v4.917h1.787v-5.28h3.015V47.817h-3.015V40.931h-1.787v5.093h-2.971V33.539Z" transform="translate(-326.55 -33)" fill="#233875"/>
      <path id="패스_1877" data-name="패스 1877" d="M511.537,46.2V43.747h8.42V42.042h-6.512V39.556h2.675V36.278h-2.828V33.792h16.532v2.486h-2.828v3.278h2.631v2.486h-6.49v1.705h8.474V46.2H511.537Zm17.695,8.5H513.872V47.619h15.359ZM526.1,50.072H517v2.2h9.1Zm-2.247-13.794h-4.561v3.278h4.572V36.278Z" transform="translate(-326.621 -33)" fill="#233875"/>
    </g>
  </g>
</svg>
