<svg xmlns="http://www.w3.org/2000/svg" xmlns:xlink="http://www.w3.org/1999/xlink" width="90" height="90" viewBox="0 0 90 90">
  <defs>
    <clipPath id="clip-path">
      <rect id="사각형_150231" data-name="사각형 150231" width="90" height="90" transform="translate(696 1523)" fill="#fff"/>
    </clipPath>
  </defs>
  <g id="그룹_269" data-name="그룹 269" transform="translate(-696 -1523)" clip-path="url(#clip-path)">
    <path id="패스_2059" data-name="패스 2059" d="M761.778,1612.69H726.153v8.23h35.625Z" transform="translate(-3.091 -9.193)" fill="#d3e0f1"/>
    <path id="패스_2060" data-name="패스 2060" d="M749.447,1612.69H726.153v8.23h23.294Z" transform="translate(-3.091 -9.193)" fill="#d3e0f1"/>
    <path id="패스_2061" data-name="패스 2061" d="M697.145,1603.53H784.84v4.11a4.1,4.1,0,0,1-4.111,4.11H701.255a4.1,4.1,0,0,1-4.11-4.11Z" transform="translate(-0.117 -8.254)" fill="#d3e0f1"/>
    <path id="패스_2062" data-name="패스 2062" d="M697.145,1603.53h75.362v4.11a4.1,4.1,0,0,1-4.111,4.11H701.255a4.1,4.1,0,0,1-4.11-4.11Z" transform="translate(-0.117 -8.254)" fill="#d3e0f1"/>
    <path id="패스_2063" data-name="패스 2063" d="M701.255,1524.15h79.474a4.1,4.1,0,0,1,4.111,4.111v67.133H697.145V1528.26A4.111,4.111,0,0,1,701.255,1524.15Z" transform="translate(-0.117 -0.118)" fill="#d3e0f1"/>
    <path id="패스_2064" data-name="패스 2064" d="M701.255,1524.15h78.1v58.912a6.855,6.855,0,0,1-6.851,6.857H697.145V1528.26A4.111,4.111,0,0,1,701.255,1524.15Z" transform="translate(-0.117 -0.118)" fill="#d3e0f1"/>
    <path id="패스_2065" data-name="패스 2065" d="M773.6,1534.83H710.572a2.743,2.743,0,0,0-2.74,2.746v46.58a2.743,2.743,0,0,0,2.74,2.746H773.6a2.743,2.743,0,0,0,2.741-2.746v-46.58A2.743,2.743,0,0,0,773.6,1534.83Z" transform="translate(-1.213 -1.213)" fill="#d3e0f1"/>
    <path id="패스_2066" data-name="패스 2066" d="M710.572,1534.83h56.18v42.479h-58.92v-39.732A2.753,2.753,0,0,1,710.572,1534.83Z" transform="translate(-1.213 -1.213)" fill="#d3e0f1"/>
    <path id="패스_2067" data-name="패스 2067" d="M738.366,1543.99v27.41l19.183-13.7Z" transform="translate(-4.342 -2.151)" fill="#d3e0f1"/>
    <path id="패스_2068" data-name="패스 2068" d="M761.633,1612.55H726.008v8.221h35.625Z" transform="translate(-3.076 -9.179)" fill="#dce8ff"/>
    <path id="패스_2069" data-name="패스 2069" d="M749.3,1612.55H726.008v8.221H749.3Z" transform="translate(-3.076 -9.179)" fill="#dce8ff"/>
    <path id="패스_2070" data-name="패스 2070" d="M697,1603.39h87.695v4.111a4.108,4.108,0,0,1-4.111,4.111H701.111A4.108,4.108,0,0,1,697,1607.5Z" transform="translate(-0.102 -8.24)" fill="#dce8ff"/>
    <path id="패스_2071" data-name="패스 2071" d="M697,1603.39h75.362v4.111a4.107,4.107,0,0,1-4.111,4.111H701.111A4.108,4.108,0,0,1,697,1607.5Z" transform="translate(-0.102 -8.24)" fill="#dce8ff"/>
    <path id="패스_2072" data-name="패스 2072" d="M701.111,1524h79.474a4.108,4.108,0,0,1,4.111,4.111v67.142H697V1528.11A4.116,4.116,0,0,1,701.111,1524Z" transform="translate(-0.102 -0.102)" fill="#dce8ff"/>
    <path id="패스_2073" data-name="패스 2073" d="M701.111,1524h78.1v58.921a6.853,6.853,0,0,1-6.852,6.848H697V1528.11A4.116,4.116,0,0,1,701.111,1524Z" transform="translate(-0.102 -0.102)" fill="#dce8ff"/>
    <path id="패스_2074" data-name="패스 2074" d="M773.458,1534.69H710.427a2.736,2.736,0,0,0-2.74,2.737v46.589a2.736,2.736,0,0,0,2.74,2.737h63.031a2.736,2.736,0,0,0,2.741-2.737v-46.589A2.736,2.736,0,0,0,773.458,1534.69Z" transform="translate(-1.198 -1.198)" fill="#dce8ff"/>
    <path id="패스_2075" data-name="패스 2075" d="M710.427,1534.69h56.18v42.479h-58.92v-39.741A2.745,2.745,0,0,1,710.427,1534.69Z" transform="translate(-1.198 -1.198)" fill="#dce8ff"/>
    <path id="패스_2076" data-name="패스 2076" d="M738.221,1543.85v27.4l19.183-13.7Z" transform="translate(-4.328 -2.137)" fill="#dce8ff"/>
    <path id="패스_2077" data-name="패스 2077" d="M738.366,1543.99v27.41l10.455-7.467Z" transform="translate(-4.342 -2.151)" fill="#dce8ff"/>
    <path id="패스_2078" data-name="패스 2078" d="M761.662,1621.826H726.036a1.037,1.037,0,0,1-1.028-1.032v-8.221a1.035,1.035,0,0,1,1.028-1.023h35.626a1.035,1.035,0,0,1,1.028,1.023v8.221A1.037,1.037,0,0,1,761.662,1621.826Zm-34.6-2.055h33.57v-6.166h-33.57Z" transform="translate(-2.973 -9.076)" fill="#222"/>
    <path id="패스_2079" data-name="패스 2079" d="M780.612,1612.666H701.138a5.144,5.144,0,0,1-5.138-5.143v-4.11a1.035,1.035,0,0,1,1.028-1.023h87.695a1.035,1.035,0,0,1,1.028,1.023v4.11A5.144,5.144,0,0,1,780.612,1612.666Zm-82.557-8.221v3.078a3.087,3.087,0,0,0,3.083,3.087h79.474a3.087,3.087,0,0,0,3.083-3.087v-3.078Z" transform="translate(0 -8.137)" fill="#222"/>
    <path id="패스_2080" data-name="패스 2080" d="M770.158,1622.765H715.349a1.028,1.028,0,1,1,0-2.055h54.809a1.028,1.028,0,1,1,0,2.055Z" transform="translate(-1.878 -10.015)" fill="#222"/>
    <path id="패스_2081" data-name="패스 2081" d="M784.722,1596.308H697.028a1.037,1.037,0,0,1-1.028-1.032v-67.133a5.138,5.138,0,0,1,5.138-5.143h79.474a5.138,5.138,0,0,1,5.138,5.143v67.133A1.037,1.037,0,0,1,784.722,1596.308Zm-86.667-2.055h85.64v-66.11a3.087,3.087,0,0,0-3.083-3.087H701.138a3.087,3.087,0,0,0-3.083,3.087Z" fill="#222"/>
    <path id="패스_2082" data-name="패스 2082" d="M773.485,1587.809H710.455a3.767,3.767,0,0,1-3.768-3.769v-46.58a3.762,3.762,0,0,1,3.768-3.77h63.031a3.762,3.762,0,0,1,3.769,3.77v46.58A3.768,3.768,0,0,1,773.485,1587.809Zm-63.031-52.064a1.711,1.711,0,0,0-1.712,1.714v46.58a1.711,1.711,0,0,0,1.712,1.714h63.031a1.711,1.711,0,0,0,1.713-1.714v-46.58a1.711,1.711,0,0,0-1.713-1.714Z" transform="translate(-1.095 -1.096)" fill="#222"/>
    <path id="패스_2083" data-name="패스 2083" d="M738.249,1572.3a1.016,1.016,0,0,1-.466-.108,1.047,1.047,0,0,1-.562-.916v-27.41a1.036,1.036,0,0,1,.562-.916,1,1,0,0,1,1.069.081l19.183,13.7a1,1,0,0,1,.425.835,1.039,1.039,0,0,1-.425.834l-19.183,13.705A1.031,1.031,0,0,1,738.249,1572.3Zm1.028-26.431v23.407l16.388-11.7Z" transform="translate(-4.225 -2.033)" fill="#222"/>
    <path id="패스_2084" data-name="패스 2084" d="M747.393,1583.075H713.822a1.028,1.028,0,1,1,0-2.055h33.571a1.028,1.028,0,1,1,0,2.055Z" transform="translate(-1.721 -5.947)" fill="#222"/>
    <path id="패스_2085" data-name="패스 2085" d="M776.613,1583.075H764.967a1.028,1.028,0,0,1,0-2.055h11.647a1.028,1.028,0,1,1,0,2.055Z" transform="translate(-6.964 -5.947)" fill="#222"/>
    <path id="패스_2086" data-name="패스 2086" d="M754.77,1585.2a3.428,3.428,0,1,0-3.426-3.428A3.426,3.426,0,0,0,754.77,1585.2Z" transform="translate(-5.673 -5.672)" fill="#222"/>
    <path id="패스_2087" data-name="패스 2087" d="M754.651,1586.1a4.452,4.452,0,1,1,4.453-4.452A4.462,4.462,0,0,1,754.651,1586.1Zm0-6.848a2.4,2.4,0,1,0,2.4,2.4A2.405,2.405,0,0,0,754.651,1579.255Z" transform="translate(-5.555 -5.555)" fill="#222"/>
    <path id="패스_2088" data-name="패스 2088" d="M719.46,1558.176a1.018,1.018,0,0,1-.727-.305l-4.111-4.111a1.028,1.028,0,1,1,1.453-1.454l4.111,4.111a1.035,1.035,0,0,1,0,1.454A1.017,1.017,0,0,1,719.46,1558.176Z" transform="translate(-1.878 -2.974)" fill="#222"/>
    <path id="패스_2089" data-name="패스 2089" d="M715.348,1558.176a1.016,1.016,0,0,1-.726-.305,1.037,1.037,0,0,1,0-1.454l4.111-4.111a1.028,1.028,0,0,1,1.453,1.454l-4.111,4.111A1.017,1.017,0,0,1,715.348,1558.176Z" transform="translate(-1.878 -2.974)" fill="#222"/>
    <path id="패스_2090" data-name="패스 2090" d="M774.421,1549.016a1.017,1.017,0,0,1-.727-.305l-4.111-4.11a1.028,1.028,0,1,1,1.453-1.454l4.111,4.111a1.037,1.037,0,0,1,0,1.454A1.017,1.017,0,0,1,774.421,1549.016Z" transform="translate(-7.512 -2.035)" fill="#222"/>
    <path id="패스_2091" data-name="패스 2091" d="M770.31,1549.016a1.017,1.017,0,0,1-.726-.305,1.035,1.035,0,0,1,0-1.454l4.111-4.111a1.028,1.028,0,0,1,1.453,1.454l-4.111,4.11A1.019,1.019,0,0,1,770.31,1549.016Z" transform="translate(-7.512 -2.035)" fill="#222"/>
    <path id="패스_2092" data-name="패스 2092" d="M728.62,1571.916a1.016,1.016,0,0,1-.726-.305l-4.111-4.111a1.027,1.027,0,0,1,1.452-1.454l4.111,4.111a1.035,1.035,0,0,1,0,1.454A1.017,1.017,0,0,1,728.62,1571.916Z" transform="translate(-2.817 -4.382)" fill="#222"/>
    <path id="패스_2093" data-name="패스 2093" d="M724.509,1571.916a1.017,1.017,0,0,1-.726-.305,1.035,1.035,0,0,1,0-1.454l4.111-4.111a1.027,1.027,0,0,1,1.452,1.454l-4.111,4.111A1.016,1.016,0,0,1,724.509,1571.916Z" transform="translate(-2.817 -4.382)" fill="#222"/>
  </g>
</svg>
