<svg xmlns="http://www.w3.org/2000/svg" width="19.447" height="23.51" viewBox="0 0 19.447 23.51">
  <g id="그룹_164868" data-name="그룹 164868" transform="translate(9719.723 7828.755)">
    <path id="패스_83099" data-name="패스 83099" d="M-454.658,1106.439H-469.1a.319.319,0,0,0-.319.319v17.9a.319.319,0,0,0,.319.319h3.653v4.252a.319.319,0,0,0,.319.319h10.7a.32.32,0,0,0,.124-.025.318.318,0,0,0,.1-.071l0,0,3.738-3.88a.312.312,0,0,0,.059-.089c0-.009.006-.018.009-.028a.315.315,0,0,0,.017-.086c0-.006,0-.012,0-.019v-14.022a.319.319,0,0,0-.319-.319h-3.653v-4.252A.319.319,0,0,0-454.658,1106.439Zm-14.12,17.9v-17.265h13.8v13.385h-3.706a.319.319,0,0,0-.319.319v3.561h-9.777Zm13.33-3.243-2.916,2.811V1121.1Zm1.342,7.341v-2.771h2.669Zm3.1-16.793v13.385h-3.419a.319.319,0,0,0-.319.319v3.561h-10.063v-3.933h6.124a.313.313,0,0,0,.121-.025.307.307,0,0,0,.053-.034.309.309,0,0,0,.047-.031l0,0h0l4.02-3.876a.319.319,0,0,0,.1-.229v-9.133Z" transform="translate(-9250.108 -8934.994)" fill="#fff"/>
    <path id="패스_83099_-_윤곽선" data-name="패스 83099 - 윤곽선" d="M-469.1,1106.239h14.439a.519.519,0,0,1,.519.519v4.052h3.453a.519.519,0,0,1,.519.519v14.022a.222.222,0,0,1-.006.05.518.518,0,0,1-.026.119.373.373,0,0,1-.015.042l0,.005a.505.505,0,0,1-.1.144l-3.754,3.9a.514.514,0,0,1-.154.1.517.517,0,0,1-.2.041h-10.7a.519.519,0,0,1-.519-.519v-4.052H-469.1a.519.519,0,0,1-.519-.519v-17.9A.519.519,0,0,1-469.1,1106.239Zm18.529,19.09v-14a.119.119,0,0,0-.119-.119h-3.853v-4.452a.119.119,0,0,0-.119-.119H-469.1a.119.119,0,0,0-.119.119v17.9a.119.119,0,0,0,.119.119h3.853v4.452a.119.119,0,0,0,.119.119h10.7a.119.119,0,0,0,.046-.009.118.118,0,0,0,.038-.026l.014-.014,3.725-3.867a.105.105,0,0,0,.018-.027l0-.016a.115.115,0,0,0,.007-.032A.246.246,0,0,1-450.568,1125.329Zm-18.41-18.452h14.2v13.784h-3.906a.119.119,0,0,0-.119.119v3.761h-10.177Zm13.8.4h-13.4v16.865h9.376v-3.361a.519.519,0,0,1,.519-.519h3.506Zm.637,4.17h3.733v13.785h-3.619a.119.119,0,0,0-.119.119v3.761h-10.463v-4.333h6.324a.111.111,0,0,0,.037-.006h0l.025-.018.029-.018,4.014-3.87a.119.119,0,0,0,.036-.085Zm3.333.4h-2.933v8.933a.522.522,0,0,1-.158.373l-4.03,3.885a.331.331,0,0,1-.065.046l-.012.008a.349.349,0,0,1-.081.047.508.508,0,0,1-.2.039h-5.924v3.533h9.663v-3.361a.519.519,0,0,1,.519-.519h3.219Zm-7.358,9.052h3.611l-3.611,3.482Zm2.62.4h-2.22v2.14Zm1.638,4.171h3.339l-3.339,3.467Zm2.4.4h-2v2.075Z" transform="translate(-9250.108 -8934.994)" fill="#fff"/>
  </g>
</svg>
