<svg xmlns="http://www.w3.org/2000/svg" width="23.226" height="23.226" viewBox="0 0 23.226 23.226">
  <g id="그룹_164870" data-name="그룹 164870" transform="translate(9715.613 7822.613)">
    <path id="패스_83109" data-name="패스 83109" d="M-468.433,1502.567h-2.434a.856.856,0,0,1-.855-.855v-1.037a1.164,1.164,0,0,0-.792-1.1,8.817,8.817,0,0,1-1.087-.455,1.119,1.119,0,0,0-1.292.206l-.758.758a.876.876,0,0,1-1.209,0l-1.721-1.721a.856.856,0,0,1,0-1.209l.768-.767a1.119,1.119,0,0,0,.207-1.288,8.866,8.866,0,0,1-.45-1.087,1.148,1.148,0,0,0-1.086-.786h-1.067a.856.856,0,0,1-.855-.855v-2.434a.856.856,0,0,1,.855-.855h1.087a1.151,1.151,0,0,0,1.085-.78,8.825,8.825,0,0,1,.447-1.068,1.119,1.119,0,0,0-.2-1.293l-.787-.787a.849.849,0,0,1-.251-.6.849.849,0,0,1,.251-.6l1.721-1.721a.876.876,0,0,1,1.209,0l.8.8a1.121,1.121,0,0,0,1.289.207,8.869,8.869,0,0,1,1.069-.443,1.134,1.134,0,0,0,.774-1.071V1480.6a.856.856,0,0,1,.855-.855h2.434a.856.856,0,0,1,.855.855v1.116a1.133,1.133,0,0,0,.774,1.071,8.9,8.9,0,0,1,1.069.443,1.12,1.12,0,0,0,1.289-.207l.8-.8a.857.857,0,0,1,1.21,0l1.721,1.721a.849.849,0,0,1,.251.6.849.849,0,0,1-.251.6l-.787.787a1.119,1.119,0,0,0-.2,1.293,8.843,8.843,0,0,1,.447,1.068,1.151,1.151,0,0,0,1.085.78h1.087a.856.856,0,0,1,.855.855v2.434a.856.856,0,0,1-.855.855h-1.066a1.148,1.148,0,0,0-1.086.786,8.84,8.84,0,0,1-.449,1.086,1.118,1.118,0,0,0,.207,1.288l.768.768a.856.856,0,0,1,0,1.209l-1.721,1.721a.857.857,0,0,1-1.21,0l-.758-.758a1.119,1.119,0,0,0-1.292-.206,8.8,8.8,0,0,1-1.087.455,1.164,1.164,0,0,0-.792,1.1v1.037A.856.856,0,0,1-468.433,1502.567Zm-5.673-4.2a1.763,1.763,0,0,1,.79.187,8.288,8.288,0,0,0,1.008.421,1.8,1.8,0,0,1,1.224,1.7v1.037a.218.218,0,0,0,.217.218h2.434a.218.218,0,0,0,.218-.218v-1.037a1.8,1.8,0,0,1,1.223-1.7,8.262,8.262,0,0,0,1.008-.421,1.753,1.753,0,0,1,2.027.325l.758.758a.218.218,0,0,0,.308,0l1.721-1.721a.217.217,0,0,0,.064-.154.218.218,0,0,0-.064-.154l-.768-.767a1.757,1.757,0,0,1-.328-2.022,8.178,8.178,0,0,0,.417-1.008,1.785,1.785,0,0,1,1.69-1.219h1.066a.218.218,0,0,0,.218-.218v-2.434a.218.218,0,0,0-.218-.217h-1.087a1.788,1.788,0,0,1-1.687-1.211,8.2,8.2,0,0,0-.415-.991,1.757,1.757,0,0,1,.324-2.028l.787-.787a.217.217,0,0,0,.064-.154.216.216,0,0,0-.064-.154l-1.721-1.722a.218.218,0,0,0-.308,0l-.8.8a1.756,1.756,0,0,1-2.022.328,8.261,8.261,0,0,0-.991-.411,1.771,1.771,0,0,1-1.206-1.675V1480.6a.218.218,0,0,0-.218-.217h-2.434a.218.218,0,0,0-.217.217v1.116a1.771,1.771,0,0,1-1.206,1.675,8.151,8.151,0,0,0-.992.411,1.757,1.757,0,0,1-2.022-.328l-.8-.8a.222.222,0,0,0-.308,0l-1.721,1.721a.216.216,0,0,0-.064.154.214.214,0,0,0,.064.154l.787.787a1.756,1.756,0,0,1,.324,2.028,8.249,8.249,0,0,0-.415.991,1.788,1.788,0,0,1-1.687,1.211h-1.087a.217.217,0,0,0-.217.217v2.434a.218.218,0,0,0,.217.218h1.067a1.786,1.786,0,0,1,1.69,1.219,8.25,8.25,0,0,0,.417,1.008,1.756,1.756,0,0,1-.328,2.021l-.768.767a.216.216,0,0,0-.064.154.215.215,0,0,0,.064.154l1.721,1.721a.222.222,0,0,0,.308,0l.758-.758A1.746,1.746,0,0,1-474.107,1498.364Z" transform="translate(-9234.35 -9302.154)" fill="#adb0b2"/>
    <path id="패스_83109_-_윤곽선" data-name="패스 83109 - 윤곽선" d="M-468.433,1502.767h-2.434a1.056,1.056,0,0,1-1.055-1.055v-1.037a.964.964,0,0,0-.657-.909,9.037,9.037,0,0,1-1.111-.465.937.937,0,0,0-.416-.1.906.906,0,0,0-.645.266l-.758.758a1.059,1.059,0,0,1-.746.3,1.058,1.058,0,0,1-.746-.3l-1.721-1.721a1.056,1.056,0,0,1,0-1.492l.768-.768a.919.919,0,0,0,.169-1.058,9.071,9.071,0,0,1-.46-1.111.949.949,0,0,0-.9-.65h-1.067a1.056,1.056,0,0,1-1.055-1.055v-2.434a1.056,1.056,0,0,1,1.055-1.055h1.087a.951.951,0,0,0,.9-.646,9.023,9.023,0,0,1,.458-1.093.92.92,0,0,0-.167-1.062l-.787-.787a1.048,1.048,0,0,1-.309-.746,1.048,1.048,0,0,1,.309-.746l1.721-1.721a1.059,1.059,0,0,1,.746-.3,1.058,1.058,0,0,1,.746.3l.8.8a.906.906,0,0,0,.646.266.94.94,0,0,0,.414-.1,9.067,9.067,0,0,1,1.093-.453.934.934,0,0,0,.638-.882V1480.6a1.056,1.056,0,0,1,1.055-1.055h2.434a1.056,1.056,0,0,1,1.055,1.055v1.116a.933.933,0,0,0,.638.882,9.087,9.087,0,0,1,1.093.453.941.941,0,0,0,.414.1.905.905,0,0,0,.645-.266l.8-.8a1.048,1.048,0,0,1,.746-.308,1.05,1.05,0,0,1,.746.308l1.721,1.722a1.048,1.048,0,0,1,.309.746,1.048,1.048,0,0,1-.309.746l-.787.787a.919.919,0,0,0-.167,1.063,9.05,9.05,0,0,1,.457,1.093.951.951,0,0,0,.9.645h1.087a1.056,1.056,0,0,1,1.055,1.055v2.434a1.056,1.056,0,0,1-1.055,1.055h-1.066a.949.949,0,0,0-.9.65,9.043,9.043,0,0,1-.46,1.111.918.918,0,0,0,.169,1.058l.768.768a1.056,1.056,0,0,1,0,1.492l-1.721,1.721a1.049,1.049,0,0,1-.746.309,1.049,1.049,0,0,1-.746-.309l-.758-.758a.906.906,0,0,0-.645-.266.938.938,0,0,0-.416.1,8.978,8.978,0,0,1-1.111.465.964.964,0,0,0-.657.909v1.037A1.056,1.056,0,0,1-468.433,1502.767Zm-5.673-3.965a1.341,1.341,0,0,1,.594.14,8.624,8.624,0,0,0,1.062.445,1.364,1.364,0,0,1,.928,1.288v1.037a.656.656,0,0,0,.655.655h2.434a.656.656,0,0,0,.655-.655v-1.037a1.364,1.364,0,0,1,.927-1.288,8.606,8.606,0,0,0,1.062-.444,1.34,1.34,0,0,1,.595-.14,1.3,1.3,0,0,1,.928.384l.758.758a.651.651,0,0,0,.463.192.652.652,0,0,0,.464-.192l1.721-1.721a.656.656,0,0,0,0-.926l-.768-.768a1.318,1.318,0,0,1-.245-1.518,8.636,8.636,0,0,0,.439-1.062,1.348,1.348,0,0,1,1.275-.922h1.066a.656.656,0,0,0,.655-.655v-2.434a.656.656,0,0,0-.655-.655h-1.087a1.351,1.351,0,0,1-1.274-.915,8.641,8.641,0,0,0-.437-1.044,1.319,1.319,0,0,1,.242-1.524l.787-.787a.651.651,0,0,0,.192-.463.651.651,0,0,0-.192-.463l-1.721-1.721a.652.652,0,0,0-.464-.191.65.65,0,0,0-.463.191l-.8.8a1.3,1.3,0,0,1-.928.383,1.342,1.342,0,0,1-.591-.138,8.707,8.707,0,0,0-1.045-.433,1.333,1.333,0,0,1-.909-1.261V1480.6a.656.656,0,0,0-.655-.655h-2.434a.656.656,0,0,0-.655.655v1.116a1.333,1.333,0,0,1-.91,1.261,8.647,8.647,0,0,0-1.044.433,1.343,1.343,0,0,1-.591.138,1.3,1.3,0,0,1-.928-.383l-.8-.8a.656.656,0,0,0-.463-.183.657.657,0,0,0-.463.183l-1.721,1.721a.651.651,0,0,0-.192.463.651.651,0,0,0,.192.463l.787.787a1.32,1.32,0,0,1,.242,1.524,8.627,8.627,0,0,0-.437,1.044,1.351,1.351,0,0,1-1.274.915h-1.087a.656.656,0,0,0-.655.655v2.434a.656.656,0,0,0,.655.655h1.067a1.348,1.348,0,0,1,1.275.922,8.658,8.658,0,0,0,.44,1.062,1.318,1.318,0,0,1-.245,1.518l-.768.767a.656.656,0,0,0,0,.926l1.721,1.721a.655.655,0,0,0,.463.184.656.656,0,0,0,.463-.184l.758-.758A1.3,1.3,0,0,1-474.106,1498.8Zm5.673,3.327h-2.434a.418.418,0,0,1-.417-.418v-1.037a1.6,1.6,0,0,0-1.088-1.513,8.474,8.474,0,0,1-1.032-.432,1.553,1.553,0,0,0-.7-.166,1.539,1.539,0,0,0-1.1.453l-.758.758a.418.418,0,0,1-.3.12.42.42,0,0,1-.295-.12l-1.721-1.721a.415.415,0,0,1-.122-.3.415.415,0,0,1,.122-.3l.768-.767a1.556,1.556,0,0,0,.29-1.791,8.441,8.441,0,0,1-.427-1.033,1.586,1.586,0,0,0-1.5-1.083h-1.067a.418.418,0,0,1-.417-.418v-2.434a.418.418,0,0,1,.417-.417h1.087a1.588,1.588,0,0,0,1.5-1.076,8.45,8.45,0,0,1,.426-1.015,1.556,1.556,0,0,0-.287-1.8l-.787-.787a.412.412,0,0,1-.122-.295.415.415,0,0,1,.122-.3l1.721-1.721a.418.418,0,0,1,.295-.12.42.42,0,0,1,.3.12l.8.8a1.54,1.54,0,0,0,1.1.453,1.577,1.577,0,0,0,.7-.163,8.373,8.373,0,0,1,1.016-.422,1.571,1.571,0,0,0,1.071-1.486V1480.6a.418.418,0,0,1,.417-.417h2.434a.418.418,0,0,1,.418.417v1.116a1.57,1.57,0,0,0,1.071,1.486,8.46,8.46,0,0,1,1.016.421,1.583,1.583,0,0,0,.7.163,1.538,1.538,0,0,0,1.1-.453l.8-.8a.414.414,0,0,1,.3-.122.415.415,0,0,1,.3.122l1.721,1.722a.414.414,0,0,1,.122.3.416.416,0,0,1-.122.295l-.788.787a1.557,1.557,0,0,0-.287,1.8,8.4,8.4,0,0,1,.425,1.015,1.588,1.588,0,0,0,1.5,1.076h1.087a.418.418,0,0,1,.418.417v2.434a.418.418,0,0,1-.418.418h-1.066a1.586,1.586,0,0,0-1.5,1.083,8.38,8.38,0,0,1-.428,1.033,1.557,1.557,0,0,0,.29,1.791l.768.767a.417.417,0,0,1,.122.3.416.416,0,0,1-.122.295l-1.722,1.722a.416.416,0,0,1-.3.122.415.415,0,0,1-.295-.122l-.758-.758a1.539,1.539,0,0,0-1.1-.453,1.575,1.575,0,0,0-.7.166,8.46,8.46,0,0,1-1.033.432,1.6,1.6,0,0,0-1.088,1.513v1.037A.418.418,0,0,1-468.433,1502.129Zm-5.673-3.965a1.976,1.976,0,0,1,.88.208,8.091,8.091,0,0,0,.983.411,2,2,0,0,1,1.359,1.891v1.037a.018.018,0,0,0,.017.018h2.434a.018.018,0,0,0,.018-.018v-1.037a2,2,0,0,1,1.359-1.891,8.069,8.069,0,0,0,.984-.411,1.976,1.976,0,0,1,.879-.208,1.936,1.936,0,0,1,1.378.571l.758.758a.019.019,0,0,0,.025,0l1.721-1.721a.016.016,0,0,0,.005-.012.018.018,0,0,0-.006-.013l-.767-.767a1.957,1.957,0,0,1-.366-2.252,7.988,7.988,0,0,0,.407-.984,1.985,1.985,0,0,1,1.879-1.355h1.066a.018.018,0,0,0,.018-.018v-2.434a.018.018,0,0,0-.018-.017h-1.087a1.988,1.988,0,0,1-1.876-1.345,7.994,7.994,0,0,0-.405-.967,1.957,1.957,0,0,1,.362-2.259l.787-.787a.016.016,0,0,0,.005-.012.016.016,0,0,0-.005-.012l-1.721-1.722a.018.018,0,0,0-.025,0l-.8.8a1.934,1.934,0,0,1-1.378.57,1.983,1.983,0,0,1-.874-.2,8.071,8.071,0,0,0-.967-.4,1.97,1.97,0,0,1-1.342-1.865V1480.6a.018.018,0,0,0-.018-.017h-2.434a.018.018,0,0,0-.017.017v1.116a1.971,1.971,0,0,1-1.342,1.865,7.955,7.955,0,0,0-.968.4,1.979,1.979,0,0,1-.872.2,1.938,1.938,0,0,1-1.38-.57l-.8-.8a.074.074,0,0,0-.024,0l-1.722,1.722a.016.016,0,0,0-.005.013.015.015,0,0,0,0,.011l.787.788a1.955,1.955,0,0,1,.362,2.259,8.049,8.049,0,0,0-.405.966,1.988,1.988,0,0,1-1.876,1.346h-1.087a.017.017,0,0,0-.017.017v2.434a.018.018,0,0,0,.017.018h1.067a1.986,1.986,0,0,1,1.879,1.355,8.036,8.036,0,0,0,.407.984,1.956,1.956,0,0,1-.365,2.251l-.768.767a.016.016,0,0,0-.005.013.016.016,0,0,0,.005.012l1.721,1.721a.022.022,0,0,0,.012,0,.021.021,0,0,0,.012,0l.758-.758A1.936,1.936,0,0,1-474.107,1498.164Z" transform="translate(-9234.35 -9302.154)" fill="#adb0b2"/>
    <path id="패스_83110" data-name="패스 83110" d="M-462.116,1505.059a6.377,6.377,0,0,1-6.371-6.37,6.378,6.378,0,0,1,6.371-6.371,6.378,6.378,0,0,1,6.37,6.371A6.377,6.377,0,0,1-462.116,1505.059Zm0-12.1a5.74,5.74,0,0,0-5.733,5.733,5.739,5.739,0,0,0,5.733,5.733,5.739,5.739,0,0,0,5.733-5.733A5.739,5.739,0,0,0-462.116,1492.955Z" transform="translate(-9241.884 -9309.688)" fill="#adb0b2"/>
    <path id="패스_83110_-_윤곽선" data-name="패스 83110 - 윤곽선" d="M-462.116,1505.259a6.578,6.578,0,0,1-6.571-6.57,6.578,6.578,0,0,1,6.571-6.571,6.578,6.578,0,0,1,6.57,6.571A6.577,6.577,0,0,1-462.116,1505.259Zm0-12.741a6.178,6.178,0,0,0-6.171,6.171,6.177,6.177,0,0,0,6.171,6.17,6.177,6.177,0,0,0,6.17-6.17A6.177,6.177,0,0,0-462.116,1492.518Zm0,12.1a5.939,5.939,0,0,1-5.933-5.932,5.94,5.94,0,0,1,5.933-5.933,5.94,5.94,0,0,1,5.933,5.933A5.939,5.939,0,0,1-462.116,1504.621Zm0-11.466a5.539,5.539,0,0,0-5.533,5.533,5.539,5.539,0,0,0,5.533,5.533,5.539,5.539,0,0,0,5.533-5.533A5.539,5.539,0,0,0-462.116,1493.155Z" transform="translate(-9241.884 -9309.688)" fill="#adb0b2"/>
  </g>
</svg>
