<svg xmlns="http://www.w3.org/2000/svg" width="15.702" height="23.272" viewBox="0 0 15.702 23.272">
  <g id="그룹_164866" data-name="그룹 164866" transform="translate(-26.148 -274.364)">
    <path id="패스_83111" data-name="패스 83111" d="M-452.586,941.22a.319.319,0,0,1-.217-.086l-5.617-5.239a.319.319,0,0,1-.1-.233v-4.2a.319.319,0,0,1,.319-.319h11.235a.319.319,0,0,1,.319.319v4.2a.318.318,0,0,1-.1.233l-5.618,5.239A.318.318,0,0,1-452.586,941.22Zm-5.3-5.7,5.3,4.942,5.3-4.942v-3.747h-10.6Zm10.916.139h0Z" transform="translate(486.586 -654.977)" fill="#adb0b2"/>
    <path id="패스_83111_-_윤곽선" data-name="패스 83111 - 윤곽선" d="M-452.586,941.42a.518.518,0,0,1-.353-.139l-5.618-5.239a.52.52,0,0,1-.165-.379v-4.2a.519.519,0,0,1,.519-.519h11.235a.52.52,0,0,1,.519.519v4.2a.519.519,0,0,1-.166.38l-5.617,5.239A.517.517,0,0,1-452.586,941.42Zm-5.617-10.081a.119.119,0,0,0-.119.119v4.2a.119.119,0,0,0,.038.087l5.617,5.239a.121.121,0,0,0,.162,0l5.54-5.166,0-.359h0v.359l.078-.072a.119.119,0,0,0,.038-.087v-4.2a.119.119,0,0,0-.119-.119Zm5.617,9.4-5.5-5.129v-4.034h11v4.034l-.064.059Zm-5.1-5.3,5.1,4.755,5.1-4.755v-3.46h-10.2Z" transform="translate(486.586 -654.977)" fill="#adb0b2"/>
    <path id="패스_83112" data-name="패스 83112" d="M-446.969,964.8H-458.2a.319.319,0,0,1-.319-.319v-4.416a.32.32,0,0,1,.1-.233l5.617-5.239a.319.319,0,0,1,.435,0l5.618,5.239a.319.319,0,0,1,.1.233v4.416A.319.319,0,0,1-446.969,964.8Zm-10.916-.638h10.6V960.2l-5.3-4.942-5.3,4.942Z" transform="translate(486.586 -668.974)" fill="#adb0b2"/>
    <path id="패스_83112_-_윤곽선" data-name="패스 83112 - 윤곽선" d="M-446.969,965H-458.2a.519.519,0,0,1-.519-.519v-4.416a.522.522,0,0,1,.165-.379l5.618-5.24a.518.518,0,0,1,.354-.139.516.516,0,0,1,.354.139l5.617,5.239a.521.521,0,0,1,.165.38v4.416A.52.52,0,0,1-446.969,965Zm-5.617-10.292a.119.119,0,0,0-.081.032l-5.617,5.239a.12.12,0,0,0-.038.087v4.416a.119.119,0,0,0,.119.119h11.235a.119.119,0,0,0,.119-.119v-4.416a.118.118,0,0,0-.038-.087l-5.618-5.239A.118.118,0,0,0-452.586,954.7Zm5.5,9.655h-11v-4.245l.064-.059,5.435-5.069,5.5,5.128Zm-10.6-.4h10.2v-3.671l-5.1-4.755-5.1,4.755Z" transform="translate(486.586 -668.974)" fill="#adb0b2"/>
    <path id="패스_83113" data-name="패스 83113" d="M-447.816,927.79H-462.48a.319.319,0,0,1-.319-.319.319.319,0,0,1,.319-.319h14.664a.319.319,0,0,1,.319.319A.319.319,0,0,1-447.816,927.79Z" transform="translate(489.147 -652.588)" fill="#adb0b2"/>
    <path id="패스_83113_-_윤곽선" data-name="패스 83113 - 윤곽선" d="M-447.816,927.99H-462.48a.52.52,0,0,1-.519-.519.519.519,0,0,1,.519-.519h14.664a.52.52,0,0,1,.519.519A.52.52,0,0,1-447.816,927.99Zm-14.664-.638a.119.119,0,0,0-.119.119.119.119,0,0,0,.119.119h14.664a.119.119,0,0,0,.119-.119.119.119,0,0,0-.119-.119Z" transform="translate(489.147 -652.588)" fill="#adb0b2"/>
    <path id="패스_83114" data-name="패스 83114" d="M-447.816,983.245H-462.48a.319.319,0,0,1-.319-.319.319.319,0,0,1,.319-.319h14.664a.319.319,0,0,1,.319.319A.319.319,0,0,1-447.816,983.245Z" transform="translate(489.147 -685.809)" fill="#adb0b2"/>
    <path id="패스_83114_-_윤곽선" data-name="패스 83114 - 윤곽선" d="M-447.816,983.445H-462.48a.519.519,0,0,1-.519-.519.519.519,0,0,1,.519-.519h14.664a.52.52,0,0,1,.519.519A.52.52,0,0,1-447.816,983.445Zm-14.664-.638a.119.119,0,0,0-.119.119.119.119,0,0,0,.119.119h14.664a.119.119,0,0,0,.119-.119.119.119,0,0,0-.119-.119Z" transform="translate(489.147 -685.809)" fill="#adb0b2"/>
    <path id="패스_83115" data-name="패스 83115" d="M-436.83,936.811H-438.8a.318.318,0,0,1-.319-.319.319.319,0,0,1,.319-.319h1.966a.319.319,0,0,1,.319.319A.318.318,0,0,1-436.83,936.811Z" transform="translate(474.96 -657.993)" fill="#adb0b2"/>
    <path id="패스_83115_-_윤곽선" data-name="패스 83115 - 윤곽선" d="M-436.83,937.011H-438.8a.519.519,0,0,1-.519-.519.519.519,0,0,1,.519-.519h1.966a.519.519,0,0,1,.519.519A.519.519,0,0,1-436.83,937.011Zm-1.966-.637a.119.119,0,0,0-.119.119.119.119,0,0,0,.119.119h1.966a.119.119,0,0,0,.119-.119.119.119,0,0,0-.119-.119Z" transform="translate(474.96 -657.993)" fill="#adb0b2"/>
  </g>
</svg>
