<svg xmlns="http://www.w3.org/2000/svg" width="18.904" height="23.397" viewBox="0 0 18.904 23.397">
  <g id="그룹_164867" data-name="그룹 164867" transform="translate(-24.548 -224.301)">
    <path id="패스_83103" data-name="패스 83103" d="M-451.443,864.235h-9.41v-4.466a6.615,6.615,0,0,1,6.607-6.607,6.579,6.579,0,0,1,5.9,3.637.319.319,0,0,0,.428.141.319.319,0,0,0,.141-.428,7.211,7.211,0,0,0-4.575-3.735,5.647,5.647,0,0,0,3.609-5.257,5.649,5.649,0,0,0-5.643-5.643,5.649,5.649,0,0,0-5.642,5.643,5.647,5.647,0,0,0,3.73,5.3,7.257,7.257,0,0,0-5.2,6.948v4.785a.319.319,0,0,0,.319.319h9.729a.319.319,0,0,0,.319-.319A.319.319,0,0,0-451.443,864.235Zm-7.944-16.716a5.011,5.011,0,0,1,5-5.005,5.011,5.011,0,0,1,5.005,5.005,5.011,5.011,0,0,1-5.005,5A5.011,5.011,0,0,1-459.387,847.519Z" transform="translate(486.239 -617.375)" fill="#adb0b2"/>
    <path id="패스_83103_-_윤곽선" data-name="패스 83103 - 윤곽선" d="M-451.443,865.073h-9.729a.519.519,0,0,1-.519-.519v-4.785a7.368,7.368,0,0,1,1.514-4.494,7.535,7.535,0,0,1,3.314-2.474,5.86,5.86,0,0,1-3.362-5.282,5.849,5.849,0,0,1,5.842-5.843,5.849,5.849,0,0,1,5.843,5.843,5.787,5.787,0,0,1-1.05,3.334,5.857,5.857,0,0,1-2.189,1.89,7.45,7.45,0,0,1,4.184,3.678.515.515,0,0,1,.029.4.515.515,0,0,1-.259.3.517.517,0,0,1-.233.056.517.517,0,0,1-.464-.285,6.379,6.379,0,0,0-5.725-3.527,6.415,6.415,0,0,0-6.407,6.407v4.266h9.21a.519.519,0,0,1,.519.519A.52.52,0,0,1-451.443,865.073Zm-2.939-23a5.449,5.449,0,0,0-5.442,5.443,5.459,5.459,0,0,0,3.6,5.114l.573.207-.584.173a7.088,7.088,0,0,0-5.053,6.756v4.785a.119.119,0,0,0,.119.119h9.729a.119.119,0,0,0,.119-.119.119.119,0,0,0-.119-.119h-9.61v-4.667a6.815,6.815,0,0,1,6.807-6.807,6.777,6.777,0,0,1,6.082,3.747.121.121,0,0,0,.159.053.118.118,0,0,0,.06-.069.118.118,0,0,0-.007-.091,7.042,7.042,0,0,0-4.448-3.632l-.59-.159.569-.221a5.48,5.48,0,0,0,3.481-5.071A5.449,5.449,0,0,0-454.382,842.076Zm0,10.648a5.211,5.211,0,0,1-5.2-5.2,5.211,5.211,0,0,1,5.2-5.205,5.211,5.211,0,0,1,5.205,5.205A5.211,5.211,0,0,1-454.382,852.724Zm0-10.01a4.811,4.811,0,0,0-4.8,4.805,4.81,4.81,0,0,0,4.8,4.8,4.811,4.811,0,0,0,4.805-4.8A4.811,4.811,0,0,0-454.382,842.714Z" transform="translate(486.239 -617.375)" fill="#adb0b2"/>
    <path id="패스_83104" data-name="패스 83104" d="M-426.6,882.551a.318.318,0,0,0-.45.032l-4.963,5.715-1.343-2.39a.318.318,0,0,0-.434-.121.319.319,0,0,0-.122.434l1.564,2.785a.318.318,0,0,0,.245.161l.033,0a.319.319,0,0,0,.241-.11l5.26-6.057A.318.318,0,0,0-426.6,882.551Z" transform="translate(469.74 -641.694)" fill="#adb0b2"/>
    <path id="패스_83104_-_윤곽선" data-name="패스 83104 - 윤곽선" d="M-426.807,882.273a.519.519,0,0,1,.34.127.515.515,0,0,1,.177.355.515.515,0,0,1-.126.376l-5.26,6.057a.519.519,0,0,1-.392.179l-.047,0h-.006a.518.518,0,0,1-.4-.262l-1.564-2.784a.516.516,0,0,1-.047-.394.515.515,0,0,1,.246-.312.516.516,0,0,1,.254-.067.52.52,0,0,1,.452.264l1.2,2.143,4.777-5.5A.517.517,0,0,1-426.807,882.273Zm-5.259,6.695a.119.119,0,0,0,.09-.041l5.26-6.057a.117.117,0,0,0,.029-.086.118.118,0,0,0-.041-.081.118.118,0,0,0-.078-.029.117.117,0,0,0-.089.041l-5.149,5.93-1.482-2.638a.121.121,0,0,0-.161-.045.119.119,0,0,0-.057.072.118.118,0,0,0,.011.09l1.564,2.784a.118.118,0,0,0,.089.06Z" transform="translate(469.74 -641.694)" fill="#adb0b2"/>
  </g>
</svg>
