<svg xmlns="http://www.w3.org/2000/svg" width="23.679" height="20.558" viewBox="0 0 23.679 20.558">
  <g id="그룹_164865" data-name="그룹 164865" transform="translate(-20.161 -476.721)">
    <path id="패스_83097" data-name="패스 83097" d="M-453.067,1033.4h-7.069v-7.968a.319.319,0,0,0-.319-.319h-15.253a.319.319,0,0,0-.319.319v11.538a.319.319,0,0,0,.319.319h3.462v3.205a.319.319,0,0,0,.19.292.32.32,0,0,0,.128.027.318.318,0,0,0,.215-.084l3.755-3.44h3.2v5.035a.319.319,0,0,0,.319.319h5.564l2.777,2.545a.318.318,0,0,0,.215.084.321.321,0,0,0,.129-.027.319.319,0,0,0,.19-.292v-2.309h2.5a.319.319,0,0,0,.319-.319v-8.605A.319.319,0,0,0-453.067,1033.4Zm-15.015,3.251a.32.32,0,0,0-.215.084l-3.312,3.035v-2.8a.319.319,0,0,0-.319-.319h-3.462v-10.9h14.615v7.65h-3.669a.319.319,0,0,0-.319.319v2.932Zm14.7,5.354h-2.5a.319.319,0,0,0-.319.319v1.9l-2.334-2.139a.318.318,0,0,0-.215-.084h-5.369v-7.968h10.739Z" transform="translate(496.388 -548.19)" fill="#fff"/>
    <path id="패스_83097_-_윤곽선" data-name="패스 83097 - 윤곽선" d="M-475.708,1024.911h15.253a.519.519,0,0,1,.519.519v7.768h6.869a.519.519,0,0,1,.519.519v8.605a.519.519,0,0,1-.519.519h-2.3v2.109a.519.519,0,0,1-.31.475.518.518,0,0,1-.209.044.517.517,0,0,1-.351-.136l-2.719-2.492h-5.486a.519.519,0,0,1-.519-.519v-4.835h-2.918l-3.7,3.388a.517.517,0,0,1-.35.136.517.517,0,0,1-.208-.044.519.519,0,0,1-.31-.475v-3.005h-3.262a.519.519,0,0,1-.519-.519V1025.43A.519.519,0,0,1-475.708,1024.911Zm22.641,17.53a.119.119,0,0,0,.119-.119v-8.605a.119.119,0,0,0-.119-.119h-7.269v-8.168a.119.119,0,0,0-.119-.119h-15.253a.119.119,0,0,0-.119.119v11.538a.119.119,0,0,0,.119.119h3.662v3.405a.119.119,0,0,0,.071.109.12.12,0,0,0,.128-.021l3.812-3.493h3.473v5.235a.119.119,0,0,0,.119.119h5.642l2.834,2.6a.121.121,0,0,0,.129.021.119.119,0,0,0,.071-.109v-2.509Zm-22.522-16.893h15.016v8.05h-3.869a.119.119,0,0,0-.119.119v3.132h-3.52a.119.119,0,0,0-.08.031l-3.647,3.342v-3.254a.119.119,0,0,0-.119-.119h-3.662Zm14.615.4H-475.19v10.5h3.262a.519.519,0,0,1,.519.519v2.345l2.977-2.728a.518.518,0,0,1,.35-.136h3.12v-2.733a.519.519,0,0,1,.519-.519h3.469Zm-3.351,7.887h11.139v8.368h-2.7a.119.119,0,0,0-.119.119v2.359l-2.669-2.446a.118.118,0,0,0-.08-.031h-5.569Zm3.794.4h-3.394v7.568h5.169a.517.517,0,0,1,.351.137l2,1.832v-1.45a.519.519,0,0,1,.519-.519h2.3v-7.568h-6.791l-.075.069Z" transform="translate(496.388 -548.19)" fill="#fff"/>
    <path id="패스_83098" data-name="패스 83098" d="M-437.937,1052.652h-2.524a.319.319,0,0,0-.319.319.319.319,0,0,0,.319.319h2.524v2.046a.319.319,0,0,0,.319.319.319.319,0,0,0,.319-.319v-2.046h2.524a.319.319,0,0,0,.319-.319.319.319,0,0,0-.319-.319H-437.3v-2.444a.319.319,0,0,0-.319-.319.319.319,0,0,0-.319.319Z" transform="translate(475.271 -563.033)" fill="#fff"/>
    <path id="패스_83098_-_윤곽선" data-name="패스 83098 - 윤곽선" d="M-437.618,1049.689a.519.519,0,0,1,.519.519v2.244h2.324a.519.519,0,0,1,.519.519.519.519,0,0,1-.519.519H-437.1v1.846a.519.519,0,0,1-.519.519.519.519,0,0,1-.519-.519v-1.846h-2.324a.519.519,0,0,1-.519-.519.519.519,0,0,1,.519-.519h2.324v-2.244A.519.519,0,0,1-437.618,1049.689Zm2.842,3.4a.119.119,0,0,0,.119-.119.119.119,0,0,0-.119-.119H-437.5v-2.644a.119.119,0,0,0-.119-.119.119.119,0,0,0-.119.119v2.644h-2.724a.119.119,0,0,0-.119.119.119.119,0,0,0,.119.119h2.724v2.246a.119.119,0,0,0,.119.119.119.119,0,0,0,.119-.119v-2.246Z" transform="translate(475.271 -563.033)" fill="#fff"/>
  </g>
</svg>
