<svg xmlns="http://www.w3.org/2000/svg" width="24.096" height="21.042" viewBox="0 0 24.096 21.042">
  <g id="그룹_164869" data-name="그룹 164869" transform="translate(-20.952 -175.479)">
    <path id="패스_83092" data-name="패스 83092" d="M-448.386,764.77h-23.058a.319.319,0,0,0-.319.319.319.319,0,0,0,.319.319h11.21v2.324h-8.335a.319.319,0,0,0-.319.319V779.5a.319.319,0,0,0,.319.319h7.854l-5.317,5.042a.318.318,0,0,0-.012.45.319.319,0,0,0,.451.012l5.359-5.081v4.851a.319.319,0,0,0,.319.319.319.319,0,0,0,.319-.319v-4.84l5.237,5.069a.319.319,0,0,0,.222.09.317.317,0,0,0,.229-.1.319.319,0,0,0-.007-.451l-5.212-5.044h7.761a.319.319,0,0,0,.319-.319v-11.45a.319.319,0,0,0-.319-.319h-8.23v-2.324h11.211a.319.319,0,0,0,.319-.319A.319.319,0,0,0-448.386,764.77Zm-3.3,14.412H-468.25V768.37h16.564Z" transform="translate(492.915 -589.091)" fill="#adb0b2"/>
    <path id="패스_83092_-_윤곽선" data-name="패스 83092 - 윤곽선" d="M-471.444,764.57h23.058a.52.52,0,0,1,.519.519.519.519,0,0,1-.519.519H-459.4v1.924h8.03a.519.519,0,0,1,.519.519V779.5a.519.519,0,0,1-.519.519h-7.266l4.857,4.7a.519.519,0,0,1,.011.734.519.519,0,0,1-.372.158.517.517,0,0,1-.36-.146l-4.9-4.741v4.368a.519.519,0,0,1-.519.519.519.519,0,0,1-.519-.519v-4.385l-5.022,4.761a.517.517,0,0,1-.357.142.521.521,0,0,1-.376-.162.515.515,0,0,1-.142-.371.515.515,0,0,1,.162-.362l4.953-4.7h-7.353a.519.519,0,0,1-.519-.519v-11.45a.519.519,0,0,1,.519-.519h8.135v-1.924h-11.01a.519.519,0,0,1-.519-.519A.52.52,0,0,1-471.444,764.57Zm23.058.638a.119.119,0,0,0,.119-.119.119.119,0,0,0-.119-.119h-23.058a.119.119,0,0,0-.119.119.119.119,0,0,0,.119.119h11.41v2.724h-8.535a.119.119,0,0,0-.119.119V779.5a.119.119,0,0,0,.119.119h8.356l-5.681,5.387a.118.118,0,0,0-.037.083.117.117,0,0,0,.032.085.121.121,0,0,0,.168,0l5.7-5.4v5.316a.119.119,0,0,0,.119.119.119.119,0,0,0,.119-.119v-5.312l5.577,5.4a.121.121,0,0,0,.167,0,.119.119,0,0,0,0-.169l-5.567-5.387h8.255a.119.119,0,0,0,.119-.119v-11.45a.119.119,0,0,0-.119-.119h-8.43v-2.724Zm-20.065,2.962h16.964v11.213H-468.45Zm16.564.4H-468.05v10.413h16.164Z" transform="translate(492.915 -589.091)" fill="#adb0b2"/>
    <path id="패스_83093" data-name="패스 83093" d="M-451.648,780.736v3.905h-2.311V779.3a.319.319,0,0,0-.319-.319.319.319,0,0,0-.319.319v5.34h-2.471a.319.319,0,0,0-.319.319.319.319,0,0,0,.319.319h11.543a.319.319,0,0,0,.319-.319.319.319,0,0,0-.319-.319h-2.59V782.29a.319.319,0,0,0-.319-.319.319.319,0,0,0-.319.319v2.351h-2.258v-3.905a.319.319,0,0,0-.319-.319A.319.319,0,0,0-451.648,780.736Z" transform="translate(484.303 -597.605)" fill="#adb0b2"/>
    <path id="패스_83093_-_윤곽선" data-name="패스 83093 - 윤곽선" d="M-454.277,778.783a.519.519,0,0,1,.519.519v5.14h1.911v-3.705a.519.519,0,0,1,.519-.519.519.519,0,0,1,.519.519v3.705h1.858V782.29a.519.519,0,0,1,.519-.519.519.519,0,0,1,.519.519v2.151h2.39a.519.519,0,0,1,.519.519.519.519,0,0,1-.519.519h-11.543a.519.519,0,0,1-.519-.519.519.519,0,0,1,.519-.519h2.271V779.3A.519.519,0,0,1-454.277,778.783Zm2.83,6.059h-2.711V779.3a.119.119,0,0,0-.119-.119.119.119,0,0,0-.119.119v5.54h-2.671a.119.119,0,0,0-.119.119.119.119,0,0,0,.119.119h11.543a.119.119,0,0,0,.119-.119.119.119,0,0,0-.119-.119h-2.79V782.29a.119.119,0,0,0-.119-.119.119.119,0,0,0-.119.119v2.551h-2.659v-4.105a.119.119,0,0,0-.119-.119.119.119,0,0,0-.119.119Z" transform="translate(484.303 -597.605)" fill="#adb0b2"/>
  </g>
</svg>
