<svg xmlns="http://www.w3.org/2000/svg" xmlns:xlink="http://www.w3.org/1999/xlink" width="800" height="2282" viewBox="0 0 800 2282">
  <defs>
    <clipPath id="clip-path">
      <rect id="사각형_153071" data-name="사각형 153071" width="800" height="2282" fill="#fff"/>
    </clipPath>
  </defs>
  <g id="마스크_그룹_5" data-name="마스크 그룹 5" clip-path="url(#clip-path)">
    <path id="패스_86326" data-name="패스 86326" d="M2512.56,2282H1000.479c87.08-174.823,225.1-324.3,397.767-416.087,98.319-52.265,205.1-86.787,305.054-135.864s196.074-116.218,249.9-213.7S2008.139,1286.142,2512.56,2282Z" transform="translate(-805.021)" fill="#ecf5ff"/>
    <path id="패스_86280" data-name="패스 86280" d="M2021.5,0V1836H804.942c70.061-140.655,181.11-260.919,320.026-334.766,79.1-42.05,165.016-69.825,245.433-109.311s157.753-93.5,201.059-171.93,44.2-185.218-16.69-250.93c-59.114-63.8-155.825-73.216-242.742-70.072s-178.391,13.822-257.115-23.151C910.553,808.046,876.323,618.021,766.22,502.634c-76.343-80-185.149-119.506-291.6-149.473s-216.849-53.91-311.059-111.818C77.531,188.46,6.019,99.133,0,0Z" transform="translate(13.72)" fill="#ecf5ff"/>
    <text id="_404_Not_Found" data-name="404 Not Found" transform="translate(1100 1025)" fill="#202020" font-size="60" font-family="Pretendard-Bold, Pretendard" font-weight="700"><tspan x="0" y="0">404 Not Found</tspan></text>
    <text id="원하시는_페이지를_찾을_수_없습니다" data-name="원하시는 페이지를 찾을 수 없습니다" transform="translate(1024 1087)" fill="#202020" font-size="40" font-family="Pretendard-Bold, Pretendard" font-weight="700"><tspan x="0" y="0">원하시는 페이지를 찾을 수 없습니다</tspan></text>
    <g id="그룹_167590" data-name="그룹 167590" transform="translate(910 765)">
      <text id="페이지가_존재하지_않거나_사용할_수_없는_페이지입니다._입력하신_페이지의_주소가_정확한지_다시_한번_확인해주세요." data-name="페이지가 존재하지 않거나, 사용할 수 없는 페이지입니다.
입력하신 페이지의 주소가 정확한지 다시 한번 확인해주세요." transform="translate(401 371)" fill="#202020" font-size="20" font-family="Pretendard-Regular, Pretendard"><tspan x="-218.955" y="0">페이지가 존재하지 않거나, 사용할 수 없는 페이지입니다.</tspan><tspan x="-233.662" y="30">입력하신 페이지의 주소가 정확한지 다시 한번 확인해주세요.</tspan></text>
      <g id="그룹_167586" data-name="그룹 167586" transform="translate(-7 -245)">
        <rect id="사각형_153054" data-name="사각형 153054" width="200" height="60" rx="10" transform="translate(412 711)" fill="#132262"/>
        <text id="홈으로" transform="translate(512 747)" fill="#fff" font-size="16" font-family="Pretendard-Bold, Pretendard" font-weight="700"><tspan x="-20.742" y="0">홈으로</tspan></text>
      </g>
      <g id="그룹_167587" data-name="그룹 167587" transform="translate(-7 -245)">
        <rect id="사각형_153055" data-name="사각형 153055" width="200" height="60" rx="10" transform="translate(202 711)" fill="#e1e7ee"/>
        <text id="이전_페이지로_이동" data-name="이전 페이지로 이동" transform="translate(302 747)" fill="#202020" font-size="16" font-family="Pretendard-Bold, Pretendard" font-weight="700"><tspan x="-59" y="0">이전 페이지로 이동</tspan></text>
      </g>
    </g>
    <g id="그룹_167591" data-name="그룹 167591" transform="translate(276 60)" opacity="0">
      <path id="패스_86290" data-name="패스 86290" d="M1470.883,0V11.937H1112.5a34.625,34.625,0,0,0-34.589,34.589V203.377H1065.97V46.525A46.579,46.579,0,0,1,1112.5,0Z" transform="translate(-939.943)" fill="#202020"/>
      <path id="패스_86291" data-name="패스 86291" d="M1057.959,577.43V553.644a10.283,10.283,0,0,0-10.282-10.282h-18.234a10.256,10.256,0,0,0-7.823,3.612v0a10.238,10.238,0,0,0-2.456,6.668V577.43Z" transform="translate(-906.563 -387.485)" fill="#545454"/>
      <path id="패스_86292" data-name="패스 86292" d="M1027.847,704.258V656.747a13.286,13.286,0,0,0-13.288-13.285H961.8a13.286,13.286,0,0,0-13.285,13.285v47.511Z" transform="translate(-856.185 -458.869)" fill="#e4e8ef"/>
      <path id="패스_86293" data-name="패스 86293" d="M927.715,865.848h88.775a1.744,1.744,0,0,0,1.744-1.744v-6.972a1.744,1.744,0,0,0-1.744-1.744H927.715a1.745,1.745,0,0,0-1.745,1.744V864.1a1.744,1.744,0,0,0,1.745,1.744" transform="translate(-840.107 -609.998)" fill="#d9dee5"/>
      <path id="패스_86294" data-name="패스 86294" d="M1027.847,704.258V656.747a13.286,13.286,0,0,0-13.288-13.285H961.8a13.286,13.286,0,0,0-13.285,13.285c56.964,3.958,62.2,47.511,62.2,47.511Z" transform="translate(-856.185 -458.869)" fill="#e4e8ef"/>
      <rect id="사각형_153051" data-name="사각형 153051" width="79.329" height="3.831" transform="translate(92.333 241.558)" fill="#c1c8d1"/>
      <path id="패스_86295" data-name="패스 86295" d="M1099.951,684.177v-27.43a13.287,13.287,0,0,0-13.288-13.285h-37.035c37.4,0,50.323,40.715,50.323,40.715" transform="translate(-928.29 -458.869)" fill="#d9dee5"/>
      <rect id="사각형_153052" data-name="사각형 153052" width="38.794" height="2.483" transform="translate(112.6 182.11)" fill="#141e41"/>
      <path id="패스_86296" data-name="패스 86296" d="M1064.065,572.078V553.644a10.283,10.283,0,0,0-10.282-10.282h-18.234a10.254,10.254,0,0,0-7.823,3.612v0c28.421-3.486,32.76,25.1,32.76,25.1Z" transform="translate(-912.671 -387.485)" fill="#202020"/>
      <path id="패스_86297" data-name="패스 86297" d="M654.6,1019.652H630.041a3.381,3.381,0,1,1,0-6.763H654.6a3.381,3.381,0,1,1,0,6.763" transform="translate(-626.66 -722.318)" fill="#ffb709"/>
      <path id="패스_86298" data-name="패스 86298" d="M824.337,849.918a3.381,3.381,0,0,1-3.381-3.382V821.973a3.381,3.381,0,1,1,6.763,0v24.563a3.381,3.381,0,0,1-3.382,3.382" transform="translate(-765.218 -583.759)" fill="#ffb709"/>
      <path id="패스_86299" data-name="패스 86299" d="M703.822,899.137a3.371,3.371,0,0,1-2.391-.99l-16.874-16.874a3.381,3.381,0,0,1,4.782-4.782l16.874,16.874a3.381,3.381,0,0,1-2.391,5.772" transform="translate(-667.242 -624.342)" fill="#ffb709"/>
    </g>
    <g id="그룹_167592" data-name="그룹 167592" transform="translate(7697.063 7557)" opacity="0">
      <path id="패스_86282" data-name="패스 86282" d="M1057.959,1621.138v23.786a10.283,10.283,0,0,1-10.282,10.282h-18.234a10.257,10.257,0,0,1-7.823-3.611v0a10.236,10.236,0,0,1-2.456-6.668v-23.786Z" transform="translate(-8337.879 -8264.421)" fill="#545454"/>
      <path id="패스_86283" data-name="패스 86283" d="M1027.847,1427.866v47.511a13.286,13.286,0,0,1-13.288,13.285H961.8a13.286,13.286,0,0,1-13.285-13.285v-47.511Z" transform="translate(-8287.501 -8126.592)" fill="#e4e8ef"/>
      <path id="패스_86284" data-name="패스 86284" d="M927.715,1391.4h88.775a1.744,1.744,0,0,1,1.744,1.744v6.972a1.744,1.744,0,0,1-1.744,1.744H927.715a1.745,1.745,0,0,1-1.745-1.744v-6.972a1.744,1.744,0,0,1,1.745-1.744" transform="translate(-8271.423 -8100.592)" fill="#d9dee5"/>
      <path id="패스_86285" data-name="패스 86285" d="M1011.672,1294.223h-13.52v-32.334a6.76,6.76,0,1,1,13.52,0Z" transform="translate(-8322.896 -8003.41)" fill="#efefef"/>
      <path id="패스_86286" data-name="패스 86286" d="M1141.8,1294.223h-13.52v-32.334a6.76,6.76,0,1,1,13.52,0Z" transform="translate(-8415.691 -8003.41)" fill="#efefef"/>
      <path id="패스_86287" data-name="패스 86287" d="M1027.847,1427.866v47.511a13.286,13.286,0,0,1-13.288,13.285H961.8a13.286,13.286,0,0,1-13.285-13.285c56.964-3.958,62.2-47.511,62.2-47.511Z" transform="translate(-8287.501 -8126.592)" fill="#e4e8ef"/>
      <rect id="사각형_153047" data-name="사각형 153047" width="79.329" height="3.831" transform="translate(-7338.983 -6698.727)" fill="#c1c8d1"/>
      <path id="패스_86288" data-name="패스 86288" d="M1099.951,1497.867v27.43a13.287,13.287,0,0,1-13.288,13.285h-37.035c37.4,0,50.323-40.715,50.323-40.715" transform="translate(-8359.605 -8176.512)" fill="#d9dee5"/>
      <rect id="사각형_153048" data-name="사각형 153048" width="38.794" height="2.483" transform="translate(-7318.716 -6637.932)" fill="#141e41"/>
      <rect id="사각형_153049" data-name="사각형 153049" width="13.52" height="4.733" transform="translate(-7324.745 -6713.921)" fill="#d9dee5"/>
      <rect id="사각형_153050" data-name="사각형 153050" width="13.52" height="4.733" transform="translate(-7287.414 -6713.921)" fill="#d9dee5"/>
      <path id="패스_86289" data-name="패스 86289" d="M1064.065,1639.792v18.434a10.283,10.283,0,0,1-10.282,10.282h-18.234a10.255,10.255,0,0,1-7.823-3.611v0c28.421,3.486,32.76-25.1,32.76-25.1Z" transform="translate(-8343.986 -8277.724)" fill="#202020"/>
      <path id="패스_86300" data-name="패스 86300" d="M1441.083,1301.64h24.563a3.381,3.381,0,1,1,0,6.762h-24.563a3.381,3.381,0,1,1,0-6.762" transform="translate(-8636.349 -8036.58)" fill="#ffb709"/>
      <path id="패스_86301" data-name="패스 86301" d="M1332.408,1410.314a3.381,3.381,0,0,1,3.382,3.381v24.563a3.381,3.381,0,1,1-6.763,0V1413.7a3.381,3.381,0,0,1,3.381-3.381" transform="translate(-8558.853 -8114.078)" fill="#ffb709"/>
      <path id="패스_86302" data-name="패스 86302" d="M1410.979,1380.21a3.371,3.371,0,0,1,2.391.99l16.874,16.873a3.381,3.381,0,0,1-4.782,4.782l-16.874-16.873a3.381,3.381,0,0,1,2.391-5.772" transform="translate(-8614.883 -8092.609)" fill="#ffb709"/>
      <path id="패스_86281" data-name="패스 86281" d="M317.74,1492.87V1641.29a46.581,46.581,0,0,1-46.525,46.528H-81.911c-19.074,0-25.655-11.937,0-11.937H271.215A34.63,34.63,0,0,0,305.8,1641.29V1492.87Z" transform="translate(-7611.089 -8102.086)" fill="#202020"/>
    </g>
  </g>
</svg>
