<svg xmlns="http://www.w3.org/2000/svg" width="180" height="19.255" viewBox="0 0 180 19.255">
  <g id="그룹_164871" data-name="그룹 164871" transform="translate(-39.702 -40.345)">
    <g id="그룹_164860" data-name="그룹 164860" transform="translate(11.702 1.345)">
      <g id="그룹_164844" data-name="그룹 164844" transform="translate(28 39)">
        <path id="패스_84507" data-name="패스 84507" d="M9.561.676,3.645,8.615H3.574V.676H0v18.3H3.574V13.83l2.341-3.067,4.613,8.208h3.935L8.038,7.87,13.5.676Z" transform="translate(0 -0.193)" fill="#fff"/>
        <path id="패스_84508" data-name="패스 84508" d="M23.927,18.494a9.138,9.138,0,0,1-3.006-1.981l2.052-2.527a8.1,8.1,0,0,0,2.161,1.473,5.591,5.591,0,0,0,2.38.556,3.387,3.387,0,0,0,2.125-.571,1.857,1.857,0,0,0,.724-1.536,1.765,1.765,0,0,0-.193-.867,2.063,2.063,0,0,0-.543-.619,4.168,4.168,0,0,0-.845-.5l-1.1-.5-2.391-1.038a7.433,7.433,0,0,1-1.75-1.04,5.321,5.321,0,0,1-1.34-1.6,4.64,4.64,0,0,1-.531-2.292,4.874,4.874,0,0,1,.459-2.092,4.987,4.987,0,0,1,1.28-1.684A6.154,6.154,0,0,1,25.366.572,7.287,7.287,0,0,1,27.852.163,7.89,7.89,0,0,1,30.907.77a7.4,7.4,0,0,1,2.547,1.745l-1.811,2.3A7.072,7.072,0,0,0,29.88,3.7a5.066,5.066,0,0,0-2.029-.4,3.145,3.145,0,0,0-1.884.508,1.657,1.657,0,0,0-.7,1.427,1.442,1.442,0,0,0,.23.817,2.406,2.406,0,0,0,.6.619,5.3,5.3,0,0,0,.881.508q.508.235,1.087.458L30.411,8.66a6.807,6.807,0,0,1,2.632,1.833,4.721,4.721,0,0,1,.967,3.146,5.227,5.227,0,0,1-.447,2.13,5.112,5.112,0,0,1-1.292,1.771,6.313,6.313,0,0,1-2.069,1.2,8.011,8.011,0,0,1-2.764.446,9.248,9.248,0,0,1-3.511-.693" transform="translate(-5.997 -0.046)" fill="#fff"/>
        <path id="패스_84509" data-name="패스 84509" d="M44.113,18.971H40.489L46.212.676h4.2l5.746,18.3H52.418l-1.255-4.7h-5.8Zm4.96-12.51Q48.7,4.93,48.288,3.445h-.1q-.338,1.509-.727,3.03t-.8,2.954l-.532,2H50.39l-.532-2q-.41-1.435-.785-2.968" transform="translate(-11.621 -0.193)" fill="#fff"/>
        <path id="패스_84510" data-name="패스 84510" d="M64.3,12.409V10.278h7.439V9.1H66.515V.944H79.989V3.013H69.3v.994H79.544V5.993H69.3V7.028H80.142V9.1H74.551v1.18h7.456v2.131Zm13.91,1.635a2.454,2.454,0,0,1,0,4.678,12.714,12.714,0,0,1-5.091.785,12.635,12.635,0,0,1-5.07-.785,2.454,2.454,0,0,1,0-4.678,12.648,12.648,0,0,1,5.07-.785,12.724,12.724,0,0,1,5.093.785Zm-2.073,3.208q.957-.269.956-.869t-.956-.856a12.612,12.612,0,0,0-3.018-.26,12.457,12.457,0,0,0-3.008.26q-.946.258-.946.856t.946.869a12.038,12.038,0,0,0,3.008.269,12.17,12.17,0,0,0,3.02-.271Z" transform="translate(-18.457 -0.271)" fill="#fff"/>
        <path id="패스_84511" data-name="패스 84511" d="M91.717,1.823h4.358V0H98.9V1.823h4.381l-.021,2.134H91.72Zm10.238,7.4a3.234,3.234,0,0,1-.989,1.07,4.974,4.974,0,0,1-1.519.694,7.727,7.727,0,0,1-3.89,0,4.974,4.974,0,0,1-1.519-.694,3.234,3.234,0,0,1-.989-1.07,2.731,2.731,0,0,1-.35-1.367,2.773,2.773,0,0,1,.35-1.389,3.234,3.234,0,0,1,.989-1.07,4.829,4.829,0,0,1,1.519-.685,8.081,8.081,0,0,1,3.89,0,4.829,4.829,0,0,1,1.519.685,3.234,3.234,0,0,1,.989,1.07,2.781,2.781,0,0,1,.351,1.389,2.732,2.732,0,0,1-.351,1.367m5.2,9.8H94.416V12.038H97.2v1.453h7.163v-1.45h2.782ZM95.961,8.892a3.545,3.545,0,0,0,3.082,0,1.212,1.212,0,0,0,0-2.069,3.545,3.545,0,0,0-3.082,0,1.212,1.212,0,0,0,0,2.069m1.244,8h7.163V15.56H97.2Zm9.947-5.573h-2.805V.147h2.805V4.726h2.593V6.964h-2.593Z" transform="translate(-26.325)" fill="#fff"/>
        <path id="패스_84512" data-name="패스 84512" d="M129.409,8.214a4.516,4.516,0,0,1-1.126,1.532,5.331,5.331,0,0,1-1.69,1,5.921,5.921,0,0,1-2.094.362,6.012,6.012,0,0,1-2.1-.362,5.151,5.151,0,0,1-1.69-1,4.711,4.711,0,0,1-1.127-1.532,4.487,4.487,0,0,1-.414-1.926,4.556,4.556,0,0,1,.414-1.946A4.736,4.736,0,0,1,120.7,2.81a5.149,5.149,0,0,1,1.69-1,6.249,6.249,0,0,1,4.2,0,5.329,5.329,0,0,1,1.69,1,4.549,4.549,0,0,1,1.126,1.532,4.654,4.654,0,0,1,.4,1.946,4.592,4.592,0,0,1-.4,1.926m-6.748-.1a2.738,2.738,0,0,0,1.839.642,2.685,2.685,0,0,0,1.838-.642,2.292,2.292,0,0,0,.733-1.822,2.326,2.326,0,0,0-.73-1.83,2.666,2.666,0,0,0-1.838-.652,2.71,2.71,0,0,0-1.839.652,2.292,2.292,0,0,0-.755,1.833,2.26,2.26,0,0,0,.751,1.819m-.542,10.849V12.582h2.806v4.2h10.712v2.174ZM132.319.243h2.827V13.927h-2.827Z" transform="translate(-34.202 -0.069)" fill="#fff"/>
        <path id="패스_84513" data-name="패스 84513" d="M146,9.421h17.684v2.148H146Zm3.21-3.258a9.008,9.008,0,0,0,1.807-.662,4.5,4.5,0,0,0,1.19-.847,2.656,2.656,0,0,0,.616-.962h-5.207V1.524h14.475V3.692h-5.229a2.638,2.638,0,0,0,.616.962,4.485,4.485,0,0,0,1.19.847,8.9,8.9,0,0,0,1.807.662,15.007,15.007,0,0,0,2.465.4L161.96,8.7a12,12,0,0,1-4.623-1.178,6,6,0,0,1-2.5-2.294,6.158,6.158,0,0,1-2.519,2.294A12.008,12.008,0,0,1,147.7,8.7l-.937-2.129a15,15,0,0,0,2.445-.4Zm8.438,6.678a7.82,7.82,0,0,1,2.136.693,3.7,3.7,0,0,1,1.35,1.1,2.5,2.5,0,0,1,.468,1.5,2.548,2.548,0,0,1-.468,1.509,3.663,3.663,0,0,1-1.35,1.116,7.877,7.877,0,0,1-2.136.693,17.154,17.154,0,0,1-5.7,0,7.7,7.7,0,0,1-2.126-.693,3.689,3.689,0,0,1-1.339-1.116,2.548,2.548,0,0,1-.468-1.509,2.505,2.505,0,0,1,.468-1.5,3.722,3.722,0,0,1,1.339-1.1,7.7,7.7,0,0,1,2.126-.693,17.154,17.154,0,0,1,5.7,0Zm1.106,3.3q0-.744-.979-1.085a13.118,13.118,0,0,0-5.951,0q-.979.341-.979,1.085,0,1.448,3.954,1.447t3.955-1.447Z" transform="translate(-41.905 -0.437)" fill="#fff"/>
        <path id="패스_84514" data-name="패스 84514" d="M173.218,8.441H190.9v2.151H173.218ZM174.771.973H189.33V3h-2.486V5.441h2.336V7.468H174.9V5.441h2.359V3h-2.485Zm14.5,18.389H175.259V14.542h10.734v-.927H175.237V11.649h13.515v4.716H178.044V17.4h11.222ZM180.042,5.441h4.017V3h-4.017Z" transform="translate(-49.718 -0.279)" fill="#fff"/>
        <path id="패스_84515" data-name="패스 84515" d="M208.1,11.1q-.784.093-1.626.143t-1.765.071q-.929.02-2.008.021h-1.361V5.39h4.7V3.67h-4.719V1.535h7.419V7.378h-4.7v1.8q1.55-.019,2.827-.125A24.809,24.809,0,0,0,209.46,8.7l.255,2.133q-.829.172-1.616.264m4.188,2.921a4.321,4.321,0,0,0,1.148,1.355,7.392,7.392,0,0,0,1.934,1.088,10.924,10.924,0,0,0,2.763.653l-1.106,2.113A11.506,11.506,0,0,1,213.019,18a7.117,7.117,0,0,1-2.519-2.228A7.33,7.33,0,0,1,207.96,18a11.506,11.506,0,0,1-4.007,1.232l-1.084-2.113a10.889,10.889,0,0,0,2.741-.653,7.573,7.573,0,0,0,1.944-1.088,4.3,4.3,0,0,0,1.158-1.355,3.148,3.148,0,0,0,.382-1.46V12.23H211.9v.332a3.132,3.132,0,0,0,.385,1.46ZM210.4.54h2.614V4.83h1.569V.213h2.657V13.039h-2.657V7.01h-1.569v4.455H210.4Z" transform="translate(-57.792 -0.061)" fill="#fff"/>
        <path id="패스_84516" data-name="패스 84516" d="M227.66,11.831V9.681h7.419V8.192H229.34V6.02H231.7V3.146h-2.486V.973h14.559V3.144h-2.487V6.018H243.6V8.19h-5.717V9.679h7.46V11.83Zm15.58,7.446H229.722V13.071H243.24Zm-2.763-4.053h-8.013V17.15h8.013ZM238.5,3.146h-4.015V6.02H238.5Z" transform="translate(-65.344 -0.279)" fill="#fff"/>
      </g>
    </g>
  </g>
</svg>
